  0
SECTION
  2
HEADER
  9
$ACADVER
  1
AC1014
  9
$HANDSEED
  5
FFFF
  9
$MEASUREMENT
 70
     1
  0
ENDSEC
  0
SECTION
  2
TABLES
  0
TABLE
  2
VPORT
  5
8
330
0
100
AcDbSymbolTable
 70
     4
  0
VPORT
  5
2E
330
8
100
AcDbSymbolTableRecord
100
AcDbViewportTableRecord
  2
*ACTIVE
 70
     0
 10
0.0
 20
0.0
 11
1.0
 21
1.0
 12
210.0
 22
148.5
 13
0.0
 23
0.0
 14
10.0
 24
10.0
 15
10.0
 25
10.0
 16
0.0
 26
0.0
 36
1.0
 17
0.0
 27
0.0
 37
0.0
 40
341.0
 41
1.24
 42
50.0
 43
0.0
 44
0.0
 50
0.0
 51
0.0
 71
     0
 72
   100
 73
     1
 74
     3
 75
     0
 76
     0
 77
     0
 78
     0
  0
ENDTAB
  0
TABLE
  2
LTYPE
  5
5
330
0
100
AcDbSymbolTable
 70
     1
  0
LTYPE
  5
14
330
5
100
AcDbSymbolTableRecord
100
AcDbLinetypeTableRecord
  2
BYBLOCK
 70
     0
  3

 72
    65
 73
     0
 40
0.0
  0
LTYPE
  5
15
330
5
100
AcDbSymbolTableRecord
100
AcDbLinetypeTableRecord
  2
BYLAYER
 70
     0
  3

 72
    65
 73
     0
 40
0.0
  0
LTYPE
  5
16
330
5
100
AcDbSymbolTableRecord
100
AcDbLinetypeTableRecord
  2
CONTINUOUS
 70
     0
  3
Solid line
 72
    65
 73
     0
 40
0.0
  0
ENDTAB
  0
TABLE
  2
LAYER
  5
2
100
AcDbSymbolTable
 70
2
  0
LAYER
  5
50
100
AcDbSymbolTableRecord
100
AcDbLayerTableRecord
  2
0
 70
0
  6
CONTINUOUS
  0
LAYER
  5
51
100
AcDbSymbolTableRecord
100
AcDbLayerTableRecord
  2
Layer_1
 70
0
  6
CONTINUOUS
  0
ENDTAB
  0
TABLE
  2
STYLE
  5
3
330
0
100
AcDbSymbolTable
 70
     1
  0
STYLE
  5
11
330
3
100
AcDbSymbolTableRecord
100
AcDbTextStyleTableRecord
  2
STANDARD
 70
     0
 40
0.0
 41
1.0
 50
0.0
 71
     0
 42
2.5
  3
txt
  4

  0
ENDTAB
  0
TABLE
  2
VIEW
  5
6
330
0
100
AcDbSymbolTable
 70
     0
  0
ENDTAB
  0
TABLE
  2
UCS
  5
7
330
0
100
AcDbSymbolTable
 70
     0
  0
ENDTAB
  0
TABLE
  2
APPID
  5
9
330
0
100
AcDbSymbolTable
 70
     2
  0
APPID
  5
12
330
9
100
AcDbSymbolTableRecord
100
AcDbRegAppTableRecord
  2
ACAD
 70
     0
  0
ENDTAB
  0
TABLE
  2
DIMSTYLE
  5
A
330
0
100
AcDbSymbolTable
 70
     1
  0
DIMSTYLE
105
27
330
A
100
AcDbSymbolTableRecord
100
AcDbDimStyleTableRecord
  2
ISO-25
 70
     0
  3

  4

  5

  6

  7

 40
1.0
 41
2.5
 42
0.625
 43
3.75
 44
1.25
 45
0.0
 46
0.0
 47
0.0
 48
0.0
140
2.5
141
2.5
142
0.0
143
0.03937007874016
144
1.0
145
0.0
146
1.0
147
0.625
 71
     0
 72
     0
 73
     0
 74
     0
 75
     0
 76
     0
 77
     1
 78
     8
170
     0
171
     3
172
     1
173
     0
174
     0
175
     0
176
     0
177
     0
178
     0
270
     2
271
     2
272
     2
273
     2
274
     3
340
11
275
     0
280
     0
281
     0
282
     0
283
     0
284
     8
285
     0
286
     0
287
     3
288
     0
  0
ENDTAB
  0
TABLE
  2
BLOCK_RECORD
  5
1
330
0
100
AcDbSymbolTable
 70
     1
  0
BLOCK_RECORD
  5
1F
330
1
100
AcDbSymbolTableRecord
100
AcDbBlockTableRecord
  2
*MODEL_SPACE
  0
BLOCK_RECORD
  5
1B
330
1
100
AcDbSymbolTableRecord
100
AcDbBlockTableRecord
  2
*PAPER_SPACE
  0
ENDTAB
  0
ENDSEC
  0
SECTION
  2
BLOCKS
  0
BLOCK
  5
20
330
1F
100
AcDbEntity
  8
0
100
AcDbBlockBegin
  2
*MODEL_SPACE
 70
     0
 10
0.0
 20
0.0
 30
0.0
  3
*MODEL_SPACE
  1

  0
ENDBLK
  5
21
330
1F
100
AcDbEntity
  8
0
100
AcDbBlockEnd
  0
BLOCK
  5
1C
330
1B
100
AcDbEntity
 67
     1
  8
0
100
AcDbBlockBegin
  2
*PAPER_SPACE
  1

  0
ENDBLK
  5
1D
330
1B
100
AcDbEntity
 67
     1
  8
0
100
AcDbBlockEnd
  0
ENDSEC
  0
SECTION
  2
ENTITIES
  0
LWPOLYLINE
  5
100
100
AcDbEntity
  8
Layer_1
 62
7
100
AcDbPolyline
 90
64
 70
1
 10
67.795753
 20
48.466738
 30
0.0
 10
67.028965
 20
48.428003
 30
0.0
 10
66.284295
 20
48.314338
 30
0.0
 10
65.565581
 20
48.129501
 30
0.0
 10
64.876527
 20
47.877300
 30
0.0
 10
64.220942
 20
47.561493
 30
0.0
 10
63.602585
 20
47.185812
 30
0.0
 10
63.025238
 20
46.754091
 30
0.0
 10
62.492656
 20
46.270036
 30
0.0
 10
62.008611
 20
45.737456
 30
0.0
 10
61.576869
 20
45.160109
 30
0.0
 10
61.201203
 20
44.541752
 30
0.0
 10
60.885384
 20
43.886167
 30
0.0
 10
60.633180
 20
43.197113
 30
0.0
 10
60.448361
 20
42.478399
 30
0.0
 10
60.334699
 20
41.733729
 30
0.0
 10
60.295958
 20
40.966943
 30
0.0
 10
60.334699
 20
40.200128
 30
0.0
 10
60.448361
 20
39.455485
 30
0.0
 10
60.633180
 20
38.736745
 30
0.0
 10
60.885384
 20
38.047717
 30
0.0
 10
61.201203
 20
37.392133
 30
0.0
 10
61.576869
 20
36.773775
 30
0.0
 10
62.008611
 20
36.196428
 30
0.0
 10
62.492656
 20
35.663848
 30
0.0
 10
63.025238
 20
35.179793
 30
0.0
 10
63.602585
 20
34.748046
 30
0.0
 10
64.220942
 20
34.372391
 30
0.0
 10
64.876527
 20
34.056558
 30
0.0
 10
65.565581
 20
33.804357
 30
0.0
 10
66.284295
 20
33.619546
 30
0.0
 10
67.028965
 20
33.505881
 30
0.0
 10
67.795753
 20
33.467146
 30
0.0
 10
68.562569
 20
33.505881
 30
0.0
 10
69.307209
 20
33.619546
 30
0.0
 10
70.025952
 20
33.804357
 30
0.0
 10
70.714980
 20
34.056558
 30
0.0
 10
71.370562
 20
34.372391
 30
0.0
 10
71.988922
 20
34.748046
 30
0.0
 10
72.566266
 20
35.179793
 30
0.0
 10
73.098846
 20
35.663848
 30
0.0
 10
73.582901
 20
36.196428
 30
0.0
 10
74.014648
 20
36.773775
 30
0.0
 10
74.390303
 20
37.392133
 30
0.0
 10
74.706136
 20
38.047717
 30
0.0
 10
74.958337
 20
38.736745
 30
0.0
 10
75.143148
 20
39.455485
 30
0.0
 10
75.256813
 20
40.200128
 30
0.0
 10
75.295548
 20
40.966943
 30
0.0
 10
75.256813
 20
41.733729
 30
0.0
 10
75.143148
 20
42.478399
 30
0.0
 10
74.958337
 20
43.197113
 30
0.0
 10
74.706136
 20
43.886167
 30
0.0
 10
74.390303
 20
44.541752
 30
0.0
 10
74.014648
 20
45.160109
 30
0.0
 10
73.582901
 20
45.737456
 30
0.0
 10
73.098846
 20
46.270036
 30
0.0
 10
72.566266
 20
46.754091
 30
0.0
 10
71.988922
 20
47.185812
 30
0.0
 10
71.370562
 20
47.561493
 30
0.0
 10
70.714980
 20
47.877300
 30
0.0
 10
70.025952
 20
48.129501
 30
0.0
 10
69.307209
 20
48.314338
 30
0.0
 10
68.562569
 20
48.428003
 30
0.0
  0
LWPOLYLINE
  5
101
100
AcDbEntity
  8
Layer_1
 62
7
100
AcDbPolyline
 90
4
 70
1
 10
66.295593
 20
44.967202
 30
0.0
 10
69.295911
 20
44.967202
 30
0.0
 10
69.295911
 20
36.967185
 30
0.0
 10
66.295593
 20
36.967185
 30
0.0
  0
LWPOLYLINE
  5
102
100
AcDbEntity
  8
Layer_1
 62
7
100
AcDbPolyline
 90
32
 70
1
 10
66.993016
 20
55.704567
 30
0.0
 10
66.799092
 20
53.744555
 30
0.0
 10
66.231810
 20
51.877733
 30
0.0
 10
65.312899
 20
50.156563
 30
0.0
 10
64.064084
 20
48.633503
 30
0.0
 10
62.541021
 20
47.384688
 30
0.0
 10
60.819852
 20
46.465775
 30
0.0
 10
58.953032
 20
45.898492
 30
0.0
 10
56.993017
 20
45.704571
 30
0.0
 10
54.977671
 20
45.907734
 30
0.0
 10
53.100569
 20
46.490421
 30
0.0
 10
51.401926
 20
47.412414
 30
0.0
 10
49.921953
 20
48.633503
 30
0.0
 10
48.700864
 20
50.113476
 30
0.0
 10
47.778871
 20
51.812119
 30
0.0
 10
47.196187
 20
53.689218
 30
0.0
 10
46.993024
 20
55.704567
 30
0.0
 10
47.196187
 20
57.719916
 30
0.0
 10
47.778871
 20
59.597015
 30
0.0
 10
48.700864
 20
61.295661
 30
0.0
 10
49.921953
 20
62.775631
 30
0.0
 10
51.401926
 20
63.996720
 30
0.0
 10
53.100569
 20
64.918713
 30
0.0
 10
54.977671
 20
65.501400
 30
0.0
 10
56.993017
 20
65.704565
 30
0.0
 10
59.008367
 20
65.501400
 30
0.0
 10
60.885468
 20
64.918716
 30
0.0
 10
62.584111
 20
63.996723
 30
0.0
 10
64.064084
 20
62.775634
 30
0.0
 10
65.285173
 20
61.295661
 30
0.0
 10
66.207166
 20
59.597018
 30
0.0
 10
66.789850
 20
57.719916
 30
0.0
  0
LWPOLYLINE
  5
103
100
AcDbEntity
  8
Layer_1
 62
7
100
AcDbPolyline
 90
10
 70
1
 10
55.035154
 20
57.096312
 30
0.0
 10
54.706431
 20
56.437658
 30
0.0
 10
54.592803
 20
55.710351
 30
0.0
 10
54.708558
 20
54.976111
 30
0.0
 10
55.043420
 20
54.312504
 30
0.0
 10
58.942406
 20
54.312504
 30
0.0
 10
59.277270
 20
54.976111
 30
0.0
 10
59.393026
 20
55.710351
 30
0.0
 10
59.280136
 20
56.437526
 30
0.0
 10
58.952225
 20
57.096312
 30
0.0
  0
LWPOLYLINE
  5
104
100
AcDbEntity
  8
Layer_1
 62
7
100
AcDbPolyline
 90
16
 70
1
 10
58.143018
 20
62.204565
 30
0.0
 10
58.055478
 20
61.764479
 30
0.0
 10
57.806190
 20
61.391393
 30
0.0
 10
57.433104
 20
61.142102
 30
0.0
 10
56.993017
 20
61.054565
 30
0.0
 10
56.552931
 20
61.142102
 30
0.0
 10
56.179844
 20
61.391393
 30
0.0
 10
55.930557
 20
61.764479
 30
0.0
 10
55.843017
 20
62.204565
 30
0.0
 10
55.930557
 20
62.644649
 30
0.0
 10
56.179844
 20
63.017738
 30
0.0
 10
56.552931
 20
63.267026
 30
0.0
 10
56.993017
 20
63.354563
 30
0.0
 10
57.433104
 20
63.267026
 30
0.0
 10
57.806190
 20
63.017738
 30
0.0
 10
58.055478
 20
62.644649
 30
0.0
  0
LWPOLYLINE
  5
105
100
AcDbEntity
  8
Layer_1
 62
7
100
AcDbPolyline
 90
16
 70
1
 10
58.143018
 20
49.204569
 30
0.0
 10
58.055478
 20
48.764485
 30
0.0
 10
57.806190
 20
48.391396
 30
0.0
 10
57.433104
 20
48.142108
 30
0.0
 10
56.993017
 20
48.054571
 30
0.0
 10
56.552931
 20
48.142108
 30
0.0
 10
56.179844
 20
48.391396
 30
0.0
 10
55.930557
 20
48.764485
 30
0.0
 10
55.843017
 20
49.204569
 30
0.0
 10
55.930557
 20
49.644655
 30
0.0
 10
56.179844
 20
50.017741
 30
0.0
 10
56.552931
 20
50.267029
 30
0.0
 10
56.993017
 20
50.354569
 30
0.0
 10
57.433104
 20
50.267029
 30
0.0
 10
57.806190
 20
50.017741
 30
0.0
 10
58.055478
 20
49.644655
 30
0.0
  0
LWPOLYLINE
  5
106
100
AcDbEntity
  8
Layer_1
 62
7
100
AcDbPolyline
 90
28
 70
1
 10
71.780523
 20
65.092515
 30
0.0
 10
71.702952
 20
64.308510
 30
0.0
 10
71.476040
 20
63.561782
 30
0.0
 10
71.108476
 20
62.873313
 30
0.0
 10
70.608951
 20
62.264089
 30
0.0
 10
69.999724
 20
61.764563
 30
0.0
 10
69.311257
 20
61.396999
 30
0.0
 10
68.564529
 20
61.170085
 30
0.0
 10
67.780524
 20
61.092517
 30
0.0
 10
66.996519
 20
61.170085
 30
0.0
 10
66.249791
 20
61.396999
 30
0.0
 10
65.561321
 20
61.764563
 30
0.0
 10
64.952097
 20
62.264089
 30
0.0
 10
64.452572
 20
62.873313
 30
0.0
 10
64.085008
 20
63.561782
 30
0.0
 10
63.858093
 20
64.308510
 30
0.0
 10
63.780525
 20
65.092515
 30
0.0
 10
63.861792
 20
65.898653
 30
0.0
 10
64.094866
 20
66.649495
 30
0.0
 10
64.952097
 20
67.920942
 30
0.0
 10
66.223544
 20
68.778173
 30
0.0
 10
66.974384
 20
69.011248
 30
0.0
 10
67.780524
 20
69.092514
 30
0.0
 10
68.586664
 20
69.011248
 30
0.0
 10
69.337504
 20
68.778173
 30
0.0
 10
70.608951
 20
67.920942
 30
0.0
 10
71.466185
 20
66.649495
 30
0.0
 10
71.699259
 20
65.898653
 30
0.0
  0
LWPOLYLINE
  5
107
100
AcDbEntity
  8
Layer_1
 62
7
100
AcDbPolyline
 90
16
 70
1
 10
70.280524
 20
65.092515
 30
0.0
 10
70.090222
 20
64.135806
 30
0.0
 10
69.548289
 20
63.324747
 30
0.0
 10
68.737233
 20
62.782817
 30
0.0
 10
67.780524
 20
62.592516
 30
0.0
 10
66.823815
 20
62.782817
 30
0.0
 10
66.012756
 20
63.324747
 30
0.0
 10
65.470826
 20
64.135806
 30
0.0
 10
65.280524
 20
65.092515
 30
0.0
 10
65.476988
 20
66.065629
 30
0.0
 10
66.012758
 20
66.860281
 30
0.0
 10
66.807411
 20
67.396051
 30
0.0
 10
67.780524
 20
67.592515
 30
0.0
 10
68.753637
 20
67.396051
 30
0.0
 10
69.548289
 20
66.860281
 30
0.0
 10
70.084060
 20
66.065629
 30
0.0
  0
LWPOLYLINE
  5
108
100
AcDbEntity
  8
Layer_1
 62
7
100
AcDbPolyline
 90
2
 70
0
 10
50.327202
 20
55.710203
 30
0.0
 10
63.658838
 20
55.710203
 30
0.0
  0
LWPOLYLINE
  5
109
100
AcDbEntity
  8
Layer_1
 62
7
100
AcDbPolyline
 90
2
 70
0
 10
52.838383
 20
52.433641
 30
0.0
 10
61.147654
 20
52.433641
 30
0.0
  0
LWPOLYLINE
  5
10a
100
AcDbEntity
  8
Layer_1
 62
7
100
AcDbPolyline
 90
2
 70
0
 10
52.838372
 20
58.975493
 30
0.0
 10
61.147660
 20
58.975493
 30
0.0
  0
LWPOLYLINE
  5
10b
100
AcDbEntity
  8
Layer_1
 62
7
100
AcDbPolyline
 90
32
 70
1
 10
88.407760
 20
55.704567
 30
0.0
 10
88.213837
 20
53.744555
 30
0.0
 10
87.646554
 20
51.877733
 30
0.0
 10
86.727643
 20
50.156563
 30
0.0
 10
85.478826
 20
48.633503
 30
0.0
 10
83.955766
 20
47.384688
 30
0.0
 10
82.234596
 20
46.465775
 30
0.0
 10
80.367776
 20
45.898492
 30
0.0
 10
78.407762
 20
45.704571
 30
0.0
 10
76.392415
 20
45.907734
 30
0.0
 10
74.515311
 20
46.490418
 30
0.0
 10
72.816668
 20
47.412414
 30
0.0
 10
71.336698
 20
48.633503
 30
0.0
 10
70.115606
 20
50.113473
 30
0.0
 10
69.193613
 20
51.812116
 30
0.0
 10
68.610929
 20
53.689218
 30
0.0
 10
68.407764
 20
55.704567
 30
0.0
 10
68.610929
 20
57.719916
 30
0.0
 10
69.193613
 20
59.597018
 30
0.0
 10
70.115606
 20
61.295661
 30
0.0
 10
71.336698
 20
62.775634
 30
0.0
 10
72.816668
 20
63.996723
 30
0.0
 10
74.515311
 20
64.918716
 30
0.0
 10
76.392415
 20
65.501400
 30
0.0
 10
78.407762
 20
65.704565
 30
0.0
 10
80.423111
 20
65.501400
 30
0.0
 10
82.300213
 20
64.918716
 30
0.0
 10
83.998856
 20
63.996723
 30
0.0
 10
85.478826
 20
62.775634
 30
0.0
 10
86.699918
 20
61.295661
 30
0.0
 10
87.621911
 20
59.597018
 30
0.0
 10
88.204595
 20
57.719916
 30
0.0
  0
LWPOLYLINE
  5
10c
100
AcDbEntity
  8
Layer_1
 62
7
100
AcDbPolyline
 90
10
 70
1
 10
76.449862
 20
57.096312
 30
0.0
 10
76.121138
 20
56.437658
 30
0.0
 10
76.007510
 20
55.710351
 30
0.0
 10
76.123265
 20
54.976111
 30
0.0
 10
76.458130
 20
54.312504
 30
0.0
 10
80.357113
 20
54.312504
 30
0.0
 10
80.691978
 20
54.976111
 30
0.0
 10
80.807733
 20
55.710351
 30
0.0
 10
80.694843
 20
56.437526
 30
0.0
 10
80.366932
 20
57.096312
 30
0.0
  0
LWPOLYLINE
  5
10d
100
AcDbEntity
  8
Layer_1
 62
7
100
AcDbPolyline
 90
16
 70
1
 10
79.907769
 20
62.204565
 30
0.0
 10
79.793588
 20
61.630539
 30
0.0
 10
79.468429
 20
61.143904
 30
0.0
 10
78.981794
 20
60.818747
 30
0.0
 10
78.407770
 20
60.704566
 30
0.0
 10
77.833743
 20
60.818747
 30
0.0
 10
77.347108
 20
61.143904
 30
0.0
 10
77.021949
 20
61.630539
 30
0.0
 10
76.907771
 20
62.204565
 30
0.0
 10
77.021949
 20
62.778589
 30
0.0
 10
77.347108
 20
63.265224
 30
0.0
 10
77.833743
 20
63.590384
 30
0.0
 10
78.407770
 20
63.704565
 30
0.0
 10
78.981794
 20
63.590384
 30
0.0
 10
79.468429
 20
63.265224
 30
0.0
 10
79.793588
 20
62.778589
 30
0.0
  0
LWPOLYLINE
  5
10e
100
AcDbEntity
  8
Layer_1
 62
7
100
AcDbPolyline
 90
16
 70
1
 10
79.907769
 20
49.204569
 30
0.0
 10
79.793588
 20
48.630545
 30
0.0
 10
79.468429
 20
48.143907
 30
0.0
 10
78.981794
 20
47.818750
 30
0.0
 10
78.407770
 20
47.704569
 30
0.0
 10
77.833743
 20
47.818750
 30
0.0
 10
77.347108
 20
48.143907
 30
0.0
 10
77.021949
 20
48.630545
 30
0.0
 10
76.907771
 20
49.204569
 30
0.0
 10
77.021949
 20
49.778595
 30
0.0
 10
77.347108
 20
50.265230
 30
0.0
 10
77.833743
 20
50.590387
 30
0.0
 10
78.407770
 20
50.704568
 30
0.0
 10
78.981794
 20
50.590387
 30
0.0
 10
79.468429
 20
50.265230
 30
0.0
 10
79.793588
 20
49.778595
 30
0.0
  0
LWPOLYLINE
  5
10f
100
AcDbEntity
  8
Layer_1
 62
7
100
AcDbPolyline
 90
2
 70
0
 10
71.741949
 20
55.710203
 30
0.0
 10
85.073585
 20
55.710203
 30
0.0
  0
LWPOLYLINE
  5
110
100
AcDbEntity
  8
Layer_1
 62
7
100
AcDbPolyline
 90
2
 70
0
 10
74.253127
 20
52.433641
 30
0.0
 10
82.562402
 20
52.433641
 30
0.0
  0
LWPOLYLINE
  5
111
100
AcDbEntity
  8
Layer_1
 62
7
100
AcDbPolyline
 90
2
 70
0
 10
74.253117
 20
58.975493
 30
0.0
 10
82.562407
 20
58.975493
 30
0.0
  0
ENDSEC
  0
SECTION
  2
OBJECTS
  0
DICTIONARY
  5
C
330
0
100
AcDbDictionary
  3
ACAD_GROUP
350
D
  3
ACAD_MLINESTYLE
350
17
  0
DICTIONARY
  5
D
330
C
100
AcDbDictionary
  0
DICTIONARY
  5
1A
330
C
100
AcDbDictionary
  0
DICTIONARY
  5
17
330
C
100
AcDbDictionary
  3
STANDARD
350
18
  0
DICTIONARY
  5
19
330
C
100
AcDbDictionary
  0
ENDSEC
  0
EOF
