  0
SECTION
  2
HEADER
  9
$ACADVER
  1
AC1014
  9
$HANDSEED
  5
FFFF
  9
$MEASUREMENT
 70
     1
  0
ENDSEC
  0
SECTION
  2
TABLES
  0
TABLE
  2
VPORT
  5
8
330
0
100
AcDbSymbolTable
 70
     4
  0
VPORT
  5
2E
330
8
100
AcDbSymbolTableRecord
100
AcDbViewportTableRecord
  2
*ACTIVE
 70
     0
 10
0.0
 20
0.0
 11
1.0
 21
1.0
 12
210.0
 22
148.5
 13
0.0
 23
0.0
 14
10.0
 24
10.0
 15
10.0
 25
10.0
 16
0.0
 26
0.0
 36
1.0
 17
0.0
 27
0.0
 37
0.0
 40
341.0
 41
1.24
 42
50.0
 43
0.0
 44
0.0
 50
0.0
 51
0.0
 71
     0
 72
   100
 73
     1
 74
     3
 75
     0
 76
     0
 77
     0
 78
     0
  0
ENDTAB
  0
TABLE
  2
LTYPE
  5
5
330
0
100
AcDbSymbolTable
 70
     1
  0
LTYPE
  5
14
330
5
100
AcDbSymbolTableRecord
100
AcDbLinetypeTableRecord
  2
BYBLOCK
 70
     0
  3

 72
    65
 73
     0
 40
0.0
  0
LTYPE
  5
15
330
5
100
AcDbSymbolTableRecord
100
AcDbLinetypeTableRecord
  2
BYLAYER
 70
     0
  3

 72
    65
 73
     0
 40
0.0
  0
LTYPE
  5
16
330
5
100
AcDbSymbolTableRecord
100
AcDbLinetypeTableRecord
  2
CONTINUOUS
 70
     0
  3
Solid line
 72
    65
 73
     0
 40
0.0
  0
ENDTAB
  0
TABLE
  2
LAYER
  5
2
100
AcDbSymbolTable
 70
2
  0
LAYER
  5
50
100
AcDbSymbolTableRecord
100
AcDbLayerTableRecord
  2
0
 70
0
  6
CONTINUOUS
  0
LAYER
  5
51
100
AcDbSymbolTableRecord
100
AcDbLayerTableRecord
  2
Layer_1
 70
0
  6
CONTINUOUS
  0
ENDTAB
  0
TABLE
  2
STYLE
  5
3
330
0
100
AcDbSymbolTable
 70
     1
  0
STYLE
  5
11
330
3
100
AcDbSymbolTableRecord
100
AcDbTextStyleTableRecord
  2
STANDARD
 70
     0
 40
0.0
 41
1.0
 50
0.0
 71
     0
 42
2.5
  3
txt
  4

  0
ENDTAB
  0
TABLE
  2
VIEW
  5
6
330
0
100
AcDbSymbolTable
 70
     0
  0
ENDTAB
  0
TABLE
  2
UCS
  5
7
330
0
100
AcDbSymbolTable
 70
     0
  0
ENDTAB
  0
TABLE
  2
APPID
  5
9
330
0
100
AcDbSymbolTable
 70
     2
  0
APPID
  5
12
330
9
100
AcDbSymbolTableRecord
100
AcDbRegAppTableRecord
  2
ACAD
 70
     0
  0
ENDTAB
  0
TABLE
  2
DIMSTYLE
  5
A
330
0
100
AcDbSymbolTable
 70
     1
  0
DIMSTYLE
105
27
330
A
100
AcDbSymbolTableRecord
100
AcDbDimStyleTableRecord
  2
ISO-25
 70
     0
  3

  4

  5

  6

  7

 40
1.0
 41
2.5
 42
0.625
 43
3.75
 44
1.25
 45
0.0
 46
0.0
 47
0.0
 48
0.0
140
2.5
141
2.5
142
0.0
143
0.03937007874016
144
1.0
145
0.0
146
1.0
147
0.625
 71
     0
 72
     0
 73
     0
 74
     0
 75
     0
 76
     0
 77
     1
 78
     8
170
     0
171
     3
172
     1
173
     0
174
     0
175
     0
176
     0
177
     0
178
     0
270
     2
271
     2
272
     2
273
     2
274
     3
340
11
275
     0
280
     0
281
     0
282
     0
283
     0
284
     8
285
     0
286
     0
287
     3
288
     0
  0
ENDTAB
  0
TABLE
  2
BLOCK_RECORD
  5
1
330
0
100
AcDbSymbolTable
 70
     1
  0
BLOCK_RECORD
  5
1F
330
1
100
AcDbSymbolTableRecord
100
AcDbBlockTableRecord
  2
*MODEL_SPACE
  0
BLOCK_RECORD
  5
1B
330
1
100
AcDbSymbolTableRecord
100
AcDbBlockTableRecord
  2
*PAPER_SPACE
  0
ENDTAB
  0
ENDSEC
  0
SECTION
  2
BLOCKS
  0
BLOCK
  5
20
330
1F
100
AcDbEntity
  8
0
100
AcDbBlockBegin
  2
*MODEL_SPACE
 70
     0
 10
0.0
 20
0.0
 30
0.0
  3
*MODEL_SPACE
  1

  0
ENDBLK
  5
21
330
1F
100
AcDbEntity
  8
0
100
AcDbBlockEnd
  0
BLOCK
  5
1C
330
1B
100
AcDbEntity
 67
     1
  8
0
100
AcDbBlockBegin
  2
*PAPER_SPACE
  1

  0
ENDBLK
  5
1D
330
1B
100
AcDbEntity
 67
     1
  8
0
100
AcDbBlockEnd
  0
ENDSEC
  0
SECTION
  2
ENTITIES
  0
LWPOLYLINE
  5
100
100
AcDbEntity
  8
Layer_1
 62
7
100
AcDbPolyline
 90
33
 70
1
 10
22.426257
 20
46.475673
 30
0.0
 10
22.232335
 20
44.515659
 30
0.0
 10
21.665053
 20
42.648838
 30
0.0
 10
20.746140
 20
40.927668
 30
0.0
 10
19.497325
 20
39.404605
 30
0.0
 10
17.974262
 20
38.155790
 30
0.0
 10
16.253092
 20
37.236877
 30
0.0
 10
14.386271
 20
36.669595
 30
0.0
 10
12.426257
 20
36.475673
 30
0.0
 10
10.410909
 20
36.678838
 30
0.0
 10
8.533807
 20
37.261523
 30
0.0
 10
6.835163
 20
38.183517
 30
0.0
 10
5.355191
 20
39.404606
 30
0.0
 10
4.134102
 20
40.884579
 30
0.0
 10
3.212109
 20
42.583222
 30
0.0
 10
2.629424
 20
44.460324
 30
0.0
 10
2.426260
 20
46.475673
 30
0.0
 10
2.629424
 20
48.491021
 30
0.0
 10
3.212109
 20
50.368123
 30
0.0
 10
4.134102
 20
52.066767
 30
0.0
 10
5.355191
 20
53.546740
 30
0.0
 10
6.835164
 20
54.767829
 30
0.0
 10
8.533807
 20
55.689822
 30
0.0
 10
10.410909
 20
56.272508
 30
0.0
 10
12.426257
 20
56.475673
 30
0.0
 10
14.441606
 20
56.272508
 30
0.0
 10
16.318709
 20
55.689823
 30
0.0
 10
18.017352
 20
54.767830
 30
0.0
 10
19.497325
 20
53.546741
 30
0.0
 10
20.718414
 20
52.066768
 30
0.0
 10
21.640408
 20
50.368124
 30
0.0
 10
22.223093
 20
48.491022
 30
0.0
 10
22.426257
 20
46.475673
 30
0.0
  0
LWPOLYLINE
  5
101
100
AcDbEntity
  8
Layer_1
 62
7
100
AcDbPolyline
 90
11
 70
1
 10
10.468392
 20
47.867419
 30
0.0
 10
10.139669
 20
47.208764
 30
0.0
 10
10.026041
 20
46.481457
 30
0.0
 10
10.141797
 20
45.747217
 30
0.0
 10
10.476660
 20
45.083610
 30
0.0
 10
14.375647
 20
45.083610
 30
0.0
 10
14.710510
 20
45.747217
 30
0.0
 10
14.826265
 20
46.481457
 30
0.0
 10
14.713377
 20
47.208632
 30
0.0
 10
14.385465
 20
47.867419
 30
0.0
 10
10.468392
 20
47.867419
 30
0.0
  0
LWPOLYLINE
  5
102
100
AcDbEntity
  8
Layer_1
 62
7
100
AcDbPolyline
 90
17
 70
1
 10
13.576257
 20
52.975672
 30
0.0
 10
13.488719
 20
52.535586
 30
0.0
 10
13.239430
 20
52.162499
 30
0.0
 10
12.866343
 20
51.913210
 30
0.0
 10
12.426257
 20
51.825672
 30
0.0
 10
11.986171
 20
51.913210
 30
0.0
 10
11.613084
 20
52.162499
 30
0.0
 10
11.363796
 20
52.535586
 30
0.0
 10
11.276257
 20
52.975672
 30
0.0
 10
11.363796
 20
53.415758
 30
0.0
 10
11.613084
 20
53.788845
 30
0.0
 10
11.986171
 20
54.038133
 30
0.0
 10
12.426257
 20
54.125672
 30
0.0
 10
12.866343
 20
54.038133
 30
0.0
 10
13.239430
 20
53.788845
 30
0.0
 10
13.488719
 20
53.415758
 30
0.0
 10
13.576257
 20
52.975672
 30
0.0
  0
LWPOLYLINE
  5
103
100
AcDbEntity
  8
Layer_1
 62
7
100
AcDbPolyline
 90
17
 70
1
 10
13.576257
 20
39.975673
 30
0.0
 10
13.488719
 20
39.535587
 30
0.0
 10
13.239430
 20
39.162500
 30
0.0
 10
12.866343
 20
38.913211
 30
0.0
 10
12.426257
 20
38.825673
 30
0.0
 10
11.986171
 20
38.913211
 30
0.0
 10
11.613084
 20
39.162500
 30
0.0
 10
11.363796
 20
39.535587
 30
0.0
 10
11.276257
 20
39.975673
 30
0.0
 10
11.363796
 20
40.415759
 30
0.0
 10
11.613084
 20
40.788845
 30
0.0
 10
11.986171
 20
41.038134
 30
0.0
 10
12.426257
 20
41.125673
 30
0.0
 10
12.866343
 20
41.038134
 30
0.0
 10
13.239430
 20
40.788845
 30
0.0
 10
13.488719
 20
40.415759
 30
0.0
 10
13.576257
 20
39.975673
 30
0.0
  0
LWPOLYLINE
  5
104
100
AcDbEntity
  8
Layer_1
 62
7
100
AcDbPolyline
 90
29
 70
1
 10
27.213766
 20
55.863623
 30
0.0
 10
27.136197
 20
55.079618
 30
0.0
 10
26.909285
 20
54.332889
 30
0.0
 10
26.541719
 20
53.644421
 30
0.0
 10
26.042194
 20
53.035196
 30
0.0
 10
25.432968
 20
52.535670
 30
0.0
 10
24.744500
 20
52.168105
 30
0.0
 10
23.997772
 20
51.941192
 30
0.0
 10
23.213766
 20
51.863623
 30
0.0
 10
22.429761
 20
51.941192
 30
0.0
 10
21.683033
 20
52.168105
 30
0.0
 10
20.994564
 20
52.535670
 30
0.0
 10
20.385339
 20
53.035196
 30
0.0
 10
19.885813
 20
53.644421
 30
0.0
 10
19.518248
 20
54.332889
 30
0.0
 10
19.291335
 20
55.079618
 30
0.0
 10
19.213766
 20
55.863623
 30
0.0
 10
19.295032
 20
56.669762
 30
0.0
 10
19.528106
 20
57.420603
 30
0.0
 10
20.385339
 20
58.692050
 30
0.0
 10
21.656786
 20
59.549283
 30
0.0
 10
22.407627
 20
59.782357
 30
0.0
 10
23.213766
 20
59.863623
 30
0.0
 10
24.019906
 20
59.782357
 30
0.0
 10
24.770747
 20
59.549283
 30
0.0
 10
26.042193
 20
58.692050
 30
0.0
 10
26.899427
 20
57.420603
 30
0.0
 10
27.132501
 20
56.669762
 30
0.0
 10
27.213766
 20
55.863623
 30
0.0
  0
LWPOLYLINE
  5
105
100
AcDbEntity
  8
Layer_1
 62
7
100
AcDbPolyline
 90
17
 70
1
 10
25.713766
 20
55.863623
 30
0.0
 10
25.523465
 20
54.906914
 30
0.0
 10
24.981533
 20
54.095856
 30
0.0
 10
24.170475
 20
53.553924
 30
0.0
 10
23.213766
 20
53.363623
 30
0.0
 10
22.257058
 20
53.553924
 30
0.0
 10
21.445999
 20
54.095856
 30
0.0
 10
20.904068
 20
54.906914
 30
0.0
 10
20.713766
 20
55.863623
 30
0.0
 10
20.910229
 20
56.836736
 30
0.0
 10
21.446000
 20
57.631390
 30
0.0
 10
22.240654
 20
58.167160
 30
0.0
 10
23.213766
 20
58.363623
 30
0.0
 10
24.186879
 20
58.167160
 30
0.0
 10
24.981533
 20
57.631390
 30
0.0
 10
25.517304
 20
56.836736
 30
0.0
 10
25.713766
 20
55.863623
 30
0.0
  0
LWPOLYLINE
  5
106
100
AcDbEntity
  8
Layer_1
 62
7
100
AcDbPolyline
 90
2
 70
0
 10
5.760440
 20
46.481308
 30
0.0
 10
19.092079
 20
46.481308
 30
0.0
  0
LWPOLYLINE
  5
107
100
AcDbEntity
  8
Layer_1
 62
7
100
AcDbPolyline
 90
2
 70
0
 10
8.271620
 20
43.204745
 30
0.0
 10
16.580896
 20
43.204745
 30
0.0
  0
LWPOLYLINE
  5
108
100
AcDbEntity
  8
Layer_1
 62
7
100
AcDbPolyline
 90
2
 70
0
 10
8.271610
 20
49.746600
 30
0.0
 10
16.580900
 20
49.746600
 30
0.0
  0
LWPOLYLINE
  5
109
100
AcDbEntity
  8
Layer_1
 62
7
100
AcDbPolyline
 90
33
 70
1
 10
43.841008
 20
46.475673
 30
0.0
 10
43.647085
 20
44.515659
 30
0.0
 10
43.079803
 20
42.648838
 30
0.0
 10
42.160890
 20
40.927668
 30
0.0
 10
40.912075
 20
39.404605
 30
0.0
 10
39.389013
 20
38.155790
 30
0.0
 10
37.667842
 20
37.236877
 30
0.0
 10
35.801021
 20
36.669595
 30
0.0
 10
33.841008
 20
36.475673
 30
0.0
 10
31.825659
 20
36.678837
 30
0.0
 10
29.948556
 20
37.261522
 30
0.0
 10
28.249912
 20
38.183516
 30
0.0
 10
26.769940
 20
39.404605
 30
0.0
 10
25.548850
 20
40.884578
 30
0.0
 10
24.626857
 20
42.583221
 30
0.0
 10
24.044172
 20
44.460324
 30
0.0
 10
23.841007
 20
46.475673
 30
0.0
 10
24.044172
 20
48.491022
 30
0.0
 10
24.626857
 20
50.368124
 30
0.0
 10
25.548850
 20
52.066768
 30
0.0
 10
26.769940
 20
53.546741
 30
0.0
 10
28.249912
 20
54.767830
 30
0.0
 10
29.948556
 20
55.689823
 30
0.0
 10
31.825659
 20
56.272508
 30
0.0
 10
33.841008
 20
56.475673
 30
0.0
 10
35.856356
 20
56.272508
 30
0.0
 10
37.733459
 20
55.689823
 30
0.0
 10
39.432103
 20
54.767830
 30
0.0
 10
40.912075
 20
53.546741
 30
0.0
 10
42.133165
 20
52.066768
 30
0.0
 10
43.055158
 20
50.368124
 30
0.0
 10
43.637843
 20
48.491022
 30
0.0
 10
43.841008
 20
46.475673
 30
0.0
  0
LWPOLYLINE
  5
10a
100
AcDbEntity
  8
Layer_1
 62
7
100
AcDbPolyline
 90
11
 70
1
 10
31.883106
 20
47.867419
 30
0.0
 10
31.554383
 20
47.208764
 30
0.0
 10
31.440755
 20
46.481457
 30
0.0
 10
31.556511
 20
45.747217
 30
0.0
 10
31.891375
 20
45.083610
 30
0.0
 10
35.790359
 20
45.083610
 30
0.0
 10
36.125223
 20
45.747217
 30
0.0
 10
36.240979
 20
46.481457
 30
0.0
 10
36.128090
 20
47.208632
 30
0.0
 10
35.800178
 20
47.867419
 30
0.0
 10
31.883106
 20
47.867419
 30
0.0
  0
LWPOLYLINE
  5
10b
100
AcDbEntity
  8
Layer_1
 62
7
100
AcDbPolyline
 90
17
 70
1
 10
35.341015
 20
52.975672
 30
0.0
 10
35.226834
 20
52.401647
 30
0.0
 10
34.901675
 20
51.915012
 30
0.0
 10
34.415040
 20
51.589853
 30
0.0
 10
33.841015
 20
51.475672
 30
0.0
 10
33.266989
 20
51.589853
 30
0.0
 10
32.780354
 20
51.915012
 30
0.0
 10
32.455195
 20
52.401647
 30
0.0
 10
32.341015
 20
52.975672
 30
0.0
 10
32.455195
 20
53.549697
 30
0.0
 10
32.780354
 20
54.036332
 30
0.0
 10
33.266989
 20
54.361491
 30
0.0
 10
33.841015
 20
54.475672
 30
0.0
 10
34.415040
 20
54.361491
 30
0.0
 10
34.901675
 20
54.036332
 30
0.0
 10
35.226834
 20
53.549697
 30
0.0
 10
35.341015
 20
52.975672
 30
0.0
  0
LWPOLYLINE
  5
10c
100
AcDbEntity
  8
Layer_1
 62
7
100
AcDbPolyline
 90
17
 70
1
 10
35.341015
 20
39.975673
 30
0.0
 10
35.226834
 20
39.401648
 30
0.0
 10
34.901675
 20
38.915012
 30
0.0
 10
34.415040
 20
38.589853
 30
0.0
 10
33.841015
 20
38.475673
 30
0.0
 10
33.266989
 20
38.589853
 30
0.0
 10
32.780354
 20
38.915012
 30
0.0
 10
32.455195
 20
39.401648
 30
0.0
 10
32.341015
 20
39.975673
 30
0.0
 10
32.455195
 20
40.549698
 30
0.0
 10
32.780354
 20
41.036333
 30
0.0
 10
33.266989
 20
41.361492
 30
0.0
 10
33.841015
 20
41.475673
 30
0.0
 10
34.415040
 20
41.361492
 30
0.0
 10
34.901675
 20
41.036333
 30
0.0
 10
35.226834
 20
40.549698
 30
0.0
 10
35.341015
 20
39.975673
 30
0.0
  0
LWPOLYLINE
  5
10d
100
AcDbEntity
  8
Layer_1
 62
7
100
AcDbPolyline
 90
2
 70
0
 10
27.175192
 20
46.481308
 30
0.0
 10
40.506832
 20
46.481308
 30
0.0
  0
LWPOLYLINE
  5
10e
100
AcDbEntity
  8
Layer_1
 62
7
100
AcDbPolyline
 90
2
 70
0
 10
29.686372
 20
43.204745
 30
0.0
 10
37.995649
 20
43.204745
 30
0.0
  0
LWPOLYLINE
  5
10f
100
AcDbEntity
  8
Layer_1
 62
7
100
AcDbPolyline
 90
2
 70
0
 10
29.686362
 20
49.746600
 30
0.0
 10
37.995653
 20
49.746600
 30
0.0
  0
ENDSEC
  0
SECTION
  2
OBJECTS
  0
DICTIONARY
  5
C
330
0
100
AcDbDictionary
  3
ACAD_GROUP
350
D
  3
ACAD_MLINESTYLE
350
17
  0
DICTIONARY
  5
D
330
C
100
AcDbDictionary
  0
DICTIONARY
  5
1A
330
C
100
AcDbDictionary
  0
DICTIONARY
  5
17
330
C
100
AcDbDictionary
  3
STANDARD
350
18
  0
DICTIONARY
  5
19
330
C
100
AcDbDictionary
  0
ENDSEC
  0
EOF
