  0
SECTION
  2
HEADER
  9
$ACADVER
  1
AC1014
  9
$HANDSEED
  5
FFFF
  9
$MEASUREMENT
 70
     1
  0
ENDSEC
  0
SECTION
  2
TABLES
  0
TABLE
  2
VPORT
  5
8
330
0
100
AcDbSymbolTable
 70
     4
  0
VPORT
  5
2E
330
8
100
AcDbSymbolTableRecord
100
AcDbViewportTableRecord
  2
*ACTIVE
 70
     0
 10
0.0
 20
0.0
 11
1.0
 21
1.0
 12
210.0
 22
148.5
 13
0.0
 23
0.0
 14
10.0
 24
10.0
 15
10.0
 25
10.0
 16
0.0
 26
0.0
 36
1.0
 17
0.0
 27
0.0
 37
0.0
 40
341.0
 41
1.24
 42
50.0
 43
0.0
 44
0.0
 50
0.0
 51
0.0
 71
     0
 72
   100
 73
     1
 74
     3
 75
     0
 76
     0
 77
     0
 78
     0
  0
ENDTAB
  0
TABLE
  2
LTYPE
  5
5
330
0
100
AcDbSymbolTable
 70
     1
  0
LTYPE
  5
14
330
5
100
AcDbSymbolTableRecord
100
AcDbLinetypeTableRecord
  2
BYBLOCK
 70
     0
  3

 72
    65
 73
     0
 40
0.0
  0
LTYPE
  5
15
330
5
100
AcDbSymbolTableRecord
100
AcDbLinetypeTableRecord
  2
BYLAYER
 70
     0
  3

 72
    65
 73
     0
 40
0.0
  0
LTYPE
  5
16
330
5
100
AcDbSymbolTableRecord
100
AcDbLinetypeTableRecord
  2
CONTINUOUS
 70
     0
  3
Solid line
 72
    65
 73
     0
 40
0.0
  0
ENDTAB
  0
TABLE
  2
LAYER
  5
2
100
AcDbSymbolTable
 70
2
  0
LAYER
  5
50
100
AcDbSymbolTableRecord
100
AcDbLayerTableRecord
  2
0
 70
0
  6
CONTINUOUS
  0
LAYER
  5
51
100
AcDbSymbolTableRecord
100
AcDbLayerTableRecord
  2
Layer_1
 70
0
  6
CONTINUOUS
  0
ENDTAB
  0
TABLE
  2
STYLE
  5
3
330
0
100
AcDbSymbolTable
 70
     1
  0
STYLE
  5
11
330
3
100
AcDbSymbolTableRecord
100
AcDbTextStyleTableRecord
  2
STANDARD
 70
     0
 40
0.0
 41
1.0
 50
0.0
 71
     0
 42
2.5
  3
txt
  4

  0
ENDTAB
  0
TABLE
  2
VIEW
  5
6
330
0
100
AcDbSymbolTable
 70
     0
  0
ENDTAB
  0
TABLE
  2
UCS
  5
7
330
0
100
AcDbSymbolTable
 70
     0
  0
ENDTAB
  0
TABLE
  2
APPID
  5
9
330
0
100
AcDbSymbolTable
 70
     2
  0
APPID
  5
12
330
9
100
AcDbSymbolTableRecord
100
AcDbRegAppTableRecord
  2
ACAD
 70
     0
  0
ENDTAB
  0
TABLE
  2
DIMSTYLE
  5
A
330
0
100
AcDbSymbolTable
 70
     1
  0
DIMSTYLE
105
27
330
A
100
AcDbSymbolTableRecord
100
AcDbDimStyleTableRecord
  2
ISO-25
 70
     0
  3

  4

  5

  6

  7

 40
1.0
 41
2.5
 42
0.625
 43
3.75
 44
1.25
 45
0.0
 46
0.0
 47
0.0
 48
0.0
140
2.5
141
2.5
142
0.0
143
0.03937007874016
144
1.0
145
0.0
146
1.0
147
0.625
 71
     0
 72
     0
 73
     0
 74
     0
 75
     0
 76
     0
 77
     1
 78
     8
170
     0
171
     3
172
     1
173
     0
174
     0
175
     0
176
     0
177
     0
178
     0
270
     2
271
     2
272
     2
273
     2
274
     3
340
11
275
     0
280
     0
281
     0
282
     0
283
     0
284
     8
285
     0
286
     0
287
     3
288
     0
  0
ENDTAB
  0
TABLE
  2
BLOCK_RECORD
  5
1
330
0
100
AcDbSymbolTable
 70
     1
  0
BLOCK_RECORD
  5
1F
330
1
100
AcDbSymbolTableRecord
100
AcDbBlockTableRecord
  2
*MODEL_SPACE
  0
BLOCK_RECORD
  5
1B
330
1
100
AcDbSymbolTableRecord
100
AcDbBlockTableRecord
  2
*PAPER_SPACE
  0
ENDTAB
  0
ENDSEC
  0
SECTION
  2
BLOCKS
  0
BLOCK
  5
20
330
1F
100
AcDbEntity
  8
0
100
AcDbBlockBegin
  2
*MODEL_SPACE
 70
     0
 10
0.0
 20
0.0
 30
0.0
  3
*MODEL_SPACE
  1

  0
ENDBLK
  5
21
330
1F
100
AcDbEntity
  8
0
100
AcDbBlockEnd
  0
BLOCK
  5
1C
330
1B
100
AcDbEntity
 67
     1
  8
0
100
AcDbBlockBegin
  2
*PAPER_SPACE
  1

  0
ENDBLK
  5
1D
330
1B
100
AcDbEntity
 67
     1
  8
0
100
AcDbBlockEnd
  0
ENDSEC
  0
SECTION
  2
ENTITIES
  0
LWPOLYLINE
  5
100
100
AcDbEntity
  8
Layer_1
 62
7
100
AcDbPolyline
 90
16
 70
1
 10
267.672584
 20
198.771041
 30
0.0
 10
261.672634
 20
198.771041
 30
0.0
 10
261.672634
 20
195.771225
 30
0.0
 10
243.672523
 20
195.771225
 30
0.0
 10
243.672523
 20
198.771041
 30
0.0
 10
237.672573
 20
198.771041
 30
0.0
 10
237.672573
 20
195.771225
 30
0.0
 10
237.672573
 20
99.771750
 30
0.0
 10
237.672573
 20
96.771115
 30
0.0
 10
243.672523
 20
96.771115
 30
0.0
 10
243.672523
 20
99.771750
 30
0.0
 10
261.672634
 20
99.771750
 30
0.0
 10
261.672634
 20
96.771115
 30
0.0
 10
267.672584
 20
96.771115
 30
0.0
 10
267.672584
 20
99.771750
 30
0.0
 10
267.672584
 20
195.771225
 30
0.0
  0
LWPOLYLINE
  5
101
100
AcDbEntity
  8
Layer_1
 62
7
100
AcDbPolyline
 90
20
 70
1
 10
253.672438
 20
164.771065
 30
0.0
 10
253.652594
 20
164.569717
 30
0.0
 10
253.593592
 20
164.381863
 30
0.0
 10
253.379545
 20
164.064098
 30
0.0
 10
253.061516
 20
163.849789
 30
0.0
 10
252.874455
 20
163.791580
 30
0.0
 10
252.672578
 20
163.771207
 30
0.0
 10
252.471495
 20
163.791580
 30
0.0
 10
252.283641
 20
163.849789
 30
0.0
 10
251.965612
 20
164.064098
 30
0.0
 10
251.751564
 20
164.381863
 30
0.0
 10
251.693621
 20
164.569717
 30
0.0
 10
251.672454
 20
164.771065
 30
0.0
 10
251.748654
 20
165.153916
 30
0.0
 10
251.965612
 20
165.478560
 30
0.0
 10
252.289462
 20
165.695518
 30
0.0
 10
252.672578
 20
165.771454
 30
0.0
 10
253.055430
 20
165.695518
 30
0.0
 10
253.379545
 20
165.478560
 30
0.0
 10
253.596503
 20
165.153916
 30
0.0
  0
LWPOLYLINE
  5
102
100
AcDbEntity
  8
Layer_1
 62
7
100
AcDbPolyline
 90
20
 70
1
 10
253.672438
 20
130.771353
 30
0.0
 10
253.652594
 20
130.569743
 30
0.0
 10
253.593592
 20
130.382151
 30
0.0
 10
253.379545
 20
130.064122
 30
0.0
 10
253.061516
 20
129.849812
 30
0.0
 10
252.874455
 20
129.791604
 30
0.0
 10
252.672578
 20
129.771231
 30
0.0
 10
252.471495
 20
129.791604
 30
0.0
 10
252.283641
 20
129.849812
 30
0.0
 10
251.965612
 20
130.064122
 30
0.0
 10
251.751564
 20
130.382151
 30
0.0
 10
251.693621
 20
130.569743
 30
0.0
 10
251.672454
 20
130.771353
 30
0.0
 10
251.748654
 20
131.153943
 30
0.0
 10
251.965612
 20
131.478848
 30
0.0
 10
252.289462
 20
131.695542
 30
0.0
 10
252.672578
 20
131.771742
 30
0.0
 10
253.055430
 20
131.695542
 30
0.0
 10
253.379545
 20
131.478848
 30
0.0
 10
253.596503
 20
131.153943
 30
0.0
  0
LWPOLYLINE
  5
103
100
AcDbEntity
  8
Layer_1
 62
7
100
AcDbPolyline
 90
14
 70
1
 10
124.009784
 20
110.816726
 30
0.0
 10
118.009832
 20
110.816726
 30
0.0
 10
118.009832
 20
107.816909
 30
0.0
 10
110.009901
 20
107.816909
 30
0.0
 10
110.009901
 20
110.816726
 30
0.0
 10
104.009686
 20
110.816726
 30
0.0
 10
104.009686
 20
8.816800
 30
0.0
 10
110.009901
 20
8.816800
 30
0.0
 10
110.009901
 20
11.817435
 30
0.0
 10
118.009832
 20
11.817435
 30
0.0
 10
118.009832
 20
8.816800
 30
0.0
 10
124.009784
 20
8.816800
 30
0.0
 10
124.009784
 20
11.817435
 30
0.0
 10
124.009784
 20
107.816909
 30
0.0
  0
LWPOLYLINE
  5
104
100
AcDbEntity
  8
Layer_1
 62
7
100
AcDbPolyline
 90
16
 70
1
 10
115.009726
 20
53.617217
 30
0.0
 10
114.933791
 20
53.234366
 30
0.0
 10
114.717891
 20
52.909987
 30
0.0
 10
114.392718
 20
52.693293
 30
0.0
 10
114.009866
 20
52.617358
 30
0.0
 10
113.627808
 20
52.693293
 30
0.0
 10
113.302900
 20
52.909987
 30
0.0
 10
113.085677
 20
53.234366
 30
0.0
 10
113.009742
 20
53.617217
 30
0.0
 10
113.085677
 20
53.999807
 30
0.0
 10
113.302900
 20
54.324184
 30
0.0
 10
113.627808
 20
54.540877
 30
0.0
 10
114.009866
 20
54.617342
 30
0.0
 10
114.392718
 20
54.540877
 30
0.0
 10
114.717891
 20
54.324184
 30
0.0
 10
114.933791
 20
53.999807
 30
0.0
  0
LWPOLYLINE
  5
105
100
AcDbEntity
  8
Layer_1
 62
7
100
AcDbPolyline
 90
28
 70
1
 10
257.465047
 20
95.587896
 30
0.0
 10
254.364926
 20
95.587896
 30
0.0
 10
254.364926
 20
98.587716
 30
0.0
 10
249.365104
 20
98.587716
 30
0.0
 10
248.354925
 20
98.486497
 30
0.0
 10
247.415126
 20
98.196046
 30
0.0
 10
246.566078
 20
97.736153
 30
0.0
 10
245.826039
 20
97.126606
 30
0.0
 10
245.215910
 20
96.387255
 30
0.0
 10
244.756065
 20
95.537811
 30
0.0
 10
244.466082
 20
94.598144
 30
0.0
 10
244.365011
 20
93.588018
 30
0.0
 10
244.365011
 20
17.588082
 30
0.0
 10
244.466082
 20
16.578170
 30
0.0
 10
244.756065
 20
15.638371
 30
0.0
 10
245.215910
 20
14.788794
 30
0.0
 10
245.826039
 20
14.049284
 30
0.0
 10
246.566078
 20
13.439685
 30
0.0
 10
247.415126
 20
12.979842
 30
0.0
 10
248.354925
 20
12.689330
 30
0.0
 10
249.365104
 20
12.587994
 30
0.0
 10
254.364926
 20
12.587994
 30
0.0
 10
254.364926
 20
15.588365
 30
0.0
 10
257.465047
 20
15.588365
 30
0.0
 10
257.465047
 20
27.588000
 30
0.0
 10
254.364926
 20
27.588000
 30
0.0
 10
254.364926
 20
83.588105
 30
0.0
 10
257.465047
 20
83.588105
 30
0.0
  0
LWPOLYLINE
  5
106
100
AcDbEntity
  8
Layer_1
 62
7
100
AcDbPolyline
 90
232
 70
1
 10
180.956177
 20
92.525344
 30
0.0
 10
182.175112
 20
92.749972
 30
0.0
 10
183.118880
 20
93.385501
 30
0.0
 10
183.812350
 20
94.380865
 30
0.0
 10
184.280665
 20
95.683935
 30
0.0
 10
184.549216
 20
97.243388
 30
0.0
 10
184.643143
 20
99.007626
 30
0.0
 10
184.407400
 20
102.943298
 30
0.0
 10
183.775046
 20
107.078203
 30
0.0
 10
182.946901
 20
110.999059
 30
0.0
 10
181.509156
 20
116.546571
 30
0.0
 10
180.052361
 20
122.501010
 30
0.0
 10
179.162039
 20
127.760920
 30
0.0
 10
178.772837
 20
132.385567
 30
0.0
 10
178.819933
 20
136.434745
 30
0.0
 10
179.237712
 20
139.967989
 30
0.0
 10
179.961082
 20
143.044559
 30
0.0
 10
180.924956
 20
145.724255
 30
0.0
 10
182.064251
 20
148.066345
 30
0.0
 10
183.313613
 20
150.130623
 30
0.0
 10
184.607951
 20
151.976617
 30
0.0
 10
186.315836
 20
154.384588
 30
0.0
 10
188.165007
 20
156.705244
 30
0.0
 10
190.144616
 20
158.930389
 30
0.0
 10
192.243290
 20
161.053137
 30
0.0
 10
194.450175
 20
163.065556
 30
0.0
 10
196.753636
 20
164.960501
 30
0.0
 10
199.143084
 20
166.730295
 30
0.0
 10
201.606882
 20
168.367800
 30
0.0
 10
204.134443
 20
169.865074
 30
0.0
 10
206.713864
 20
171.214977
 30
0.0
 10
209.334822
 20
172.409835
 30
0.0
 10
211.985414
 20
173.442500
 30
0.0
 10
214.655058
 20
174.305306
 30
0.0
 10
217.332372
 20
174.990576
 30
0.0
 10
220.006249
 20
175.491432
 30
0.0
 10
222.665572
 20
175.799671
 30
0.0
 10
224.846796
 20
175.957892
 30
0.0
 10
226.883025
 20
176.410329
 30
0.0
 10
228.763682
 20
177.123116
 30
0.0
 10
230.478181
 20
178.062119
 30
0.0
 10
232.015671
 20
179.193477
 30
0.0
 10
233.365575
 20
180.483584
 30
0.0
 10
234.517040
 20
181.898311
 30
0.0
 10
235.459486
 20
183.404051
 30
0.0
 10
236.181795
 20
184.966679
 30
0.0
 10
236.673920
 20
186.552326
 30
0.0
 10
236.924745
 20
188.127122
 30
0.0
 10
236.924745
 20
189.657736
 30
0.0
 10
236.660955
 20
191.109239
 30
0.0
 10
236.123851
 20
192.448559
 30
0.0
 10
235.302850
 20
193.641562
 30
0.0
 10
234.186841
 20
194.654651
 30
0.0
 10
233.284083
 20
195.094123
 30
0.0
 10
231.865653
 20
195.502111
 30
0.0
 10
227.616450
 20
196.228391
 30
0.0
 10
221.710692
 20
196.842224
 30
0.0
 10
214.419843
 20
197.353132
 30
0.0
 10
196.767924
 20
198.102431
 30
0.0
 10
176.832122
 20
198.550106
 30
0.0
 10
156.783079
 20
198.770239
 30
0.0
 10
138.791699
 20
198.835856
 30
0.0
 10
117.667128
 20
198.799872
 30
0.0
 10
114.332586
 20
198.567039
 30
0.0
 10
111.246491
 20
197.910079
 30
0.0
 10
108.469693
 20
196.892760
 30
0.0
 10
106.061987
 20
195.577517
 30
0.0
 10
104.084227
 20
194.028118
 30
0.0
 10
102.596744
 20
192.307536
 30
0.0
 10
101.660119
 20
190.479002
 30
0.0
 10
101.416967
 20
189.543700
 30
0.0
 10
101.334417
 20
188.605224
 30
0.0
 10
101.554815
 20
186.240382
 30
0.0
 10
102.137692
 20
183.065387
 30
0.0
 10
103.916746
 20
175.639069
 30
0.0
 10
106.616553
 20
165.973058
 30
0.0
 10
106.567605
 20
165.022940
 30
0.0
 10
106.695134
 20
164.663374
 30
0.0
 10
107.040944
 20
164.502505
 30
0.0
 10
112.289213
 20
164.280258
 30
0.0
 10
112.195022
 20
161.772009
 30
0.0
 10
112.200842
 20
161.315074
 30
0.0
 10
111.340947
 20
161.274857
 30
0.0
 10
110.993549
 20
161.111874
 30
0.0
 10
110.862052
 20
160.751247
 30
0.0
 10
110.931902
 20
159.004737
 30
0.0
 10
111.092239
 20
158.658133
 30
0.0
 10
111.451543
 20
158.528751
 30
0.0
 10
112.275984
 20
158.567381
 30
0.0
 10
112.490826
 20
155.610402
 30
0.0
 10
111.639662
 20
155.495835
 30
0.0
 10
111.307610
 20
155.303483
 30
0.0
 10
111.207862
 20
154.933069
 30
0.0
 10
111.429847
 20
153.198726
 30
0.0
 10
111.619818
 20
152.867468
 30
0.0
 10
111.989176
 20
152.769837
 30
0.0
 10
112.806473
 20
152.880433
 30
0.0
 10
113.272137
 20
149.952555
 30
0.0
 10
112.440819
 20
149.765498
 30
0.0
 10
112.126495
 20
149.544835
 30
0.0
 10
112.059290
 20
149.167011
 30
0.0
 10
112.431824
 20
147.458597
 30
0.0
 10
112.649837
 20
147.144802
 30
0.0
 10
113.026339
 20
147.079714
 30
0.0
 10
113.828820
 20
147.260689
 30
0.0
 10
114.551661
 20
144.385466
 30
0.0
 10
113.738335
 20
144.125910
 30
0.0
 10
113.444648
 20
143.879054
 30
0.0
 10
113.410781
 20
143.496996
 30
0.0
 10
113.930687
 20
141.827476
 30
0.0
 10
114.174895
 20
141.534054
 30
0.0
 10
114.555365
 20
141.502304
 30
0.0
 10
115.333504
 20
141.750483
 30
0.0
 10
116.305583
 20
138.949079
 30
0.0
 10
115.522152
 20
138.621525
 30
0.0
 10
115.251219
 20
138.349798
 30
0.0
 10
115.251748
 20
137.965623
 30
0.0
 10
115.914794
 20
136.348226
 30
0.0
 10
116.183875
 20
136.077293
 30
0.0
 10
116.565933
 20
136.078616
 30
0.0
 10
117.320789
 20
136.394266
 30
0.0
 10
118.529931
 20
133.687052
 30
0.0
 10
117.780102
 20
133.293087
 30
0.0
 10
117.533778
 20
132.999135
 30
0.0
 10
117.566851
 20
132.616813
 30
0.0
 10
118.368271
 20
131.062916
 30
0.0
 10
118.660106
 20
130.816327
 30
0.0
 10
119.040576
 20
130.850985
 30
0.0
 10
119.760507
 20
131.228809
 30
0.0
 10
121.204867
 20
128.638807
 30
0.0
 10
120.492609
 20
128.181872
 30
0.0
 10
120.273005
 20
127.867283
 30
0.0
 10
120.339151
 20
127.489458
 30
0.0
 10
121.273658
 20
126.011499
 30
0.0
 10
121.585602
 20
125.791366
 30
0.0
 10
121.961307
 20
125.859099
 30
0.0
 10
122.644461
 20
126.297249
 30
0.0
 10
124.304456
 20
123.839536
 30
0.0
 10
123.640881
 20
123.326774
 30
0.0
 10
123.449061
 20
122.994457
 30
0.0
 10
123.547748
 20
122.623512
 30
0.0
 10
124.607139
 20
121.232336
 30
0.0
 10
124.937339
 20
121.040249
 30
0.0
 10
125.305903
 20
121.140526
 30
0.0
 10
125.947782
 20
121.636617
 30
0.0
 10
127.818911
 20
119.335010
 30
0.0
 10
127.199789
 20
118.764305
 30
0.0
 10
127.038129
 20
118.416380
 30
0.0
 10
127.168833
 20
118.055486
 30
0.0
 10
128.345432
 20
116.762471
 30
0.0
 10
128.690977
 20
116.599752
 30
0.0
 10
129.049223
 20
116.731515
 30
0.0
 10
129.640302
 20
117.276553
 30
0.0
 10
131.707490
 20
115.149572
 30
0.0
 10
131.142605
 20
114.529654
 30
0.0
 10
131.011901
 20
114.168762
 30
0.0
 10
131.173561
 20
113.820571
 30
0.0
 10
132.458374
 20
112.634974
 30
0.0
 10
132.816885
 20
112.502949
 30
0.0
 10
133.162695
 20
112.665665
 30
0.0
 10
133.706413
 20
113.262300
 30
0.0
 10
135.946903
 20
111.319469
 30
0.0
 10
135.439962
 20
110.654307
 30
0.0
 10
135.341273
 20
110.283626
 30
0.0
 10
135.532564
 20
109.951045
 30
0.0
 10
136.915807
 20
108.881864
 30
0.0
 10
137.284369
 20
108.781587
 30
0.0
 10
137.614568
 20
108.973939
 30
0.0
 10
138.101931
 20
109.613172
 30
0.0
 10
140.506462
 20
107.876183
 30
0.0
 10
140.058788
 20
107.168691
 30
0.0
 10
139.992642
 20
106.790866
 30
0.0
 10
140.212246
 20
106.476277
 30
0.0
 10
141.683593
 20
105.531715
 30
0.0
 10
142.059298
 20
105.463981
 30
0.0
 10
142.371507
 20
105.684115
 30
0.0
 10
142.800396
 20
106.361977
 30
0.0
 10
145.344892
 20
104.837184
 30
0.0
 10
144.963363
 20
104.098732
 30
0.0
 10
144.930555
 20
103.716410
 30
0.0
 10
145.176882
 20
103.422193
 30
0.0
 10
146.724691
 20
102.609396
 30
0.0
 10
147.105161
 20
102.574736
 30
0.0
 10
147.396996
 20
102.821325
 30
0.0
 10
147.765296
 20
103.534906
 30
0.0
 10
150.433879
 20
102.239245
 30
0.0
 10
150.117173
 20
101.467720
 30
0.0
 10
150.117438
 20
101.084339
 30
0.0
 10
150.388371
 20
100.812612
 30
0.0
 10
152.001532
 20
100.137660
 30
0.0
 10
152.383590
 20
100.137660
 30
0.0
 10
152.652936
 20
100.408858
 30
0.0
 10
152.955619
 20
101.146781
 30
0.0
 10
155.728183
 20
100.092417
 30
0.0
 10
155.480533
 20
99.297609
 30
0.0
 10
155.514403
 20
98.915551
 30
0.0
 10
155.808090
 20
98.668430
 30
0.0
 10
157.473638
 20
98.136621
 30
0.0
 10
157.854373
 20
98.168633
 30
0.0
 10
158.099113
 20
98.462055
 30
0.0
 10
158.337238
 20
99.226436
 30
0.0
 10
161.189706
 20
98.413110
 30
0.0
 10
161.012965
 20
97.601898
 30
0.0
 10
161.079904
 20
97.223809
 30
0.0
 10
161.393964
 20
97.003411
 30
0.0
 10
163.099732
 20
96.618972
 30
0.0
 10
163.475969
 20
96.684059
 30
0.0
 10
163.693986
 20
96.997590
 30
0.0
 10
163.864375
 20
97.778375
 30
0.0
 10
166.777964
 20
97.220369
 30
0.0
 10
166.672131
 20
96.394605
 30
0.0
 10
166.771614
 20
96.024189
 30
0.0
 10
167.103666
 20
95.831837
 30
0.0
 10
168.836157
 20
95.597151
 30
0.0
 10
169.205515
 20
95.694783
 30
0.0
 10
169.395486
 20
96.026041
 30
0.0
 10
169.497350
 20
96.817938
 30
0.0
 10
172.448508
 20
96.513403
 30
0.0
 10
172.414906
 20
95.684993
 30
0.0
 10
172.546404
 20
95.324631
 30
0.0
 10
172.893802
 20
95.162177
 30
0.0
 10
174.083897
 20
95.105821
 30
0.0
 10
174.712544
 20
95.106085
 30
0.0
 10
175.021577
 20
95.248166
 30
0.0
 10
175.159160
 20
95.556141
 30
0.0
 10
175.191704
 20
96.355976
 30
0.0
 10
177.664763
 20
96.303853
 30
0.0
 10
178.165087
 20
96.322374
 30
0.0
 10
178.220387
 20
95.105821
 30
0.0
 10
178.973388
 20
95.105821
 30
0.0
 10
180.601104
 20
92.541748
 30
0.0
 10
180.957762
 20
92.526666
 30
0.0
  0
LWPOLYLINE
  5
107
100
AcDbEntity
  8
Layer_1
 62
7
100
AcDbPolyline
 90
32
 70
1
 10
177.667676
 20
154.301773
 30
0.0
 10
176.156112
 20
154.453644
 30
0.0
 10
174.748530
 20
154.890736
 30
0.0
 10
173.474564
 20
155.582621
 30
0.0
 10
172.364638
 20
156.498605
 30
0.0
 10
171.448651
 20
157.608796
 30
0.0
 10
170.757560
 20
158.882764
 30
0.0
 10
170.320736
 20
160.289814
 30
0.0
 10
170.167542
 20
161.801642
 30
0.0
 10
170.313592
 20
163.271667
 30
0.0
 10
170.738510
 20
164.671576
 30
0.0
 10
171.427749
 20
165.962739
 30
0.0
 10
172.364638
 20
167.104680
 30
0.0
 10
173.506579
 20
168.041569
 30
0.0
 10
174.797742
 20
168.730808
 30
0.0
 10
176.197652
 20
169.156787
 30
0.0
 10
177.667676
 20
169.301779
 30
0.0
 10
179.137697
 20
169.156787
 30
0.0
 10
180.538136
 20
168.730808
 30
0.0
 10
181.829037
 20
168.041569
 30
0.0
 10
182.971242
 20
167.104680
 30
0.0
 10
183.908131
 20
165.962739
 30
0.0
 10
184.597103
 20
164.671576
 30
0.0
 10
185.022553
 20
163.271667
 30
0.0
 10
185.168074
 20
161.801642
 30
0.0
 10
185.022553
 20
160.331618
 30
0.0
 10
184.597103
 20
158.931712
 30
0.0
 10
183.907867
 20
157.640810
 30
0.0
 10
182.971242
 20
156.497811
 30
0.0
 10
181.828772
 20
155.561716
 30
0.0
 10
180.537871
 20
154.872744
 30
0.0
 10
179.137697
 20
154.446765
 30
0.0
  0
LWPOLYLINE
  5
108
100
AcDbEntity
  8
Layer_1
 62
7
100
AcDbPolyline
 90
4
 70
1
 10
169.667742
 20
168.801714
 30
0.0
 10
163.667527
 20
168.801714
 30
0.0
 10
163.667527
 20
171.801558
 30
0.0
 10
169.667742
 20
171.801558
 30
0.0
  0
LWPOLYLINE
  5
109
100
AcDbEntity
  8
Layer_1
 62
7
100
AcDbPolyline
 90
4
 70
1
 10
155.667599
 20
168.801714
 30
0.0
 10
149.667647
 20
168.801714
 30
0.0
 10
149.667647
 20
171.801558
 30
0.0
 10
155.667599
 20
171.801558
 30
0.0
  0
LWPOLYLINE
  5
10a
100
AcDbEntity
  8
Layer_1
 62
7
100
AcDbPolyline
 90
16
 70
1
 10
142.697738
 20
169.099637
 30
0.0
 10
142.315679
 20
169.175570
 30
0.0
 10
141.990774
 20
169.392795
 30
0.0
 10
141.773549
 20
169.716642
 30
0.0
 10
141.697616
 20
170.099759
 30
0.0
 10
141.773549
 20
170.482611
 30
0.0
 10
141.990774
 20
170.806725
 30
0.0
 10
142.315679
 20
171.023683
 30
0.0
 10
142.697738
 20
171.099619
 30
0.0
 10
143.080589
 20
171.023683
 30
0.0
 10
143.405762
 20
170.806725
 30
0.0
 10
143.621662
 20
170.482611
 30
0.0
 10
143.698656
 20
170.099759
 30
0.0
 10
143.621662
 20
169.716642
 30
0.0
 10
143.405762
 20
169.392795
 30
0.0
 10
143.080589
 20
169.175570
 30
0.0
  0
LWPOLYLINE
  5
10b
100
AcDbEntity
  8
Layer_1
 62
7
100
AcDbPolyline
 90
32
 70
1
 10
124.666670
 20
172.217747
 30
0.0
 10
123.765765
 20
172.306647
 30
0.0
 10
122.906663
 20
172.567791
 30
0.0
 10
122.114766
 20
172.989801
 30
0.0
 10
121.413623
 20
173.564737
 30
0.0
 10
120.839742
 20
174.264560
 30
0.0
 10
120.416674
 20
175.056722
 30
0.0
 10
120.155795
 20
175.915559
 30
0.0
 10
120.066630
 20
176.817787
 30
0.0
 10
120.155795
 20
177.718690
 30
0.0
 10
120.416674
 20
178.577792
 30
0.0
 10
120.839742
 20
179.369689
 30
0.0
 10
121.413623
 20
180.069776
 30
0.0
 10
122.114766
 20
180.644716
 30
0.0
 10
122.906663
 20
181.067784
 30
0.0
 10
123.764709
 20
181.328663
 30
0.0
 10
124.666670
 20
181.417563
 30
0.0
 10
125.568634
 20
181.328663
 30
0.0
 10
126.426677
 20
181.067784
 30
0.0
 10
127.218575
 20
180.644716
 30
0.0
 10
127.919718
 20
180.069776
 30
0.0
 10
128.493598
 20
179.369689
 30
0.0
 10
128.916667
 20
178.577792
 30
0.0
 10
129.177546
 20
177.718690
 30
0.0
 10
129.266710
 20
176.817787
 30
0.0
 10
129.177546
 20
175.915559
 30
0.0
 10
128.916667
 20
175.056722
 30
0.0
 10
128.493598
 20
174.264560
 30
0.0
 10
127.919718
 20
173.564737
 30
0.0
 10
127.218575
 20
172.989801
 30
0.0
 10
126.427736
 20
172.567791
 30
0.0
 10
125.568634
 20
172.306647
 30
0.0
  0
LWPOLYLINE
  5
10c
100
AcDbEntity
  8
Layer_1
 62
7
100
AcDbPolyline
 90
32
 70
1
 10
162.167608
 20
177.801769
 30
0.0
 10
160.697584
 20
177.946764
 30
0.0
 10
159.297677
 20
178.372740
 30
0.0
 10
158.006511
 20
179.061715
 30
0.0
 10
156.864570
 20
179.997545
 30
0.0
 10
155.927681
 20
181.140544
 30
0.0
 10
155.238707
 20
182.430652
 30
0.0
 10
154.812731
 20
183.831620
 30
0.0
 10
154.667739
 20
185.301641
 30
0.0
 10
154.812731
 20
186.771665
 30
0.0
 10
155.238707
 20
188.171572
 30
0.0
 10
155.927681
 20
189.462738
 30
0.0
 10
156.864570
 20
190.604679
 30
0.0
 10
158.006511
 20
191.541568
 30
0.0
 10
159.297677
 20
192.230542
 30
0.0
 10
160.697584
 20
192.655725
 30
0.0
 10
162.167608
 20
192.801775
 30
0.0
 10
163.637632
 20
192.655725
 30
0.0
 10
165.037539
 20
192.230542
 30
0.0
 10
166.328705
 20
191.541568
 30
0.0
 10
167.471704
 20
190.604679
 30
0.0
 10
168.407535
 20
189.462738
 30
0.0
 10
169.096509
 20
188.171572
 30
0.0
 10
169.522753
 20
186.771665
 30
0.0
 10
169.667742
 20
185.301641
 30
0.0
 10
169.515609
 20
183.789551
 30
0.0
 10
169.078518
 20
182.381704
 30
0.0
 10
168.386633
 20
181.107736
 30
0.0
 10
167.470646
 20
179.997545
 30
0.0
 10
166.360719
 20
179.082617
 30
0.0
 10
165.087548
 20
178.390734
 30
0.0
 10
163.679701
 20
177.953640
 30
0.0
  0
LWPOLYLINE
  5
10d
100
AcDbEntity
  8
Layer_1
 62
7
100
AcDbPolyline
 90
4
 70
1
 10
232.667869
 20
189.801669
 30
0.0
 10
226.667657
 20
189.801669
 30
0.0
 10
226.667657
 20
192.801775
 30
0.0
 10
232.667869
 20
192.801775
 30
0.0
  0
LWPOLYLINE
  5
10e
100
AcDbEntity
  8
Layer_1
 62
7
100
AcDbPolyline
 90
4
 70
1
 10
208.667808
 20
189.801669
 30
0.0
 10
202.667594
 20
189.801669
 30
0.0
 10
202.667594
 20
192.801775
 30
0.0
 10
208.667808
 20
192.801775
 30
0.0
  0
LWPOLYLINE
  5
10f
100
AcDbEntity
  8
Layer_1
 62
7
100
AcDbPolyline
 90
4
 70
1
 10
174.667567
 20
189.801669
 30
0.0
 10
168.667620
 20
189.801669
 30
0.0
 10
168.667620
 20
192.801775
 30
0.0
 10
174.667567
 20
192.801775
 30
0.0
  0
LWPOLYLINE
  5
110
100
AcDbEntity
  8
Layer_1
 62
7
100
AcDbPolyline
 90
4
 70
1
 10
155.667599
 20
189.801669
 30
0.0
 10
149.667647
 20
189.801669
 30
0.0
 10
149.667647
 20
192.801775
 30
0.0
 10
155.667599
 20
192.801775
 30
0.0
  0
LWPOLYLINE
  5
111
100
AcDbEntity
  8
Layer_1
 62
7
100
AcDbPolyline
 90
4
 70
1
 10
110.667583
 20
189.801669
 30
0.0
 10
104.668692
 20
189.801669
 30
0.0
 10
104.668692
 20
192.801775
 30
0.0
 10
110.667583
 20
192.801775
 30
0.0
  0
LWPOLYLINE
  5
112
100
AcDbEntity
  8
Layer_1
 62
7
100
AcDbPolyline
 90
16
 70
1
 10
117.949703
 20
193.848730
 30
0.0
 10
117.566584
 20
193.924666
 30
0.0
 10
117.241678
 20
194.141624
 30
0.0
 10
117.022603
 20
194.472617
 30
0.0
 10
116.949578
 20
194.848590
 30
0.0
 10
117.022603
 20
195.224563
 30
0.0
 10
117.241678
 20
195.555556
 30
0.0
 10
117.566584
 20
195.772515
 30
0.0
 10
117.949703
 20
195.848714
 30
0.0
 10
118.331758
 20
195.772515
 30
0.0
 10
118.656666
 20
195.555556
 30
0.0
 10
118.875741
 20
195.224563
 30
0.0
 10
118.949560
 20
194.848590
 30
0.0
 10
118.875741
 20
194.472617
 30
0.0
 10
118.656666
 20
194.141624
 30
0.0
 10
118.331758
 20
193.924666
 30
0.0
  0
LWPOLYLINE
  5
113
100
AcDbEntity
  8
Layer_1
 62
1
100
AcDbPolyline
 90
2
 70
0
 10
176.422283
 20
99.826775
 30
0.0
 10
178.330189
 20
104.839830
 30
0.0
  0
LWPOLYLINE
  5
114
100
AcDbEntity
  8
Layer_1
 62
1
100
AcDbPolyline
 90
2
 70
0
 10
176.422283
 20
99.826775
 30
0.0
 10
174.513580
 20
104.839830
 30
0.0
  0
LWPOLYLINE
  5
115
100
AcDbEntity
  8
Layer_1
 62
1
100
AcDbPolyline
 90
2
 70
0
 10
177.618463
 20
103.173750
 30
0.0
 10
175.225573
 20
103.173750
 30
0.0
  0
LWPOLYLINE
  5
116
100
AcDbEntity
  8
Layer_1
 62
1
100
AcDbPolyline
 90
2
 70
0
 10
176.442391
 20
99.285703
 30
0.0
 10
176.442391
 20
96.628761
 30
0.0
  0
LWPOLYLINE
  5
117
100
AcDbEntity
  8
Layer_1
 62
1
100
AcDbPolyline
 90
2
 70
0
 10
158.037732
 20
103.501833
 30
0.0
 10
158.037732
 20
108.514625
 30
0.0
  0
LWPOLYLINE
  5
118
100
AcDbEntity
  8
Layer_1
 62
1
100
AcDbPolyline
 90
9
 70
0
 10
158.037732
 20
103.501833
 30
0.0
 10
155.887732
 20
103.501833
 30
0.0
 10
155.176003
 20
103.743926
 30
0.0
 10
154.933645
 20
103.986284
 30
0.0
 10
154.691287
 20
104.455920
 30
0.0
 10
154.690758
 20
104.940636
 30
0.0
 10
154.932851
 20
105.410271
 30
0.0
 10
155.175207
 20
105.652629
 30
0.0
 10
155.886936
 20
105.894723
 30
0.0
  0
LWPOLYLINE
  5
119
100
AcDbEntity
  8
Layer_1
 62
1
100
AcDbPolyline
 90
10
 70
0
 10
158.037732
 20
105.894723
 30
0.0
 10
155.887732
 20
105.894723
 30
0.0
 10
155.176003
 20
106.129408
 30
0.0
 10
154.933645
 20
106.364093
 30
0.0
 10
154.691287
 20
106.848807
 30
0.0
 10
154.690758
 20
107.560803
 30
0.0
 10
154.932851
 20
108.037846
 30
0.0
 10
155.175207
 20
108.276233
 30
0.0
 10
155.886936
 20
108.514887
 30
0.0
 10
158.037732
 20
108.514625
 30
0.0
  0
LWPOLYLINE
  5
11a
100
AcDbEntity
  8
Layer_1
 62
1
100
AcDbPolyline
 90
18
 70
0
 10
132.475572
 20
119.300615
 30
0.0
 10
132.717931
 20
118.823836
 30
0.0
 10
133.194974
 20
118.346792
 30
0.0
 10
133.672017
 20
118.104434
 30
0.0
 10
134.625575
 20
118.104699
 30
0.0
 10
135.102619
 20
118.347057
 30
0.0
 10
135.579662
 20
118.824100
 30
0.0
 10
135.822018
 20
119.301144
 30
0.0
 10
136.056705
 20
120.012872
 30
0.0
 10
136.056705
 20
121.208788
 30
0.0
 10
135.822018
 20
121.920514
 30
0.0
 10
135.579662
 20
122.401265
 30
0.0
 10
135.102619
 20
122.878308
 30
0.0
 10
134.625575
 20
123.116959
 30
0.0
 10
133.671753
 20
123.116695
 30
0.0
 10
133.194709
 20
122.878308
 30
0.0
 10
132.717666
 20
122.401265
 30
0.0
 10
132.475308
 20
121.920514
 30
0.0
  0
LWPOLYLINE
  5
11b
100
AcDbEntity
  8
Layer_1
 62
1
100
AcDbPolyline
 90
2
 70
0
 10
124.116602
 20
134.727657
 30
0.0
 10
124.116602
 20
139.739653
 30
0.0
  0
LWPOLYLINE
  5
11c
100
AcDbEntity
  8
Layer_1
 62
1
100
AcDbPolyline
 90
12
 70
0
 10
124.116602
 20
134.727657
 30
0.0
 10
122.442584
 20
134.727657
 30
0.0
 10
121.723450
 20
134.970015
 30
0.0
 10
121.253812
 20
135.447059
 30
0.0
 10
121.011721
 20
135.924100
 30
0.0
 10
120.769363
 20
136.635828
 30
0.0
 10
120.769627
 20
137.831747
 30
0.0
 10
121.011986
 20
138.543473
 30
0.0
 10
121.254344
 20
139.024220
 30
0.0
 10
121.723712
 20
139.501264
 30
0.0
 10
122.443113
 20
139.739918
 30
0.0
 10
124.116602
 20
139.739653
 30
0.0
  0
LWPOLYLINE
  5
11d
100
AcDbEntity
  8
Layer_1
 62
1
100
AcDbPolyline
 90
2
 70
0
 10
118.048654
 20
159.335730
 30
0.0
 10
118.048654
 20
164.348785
 30
0.0
  0
LWPOLYLINE
  5
11e
100
AcDbEntity
  8
Layer_1
 62
1
100
AcDbPolyline
 90
2
 70
0
 10
118.048654
 20
159.335730
 30
0.0
 10
114.943773
 20
159.335730
 30
0.0
  0
LWPOLYLINE
  5
11f
100
AcDbEntity
  8
Layer_1
 62
1
100
AcDbPolyline
 90
2
 70
0
 10
118.048654
 20
161.728618
 30
0.0
 10
116.140748
 20
161.728618
 30
0.0
  0
LWPOLYLINE
  5
120
100
AcDbEntity
  8
Layer_1
 62
1
100
AcDbPolyline
 90
2
 70
0
 10
118.048654
 20
164.348785
 30
0.0
 10
114.943773
 20
164.348785
 30
0.0
  0
LWPOLYLINE
  5
121
100
AcDbEntity
  8
Layer_1
 62
1
100
AcDbPolyline
 90
2
 70
0
 10
154.586777
 20
100.882727
 30
0.0
 10
155.433707
 20
103.120571
 30
0.0
  0
LWPOLYLINE
  5
122
100
AcDbEntity
  8
Layer_1
 62
1
100
AcDbPolyline
 90
2
 70
0
 10
132.523726
 20
118.152853
 30
0.0
 10
130.846272
 20
116.446559
 30
0.0
  0
LWPOLYLINE
  5
123
100
AcDbEntity
  8
Layer_1
 62
1
100
AcDbPolyline
 90
2
 70
0
 10
120.327774
 20
136.185772
 30
0.0
 10
118.141787
 20
135.212638
 30
0.0
  0
LWPOLYLINE
  5
124
100
AcDbEntity
  8
Layer_1
 62
1
100
AcDbPolyline
 90
2
 70
0
 10
114.906732
 20
162.736679
 30
0.0
 10
112.514109
 20
162.744617
 30
0.0
  0
LWPOLYLINE
  5
125
100
AcDbEntity
  8
Layer_1
 62
7
100
AcDbPolyline
 90
232
 70
1
 10
125.815890
 20
89.100461
 30
0.0
 10
126.014413
 20
90.323870
 30
0.0
 10
126.630094
 20
91.280878
 30
0.0
 10
127.610559
 20
91.995257
 30
0.0
 10
128.903430
 20
92.491037
 30
0.0
 10
130.456849
 20
92.792527
 30
0.0
 10
132.218707
 20
92.923764
 30
0.0
 10
136.158485
 20
92.771352
 30
0.0
 10
140.305843
 20
92.226635
 30
0.0
 10
144.243343
 20
91.481643
 30
0.0
 10
149.820036
 20
90.161605
 30
0.0
 10
155.803969
 20
88.831133
 30
0.0
 10
161.081541
 20
88.052310
 30
0.0
 10
165.713387
 20
87.761053
 30
0.0
 10
169.760661
 20
87.893818
 30
0.0
 10
173.284006
 20
88.386259
 30
0.0
 10
176.344583
 20
89.174568
 30
0.0
 10
179.003277
 20
90.195195
 30
0.0
 10
181.321006
 20
91.383532
 30
0.0
 10
183.358382
 20
92.676294
 30
0.0
 10
185.176312
 20
94.009401
 30
0.0
 10
187.547867
 20
95.767861
 30
0.0
 10
189.828611
 20
97.665715
 30
0.0
 10
192.011633
 20
99.691973
 30
0.0
 10
194.089236
 20
101.835085
 30
0.0
 10
196.054771
 20
104.084068
 30
0.0
 10
197.900542
 20
106.427374
 30
0.0
 10
199.619387
 20
108.853471
 30
0.0
 10
201.204119
 20
111.351623
 30
0.0
 10
202.647846
 20
113.910044
 30
0.0
 10
203.942861
 20
116.517713
 30
0.0
 10
205.081995
 20
119.163105
 30
0.0
 10
206.058339
 20
121.835219
 30
0.0
 10
206.864468
 20
124.522257
 30
0.0
 10
207.492932
 20
127.213472
 30
0.0
 10
207.936830
 20
129.897341
 30
0.0
 10
208.188996
 20
132.562598
 30
0.0
 10
208.301024
 20
134.746679
 30
0.0
 10
208.710276
 20
136.792028
 30
0.0
 10
209.383100
 20
138.687611
 30
0.0
 10
210.285622
 20
140.421328
 30
0.0
 10
211.384193
 20
141.982416
 30
0.0
 10
212.645448
 20
143.359313
 30
0.0
 10
214.035489
 20
144.540459
 30
0.0
 10
215.520953
 20
145.514552
 30
0.0
 10
217.067677
 20
146.270026
 30
0.0
 10
218.642823
 20
146.795334
 30
0.0
 10
220.211961
 20
147.079426
 30
0.0
 10
221.741725
 20
147.110744
 30
0.0
 10
223.198747
 20
146.877733
 30
0.0
 10
224.549127
 20
146.369354
 30
0.0
 10
225.759243
 20
145.573516
 30
0.0
 10
226.795455
 20
144.479185
 30
0.0
 10
227.254191
 20
143.586202
 30
0.0
 10
227.692103
 20
142.176458
 30
0.0
 10
228.508135
 20
137.943575
 30
0.0
 10
229.246796
 20
132.052128
 30
0.0
 10
229.911866
 20
124.773724
 30
0.0
 10
231.034507
 20
107.141878
 30
0.0
 10
231.903928
 20
87.219748
 30
0.0
 10
232.547985
 20
67.179851
 30
0.0
 10
232.994544
 20
49.194159
 30
0.0
 10
233.405568
 20
28.073371
 30
0.0
 10
233.243347
 20
24.734626
 30
0.0
 10
232.651833
 20
21.635426
 30
0.0
 10
231.693500
 20
18.837537
 30
0.0
 10
230.429496
 20
16.402672
 30
0.0
 10
228.922296
 20
14.392598
 30
0.0
 10
227.233571
 20
12.869065
 30
0.0
 10
225.425007
 20
11.893782
 30
0.0
 10
224.495322
 20
11.631042
 30
0.0
 10
223.558805
 20
11.528521
 30
0.0
 10
221.189824
 20
11.698985
 30
0.0
 10
218.002943
 20
12.214462
 30
0.0
 10
210.540910
 20
13.836043
 30
0.0
 10
200.819934
 20
16.330789
 30
0.0
 10
199.870804
 20
16.261584
 30
0.0
 10
199.508882
 20
16.381482
 30
0.0
 10
199.340733
 20
16.723836
 30
0.0
 10
199.007480
 20
21.966201
 30
0.0
 10
196.501522
 20
21.819081
 30
0.0
 10
196.044834
 20
21.815108
 30
0.0
 10
196.022557
 20
20.954549
 30
0.0
 10
195.867227
 20
20.603732
 30
0.0
 10
195.509465
 20
20.464554
 30
0.0
 10
193.761602
 20
20.497321
 30
0.0
 10
193.411683
 20
20.650315
 30
0.0
 10
193.274723
 20
21.007012
 30
0.0
 10
193.296168
 20
21.831880
 30
0.0
 10
190.335302
 20
21.984235
 30
0.0
 10
190.238773
 20
21.130891
 30
0.0
 10
190.053492
 20
20.794764
 30
0.0
 10
189.685272
 20
20.687069
 30
0.0
 10
187.946616
 20
20.872543
 30
0.0
 10
187.611151
 20
21.055298
 30
0.0
 10
187.505991
 20
21.422459
 30
0.0
 10
187.599266
 20
22.242151
 30
0.0
 10
184.661928
 20
22.645674
 30
0.0
 10
184.492503
 20
21.810451
 30
0.0
 10
184.278803
 20
21.491691
 30
0.0
 10
183.902485
 20
21.416508
 30
0.0
 10
182.186573
 20
21.752859
 30
0.0
 10
181.868236
 20
21.964081
 30
0.0
 10
181.795199
 20
22.338989
 30
0.0
 10
181.959153
 20
23.145146
 30
0.0
 10
179.069009
 20
23.807112
 30
0.0
 10
178.826987
 20
22.988426
 30
0.0
 10
178.586403
 20
22.689581
 30
0.0
 10
178.205146
 20
22.647559
 30
0.0
 10
176.525003
 20
23.131968
 30
0.0
 10
176.226476
 20
23.370020
 30
0.0
 10
176.186682
 20
23.749734
 30
0.0
 10
176.418339
 20
24.533029
 30
0.0
 10
173.596991
 20
25.445585
 30
0.0
 10
173.285826
 20
24.655393
 30
0.0
 10
173.020154
 20
24.378830
 30
0.0
 10
172.636608
 20
24.370184
 30
0.0
 10
171.005544
 20
24.998802
 30
0.0
 10
170.728713
 20
25.262138
 30
0.0
 10
170.721953
 20
25.644059
 30
0.0
 10
171.021553
 20
26.405583
 30
0.0
 10
168.289358
 20
27.557252
 30
0.0
 10
167.911615
 20
26.799261
 30
0.0
 10
167.622677
 20
26.546763
 30
0.0
 10
167.239744
 20
26.571554
 30
0.0
 10
165.669235
 20
27.339995
 30
0.0
 10
165.416524
 20
27.626547
 30
0.0
 10
165.443126
 20
28.007666
 30
0.0
 10
165.805633
 20
28.735377
 30
0.0
 10
163.185649
 20
30.124607
 30
0.0
 10
162.743885
 20
29.402972
 30
0.0
 10
162.434278
 20
29.176714
 30
0.0
 10
162.054873
 20
29.234897
 30
0.0
 10
160.557473
 20
30.137710
 30
0.0
 10
160.330787
 20
30.444979
 30
0.0
 10
160.390553
 20
30.822141
 30
0.0
 10
160.814149
 20
31.514413
 30
0.0
 10
158.321866
 20
33.121897
 30
0.0
 10
157.823524
 20
32.447680
 30
0.0
 10
157.495073
 20
32.249021
 30
0.0
 10
157.122388
 20
32.339792
 30
0.0
 10
155.709105
 20
33.369481
 30
0.0
 10
155.510076
 20
33.695411
 30
0.0
 10
155.602267
 20
34.066035
 30
0.0
 10
156.084668
 20
34.718214
 30
0.0
 10
153.743983
 20
36.540277
 30
0.0
 10
153.186770
 20
35.909221
 30
0.0
 10
152.842078
 20
35.740229
 30
0.0
 10
152.478501
 20
35.863267
 30
0.0
 10
151.160876
 20
37.012245
 30
0.0
 10
150.990882
 20
37.354270
 30
0.0
 10
151.115035
 20
37.715223
 30
0.0
 10
151.647706
 20
38.317973
 30
0.0
 10
149.477462
 20
40.339424
 30
0.0
 10
148.869368
 20
39.761807
 30
0.0
 10
148.511326
 20
39.623231
 30
0.0
 10
148.159789
 20
39.777752
 30
0.0
 10
146.947541
 20
41.036934
 30
0.0
 10
146.807957
 20
41.392570
 30
0.0
 10
146.963058
 20
41.741741
 30
0.0
 10
147.548318
 20
42.297968
 30
0.0
 10
145.558241
 20
44.497102
 30
0.0
 10
144.904219
 20
43.976205
 30
0.0
 10
144.535453
 20
43.869424
 30
0.0
 10
144.198899
 20
44.053637
 30
0.0
 10
143.100683
 20
45.414209
 30
0.0
 10
142.992894
 20
45.780574
 30
0.0
 10
143.177957
 20
46.114500
 30
0.0
 10
143.806734
 20
46.615279
 30
0.0
 10
142.019519
 20
48.982523
 30
0.0
 10
141.321649
 20
48.520240
 30
0.0
 10
140.945044
 20
48.446111
 30
0.0
 10
140.626143
 20
48.659015
 30
0.0
 10
139.650400
 20
50.109773
 30
0.0
 10
139.574729
 20
50.484228
 30
0.0
 10
139.788210
 20
50.800760
 30
0.0
 10
140.457109
 20
51.243902
 30
0.0
 10
138.878555
 20
53.755556
 30
0.0
 10
138.148336
 20
53.358751
 30
0.0
 10
137.767063
 20
53.317601
 30
0.0
 10
137.467700
 20
53.557647
 30
0.0
 10
136.622067
 20
55.087908
 30
0.0
 10
136.579363
 20
55.467560
 30
0.0
 10
136.819724
 20
55.764547
 30
0.0
 10
137.525347
 20
56.148129
 30
0.0
 10
136.173770
 20
58.788703
 30
0.0
 10
135.409126
 20
58.455478
 30
0.0
 10
135.025561
 20
58.447625
 30
0.0
 10
134.748162
 20
58.712748
 30
0.0
 10
134.039485
 20
60.311538
 30
0.0
 10
134.030084
 20
60.693218
 30
0.0
 10
134.295260
 20
60.968236
 30
0.0
 10
135.026610
 20
61.286466
 30
0.0
 10
133.914082
 20
64.036104
 30
0.0
 10
133.124692
 20
63.771692
 30
0.0
 10
132.741733
 20
63.797726
 30
0.0
 10
132.488453
 20
64.086118
 30
0.0
 10
131.921523
 20
65.739778
 30
0.0
 10
131.945474
 20
66.121106
 30
0.0
 10
132.233916
 20
66.372005
 30
0.0
 10
132.992823
 20
66.626245
 30
0.0
 10
132.119318
 20
69.460864
 30
0.0
 10
131.312028
 20
69.266997
 30
0.0
 10
130.932871
 20
69.325927
 30
0.0
 10
130.705613
 20
69.635247
 30
0.0
 10
130.285165
 20
71.332496
 30
0.0
 10
130.342277
 20
71.710029
 30
0.0
 10
130.651127
 20
71.934628
 30
0.0
 10
131.428388
 20
72.121775
 30
0.0
 10
130.808597
 20
75.022632
 30
0.0
 10
129.985257
 20
74.899350
 30
0.0
 10
129.612819
 20
74.990973
 30
0.0
 10
129.413484
 20
75.318880
 30
0.0
 10
129.142188
 20
77.046281
 30
0.0
 10
129.231988
 20
77.417355
 30
0.0
 10
129.559414
 20
77.614298
 30
0.0
 10
130.348714
 20
77.732894
 30
0.0
 10
129.981800
 20
80.676947
 30
0.0
 10
129.154554
 20
80.625828
 30
0.0
 10
128.791226
 20
80.749666
 30
0.0
 10
128.621451
 20
81.093810
 30
0.0
 10
128.539925
 20
82.282446
 30
0.0
 10
128.526342
 20
82.911743
 30
0.0
 10
128.662117
 20
83.223719
 30
0.0
 10
128.967117
 20
83.367524
 30
0.0
 10
129.766081
 20
83.416984
 30
0.0
 10
129.661634
 20
85.888651
 30
0.0
 10
129.669564
 20
86.389255
 30
0.0
 10
128.452116
 20
86.418798
 30
0.0
 10
128.436199
 20
87.170842
 30
0.0
 10
125.838250
 20
88.744199
 30
0.0
 10
125.815631
 20
89.100194
 30
0.0
  0
LWPOLYLINE
  5
126
100
AcDbEntity
  8
Layer_1
 62
7
100
AcDbPolyline
 90
32
 70
1
 10
187.645461
 20
87.117975
 30
0.0
 10
187.829805
 20
85.610242
 30
0.0
 10
188.296589
 20
84.211960
 30
0.0
 10
189.014747
 20
82.952906
 30
0.0
 10
189.954012
 20
81.862613
 30
0.0
 10
191.083066
 20
80.970582
 30
0.0
 10
192.371378
 20
80.306338
 30
0.0
 10
193.787894
 20
79.899129
 30
0.0
 10
195.302344
 20
79.778748
 30
0.0
 10
196.768962
 20
79.955077
 30
0.0
 10
198.159820
 20
80.410060
 30
0.0
 10
199.435848
 20
81.126460
 30
0.0
 10
200.557979
 20
82.087043
 30
0.0
 10
201.470222
 20
83.248809
 30
0.0
 10
202.131991
 20
84.554006
 30
0.0
 10
202.527988
 20
85.962610
 30
0.0
 10
202.642106
 20
87.435376
 30
0.0
 10
202.465771
 20
88.902261
 30
0.0
 10
202.010789
 20
90.293119
 30
0.0
 10
201.294389
 20
91.569147
 30
0.0
 10
200.333799
 20
92.691539
 30
0.0
 10
199.171769
 20
93.603779
 30
0.0
 10
197.866572
 20
94.265549
 30
0.0
 10
196.457709
 20
94.661275
 30
0.0
 10
194.984944
 20
94.775393
 30
0.0
 10
193.518328
 20
94.598800
 30
0.0
 10
192.127473
 20
94.143818
 30
0.0
 10
190.851445
 20
93.427417
 30
0.0
 10
189.729314
 20
92.466836
 30
0.0
 10
188.817074
 20
91.304803
 30
0.0
 10
188.155570
 20
89.999612
 30
0.0
 10
187.759843
 20
88.590749
 30
0.0
  0
LWPOLYLINE
  5
127
100
AcDbEntity
  8
Layer_1
 62
7
100
AcDbPolyline
 90
4
 70
1
 10
202.311434
 20
79.426655
 30
0.0
 10
202.438382
 20
73.428578
 30
0.0
 10
205.437551
 20
73.492055
 30
0.0
 10
205.310603
 20
79.490132
 30
0.0
  0
LWPOLYLINE
  5
128
100
AcDbEntity
  8
Layer_1
 62
7
100
AcDbPolyline
 90
4
 70
1
 10
202.607666
 20
65.430175
 30
0.0
 10
202.734631
 20
59.431304
 30
0.0
 10
205.733800
 20
59.494781
 30
0.0
 10
205.606835
 20
65.493651
 30
0.0
  0
LWPOLYLINE
  5
129
100
AcDbEntity
  8
Layer_1
 62
7
100
AcDbPolyline
 90
16
 70
1
 10
203.180232
 20
52.469266
 30
0.0
 10
203.264511
 20
52.088377
 30
0.0
 10
203.488020
 20
51.768656
 30
0.0
 10
203.817181
 20
51.558616
 30
0.0
 10
204.201290
 20
51.490793
 30
0.0
 10
204.582449
 20
51.574813
 30
0.0
 10
204.902162
 20
51.798586
 30
0.0
 10
205.112208
 20
52.127483
 30
0.0
 10
205.180027
 20
52.511856
 30
0.0
 10
205.096011
 20
52.892751
 30
0.0
 10
204.872232
 20
53.212731
 30
0.0
 10
204.543343
 20
53.422512
 30
0.0
 10
204.158964
 20
53.490594
 30
0.0
 10
203.778075
 20
53.406315
 30
0.0
 10
203.458090
 20
53.182801
 30
0.0
 10
203.248314
 20
52.853645
 30
0.0
  0
LWPOLYLINE
  5
12a
100
AcDbEntity
  8
Layer_1
 62
7
100
AcDbPolyline
 90
32
 70
1
 10
206.678649
 20
34.508337
 30
0.0
 10
206.786874
 20
33.608727
 30
0.0
 10
207.065869
 20
32.755631
 30
0.0
 10
207.505331
 20
31.972936
 30
0.0
 10
208.094439
 20
31.284552
 30
0.0
 10
208.807054
 20
30.725017
 30
0.0
 10
209.607455
 20
30.319138
 30
0.0
 10
210.471621
 20
30.076412
 30
0.0
 10
211.375004
 20
30.006293
 30
0.0
 10
212.274613
 20
30.114571
 30
0.0
 10
213.127472
 20
30.393638
 30
0.0
 10
213.910247
 20
30.833025
 30
0.0
 10
214.598550
 20
31.422210
 30
0.0
 10
215.158006
 20
32.134824
 30
0.0
 10
215.563962
 20
32.935357
 30
0.0
 10
215.806608
 20
33.799442
 30
0.0
 10
215.876675
 20
34.702747
 30
0.0
 10
215.768452
 20
35.602278
 30
0.0
 10
215.489462
 20
36.455347
 30
0.0
 10
215.050002
 20
37.237856
 30
0.0
 10
214.460895
 20
37.926161
 30
0.0
 10
213.748276
 20
38.485882
 30
0.0
 10
212.947615
 20
38.891570
 30
0.0
 10
212.083709
 20
39.134488
 30
0.0
 10
211.180325
 20
39.204552
 30
0.0
 10
210.280717
 20
39.096328
 30
0.0
 10
209.427598
 20
38.817070
 30
0.0
 10
208.645084
 20
38.377874
 30
0.0
 10
207.956785
 20
37.788503
 30
0.0
 10
207.397323
 20
37.076154
 30
0.0
 10
206.991373
 20
36.275488
 30
0.0
 10
206.748717
 20
35.411562
 30
0.0
  0
LWPOLYLINE
  5
12b
100
AcDbEntity
  8
Layer_1
 62
7
100
AcDbPolyline
 90
4
 70
1
 10
221.973344
 20
142.856759
 30
0.0
 10
222.100303
 20
136.858153
 30
0.0
 10
225.100001
 20
136.921641
 30
0.0
 10
224.973042
 20
142.920247
 30
0.0
  0
LWPOLYLINE
  5
12c
100
AcDbEntity
  8
Layer_1
 62
7
100
AcDbPolyline
 90
4
 70
1
 10
222.481185
 20
118.862074
 30
0.0
 10
222.608144
 20
112.863468
 30
0.0
 10
225.607842
 20
112.926956
 30
0.0
 10
225.480883
 20
118.925562
 30
0.0
  0
LWPOLYLINE
  5
12d
100
AcDbEntity
  8
Layer_1
 62
7
100
AcDbPolyline
 90
4
 70
1
 10
223.200613
 20
84.870243
 30
0.0
 10
223.327578
 20
78.871375
 30
0.0
 10
226.327276
 20
78.934863
 30
0.0
 10
226.200312
 20
84.933731
 30
0.0
  0
LWPOLYLINE
  5
12e
100
AcDbEntity
  8
Layer_1
 62
7
100
AcDbPolyline
 90
4
 70
1
 10
223.602653
 20
65.874528
 30
0.0
 10
223.729617
 20
59.875658
 30
0.0
 10
226.729315
 20
59.939146
 30
0.0
 10
226.602351
 20
65.938016
 30
0.0
  0
LWPOLYLINE
  5
12f
100
AcDbEntity
  8
Layer_1
 62
7
100
AcDbPolyline
 90
4
 70
1
 10
224.554856
 20
20.884462
 30
0.0
 10
224.681808
 20
14.886175
 30
0.0
 10
227.681506
 20
14.949663
 30
0.0
 10
227.554554
 20
20.947950
 30
0.0
  0
LWPOLYLINE
  5
130
100
AcDbEntity
  8
Layer_1
 62
7
100
AcDbPolyline
 90
16
 70
1
 10
228.447194
 20
28.250167
 30
0.0
 10
228.531479
 20
27.868987
 30
0.0
 10
228.754992
 20
27.549081
 30
0.0
 10
229.090292
 20
27.336578
 30
0.0
 10
229.467994
 20
27.271371
 30
0.0
 10
229.842596
 20
27.352500
 30
0.0
 10
230.168608
 20
27.579000
 30
0.0
 10
230.378649
 20
27.907950
 30
0.0
 10
230.446469
 20
28.292217
 30
0.0
 10
230.362452
 20
28.673270
 30
0.0
 10
230.138679
 20
28.993065
 30
0.0
 10
229.803377
 20
29.205542
 30
0.0
 10
229.425678
 20
29.270748
 30
0.0
 10
229.051073
 20
29.189619
 30
0.0
 10
228.725063
 20
28.963146
 30
0.0
 10
228.515282
 20
28.634281
 30
0.0
  0
LWPOLYLINE
  5
131
100
AcDbEntity
  8
Layer_1
 62
1
100
AcDbPolyline
 90
16
 70
1
 10
133.238466
 20
84.666809
 30
0.0
 10
133.439931
 20
84.113207
 30
0.0
 10
134.005312
 20
83.745676
 30
0.0
 10
134.946144
 20
83.581662
 30
0.0
 10
135.503495
 20
83.593458
 30
0.0
 10
136.436548
 20
83.797133
 30
0.0
 10
136.989046
 20
84.188323
 30
0.0
 10
137.164004
 20
84.749628
 30
0.0
 10
137.155564
 20
85.123386
 30
0.0
 10
136.956891
 20
85.682605
 30
0.0
 10
136.388847
 20
86.038435
 30
0.0
 10
135.447889
 20
86.208269
 30
0.0
 10
134.890275
 20
86.196467
 30
0.0
 10
133.957608
 20
85.986979
 30
0.0
 10
133.407776
 20
85.607489
 30
0.0
 10
133.230032
 20
85.040303
 30
0.0
  0
LWPOLYLINE
  5
132
100
AcDbEntity
  8
Layer_1
 62
1
100
AcDbPolyline
 90
4
 70
0
 10
135.964380
 20
71.420406
 30
0.0
 10
135.712444
 20
71.745347
 30
0.0
 10
135.050198
 20
72.188368
 30
0.0
 10
138.901520
 20
72.951864
 30
0.0
  0
LWPOLYLINE
  5
133
100
AcDbEntity
  8
Layer_1
 62
1
100
AcDbPolyline
 90
16
 70
1
 10
134.396845
 20
75.487069
 30
0.0
 10
134.691332
 20
74.977249
 30
0.0
 10
135.312209
 20
74.713309
 30
0.0
 10
136.266998
 20
74.715257
 30
0.0
 10
136.814106
 20
74.823431
 30
0.0
 10
137.697479
 20
75.186162
 30
0.0
 10
138.173439
 20
75.667564
 30
0.0
 10
138.248167
 20
76.250565
 30
0.0
 10
138.175571
 20
76.617143
 30
0.0
 10
137.882796
 20
77.133615
 30
0.0
 10
137.261380
 20
77.385370
 30
0.0
 10
136.305410
 20
77.389220
 30
0.0
 10
135.758575
 20
77.280790
 30
0.0
 10
134.876110
 20
76.912518
 30
0.0
 10
134.400951
 20
76.443306
 30
0.0
 10
134.324249
 20
75.853648
 30
0.0
  0
LWPOLYLINE
  5
134
100
AcDbEntity
  8
Layer_1
 62
1
100
AcDbPolyline
 90
14
 70
0
 10
139.652781
 20
61.413486
 30
0.0
 10
139.475869
 20
61.344639
 30
0.0
 10
139.064479
 20
61.388596
 30
0.0
 10
138.818715
 20
61.496926
 30
0.0
 10
138.508843
 20
61.770886
 30
0.0
 10
138.238454
 20
62.467524
 30
0.0
 10
138.277938
 20
62.890200
 30
0.0
 10
138.388507
 20
63.130192
 30
0.0
 10
138.664698
 20
63.434816
 30
0.0
 10
139.018533
 20
63.571979
 30
0.0
 10
139.427948
 20
63.533803
 30
0.0
 10
140.088377
 20
63.389260
 30
0.0
 10
142.505944
 20
62.323636
 30
0.0
 10
141.559583
 20
64.761870
 30
0.0
  0
LWPOLYLINE
  5
135
100
AcDbEntity
  8
Layer_1
 62
1
100
AcDbPolyline
 90
16
 70
1
 10
137.087253
 20
65.431237
 30
0.0
 10
137.465978
 20
64.980098
 30
0.0
 10
138.123127
 20
64.828075
 30
0.0
 10
139.063030
 20
64.995639
 30
0.0
 10
139.582751
 20
65.197446
 30
0.0
 10
140.389956
 20
65.707823
 30
0.0
 10
140.775136
 20
66.264579
 30
0.0
 10
140.747618
 20
66.852032
 30
0.0
 10
140.612424
 20
67.200349
 30
0.0
 10
140.234359
 20
67.657853
 30
0.0
 10
139.578787
 20
67.798000
 30
0.0
 10
138.636391
 20
67.635677
 30
0.0
 10
138.116664
 20
67.434134
 30
0.0
 10
137.311696
 20
66.917984
 30
0.0
 10
136.925195
 20
66.373639
 30
0.0
 10
136.952059
 20
65.779556
 30
0.0
  0
LWPOLYLINE
  5
136
100
AcDbEntity
  8
Layer_1
 62
1
100
AcDbPolyline
 90
15
 70
0
 10
143.945478
 20
51.413266
 30
0.0
 10
142.882052
 20
53.168359
 30
0.0
 10
144.738071
 20
52.989311
 30
0.0
 10
144.449045
 20
53.466166
 30
0.0
 10
144.417968
 20
53.884173
 30
0.0
 10
144.484808
 20
54.139644
 30
0.0
 10
144.863223
 20
54.590929
 30
0.0
 10
145.182783
 20
54.784530
 30
0.0
 10
145.760696
 20
54.912675
 30
0.0
 10
146.270836
 20
54.791945
 30
0.0
 10
146.722531
 20
54.406658
 30
0.0
 10
147.014572
 20
53.924839
 30
0.0
 10
147.143686
 20
53.351180
 30
0.0
 10
147.082214
 20
53.092117
 30
0.0
 10
146.857814
 20
52.741218
 30
0.0
  0
LWPOLYLINE
  5
137
100
AcDbEntity
  8
Layer_1
 62
1
100
AcDbPolyline
 90
16
 70
1
 10
141.621735
 20
55.248238
 30
0.0
 10
142.073020
 20
54.869824
 30
0.0
 10
142.746498
 20
54.834060
 30
0.0
 10
143.643302
 20
55.162408
 30
0.0
 10
144.120158
 20
55.451433
 30
0.0
 10
144.826113
 20
56.094371
 30
0.0
 10
145.108965
 20
56.709300
 30
0.0
 10
144.979852
 20
57.282956
 30
0.0
 10
144.786251
 20
57.602518
 30
0.0
 10
144.334292
 20
57.987797
 30
0.0
 10
143.664507
 20
58.011729
 30
0.0
 10
142.764687
 20
57.688346
 30
0.0
 10
142.287826
 20
57.399585
 30
0.0
 10
141.584622
 20
56.751680
 30
0.0
 10
141.298352
 20
56.148059
 30
0.0
 10
141.428134
 20
55.567798
 30
0.0
  0
LWPOLYLINE
  5
138
100
AcDbEntity
  8
Layer_1
 62
1
100
AcDbPolyline
 90
3
 70
0
 10
149.888334
 20
44.058668
 30
0.0
 10
153.091375
 20
44.380249
 30
0.0
 10
151.243167
 20
46.490823
 30
0.0
  0
LWPOLYLINE
  5
139
100
AcDbEntity
  8
Layer_1
 62
1
100
AcDbPolyline
 90
2
 70
0
 10
149.888334
 20
44.058668
 30
0.0
 10
152.842042
 20
46.645339
 30
0.0
  0
LWPOLYLINE
  5
13a
100
AcDbEntity
  8
Layer_1
 62
1
100
AcDbPolyline
 90
16
 70
1
 10
147.919443
 20
46.307210
 30
0.0
 10
148.429551
 20
46.012874
 30
0.0
 10
149.098954
 20
46.094525
 30
0.0
 10
149.925085
 20
46.573546
 30
0.0
 10
150.344441
 20
46.941012
 30
0.0
 10
150.928128
 20
47.696746
 30
0.0
 10
151.099784
 20
48.351400
 30
0.0
 10
150.873148
 20
48.893881
 30
0.0
 10
150.626906
 20
49.175012
 30
0.0
 10
150.115070
 20
49.475928
 30
0.0
 10
149.451188
 20
49.383278
 30
0.0
 10
148.621260
 20
48.908678
 30
0.0
 10
148.201640
 20
48.541207
 30
0.0
 10
147.621754
 20
47.781052
 30
0.0
 10
147.444575
 20
47.137134
 30
0.0
 10
147.673203
 20
46.588077
 30
0.0
  0
LWPOLYLINE
  5
13b
100
AcDbEntity
  8
Layer_1
 62
1
100
AcDbPolyline
 90
17
 70
0
 10
157.451172
 20
37.336711
 30
0.0
 10
158.907656
 20
36.166326
 30
0.0
 10
160.110588
 20
37.360446
 30
0.0
 10
159.843917
 20
37.331249
 30
0.0
 10
159.294131
 20
37.537149
 30
0.0
 10
158.854766
 20
37.890145
 30
0.0
 10
158.530924
 20
38.386376
 30
0.0
 10
158.481942
 20
38.912772
 30
0.0
 10
158.683267
 20
39.466163
 30
0.0
 10
158.917394
 20
39.757462
 30
0.0
 10
159.416399
 20
40.075273
 30
0.0
 10
159.937247
 20
40.136314
 30
0.0
 10
160.493415
 20
39.928961
 30
0.0
 10
160.932518
 20
39.575959
 30
0.0
 10
161.250239
 20
39.081189
 30
0.0
 10
161.280979
 20
38.816668
 30
0.0
 10
161.190343
 20
38.410111
 30
0.0
  0
LWPOLYLINE
  5
13c
100
AcDbEntity
  8
Layer_1
 62
1
100
AcDbPolyline
 90
16
 70
1
 10
155.412089
 20
38.975354
 30
0.0
 10
155.965483
 20
38.774032
 30
0.0
 10
156.610750
 20
38.970822
 30
0.0
 10
157.341112
 20
39.585957
 30
0.0
 10
157.690241
 20
40.020479
 30
0.0
 10
158.134144
 20
40.866144
 30
0.0
 10
158.189200
 20
41.540824
 30
0.0
 10
157.871743
 20
42.035602
 30
0.0
 10
157.580445
 20
42.269732
 30
0.0
 10
157.024277
 20
42.477085
 30
0.0
 10
156.386624
 20
42.270665
 30
0.0
 10
155.651422
 20
41.659130
 30
0.0
 10
155.302299
 20
41.224343
 30
0.0
 10
154.863239
 20
40.375076
 30
0.0
 10
154.800560
 20
39.710291
 30
0.0
 10
155.120796
 20
39.209220
 30
0.0
  0
LWPOLYLINE
  5
13d
100
AcDbEntity
  8
Layer_1
 62
1
100
AcDbPolyline
 90
23
 70
0
 10
166.626644
 20
32.269739
 30
0.0
 10
166.607661
 20
31.853718
 30
0.0
 10
167.010183
 20
31.416051
 30
0.0
 10
167.332560
 20
31.238974
 30
0.0
 10
167.917525
 20
31.133959
 30
0.0
 10
168.513583
 20
31.442630
 30
0.0
 10
169.131160
 20
32.172536
 30
0.0
 10
169.582456
 20
32.993825
 30
0.0
 10
169.774459
 20
33.737564
 30
0.0
 10
169.627164
 20
34.244994
 30
0.0
 10
169.223110
 20
34.680063
 30
0.0
 10
169.062189
 20
34.768594
 30
0.0
 10
168.478227
 20
34.876197
 30
0.0
 10
167.975943
 20
34.725809
 30
0.0
 10
167.539806
 20
34.325992
 30
0.0
 10
167.451385
 20
34.164859
 30
0.0
 10
167.346271
 20
33.579627
 30
0.0
 10
167.488741
 20
33.075085
 30
0.0
 10
167.890998
 20
32.637412
 30
0.0
 10
168.052187
 20
32.548860
 30
0.0
 10
168.637414
 20
32.443877
 30
0.0
 10
169.144789
 20
32.591409
 30
0.0
 10
169.582456
 20
32.993825
 30
0.0
  0
LWPOLYLINE
  5
13e
100
AcDbEntity
  8
Layer_1
 62
1
100
AcDbPolyline
 90
16
 70
1
 10
164.224714
 20
32.946750
 30
0.0
 10
164.804587
 20
32.844617
 30
0.0
 10
165.405734
 20
33.150431
 30
0.0
 10
166.018222
 20
33.883195
 30
0.0
 10
166.286813
 20
34.371800
 30
0.0
 10
166.576924
 20
35.281639
 30
0.0
 10
166.514227
 20
35.955759
 30
0.0
 10
166.115526
 20
36.387950
 30
0.0
 10
165.788061
 20
36.567857
 30
0.0
 10
165.204101
 20
36.675380
 30
0.0
 10
164.612133
 20
36.361159
 30
0.0
 10
163.994286
 20
35.631431
 30
0.0
 10
163.725962
 20
35.142755
 30
0.0
 10
163.440941
 20
34.230057
 30
0.0
 10
163.494723
 20
33.564377
 30
0.0
 10
163.897245
 20
33.126710
 30
0.0
  0
LWPOLYLINE
  5
13f
100
AcDbEntity
  8
Layer_1
 62
1
100
AcDbPolyline
 90
2
 70
0
 10
176.430562
 20
27.456604
 30
0.0
 10
179.463848
 20
30.572075
 30
0.0
  0
LWPOLYLINE
  5
140
100
AcDbEntity
  8
Layer_1
 62
1
100
AcDbPolyline
 90
2
 70
0
 10
178.906916
 20
26.614233
 30
0.0
 10
176.430826
 20
27.456610
 30
0.0
  0
LWPOLYLINE
  5
141
100
AcDbEntity
  8
Layer_1
 62
1
100
AcDbPolyline
 90
18
 70
1
 10
174.307930
 20
28.178772
 30
0.0
 10
174.896757
 20
28.178902
 30
0.0
 10
175.435718
 20
28.584467
 30
0.0
 10
175.911488
 20
29.412413
 30
0.0
 10
176.091124
 20
29.940233
 30
0.0
 10
176.218765
 20
30.886596
 30
0.0
 10
176.040075
 20
31.539471
 30
0.0
 10
175.572318
 20
31.895915
 30
0.0
 10
175.218591
 20
32.016251
 30
0.0
 10
174.624901
 20
32.020835
 30
0.0
 10
174.096401
 20
31.608637
 30
0.0
 10
173.614768
 20
30.782577
 30
0.0
 10
173.435396
 20
30.254789
 30
0.0
 10
173.313090
 20
29.306475
 30
0.0
 10
173.481847
 20
28.660244
 30
0.0
 10
173.953938
 20
28.299102
 30
0.0
 10
174.307930
 20
28.178772
 30
0.0
 10
174.307930
 20
28.178772
 30
0.0
  0
LWPOLYLINE
  5
142
100
AcDbEntity
  8
Layer_1
 62
1
100
AcDbPolyline
 90
28
 70
1
 10
188.532086
 20
24.532338
 30
0.0
 10
189.112132
 20
24.634726
 30
0.0
 10
189.356870
 20
24.974996
 30
0.0
 10
189.413892
 20
25.344267
 30
0.0
 10
189.283463
 20
25.742545
 30
0.0
 10
188.942049
 20
25.981304
 30
0.0
 10
188.232508
 20
26.283037
 30
0.0
 10
187.704844
 20
26.556704
 30
0.0
 10
187.397444
 20
26.976272
 30
0.0
 10
187.267950
 20
27.380392
 30
0.0
 10
187.353147
 20
27.931381
 30
0.0
 10
187.597885
 20
28.271651
 30
0.0
 10
187.808141
 20
28.428191
 30
0.0
 10
188.393294
 20
28.526743
 30
0.0
 10
189.131945
 20
28.412596
 30
0.0
 10
189.654502
 20
28.142790
 30
0.0
 10
189.813310
 20
27.929145
 30
0.0
 10
189.938163
 20
27.531780
 30
0.0
 10
189.852965
 20
26.980818
 30
0.0
 10
189.613134
 20
26.633771
 30
0.0
 10
189.181880
 20
26.328351
 30
0.0
 10
188.601833
 20
26.225963
 30
0.0
 10
187.834336
 20
26.152556
 30
0.0
 10
187.437099
 20
26.027945
 30
0.0
 10
187.198202
 20
25.686767
 30
0.0
 10
187.141183
 20
25.317496
 30
0.0
 10
187.265771
 20
24.920152
 30
0.0
 10
187.793700
 20
24.646492
 30
0.0
  0
LWPOLYLINE
  5
143
100
AcDbEntity
  8
Layer_1
 62
1
100
AcDbPolyline
 90
17
 70
1
 10
184.651645
 20
25.132167
 30
0.0
 10
185.231427
 20
25.234549
 30
0.0
 10
185.691792
 20
25.727528
 30
0.0
 10
186.016821
 20
26.625537
 30
0.0
 10
186.101754
 20
27.176521
 30
0.0
 10
186.063299
 20
28.130695
 30
0.0
 10
185.773797
 20
28.742587
 30
0.0
 10
185.251504
 20
29.012397
 30
0.0
 10
184.882178
 20
29.069497
 30
0.0
 10
184.296758
 20
28.970939
 30
0.0
 10
183.847609
 20
28.473195
 30
0.0
 10
183.517003
 20
27.576100
 30
0.0
 10
183.431805
 20
27.025138
 30
0.0
 10
183.476367
 20
26.070034
 30
0.0
 10
183.754389
 20
25.462875
 30
0.0
 10
184.282317
 20
25.189241
 30
0.0
 10
184.651642
 20
25.132167
 30
0.0
  0
LWPOLYLINE
  5
144
100
AcDbEntity
  8
Layer_1
 62
1
100
AcDbPolyline
 90
23
 70
0
 10
198.067797
 20
25.777088
 30
0.0
 10
198.239716
 20
26.344308
 30
0.0
 10
198.605443
 20
26.719849
 30
0.0
 10
199.158779
 20
26.921388
 30
0.0
 10
199.348707
 20
26.925434
 30
0.0
 10
199.910074
 20
26.747487
 30
0.0
 10
200.297183
 20
26.387881
 30
0.0
 10
200.492949
 20
25.828443
 30
0.0
 10
200.496841
 20
25.644546
 30
0.0
 10
200.324920
 20
25.077352
 30
0.0
 10
199.953499
 20
24.695736
 30
0.0
 10
199.399899
 20
24.494191
 30
0.0
 10
199.210235
 20
24.490177
 30
0.0
 10
198.648867
 20
24.668124
 30
0.0
 10
198.267453
 20
25.033806
 30
0.0
 10
198.067799
 20
25.777035
 30
0.0
 10
198.048093
 20
26.708079
 30
0.0
 10
198.212106
 20
27.648860
 30
0.0
 10
198.573753
 20
28.217133
 30
0.0
 10
199.127152
 20
28.415710
 30
0.0
 10
199.506744
 20
28.423717
 30
0.0
 10
200.068049
 20
28.248733
 30
0.0
 10
200.265619
 20
27.879187
 30
0.0
  0
LWPOLYLINE
  5
145
100
AcDbEntity
  8
Layer_1
 62
1
100
AcDbPolyline
 90
16
 70
1
 10
195.664559
 20
24.415133
 30
0.0
 10
196.217895
 20
24.616673
 30
0.0
 10
196.585687
 20
25.182112
 30
0.0
 10
196.749705
 20
26.122892
 30
0.0
 10
196.737906
 20
26.680349
 30
0.0
 10
196.534231
 20
27.613349
 30
0.0
 10
196.142781
 20
28.165683
 30
0.0
 10
195.581476
 20
28.340666
 30
0.0
 10
195.207969
 20
28.332734
 30
0.0
 10
194.648487
 20
28.134029
 30
0.0
 10
194.292658
 20
27.565880
 30
0.0
 10
194.122824
 20
26.624975
 30
0.0
 10
194.134622
 20
26.067518
 30
0.0
 10
194.344379
 20
25.134648
 30
0.0
 10
194.723600
 20
24.585047
 30
0.0
 10
195.291052
 20
24.407202
 30
0.0
  0
LWPOLYLINE
  5
146
100
AcDbEntity
  8
Layer_1
 62
1
100
AcDbPolyline
 90
2
 70
0
 10
132.484381
 20
84.847476
 30
0.0
 10
130.092123
 20
84.804784
 30
0.0
  0
LWPOLYLINE
  5
147
100
AcDbEntity
  8
Layer_1
 62
1
100
AcDbPolyline
 90
2
 70
0
 10
133.821449
 20
74.089488
 30
0.0
 10
131.480608
 20
73.593228
 30
0.0
  0
LWPOLYLINE
  5
148
100
AcDbEntity
  8
Layer_1
 62
1
100
AcDbPolyline
 90
2
 70
0
 10
137.051369
 20
63.625616
 30
0.0
 10
134.854802
 20
62.676963
 30
0.0
  0
LWPOLYLINE
  5
149
100
AcDbEntity
  8
Layer_1
 62
1
100
AcDbPolyline
 90
2
 70
0
 10
142.016658
 20
53.844200
 30
0.0
 10
140.013766
 20
52.534969
 30
0.0
  0
LWPOLYLINE
  5
14a
100
AcDbEntity
  8
Layer_1
 62
1
100
AcDbPolyline
 90
2
 70
0
 10
148.544192
 20
45.185117
 30
0.0
 10
146.743842
 20
43.609178
 30
0.0
  0
LWPOLYLINE
  5
14b
100
AcDbEntity
  8
Layer_1
 62
1
100
AcDbPolyline
 90
2
 70
0
 10
156.535684
 20
37.728589
 30
0.0
 10
155.083075
 20
35.827353
 30
0.0
  0
LWPOLYLINE
  5
14c
100
AcDbEntity
  8
Layer_1
 62
1
100
AcDbPolyline
 90
2
 70
0
 10
165.841557
 20
31.739507
 30
0.0
 10
164.678518
 20
29.648326
 30
0.0
  0
LWPOLYLINE
  5
14d
100
AcDbEntity
  8
Layer_1
 62
1
100
AcDbPolyline
 90
2
 70
0
 10
175.837535
 20
27.454877
 30
0.0
 10
175.029879
 20
25.202614
 30
0.0
  0
LWPOLYLINE
  5
14e
100
AcDbEntity
  8
Layer_1
 62
1
100
AcDbPolyline
 90
2
 70
0
 10
186.509648
 20
25.059547
 30
0.0
 10
186.158543
 20
22.692751
 30
0.0
  0
LWPOLYLINE
  5
14f
100
AcDbEntity
  8
Layer_1
 62
1
100
AcDbPolyline
 90
2
 70
0
 10
197.400420
 20
24.536796
 30
0.0
 10
197.463217
 20
22.144913
 30
0.0
  0
LWPOLYLINE
  5
150
100
AcDbEntity
  8
Layer_1
 62
7
100
AcDbPolyline
 90
116
 70
1
 10
10.976434
 20
129.111686
 30
0.0
 10
10.196710
 20
128.955053
 30
0.0
 10
9.561181
 20
128.527222
 30
0.0
 10
9.133350
 20
127.891697
 30
0.0
 10
8.976714
 20
127.111970
 30
0.0
 10
8.976452
 20
127.004687
 30
0.0
 10
10.180567
 20
127.004687
 30
0.0
 10
10.960559
 20
126.847789
 30
0.0
 10
11.596087
 20
126.419961
 30
0.0
 10
12.023654
 20
125.784182
 30
0.0
 10
12.180552
 20
125.004192
 30
0.0
 10
12.179493
 20
121.004701
 30
0.0
 10
12.022860
 20
120.224711
 30
0.0
 10
11.595029
 20
119.589182
 30
0.0
 10
10.959500
 20
119.161351
 30
0.0
 10
10.179774
 20
119.004717
 30
0.0
 10
8.976452
 20
119.004692
 30
0.0
 10
8.979627
 20
77.872379
 30
0.0
 10
7.980561
 20
77.871850
 30
0.0
 10
6.584356
 20
117.771603
 30
0.0
 10
4.387524
 20
117.771708
 30
0.0
 10
3.579487
 20
117.771708
 30
0.0
 10
2.579628
 20
117.771708
 30
0.0
 10
2.080624
 20
117.771708
 30
0.0
 10
1.300633
 20
117.615075
 30
0.0
 10
0.665107
 20
117.187245
 30
0.0
 10
0.237276
 20
116.551716
 30
0.0
 10
0.080642
 20
115.771726
 30
0.0
 10
0.080642
 20
111.771707
 30
0.0
 10
0.237276
 20
110.991716
 30
0.0
 10
0.665107
 20
110.356187
 30
0.0
 10
1.300633
 20
109.928621
 30
0.0
 10
2.080359
 20
109.771989
 30
0.0
 10
2.080624
 20
107.771715
 30
0.0
 10
3.579487
 20
107.771715
 30
0.0
 10
3.579487
 20
46.271907
 30
0.0
 10
0.580437
 20
46.271907
 30
0.0
 10
0.580437
 20
38.272767
 30
0.0
 10
3.579487
 20
38.272767
 30
0.0
 10
4.580138
 20
9.872426
 30
0.0
 10
4.736774
 20
9.091906
 30
0.0
 10
5.164338
 20
8.456909
 30
0.0
 10
5.799867
 20
8.028284
 30
0.0
 10
6.579858
 20
7.872180
 30
0.0
 10
96.579358
 20
7.872710
 30
0.0
 10
97.359349
 20
8.028814
 30
0.0
 10
97.995142
 20
8.457438
 30
0.0
 10
98.422973
 20
9.092438
 30
0.0
 10
98.579871
 20
9.872956
 30
0.0
 10
99.579731
 20
38.273296
 30
0.0
 10
102.580366
 20
38.272767
 30
0.0
 10
102.580366
 20
46.271907
 30
0.0
 10
99.580525
 20
46.271907
 30
0.0
 10
99.580525
 20
107.771715
 30
0.0
 10
101.079386
 20
107.771715
 30
0.0
 10
101.079386
 20
109.771697
 30
0.0
 10
101.859377
 20
109.928330
 30
0.0
 10
102.495170
 20
110.355896
 30
0.0
 10
102.923001
 20
110.991425
 30
0.0
 10
103.079899
 20
111.771416
 30
0.0
 10
103.080428
 20
115.771699
 30
0.0
 10
102.923530
 20
116.551690
 30
0.0
 10
102.495699
 20
117.187219
 30
0.0
 10
101.859906
 20
117.615049
 30
0.0
 10
101.079915
 20
117.771682
 30
0.0
 10
99.695354
 20
117.771708
 30
0.0
 10
98.772488
 20
117.771708
 30
0.0
 10
96.575389
 20
117.771708
 30
0.0
 10
94.979426
 20
77.871850
 30
0.0
 10
93.980357
 20
77.871850
 30
0.0
 10
93.980357
 20
117.738688
 30
0.0
 10
93.980357
 20
117.771708
 30
0.0
 10
93.980357
 20
118.166705
 30
0.0
 10
93.973478
 20
118.166705
 30
0.0
 10
93.973478
 20
119.004692
 30
0.0
 10
92.980500
 20
119.004692
 30
0.0
 10
92.200509
 20
119.161325
 30
0.0
 10
91.564980
 20
119.589155
 30
0.0
 10
91.137149
 20
120.224684
 30
0.0
 10
90.980516
 20
121.004675
 30
0.0
 10
90.980516
 20
125.003689
 30
0.0
 10
91.137149
 20
125.783679
 30
0.0
 10
91.564980
 20
126.419469
 30
0.0
 10
92.200509
 20
126.847299
 30
0.0
 10
92.980500
 20
127.004197
 30
0.0
 10
93.973478
 20
127.004687
 30
0.0
 10
93.973478
 20
127.112687
 30
0.0
 10
93.816848
 20
127.892414
 30
0.0
 10
93.389017
 20
128.527939
 30
0.0
 10
92.753488
 20
128.955770
 30
0.0
 10
91.973497
 20
129.112403
 30
0.0
 10
86.681572
 20
129.111686
 30
0.0
 10
84.518607
 20
128.791541
 30
0.0
 10
82.313042
 20
128.062880
 30
0.0
 10
80.072551
 20
126.984970
 30
0.0
 10
77.805605
 20
125.617336
 30
0.0
 10
73.224615
 20
122.248957
 30
0.0
 10
68.634365
 20
118.431023
 30
0.0
 10
64.100206
 20
114.637167
 30
0.0
 10
59.686696
 20
111.341019
 30
0.0
 10
57.545160
 20
110.027628
 30
0.0
 10
55.458396
 20
109.016127
 30
0.0
 10
53.434334
 20
108.365784
 30
0.0
 10
51.480655
 20
108.135860
 30
0.0
 10
49.526973
 20
108.365784
 30
0.0
 10
47.502912
 20
109.016127
 30
0.0
 10
45.415882
 20
110.027628
 30
0.0
 10
43.274611
 20
111.341019
 30
0.0
 10
38.861104
 20
114.637167
 30
0.0
 10
34.326943
 20
118.431023
 30
0.0
 10
29.736692
 20
122.248957
 30
0.0
 10
25.155702
 20
125.617336
 30
0.0
 10
22.888756
 20
126.984970
 30
0.0
 10
20.648266
 20
128.062880
 30
0.0
 10
18.442703
 20
128.791541
 30
0.0
 10
16.279736
 20
129.111686
 30
0.0
  0
LWPOLYLINE
  5
151
100
AcDbEntity
  8
Layer_1
 62
7
100
AcDbPolyline
 90
4
 70
1
 10
11.579683
 20
13.772909
 30
0.0
 10
23.580641
 20
13.772909
 30
0.0
 10
23.580641
 20
10.771745
 30
0.0
 10
11.579683
 20
10.771745
 30
0.0
  0
LWPOLYLINE
  5
152
100
AcDbEntity
  8
Layer_1
 62
7
100
AcDbPolyline
 90
4
 70
1
 10
79.579368
 20
13.772909
 30
0.0
 10
91.580591
 20
13.772909
 30
0.0
 10
91.580591
 20
10.771745
 30
0.0
 10
79.579368
 20
10.771745
 30
0.0
  0
LWPOLYLINE
  5
153
100
AcDbEntity
  8
Layer_1
 62
7
100
AcDbPolyline
 90
43
 70
1
 10
0.595772
 20
199.331820
 30
0.0
 10
0.595772
 20
193.332135
 30
0.0
 10
3.595586
 20
193.332135
 30
0.0
 10
3.595586
 20
180.331848
 30
0.0
 10
0.595772
 20
180.331848
 30
0.0
 10
0.595772
 20
174.332164
 30
0.0
 10
3.595586
 20
174.332164
 30
0.0
 10
24.595302
 20
174.332164
 30
0.0
 10
24.595302
 20
136.487003
 30
0.0
 10
3.595586
 20
136.487003
 30
0.0
 10
3.595586
 20
135.333423
 30
0.0
 10
0.595772
 20
135.333423
 30
0.0
 10
0.595772
 20
129.332679
 30
0.0
 10
102.595460
 20
129.332679
 30
0.0
 10
102.595460
 20
135.333423
 30
0.0
 10
99.595352
 20
135.333423
 30
0.0
 10
99.595352
 20
136.487003
 30
0.0
 10
78.595399
 20
136.487003
 30
0.0
 10
78.595399
 20
174.332164
 30
0.0
 10
99.595352
 20
174.332164
 30
0.0
 10
102.595460
 20
174.332164
 30
0.0
 10
102.595460
 20
180.331848
 30
0.0
 10
99.595352
 20
180.331848
 30
0.0
 10
99.595352
 20
193.332135
 30
0.0
 10
102.595460
 20
193.332135
 30
0.0
 10
102.595460
 20
199.331820
 30
0.0
 10
99.595352
 20
199.331820
 30
0.0
 10
76.917678
 20
199.331820
 30
0.0
 10
76.907359
 20
199.230484
 30
0.0
 10
76.848889
 20
199.042366
 30
0.0
 10
76.634838
 20
198.724602
 30
0.0
 10
76.317606
 20
198.510554
 30
0.0
 10
76.129487
 20
198.452610
 30
0.0
 10
75.927607
 20
198.431973
 30
0.0
 10
72.927766
 20
198.431973
 30
0.0
 10
72.725625
 20
198.452610
 30
0.0
 10
72.537506
 20
198.510554
 30
0.0
 10
72.220271
 20
198.724602
 30
0.0
 10
72.006223
 20
199.042366
 30
0.0
 10
71.947750
 20
199.230484
 30
0.0
 10
71.937431
 20
199.331820
 30
0.0
 10
24.595302
 20
199.331820
 30
0.0
 10
3.595586
 20
199.331820
 30
0.0
  0
LWPOLYLINE
  5
154
100
AcDbEntity
  8
Layer_1
 62
7
100
AcDbPolyline
 90
32
 70
1
 10
44.595688
 20
188.332045
 30
0.0
 10
44.897842
 20
188.301618
 30
0.0
 10
45.179358
 20
188.214041
 30
0.0
 10
45.433887
 20
188.075929
 30
0.0
 10
45.655873
 20
187.892573
 30
0.0
 10
45.838964
 20
187.670853
 30
0.0
 10
45.977341
 20
187.416059
 30
0.0
 10
46.064654
 20
187.134542
 30
0.0
 10
46.095345
 20
186.832388
 30
0.0
 10
46.064918
 20
186.529970
 30
0.0
 10
45.977341
 20
186.248454
 30
0.0
 10
45.839229
 20
185.993661
 30
0.0
 10
45.656137
 20
185.771675
 30
0.0
 10
45.434152
 20
185.588584
 30
0.0
 10
45.179358
 20
185.450206
 30
0.0
 10
44.897842
 20
185.362630
 30
0.0
 10
44.595688
 20
185.332203
 30
0.0
 10
44.301471
 20
185.361307
 30
0.0
 10
44.021542
 20
185.446239
 30
0.0
 10
43.763309
 20
185.584086
 30
0.0
 10
43.534709
 20
185.771675
 30
0.0
 10
43.347384
 20
186.000011
 30
0.0
 10
43.209537
 20
186.258244
 30
0.0
 10
43.124608
 20
186.538436
 30
0.0
 10
43.095501
 20
186.832388
 30
0.0
 10
43.125931
 20
187.134542
 30
0.0
 10
43.213508
 20
187.416059
 30
0.0
 10
43.351885
 20
187.670853
 30
0.0
 10
43.534974
 20
187.892838
 30
0.0
 10
43.756959
 20
188.075929
 30
0.0
 10
44.011753
 20
188.214306
 30
0.0
 10
44.293269
 20
188.301618
 30
0.0
  0
LWPOLYLINE
  5
155
100
AcDbEntity
  8
Layer_1
 62
7
100
AcDbPolyline
 90
26
 70
1
 10
72.927766
 20
174.432177
 30
0.0
 10
75.927607
 20
174.432177
 30
0.0
 10
76.129487
 20
174.412069
 30
0.0
 10
76.317606
 20
174.353861
 30
0.0
 10
76.635105
 20
174.140078
 30
0.0
 10
76.849153
 20
173.822313
 30
0.0
 10
76.907094
 20
173.634195
 30
0.0
 10
76.927467
 20
173.432319
 30
0.0
 10
76.907094
 20
173.230177
 30
0.0
 10
76.849153
 20
173.042323
 30
0.0
 10
76.635105
 20
172.724556
 30
0.0
 10
76.317606
 20
172.510776
 30
0.0
 10
76.129487
 20
172.452567
 30
0.0
 10
75.927607
 20
172.432459
 30
0.0
 10
72.927766
 20
172.432459
 30
0.0
 10
72.725625
 20
172.452567
 30
0.0
 10
72.537771
 20
172.510776
 30
0.0
 10
72.220006
 20
172.724556
 30
0.0
 10
72.006223
 20
173.042323
 30
0.0
 10
71.948015
 20
173.230177
 30
0.0
 10
71.927642
 20
173.432319
 30
0.0
 10
71.948015
 20
173.634195
 30
0.0
 10
72.006223
 20
173.822313
 30
0.0
 10
72.220006
 20
174.140078
 30
0.0
 10
72.537771
 20
174.353861
 30
0.0
 10
72.725625
 20
174.412069
 30
0.0
  0
LWPOLYLINE
  5
156
100
AcDbEntity
  8
Layer_1
 62
7
100
AcDbPolyline
 90
76
 70
1
 10
37.595616
 20
159.931704
 30
0.0
 10
65.595378
 20
159.931704
 30
0.0
 10
65.999397
 20
159.892019
 30
0.0
 10
66.375369
 20
159.775600
 30
0.0
 10
66.715092
 20
159.593040
 30
0.0
 10
67.010896
 20
159.346975
 30
0.0
 10
67.254577
 20
159.053290
 30
0.0
 10
67.438462
 20
158.711975
 30
0.0
 10
67.554614
 20
158.336270
 30
0.0
 10
67.595095
 20
157.931458
 30
0.0
 10
67.595095
 20
155.431147
 30
0.0
 10
70.095406
 20
155.431147
 30
0.0
 10
70.499425
 20
155.391459
 30
0.0
 10
70.875130
 20
155.275043
 30
0.0
 10
71.215122
 20
155.092480
 30
0.0
 10
71.510659
 20
154.849066
 30
0.0
 10
71.754604
 20
154.552733
 30
0.0
 10
71.938490
 20
154.211418
 30
0.0
 10
72.054642
 20
153.835713
 30
0.0
 10
72.095123
 20
153.433544
 30
0.0
 10
72.095123
 20
138.431689
 30
0.0
 10
72.054642
 20
138.029523
 30
0.0
 10
71.938490
 20
137.651169
 30
0.0
 10
71.754604
 20
137.312502
 30
0.0
 10
71.510659
 20
137.016169
 30
0.0
 10
71.215122
 20
136.772753
 30
0.0
 10
70.875130
 20
136.590190
 30
0.0
 10
70.499425
 20
136.473774
 30
0.0
 10
70.095406
 20
136.431440
 30
0.0
 10
67.595095
 20
136.431440
 30
0.0
 10
67.595095
 20
133.931132
 30
0.0
 10
67.554614
 20
133.528966
 30
0.0
 10
67.438462
 20
133.153258
 30
0.0
 10
67.254577
 20
132.811945
 30
0.0
 10
67.010896
 20
132.518258
 30
0.0
 10
66.715092
 20
132.272196
 30
0.0
 10
66.375369
 20
132.089636
 30
0.0
 10
65.999397
 20
131.973217
 30
0.0
 10
65.595378
 20
131.933529
 30
0.0
 10
37.595616
 20
131.933529
 30
0.0
 10
37.191598
 20
131.973217
 30
0.0
 10
36.815625
 20
132.089636
 30
0.0
 10
36.475900
 20
132.272196
 30
0.0
 10
36.180096
 20
132.518258
 30
0.0
 10
35.936415
 20
132.811945
 30
0.0
 10
35.752265
 20
133.153258
 30
0.0
 10
35.636113
 20
133.528966
 30
0.0
 10
35.595632
 20
133.931132
 30
0.0
 10
35.595632
 20
136.431440
 30
0.0
 10
33.095589
 20
136.431440
 30
0.0
 10
32.691570
 20
136.473774
 30
0.0
 10
32.315597
 20
136.590190
 30
0.0
 10
31.975873
 20
136.772753
 30
0.0
 10
31.680069
 20
137.016169
 30
0.0
 10
31.436388
 20
137.312502
 30
0.0
 10
31.252238
 20
137.651169
 30
0.0
 10
31.136086
 20
138.029523
 30
0.0
 10
31.095604
 20
138.431689
 30
0.0
 10
31.095604
 20
153.433544
 30
0.0
 10
31.136086
 20
153.835713
 30
0.0
 10
31.252238
 20
154.211418
 30
0.0
 10
31.436388
 20
154.552733
 30
0.0
 10
31.680069
 20
154.849066
 30
0.0
 10
31.975873
 20
155.092480
 30
0.0
 10
32.315597
 20
155.275043
 30
0.0
 10
32.691570
 20
155.391459
 30
0.0
 10
33.095589
 20
155.431147
 30
0.0
 10
35.595632
 20
155.431147
 30
0.0
 10
35.595632
 20
157.931458
 30
0.0
 10
35.636113
 20
158.336270
 30
0.0
 10
35.752265
 20
158.711975
 30
0.0
 10
35.936415
 20
159.053290
 30
0.0
 10
36.180096
 20
159.346975
 30
0.0
 10
36.475900
 20
159.593040
 30
0.0
 10
36.815625
 20
159.775600
 30
0.0
 10
37.191598
 20
159.892019
 30
0.0
  0
LWPOLYLINE
  5
157
100
AcDbEntity
  8
Layer_1
 62
7
100
AcDbPolyline
 90
24
 70
1
 10
32.595262
 20
159.431644
 30
0.0
 10
32.796874
 20
159.413123
 30
0.0
 10
32.984464
 20
159.352269
 30
0.0
 10
33.302490
 20
159.137954
 30
0.0
 10
33.516805
 20
158.820457
 30
0.0
 10
33.575013
 20
158.632600
 30
0.0
 10
33.595386
 20
158.431520
 30
0.0
 10
33.575013
 20
158.230437
 30
0.0
 10
33.516805
 20
158.042582
 30
0.0
 10
33.302490
 20
157.725083
 30
0.0
 10
32.984464
 20
157.510770
 30
0.0
 10
32.796874
 20
157.452562
 30
0.0
 10
32.595262
 20
157.431395
 30
0.0
 10
32.393914
 20
157.452562
 30
0.0
 10
32.206060
 20
157.510770
 30
0.0
 10
31.888296
 20
157.725083
 30
0.0
 10
31.673983
 20
158.042582
 30
0.0
 10
31.615775
 20
158.230437
 30
0.0
 10
31.595402
 20
158.431520
 30
0.0
 10
31.615775
 20
158.632600
 30
0.0
 10
31.673983
 20
158.820457
 30
0.0
 10
31.888296
 20
159.137954
 30
0.0
 10
32.206060
 20
159.352269
 30
0.0
 10
32.393914
 20
159.413123
 30
0.0
  0
LWPOLYLINE
  5
158
100
AcDbEntity
  8
Layer_1
 62
7
100
AcDbPolyline
 90
24
 70
1
 10
70.595468
 20
159.431644
 30
0.0
 10
70.797078
 20
159.413123
 30
0.0
 10
70.984670
 20
159.352269
 30
0.0
 10
71.302699
 20
159.137954
 30
0.0
 10
71.517009
 20
158.820457
 30
0.0
 10
71.575217
 20
158.632600
 30
0.0
 10
71.595590
 20
158.431520
 30
0.0
 10
71.575217
 20
158.230437
 30
0.0
 10
71.517009
 20
158.042582
 30
0.0
 10
71.302699
 20
157.725083
 30
0.0
 10
70.984670
 20
157.510770
 30
0.0
 10
70.797078
 20
157.452562
 30
0.0
 10
70.595468
 20
157.431395
 30
0.0
 10
70.394120
 20
157.452562
 30
0.0
 10
70.206266
 20
157.510770
 30
0.0
 10
69.888502
 20
157.725083
 30
0.0
 10
69.674190
 20
158.042582
 30
0.0
 10
69.615981
 20
158.230437
 30
0.0
 10
69.595608
 20
158.431520
 30
0.0
 10
69.615981
 20
158.632600
 30
0.0
 10
69.674190
 20
158.820457
 30
0.0
 10
69.888502
 20
159.137954
 30
0.0
 10
70.206266
 20
159.352269
 30
0.0
 10
70.394120
 20
159.413123
 30
0.0
  0
LWPOLYLINE
  5
159
100
AcDbEntity
  8
Layer_1
 62
7
100
AcDbPolyline
 90
24
 70
1
 10
32.595262
 20
134.431194
 30
0.0
 10
32.796874
 20
134.412673
 30
0.0
 10
32.984464
 20
134.354465
 30
0.0
 10
33.302490
 20
134.140153
 30
0.0
 10
33.516805
 20
133.822653
 30
0.0
 10
33.575013
 20
133.634799
 30
0.0
 10
33.595386
 20
133.431070
 30
0.0
 10
33.575013
 20
133.229987
 30
0.0
 10
33.516805
 20
133.042133
 30
0.0
 10
33.302490
 20
132.724633
 30
0.0
 10
32.984464
 20
132.510321
 30
0.0
 10
32.796874
 20
132.452112
 30
0.0
 10
32.595262
 20
132.430946
 30
0.0
 10
32.393914
 20
132.452112
 30
0.0
 10
32.206060
 20
132.510321
 30
0.0
 10
31.888296
 20
132.724633
 30
0.0
 10
31.673983
 20
133.042133
 30
0.0
 10
31.615775
 20
133.229987
 30
0.0
 10
31.595402
 20
133.431070
 30
0.0
 10
31.615775
 20
133.634799
 30
0.0
 10
31.673983
 20
133.822653
 30
0.0
 10
31.888296
 20
134.140153
 30
0.0
 10
32.206060
 20
134.354465
 30
0.0
 10
32.393914
 20
134.412673
 30
0.0
  0
LWPOLYLINE
  5
15a
100
AcDbEntity
  8
Layer_1
 62
7
100
AcDbPolyline
 90
24
 70
1
 10
70.595468
 20
134.431194
 30
0.0
 10
70.797078
 20
134.412673
 30
0.0
 10
70.984670
 20
134.354465
 30
0.0
 10
71.302699
 20
134.140153
 30
0.0
 10
71.517009
 20
133.822653
 30
0.0
 10
71.575217
 20
133.634799
 30
0.0
 10
71.595590
 20
133.431070
 30
0.0
 10
71.575217
 20
133.229987
 30
0.0
 10
71.517009
 20
133.042133
 30
0.0
 10
71.302699
 20
132.724633
 30
0.0
 10
70.984670
 20
132.510321
 30
0.0
 10
70.797078
 20
132.452112
 30
0.0
 10
70.595468
 20
132.430946
 30
0.0
 10
70.394120
 20
132.452112
 30
0.0
 10
70.206266
 20
132.510321
 30
0.0
 10
69.888502
 20
132.724633
 30
0.0
 10
69.674190
 20
133.042133
 30
0.0
 10
69.615981
 20
133.229987
 30
0.0
 10
69.595608
 20
133.431070
 30
0.0
 10
69.615981
 20
133.634799
 30
0.0
 10
69.674190
 20
133.822653
 30
0.0
 10
69.888502
 20
134.140153
 30
0.0
 10
70.206266
 20
134.354465
 30
0.0
 10
70.394120
 20
134.412673
 30
0.0
  0
ENDSEC
  0
SECTION
  2
OBJECTS
  0
DICTIONARY
  5
C
330
0
100
AcDbDictionary
  3
ACAD_GROUP
350
D
  3
ACAD_MLINESTYLE
350
17
  0
DICTIONARY
  5
D
330
C
100
AcDbDictionary
  0
DICTIONARY
  5
1A
330
C
100
AcDbDictionary
  0
DICTIONARY
  5
17
330
C
100
AcDbDictionary
  3
STANDARD
350
18
  0
DICTIONARY
  5
19
330
C
100
AcDbDictionary
  0
ENDSEC
  0
EOF
