<?xml version="1.0" encoding="UTF-8" standalone="no"?>
<!-- Created with Inkscape (http://www.inkscape.org/) -->

<svg
   sodipodi:docname="bot_side.svg"
   inkscape:version="1.1.2 (0a00cf5339, 2022-02-04)"
   id="svg5"
   version="1.1"
   viewBox="0 0 210 80"
   height="80mm"
   width="210mm"
   xmlns:inkscape="http://www.inkscape.org/namespaces/inkscape"
   xmlns:sodipodi="http://sodipodi.sourceforge.net/DTD/sodipodi-0.dtd"
   xmlns="http://www.w3.org/2000/svg"
   xmlns:svg="http://www.w3.org/2000/svg">
  <sodipodi:namedview
     id="namedview7"
     pagecolor="#ffffff"
     bordercolor="#666666"
     borderopacity="1.0"
     inkscape:pageshadow="2"
     inkscape:pageopacity="0.0"
     inkscape:pagecheckerboard="0"
     inkscape:document-units="mm"
     showgrid="false"
     inkscape:zoom="2.5270651"
     inkscape:cx="70.833157"
     inkscape:cy="106.64545"
     inkscape:window-width="2560"
     inkscape:window-height="1409"
     inkscape:window-x="2560"
     inkscape:window-y="0"
     inkscape:window-maximized="1"
     inkscape:current-layer="layer1"
     inkscape:snap-bbox="true"
     inkscape:snap-object-midpoints="true"
     inkscape:snap-bbox-midpoints="true"
     showguides="true"
     inkscape:guide-bbox="true"
     inkscape:snap-global="false"
     inkscape:snap-smooth-nodes="true"
     inkscape:snap-midpoints="true"
     inkscape:snap-intersection-paths="true"
     inkscape:object-paths="true">
    <sodipodi:guide
       position="92,217"
       orientation="0,1"
       id="guide2610"
       inkscape:label=""
       inkscape:locked="false"
       inkscape:color="rgb(0,0,255)" />
    <inkscape:grid
       type="xygrid"
       id="grid1645"
       units="mm"
       spacingx="1"
       spacingy="1" />
  </sodipodi:namedview>
  <defs
     id="defs2" />
  <g
     inkscape:label="Layer 1"
     inkscape:groupmode="layer"
     id="layer1">
    <circle
       style="fill:none;stroke:#000080;stroke-width:0.2"
       id="circle2192"
       cx="7.0022297"
       cy="34.971996"
       r="65.469582" />
    <rect
       style="fill:none;stroke:#000080;stroke-width:0.200002"
       id="rect2960"
       width="2.7483115"
       height="3.2402041"
       x="8.2384605"
       y="-32.159317"
       inkscape:transform-center-y="-65.065552"
       inkscape:transform-center-x="-3.8354223"
       ry="0.49999025"
       rx="0.4999868"
       transform="matrix(0.99888967,0.04711084,-0.04038578,0.99918416,0,0)" />
    <g
       id="g1478"
       style="stroke:#ff0000"
       transform="translate(-243,-7)">
      <rect
         style="fill:none;stroke:#ff0000;stroke-width:0.2"
         id="rect1348"
         width="6"
         height="3"
         x="195"
         y="70" />
      <rect
         style="fill:none;stroke:#ff0000;stroke-width:0.2"
         id="rect1474"
         width="6"
         height="3"
         x="219"
         y="70" />
    </g>
    <path
       id="circle1643"
       style="fill:none;stroke:#ff0000;stroke-width:0.2"
       d="m 42.677012,44.005356 a 1,1 0 0 1 -1.414214,0 1,1 0 0 1 0,-1.414213 1,1 0 0 1 1.414214,0 1,1 0 0 1 0,1.414213 z m 24.748737,24.748738 a 1,1 0 0 1 -1.414214,0 1,1 0 0 1 0,-1.414214 1,1 0 0 1 1.414214,0 1,1 0 0 1 0,1.414214 z m -4.17193,-15.485639 a 4.5999999,4.5999999 0 0 1 -6.505382,0 4.5999999,4.5999999 0 0 1 0,-6.505382 4.5999999,4.5999999 0 0 1 6.505382,0 4.5999999,4.5999999 0 0 1 0,6.505382 z"
       inkscape:transform-center-x="5.6372615"
       inkscape:transform-center-y="5.6633751" />
    <path
       style="fill:none;stroke:#000000;stroke-width:0.264583px;stroke-linecap:butt;stroke-linejoin:miter;stroke-opacity:1"
       d="m 78,39 c 0,0 5.332716,17.805734 5.332715,22.805733 C 83.332714,66.805734 76.16995,72.000001 67,72 57.830049,71.999999 -42.76368,72.715826 -49.520187,67.854588 -56.276695,62.99335 -50.17342,49.828874 -38.2084,48.913296 -11.955425,42.718944 10.49972,26.253681 3.1567821,-10.253105 1.9519339,-14.57664 -3.7473489,-34.896372 4.066501,-34.25954 l 3.3389144,5.259123 1.1540023,4.391055 L 68,37 Z"
       id="path1680"
       sodipodi:nodetypes="cszzccccccc" />
    <path
       id="rect4148"
       style="fill:none;stroke:#ffaaaa;stroke-width:0.2"
       d="M 3.0931375,-31.695335 H 83.660856 V 43.953987 L 22.816924,42.974519 Z"
       sodipodi:nodetypes="ccccc" />
    <rect
       style="fill:none;stroke:#ff0000;stroke-width:0.2"
       id="rect2314"
       width="6"
       height="3"
       x="15"
       y="42" />
    <rect
       style="fill:none;stroke:#ff0000;stroke-width:0.2"
       id="rect2316"
       width="6"
       height="3"
       x="29"
       y="42" />
    <rect
       style="fill:none;stroke:#ff0000;stroke-width:0.2"
       id="rect2320"
       width="6"
       height="3"
       x="10"
       y="63" />
    <rect
       style="fill:none;stroke:#ff0000;stroke-width:0.2"
       id="rect2322"
       width="6"
       height="3"
       x="29"
       y="63" />
    <circle
       style="fill:none;stroke:#ff0000;stroke-width:0.2"
       id="path1243"
       cx="31.988026"
       cy="10.437801"
       r="21.910406" />
    <rect
       style="fill:none;stroke:#ff0000;stroke-width:0.2"
       id="rect862"
       width="6"
       height="3"
       x="74"
       y="63" />
    <circle
       style="fill:none;stroke:#ff0000;stroke-width:0.2"
       id="circle1083"
       cx="22.5"
       cy="58.5"
       r="7.5" />
    <circle
       style="fill:none;stroke:#ff0000;stroke-width:0.2"
       id="circle1722"
       cx="7"
       cy="35"
       r="7.5" />
    <g
       inkscape:label="Hershey Text"
       style="fill:none;stroke:#008000;stroke-width:0.69886067;stroke-linecap:round;stroke-linejoin:round;stroke-miterlimit:4;stroke-dasharray:none"
       id="g2216"
       transform="matrix(0.71545019,0,0,0.71545019,-3.5087443,11.829154)">
      <path
         d="m 16.429303,-54.237343 -2.66699,7.006145 m 2.66699,-7.006145 2.66699,7.006145 m -4.33915,-2.328326 h 3.34432"
         style="stroke:#008000;stroke-width:0.698861;stroke-miterlimit:4;stroke-dasharray:none"
         id="path2166" />
      <path
         d="m 42.517953,-49.230837 v 7.006145 m 0,-7.006145 h 3.00565 l 0.99483,0.338666 0.33867,0.338666 0.33866,0.656164 v 0.677331 l -0.33866,0.656165 -0.33867,0.338666 -0.99483,0.338665 m -3.00565,0 h 3.00565 l 0.99483,0.328082 0.33867,0.328083 0.33866,0.677331 v 0.99483 l -0.33866,0.666748 -0.33867,0.333374 -0.99483,0.333374 h -3.00565"
         style="stroke:#008000;stroke-width:0.698861;stroke-miterlimit:4;stroke-dasharray:none"
         id="path2168" />
      <path
         d="m 78.963892,-28.465917 -0.33866,-0.666748 -0.66675,-0.666748 -0.66675,-0.338666 h -1.33349 l -0.66675,0.338666 -0.66675,0.666748 -0.33866,0.666748 -0.32809,0.99483 v 1.672161 l 0.32809,0.994831 0.33866,0.672039 0.66675,0.666748 0.66675,0.333374 h 1.33349 l 0.66675,-0.333374 0.66675,-0.666748 0.33866,-0.672039"
         style="stroke:#008000;stroke-width:0.698861;stroke-miterlimit:4;stroke-dasharray:none"
         id="path2170" />
      <path
         d="m 90.439302,-6.2800711 v 7.00614503 m 0,-7.00614503 h 2.33891 l 1.00541,0.338666 0.65616,0.666748 0.33867,0.666748 0.33866,0.99483 v 1.672161 l -0.33866,0.99483103 -0.33867,0.672039 -0.65616,0.666748 -1.00541,0.333374 h -2.33891"
         style="stroke:#008000;stroke-width:0.698861;stroke-miterlimit:4;stroke-dasharray:none"
         id="path2172" />
      <path
         d="m 98.019989,28.939789 v 7.006145 m 0,-7.006145 h 4.339151 m -4.339151,3.344323 h 2.666991 m -2.666991,3.661822 h 4.339151"
         style="stroke:#008000;stroke-width:0.698861;stroke-miterlimit:4;stroke-dasharray:none"
         id="path2174" />
      <path
         d="m 16.504939,-54.198592 0.779256,0.265279 0.530556,0.779255 0.256995,1.309814 v 0.779256 l -0.256995,1.309813 -0.530556,0.783401 -0.779256,0.261134 H 15.98267 l -0.787544,-0.261134 -0.513973,-0.783401 -0.265282,-1.309813 v -0.779256 l 0.265282,-1.309814 0.513973,-0.779255 0.787544,-0.265279 h 0.522269"
         style="stroke:#800080;stroke-width:0.698861;stroke-miterlimit:4;stroke-dasharray:none"
         id="path2176" />
      <g
         id="g2538"
         style="stroke:#800080;stroke-width:0.892194;stroke-miterlimit:4;stroke-dasharray:none"
         transform="matrix(-0.7714054,-0.13601958,-0.13601958,0.7714054,-61.595737,-4.1062337)">
        <path
           d="m -111.2184,-80.116024 0.65616,-0.328082 1.00542,-1.005414 v 7.006145"
           style="stroke:#800080;stroke-width:0.892194;stroke-miterlimit:4;stroke-dasharray:none"
           id="path2178" />
        <path
           d="m -103.55607,-81.44952 -0.99483,0.338666 -0.67733,0.99483 -0.32809,1.672162 v 0.99483 l 0.32809,1.672161 0.67733,1.000122 0.99483,0.333374 h 0.66675 l 1.00541,-0.333374 0.65616,-1.000122 0.33867,-1.672161 v -0.99483 l -0.33867,-1.672162 -0.65616,-0.99483 -1.00541,-0.338666 h -0.66675"
           style="stroke:#800080;stroke-width:0.892194;stroke-miterlimit:4;stroke-dasharray:none"
           id="path2180" />
      </g>
      <g
         id="g2534"
         style="stroke:#800080;stroke-width:0.892194"
         transform="matrix(-0.73606647,-0.26790628,-0.26790628,0.73606647,-41.786287,-12.534839)">
        <path
           d="m -94.560334,-79.777358 v -0.338666 l 0.338666,-0.656164 0.338665,-0.338666 0.656165,-0.338666 h 1.333496 l 0.677331,0.338666 0.328082,0.338666 0.328082,0.656164 v 0.677331 l -0.328082,0.656165 -0.666748,1.005413 -3.333739,3.33374 h 4.667235"
           style="stroke:#800080;stroke-width:0.892195;stroke-miterlimit:4;stroke-dasharray:none"
           id="path2182" />
        <path
           d="m -86.220673,-81.44952 -0.99483,0.338666 -0.677331,0.99483 -0.328082,1.672162 v 0.99483 l 0.328082,1.672161 0.677331,1.000122 0.99483,0.333374 h 0.666748 l 1.005414,-0.333374 0.656164,-1.000122 0.338666,-1.672161 v -0.99483 l -0.338666,-1.672162 -0.656164,-0.99483 -1.005414,-0.338666 h -0.666748"
           style="stroke:#800080;stroke-width:0.892195;stroke-miterlimit:4;stroke-dasharray:none"
           id="path2184" />
      </g>
      <g
         id="g2530"
         style="stroke:#800080;stroke-width:0.892194"
         transform="matrix(-0.67836253,-0.39165278,-0.39165278,0.67836253,-20.76652,-15.079708)">
        <path
           d="m -76.886168,-81.44952 h 3.661821 l -1.98966,2.666992 h 0.99483 l 0.666748,0.338666 0.328082,0.338665 0.338666,0.99483 v 0.666748 l -0.338666,1.000122 -0.656164,0.666748 -1.005414,0.333374 h -1.005413 l -0.99483,-0.333374 -0.338666,-0.333374 -0.328082,-0.666748"
           style="stroke:#800080;stroke-width:0.892195;stroke-miterlimit:4;stroke-dasharray:none"
           id="path2186" />
        <path
           d="m -68.884973,-81.44952 -0.99483,0.338666 -0.677331,0.99483 -0.328082,1.672162 v 0.99483 l 0.328082,1.672161 0.677331,1.000122 0.99483,0.333374 h 0.666748 l 1.005414,-0.333374 0.656164,-1.000122 0.338666,-1.672161 v -0.99483 l -0.338666,-1.672162 -0.656164,-0.99483 -1.005414,-0.338666 h -0.666748"
           style="stroke:#800080;stroke-width:0.892195;stroke-miterlimit:4;stroke-dasharray:none"
           id="path2188" />
      </g>
      <g
         id="g2526"
         style="stroke:#800080;stroke-width:0.892194"
         transform="matrix(-0.60004689,-0.50349911,-0.50349911,0.60004689,-1.3988491,-11.899085)">
        <path
           d="m -56.883477,-81.44952 -3.333739,4.677819 h 5.005901 m -1.672162,-4.677819 v 7.006145"
           style="stroke:#800080;stroke-width:0.892195;stroke-miterlimit:4;stroke-dasharray:none"
           id="path2190" />
        <path
           d="m -51.549973,-81.44952 -0.99483,0.338666 -0.677331,0.99483 -0.328082,1.672162 v 0.99483 l 0.328082,1.672161 0.677331,1.000122 0.99483,0.333374 h 0.666748 l 1.005414,-0.333374 0.656164,-1.000122 0.338666,-1.672161 v -0.99483 l -0.338666,-1.672162 -0.656164,-0.99483 -1.005414,-0.338666 h -0.666748"
           style="stroke:#800080;stroke-width:0.892195;stroke-miterlimit:4;stroke-dasharray:none"
           id="path2192" />
      </g>
      <g
         id="g2522"
         style="stroke:#800080;stroke-width:0.892194"
         transform="matrix(-0.50349913,-0.60004688,-0.60004688,0.50349913,14.910346,-4.0839442)">
        <path
           d="m -38.881729,-81.44952 h -3.333739 l -0.338666,3.005658 0.338666,-0.338666 0.99483,-0.328082 h 1.005413 l 1.005414,0.328082 0.656164,0.677331 0.338666,0.99483 v 0.666748 l -0.338666,1.000122 -0.656164,0.666748 -1.005414,0.333374 h -1.005413 l -0.99483,-0.333374 -0.338666,-0.333374 -0.328082,-0.666748"
           style="stroke:#800080;stroke-width:0.892195;stroke-miterlimit:4;stroke-dasharray:none"
           id="path2194" />
        <path
           d="m -34.213973,-81.44952 -0.99483,0.338666 -0.677331,0.99483 -0.328082,1.672162 v 0.99483 l 0.328082,1.672161 0.677331,1.000122 0.99483,0.333374 h 0.666748 l 1.005414,-0.333374 0.656164,-1.000122 0.338666,-1.672161 v -0.99483 l -0.338666,-1.672162 -0.656164,-0.99483 -1.005414,-0.338666 h -0.666748"
           style="stroke:#800080;stroke-width:0.892195;stroke-miterlimit:4;stroke-dasharray:none"
           id="path2196" />
      </g>
      <g
         id="g2518"
         style="stroke:#800080;stroke-width:0.892194"
         transform="matrix(-0.3916528,-0.67836253,-0.67836253,0.3916528,27.832417,8.0220073)">
        <path
           d="m -21.217647,-80.444106 -0.328082,-0.666748 -1.005413,-0.338666 h -0.656165 l -1.005413,0.338666 -0.666748,0.99483 -0.338666,1.672162 v 1.672161 l 0.338666,1.328204 0.666748,0.666748 1.005413,0.333374 h 0.328082 l 1.005414,-0.333374 0.656164,-0.666748 0.338666,-1.000122 v -0.328082 l -0.338666,-1.005414 -0.656164,-0.666747 -1.005414,-0.338666 h -0.328082 l -1.005413,0.338666 -0.666748,0.666747 -0.338666,1.005414"
           style="stroke:#800080;stroke-width:0.892195;stroke-miterlimit:4;stroke-dasharray:none"
           id="path2198" />
        <path
           d="m -16.878973,-81.44952 -0.99483,0.338666 -0.677331,0.99483 -0.328082,1.672162 v 0.99483 l 0.328082,1.672161 0.677331,1.000122 0.99483,0.333374 h 0.666748 l 1.005414,-0.333374 0.656164,-1.000122 0.338666,-1.672161 v -0.99483 l -0.338666,-1.672162 -0.656164,-0.99483 -1.005414,-0.338666 h -0.666748"
           style="stroke:#800080;stroke-width:0.892195;stroke-miterlimit:4;stroke-dasharray:none"
           id="path2200" />
      </g>
      <g
         id="g2514"
         style="stroke:#800080;stroke-width:0.892194"
         transform="matrix(-0.2679063,-0.73606647,-0.73606647,0.2679063,36.53258,22.992831)">
        <path
           d="m -3.543981,-81.44952 -3.3337395,7.006145 m -1.3334958,-7.006145 h 4.6672353"
           style="stroke:#800080;stroke-width:0.892195;stroke-miterlimit:4;stroke-dasharray:none"
           id="path2202" />
        <path
           d="m 0.4570274,-81.44952 -0.9948302,0.338666 -0.6773312,0.99483 -0.3280823,1.672162 v 0.99483 l 0.3280823,1.672161 0.6773312,1.000122 0.9948302,0.333374 h 0.6667479 l 1.0054135,-0.333374 0.6561646,-1.000122 0.3386656,-1.672161 v -0.99483 L 2.7853534,-80.116024 2.1291888,-81.110854 1.1237753,-81.44952 H 0.4570274"
           style="stroke:#800080;stroke-width:0.892195;stroke-miterlimit:4;stroke-dasharray:none"
           id="path2204" />
      </g>
      <g
         id="g2510"
         style="stroke:#800080;stroke-width:0.892194"
         transform="matrix(-0.1360196,-0.77140541,-0.77140541,0.1360196,40.842045,40.068449)">
        <path
           d="m 10.785362,-81.44952 -0.9948304,0.338666 -0.3386656,0.666748 v 0.666748 l 0.3386656,0.666748 0.6667484,0.328082 1.333495,0.338666 1.005414,0.338665 0.656164,0.656165 0.338666,0.677331 v 0.99483 l -0.338666,0.666748 -0.328082,0.333374 -1.005413,0.333374 H 10.785362 L 9.7905316,-74.776749 9.451866,-75.110123 9.1237837,-75.776871 v -0.99483 l 0.3280823,-0.677331 0.677331,-0.656165 0.99483,-0.338665 1.333496,-0.338666 0.666748,-0.328082 0.328082,-0.666748 v -0.666748 l -0.328082,-0.666748 -1.005413,-0.338666 h -1.333496"
           style="stroke:#800080;stroke-width:0.892195;stroke-miterlimit:4;stroke-dasharray:none"
           id="path2206" />
        <path
           d="m 17.792027,-81.44952 -0.99483,0.338666 -0.677331,0.99483 -0.328082,1.672162 v 0.99483 l 0.328082,1.672161 0.677331,1.000122 0.99483,0.333374 h 0.666748 l 1.005414,-0.333374 0.656164,-1.000122 0.338666,-1.672161 v -0.99483 l -0.338666,-1.672162 -0.656164,-0.99483 -1.005414,-0.338666 h -0.666748"
           style="stroke:#800080;stroke-width:0.892195;stroke-miterlimit:4;stroke-dasharray:none"
           id="path2208" />
      </g>
      <g
         id="g2506"
         style="stroke:#800080;stroke-width:0.892194"
         transform="matrix(0,-0.78330557,-0.78330557,0,39.009126,57.724184)">
        <path
           d="m 30.788353,-79.11061 -0.328082,1.005413 -0.666748,0.656165 -0.99483,0.338665 h -0.338666 l -0.99483,-0.338665 -0.677331,-0.656165 -0.328082,-1.005413 v -0.328083 l 0.328082,-1.005413 0.677331,-0.666748 0.99483,-0.338666 h 0.338666 l 0.99483,0.338666 0.666748,0.666748 0.328082,1.333496 v 1.661578 l -0.328082,1.672161 -0.666748,1.000122 -0.99483,0.333374 h -0.677331 l -0.99483,-0.333374 -0.338666,-0.666748"
           style="stroke:#800080;stroke-width:0.892195;stroke-miterlimit:4;stroke-dasharray:none"
           id="path2210" />
        <path
           d="m 35.127027,-81.44952 -0.99483,0.338666 -0.677331,0.99483 -0.328082,1.672162 v 0.99483 l 0.328082,1.672161 0.677331,1.000122 0.99483,0.333374 h 0.666748 l 1.005414,-0.333374 0.656164,-1.000122 0.338666,-1.672161 v -0.99483 l -0.338666,-1.672162 -0.656164,-0.99483 -1.005414,-0.338666 h -0.666748"
           style="stroke:#800080;stroke-width:0.892195;stroke-miterlimit:4;stroke-dasharray:none"
           id="path2212" />
      </g>
    </g>
    <rect
       style="fill:#00ff00;stroke:#000000;stroke-width:0.1;stroke-miterlimit:4;stroke-dasharray:none"
       id="rect914"
       width="3"
       height="3"
       x="8.0434418"
       y="-38.261551"
       transform="rotate(5)" />
    <circle
       style="fill:none;stroke:#ff8080;stroke-width:0.2"
       id="circle2853"
       cx="7"
       cy="35"
       r="0.32914838" />
    <rect
       style="fill:none;stroke:#000080;stroke-width:0.200002"
       id="rect2953"
       width="2.7483115"
       height="3.2402041"
       x="11.230216"
       y="-33.044262"
       inkscape:transform-center-y="-64.483678"
       inkscape:transform-center-x="-9.491664"
       ry="0.49999025"
       rx="0.4999868"
       transform="matrix(0.99098261,0.13399054,-0.12731674,0.99186211,0,0)" />
    <rect
       style="fill:none;stroke:#000080;stroke-width:0.200002"
       id="rect2955"
       width="2.7483115"
       height="3.2402041"
       x="14.135212"
       y="-34.186077"
       inkscape:transform-center-y="-63.411046"
       inkscape:transform-center-x="-15.075668"
       ry="0.49999025"
       rx="0.4999868"
       transform="matrix(0.97553358,0.21985049,-0.21327874,0.97699139,0,0)" />
    <rect
       style="fill:none;stroke:#000080;stroke-width:0.200002"
       id="rect2957"
       width="2.7483115"
       height="3.2402041"
       x="16.931339"
       y="-35.576069"
       inkscape:transform-center-y="-61.855817"
       inkscape:transform-center-x="-20.544937"
       ry="0.49999025"
       rx="0.4999868"
       transform="matrix(0.95266015,0.30403725,-0.29761756,0.95468518,0,0)" />
    <rect
       style="fill:none;stroke:#000080;stroke-width:0.200002"
       id="rect2959"
       width="2.7483115"
       height="3.2402041"
       x="19.597319"
       y="-37.203659"
       inkscape:transform-center-y="-59.829827"
       inkscape:transform-center-x="-25.857846"
       ry="0.49999025"
       rx="0.4999868"
       transform="matrix(0.92253639,0.3859101,-0.37969133,0.92511323,0,0)" />
    <rect
       style="fill:none;stroke:#000080;stroke-width:0.200002"
       id="rect2961"
       width="2.7483115"
       height="3.2402041"
       x="22.112862"
       y="-39.056461"
       inkscape:transform-center-y="-57.348495"
       inkscape:transform-center-x="-30.973962"
       ry="0.49999025"
       rx="0.4999868"
       transform="matrix(0.88539158,0.46484594,-0.45887542,0.88850062,0,0)" />
    <rect
       style="fill:none;stroke:#000080;stroke-width:0.200002"
       id="rect2963"
       width="2.7483115"
       height="3.2402041"
       x="24.45882"
       y="-41.120377"
       inkscape:transform-center-y="-54.430709"
       inkscape:transform-center-x="-35.854347"
       ry="0.49999025"
       rx="0.4999868"
       transform="matrix(0.84150841,0.54024402,-0.53456719,0.84512598,0,0)" />
    <rect
       style="fill:none;stroke:#000080;stroke-width:0.200002"
       id="rect2965"
       width="2.7483115"
       height="3.2402041"
       x="26.617344"
       y="-43.379696"
       inkscape:transform-center-y="-51.098671"
       inkscape:transform-center-x="-40.46186"
       ry="0.49999025"
       rx="0.4999868"
       transform="matrix(0.79122085,0.61153052,-0.60619058,0.79531942,0,0)" />
    <rect
       style="fill:none;stroke:#000080;stroke-width:0.200002"
       id="rect2967"
       width="2.7483115"
       height="3.2402041"
       x="28.572002"
       y="-45.817223"
       inkscape:transform-center-y="-47.377741"
       inkscape:transform-center-x="-44.761433"
       ry="0.49999025"
       rx="0.4999868"
       transform="matrix(0.73491162,0.6781629,-0.6732005,0.73946,0,0)" />
    <rect
       style="fill:none;stroke:#000080;stroke-width:0.200002"
       id="rect2969"
       width="2.7483115"
       height="3.2402041"
       x="30.30792"
       y="-48.41441"
       inkscape:transform-center-y="-43.296239"
       inkscape:transform-center-x="-48.720346"
       ry="0.49999025"
       rx="0.4999868"
       transform="matrix(0.67300927,0.73963405,-0.73508695,0.67797284,0,0)" />
    <rect
       style="fill:none;stroke:#000080;stroke-width:0.200002"
       id="rect2971"
       width="2.7483115"
       height="3.2402041"
       x="31.811886"
       y="-51.151485"
       inkscape:transform-center-y="-38.885225"
       inkscape:transform-center-x="-52.308465"
       ry="0.49999025"
       rx="0.4999868"
       transform="matrix(0.60598491,0.79547614,-0.79137895,0.6113259,0,0)" />
    <rect
       style="fill:none;stroke:#000080;stroke-width:0.200002"
       id="rect2973"
       width="2.7483115"
       height="3.2402041"
       x="33.072453"
       y="-54.007626"
       inkscape:transform-center-y="-34.178273"
       inkscape:transform-center-x="-55.498487"
       ry="0.49999025"
       rx="0.4999868"
       transform="matrix(0.53434864,0.84526418,-0.84164808,0.5400264,0,0)" />
    <rect
       style="fill:none;stroke:#000080;stroke-width:0.200002"
       id="rect2975"
       width="2.7483115"
       height="3.2402041"
       x="34.080029"
       y="-56.961086"
       inkscape:transform-center-y="-29.211201"
       inkscape:transform-center-x="-58.26613"
       ry="0.49999025"
       rx="0.4999868"
       transform="matrix(0.45864565,0.88861925,-0.88551176,0.46461697,0,0)" />
    <rect
       style="fill:none;stroke:#000080;stroke-width:0.200002"
       id="rect2977"
       width="2.7483115"
       height="3.2402041"
       x="34.826942"
       y="-59.989395"
       inkscape:transform-center-y="-24.021817"
       inkscape:transform-center-x="-60.590332"
       ry="0.49999025"
       rx="0.4999868"
       transform="matrix(0.37945209,0.92521139,-0.92263615,0.38567153,0,0)" />
    <rect
       style="fill:none;stroke:#000080;stroke-width:0.200002"
       id="rect2979"
       width="2.7483115"
       height="3.2402041"
       x="35.307514"
       y="-63.069504"
       inkscape:transform-center-y="-18.649611"
       inkscape:transform-center-x="-62.453408"
       ry="0.49999025"
       rx="0.4999868"
       transform="matrix(0.29737067,0.95476211,-0.95273873,0.3037909,0,0)" />
    <rect
       style="fill:none;stroke:#000080;stroke-width:0.200002"
       id="rect2981"
       width="2.7483115"
       height="3.2402041"
       x="35.518082"
       y="-66.177971"
       inkscape:transform-center-y="-13.135472"
       inkscape:transform-center-x="-63.841175"
       ry="0.49999025"
       rx="0.4999868"
       transform="matrix(0.21302608,0.97704651,-0.97559039,0.21959823,0,0)" />
    <rect
       style="fill:none;stroke:#000080;stroke-width:0.200002"
       id="rect2983"
       width="2.7483115"
       height="3.2402041"
       x="35.457047"
       y="-69.291138"
       inkscape:transform-center-y="-7.5213626"
       inkscape:transform-center-x="-64.743073"
       ry="0.49999025"
       rx="0.4999868"
       transform="matrix(0.12706024,0.991895,-0.99101722,0.13373429,0,0)" />
    <rect
       style="fill:none;stroke:#000080;stroke-width:0.200002"
       id="rect2985"
       width="2.7483115"
       height="3.2402041"
       x="35.12487"
       y="-72.385307"
       inkscape:transform-center-y="-1.8500117"
       inkscape:transform-center-x="-65.152233"
       ry="0.49999025"
       rx="0.4999868"
       transform="matrix(0.04012739,0.99919457,-0.99890182,0.04685255,0,0)" />
    <rect
       style="fill:none;stroke:#000080;stroke-width:0.200004"
       id="rect2987"
       width="2.7483873"
       height="7.6101246"
       x="34.391247"
       y="-79.979111"
       inkscape:transform-center-y="3.9239733"
       inkscape:transform-center-x="-67.256588"
       ry="0.49998853"
       rx="0.49992454"
       transform="matrix(-0.05181861,0.99865651,-0.99910738,-0.04224265,0,0)" />
    <rect
       style="fill:none;stroke:#000080;stroke-width:0.200003"
       id="rect3402"
       width="2.748348"
       height="5.7774253"
       x="5.1319785"
       y="-34.091293"
       inkscape:transform-center-y="-66.412682"
       inkscape:transform-center-x="1.9259763"
       ry="0.49998826"
       rx="0.49992153"
       transform="matrix(0.99930065,-0.03739268,0.04543273,0.9989674,0,0)" />
  </g>
</svg>
