  0
SECTION
  2
HEADER
  9
$ACADVER
  1
AC1014
  9
$HANDSEED
  5
FFFF
  9
$MEASUREMENT
 70
     1
  0
ENDSEC
  0
SECTION
  2
TABLES
  0
TABLE
  2
VPORT
  5
8
330
0
100
AcDbSymbolTable
 70
     4
  0
VPORT
  5
2E
330
8
100
AcDbSymbolTableRecord
100
AcDbViewportTableRecord
  2
*ACTIVE
 70
     0
 10
0.0
 20
0.0
 11
1.0
 21
1.0
 12
210.0
 22
148.5
 13
0.0
 23
0.0
 14
10.0
 24
10.0
 15
10.0
 25
10.0
 16
0.0
 26
0.0
 36
1.0
 17
0.0
 27
0.0
 37
0.0
 40
341.0
 41
1.24
 42
50.0
 43
0.0
 44
0.0
 50
0.0
 51
0.0
 71
     0
 72
   100
 73
     1
 74
     3
 75
     0
 76
     0
 77
     0
 78
     0
  0
ENDTAB
  0
TABLE
  2
LTYPE
  5
5
330
0
100
AcDbSymbolTable
 70
     1
  0
LTYPE
  5
14
330
5
100
AcDbSymbolTableRecord
100
AcDbLinetypeTableRecord
  2
BYBLOCK
 70
     0
  3

 72
    65
 73
     0
 40
0.0
  0
LTYPE
  5
15
330
5
100
AcDbSymbolTableRecord
100
AcDbLinetypeTableRecord
  2
BYLAYER
 70
     0
  3

 72
    65
 73
     0
 40
0.0
  0
LTYPE
  5
16
330
5
100
AcDbSymbolTableRecord
100
AcDbLinetypeTableRecord
  2
CONTINUOUS
 70
     0
  3
Solid line
 72
    65
 73
     0
 40
0.0
  0
ENDTAB
  0
TABLE
  2
LAYER
  5
2
100
AcDbSymbolTable
 70
2
  0
LAYER
  5
50
100
AcDbSymbolTableRecord
100
AcDbLayerTableRecord
  2
0
 70
0
  6
CONTINUOUS
  0
LAYER
  5
51
100
AcDbSymbolTableRecord
100
AcDbLayerTableRecord
  2
Layer_1
 70
0
  6
CONTINUOUS
  0
ENDTAB
  0
TABLE
  2
STYLE
  5
3
330
0
100
AcDbSymbolTable
 70
     1
  0
STYLE
  5
11
330
3
100
AcDbSymbolTableRecord
100
AcDbTextStyleTableRecord
  2
STANDARD
 70
     0
 40
0.0
 41
1.0
 50
0.0
 71
     0
 42
2.5
  3
txt
  4

  0
ENDTAB
  0
TABLE
  2
VIEW
  5
6
330
0
100
AcDbSymbolTable
 70
     0
  0
ENDTAB
  0
TABLE
  2
UCS
  5
7
330
0
100
AcDbSymbolTable
 70
     0
  0
ENDTAB
  0
TABLE
  2
APPID
  5
9
330
0
100
AcDbSymbolTable
 70
     2
  0
APPID
  5
12
330
9
100
AcDbSymbolTableRecord
100
AcDbRegAppTableRecord
  2
ACAD
 70
     0
  0
ENDTAB
  0
TABLE
  2
DIMSTYLE
  5
A
330
0
100
AcDbSymbolTable
 70
     1
  0
DIMSTYLE
105
27
330
A
100
AcDbSymbolTableRecord
100
AcDbDimStyleTableRecord
  2
ISO-25
 70
     0
  3

  4

  5

  6

  7

 40
1.0
 41
2.5
 42
0.625
 43
3.75
 44
1.25
 45
0.0
 46
0.0
 47
0.0
 48
0.0
140
2.5
141
2.5
142
0.0
143
0.03937007874016
144
1.0
145
0.0
146
1.0
147
0.625
 71
     0
 72
     0
 73
     0
 74
     0
 75
     0
 76
     0
 77
     1
 78
     8
170
     0
171
     3
172
     1
173
     0
174
     0
175
     0
176
     0
177
     0
178
     0
270
     2
271
     2
272
     2
273
     2
274
     3
340
11
275
     0
280
     0
281
     0
282
     0
283
     0
284
     8
285
     0
286
     0
287
     3
288
     0
  0
ENDTAB
  0
TABLE
  2
BLOCK_RECORD
  5
1
330
0
100
AcDbSymbolTable
 70
     1
  0
BLOCK_RECORD
  5
1F
330
1
100
AcDbSymbolTableRecord
100
AcDbBlockTableRecord
  2
*MODEL_SPACE
  0
BLOCK_RECORD
  5
1B
330
1
100
AcDbSymbolTableRecord
100
AcDbBlockTableRecord
  2
*PAPER_SPACE
  0
ENDTAB
  0
ENDSEC
  0
SECTION
  2
BLOCKS
  0
BLOCK
  5
20
330
1F
100
AcDbEntity
  8
0
100
AcDbBlockBegin
  2
*MODEL_SPACE
 70
     0
 10
0.0
 20
0.0
 30
0.0
  3
*MODEL_SPACE
  1

  0
ENDBLK
  5
21
330
1F
100
AcDbEntity
  8
0
100
AcDbBlockEnd
  0
BLOCK
  5
1C
330
1B
100
AcDbEntity
 67
     1
  8
0
100
AcDbBlockBegin
  2
*PAPER_SPACE
  1

  0
ENDBLK
  5
1D
330
1B
100
AcDbEntity
 67
     1
  8
0
100
AcDbBlockEnd
  0
ENDSEC
  0
SECTION
  2
ENTITIES
  0
LWPOLYLINE
  5
100
100
AcDbEntity
  8
Layer_1
 62
7
100
AcDbPolyline
 90
45
 70
1
 10
0.100252
 20
70.099664
 30
0.0
 10
0.100252
 20
64.099974
 30
0.0
 10
3.100069
 20
64.099974
 30
0.0
 10
3.100069
 20
51.099675
 30
0.0
 10
0.100252
 20
51.099675
 30
0.0
 10
0.100252
 20
45.099985
 30
0.0
 10
3.100069
 20
45.099985
 30
0.0
 10
24.099804
 20
45.099985
 30
0.0
 10
24.099804
 20
7.254790
 30
0.0
 10
3.100069
 20
7.254790
 30
0.0
 10
3.100069
 20
6.101207
 30
0.0
 10
0.100252
 20
6.101207
 30
0.0
 10
0.100252
 20
0.100458
 30
0.0
 10
102.100034
 20
0.100458
 30
0.0
 10
102.100034
 20
6.101207
 30
0.0
 10
99.099924
 20
6.101207
 30
0.0
 10
99.099924
 20
7.254790
 30
0.0
 10
78.099951
 20
7.254790
 30
0.0
 10
78.099951
 20
45.099985
 30
0.0
 10
99.099924
 20
45.099985
 30
0.0
 10
102.100034
 20
45.099985
 30
0.0
 10
102.100034
 20
51.099675
 30
0.0
 10
99.099924
 20
51.099675
 30
0.0
 10
99.099924
 20
64.099974
 30
0.0
 10
102.100034
 20
64.099974
 30
0.0
 10
102.100034
 20
70.099664
 30
0.0
 10
99.099924
 20
70.099664
 30
0.0
 10
76.422229
 20
70.099664
 30
0.0
 10
76.411910
 20
69.998328
 30
0.0
 10
76.353437
 20
69.810210
 30
0.0
 10
76.139389
 20
69.492445
 30
0.0
 10
75.822154
 20
69.278397
 30
0.0
 10
75.634035
 20
69.220453
 30
0.0
 10
75.432158
 20
69.199816
 30
0.0
 10
72.432313
 20
69.199816
 30
0.0
 10
72.230171
 20
69.220453
 30
0.0
 10
72.042053
 20
69.278397
 30
0.0
 10
71.724817
 20
69.492445
 30
0.0
 10
71.510770
 20
69.810210
 30
0.0
 10
71.452297
 20
69.998328
 30
0.0
 10
71.441978
 20
70.099664
 30
0.0
 10
24.099804
 20
70.099664
 30
0.0
 10
3.100069
 20
70.099664
 30
0.0
 10
0.100252
 20
70.099664
 30
0.0
 10
0.100252
 20
70.099664
 30
0.0
  0
LWPOLYLINE
  5
101
100
AcDbEntity
  8
Layer_1
 62
7
100
AcDbPolyline
 90
35
 70
1
 10
44.900208
 20
59.099879
 30
0.0
 10
45.202362
 20
59.069452
 30
0.0
 10
45.483878
 20
58.981875
 30
0.0
 10
45.738407
 20
58.843763
 30
0.0
 10
45.960393
 20
58.660406
 30
0.0
 10
46.143484
 20
58.438686
 30
0.0
 10
46.281861
 20
58.183892
 30
0.0
 10
46.369174
 20
57.902375
 30
0.0
 10
46.399866
 20
57.600221
 30
0.0
 10
46.369439
 20
57.297803
 30
0.0
 10
46.281861
 20
57.016286
 30
0.0
 10
46.143749
 20
56.761492
 30
0.0
 10
45.960657
 20
56.539507
 30
0.0
 10
45.738672
 20
56.356415
 30
0.0
 10
45.483878
 20
56.218038
 30
0.0
 10
45.202362
 20
56.130461
 30
0.0
 10
44.900208
 20
56.100034
 30
0.0
 10
44.605991
 20
56.129138
 30
0.0
 10
44.326062
 20
56.214070
 30
0.0
 10
44.067829
 20
56.351918
 30
0.0
 10
43.839229
 20
56.539507
 30
0.0
 10
43.651904
 20
56.767842
 30
0.0
 10
43.514056
 20
57.026076
 30
0.0
 10
43.429125
 20
57.306269
 30
0.0
 10
43.400021
 20
57.600221
 30
0.0
 10
43.430448
 20
57.902375
 30
0.0
 10
43.518025
 20
58.183892
 30
0.0
 10
43.656402
 20
58.438686
 30
0.0
 10
43.839493
 20
58.660671
 30
0.0
 10
44.061479
 20
58.843763
 30
0.0
 10
44.316272
 20
58.982140
 30
0.0
 10
44.597789
 20
59.069452
 30
0.0
 10
44.900208
 20
59.099879
 30
0.0
 10
44.900208
 20
59.099879
 30
0.0
 10
44.900208
 20
59.099879
 30
0.0
  0
LWPOLYLINE
  5
102
100
AcDbEntity
  8
Layer_1
 62
7
100
AcDbPolyline
 90
27
 70
1
 10
72.432313
 20
45.199998
 30
0.0
 10
75.432158
 20
45.199998
 30
0.0
 10
75.634035
 20
45.179889
 30
0.0
 10
75.822154
 20
45.121681
 30
0.0
 10
76.139654
 20
44.907898
 30
0.0
 10
76.353701
 20
44.590133
 30
0.0
 10
76.411645
 20
44.402015
 30
0.0
 10
76.432018
 20
44.200138
 30
0.0
 10
76.411645
 20
43.997996
 30
0.0
 10
76.353701
 20
43.810142
 30
0.0
 10
76.139654
 20
43.492377
 30
0.0
 10
75.822154
 20
43.278594
 30
0.0
 10
75.634035
 20
43.220386
 30
0.0
 10
75.432158
 20
43.200277
 30
0.0
 10
72.432313
 20
43.200277
 30
0.0
 10
72.230171
 20
43.220386
 30
0.0
 10
72.042317
 20
43.278594
 30
0.0
 10
71.724553
 20
43.492377
 30
0.0
 10
71.510770
 20
43.810142
 30
0.0
 10
71.452561
 20
43.997996
 30
0.0
 10
71.432188
 20
44.200138
 30
0.0
 10
71.452561
 20
44.402015
 30
0.0
 10
71.510770
 20
44.590133
 30
0.0
 10
71.724553
 20
44.907898
 30
0.0
 10
72.042317
 20
45.121681
 30
0.0
 10
72.230171
 20
45.179889
 30
0.0
 10
72.432313
 20
45.199998
 30
0.0
  0
LWPOLYLINE
  5
103
100
AcDbEntity
  8
Layer_1
 62
7
100
AcDbPolyline
 90
79
 70
1
 10
37.100129
 20
30.699512
 30
0.0
 10
65.099917
 20
30.699512
 30
0.0
 10
65.503936
 20
30.659825
 30
0.0
 10
65.879909
 20
30.543408
 30
0.0
 10
66.219634
 20
30.360846
 30
0.0
 10
66.515438
 20
30.114783
 30
0.0
 10
66.759119
 20
29.821096
 30
0.0
 10
66.943004
 20
29.479783
 30
0.0
 10
67.059156
 20
29.104075
 30
0.0
 10
67.099637
 20
28.699263
 30
0.0
 10
67.099637
 20
26.198951
 30
0.0
 10
69.599949
 20
26.198951
 30
0.0
 10
70.003968
 20
26.159263
 30
0.0
 10
70.379676
 20
26.042847
 30
0.0
 10
70.719666
 20
25.860284
 30
0.0
 10
71.015205
 20
25.616868
 30
0.0
 10
71.259151
 20
25.320535
 30
0.0
 10
71.443036
 20
24.979222
 30
0.0
 10
71.559188
 20
24.603514
 30
0.0
 10
71.599669
 20
24.201347
 30
0.0
 10
71.599669
 20
9.199477
 30
0.0
 10
71.559188
 20
8.797310
 30
0.0
 10
71.443036
 20
8.418956
 30
0.0
 10
71.259151
 20
8.080289
 30
0.0
 10
71.015205
 20
7.783956
 30
0.0
 10
70.719666
 20
7.540540
 30
0.0
 10
70.379676
 20
7.357977
 30
0.0
 10
70.003968
 20
7.241560
 30
0.0
 10
69.599949
 20
7.199227
 30
0.0
 10
67.099637
 20
7.199227
 30
0.0
 10
67.099637
 20
4.698915
 30
0.0
 10
67.059156
 20
4.296749
 30
0.0
 10
66.943004
 20
3.921041
 30
0.0
 10
66.759119
 20
3.579728
 30
0.0
 10
66.515438
 20
3.286041
 30
0.0
 10
66.219634
 20
3.039978
 30
0.0
 10
65.879909
 20
2.857416
 30
0.0
 10
65.503936
 20
2.740999
 30
0.0
 10
65.099917
 20
2.701312
 30
0.0
 10
37.100129
 20
2.701312
 30
0.0
 10
36.696111
 20
2.740999
 30
0.0
 10
36.320138
 20
2.857416
 30
0.0
 10
35.980413
 20
3.039978
 30
0.0
 10
35.684609
 20
3.286041
 30
0.0
 10
35.440928
 20
3.579728
 30
0.0
 10
35.256778
 20
3.921041
 30
0.0
 10
35.140626
 20
4.296749
 30
0.0
 10
35.100144
 20
4.698915
 30
0.0
 10
35.100144
 20
7.199227
 30
0.0
 10
32.600097
 20
7.199227
 30
0.0
 10
32.196078
 20
7.241560
 30
0.0
 10
31.820106
 20
7.357977
 30
0.0
 10
31.480381
 20
7.540540
 30
0.0
 10
31.184577
 20
7.783956
 30
0.0
 10
30.940895
 20
8.080289
 30
0.0
 10
30.756746
 20
8.418956
 30
0.0
 10
30.640593
 20
8.797310
 30
0.0
 10
30.600112
 20
9.199477
 30
0.0
 10
30.600112
 20
24.201347
 30
0.0
 10
30.640593
 20
24.603514
 30
0.0
 10
30.756746
 20
24.979222
 30
0.0
 10
30.940895
 20
25.320535
 30
0.0
 10
31.184577
 20
25.616868
 30
0.0
 10
31.480381
 20
25.860284
 30
0.0
 10
31.820106
 20
26.042847
 30
0.0
 10
32.196078
 20
26.159263
 30
0.0
 10
32.600097
 20
26.198951
 30
0.0
 10
35.100144
 20
26.198951
 30
0.0
 10
35.100144
 20
28.699263
 30
0.0
 10
35.140626
 20
29.104075
 30
0.0
 10
35.256778
 20
29.479783
 30
0.0
 10
35.440928
 20
29.821096
 30
0.0
 10
35.684609
 20
30.114783
 30
0.0
 10
35.980413
 20
30.360846
 30
0.0
 10
36.320138
 20
30.543408
 30
0.0
 10
36.696111
 20
30.659825
 30
0.0
 10
37.100129
 20
30.699512
 30
0.0
 10
37.100129
 20
30.699512
 30
0.0
 10
37.100129
 20
30.699512
 30
0.0
  0
LWPOLYLINE
  5
104
100
AcDbEntity
  8
Layer_1
 62
7
100
AcDbPolyline
 90
27
 70
1
 10
32.099770
 20
30.199450
 30
0.0
 10
32.301383
 20
30.180929
 30
0.0
 10
32.488972
 20
30.120075
 30
0.0
 10
32.807001
 20
29.905762
 30
0.0
 10
33.021314
 20
29.588263
 30
0.0
 10
33.079522
 20
29.400408
 30
0.0
 10
33.099895
 20
29.199325
 30
0.0
 10
33.079522
 20
28.998242
 30
0.0
 10
33.021314
 20
28.810388
 30
0.0
 10
32.807001
 20
28.492888
 30
0.0
 10
32.488972
 20
28.278575
 30
0.0
 10
32.301383
 20
28.220367
 30
0.0
 10
32.099770
 20
28.199200
 30
0.0
 10
31.898422
 20
28.220367
 30
0.0
 10
31.710568
 20
28.278575
 30
0.0
 10
31.392804
 20
28.492888
 30
0.0
 10
31.178491
 20
28.810388
 30
0.0
 10
31.120283
 20
28.998242
 30
0.0
 10
31.099910
 20
29.199325
 30
0.0
 10
31.120283
 20
29.400408
 30
0.0
 10
31.178491
 20
29.588263
 30
0.0
 10
31.392804
 20
29.905762
 30
0.0
 10
31.710568
 20
30.120075
 30
0.0
 10
31.898422
 20
30.180929
 30
0.0
 10
32.099770
 20
30.199450
 30
0.0
 10
32.099770
 20
30.199450
 30
0.0
 10
32.099770
 20
30.199450
 30
0.0
  0
LWPOLYLINE
  5
105
100
AcDbEntity
  8
Layer_1
 62
7
100
AcDbPolyline
 90
27
 70
1
 10
70.100012
 20
30.199450
 30
0.0
 10
70.301624
 20
30.180929
 30
0.0
 10
70.489214
 20
30.120075
 30
0.0
 10
70.807243
 20
29.905762
 30
0.0
 10
71.021555
 20
29.588263
 30
0.0
 10
71.079763
 20
29.400408
 30
0.0
 10
71.100136
 20
29.199325
 30
0.0
 10
71.079763
 20
28.998242
 30
0.0
 10
71.021555
 20
28.810388
 30
0.0
 10
70.807243
 20
28.492888
 30
0.0
 10
70.489214
 20
28.278575
 30
0.0
 10
70.301624
 20
28.220367
 30
0.0
 10
70.100012
 20
28.199200
 30
0.0
 10
69.898664
 20
28.220367
 30
0.0
 10
69.710810
 20
28.278575
 30
0.0
 10
69.393045
 20
28.492888
 30
0.0
 10
69.178733
 20
28.810388
 30
0.0
 10
69.120524
 20
28.998242
 30
0.0
 10
69.100151
 20
29.199325
 30
0.0
 10
69.120524
 20
29.400408
 30
0.0
 10
69.178733
 20
29.588263
 30
0.0
 10
69.393045
 20
29.905762
 30
0.0
 10
69.710810
 20
30.120075
 30
0.0
 10
69.898664
 20
30.180929
 30
0.0
 10
70.100012
 20
30.199450
 30
0.0
 10
70.100012
 20
30.199450
 30
0.0
 10
70.100012
 20
30.199450
 30
0.0
  0
LWPOLYLINE
  5
106
100
AcDbEntity
  8
Layer_1
 62
7
100
AcDbPolyline
 90
27
 70
1
 10
32.099770
 20
5.198978
 30
0.0
 10
32.301383
 20
5.180457
 30
0.0
 10
32.488972
 20
5.122249
 30
0.0
 10
32.807001
 20
4.907936
 30
0.0
 10
33.021314
 20
4.590436
 30
0.0
 10
33.079522
 20
4.402582
 30
0.0
 10
33.099895
 20
4.198853
 30
0.0
 10
33.079522
 20
3.997770
 30
0.0
 10
33.021314
 20
3.809916
 30
0.0
 10
32.807001
 20
3.492416
 30
0.0
 10
32.488972
 20
3.278103
 30
0.0
 10
32.301383
 20
3.219895
 30
0.0
 10
32.099770
 20
3.198728
 30
0.0
 10
31.898422
 20
3.219895
 30
0.0
 10
31.710568
 20
3.278103
 30
0.0
 10
31.392804
 20
3.492416
 30
0.0
 10
31.178491
 20
3.809916
 30
0.0
 10
31.120283
 20
3.997770
 30
0.0
 10
31.099910
 20
4.198853
 30
0.0
 10
31.120283
 20
4.402582
 30
0.0
 10
31.178491
 20
4.590436
 30
0.0
 10
31.392804
 20
4.907936
 30
0.0
 10
31.710568
 20
5.122249
 30
0.0
 10
31.898422
 20
5.180457
 30
0.0
 10
32.099770
 20
5.198978
 30
0.0
 10
32.099770
 20
5.198978
 30
0.0
 10
32.099770
 20
5.198978
 30
0.0
  0
LWPOLYLINE
  5
107
100
AcDbEntity
  8
Layer_1
 62
7
100
AcDbPolyline
 90
27
 70
1
 10
70.100012
 20
5.198978
 30
0.0
 10
70.301624
 20
5.180457
 30
0.0
 10
70.489214
 20
5.122249
 30
0.0
 10
70.807243
 20
4.907936
 30
0.0
 10
71.021555
 20
4.590436
 30
0.0
 10
71.079763
 20
4.402582
 30
0.0
 10
71.100136
 20
4.198853
 30
0.0
 10
71.079763
 20
3.997770
 30
0.0
 10
71.021555
 20
3.809916
 30
0.0
 10
70.807243
 20
3.492416
 30
0.0
 10
70.489214
 20
3.278103
 30
0.0
 10
70.301624
 20
3.219895
 30
0.0
 10
70.100012
 20
3.198728
 30
0.0
 10
69.898664
 20
3.219895
 30
0.0
 10
69.710810
 20
3.278103
 30
0.0
 10
69.393045
 20
3.492416
 30
0.0
 10
69.178733
 20
3.809916
 30
0.0
 10
69.120524
 20
3.997770
 30
0.0
 10
69.100151
 20
4.198853
 30
0.0
 10
69.120524
 20
4.402582
 30
0.0
 10
69.178733
 20
4.590436
 30
0.0
 10
69.393045
 20
4.907936
 30
0.0
 10
69.710810
 20
5.122249
 30
0.0
 10
69.898664
 20
5.180457
 30
0.0
 10
70.100012
 20
5.198978
 30
0.0
 10
70.100012
 20
5.198978
 30
0.0
 10
70.100012
 20
5.198978
 30
0.0
  0
LWPOLYLINE
  5
108
100
AcDbEntity
  8
Layer_1
 62
7
100
AcDbPolyline
 90
2
 70
0
 10
30.010621
 20
2.730416
 30
0.0
 10
32.099770
 20
3.198728
 30
0.0
  0
ENDSEC
  0
SECTION
  2
OBJECTS
  0
DICTIONARY
  5
C
330
0
100
AcDbDictionary
  3
ACAD_GROUP
350
D
  3
ACAD_MLINESTYLE
350
17
  0
DICTIONARY
  5
D
330
C
100
AcDbDictionary
  0
DICTIONARY
  5
1A
330
C
100
AcDbDictionary
  0
DICTIONARY
  5
17
330
C
100
AcDbDictionary
  3
STANDARD
350
18
  0
DICTIONARY
  5
19
330
C
100
AcDbDictionary
  0
ENDSEC
  0
EOF
