  0
SECTION
  2
HEADER
  9
$ACADVER
  1
AC1014
  9
$HANDSEED
  5
FFFF
  9
$MEASUREMENT
 70
     1
  0
ENDSEC
  0
SECTION
  2
TABLES
  0
TABLE
  2
VPORT
  5
8
330
0
100
AcDbSymbolTable
 70
     4
  0
VPORT
  5
2E
330
8
100
AcDbSymbolTableRecord
100
AcDbViewportTableRecord
  2
*ACTIVE
 70
     0
 10
0.0
 20
0.0
 11
1.0
 21
1.0
 12
210.0
 22
148.5
 13
0.0
 23
0.0
 14
10.0
 24
10.0
 15
10.0
 25
10.0
 16
0.0
 26
0.0
 36
1.0
 17
0.0
 27
0.0
 37
0.0
 40
341.0
 41
1.24
 42
50.0
 43
0.0
 44
0.0
 50
0.0
 51
0.0
 71
     0
 72
   100
 73
     1
 74
     3
 75
     0
 76
     0
 77
     0
 78
     0
  0
ENDTAB
  0
TABLE
  2
LTYPE
  5
5
330
0
100
AcDbSymbolTable
 70
     1
  0
LTYPE
  5
14
330
5
100
AcDbSymbolTableRecord
100
AcDbLinetypeTableRecord
  2
BYBLOCK
 70
     0
  3

 72
    65
 73
     0
 40
0.0
  0
LTYPE
  5
15
330
5
100
AcDbSymbolTableRecord
100
AcDbLinetypeTableRecord
  2
BYLAYER
 70
     0
  3

 72
    65
 73
     0
 40
0.0
  0
LTYPE
  5
16
330
5
100
AcDbSymbolTableRecord
100
AcDbLinetypeTableRecord
  2
CONTINUOUS
 70
     0
  3
Solid line
 72
    65
 73
     0
 40
0.0
  0
ENDTAB
  0
TABLE
  2
LAYER
  5
2
100
AcDbSymbolTable
 70
2
  0
LAYER
  5
50
100
AcDbSymbolTableRecord
100
AcDbLayerTableRecord
  2
0
 70
0
  6
CONTINUOUS
  0
LAYER
  5
51
100
AcDbSymbolTableRecord
100
AcDbLayerTableRecord
  2
Layer_1
 70
0
  6
CONTINUOUS
  0
ENDTAB
  0
TABLE
  2
STYLE
  5
3
330
0
100
AcDbSymbolTable
 70
     1
  0
STYLE
  5
11
330
3
100
AcDbSymbolTableRecord
100
AcDbTextStyleTableRecord
  2
STANDARD
 70
     0
 40
0.0
 41
1.0
 50
0.0
 71
     0
 42
2.5
  3
txt
  4

  0
ENDTAB
  0
TABLE
  2
VIEW
  5
6
330
0
100
AcDbSymbolTable
 70
     0
  0
ENDTAB
  0
TABLE
  2
UCS
  5
7
330
0
100
AcDbSymbolTable
 70
     0
  0
ENDTAB
  0
TABLE
  2
APPID
  5
9
330
0
100
AcDbSymbolTable
 70
     2
  0
APPID
  5
12
330
9
100
AcDbSymbolTableRecord
100
AcDbRegAppTableRecord
  2
ACAD
 70
     0
  0
ENDTAB
  0
TABLE
  2
DIMSTYLE
  5
A
330
0
100
AcDbSymbolTable
 70
     1
  0
DIMSTYLE
105
27
330
A
100
AcDbSymbolTableRecord
100
AcDbDimStyleTableRecord
  2
ISO-25
 70
     0
  3

  4

  5

  6

  7

 40
1.0
 41
2.5
 42
0.625
 43
3.75
 44
1.25
 45
0.0
 46
0.0
 47
0.0
 48
0.0
140
2.5
141
2.5
142
0.0
143
0.03937007874016
144
1.0
145
0.0
146
1.0
147
0.625
 71
     0
 72
     0
 73
     0
 74
     0
 75
     0
 76
     0
 77
     1
 78
     8
170
     0
171
     3
172
     1
173
     0
174
     0
175
     0
176
     0
177
     0
178
     0
270
     2
271
     2
272
     2
273
     2
274
     3
340
11
275
     0
280
     0
281
     0
282
     0
283
     0
284
     8
285
     0
286
     0
287
     3
288
     0
  0
ENDTAB
  0
TABLE
  2
BLOCK_RECORD
  5
1
330
0
100
AcDbSymbolTable
 70
     1
  0
BLOCK_RECORD
  5
1F
330
1
100
AcDbSymbolTableRecord
100
AcDbBlockTableRecord
  2
*MODEL_SPACE
  0
BLOCK_RECORD
  5
1B
330
1
100
AcDbSymbolTableRecord
100
AcDbBlockTableRecord
  2
*PAPER_SPACE
  0
ENDTAB
  0
ENDSEC
  0
SECTION
  2
BLOCKS
  0
BLOCK
  5
20
330
1F
100
AcDbEntity
  8
0
100
AcDbBlockBegin
  2
*MODEL_SPACE
 70
     0
 10
0.0
 20
0.0
 30
0.0
  3
*MODEL_SPACE
  1

  0
ENDBLK
  5
21
330
1F
100
AcDbEntity
  8
0
100
AcDbBlockEnd
  0
BLOCK
  5
1C
330
1B
100
AcDbEntity
 67
     1
  8
0
100
AcDbBlockBegin
  2
*PAPER_SPACE
  1

  0
ENDBLK
  5
1D
330
1B
100
AcDbEntity
 67
     1
  8
0
100
AcDbBlockEnd
  0
ENDSEC
  0
SECTION
  2
ENTITIES
  0
LWPOLYLINE
  5
100
100
AcDbEntity
  8
Layer_1
 62
7
100
AcDbPolyline
 90
16
 70
1
 10
267.672409
 20
199.400610
 30
0.0
 10
261.672465
 20
199.400610
 30
0.0
 10
261.672465
 20
196.400798
 30
0.0
 10
243.672367
 20
196.400798
 30
0.0
 10
243.672367
 20
199.400610
 30
0.0
 10
237.672420
 20
199.400610
 30
0.0
 10
237.672420
 20
196.400798
 30
0.0
 10
237.672420
 20
100.401384
 30
0.0
 10
237.672420
 20
97.400751
 30
0.0
 10
243.672367
 20
97.400751
 30
0.0
 10
243.672367
 20
100.401384
 30
0.0
 10
261.672465
 20
100.401384
 30
0.0
 10
261.672465
 20
97.400751
 30
0.0
 10
267.672409
 20
97.400751
 30
0.0
 10
267.672409
 20
100.401384
 30
0.0
 10
267.672409
 20
196.400798
 30
0.0
  0
LWPOLYLINE
  5
101
100
AcDbEntity
  8
Layer_1
 62
7
100
AcDbPolyline
 90
20
 70
1
 10
253.672274
 20
165.400659
 30
0.0
 10
253.652430
 20
165.199311
 30
0.0
 10
253.593428
 20
165.011457
 30
0.0
 10
253.379381
 20
164.693690
 30
0.0
 10
253.061352
 20
164.479383
 30
0.0
 10
252.874291
 20
164.421175
 30
0.0
 10
252.672414
 20
164.400802
 30
0.0
 10
252.471331
 20
164.421175
 30
0.0
 10
252.283477
 20
164.479383
 30
0.0
 10
251.965448
 20
164.693690
 30
0.0
 10
251.751400
 20
165.011457
 30
0.0
 10
251.693459
 20
165.199311
 30
0.0
 10
251.672293
 20
165.400659
 30
0.0
 10
251.748493
 20
165.783508
 30
0.0
 10
251.965448
 20
166.108151
 30
0.0
 10
252.289298
 20
166.325110
 30
0.0
 10
252.672414
 20
166.401045
 30
0.0
 10
253.055266
 20
166.325110
 30
0.0
 10
253.379381
 20
166.108151
 30
0.0
 10
253.596339
 20
165.783508
 30
0.0
  0
LWPOLYLINE
  5
102
100
AcDbEntity
  8
Layer_1
 62
7
100
AcDbPolyline
 90
20
 70
1
 10
253.672274
 20
131.400968
 30
0.0
 10
253.652430
 20
131.199359
 30
0.0
 10
253.593428
 20
131.011766
 30
0.0
 10
253.379381
 20
130.693738
 30
0.0
 10
253.061352
 20
130.479428
 30
0.0
 10
252.874291
 20
130.421220
 30
0.0
 10
252.672414
 20
130.400847
 30
0.0
 10
252.471331
 20
130.421220
 30
0.0
 10
252.283477
 20
130.479428
 30
0.0
 10
251.965448
 20
130.693738
 30
0.0
 10
251.751400
 20
131.011766
 30
0.0
 10
251.693459
 20
131.199359
 30
0.0
 10
251.672293
 20
131.400968
 30
0.0
 10
251.748493
 20
131.783558
 30
0.0
 10
251.965448
 20
132.108461
 30
0.0
 10
252.289298
 20
132.325157
 30
0.0
 10
252.672414
 20
132.401357
 30
0.0
 10
253.055266
 20
132.325157
 30
0.0
 10
253.379381
 20
132.108461
 30
0.0
 10
253.596339
 20
131.783558
 30
0.0
  0
LWPOLYLINE
  5
103
100
AcDbEntity
  8
Layer_1
 62
7
100
AcDbPolyline
 90
252
 70
1
 10
10.896430
 20
129.876559
 30
0.0
 10
10.492385
 20
129.836078
 30
0.0
 10
10.116516
 20
129.719870
 30
0.0
 10
9.776739
 20
129.535932
 30
0.0
 10
9.480985
 20
129.292119
 30
0.0
 10
9.237172
 20
128.996368
 30
0.0
 10
9.053207
 20
128.656587
 30
0.0
 10
8.937028
 20
128.280721
 30
0.0
 10
8.896547
 20
127.876678
 30
0.0
 10
8.896547
 20
127.768675
 30
0.0
 10
10.099582
 20
127.768675
 30
0.0
 10
10.503630
 20
127.728168
 30
0.0
 10
10.879497
 20
127.611910
 30
0.0
 10
11.219274
 20
127.427892
 30
0.0
 10
11.515025
 20
127.183970
 30
0.0
 10
11.758839
 20
126.888114
 30
0.0
 10
11.942779
 20
126.548283
 30
0.0
 10
12.058983
 20
126.172337
 30
0.0
 10
12.099465
 20
125.768263
 30
0.0
 10
12.099465
 20
121.768501
 30
0.0
 10
12.058983
 20
121.364456
 30
0.0
 10
11.942779
 20
120.988586
 30
0.0
 10
11.758839
 20
120.648838
 30
0.0
 10
11.515025
 20
120.353084
 30
0.0
 10
11.219274
 20
120.109273
 30
0.0
 10
10.879497
 20
119.925306
 30
0.0
 10
10.503630
 20
119.809128
 30
0.0
 10
10.099582
 20
119.768646
 30
0.0
 10
8.896547
 20
119.768646
 30
0.0
 10
8.896547
 20
118.931479
 30
0.0
 10
8.887763
 20
118.931479
 30
0.0
 10
8.887763
 20
118.536136
 30
0.0
 10
8.899643
 20
118.503063
 30
0.0
 10
8.899643
 20
78.636355
 30
0.0
 10
7.899702
 20
78.636355
 30
0.0
 10
6.503416
 20
118.536136
 30
0.0
 10
4.365050
 20
118.536136
 30
0.0
 10
3.499468
 20
118.536136
 30
0.0
 10
2.499518
 20
118.536136
 30
0.0
 10
1.999806
 20
118.536136
 30
0.0
 10
1.595756
 20
118.495655
 30
0.0
 10
1.219889
 20
118.379476
 30
0.0
 10
0.880116
 20
118.195512
 30
0.0
 10
0.584366
 20
117.951698
 30
0.0
 10
0.340553
 20
117.655944
 30
0.0
 10
0.156596
 20
117.316193
 30
0.0
 10
0.040415
 20
116.940326
 30
0.0
 10
-0.000071
 20
116.536281
 30
0.0
 10
-0.000071
 20
112.535988
 30
0.0
 10
0.040415
 20
112.131837
 30
0.0
 10
0.156596
 20
111.756132
 30
0.0
 10
0.340553
 20
111.416407
 30
0.0
 10
0.584366
 20
111.120600
 30
0.0
 10
0.880116
 20
110.876654
 30
0.0
 10
1.219889
 20
110.692769
 30
0.0
 10
1.595756
 20
110.576617
 30
0.0
 10
1.999806
 20
110.536136
 30
0.0
 10
1.999806
 20
108.536147
 30
0.0
 10
3.499468
 20
108.536147
 30
0.0
 10
3.499468
 20
103.059005
 30
0.0
 10
3.704440
 20
102.780135
 30
0.0
 10
3.862289
 20
102.470040
 30
0.0
 10
3.963784
 20
102.131903
 30
0.0
 10
3.999688
 20
101.768630
 30
0.0
 10
3.999688
 20
52.768548
 30
0.0
 10
3.963784
 20
52.405276
 30
0.0
 10
3.862289
 20
52.067138
 30
0.0
 10
3.704440
 20
51.757044
 30
0.0
 10
3.499468
 20
51.478174
 30
0.0
 10
3.499468
 20
47.036079
 30
0.0
 10
0.499639
 20
47.036079
 30
0.0
 10
0.499639
 20
39.036127
 30
0.0
 10
3.499468
 20
39.036127
 30
0.0
 10
3.499468
 20
34.768667
 30
0.0
 10
4.499908
 20
34.768667
 30
0.0
 10
4.903956
 20
34.728186
 30
0.0
 10
5.279823
 20
34.611770
 30
0.0
 10
5.619599
 20
34.427884
 30
0.0
 10
5.915353
 20
34.183941
 30
0.0
 10
6.159167
 20
33.888137
 30
0.0
 10
6.343131
 20
33.548148
 30
0.0
 10
6.459310
 20
33.172175
 30
0.0
 10
6.499791
 20
32.768162
 30
0.0
 10
6.499791
 20
28.768432
 30
0.0
 10
6.459310
 20
28.364414
 30
0.0
 10
6.343131
 20
27.988441
 30
0.0
 10
6.159167
 20
27.648716
 30
0.0
 10
5.915353
 20
27.352912
 30
0.0
 10
5.619599
 20
27.109231
 30
0.0
 10
5.279823
 20
26.925081
 30
0.0
 10
4.903956
 20
26.808929
 30
0.0
 10
4.499908
 20
26.768448
 30
0.0
 10
4.499908
 20
10.636257
 30
0.0
 10
4.540392
 20
10.232238
 30
0.0
 10
4.656597
 20
9.856266
 30
0.0
 10
4.840535
 20
9.516541
 30
0.0
 10
5.084349
 20
9.220737
 30
0.0
 10
5.380100
 20
8.977056
 30
0.0
 10
5.719877
 20
8.792906
 30
0.0
 10
6.095746
 20
8.676754
 30
0.0
 10
6.499791
 20
8.636273
 30
0.0
 10
96.499663
 20
8.636273
 30
0.0
 10
96.903678
 20
8.676754
 30
0.0
 10
97.279651
 20
8.792906
 30
0.0
 10
97.619376
 20
8.977056
 30
0.0
 10
97.915180
 20
9.220737
 30
0.0
 10
98.159126
 20
9.516541
 30
0.0
 10
98.343275
 20
9.856266
 30
0.0
 10
98.459427
 20
10.232238
 30
0.0
 10
98.499909
 20
10.636257
 30
0.0
 10
98.499909
 20
26.768448
 30
0.0
 10
98.095890
 20
26.808929
 30
0.0
 10
97.719918
 20
26.925081
 30
0.0
 10
97.380193
 20
27.109231
 30
0.0
 10
97.084124
 20
27.352912
 30
0.0
 10
96.840443
 20
27.648716
 30
0.0
 10
96.656293
 20
27.988441
 30
0.0
 10
96.540144
 20
28.364414
 30
0.0
 10
96.499663
 20
28.768432
 30
0.0
 10
96.499663
 20
32.768162
 30
0.0
 10
96.540144
 20
33.172175
 30
0.0
 10
96.656293
 20
33.548148
 30
0.0
 10
96.840443
 20
33.888137
 30
0.0
 10
97.084124
 20
34.183941
 30
0.0
 10
97.380193
 20
34.427884
 30
0.0
 10
97.719918
 20
34.611770
 30
0.0
 10
98.095890
 20
34.728186
 30
0.0
 10
98.499909
 20
34.768667
 30
0.0
 10
99.499768
 20
34.768667
 30
0.0
 10
99.499768
 20
39.036127
 30
0.0
 10
102.499636
 20
39.036127
 30
0.0
 10
102.499636
 20
47.036079
 30
0.0
 10
99.499768
 20
47.036079
 30
0.0
 10
99.499768
 20
51.478174
 30
0.0
 10
99.294981
 20
51.757044
 30
0.0
 10
99.137025
 20
52.067138
 30
0.0
 10
99.035425
 20
52.405276
 30
0.0
 10
98.999706
 20
52.768548
 30
0.0
 10
98.999706
 20
101.768630
 30
0.0
 10
99.035425
 20
102.131903
 30
0.0
 10
99.137025
 20
102.470040
 30
0.0
 10
99.294981
 20
102.780135
 30
0.0
 10
99.499768
 20
103.059005
 30
0.0
 10
99.499768
 20
108.536147
 30
0.0
 10
100.999423
 20
108.536147
 30
0.0
 10
100.999423
 20
110.536136
 30
0.0
 10
101.403706
 20
110.576617
 30
0.0
 10
101.779414
 20
110.692769
 30
0.0
 10
102.119404
 20
110.876654
 30
0.0
 10
102.415234
 20
111.120600
 30
0.0
 10
102.659180
 20
111.416407
 30
0.0
 10
102.843065
 20
111.756132
 30
0.0
 10
102.959482
 20
112.131837
 30
0.0
 10
102.999963
 20
112.535988
 30
0.0
 10
102.999963
 20
116.536281
 30
0.0
 10
102.959482
 20
116.940326
 30
0.0
 10
102.843065
 20
117.316193
 30
0.0
 10
102.659180
 20
117.655944
 30
0.0
 10
102.415234
 20
117.951698
 30
0.0
 10
102.119404
 20
118.195512
 30
0.0
 10
101.779414
 20
118.379476
 30
0.0
 10
101.403706
 20
118.495655
 30
0.0
 10
100.999423
 20
118.536136
 30
0.0
 10
99.614598
 20
118.536136
 30
0.0
 10
98.634317
 20
118.536136
 30
0.0
 10
96.495427
 20
118.536136
 30
0.0
 10
94.899728
 20
78.636355
 30
0.0
 10
93.899604
 20
78.636355
 30
0.0
 10
93.899604
 20
118.503063
 30
0.0
 10
93.899604
 20
118.536136
 30
0.0
 10
93.899604
 20
118.931479
 30
0.0
 10
93.893519
 20
118.931479
 30
0.0
 10
93.893519
 20
119.768646
 30
0.0
 10
92.899744
 20
119.768646
 30
0.0
 10
92.495728
 20
119.809128
 30
0.0
 10
92.119756
 20
119.925306
 30
0.0
 10
91.780031
 20
120.109273
 30
0.0
 10
91.484227
 20
120.353084
 30
0.0
 10
91.240546
 20
120.648838
 30
0.0
 10
91.056660
 20
120.988586
 30
0.0
 10
90.940508
 20
121.364456
 30
0.0
 10
90.900027
 20
121.768501
 30
0.0
 10
90.900027
 20
125.768263
 30
0.0
 10
90.940508
 20
126.172337
 30
0.0
 10
91.056660
 20
126.548283
 30
0.0
 10
91.240546
 20
126.888114
 30
0.0
 10
91.484227
 20
127.183970
 30
0.0
 10
91.780031
 20
127.427892
 30
0.0
 10
92.119756
 20
127.611910
 30
0.0
 10
92.495728
 20
127.728168
 30
0.0
 10
92.899744
 20
127.768675
 30
0.0
 10
93.893519
 20
127.768675
 30
0.0
 10
93.893519
 20
127.876678
 30
0.0
 10
93.853037
 20
128.280721
 30
0.0
 10
93.736885
 20
128.656587
 30
0.0
 10
93.553000
 20
128.996368
 30
0.0
 10
93.309054
 20
129.292119
 30
0.0
 10
93.013250
 20
129.535932
 30
0.0
 10
92.673526
 20
129.719870
 30
0.0
 10
92.297556
 20
129.836078
 30
0.0
 10
91.893534
 20
129.876559
 30
0.0
 10
86.600792
 20
129.876559
 30
0.0
 10
85.525261
 20
129.771149
 30
0.0
 10
84.437824
 20
129.556252
 30
0.0
 10
83.339807
 20
129.239255
 30
0.0
 10
82.232262
 20
128.827590
 30
0.0
 10
81.115721
 20
128.328666
 30
0.0
 10
79.991771
 20
127.749837
 30
0.0
 10
78.861210
 20
127.098510
 30
0.0
 10
77.724826
 20
126.382125
 30
0.0
 10
76.583917
 20
125.608031
 30
0.0
 10
75.439597
 20
124.783643
 30
0.0
 10
73.143809
 20
123.013632
 30
0.0
 10
70.845907
 20
121.131250
 30
0.0
 10
68.553823
 20
119.195718
 30
0.0
 10
66.275500
 20
117.266213
 30
0.0
 10
64.019373
 20
115.401908
 30
0.0
 10
61.793443
 20
113.662030
 30
0.0
 10
59.605864
 20
112.105643
 30
0.0
 10
58.529010
 20
111.415084
 30
0.0
 10
57.464590
 20
110.792252
 30
0.0
 10
56.413930
 20
110.245094
 30
0.0
 10
55.377822
 20
109.780748
 30
0.0
 10
54.357322
 20
109.406892
 30
0.0
 10
53.353491
 20
109.130403
 30
0.0
 10
52.367387
 20
108.959218
 30
0.0
 10
51.399804
 20
108.900478
 30
0.0
 10
50.432485
 20
108.959218
 30
0.0
 10
49.446386
 20
109.130403
 30
0.0
 10
48.442555
 20
109.406892
 30
0.0
 10
47.422055
 20
109.780748
 30
0.0
 10
46.385947
 20
110.245094
 30
0.0
 10
45.335288
 20
110.792252
 30
0.0
 10
44.270867
 20
111.415084
 30
0.0
 10
43.194011
 20
112.105643
 30
0.0
 10
41.006435
 20
113.662030
 30
0.0
 10
38.780494
 20
115.401908
 30
0.0
 10
36.524388
 20
117.266213
 30
0.0
 10
34.246060
 20
119.195718
 30
0.0
 10
31.953973
 20
121.131250
 30
0.0
 10
29.656066
 20
123.013632
 30
0.0
 10
27.360272
 20
124.783643
 30
0.0
 10
26.215870
 20
125.608031
 30
0.0
 10
25.074985
 20
126.382125
 30
0.0
 10
23.938705
 20
127.098510
 30
0.0
 10
22.808033
 20
127.749837
 30
0.0
 10
21.684031
 20
128.328666
 30
0.0
 10
20.567645
 20
128.827590
 30
0.0
 10
19.459968
 20
129.239255
 30
0.0
 10
18.361919
 20
129.556252
 30
0.0
 10
17.274587
 20
129.771149
 30
0.0
 10
16.198949
 20
129.876559
 30
0.0
  0
LWPOLYLINE
  5
104
100
AcDbEntity
  8
Layer_1
 62
7
100
AcDbPolyline
 90
4
 70
1
 10
11.499494
 20
14.536213
 30
0.0
 10
23.499814
 20
14.536213
 30
0.0
 10
23.499814
 20
11.535840
 30
0.0
 10
11.499494
 20
11.535840
 30
0.0
  0
LWPOLYLINE
  5
105
100
AcDbEntity
  8
Layer_1
 62
7
100
AcDbPolyline
 90
4
 70
1
 10
79.499649
 20
14.536213
 30
0.0
 10
91.499835
 20
14.536213
 30
0.0
 10
91.499835
 20
11.535840
 30
0.0
 10
79.499649
 20
11.535840
 30
0.0
  0
LWPOLYLINE
  5
106
100
AcDbEntity
  8
Layer_1
 62
7
100
AcDbPolyline
 90
14
 70
1
 10
124.009705
 20
111.446355
 30
0.0
 10
118.009755
 20
111.446355
 30
0.0
 10
118.009755
 20
108.446537
 30
0.0
 10
110.009829
 20
108.446537
 30
0.0
 10
110.009829
 20
111.446355
 30
0.0
 10
104.009620
 20
111.446355
 30
0.0
 10
104.009620
 20
9.446506
 30
0.0
 10
110.009829
 20
9.446506
 30
0.0
 10
110.009829
 20
12.447117
 30
0.0
 10
118.009755
 20
12.447117
 30
0.0
 10
118.009755
 20
9.446506
 30
0.0
 10
124.009705
 20
9.446506
 30
0.0
 10
124.009705
 20
12.447117
 30
0.0
 10
124.009705
 20
108.446537
 30
0.0
  0
LWPOLYLINE
  5
107
100
AcDbEntity
  8
Layer_1
 62
7
100
AcDbPolyline
 90
16
 70
1
 10
115.009652
 20
54.246880
 30
0.0
 10
114.933717
 20
53.864031
 30
0.0
 10
114.717817
 20
53.539652
 30
0.0
 10
114.392644
 20
53.322959
 30
0.0
 10
114.009792
 20
53.247023
 30
0.0
 10
113.627734
 20
53.322959
 30
0.0
 10
113.302826
 20
53.539652
 30
0.0
 10
113.085603
 20
53.864031
 30
0.0
 10
113.009668
 20
54.246880
 30
0.0
 10
113.085603
 20
54.629470
 30
0.0
 10
113.302826
 20
54.953849
 30
0.0
 10
113.627734
 20
55.170540
 30
0.0
 10
114.009792
 20
55.247005
 30
0.0
 10
114.392644
 20
55.170540
 30
0.0
 10
114.717817
 20
54.953849
 30
0.0
 10
114.933717
 20
54.629470
 30
0.0
  0
LWPOLYLINE
  5
108
100
AcDbEntity
  8
Layer_1
 62
7
100
AcDbPolyline
 90
28
 70
1
 10
257.464881
 20
96.217533
 30
0.0
 10
254.364762
 20
96.217533
 30
0.0
 10
254.364762
 20
99.217353
 30
0.0
 10
249.364942
 20
99.217353
 30
0.0
 10
248.354764
 20
99.116134
 30
0.0
 10
247.414967
 20
98.825683
 30
0.0
 10
246.565920
 20
98.365789
 30
0.0
 10
245.825880
 20
97.756243
 30
0.0
 10
245.215752
 20
97.016891
 30
0.0
 10
244.755906
 20
96.167447
 30
0.0
 10
244.465923
 20
95.227783
 30
0.0
 10
244.364852
 20
94.217657
 30
0.0
 10
244.364852
 20
18.217782
 30
0.0
 10
244.465923
 20
17.207868
 30
0.0
 10
244.755906
 20
16.268068
 30
0.0
 10
245.215752
 20
15.418492
 30
0.0
 10
245.825880
 20
14.678982
 30
0.0
 10
246.565920
 20
14.069382
 30
0.0
 10
247.414967
 20
13.609537
 30
0.0
 10
248.354764
 20
13.319024
 30
0.0
 10
249.364942
 20
13.217689
 30
0.0
 10
254.364762
 20
13.217689
 30
0.0
 10
254.364762
 20
16.218062
 30
0.0
 10
257.464881
 20
16.218062
 30
0.0
 10
257.464881
 20
28.217676
 30
0.0
 10
254.364762
 20
28.217676
 30
0.0
 10
254.364762
 20
84.217750
 30
0.0
 10
257.464881
 20
84.217750
 30
0.0
  0
LWPOLYLINE
  5
109
100
AcDbEntity
  8
Layer_1
 62
7
100
AcDbPolyline
 90
232
 70
1
 10
180.956061
 20
93.154983
 30
0.0
 10
182.174995
 20
93.379611
 30
0.0
 10
183.118761
 20
94.015140
 30
0.0
 10
183.812231
 20
95.010502
 30
0.0
 10
184.280545
 20
96.313571
 30
0.0
 10
184.549097
 20
97.873024
 30
0.0
 10
184.643024
 20
99.637262
 30
0.0
 10
184.407281
 20
103.572932
 30
0.0
 10
183.774927
 20
107.707832
 30
0.0
 10
182.946782
 20
111.628687
 30
0.0
 10
181.509039
 20
117.176194
 30
0.0
 10
180.052245
 20
123.130630
 30
0.0
 10
179.161922
 20
128.390536
 30
0.0
 10
178.772720
 20
133.015180
 30
0.0
 10
178.819819
 20
137.064355
 30
0.0
 10
179.237596
 20
140.597599
 30
0.0
 10
179.960966
 20
143.674166
 30
0.0
 10
180.924840
 20
146.353859
 30
0.0
 10
182.064132
 20
148.695949
 30
0.0
 10
183.313494
 20
150.760225
 30
0.0
 10
184.607832
 20
152.606219
 30
0.0
 10
186.315717
 20
155.014187
 30
0.0
 10
188.164886
 20
157.334841
 30
0.0
 10
190.144494
 20
159.559985
 30
0.0
 10
192.243165
 20
161.682731
 30
0.0
 10
194.450051
 20
163.695150
 30
0.0
 10
196.753509
 20
165.590095
 30
0.0
 10
199.142954
 20
167.359886
 30
0.0
 10
201.606753
 20
168.997392
 30
0.0
 10
204.134310
 20
170.494663
 30
0.0
 10
206.713732
 20
171.844566
 30
0.0
 10
209.334687
 20
173.039423
 30
0.0
 10
211.985276
 20
174.072085
 30
0.0
 10
214.654920
 20
174.934891
 30
0.0
 10
217.332232
 20
175.620161
 30
0.0
 10
220.006107
 20
176.121017
 30
0.0
 10
222.665429
 20
176.429257
 30
0.0
 10
224.846650
 20
176.587477
 30
0.0
 10
226.882880
 20
177.039915
 30
0.0
 10
228.763534
 20
177.752699
 30
0.0
 10
230.478033
 20
178.691702
 30
0.0
 10
232.015520
 20
179.823060
 30
0.0
 10
233.365424
 20
181.113167
 30
0.0
 10
234.516890
 20
182.527891
 30
0.0
 10
235.459335
 20
184.033631
 30
0.0
 10
236.181642
 20
185.596259
 30
0.0
 10
236.673766
 20
187.181903
 30
0.0
 10
236.924591
 20
188.756700
 30
0.0
 10
236.924591
 20
190.287313
 30
0.0
 10
236.660802
 20
191.738814
 30
0.0
 10
236.123698
 20
193.078134
 30
0.0
 10
235.302699
 20
194.271134
 30
0.0
 10
234.186690
 20
195.284223
 30
0.0
 10
233.283932
 20
195.723695
 30
0.0
 10
231.865504
 20
196.131683
 30
0.0
 10
227.616304
 20
196.857964
 30
0.0
 10
221.710549
 20
197.471794
 30
0.0
 10
214.419706
 20
197.982704
 30
0.0
 10
196.767797
 20
198.732001
 30
0.0
 10
176.832008
 20
199.179675
 30
0.0
 10
156.782978
 20
199.399809
 30
0.0
 10
138.791609
 20
199.465425
 30
0.0
 10
117.667051
 20
199.429442
 30
0.0
 10
114.332512
 20
199.196609
 30
0.0
 10
111.246420
 20
198.539649
 30
0.0
 10
108.469622
 20
197.522332
 30
0.0
 10
106.061918
 20
196.207089
 30
0.0
 10
104.084159
 20
194.657690
 30
0.0
 10
102.596677
 20
192.937111
 30
0.0
 10
101.660053
 20
191.108577
 30
0.0
 10
101.416901
 20
190.173275
 30
0.0
 10
101.334351
 20
189.234801
 30
0.0
 10
101.554749
 20
186.869960
 30
0.0
 10
102.137626
 20
183.694967
 30
0.0
 10
103.916680
 20
176.268655
 30
0.0
 10
106.616484
 20
166.602649
 30
0.0
 10
106.567536
 20
165.652534
 30
0.0
 10
106.695065
 20
165.292968
 30
0.0
 10
107.040875
 20
165.132099
 30
0.0
 10
112.289139
 20
164.909852
 30
0.0
 10
112.194950
 20
162.401603
 30
0.0
 10
112.200771
 20
161.944668
 30
0.0
 10
111.340878
 20
161.904452
 30
0.0
 10
110.993481
 20
161.741468
 30
0.0
 10
110.861983
 20
161.380841
 30
0.0
 10
110.931833
 20
159.634333
 30
0.0
 10
111.092170
 20
159.287729
 30
0.0
 10
111.451474
 20
159.158348
 30
0.0
 10
112.275915
 20
159.196977
 30
0.0
 10
112.490757
 20
156.240001
 30
0.0
 10
111.639593
 20
156.125434
 30
0.0
 10
111.307541
 20
155.933082
 30
0.0
 10
111.207793
 20
155.562668
 30
0.0
 10
111.429778
 20
153.828326
 30
0.0
 10
111.619749
 20
153.497068
 30
0.0
 10
111.989107
 20
153.399436
 30
0.0
 10
112.806402
 20
153.510032
 30
0.0
 10
113.272066
 20
150.582158
 30
0.0
 10
112.440748
 20
150.395100
 30
0.0
 10
112.126426
 20
150.174438
 30
0.0
 10
112.059222
 20
149.796613
 30
0.0
 10
112.431755
 20
148.088202
 30
0.0
 10
112.649766
 20
147.774406
 30
0.0
 10
113.026268
 20
147.709319
 30
0.0
 10
113.828749
 20
147.890294
 30
0.0
 10
114.551590
 20
145.015071
 30
0.0
 10
113.738264
 20
144.755515
 30
0.0
 10
113.444576
 20
144.508662
 30
0.0
 10
113.410710
 20
144.126604
 30
0.0
 10
113.930616
 20
142.457084
 30
0.0
 10
114.174823
 20
142.163661
 30
0.0
 10
114.555294
 20
142.131911
 30
0.0
 10
115.333433
 20
142.380090
 30
0.0
 10
116.305512
 20
139.578689
 30
0.0
 10
115.522081
 20
139.251135
 30
0.0
 10
115.251148
 20
138.979408
 30
0.0
 10
115.251677
 20
138.595233
 30
0.0
 10
115.914722
 20
136.977836
 30
0.0
 10
116.183803
 20
136.706903
 30
0.0
 10
116.565861
 20
136.708226
 30
0.0
 10
117.320714
 20
137.023876
 30
0.0
 10
118.529857
 20
134.316664
 30
0.0
 10
117.780028
 20
133.922700
 30
0.0
 10
117.533704
 20
133.628748
 30
0.0
 10
117.566777
 20
133.246425
 30
0.0
 10
118.368197
 20
131.692531
 30
0.0
 10
118.660032
 20
131.445942
 30
0.0
 10
119.040502
 20
131.480600
 30
0.0
 10
119.760433
 20
131.858425
 30
0.0
 10
121.204790
 20
129.268423
 30
0.0
 10
120.492535
 20
128.811488
 30
0.0
 10
120.272931
 20
128.496901
 30
0.0
 10
120.339077
 20
128.119076
 30
0.0
 10
121.273582
 20
126.641117
 30
0.0
 10
121.585525
 20
126.420984
 30
0.0
 10
121.961231
 20
126.488717
 30
0.0
 10
122.644384
 20
126.926867
 30
0.0
 10
124.304379
 20
124.469154
 30
0.0
 10
123.640805
 20
123.956395
 30
0.0
 10
123.448984
 20
123.624078
 30
0.0
 10
123.547671
 20
123.253132
 30
0.0
 10
124.607062
 20
121.861957
 30
0.0
 10
124.937262
 20
121.669869
 30
0.0
 10
125.305824
 20
121.770147
 30
0.0
 10
125.947702
 20
122.266237
 30
0.0
 10
127.818832
 20
119.964631
 30
0.0
 10
127.199710
 20
119.393928
 30
0.0
 10
127.038050
 20
119.046004
 30
0.0
 10
127.168754
 20
118.685109
 30
0.0
 10
128.345352
 20
117.392094
 30
0.0
 10
128.690895
 20
117.229376
 30
0.0
 10
129.049141
 20
117.361138
 30
0.0
 10
129.640220
 20
117.906177
 30
0.0
 10
131.707408
 20
115.779198
 30
0.0
 10
131.142523
 20
115.159280
 30
0.0
 10
131.011819
 20
114.798388
 30
0.0
 10
131.173479
 20
114.450197
 30
0.0
 10
132.458290
 20
113.264600
 30
0.0
 10
132.816803
 20
113.132575
 30
0.0
 10
133.162613
 20
113.295291
 30
0.0
 10
133.706329
 20
113.891926
 30
0.0
 10
135.946819
 20
111.949097
 30
0.0
 10
135.439877
 20
111.283935
 30
0.0
 10
135.341188
 20
110.913254
 30
0.0
 10
135.532479
 20
110.580673
 30
0.0
 10
136.915722
 20
109.511493
 30
0.0
 10
137.284284
 20
109.411216
 30
0.0
 10
137.614481
 20
109.603568
 30
0.0
 10
138.101843
 20
110.242801
 30
0.0
 10
140.506372
 20
108.505812
 30
0.0
 10
140.058700
 20
107.798322
 30
0.0
 10
139.992555
 20
107.420497
 30
0.0
 10
140.212159
 20
107.105908
 30
0.0
 10
141.683503
 20
106.161346
 30
0.0
 10
142.059208
 20
106.093613
 30
0.0
 10
142.371417
 20
106.313746
 30
0.0
 10
142.800306
 20
106.991608
 30
0.0
 10
145.344799
 20
105.466815
 30
0.0
 10
144.963273
 20
104.728364
 30
0.0
 10
144.930465
 20
104.346041
 30
0.0
 10
145.176792
 20
104.051824
 30
0.0
 10
146.724598
 20
103.239028
 30
0.0
 10
147.105069
 20
103.204370
 30
0.0
 10
147.396904
 20
103.450959
 30
0.0
 10
147.765204
 20
104.164539
 30
0.0
 10
150.433784
 20
102.868878
 30
0.0
 10
150.117078
 20
102.097354
 30
0.0
 10
150.117343
 20
101.713973
 30
0.0
 10
150.388276
 20
101.442246
 30
0.0
 10
152.001437
 20
100.767294
 30
0.0
 10
152.383495
 20
100.767294
 30
0.0
 10
152.652840
 20
101.038492
 30
0.0
 10
152.955524
 20
101.776414
 30
0.0
 10
155.728085
 20
100.722051
 30
0.0
 10
155.480435
 20
99.927245
 30
0.0
 10
155.514305
 20
99.545187
 30
0.0
 10
155.807992
 20
99.298064
 30
0.0
 10
157.473540
 20
98.766257
 30
0.0
 10
157.854273
 20
98.798269
 30
0.0
 10
158.099012
 20
99.091692
 30
0.0
 10
158.337140
 20
99.856070
 30
0.0
 10
161.189606
 20
99.042747
 30
0.0
 10
161.012864
 20
98.231535
 30
0.0
 10
161.079804
 20
97.853445
 30
0.0
 10
161.393861
 20
97.633047
 30
0.0
 10
163.099629
 20
97.248608
 30
0.0
 10
163.475866
 20
97.313696
 30
0.0
 10
163.693883
 20
97.627227
 30
0.0
 10
163.864271
 20
98.408012
 30
0.0
 10
166.777859
 20
97.850006
 30
0.0
 10
166.672025
 20
97.024242
 30
0.0
 10
166.771509
 20
96.653825
 30
0.0
 10
167.103560
 20
96.461473
 30
0.0
 10
168.836051
 20
96.226788
 30
0.0
 10
169.205409
 20
96.324422
 30
0.0
 10
169.395380
 20
96.655677
 30
0.0
 10
169.497244
 20
97.447575
 30
0.0
 10
172.448400
 20
97.143039
 30
0.0
 10
172.414798
 20
96.314630
 30
0.0
 10
172.546295
 20
95.954270
 30
0.0
 10
172.893693
 20
95.791816
 30
0.0
 10
174.083788
 20
95.735460
 30
0.0
 10
174.712432
 20
95.735722
 30
0.0
 10
175.021466
 20
95.877803
 30
0.0
 10
175.159049
 20
96.185778
 30
0.0
 10
175.191593
 20
96.985612
 30
0.0
 10
177.664651
 20
96.933490
 30
0.0
 10
178.164976
 20
96.952010
 30
0.0
 10
178.220273
 20
95.735460
 30
0.0
 10
178.973274
 20
95.735460
 30
0.0
 10
180.600990
 20
93.171387
 30
0.0
 10
180.957648
 20
93.156306
 30
0.0
  0
LWPOLYLINE
  5
10a
100
AcDbEntity
  8
Layer_1
 62
7
100
AcDbPolyline
 90
32
 70
1
 10
177.667562
 20
154.931373
 30
0.0
 10
176.155998
 20
155.083244
 30
0.0
 10
174.748418
 20
155.520335
 30
0.0
 10
173.474451
 20
156.212220
 30
0.0
 10
172.364527
 20
157.128204
 30
0.0
 10
171.448540
 20
158.238393
 30
0.0
 10
170.757449
 20
159.512360
 30
0.0
 10
170.320627
 20
160.919408
 30
0.0
 10
170.167431
 20
162.431237
 30
0.0
 10
170.313483
 20
163.901261
 30
0.0
 10
170.738399
 20
165.301170
 30
0.0
 10
171.427638
 20
166.592331
 30
0.0
 10
172.364527
 20
167.734272
 30
0.0
 10
173.506468
 20
168.671161
 30
0.0
 10
174.797628
 20
169.360397
 30
0.0
 10
176.197538
 20
169.786376
 30
0.0
 10
177.667562
 20
169.931368
 30
0.0
 10
179.137581
 20
169.786376
 30
0.0
 10
180.538019
 20
169.360397
 30
0.0
 10
181.828921
 20
168.671161
 30
0.0
 10
182.971123
 20
167.734272
 30
0.0
 10
183.908012
 20
166.592331
 30
0.0
 10
184.596984
 20
165.301170
 30
0.0
 10
185.022434
 20
163.901261
 30
0.0
 10
185.167955
 20
162.431237
 30
0.0
 10
185.022434
 20
160.961213
 30
0.0
 10
184.596984
 20
159.561308
 30
0.0
 10
183.907748
 20
158.270407
 30
0.0
 10
182.971123
 20
157.127411
 30
0.0
 10
181.828653
 20
156.191315
 30
0.0
 10
180.537755
 20
155.502343
 30
0.0
 10
179.137581
 20
155.076364
 30
0.0
  0
LWPOLYLINE
  5
10b
100
AcDbEntity
  8
Layer_1
 62
7
100
AcDbPolyline
 90
4
 70
1
 10
169.667633
 20
169.431305
 30
0.0
 10
163.667422
 20
169.431305
 30
0.0
 10
163.667422
 20
172.431147
 30
0.0
 10
169.667633
 20
172.431147
 30
0.0
  0
LWPOLYLINE
  5
10c
100
AcDbEntity
  8
Layer_1
 62
7
100
AcDbPolyline
 90
4
 70
1
 10
155.667498
 20
169.431305
 30
0.0
 10
149.667551
 20
169.431305
 30
0.0
 10
149.667551
 20
172.431147
 30
0.0
 10
155.667498
 20
172.431147
 30
0.0
  0
LWPOLYLINE
  5
10d
100
AcDbEntity
  8
Layer_1
 62
7
100
AcDbPolyline
 90
16
 70
1
 10
142.697645
 20
169.729226
 30
0.0
 10
142.315587
 20
169.805159
 30
0.0
 10
141.990681
 20
170.022384
 30
0.0
 10
141.773459
 20
170.346231
 30
0.0
 10
141.697523
 20
170.729348
 30
0.0
 10
141.773459
 20
171.112200
 30
0.0
 10
141.990681
 20
171.436314
 30
0.0
 10
142.315587
 20
171.653272
 30
0.0
 10
142.697645
 20
171.729208
 30
0.0
 10
143.080497
 20
171.653272
 30
0.0
 10
143.405669
 20
171.436314
 30
0.0
 10
143.621569
 20
171.112200
 30
0.0
 10
143.698563
 20
170.729348
 30
0.0
 10
143.621569
 20
170.346231
 30
0.0
 10
143.405669
 20
170.022384
 30
0.0
 10
143.080497
 20
169.805159
 30
0.0
  0
LWPOLYLINE
  5
10e
100
AcDbEntity
  8
Layer_1
 62
7
100
AcDbPolyline
 90
32
 70
1
 10
124.666588
 20
172.847336
 30
0.0
 10
123.765685
 20
172.936236
 30
0.0
 10
122.906584
 20
173.197380
 30
0.0
 10
122.114686
 20
173.619386
 30
0.0
 10
121.413543
 20
174.194323
 30
0.0
 10
120.839663
 20
174.894145
 30
0.0
 10
120.416597
 20
175.686307
 30
0.0
 10
120.155718
 20
176.545144
 30
0.0
 10
120.066553
 20
177.447370
 30
0.0
 10
120.155718
 20
178.348273
 30
0.0
 10
120.416597
 20
179.207375
 30
0.0
 10
120.839663
 20
179.999272
 30
0.0
 10
121.413543
 20
180.699359
 30
0.0
 10
122.114686
 20
181.274298
 30
0.0
 10
122.906584
 20
181.697364
 30
0.0
 10
123.764629
 20
181.958243
 30
0.0
 10
124.666588
 20
182.047143
 30
0.0
 10
125.568552
 20
181.958243
 30
0.0
 10
126.426595
 20
181.697364
 30
0.0
 10
127.218493
 20
181.274298
 30
0.0
 10
127.919636
 20
180.699359
 30
0.0
 10
128.493516
 20
179.999272
 30
0.0
 10
128.916585
 20
179.207375
 30
0.0
 10
129.177461
 20
178.348273
 30
0.0
 10
129.266626
 20
177.447370
 30
0.0
 10
129.177461
 20
176.545144
 30
0.0
 10
128.916585
 20
175.686307
 30
0.0
 10
128.493516
 20
174.894145
 30
0.0
 10
127.919636
 20
174.194323
 30
0.0
 10
127.218493
 20
173.619386
 30
0.0
 10
126.427654
 20
173.197380
 30
0.0
 10
125.568552
 20
172.936236
 30
0.0
  0
LWPOLYLINE
  5
10f
100
AcDbEntity
  8
Layer_1
 62
7
100
AcDbPolyline
 90
32
 70
1
 10
162.167502
 20
178.431352
 30
0.0
 10
160.697481
 20
178.576346
 30
0.0
 10
159.297574
 20
179.002323
 30
0.0
 10
158.006408
 20
179.691297
 30
0.0
 10
156.864467
 20
180.627128
 30
0.0
 10
155.927581
 20
181.770125
 30
0.0
 10
155.238606
 20
183.060232
 30
0.0
 10
154.812630
 20
184.461200
 30
0.0
 10
154.667639
 20
185.931219
 30
0.0
 10
154.812630
 20
187.401243
 30
0.0
 10
155.238606
 20
188.801150
 30
0.0
 10
155.927581
 20
190.092315
 30
0.0
 10
156.864467
 20
191.234254
 30
0.0
 10
158.006408
 20
192.171143
 30
0.0
 10
159.297574
 20
192.860117
 30
0.0
 10
160.697481
 20
193.285300
 30
0.0
 10
162.167502
 20
193.431350
 30
0.0
 10
163.637526
 20
193.285300
 30
0.0
 10
165.037433
 20
192.860117
 30
0.0
 10
166.328596
 20
192.171143
 30
0.0
 10
167.471596
 20
191.234254
 30
0.0
 10
168.407426
 20
190.092315
 30
0.0
 10
169.096401
 20
188.801150
 30
0.0
 10
169.522644
 20
187.401243
 30
0.0
 10
169.667633
 20
185.931219
 30
0.0
 10
169.515501
 20
184.419131
 30
0.0
 10
169.078409
 20
183.011284
 30
0.0
 10
168.386524
 20
181.737316
 30
0.0
 10
167.470537
 20
180.627128
 30
0.0
 10
166.360611
 20
179.712199
 30
0.0
 10
165.087442
 20
179.020317
 30
0.0
 10
163.679595
 20
178.583223
 30
0.0
  0
LWPOLYLINE
  5
110
100
AcDbEntity
  8
Layer_1
 62
7
100
AcDbPolyline
 90
4
 70
1
 10
232.667718
 20
190.431244
 30
0.0
 10
226.667512
 20
190.431244
 30
0.0
 10
226.667512
 20
193.431350
 30
0.0
 10
232.667718
 20
193.431350
 30
0.0
  0
LWPOLYLINE
  5
111
100
AcDbEntity
  8
Layer_1
 62
7
100
AcDbPolyline
 90
4
 70
1
 10
208.667673
 20
190.431244
 30
0.0
 10
202.667464
 20
190.431244
 30
0.0
 10
202.667464
 20
193.431350
 30
0.0
 10
208.667673
 20
193.431350
 30
0.0
  0
LWPOLYLINE
  5
112
100
AcDbEntity
  8
Layer_1
 62
7
100
AcDbPolyline
 90
4
 70
1
 10
174.667453
 20
190.431244
 30
0.0
 10
168.667512
 20
190.431244
 30
0.0
 10
168.667512
 20
193.431350
 30
0.0
 10
174.667453
 20
193.431350
 30
0.0
  0
LWPOLYLINE
  5
113
100
AcDbEntity
  8
Layer_1
 62
7
100
AcDbPolyline
 90
4
 70
1
 10
155.667498
 20
190.431244
 30
0.0
 10
149.667551
 20
190.431244
 30
0.0
 10
149.667551
 20
193.431350
 30
0.0
 10
155.667498
 20
193.431350
 30
0.0
  0
LWPOLYLINE
  5
114
100
AcDbEntity
  8
Layer_1
 62
7
100
AcDbPolyline
 90
4
 70
1
 10
110.667512
 20
190.431244
 30
0.0
 10
104.668625
 20
190.431244
 30
0.0
 10
104.668625
 20
193.431350
 30
0.0
 10
110.667512
 20
193.431350
 30
0.0
  0
LWPOLYLINE
  5
115
100
AcDbEntity
  8
Layer_1
 62
7
100
AcDbPolyline
 90
16
 70
1
 10
117.949626
 20
194.478303
 30
0.0
 10
117.566507
 20
194.554238
 30
0.0
 10
117.241601
 20
194.771196
 30
0.0
 10
117.022527
 20
195.102190
 30
0.0
 10
116.949502
 20
195.478162
 30
0.0
 10
117.022527
 20
195.854135
 30
0.0
 10
117.241601
 20
196.185129
 30
0.0
 10
117.566507
 20
196.402087
 30
0.0
 10
117.949626
 20
196.478287
 30
0.0
 10
118.331681
 20
196.402087
 30
0.0
 10
118.656590
 20
196.185129
 30
0.0
 10
118.875664
 20
195.854135
 30
0.0
 10
118.949483
 20
195.478162
 30
0.0
 10
118.875664
 20
195.102190
 30
0.0
 10
118.656590
 20
194.771196
 30
0.0
 10
118.331681
 20
194.554238
 30
0.0
  0
LWPOLYLINE
  5
116
100
AcDbEntity
  8
Layer_1
 62
1
100
AcDbPolyline
 90
2
 70
0
 10
176.422169
 20
100.456409
 30
0.0
 10
178.330073
 20
105.469461
 30
0.0
  0
LWPOLYLINE
  5
117
100
AcDbEntity
  8
Layer_1
 62
1
100
AcDbPolyline
 90
2
 70
0
 10
176.422169
 20
100.456409
 30
0.0
 10
174.513469
 20
105.469461
 30
0.0
  0
LWPOLYLINE
  5
118
100
AcDbEntity
  8
Layer_1
 62
1
100
AcDbPolyline
 90
2
 70
0
 10
177.618349
 20
103.803383
 30
0.0
 10
175.225459
 20
103.803383
 30
0.0
  0
LWPOLYLINE
  5
119
100
AcDbEntity
  8
Layer_1
 62
1
100
AcDbPolyline
 90
2
 70
0
 10
176.442277
 20
99.915339
 30
0.0
 10
176.442277
 20
97.258398
 30
0.0
  0
LWPOLYLINE
  5
11a
100
AcDbEntity
  8
Layer_1
 62
1
100
AcDbPolyline
 90
2
 70
0
 10
158.037629
 20
104.131467
 30
0.0
 10
158.037629
 20
109.144254
 30
0.0
  0
LWPOLYLINE
  5
11b
100
AcDbEntity
  8
Layer_1
 62
1
100
AcDbPolyline
 90
9
 70
0
 10
158.037629
 20
104.131467
 30
0.0
 10
155.887632
 20
104.131467
 30
0.0
 10
155.175903
 20
104.373558
 30
0.0
 10
154.933545
 20
104.615916
 30
0.0
 10
154.691186
 20
105.085551
 30
0.0
 10
154.690657
 20
105.570267
 30
0.0
 10
154.932751
 20
106.039902
 30
0.0
 10
155.175106
 20
106.282260
 30
0.0
 10
155.886835
 20
106.524354
 30
0.0
  0
LWPOLYLINE
  5
11c
100
AcDbEntity
  8
Layer_1
 62
1
100
AcDbPolyline
 90
10
 70
0
 10
158.037629
 20
106.524354
 30
0.0
 10
155.887632
 20
106.524354
 30
0.0
 10
155.175903
 20
106.759039
 30
0.0
 10
154.933545
 20
106.993725
 30
0.0
 10
154.691186
 20
107.478438
 30
0.0
 10
154.690657
 20
108.190432
 30
0.0
 10
154.932751
 20
108.667475
 30
0.0
 10
155.175106
 20
108.905862
 30
0.0
 10
155.886835
 20
109.144516
 30
0.0
 10
158.037629
 20
109.144254
 30
0.0
  0
LWPOLYLINE
  5
11d
100
AcDbEntity
  8
Layer_1
 62
1
100
AcDbPolyline
 90
18
 70
0
 10
132.475485
 20
119.930238
 30
0.0
 10
132.717846
 20
119.453459
 30
0.0
 10
133.194889
 20
118.976416
 30
0.0
 10
133.671930
 20
118.734057
 30
0.0
 10
134.625488
 20
118.734322
 30
0.0
 10
135.102531
 20
118.976680
 30
0.0
 10
135.579575
 20
119.453724
 30
0.0
 10
135.821930
 20
119.930767
 30
0.0
 10
136.056618
 20
120.642493
 30
0.0
 10
136.056618
 20
121.838409
 30
0.0
 10
135.821930
 20
122.550135
 30
0.0
 10
135.579575
 20
123.030885
 30
0.0
 10
135.102531
 20
123.507929
 30
0.0
 10
134.625488
 20
123.746577
 30
0.0
 10
133.671666
 20
123.746315
 30
0.0
 10
133.194622
 20
123.507929
 30
0.0
 10
132.717581
 20
123.030885
 30
0.0
 10
132.475223
 20
122.550135
 30
0.0
  0
LWPOLYLINE
  5
11e
100
AcDbEntity
  8
Layer_1
 62
1
100
AcDbPolyline
 90
2
 70
0
 10
124.116522
 20
135.357270
 30
0.0
 10
124.116522
 20
140.369261
 30
0.0
  0
LWPOLYLINE
  5
11f
100
AcDbEntity
  8
Layer_1
 62
1
100
AcDbPolyline
 90
12
 70
0
 10
124.116522
 20
135.357270
 30
0.0
 10
122.442505
 20
135.357270
 30
0.0
 10
121.723370
 20
135.599628
 30
0.0
 10
121.253733
 20
136.076671
 30
0.0
 10
121.011642
 20
136.553712
 30
0.0
 10
120.769286
 20
137.265438
 30
0.0
 10
120.769548
 20
138.461357
 30
0.0
 10
121.011909
 20
139.173083
 30
0.0
 10
121.254264
 20
139.653830
 30
0.0
 10
121.723632
 20
140.130874
 30
0.0
 10
122.443034
 20
140.369528
 30
0.0
 10
124.116522
 20
140.369263
 30
0.0
  0
LWPOLYLINE
  5
120
100
AcDbEntity
  8
Layer_1
 62
1
100
AcDbPolyline
 90
2
 70
0
 10
118.048577
 20
159.965327
 30
0.0
 10
118.048577
 20
164.978379
 30
0.0
  0
LWPOLYLINE
  5
121
100
AcDbEntity
  8
Layer_1
 62
1
100
AcDbPolyline
 90
2
 70
0
 10
118.048577
 20
159.965327
 30
0.0
 10
114.943699
 20
159.965327
 30
0.0
  0
LWPOLYLINE
  5
122
100
AcDbEntity
  8
Layer_1
 62
1
100
AcDbPolyline
 90
2
 70
0
 10
118.048577
 20
162.358212
 30
0.0
 10
116.140674
 20
162.358212
 30
0.0
  0
LWPOLYLINE
  5
123
100
AcDbEntity
  8
Layer_1
 62
1
100
AcDbPolyline
 90
2
 70
0
 10
118.048577
 20
164.978379
 30
0.0
 10
114.943699
 20
164.978379
 30
0.0
  0
LWPOLYLINE
  5
124
100
AcDbEntity
  8
Layer_1
 62
1
100
AcDbPolyline
 90
2
 70
0
 10
154.586676
 20
101.512360
 30
0.0
 10
155.433607
 20
103.750205
 30
0.0
  0
LWPOLYLINE
  5
125
100
AcDbEntity
  8
Layer_1
 62
1
100
AcDbPolyline
 90
2
 70
0
 10
132.523639
 20
118.782476
 30
0.0
 10
130.846187
 20
117.076182
 30
0.0
  0
LWPOLYLINE
  5
126
100
AcDbEntity
  8
Layer_1
 62
1
100
AcDbPolyline
 90
2
 70
0
 10
120.327697
 20
136.815382
 30
0.0
 10
118.141711
 20
135.842251
 30
0.0
  0
LWPOLYLINE
  5
127
100
AcDbEntity
  8
Layer_1
 62
1
100
AcDbPolyline
 90
2
 70
0
 10
114.906658
 20
163.366274
 30
0.0
 10
112.514037
 20
163.374211
 30
0.0
  0
LWPOLYLINE
  5
128
100
AcDbEntity
  8
Layer_1
 62
7
100
AcDbPolyline
 90
232
 70
1
 10
125.815808
 20
89.730102
 30
0.0
 10
126.014332
 20
90.953511
 30
0.0
 10
126.630012
 20
91.910518
 30
0.0
 10
127.610475
 20
92.624896
 30
0.0
 10
128.903348
 20
93.120677
 30
0.0
 10
130.456766
 20
93.422167
 30
0.0
 10
132.218622
 20
93.553403
 30
0.0
 10
136.158398
 20
93.400992
 30
0.0
 10
140.305752
 20
92.856274
 30
0.0
 10
144.243250
 20
92.111284
 30
0.0
 10
149.819941
 20
90.791247
 30
0.0
 10
155.803870
 20
89.460775
 30
0.0
 10
161.081436
 20
88.681953
 30
0.0
 10
165.713279
 20
88.390695
 30
0.0
 10
169.760552
 20
88.523460
 30
0.0
 10
173.283895
 20
89.015902
 30
0.0
 10
176.344469
 20
89.804209
 30
0.0
 10
179.003162
 20
90.824836
 30
0.0
 10
181.320889
 20
92.013171
 30
0.0
 10
183.358264
 20
93.305933
 30
0.0
 10
185.176191
 20
94.639040
 30
0.0
 10
187.547745
 20
96.397500
 30
0.0
 10
189.828489
 20
98.295352
 30
0.0
 10
192.011509
 20
100.321607
 30
0.0
 10
194.089112
 20
102.464720
 30
0.0
 10
196.054644
 20
104.713700
 30
0.0
 10
197.900414
 20
107.057005
 30
0.0
 10
199.619257
 20
109.483100
 30
0.0
 10
201.203988
 20
111.981249
 30
0.0
 10
202.647715
 20
114.539671
 30
0.0
 10
203.942728
 20
117.147336
 30
0.0
 10
205.081862
 20
119.792726
 30
0.0
 10
206.058206
 20
122.464839
 30
0.0
 10
206.864335
 20
125.151877
 30
0.0
 10
207.492797
 20
127.843089
 30
0.0
 10
207.936696
 20
130.526955
 30
0.0
 10
208.188862
 20
133.192212
 30
0.0
 10
208.300889
 20
135.376291
 30
0.0
 10
208.710141
 20
137.421640
 30
0.0
 10
209.382966
 20
139.317220
 30
0.0
 10
210.285485
 20
141.050935
 30
0.0
 10
211.384056
 20
142.612024
 30
0.0
 10
212.645310
 20
143.988920
 30
0.0
 10
214.035351
 20
145.170064
 30
0.0
 10
215.520813
 20
146.144156
 30
0.0
 10
217.067537
 20
146.899631
 30
0.0
 10
218.642680
 20
147.424940
 30
0.0
 10
220.211820
 20
147.709030
 30
0.0
 10
221.741582
 20
147.740349
 30
0.0
 10
223.198604
 20
147.507336
 30
0.0
 10
224.548981
 20
146.998958
 30
0.0
 10
225.759097
 20
146.203121
 30
0.0
 10
226.795308
 20
145.108792
 30
0.0
 10
227.254045
 20
144.215808
 30
0.0
 10
227.691956
 20
142.806066
 30
0.0
 10
228.507986
 20
138.573186
 30
0.0
 10
229.246647
 20
132.681741
 30
0.0
 10
229.911717
 20
125.403342
 30
0.0
 10
231.034359
 20
107.771509
 30
0.0
 10
231.903779
 20
87.849392
 30
0.0
 10
232.547835
 20
67.809506
 30
0.0
 10
232.994393
 20
49.823825
 30
0.0
 10
233.405418
 20
28.703054
 30
0.0
 10
233.243197
 20
25.364305
 30
0.0
 10
232.651682
 20
22.265110
 30
0.0
 10
231.693351
 20
19.467223
 30
0.0
 10
230.429347
 20
17.032370
 30
0.0
 10
228.922149
 20
15.022278
 30
0.0
 10
227.233423
 20
13.498756
 30
0.0
 10
225.424862
 20
12.523476
 30
0.0
 10
224.495178
 20
12.260745
 30
0.0
 10
223.558662
 20
12.158219
 30
0.0
 10
221.189682
 20
12.328689
 30
0.0
 10
218.002802
 20
12.844150
 30
0.0
 10
210.540774
 20
14.465728
 30
0.0
 10
200.819803
 20
16.960482
 30
0.0
 10
199.870674
 20
16.891267
 30
0.0
 10
199.508754
 20
17.011176
 30
0.0
 10
199.340603
 20
17.353521
 30
0.0
 10
199.007353
 20
22.595892
 30
0.0
 10
196.501396
 20
22.448757
 30
0.0
 10
196.044707
 20
22.444789
 30
0.0
 10
196.022429
 20
21.584232
 30
0.0
 10
195.867097
 20
21.233421
 30
0.0
 10
195.509336
 20
21.094250
 30
0.0
 10
193.761473
 20
21.127006
 30
0.0
 10
193.411556
 20
21.279988
 30
0.0
 10
193.274595
 20
21.636699
 30
0.0
 10
193.296053
 20
22.461563
 30
0.0
 10
190.335190
 20
22.613910
 30
0.0
 10
190.238662
 20
21.760577
 30
0.0
 10
190.053380
 20
21.424450
 30
0.0
 10
189.685159
 20
21.316765
 30
0.0
 10
187.946507
 20
21.502238
 30
0.0
 10
187.611042
 20
21.684985
 30
0.0
 10
187.505880
 20
22.052147
 30
0.0
 10
187.599157
 20
22.871826
 30
0.0
 10
184.661820
 20
23.275368
 30
0.0
 10
184.492395
 20
22.440132
 30
0.0
 10
184.278693
 20
22.121389
 30
0.0
 10
183.902377
 20
22.046194
 30
0.0
 10
182.186465
 20
22.382532
 30
0.0
 10
181.868129
 20
22.593775
 30
0.0
 10
181.795091
 20
22.968663
 30
0.0
 10
181.959045
 20
23.774822
 30
0.0
 10
179.068903
 20
24.436809
 30
0.0
 10
178.826883
 20
23.618109
 30
0.0
 10
178.586298
 20
23.319262
 30
0.0
 10
178.205041
 20
23.277247
 30
0.0
 10
176.524899
 20
23.761645
 30
0.0
 10
176.226372
 20
23.999691
 30
0.0
 10
176.186579
 20
24.379421
 30
0.0
 10
176.418235
 20
25.162719
 30
0.0
 10
173.596889
 20
26.075266
 30
0.0
 10
173.285723
 20
25.285089
 30
0.0
 10
173.020053
 20
25.008520
 30
0.0
 10
172.636508
 20
24.999789
 30
0.0
 10
171.005445
 20
25.628412
 30
0.0
 10
170.728614
 20
25.891752
 30
0.0
 10
170.721868
 20
26.273651
 30
0.0
 10
171.021466
 20
27.035174
 30
0.0
 10
168.289274
 20
28.186852
 30
0.0
 10
167.911531
 20
27.428874
 30
0.0
 10
167.622593
 20
27.176356
 30
0.0
 10
167.239659
 20
27.201227
 30
0.0
 10
165.669152
 20
27.969682
 30
0.0
 10
165.416441
 20
28.256225
 30
0.0
 10
165.443042
 20
28.637358
 30
0.0
 10
165.805550
 20
29.365067
 30
0.0
 10
163.185568
 20
30.754287
 30
0.0
 10
162.743804
 20
30.032663
 30
0.0
 10
162.434197
 20
29.806392
 30
0.0
 10
162.054793
 20
29.864574
 30
0.0
 10
160.557392
 20
30.767384
 30
0.0
 10
160.330708
 20
31.074671
 30
0.0
 10
160.390472
 20
31.451808
 30
0.0
 10
160.814069
 20
32.144090
 30
0.0
 10
158.321789
 20
33.751575
 30
0.0
 10
157.823446
 20
33.077359
 30
0.0
 10
157.494995
 20
32.878705
 30
0.0
 10
157.122312
 20
32.969457
 30
0.0
 10
155.709027
 20
33.999159
 30
0.0
 10
155.510000
 20
34.325089
 30
0.0
 10
155.602191
 20
34.695711
 30
0.0
 10
156.084590
 20
35.347890
 30
0.0
 10
153.743907
 20
37.169953
 30
0.0
 10
153.186695
 20
36.538896
 30
0.0
 10
152.842004
 20
36.369906
 30
0.0
 10
152.478427
 20
36.492943
 30
0.0
 10
151.160803
 20
37.641919
 30
0.0
 10
150.990808
 20
37.983946
 30
0.0
 10
151.114961
 20
38.344898
 30
0.0
 10
151.647631
 20
38.947647
 30
0.0
 10
149.477390
 20
40.969097
 30
0.0
 10
148.869296
 20
40.391480
 30
0.0
 10
148.511254
 20
40.252905
 30
0.0
 10
148.159718
 20
40.407424
 30
0.0
 10
146.947470
 20
41.666607
 30
0.0
 10
146.807886
 20
42.022241
 30
0.0
 10
146.962987
 20
42.371414
 30
0.0
 10
147.548245
 20
42.927640
 30
0.0
 10
145.558170
 20
45.126773
 30
0.0
 10
144.904149
 20
44.605875
 30
0.0
 10
144.535384
 20
44.499094
 30
0.0
 10
144.198829
 20
44.683308
 30
0.0
 10
143.100616
 20
46.043879
 30
0.0
 10
142.992825
 20
46.410245
 30
0.0
 10
143.177887
 20
46.744170
 30
0.0
 10
143.806664
 20
47.244949
 30
0.0
 10
142.019452
 20
49.612190
 30
0.0
 10
141.321582
 20
49.149908
 30
0.0
 10
140.944977
 20
49.075780
 30
0.0
 10
140.626075
 20
49.288682
 30
0.0
 10
139.650335
 20
50.739439
 30
0.0
 10
139.574661
 20
51.113896
 30
0.0
 10
139.788143
 20
51.430427
 30
0.0
 10
140.457041
 20
51.873569
 30
0.0
 10
138.878490
 20
54.385220
 30
0.0
 10
138.148270
 20
53.988417
 30
0.0
 10
137.766997
 20
53.947266
 30
0.0
 10
137.467635
 20
54.187312
 30
0.0
 10
136.622003
 20
55.717571
 30
0.0
 10
136.579300
 20
56.097224
 30
0.0
 10
136.819660
 20
56.394211
 30
0.0
 10
137.525282
 20
56.777793
 30
0.0
 10
136.173707
 20
59.418365
 30
0.0
 10
135.409061
 20
59.085141
 30
0.0
 10
135.025498
 20
59.077283
 30
0.0
 10
134.748098
 20
59.342405
 30
0.0
 10
134.039423
 20
60.941197
 30
0.0
 10
134.030030
 20
61.322874
 30
0.0
 10
134.295206
 20
61.597892
 30
0.0
 10
135.026554
 20
61.916122
 30
0.0
 10
133.914026
 20
64.665758
 30
0.0
 10
133.124637
 20
64.401347
 30
0.0
 10
132.741680
 20
64.427382
 30
0.0
 10
132.488399
 20
64.715772
 30
0.0
 10
131.921469
 20
66.369433
 30
0.0
 10
131.945414
 20
66.750760
 30
0.0
 10
132.233857
 20
67.001659
 30
0.0
 10
132.992764
 20
67.255897
 30
0.0
 10
132.119258
 20
70.090514
 30
0.0
 10
131.311970
 20
69.896649
 30
0.0
 10
130.932812
 20
69.955580
 30
0.0
 10
130.705556
 20
70.264898
 30
0.0
 10
130.285107
 20
71.962147
 30
0.0
 10
130.342220
 20
72.339680
 30
0.0
 10
130.651068
 20
72.564277
 30
0.0
 10
131.428328
 20
72.751425
 30
0.0
 10
130.808540
 20
75.652280
 30
0.0
 10
129.985199
 20
75.528997
 30
0.0
 10
129.612761
 20
75.620620
 30
0.0
 10
129.413427
 20
75.948528
 30
0.0
 10
129.142131
 20
77.675928
 30
0.0
 10
129.231931
 20
78.047001
 30
0.0
 10
129.559358
 20
78.243944
 30
0.0
 10
130.348657
 20
78.362540
 30
0.0
 10
129.981741
 20
81.306592
 30
0.0
 10
129.154498
 20
81.255471
 30
0.0
 10
128.791170
 20
81.379310
 30
0.0
 10
128.621395
 20
81.723453
 30
0.0
 10
128.539869
 20
82.912090
 30
0.0
 10
128.526296
 20
83.541385
 30
0.0
 10
128.662072
 20
83.853361
 30
0.0
 10
128.967070
 20
83.997167
 30
0.0
 10
129.766034
 20
84.046628
 30
0.0
 10
129.661588
 20
86.518292
 30
0.0
 10
129.669525
 20
87.018897
 30
0.0
 10
128.452077
 20
87.048438
 30
0.0
 10
128.436149
 20
87.800484
 30
0.0
 10
125.838202
 20
89.373838
 30
0.0
 10
125.815580
 20
89.729832
 30
0.0
  0
LWPOLYLINE
  5
129
100
AcDbEntity
  8
Layer_1
 62
7
100
AcDbPolyline
 90
32
 70
1
 10
187.645339
 20
87.747617
 30
0.0
 10
187.829683
 20
86.239885
 30
0.0
 10
188.296468
 20
84.841605
 30
0.0
 10
189.014624
 20
83.582552
 30
0.0
 10
189.953888
 20
82.492260
 30
0.0
 10
191.082942
 20
81.600229
 30
0.0
 10
192.371255
 20
80.935985
 30
0.0
 10
193.787770
 20
80.528778
 30
0.0
 10
195.302217
 20
80.408395
 30
0.0
 10
196.768834
 20
80.584724
 30
0.0
 10
198.159692
 20
81.039706
 30
0.0
 10
199.435718
 20
81.756108
 30
0.0
 10
200.557850
 20
82.716690
 30
0.0
 10
201.470093
 20
83.878454
 30
0.0
 10
202.131860
 20
85.183650
 30
0.0
 10
202.527857
 20
86.592254
 30
0.0
 10
202.641974
 20
88.065019
 30
0.0
 10
202.465640
 20
89.531903
 30
0.0
 10
202.010657
 20
90.922761
 30
0.0
 10
201.294259
 20
92.198787
 30
0.0
 10
200.333668
 20
93.321178
 30
0.0
 10
199.171640
 20
94.233418
 30
0.0
 10
197.866444
 20
94.895186
 30
0.0
 10
196.457583
 20
95.290912
 30
0.0
 10
194.984818
 20
95.405030
 30
0.0
 10
193.518202
 20
95.228439
 30
0.0
 10
192.127349
 20
94.773456
 30
0.0
 10
190.851323
 20
94.057055
 30
0.0
 10
189.729191
 20
93.096475
 30
0.0
 10
188.816951
 20
91.934442
 30
0.0
 10
188.155448
 20
90.629253
 30
0.0
 10
187.759721
 20
89.220390
 30
0.0
  0
LWPOLYLINE
  5
12a
100
AcDbEntity
  8
Layer_1
 62
7
100
AcDbPolyline
 90
4
 70
1
 10
202.311303
 20
80.056304
 30
0.0
 10
202.438250
 20
74.058230
 30
0.0
 10
205.437419
 20
74.121706
 30
0.0
 10
205.310470
 20
80.119780
 30
0.0
  0
LWPOLYLINE
  5
12b
100
AcDbEntity
  8
Layer_1
 62
7
100
AcDbPolyline
 90
4
 70
1
 10
202.607536
 20
66.059833
 30
0.0
 10
202.734499
 20
60.060966
 30
0.0
 10
205.733668
 20
60.124442
 30
0.0
 10
205.606702
 20
66.123307
 30
0.0
  0
LWPOLYLINE
  5
12c
100
AcDbEntity
  8
Layer_1
 62
7
100
AcDbPolyline
 90
16
 70
1
 10
203.180102
 20
53.098931
 30
0.0
 10
203.264379
 20
52.718042
 30
0.0
 10
203.487889
 20
52.398322
 30
0.0
 10
203.817049
 20
52.188283
 30
0.0
 10
204.201157
 20
52.120460
 30
0.0
 10
204.582316
 20
52.204478
 30
0.0
 10
204.902030
 20
52.428252
 30
0.0
 10
205.112075
 20
52.757148
 30
0.0
 10
205.179895
 20
53.141521
 30
0.0
 10
205.095880
 20
53.522415
 30
0.0
 10
204.872100
 20
53.842396
 30
0.0
 10
204.543210
 20
54.052176
 30
0.0
 10
204.158832
 20
54.120259
 30
0.0
 10
203.777943
 20
54.035978
 30
0.0
 10
203.457959
 20
53.812467
 30
0.0
 10
203.248182
 20
53.483309
 30
0.0
  0
LWPOLYLINE
  5
12d
100
AcDbEntity
  8
Layer_1
 62
7
100
AcDbPolyline
 90
32
 70
1
 10
206.678516
 20
35.138015
 30
0.0
 10
206.786741
 20
34.238403
 30
0.0
 10
207.065736
 20
33.385308
 30
0.0
 10
207.505198
 20
32.602612
 30
0.0
 10
208.094305
 20
31.914220
 30
0.0
 10
208.806918
 20
31.354706
 30
0.0
 10
209.607319
 20
30.948809
 30
0.0
 10
210.471485
 20
30.706080
 30
0.0
 10
211.374867
 20
30.635966
 30
0.0
 10
212.274476
 20
30.744260
 30
0.0
 10
213.127333
 20
31.023316
 30
0.0
 10
213.910108
 20
31.462709
 30
0.0
 10
214.598410
 20
32.051883
 30
0.0
 10
215.157866
 20
32.764511
 30
0.0
 10
215.563821
 20
33.565034
 30
0.0
 10
215.806468
 20
34.429120
 30
0.0
 10
215.876535
 20
35.332423
 30
0.0
 10
215.768312
 20
36.231955
 30
0.0
 10
215.489323
 20
37.085022
 30
0.0
 10
215.049863
 20
37.867532
 30
0.0
 10
214.460756
 20
38.555837
 30
0.0
 10
213.748138
 20
39.115557
 30
0.0
 10
212.947478
 20
39.521245
 30
0.0
 10
212.083571
 20
39.764162
 30
0.0
 10
211.180189
 20
39.834226
 30
0.0
 10
210.280580
 20
39.726001
 30
0.0
 10
209.427463
 20
39.446744
 30
0.0
 10
208.644948
 20
39.007549
 30
0.0
 10
207.956651
 20
38.418177
 30
0.0
 10
207.397190
 20
37.705829
 30
0.0
 10
206.991240
 20
36.905163
 30
0.0
 10
206.748582
 20
36.041238
 30
0.0
  0
LWPOLYLINE
  5
12e
100
AcDbEntity
  8
Layer_1
 62
7
100
AcDbPolyline
 90
4
 70
1
 10
221.973200
 20
143.486365
 30
0.0
 10
222.100161
 20
137.487765
 30
0.0
 10
225.099856
 20
137.551252
 30
0.0
 10
224.972896
 20
143.549855
 30
0.0
  0
LWPOLYLINE
  5
12f
100
AcDbEntity
  8
Layer_1
 62
7
100
AcDbPolyline
 90
4
 70
1
 10
222.481041
 20
119.491697
 30
0.0
 10
222.607999
 20
113.493094
 30
0.0
 10
225.607697
 20
113.556583
 30
0.0
 10
225.480737
 20
119.555183
 30
0.0
  0
LWPOLYLINE
  5
130
100
AcDbEntity
  8
Layer_1
 62
7
100
AcDbPolyline
 90
4
 70
1
 10
223.200469
 20
85.499888
 30
0.0
 10
223.327435
 20
79.501023
 30
0.0
 10
226.327131
 20
79.564512
 30
0.0
 10
226.200165
 20
85.563375
 30
0.0
  0
LWPOLYLINE
  5
131
100
AcDbEntity
  8
Layer_1
 62
7
100
AcDbPolyline
 90
4
 70
1
 10
223.602509
 20
66.504185
 30
0.0
 10
223.729472
 20
60.505317
 30
0.0
 10
226.729167
 20
60.568807
 30
0.0
 10
226.602205
 20
66.567672
 30
0.0
  0
LWPOLYLINE
  5
132
100
AcDbEntity
  8
Layer_1
 62
7
100
AcDbPolyline
 90
4
 70
1
 10
224.554712
 20
21.514144
 30
0.0
 10
224.681664
 20
15.515858
 30
0.0
 10
227.681360
 20
15.579358
 30
0.0
 10
227.554408
 20
21.577644
 30
0.0
  0
LWPOLYLINE
  5
133
100
AcDbEntity
  8
Layer_1
 62
7
100
AcDbPolyline
 90
16
 70
1
 10
228.447048
 20
28.879848
 30
0.0
 10
228.531331
 20
28.498663
 30
0.0
 10
228.754845
 20
28.178756
 30
0.0
 10
229.090143
 20
27.966269
 30
0.0
 10
229.467847
 20
27.901049
 30
0.0
 10
229.842449
 20
27.982170
 30
0.0
 10
230.168460
 20
28.208680
 30
0.0
 10
230.378499
 20
28.537636
 30
0.0
 10
230.446320
 20
28.921890
 30
0.0
 10
230.362304
 20
29.302943
 30
0.0
 10
230.138530
 20
29.622745
 30
0.0
 10
229.803230
 20
29.835231
 30
0.0
 10
229.425529
 20
29.900425
 30
0.0
 10
229.050924
 20
29.819303
 30
0.0
 10
228.724916
 20
29.592820
 30
0.0
 10
228.515135
 20
29.263970
 30
0.0
  0
LWPOLYLINE
  5
134
100
AcDbEntity
  8
Layer_1
 62
1
100
AcDbPolyline
 90
16
 70
1
 10
133.238379
 20
85.296453
 30
0.0
 10
133.439846
 20
84.742852
 30
0.0
 10
134.005226
 20
84.375322
 30
0.0
 10
134.946057
 20
84.211307
 30
0.0
 10
135.503407
 20
84.223108
 30
0.0
 10
136.436459
 20
84.426784
 30
0.0
 10
136.988956
 20
84.817973
 30
0.0
 10
137.163915
 20
85.379278
 30
0.0
 10
137.155474
 20
85.753036
 30
0.0
 10
136.956802
 20
86.312254
 30
0.0
 10
136.388760
 20
86.668084
 30
0.0
 10
135.447802
 20
86.837917
 30
0.0
 10
134.890187
 20
86.826116
 30
0.0
 10
133.957521
 20
86.616627
 30
0.0
 10
133.407691
 20
86.237138
 30
0.0
 10
133.229947
 20
85.669952
 30
0.0
  0
LWPOLYLINE
  5
135
100
AcDbEntity
  8
Layer_1
 62
1
100
AcDbPolyline
 90
4
 70
0
 10
135.964292
 20
72.050060
 30
0.0
 10
135.712356
 20
72.374999
 30
0.0
 10
135.050112
 20
72.818020
 30
0.0
 10
138.901430
 20
73.581517
 30
0.0
  0
LWPOLYLINE
  5
136
100
AcDbEntity
  8
Layer_1
 62
1
100
AcDbPolyline
 90
16
 70
1
 10
134.396758
 20
76.116719
 30
0.0
 10
134.691245
 20
75.606899
 30
0.0
 10
135.312121
 20
75.342958
 30
0.0
 10
136.266909
 20
75.344811
 30
0.0
 10
136.814017
 20
75.452983
 30
0.0
 10
137.697391
 20
75.815716
 30
0.0
 10
138.173350
 20
76.297117
 30
0.0
 10
138.248078
 20
76.880118
 30
0.0
 10
138.175482
 20
77.246695
 30
0.0
 10
137.882708
 20
77.763167
 30
0.0
 10
137.261292
 20
78.014920
 30
0.0
 10
136.305321
 20
78.018783
 30
0.0
 10
135.758488
 20
77.910352
 30
0.0
 10
134.876022
 20
77.542081
 30
0.0
 10
134.400865
 20
77.072869
 30
0.0
 10
134.324162
 20
76.483211
 30
0.0
  0
LWPOLYLINE
  5
137
100
AcDbEntity
  8
Layer_1
 62
1
100
AcDbPolyline
 90
14
 70
0
 10
139.652690
 20
62.043146
 30
0.0
 10
139.475779
 20
61.974299
 30
0.0
 10
139.064389
 20
62.018257
 30
0.0
 10
138.818626
 20
62.126585
 30
0.0
 10
138.508754
 20
62.400545
 30
0.0
 10
138.238366
 20
63.097182
 30
0.0
 10
138.277849
 20
63.519859
 30
0.0
 10
138.388419
 20
63.759852
 30
0.0
 10
138.664609
 20
64.064474
 30
0.0
 10
139.018444
 20
64.201637
 30
0.0
 10
139.427857
 20
64.163460
 30
0.0
 10
140.088286
 20
64.018918
 30
0.0
 10
142.505851
 20
62.953296
 30
0.0
 10
141.559490
 20
65.391528
 30
0.0
  0
LWPOLYLINE
  5
138
100
AcDbEntity
  8
Layer_1
 62
1
100
AcDbPolyline
 90
16
 70
1
 10
137.087164
 20
66.060894
 30
0.0
 10
137.465889
 20
65.609756
 30
0.0
 10
138.123036
 20
65.457732
 30
0.0
 10
139.062939
 20
65.625295
 30
0.0
 10
139.582660
 20
65.827103
 30
0.0
 10
140.389866
 20
66.337479
 30
0.0
 10
140.775046
 20
66.894236
 30
0.0
 10
140.747527
 20
67.481687
 30
0.0
 10
140.612333
 20
67.830006
 30
0.0
 10
140.234270
 20
68.287507
 30
0.0
 10
139.578696
 20
68.427654
 30
0.0
 10
138.636301
 20
68.265332
 30
0.0
 10
138.116575
 20
68.063789
 30
0.0
 10
137.311608
 20
67.547640
 30
0.0
 10
136.925107
 20
67.003295
 30
0.0
 10
136.951970
 20
66.409213
 30
0.0
  0
LWPOLYLINE
  5
139
100
AcDbEntity
  8
Layer_1
 62
1
100
AcDbPolyline
 90
15
 70
0
 10
143.945385
 20
52.042932
 30
0.0
 10
142.881959
 20
53.798023
 30
0.0
 10
144.737978
 20
53.618977
 30
0.0
 10
144.448953
 20
54.095830
 30
0.0
 10
144.417875
 20
54.513837
 30
0.0
 10
144.484714
 20
54.769308
 30
0.0
 10
144.863128
 20
55.220594
 30
0.0
 10
145.182689
 20
55.414195
 30
0.0
 10
145.760603
 20
55.542338
 30
0.0
 10
146.270743
 20
55.421608
 30
0.0
 10
146.722436
 20
55.036322
 30
0.0
 10
147.014478
 20
54.554503
 30
0.0
 10
147.143592
 20
53.980845
 30
0.0
 10
147.082119
 20
53.721781
 30
0.0
 10
146.857718
 20
53.370883
 30
0.0
  0
LWPOLYLINE
  5
13a
100
AcDbEntity
  8
Layer_1
 62
1
100
AcDbPolyline
 90
16
 70
1
 10
141.621643
 20
55.877901
 30
0.0
 10
142.072927
 20
55.499489
 30
0.0
 10
142.746405
 20
55.463725
 30
0.0
 10
143.643210
 20
55.792073
 30
0.0
 10
144.120065
 20
56.081095
 30
0.0
 10
144.826018
 20
56.724035
 30
0.0
 10
145.108871
 20
57.338963
 30
0.0
 10
144.979759
 20
57.912619
 30
0.0
 10
144.786159
 20
58.232180
 30
0.0
 10
144.334198
 20
58.617458
 30
0.0
 10
143.664413
 20
58.641403
 30
0.0
 10
142.764595
 20
58.318022
 30
0.0
 10
142.287734
 20
58.029261
 30
0.0
 10
141.584530
 20
57.381355
 30
0.0
 10
141.298262
 20
56.777735
 30
0.0
 10
141.428043
 20
56.197475
 30
0.0
  0
LWPOLYLINE
  5
13b
100
AcDbEntity
  8
Layer_1
 62
1
100
AcDbPolyline
 90
3
 70
0
 10
149.888237
 20
44.688340
 30
0.0
 10
153.091276
 20
45.009920
 30
0.0
 10
151.243070
 20
47.120492
 30
0.0
  0
LWPOLYLINE
  5
13c
100
AcDbEntity
  8
Layer_1
 62
1
100
AcDbPolyline
 90
2
 70
0
 10
149.888237
 20
44.688340
 30
0.0
 10
152.841943
 20
47.275008
 30
0.0
  0
LWPOLYLINE
  5
13d
100
AcDbEntity
  8
Layer_1
 62
1
100
AcDbPolyline
 90
16
 70
1
 10
147.919347
 20
46.936879
 30
0.0
 10
148.429456
 20
46.642543
 30
0.0
 10
149.098859
 20
46.724194
 30
0.0
 10
149.924988
 20
47.203216
 30
0.0
 10
150.344344
 20
47.570680
 30
0.0
 10
150.928031
 20
48.326414
 30
0.0
 10
151.099687
 20
48.981067
 30
0.0
 10
150.873050
 20
49.523550
 30
0.0
 10
150.626808
 20
49.804680
 30
0.0
 10
150.114972
 20
50.105596
 30
0.0
 10
149.451090
 20
50.012944
 30
0.0
 10
148.621165
 20
49.538345
 30
0.0
 10
148.201544
 20
49.170874
 30
0.0
 10
147.621659
 20
48.410721
 30
0.0
 10
147.444481
 20
47.766802
 30
0.0
 10
147.673108
 20
47.217747
 30
0.0
  0
LWPOLYLINE
  5
13e
100
AcDbEntity
  8
Layer_1
 62
1
100
AcDbPolyline
 90
17
 70
0
 10
157.451069
 20
37.966385
 30
0.0
 10
158.907552
 20
36.796002
 30
0.0
 10
160.110485
 20
37.990121
 30
0.0
 10
159.843814
 20
37.960924
 30
0.0
 10
159.294029
 20
38.166823
 30
0.0
 10
158.854664
 20
38.519819
 30
0.0
 10
158.530823
 20
39.016050
 30
0.0
 10
158.481840
 20
39.542446
 30
0.0
 10
158.683164
 20
40.095838
 30
0.0
 10
158.917291
 20
40.387136
 30
0.0
 10
159.416295
 20
40.704945
 30
0.0
 10
159.937143
 20
40.765987
 30
0.0
 10
160.493313
 20
40.558633
 30
0.0
 10
160.932415
 20
40.205632
 30
0.0
 10
161.250134
 20
39.710864
 30
0.0
 10
161.280876
 20
39.446342
 30
0.0
 10
161.190238
 20
39.039786
 30
0.0
  0
LWPOLYLINE
  5
13f
100
AcDbEntity
  8
Layer_1
 62
1
100
AcDbPolyline
 90
16
 70
1
 10
155.411988
 20
39.605028
 30
0.0
 10
155.965382
 20
39.403707
 30
0.0
 10
156.610650
 20
39.600496
 30
0.0
 10
157.341011
 20
40.215630
 30
0.0
 10
157.690139
 20
40.650153
 30
0.0
 10
158.134043
 20
41.495816
 30
0.0
 10
158.189098
 20
42.170495
 30
0.0
 10
157.871640
 20
42.665274
 30
0.0
 10
157.580345
 20
42.899403
 30
0.0
 10
157.024175
 20
43.106757
 30
0.0
 10
156.386522
 20
42.900337
 30
0.0
 10
155.651322
 20
42.288804
 30
0.0
 10
155.302199
 20
41.854017
 30
0.0
 10
154.863139
 20
41.004750
 30
0.0
 10
154.800459
 20
40.339963
 30
0.0
 10
155.120695
 20
39.838893
 30
0.0
  0
LWPOLYLINE
  5
140
100
AcDbEntity
  8
Layer_1
 62
1
100
AcDbPolyline
 90
23
 70
0
 10
166.626536
 20
32.899422
 30
0.0
 10
166.607565
 20
32.483391
 30
0.0
 10
167.010086
 20
32.045718
 30
0.0
 10
167.332462
 20
31.868659
 30
0.0
 10
167.917426
 20
31.763646
 30
0.0
 10
168.513484
 20
32.072308
 30
0.0
 10
169.131061
 20
32.802214
 30
0.0
 10
169.582358
 20
33.623504
 30
0.0
 10
169.774361
 20
34.367242
 30
0.0
 10
169.627065
 20
34.874670
 30
0.0
 10
169.223012
 20
35.309740
 30
0.0
 10
169.062090
 20
35.398270
 30
0.0
 10
168.478128
 20
35.505873
 30
0.0
 10
167.975846
 20
35.355486
 30
0.0
 10
167.539707
 20
34.955670
 30
0.0
 10
167.451286
 20
34.794536
 30
0.0
 10
167.346173
 20
34.209304
 30
0.0
 10
167.488643
 20
33.704763
 30
0.0
 10
167.890899
 20
33.267089
 30
0.0
 10
168.052088
 20
33.178539
 30
0.0
 10
168.637315
 20
33.073555
 30
0.0
 10
169.144690
 20
33.221086
 30
0.0
 10
169.582358
 20
33.623504
 30
0.0
  0
LWPOLYLINE
  5
141
100
AcDbEntity
  8
Layer_1
 62
1
100
AcDbPolyline
 90
16
 70
1
 10
164.224607
 20
33.576429
 30
0.0
 10
164.804481
 20
33.474295
 30
0.0
 10
165.405627
 20
33.780108
 30
0.0
 10
166.018116
 20
34.512871
 30
0.0
 10
166.286705
 20
35.001477
 30
0.0
 10
166.576818
 20
35.911315
 30
0.0
 10
166.514119
 20
36.585436
 30
0.0
 10
166.115419
 20
37.017627
 30
0.0
 10
165.787955
 20
37.197533
 30
0.0
 10
165.203994
 20
37.305054
 30
0.0
 10
164.612026
 20
36.990835
 30
0.0
 10
163.994179
 20
36.261107
 30
0.0
 10
163.725857
 20
35.772433
 30
0.0
 10
163.440835
 20
34.859734
 30
0.0
 10
163.494617
 20
34.194054
 30
0.0
 10
163.897138
 20
33.756388
 30
0.0
  0
LWPOLYLINE
  5
142
100
AcDbEntity
  8
Layer_1
 62
1
100
AcDbPolyline
 90
2
 70
0
 10
176.430448
 20
28.086284
 30
0.0
 10
179.463732
 20
31.201750
 30
0.0
  0
LWPOLYLINE
  5
143
100
AcDbEntity
  8
Layer_1
 62
1
100
AcDbPolyline
 90
2
 70
0
 10
178.906801
 20
27.243904
 30
0.0
 10
176.430712
 20
28.086284
 30
0.0
  0
LWPOLYLINE
  5
144
100
AcDbEntity
  8
Layer_1
 62
1
100
AcDbPolyline
 90
18
 70
1
 10
174.307816
 20
28.808463
 30
0.0
 10
174.896643
 20
28.808596
 30
0.0
 10
175.435604
 20
29.214149
 30
0.0
 10
175.911375
 20
30.042082
 30
0.0
 10
176.091011
 20
30.569926
 30
0.0
 10
176.218652
 20
31.516287
 30
0.0
 10
176.039960
 20
32.169146
 30
0.0
 10
175.572203
 20
32.525592
 30
0.0
 10
175.218477
 20
32.645925
 30
0.0
 10
174.624789
 20
32.650423
 30
0.0
 10
174.096290
 20
32.238229
 30
0.0
 10
173.614656
 20
31.412173
 30
0.0
 10
173.435284
 20
30.884383
 30
0.0
 10
173.312978
 20
29.936064
 30
0.0
 10
173.481735
 20
29.289846
 30
0.0
 10
173.953825
 20
28.928716
 30
0.0
 10
174.307816
 20
28.808384
 30
0.0
 10
174.307816
 20
28.808384
 30
0.0
  0
LWPOLYLINE
  5
145
100
AcDbEntity
  8
Layer_1
 62
1
100
AcDbPolyline
 90
28
 70
1
 10
188.531966
 20
25.162031
 30
0.0
 10
189.112009
 20
25.264398
 30
0.0
 10
189.356748
 20
25.604679
 30
0.0
 10
189.413771
 20
25.973958
 30
0.0
 10
189.283339
 20
26.372235
 30
0.0
 10
188.941927
 20
26.610994
 30
0.0
 10
188.232386
 20
26.912725
 30
0.0
 10
187.704723
 20
27.186383
 30
0.0
 10
187.397322
 20
27.605959
 30
0.0
 10
187.267830
 20
28.010084
 30
0.0
 10
187.353025
 20
28.561052
 30
0.0
 10
187.597765
 20
28.901332
 30
0.0
 10
187.808021
 20
29.057860
 30
0.0
 10
188.393173
 20
29.156417
 30
0.0
 10
189.131823
 20
29.042276
 30
0.0
 10
189.654380
 20
28.772480
 30
0.0
 10
189.813188
 20
28.558829
 30
0.0
 10
189.938040
 20
28.161452
 30
0.0
 10
189.852841
 20
27.610510
 30
0.0
 10
189.613013
 20
27.263457
 30
0.0
 10
189.181758
 20
26.958022
 30
0.0
 10
188.601712
 20
26.855654
 30
0.0
 10
187.834215
 20
26.782233
 30
0.0
 10
187.436978
 20
26.657614
 30
0.0
 10
187.198080
 20
26.316460
 30
0.0
 10
187.141063
 20
25.947182
 30
0.0
 10
187.265649
 20
25.549831
 30
0.0
 10
187.793580
 20
25.276172
 30
0.0
  0
LWPOLYLINE
  5
146
100
AcDbEntity
  8
Layer_1
 62
1
100
AcDbPolyline
 90
17
 70
1
 10
184.651525
 20
25.761841
 30
0.0
 10
185.231307
 20
25.864235
 30
0.0
 10
185.691671
 20
26.357206
 30
0.0
 10
186.016700
 20
27.255228
 30
0.0
 10
186.101634
 20
27.806196
 30
0.0
 10
186.063180
 20
28.760389
 30
0.0
 10
185.773678
 20
29.372264
 30
0.0
 10
185.251386
 20
29.642086
 30
0.0
 10
184.882059
 20
29.699183
 30
0.0
 10
184.296640
 20
29.600625
 30
0.0
 10
183.847492
 20
29.102865
 30
0.0
 10
183.516884
 20
28.205769
 30
0.0
 10
183.431686
 20
27.654828
 30
0.0
 10
183.476250
 20
26.699709
 30
0.0
 10
183.754271
 20
26.092570
 30
0.0
 10
184.282199
 20
25.818912
 30
0.0
 10
184.651523
 20
25.761841
 30
0.0
  0
LWPOLYLINE
  5
147
100
AcDbEntity
  8
Layer_1
 62
1
100
AcDbPolyline
 90
23
 70
0
 10
198.067670
 20
26.406763
 30
0.0
 10
198.239588
 20
26.974003
 30
0.0
 10
198.605313
 20
27.349525
 30
0.0
 10
199.158649
 20
27.551058
 30
0.0
 10
199.348578
 20
27.555027
 30
0.0
 10
199.909944
 20
27.377095
 30
0.0
 10
200.297053
 20
27.017474
 30
0.0
 10
200.492821
 20
26.458039
 30
0.0
 10
200.496710
 20
26.274154
 30
0.0
 10
200.324789
 20
25.706967
 30
0.0
 10
199.953367
 20
25.325332
 30
0.0
 10
199.399767
 20
25.123799
 30
0.0
 10
199.210103
 20
25.119830
 30
0.0
 10
198.648737
 20
25.297789
 30
0.0
 10
198.267322
 20
25.663469
 30
0.0
 10
198.067670
 20
26.406683
 30
0.0
 10
198.047958
 20
27.337725
 30
0.0
 10
198.211971
 20
28.278503
 30
0.0
 10
198.573616
 20
28.846775
 30
0.0
 10
199.127016
 20
29.045371
 30
0.0
 10
199.506608
 20
29.053309
 30
0.0
 10
200.067911
 20
28.878340
 30
0.0
 10
200.265483
 20
28.508797
 30
0.0
  0
LWPOLYLINE
  5
148
100
AcDbEntity
  8
Layer_1
 62
1
100
AcDbPolyline
 90
16
 70
1
 10
195.664432
 20
25.044821
 30
0.0
 10
196.217768
 20
25.246354
 30
0.0
 10
196.585560
 20
25.811795
 30
0.0
 10
196.749577
 20
26.752573
 30
0.0
 10
196.737777
 20
27.310023
 30
0.0
 10
196.534101
 20
28.243023
 30
0.0
 10
196.142653
 20
28.795367
 30
0.0
 10
195.581347
 20
28.970335
 30
0.0
 10
195.207841
 20
28.962398
 30
0.0
 10
194.648358
 20
28.763696
 30
0.0
 10
194.292531
 20
28.195530
 30
0.0
 10
194.122695
 20
27.254619
 30
0.0
 10
194.134496
 20
26.697169
 30
0.0
 10
194.344254
 20
25.764302
 30
0.0
 10
194.723474
 20
25.214710
 30
0.0
 10
195.290925
 20
25.036857
 30
0.0
  0
LWPOLYLINE
  5
149
100
AcDbEntity
  8
Layer_1
 62
1
100
AcDbPolyline
 90
2
 70
0
 10
132.484296
 20
85.477121
 30
0.0
 10
130.092038
 20
85.434428
 30
0.0
  0
LWPOLYLINE
  5
14a
100
AcDbEntity
  8
Layer_1
 62
1
100
AcDbPolyline
 90
2
 70
0
 10
133.821361
 20
74.719140
 30
0.0
 10
131.480523
 20
74.222880
 30
0.0
  0
LWPOLYLINE
  5
14b
100
AcDbEntity
  8
Layer_1
 62
1
100
AcDbPolyline
 90
2
 70
0
 10
137.051282
 20
64.255273
 30
0.0
 10
134.854715
 20
63.306621
 30
0.0
  0
LWPOLYLINE
  5
14c
100
AcDbEntity
  8
Layer_1
 62
1
100
AcDbPolyline
 90
2
 70
0
 10
142.016566
 20
54.473864
 30
0.0
 10
140.013676
 20
53.164635
 30
0.0
  0
LWPOLYLINE
  5
14d
100
AcDbEntity
  8
Layer_1
 62
1
100
AcDbPolyline
 90
2
 70
0
 10
148.544097
 20
45.814787
 30
0.0
 10
146.743746
 20
44.238850
 30
0.0
  0
LWPOLYLINE
  5
14e
100
AcDbEntity
  8
Layer_1
 62
1
100
AcDbPolyline
 90
2
 70
0
 10
156.535582
 20
38.358265
 30
0.0
 10
155.082976
 20
36.457028
 30
0.0
  0
LWPOLYLINE
  5
14f
100
AcDbEntity
  8
Layer_1
 62
1
100
AcDbPolyline
 90
2
 70
0
 10
165.841449
 20
32.369197
 30
0.0
 10
164.678412
 20
30.278011
 30
0.0
  0
LWPOLYLINE
  5
150
100
AcDbEntity
  8
Layer_1
 62
1
100
AcDbPolyline
 90
2
 70
0
 10
175.837422
 20
28.084564
 30
0.0
 10
175.029766
 20
25.832300
 30
0.0
  0
LWPOLYLINE
  5
151
100
AcDbEntity
  8
Layer_1
 62
1
100
AcDbPolyline
 90
2
 70
0
 10
186.509529
 20
25.689240
 30
0.0
 10
186.158422
 20
23.322437
 30
0.0
  0
LWPOLYLINE
  5
152
100
AcDbEntity
  8
Layer_1
 62
1
100
AcDbPolyline
 90
2
 70
0
 10
197.400293
 20
25.166476
 30
0.0
 10
197.463089
 20
22.774591
 30
0.0
  0
LWPOLYLINE
  5
153
100
AcDbEntity
  8
Layer_1
 62
7
100
AcDbPolyline
 90
43
 70
1
 10
0.195807
 20
199.999871
 30
0.0
 10
0.195807
 20
194.000186
 30
0.0
 10
3.195621
 20
194.000186
 30
0.0
 10
3.195621
 20
180.999899
 30
0.0
 10
0.195807
 20
180.999899
 30
0.0
 10
0.195807
 20
175.000215
 30
0.0
 10
3.195621
 20
175.000215
 30
0.0
 10
24.195336
 20
175.000215
 30
0.0
 10
24.195336
 20
137.155053
 30
0.0
 10
3.195621
 20
137.155053
 30
0.0
 10
3.195621
 20
136.001473
 30
0.0
 10
0.195807
 20
136.001473
 30
0.0
 10
0.195807
 20
130.000730
 30
0.0
 10
102.195494
 20
130.000730
 30
0.0
 10
102.195494
 20
136.001473
 30
0.0
 10
99.195386
 20
136.001473
 30
0.0
 10
99.195386
 20
137.155053
 30
0.0
 10
78.195434
 20
137.155053
 30
0.0
 10
78.195434
 20
175.000215
 30
0.0
 10
99.195386
 20
175.000215
 30
0.0
 10
102.195494
 20
175.000215
 30
0.0
 10
102.195494
 20
180.999899
 30
0.0
 10
99.195386
 20
180.999899
 30
0.0
 10
99.195386
 20
194.000186
 30
0.0
 10
102.195494
 20
194.000186
 30
0.0
 10
102.195494
 20
199.999871
 30
0.0
 10
99.195386
 20
199.999871
 30
0.0
 10
76.517712
 20
199.999871
 30
0.0
 10
76.507393
 20
199.898535
 30
0.0
 10
76.448923
 20
199.710417
 30
0.0
 10
76.234872
 20
199.392652
 30
0.0
 10
75.917640
 20
199.178604
 30
0.0
 10
75.729521
 20
199.120660
 30
0.0
 10
75.527642
 20
199.100023
 30
0.0
 10
72.527800
 20
199.100023
 30
0.0
 10
72.325659
 20
199.120660
 30
0.0
 10
72.137540
 20
199.178604
 30
0.0
 10
71.820305
 20
199.392652
 30
0.0
 10
71.606257
 20
199.710417
 30
0.0
 10
71.547784
 20
199.898535
 30
0.0
 10
71.537466
 20
199.999871
 30
0.0
 10
24.195336
 20
199.999871
 30
0.0
 10
3.195621
 20
199.999871
 30
0.0
  0
LWPOLYLINE
  5
154
100
AcDbEntity
  8
Layer_1
 62
7
100
AcDbPolyline
 90
32
 70
1
 10
44.195722
 20
189.000096
 30
0.0
 10
44.497876
 20
188.969669
 30
0.0
 10
44.779392
 20
188.882092
 30
0.0
 10
45.033921
 20
188.743980
 30
0.0
 10
45.255907
 20
188.560623
 30
0.0
 10
45.438998
 20
188.338903
 30
0.0
 10
45.577375
 20
188.084109
 30
0.0
 10
45.664688
 20
187.802593
 30
0.0
 10
45.695379
 20
187.500439
 30
0.0
 10
45.664952
 20
187.198021
 30
0.0
 10
45.577375
 20
186.916504
 30
0.0
 10
45.439263
 20
186.661711
 30
0.0
 10
45.256171
 20
186.439726
 30
0.0
 10
45.034186
 20
186.256635
 30
0.0
 10
44.779392
 20
186.118257
 30
0.0
 10
44.497876
 20
186.030681
 30
0.0
 10
44.195722
 20
186.000254
 30
0.0
 10
43.901505
 20
186.029358
 30
0.0
 10
43.621576
 20
186.114290
 30
0.0
 10
43.363343
 20
186.252137
 30
0.0
 10
43.134743
 20
186.439726
 30
0.0
 10
42.947419
 20
186.668061
 30
0.0
 10
42.809571
 20
186.926294
 30
0.0
 10
42.724642
 20
187.206487
 30
0.0
 10
42.695535
 20
187.500439
 30
0.0
 10
42.725965
 20
187.802593
 30
0.0
 10
42.813542
 20
188.084109
 30
0.0
 10
42.951919
 20
188.338903
 30
0.0
 10
43.135008
 20
188.560888
 30
0.0
 10
43.356993
 20
188.743980
 30
0.0
 10
43.611787
 20
188.882357
 30
0.0
 10
43.893303
 20
188.969669
 30
0.0
  0
LWPOLYLINE
  5
155
100
AcDbEntity
  8
Layer_1
 62
7
100
AcDbPolyline
 90
26
 70
1
 10
72.527800
 20
175.100228
 30
0.0
 10
75.527642
 20
175.100228
 30
0.0
 10
75.729521
 20
175.080119
 30
0.0
 10
75.917640
 20
175.021911
 30
0.0
 10
76.235140
 20
174.808128
 30
0.0
 10
76.449187
 20
174.490364
 30
0.0
 10
76.507128
 20
174.302246
 30
0.0
 10
76.527501
 20
174.100369
 30
0.0
 10
76.507128
 20
173.898227
 30
0.0
 10
76.449187
 20
173.710373
 30
0.0
 10
76.235140
 20
173.392607
 30
0.0
 10
75.917640
 20
173.178826
 30
0.0
 10
75.729521
 20
173.120618
 30
0.0
 10
75.527642
 20
173.100510
 30
0.0
 10
72.527800
 20
173.100510
 30
0.0
 10
72.325659
 20
173.120618
 30
0.0
 10
72.137805
 20
173.178826
 30
0.0
 10
71.820040
 20
173.392607
 30
0.0
 10
71.606257
 20
173.710373
 30
0.0
 10
71.548049
 20
173.898227
 30
0.0
 10
71.527676
 20
174.100369
 30
0.0
 10
71.548049
 20
174.302246
 30
0.0
 10
71.606257
 20
174.490364
 30
0.0
 10
71.820040
 20
174.808128
 30
0.0
 10
72.137805
 20
175.021911
 30
0.0
 10
72.325659
 20
175.080119
 30
0.0
  0
LWPOLYLINE
  5
156
100
AcDbEntity
  8
Layer_1
 62
7
100
AcDbPolyline
 90
76
 70
1
 10
37.195651
 20
160.599754
 30
0.0
 10
65.195412
 20
160.599754
 30
0.0
 10
65.599431
 20
160.560069
 30
0.0
 10
65.975404
 20
160.443650
 30
0.0
 10
66.315126
 20
160.261090
 30
0.0
 10
66.610930
 20
160.015025
 30
0.0
 10
66.854611
 20
159.721341
 30
0.0
 10
67.038496
 20
159.380026
 30
0.0
 10
67.154648
 20
159.004320
 30
0.0
 10
67.195129
 20
158.599508
 30
0.0
 10
67.195129
 20
156.099197
 30
0.0
 10
69.695440
 20
156.099197
 30
0.0
 10
70.099459
 20
156.059510
 30
0.0
 10
70.475164
 20
155.943093
 30
0.0
 10
70.815156
 20
155.760531
 30
0.0
 10
71.110693
 20
155.517117
 30
0.0
 10
71.354639
 20
155.220784
 30
0.0
 10
71.538524
 20
154.879469
 30
0.0
 10
71.654676
 20
154.503763
 30
0.0
 10
71.695157
 20
154.101594
 30
0.0
 10
71.695157
 20
139.099740
 30
0.0
 10
71.654676
 20
138.697573
 30
0.0
 10
71.538524
 20
138.319219
 30
0.0
 10
71.354639
 20
137.980553
 30
0.0
 10
71.110693
 20
137.684220
 30
0.0
 10
70.815156
 20
137.440803
 30
0.0
 10
70.475164
 20
137.258241
 30
0.0
 10
70.099459
 20
137.141824
 30
0.0
 10
69.695440
 20
137.099491
 30
0.0
 10
67.195129
 20
137.099491
 30
0.0
 10
67.195129
 20
134.599183
 30
0.0
 10
67.154648
 20
134.197016
 30
0.0
 10
67.038496
 20
133.821308
 30
0.0
 10
66.854611
 20
133.479996
 30
0.0
 10
66.610930
 20
133.186309
 30
0.0
 10
66.315126
 20
132.940246
 30
0.0
 10
65.975404
 20
132.757686
 30
0.0
 10
65.599431
 20
132.641267
 30
0.0
 10
65.195412
 20
132.601580
 30
0.0
 10
37.195651
 20
132.601580
 30
0.0
 10
36.791632
 20
132.641267
 30
0.0
 10
36.415659
 20
132.757686
 30
0.0
 10
36.075935
 20
132.940246
 30
0.0
 10
35.780131
 20
133.186309
 30
0.0
 10
35.536450
 20
133.479996
 30
0.0
 10
35.352300
 20
133.821308
 30
0.0
 10
35.236148
 20
134.197016
 30
0.0
 10
35.195666
 20
134.599183
 30
0.0
 10
35.195666
 20
137.099491
 30
0.0
 10
32.695623
 20
137.099491
 30
0.0
 10
32.291604
 20
137.141824
 30
0.0
 10
31.915632
 20
137.258241
 30
0.0
 10
31.575907
 20
137.440803
 30
0.0
 10
31.280103
 20
137.684220
 30
0.0
 10
31.036422
 20
137.980553
 30
0.0
 10
30.852272
 20
138.319219
 30
0.0
 10
30.736120
 20
138.697573
 30
0.0
 10
30.695639
 20
139.099740
 30
0.0
 10
30.695639
 20
154.101594
 30
0.0
 10
30.736120
 20
154.503763
 30
0.0
 10
30.852272
 20
154.879469
 30
0.0
 10
31.036422
 20
155.220784
 30
0.0
 10
31.280103
 20
155.517117
 30
0.0
 10
31.575907
 20
155.760531
 30
0.0
 10
31.915632
 20
155.943093
 30
0.0
 10
32.291604
 20
156.059510
 30
0.0
 10
32.695623
 20
156.099197
 30
0.0
 10
35.195666
 20
156.099197
 30
0.0
 10
35.195666
 20
158.599508
 30
0.0
 10
35.236148
 20
159.004320
 30
0.0
 10
35.352300
 20
159.380026
 30
0.0
 10
35.536450
 20
159.721341
 30
0.0
 10
35.780131
 20
160.015025
 30
0.0
 10
36.075935
 20
160.261090
 30
0.0
 10
36.415659
 20
160.443650
 30
0.0
 10
36.791632
 20
160.560069
 30
0.0
  0
LWPOLYLINE
  5
157
100
AcDbEntity
  8
Layer_1
 62
7
100
AcDbPolyline
 90
24
 70
1
 10
32.195296
 20
160.099695
 30
0.0
 10
32.396908
 20
160.081174
 30
0.0
 10
32.584498
 20
160.020320
 30
0.0
 10
32.902524
 20
159.806005
 30
0.0
 10
33.116839
 20
159.488508
 30
0.0
 10
33.175047
 20
159.300651
 30
0.0
 10
33.195420
 20
159.099570
 30
0.0
 10
33.175047
 20
158.898487
 30
0.0
 10
33.116839
 20
158.710633
 30
0.0
 10
32.902524
 20
158.393133
 30
0.0
 10
32.584498
 20
158.178821
 30
0.0
 10
32.396908
 20
158.120613
 30
0.0
 10
32.195296
 20
158.099446
 30
0.0
 10
31.993948
 20
158.120613
 30
0.0
 10
31.806094
 20
158.178821
 30
0.0
 10
31.488330
 20
158.393133
 30
0.0
 10
31.274017
 20
158.710633
 30
0.0
 10
31.215809
 20
158.898487
 30
0.0
 10
31.195436
 20
159.099570
 30
0.0
 10
31.215809
 20
159.300651
 30
0.0
 10
31.274017
 20
159.488508
 30
0.0
 10
31.488330
 20
159.806005
 30
0.0
 10
31.806094
 20
160.020320
 30
0.0
 10
31.993948
 20
160.081174
 30
0.0
  0
LWPOLYLINE
  5
158
100
AcDbEntity
  8
Layer_1
 62
7
100
AcDbPolyline
 90
24
 70
1
 10
70.195502
 20
160.099695
 30
0.0
 10
70.397112
 20
160.081174
 30
0.0
 10
70.584704
 20
160.020320
 30
0.0
 10
70.902733
 20
159.806005
 30
0.0
 10
71.117043
 20
159.488508
 30
0.0
 10
71.175251
 20
159.300651
 30
0.0
 10
71.195624
 20
159.099570
 30
0.0
 10
71.175251
 20
158.898487
 30
0.0
 10
71.117043
 20
158.710633
 30
0.0
 10
70.902733
 20
158.393133
 30
0.0
 10
70.584704
 20
158.178821
 30
0.0
 10
70.397112
 20
158.120613
 30
0.0
 10
70.195502
 20
158.099446
 30
0.0
 10
69.994155
 20
158.120613
 30
0.0
 10
69.806301
 20
158.178821
 30
0.0
 10
69.488536
 20
158.393133
 30
0.0
 10
69.274224
 20
158.710633
 30
0.0
 10
69.216015
 20
158.898487
 30
0.0
 10
69.195643
 20
159.099570
 30
0.0
 10
69.216015
 20
159.300651
 30
0.0
 10
69.274224
 20
159.488508
 30
0.0
 10
69.488536
 20
159.806005
 30
0.0
 10
69.806301
 20
160.020320
 30
0.0
 10
69.994155
 20
160.081174
 30
0.0
  0
LWPOLYLINE
  5
159
100
AcDbEntity
  8
Layer_1
 62
7
100
AcDbPolyline
 90
24
 70
1
 10
32.195296
 20
135.099245
 30
0.0
 10
32.396908
 20
135.080724
 30
0.0
 10
32.584498
 20
135.022516
 30
0.0
 10
32.902524
 20
134.808203
 30
0.0
 10
33.116839
 20
134.490704
 30
0.0
 10
33.175047
 20
134.302850
 30
0.0
 10
33.195420
 20
134.099120
 30
0.0
 10
33.175047
 20
133.898037
 30
0.0
 10
33.116839
 20
133.710183
 30
0.0
 10
32.902524
 20
133.392683
 30
0.0
 10
32.584498
 20
133.178371
 30
0.0
 10
32.396908
 20
133.120163
 30
0.0
 10
32.195296
 20
133.098996
 30
0.0
 10
31.993948
 20
133.120163
 30
0.0
 10
31.806094
 20
133.178371
 30
0.0
 10
31.488330
 20
133.392683
 30
0.0
 10
31.274017
 20
133.710183
 30
0.0
 10
31.215809
 20
133.898037
 30
0.0
 10
31.195436
 20
134.099120
 30
0.0
 10
31.215809
 20
134.302850
 30
0.0
 10
31.274017
 20
134.490704
 30
0.0
 10
31.488330
 20
134.808203
 30
0.0
 10
31.806094
 20
135.022516
 30
0.0
 10
31.993948
 20
135.080724
 30
0.0
  0
LWPOLYLINE
  5
15a
100
AcDbEntity
  8
Layer_1
 62
7
100
AcDbPolyline
 90
24
 70
1
 10
70.195502
 20
135.099245
 30
0.0
 10
70.397112
 20
135.080724
 30
0.0
 10
70.584704
 20
135.022516
 30
0.0
 10
70.902733
 20
134.808203
 30
0.0
 10
71.117043
 20
134.490704
 30
0.0
 10
71.175251
 20
134.302850
 30
0.0
 10
71.195624
 20
134.099120
 30
0.0
 10
71.175251
 20
133.898037
 30
0.0
 10
71.117043
 20
133.710183
 30
0.0
 10
70.902733
 20
133.392683
 30
0.0
 10
70.584704
 20
133.178371
 30
0.0
 10
70.397112
 20
133.120163
 30
0.0
 10
70.195502
 20
133.098996
 30
0.0
 10
69.994155
 20
133.120163
 30
0.0
 10
69.806301
 20
133.178371
 30
0.0
 10
69.488536
 20
133.392683
 30
0.0
 10
69.274224
 20
133.710183
 30
0.0
 10
69.216015
 20
133.898037
 30
0.0
 10
69.195643
 20
134.099120
 30
0.0
 10
69.216015
 20
134.302850
 30
0.0
 10
69.274224
 20
134.490704
 30
0.0
 10
69.488536
 20
134.808203
 30
0.0
 10
69.806301
 20
135.022516
 30
0.0
 10
69.994155
 20
135.080724
 30
0.0
  0
ENDSEC
  0
SECTION
  2
OBJECTS
  0
DICTIONARY
  5
C
330
0
100
AcDbDictionary
  3
ACAD_GROUP
350
D
  3
ACAD_MLINESTYLE
350
17
  0
DICTIONARY
  5
D
330
C
100
AcDbDictionary
  0
DICTIONARY
  5
1A
330
C
100
AcDbDictionary
  0
DICTIONARY
  5
17
330
C
100
AcDbDictionary
  3
STANDARD
350
18
  0
DICTIONARY
  5
19
330
C
100
AcDbDictionary
  0
ENDSEC
  0
EOF
