  0
SECTION
  2
HEADER
  9
$ACADVER
  1
AC1014
  9
$HANDSEED
  5
FFFF
  9
$MEASUREMENT
 70
     1
  0
ENDSEC
  0
SECTION
  2
TABLES
  0
TABLE
  2
VPORT
  5
8
330
0
100
AcDbSymbolTable
 70
     4
  0
VPORT
  5
2E
330
8
100
AcDbSymbolTableRecord
100
AcDbViewportTableRecord
  2
*ACTIVE
 70
     0
 10
0.0
 20
0.0
 11
1.0
 21
1.0
 12
210.0
 22
148.5
 13
0.0
 23
0.0
 14
10.0
 24
10.0
 15
10.0
 25
10.0
 16
0.0
 26
0.0
 36
1.0
 17
0.0
 27
0.0
 37
0.0
 40
341.0
 41
1.24
 42
50.0
 43
0.0
 44
0.0
 50
0.0
 51
0.0
 71
     0
 72
   100
 73
     1
 74
     3
 75
     0
 76
     0
 77
     0
 78
     0
  0
ENDTAB
  0
TABLE
  2
LTYPE
  5
5
330
0
100
AcDbSymbolTable
 70
     1
  0
LTYPE
  5
14
330
5
100
AcDbSymbolTableRecord
100
AcDbLinetypeTableRecord
  2
BYBLOCK
 70
     0
  3

 72
    65
 73
     0
 40
0.0
  0
LTYPE
  5
15
330
5
100
AcDbSymbolTableRecord
100
AcDbLinetypeTableRecord
  2
BYLAYER
 70
     0
  3

 72
    65
 73
     0
 40
0.0
  0
LTYPE
  5
16
330
5
100
AcDbSymbolTableRecord
100
AcDbLinetypeTableRecord
  2
CONTINUOUS
 70
     0
  3
Solid line
 72
    65
 73
     0
 40
0.0
  0
ENDTAB
  0
TABLE
  2
LAYER
  5
2
100
AcDbSymbolTable
 70
2
  0
LAYER
  5
50
100
AcDbSymbolTableRecord
100
AcDbLayerTableRecord
  2
0
 70
0
  6
CONTINUOUS
  0
LAYER
  5
51
100
AcDbSymbolTableRecord
100
AcDbLayerTableRecord
  2
Layer_1
 70
0
  6
CONTINUOUS
  0
ENDTAB
  0
TABLE
  2
STYLE
  5
3
330
0
100
AcDbSymbolTable
 70
     1
  0
STYLE
  5
11
330
3
100
AcDbSymbolTableRecord
100
AcDbTextStyleTableRecord
  2
STANDARD
 70
     0
 40
0.0
 41
1.0
 50
0.0
 71
     0
 42
2.5
  3
txt
  4

  0
ENDTAB
  0
TABLE
  2
VIEW
  5
6
330
0
100
AcDbSymbolTable
 70
     0
  0
ENDTAB
  0
TABLE
  2
UCS
  5
7
330
0
100
AcDbSymbolTable
 70
     0
  0
ENDTAB
  0
TABLE
  2
APPID
  5
9
330
0
100
AcDbSymbolTable
 70
     2
  0
APPID
  5
12
330
9
100
AcDbSymbolTableRecord
100
AcDbRegAppTableRecord
  2
ACAD
 70
     0
  0
ENDTAB
  0
TABLE
  2
DIMSTYLE
  5
A
330
0
100
AcDbSymbolTable
 70
     1
  0
DIMSTYLE
105
27
330
A
100
AcDbSymbolTableRecord
100
AcDbDimStyleTableRecord
  2
ISO-25
 70
     0
  3

  4

  5

  6

  7

 40
1.0
 41
2.5
 42
0.625
 43
3.75
 44
1.25
 45
0.0
 46
0.0
 47
0.0
 48
0.0
140
2.5
141
2.5
142
0.0
143
0.03937007874016
144
1.0
145
0.0
146
1.0
147
0.625
 71
     0
 72
     0
 73
     0
 74
     0
 75
     0
 76
     0
 77
     1
 78
     8
170
     0
171
     3
172
     1
173
     0
174
     0
175
     0
176
     0
177
     0
178
     0
270
     2
271
     2
272
     2
273
     2
274
     3
340
11
275
     0
280
     0
281
     0
282
     0
283
     0
284
     8
285
     0
286
     0
287
     3
288
     0
  0
ENDTAB
  0
TABLE
  2
BLOCK_RECORD
  5
1
330
0
100
AcDbSymbolTable
 70
     1
  0
BLOCK_RECORD
  5
1F
330
1
100
AcDbSymbolTableRecord
100
AcDbBlockTableRecord
  2
*MODEL_SPACE
  0
BLOCK_RECORD
  5
1B
330
1
100
AcDbSymbolTableRecord
100
AcDbBlockTableRecord
  2
*PAPER_SPACE
  0
ENDTAB
  0
ENDSEC
  0
SECTION
  2
BLOCKS
  0
BLOCK
  5
20
330
1F
100
AcDbEntity
  8
0
100
AcDbBlockBegin
  2
*MODEL_SPACE
 70
     0
 10
0.0
 20
0.0
 30
0.0
  3
*MODEL_SPACE
  1

  0
ENDBLK
  5
21
330
1F
100
AcDbEntity
  8
0
100
AcDbBlockEnd
  0
BLOCK
  5
1C
330
1B
100
AcDbEntity
 67
     1
  8
0
100
AcDbBlockBegin
  2
*PAPER_SPACE
  1

  0
ENDBLK
  5
1D
330
1B
100
AcDbEntity
 67
     1
  8
0
100
AcDbBlockEnd
  0
ENDSEC
  0
SECTION
  2
ENTITIES
  0
LWPOLYLINE
  5
100
100
AcDbEntity
  8
Layer_1
 62
5
100
AcDbPolyline
 90
66
 70
1
 10
31.988219
 20
91.472659
 30
0.0
 10
34.228413
 20
91.359527
 30
0.0
 10
36.403895
 20
91.027500
 30
0.0
 10
38.503652
 20
90.487591
 30
0.0
 10
40.516671
 20
89.750810
 30
0.0
 10
42.431937
 20
88.828173
 30
0.0
 10
44.238439
 20
87.730691
 30
0.0
 10
45.925163
 20
86.469381
 30
0.0
 10
47.481096
 20
85.055252
 30
0.0
 10
48.895225
 20
83.499319
 30
0.0
 10
50.156536
 20
81.812595
 30
0.0
 10
51.254017
 20
80.006092
 30
0.0
 10
52.176654
 20
78.090826
 30
0.0
 10
52.913435
 20
76.077808
 30
0.0
 10
53.453345
 20
73.978051
 30
0.0
 10
53.785373
 20
71.802569
 30
0.0
 10
53.898504
 20
69.562374
 30
0.0
 10
53.791327
 20
67.396781
 30
0.0
 10
53.473683
 20
65.267864
 30
0.0
 10
52.951524
 20
63.189991
 30
0.0
 10
52.230800
 20
61.177531
 30
0.0
 10
51.317463
 20
59.244851
 30
0.0
 10
50.217463
 20
57.406318
 30
0.0
 10
48.936751
 20
55.676299
 30
0.0
 10
47.481279
 20
54.069164
 30
0.0
 10
45.874177
 20
52.613653
 30
0.0
 10
44.144190
 20
51.332901
 30
0.0
 10
42.305682
 20
50.232858
 30
0.0
 10
40.373024
 20
49.319475
 30
0.0
 10
38.360580
 20
48.598703
 30
0.0
 10
36.282720
 20
48.076496
 30
0.0
 10
34.153810
 20
47.758801
 30
0.0
 10
31.988219
 20
47.651574
 30
0.0
 10
29.822592
 20
47.758754
 30
0.0
 10
27.693643
 20
48.076407
 30
0.0
 10
25.615742
 20
48.598582
 30
0.0
 10
23.603256
 20
49.319327
 30
0.0
 10
21.670553
 20
50.232691
 30
0.0
 10
19.832001
 20
51.332722
 30
0.0
 10
18.101970
 20
52.613469
 30
0.0
 10
16.494825
 20
54.068981
 30
0.0
 10
15.039314
 20
55.676125
 30
0.0
 10
13.758566
 20
57.406157
 30
0.0
 10
12.658534
 20
59.244708
 30
0.0
 10
11.745171
 20
61.177412
 30
0.0
 10
11.024426
 20
63.189898
 30
0.0
 10
10.502252
 20
65.267800
 30
0.0
 10
10.184598
 20
67.396748
 30
0.0
 10
10.077418
 20
69.562374
 30
0.0
 10
10.184646
 20
71.727966
 30
0.0
 10
10.502340
 20
73.856875
 30
0.0
 10
11.024548
 20
75.934736
 30
0.0
 10
11.745320
 20
77.947179
 30
0.0
 10
12.658702
 20
79.879838
 30
0.0
 10
13.758746
 20
81.718345
 30
0.0
 10
15.039498
 20
83.448333
 30
0.0
 10
16.495008
 20
85.055434
 30
0.0
 10
18.102144
 20
86.510907
 30
0.0
 10
19.832163
 20
87.791617
 30
0.0
 10
21.670695
 20
88.891618
 30
0.0
 10
23.603375
 20
89.804955
 30
0.0
 10
25.615836
 20
90.525679
 30
0.0
 10
27.693708
 20
91.047838
 30
0.0
 10
29.822625
 20
91.365481
 30
0.0
 10
31.988219
 20
91.472659
 30
0.0
 10
31.988219
 20
91.472659
 30
0.0
  0
LWPOLYLINE
  5
101
100
AcDbEntity
  8
Layer_1
 62
5
100
AcDbPolyline
 90
34
 70
1
 10
7.000087
 20
52.499855
 30
0.0
 10
8.511541
 20
52.347452
 30
0.0
 10
9.919312
 20
51.910431
 30
0.0
 10
11.193247
 20
51.218948
 30
0.0
 10
12.303187
 20
50.303157
 30
0.0
 10
13.218977
 20
49.193217
 30
0.0
 10
13.910461
 20
47.919283
 30
0.0
 10
14.347483
 20
46.511511
 30
0.0
 10
14.499886
 20
45.000057
 30
0.0
 10
14.354503
 20
43.530027
 30
0.0
 10
13.929093
 20
42.129881
 30
0.0
 10
13.239950
 20
40.838964
 30
0.0
 10
12.303371
 20
39.696623
 30
0.0
 10
11.161094
 20
38.759965
 30
0.0
 10
9.870224
 20
38.070732
 30
0.0
 10
8.470108
 20
37.645225
 30
0.0
 10
7.000087
 20
37.499741
 30
0.0
 10
5.529993
 20
37.645137
 30
0.0
 10
4.129792
 20
38.070584
 30
0.0
 10
2.838834
 20
38.759785
 30
0.0
 10
1.696471
 20
39.696441
 30
0.0
 10
0.759815
 20
40.838805
 30
0.0
 10
0.070615
 20
42.129762
 30
0.0
 10
-0.354833
 20
43.529963
 30
0.0
 10
-0.500228
 20
45.000057
 30
0.0
 10
-0.354744
 20
46.470078
 30
0.0
 10
0.070763
 20
47.870194
 30
0.0
 10
0.759996
 20
49.161063
 30
0.0
 10
1.696654
 20
50.303340
 30
0.0
 10
2.838995
 20
51.239920
 30
0.0
 10
4.129911
 20
51.929063
 30
0.0
 10
5.530057
 20
52.354472
 30
0.0
 10
7.000087
 20
52.499855
 30
0.0
 10
7.000087
 20
52.499855
 30
0.0
  0
LWPOLYLINE
  5
102
100
AcDbEntity
  8
Layer_1
 62
5
100
AcDbPolyline
 90
6
 70
1
 10
15.000114
 20
37.999970
 30
0.0
 10
20.999746
 20
37.999970
 30
0.0
 10
20.999746
 20
35.000155
 30
0.0
 10
15.000114
 20
35.000155
 30
0.0
 10
15.000114
 20
37.999970
 30
0.0
 10
15.000114
 20
37.999970
 30
0.0
  0
LWPOLYLINE
  5
103
100
AcDbEntity
  8
Layer_1
 62
5
100
AcDbPolyline
 90
6
 70
1
 10
28.999772
 20
37.999970
 30
0.0
 10
34.999920
 20
37.999970
 30
0.0
 10
34.999920
 20
35.000155
 30
0.0
 10
28.999772
 20
35.000155
 30
0.0
 10
28.999772
 20
37.999970
 30
0.0
 10
28.999772
 20
37.999970
 30
0.0
  0
LWPOLYLINE
  5
104
100
AcDbEntity
  8
Layer_1
 62
5
100
AcDbPolyline
 90
18
 70
1
 10
41.970035
 20
37.701797
 30
0.0
 10
42.352638
 20
37.625592
 30
0.0
 10
42.676970
 20
37.408791
 30
0.0
 10
42.893804
 20
37.084339
 30
0.0
 10
42.969948
 20
36.701600
 30
0.0
 10
42.893804
 20
36.318861
 30
0.0
 10
42.676970
 20
35.994409
 30
0.0
 10
42.352516
 20
35.777573
 30
0.0
 10
41.969777
 20
35.701429
 30
0.0
 10
41.587037
 20
35.777573
 30
0.0
 10
41.262584
 20
35.994409
 30
0.0
 10
41.045750
 20
36.318861
 30
0.0
 10
40.969606
 20
36.701600
 30
0.0
 10
41.045750
 20
37.084339
 30
0.0
 10
41.262584
 20
37.408791
 30
0.0
 10
41.587153
 20
37.625689
 30
0.0
 10
41.970035
 20
37.701797
 30
0.0
 10
41.970035
 20
37.701797
 30
0.0
  0
LWPOLYLINE
  5
105
100
AcDbEntity
  8
Layer_1
 62
5
100
AcDbPolyline
 90
34
 70
1
 10
60.000971
 20
34.584158
 30
0.0
 10
60.902659
 20
34.495026
 30
0.0
 10
61.761485
 20
34.234117
 30
0.0
 10
62.553311
 20
33.811428
 30
0.0
 10
63.254001
 20
33.236954
 30
0.0
 10
63.828489
 20
32.536335
 30
0.0
 10
64.251215
 20
31.744578
 30
0.0
 10
64.512181
 20
30.885816
 30
0.0
 10
64.601391
 20
29.984181
 30
0.0
 10
64.512181
 20
29.082547
 30
0.0
 10
64.251215
 20
28.223785
 30
0.0
 10
63.828489
 20
27.432028
 30
0.0
 10
63.254001
 20
26.731409
 30
0.0
 10
62.553382
 20
26.156921
 30
0.0
 10
61.761626
 20
25.734196
 30
0.0
 10
60.902864
 20
25.473230
 30
0.0
 10
60.001229
 20
25.384019
 30
0.0
 10
59.099595
 20
25.473230
 30
0.0
 10
58.240833
 20
25.734196
 30
0.0
 10
57.449076
 20
26.156921
 30
0.0
 10
56.748457
 20
26.731409
 30
0.0
 10
56.173968
 20
27.432028
 30
0.0
 10
55.751243
 20
28.223785
 30
0.0
 10
55.490276
 20
29.082547
 30
0.0
 10
55.401066
 20
29.984181
 30
0.0
 10
55.490276
 20
30.885816
 30
0.0
 10
55.751243
 20
31.744578
 30
0.0
 10
56.173968
 20
32.536335
 30
0.0
 10
56.748457
 20
33.236954
 30
0.0
 10
57.449038
 20
33.811356
 30
0.0
 10
58.240735
 20
34.234018
 30
0.0
 10
59.099422
 20
34.494950
 30
0.0
 10
60.000971
 20
34.584158
 30
0.0
 10
60.000971
 20
34.584158
 30
0.0
  0
LWPOLYLINE
  5
106
100
AcDbEntity
  8
Layer_1
 62
5
100
AcDbPolyline
 90
34
 70
1
 10
22.499912
 20
29.000005
 30
0.0
 10
23.969942
 20
28.854622
 30
0.0
 10
25.370088
 20
28.429212
 30
0.0
 10
26.661005
 20
27.740069
 30
0.0
 10
27.803346
 20
26.803490
 30
0.0
 10
28.740004
 20
25.661213
 30
0.0
 10
29.429237
 20
24.370344
 30
0.0
 10
29.854744
 20
22.970227
 30
0.0
 10
30.000228
 20
21.500207
 30
0.0
 10
29.854833
 20
20.030112
 30
0.0
 10
29.429385
 20
18.629911
 30
0.0
 10
28.740185
 20
17.338953
 30
0.0
 10
27.803529
 20
16.196589
 30
0.0
 10
26.661165
 20
15.259934
 30
0.0
 10
25.370208
 20
14.570733
 30
0.0
 10
23.970006
 20
14.145286
 30
0.0
 10
22.499912
 20
13.999891
 30
0.0
 10
21.029891
 20
14.145375
 30
0.0
 10
19.629774
 20
14.570882
 30
0.0
 10
18.338906
 20
15.260114
 30
0.0
 10
17.196629
 20
16.196772
 30
0.0
 10
16.260049
 20
17.339114
 30
0.0
 10
15.570907
 20
18.630031
 30
0.0
 10
15.145496
 20
20.030176
 30
0.0
 10
15.000114
 20
21.500207
 30
0.0
 10
15.152517
 20
23.011661
 30
0.0
 10
15.589538
 20
24.419432
 30
0.0
 10
16.281022
 20
25.693366
 30
0.0
 10
17.196812
 20
26.803307
 30
0.0
 10
18.306753
 20
27.719096
 30
0.0
 10
19.580686
 20
28.410580
 30
0.0
 10
20.988459
 20
28.847602
 30
0.0
 10
22.499912
 20
29.000005
 30
0.0
 10
22.499912
 20
29.000005
 30
0.0
  0
LWPOLYLINE
  5
107
100
AcDbEntity
  8
Layer_1
 62
5
100
AcDbPolyline
 90
6
 70
1
 10
-48.000157
 20
17.000222
 30
0.0
 10
-42.000007
 20
17.000222
 30
0.0
 10
-42.000007
 20
13.999891
 30
0.0
 10
-48.000157
 20
13.999891
 30
0.0
 10
-48.000157
 20
17.000222
 30
0.0
 10
-48.000157
 20
17.000222
 30
0.0
  0
LWPOLYLINE
  5
108
100
AcDbEntity
  8
Layer_1
 62
5
100
AcDbPolyline
 90
6
 70
1
 10
-24.000078
 20
17.000222
 30
0.0
 10
-17.999930
 20
17.000222
 30
0.0
 10
-17.999930
 20
13.999891
 30
0.0
 10
-24.000078
 20
13.999891
 30
0.0
 10
-24.000078
 20
17.000222
 30
0.0
 10
-24.000078
 20
17.000222
 30
0.0
  0
LWPOLYLINE
  5
109
100
AcDbEntity
  8
Layer_1
 62
5
100
AcDbPolyline
 90
6
 70
1
 10
9.999903
 20
17.000222
 30
0.0
 10
16.000052
 20
17.000222
 30
0.0
 10
16.000052
 20
13.999891
 30
0.0
 10
9.999903
 20
13.999891
 30
0.0
 10
9.999903
 20
17.000222
 30
0.0
 10
9.999903
 20
17.000222
 30
0.0
  0
LWPOLYLINE
  5
10a
100
AcDbEntity
  8
Layer_1
 62
5
100
AcDbPolyline
 90
6
 70
1
 10
28.999772
 20
17.000222
 30
0.0
 10
34.999920
 20
17.000222
 30
0.0
 10
34.999920
 20
13.999891
 30
0.0
 10
28.999772
 20
13.999891
 30
0.0
 10
28.999772
 20
17.000222
 30
0.0
 10
28.999772
 20
17.000222
 30
0.0
  0
LWPOLYLINE
  5
10b
100
AcDbEntity
  8
Layer_1
 62
5
100
AcDbPolyline
 90
6
 70
1
 10
74.000113
 20
17.000222
 30
0.0
 10
79.999746
 20
17.000222
 30
0.0
 10
79.999746
 20
13.999891
 30
0.0
 10
74.000113
 20
13.999891
 30
0.0
 10
74.000113
 20
17.000222
 30
0.0
 10
74.000113
 20
17.000222
 30
0.0
  0
LWPOLYLINE
  5
10c
100
AcDbEntity
  8
Layer_1
 62
5
100
AcDbPolyline
 90
18
 70
1
 10
66.718388
 20
12.952927
 30
0.0
 10
67.101269
 20
12.876820
 30
0.0
 10
67.425839
 20
12.659922
 30
0.0
 10
67.645379
 20
12.329181
 30
0.0
 10
67.718559
 20
11.952989
 30
0.0
 10
67.645379
 20
11.576796
 30
0.0
 10
67.425839
 20
11.246055
 30
0.0
 10
67.101386
 20
11.029221
 30
0.0
 10
66.718647
 20
10.953077
 30
0.0
 10
66.335908
 20
11.029221
 30
0.0
 10
66.011455
 20
11.246055
 30
0.0
 10
65.791916
 20
11.576796
 30
0.0
 10
65.718736
 20
11.952989
 30
0.0
 10
65.791916
 20
12.329181
 30
0.0
 10
66.011455
 20
12.659922
 30
0.0
 10
66.335785
 20
12.876721
 30
0.0
 10
66.718388
 20
12.952927
 30
0.0
 10
66.718388
 20
12.952927
 30
0.0
  0
LWPOLYLINE
  5
10d
100
AcDbEntity
  8
Layer_1
 62
3
100
AcDbPolyline
 90
2
 70
0
 10
8.245603
 20
106.974877
 30
0.0
 10
6.337505
 20
101.962332
 30
0.0
  0
LWPOLYLINE
  5
10e
100
AcDbEntity
  8
Layer_1
 62
3
100
AcDbPolyline
 90
2
 70
0
 10
8.245603
 20
106.974877
 30
0.0
 10
10.153700
 20
101.962332
 30
0.0
  0
LWPOLYLINE
  5
10f
100
AcDbEntity
  8
Layer_1
 62
3
100
AcDbPolyline
 90
2
 70
0
 10
7.049256
 20
103.628132
 30
0.0
 10
9.441949
 20
103.628132
 30
0.0
  0
LWPOLYLINE
  5
110
100
AcDbEntity
  8
Layer_1
 62
3
100
AcDbPolyline
 90
2
 70
0
 10
26.910721
 20
103.392973
 30
0.0
 10
26.910721
 20
98.380428
 30
0.0
  0
LWPOLYLINE
  5
111
100
AcDbEntity
  8
Layer_1
 62
3
100
AcDbPolyline
 90
9
 70
0
 10
26.910721
 20
103.392973
 30
0.0
 10
29.061114
 20
103.392973
 30
0.0
 10
29.772865
 20
103.150675
 30
0.0
 10
30.015165
 20
102.908376
 30
0.0
 10
30.257461
 20
102.438924
 30
0.0
 10
30.257461
 20
101.954327
 30
0.0
 10
30.015165
 20
101.484875
 30
0.0
 10
29.772865
 20
101.242576
 30
0.0
 10
29.061114
 20
101.000278
 30
0.0
  0
LWPOLYLINE
  5
112
100
AcDbEntity
  8
Layer_1
 62
3
100
AcDbPolyline
 90
10
 70
0
 10
26.910721
 20
101.000278
 30
0.0
 10
29.061114
 20
101.000278
 30
0.0
 10
29.772865
 20
100.765552
 30
0.0
 10
30.015165
 20
100.530825
 30
0.0
 10
30.257461
 20
100.046229
 30
0.0
 10
30.257461
 20
99.334478
 30
0.0
 10
30.015165
 20
98.857453
 30
0.0
 10
29.772865
 20
98.618940
 30
0.0
 10
29.061114
 20
98.380428
 30
0.0
 10
26.910721
 20
98.380428
 30
0.0
  0
LWPOLYLINE
  5
113
100
AcDbEntity
  8
Layer_1
 62
3
100
AcDbPolyline
 90
18
 70
0
 10
52.985962
 20
88.536715
 30
0.0
 10
52.743667
 20
89.013740
 30
0.0
 10
52.266641
 20
89.490765
 30
0.0
 10
51.789616
 20
89.733064
 30
0.0
 10
50.835570
 20
89.733064
 30
0.0
 10
50.358544
 20
89.490765
 30
0.0
 10
49.881518
 20
89.013740
 30
0.0
 10
49.639223
 20
88.536715
 30
0.0
 10
49.404491
 20
87.824964
 30
0.0
 10
49.404491
 20
86.628618
 30
0.0
 10
49.639223
 20
85.916866
 30
0.0
 10
49.881518
 20
85.436055
 30
0.0
 10
50.358544
 20
84.959031
 30
0.0
 10
50.835570
 20
84.720518
 30
0.0
 10
51.789616
 20
84.720518
 30
0.0
 10
52.266641
 20
84.959031
 30
0.0
 10
52.743667
 20
85.436055
 30
0.0
 10
52.985962
 20
85.916866
 30
0.0
  0
LWPOLYLINE
  5
114
100
AcDbEntity
  8
Layer_1
 62
3
100
AcDbPolyline
 90
2
 70
0
 10
61.196042
 20
72.663857
 30
0.0
 10
61.196042
 20
67.651311
 30
0.0
  0
LWPOLYLINE
  5
115
100
AcDbEntity
  8
Layer_1
 62
3
100
AcDbPolyline
 90
12
 70
0
 10
61.196042
 20
72.663857
 30
0.0
 10
62.869414
 20
72.663857
 30
0.0
 10
63.588734
 20
72.421558
 30
0.0
 10
64.058184
 20
71.944533
 30
0.0
 10
64.300485
 20
71.467509
 30
0.0
 10
64.542780
 20
70.755757
 30
0.0
 10
64.542780
 20
69.559411
 30
0.0
 10
64.300485
 20
68.847659
 30
0.0
 10
64.058184
 20
68.366849
 30
0.0
 10
63.588734
 20
67.889824
 30
0.0
 10
62.869414
 20
67.651311
 30
0.0
 10
61.196042
 20
67.651311
 30
0.0
  0
LWPOLYLINE
  5
116
100
AcDbEntity
  8
Layer_1
 62
3
100
AcDbPolyline
 90
2
 70
0
 10
66.619642
 20
47.465815
 30
0.0
 10
66.619642
 20
42.453270
 30
0.0
  0
LWPOLYLINE
  5
117
100
AcDbEntity
  8
Layer_1
 62
3
100
AcDbPolyline
 90
2
 70
0
 10
66.619642
 20
47.465815
 30
0.0
 10
69.724087
 20
47.465815
 30
0.0
  0
LWPOLYLINE
  5
118
100
AcDbEntity
  8
Layer_1
 62
3
100
AcDbPolyline
 90
2
 70
0
 10
66.619642
 20
45.073119
 30
0.0
 10
68.527741
 20
45.073119
 30
0.0
  0
LWPOLYLINE
  5
119
100
AcDbEntity
  8
Layer_1
 62
3
100
AcDbPolyline
 90
2
 70
0
 10
66.619642
 20
42.453270
 30
0.0
 10
69.724087
 20
42.453270
 30
0.0
  0
LWPOLYLINE
  5
11a
100
AcDbEntity
  8
Layer_1
 62
6
100
AcDbPolyline
 90
17
 70
1
 10
8.299717
 20
106.947153
 30
0.0
 10
8.857234
 20
106.757359
 30
0.0
 10
9.236821
 20
106.199841
 30
0.0
 10
9.420688
 20
105.262734
 30
0.0
 10
9.420688
 20
104.705217
 30
0.0
 10
9.236821
 20
103.768111
 30
0.0
 10
8.857234
 20
103.207627
 30
0.0
 10
8.299717
 20
103.020798
 30
0.0
 10
7.926059
 20
103.020798
 30
0.0
 10
7.362611
 20
103.207627
 30
0.0
 10
6.994889
 20
103.768111
 30
0.0
 10
6.805093
 20
104.705217
 30
0.0
 10
6.805093
 20
105.262734
 30
0.0
 10
6.994889
 20
106.199841
 30
0.0
 10
7.362611
 20
106.757359
 30
0.0
 10
7.926059
 20
106.947153
 30
0.0
 10
8.299717
 20
106.947153
 30
0.0
  0
LWPOLYLINE
  5
11b
100
AcDbEntity
  8
Layer_1
 62
6
100
AcDbPolyline
 90
4
 70
0
 10
21.600767
 20
104.501468
 30
0.0
 10
21.270559
 20
104.746392
 30
0.0
 10
20.813508
 20
105.399124
 30
0.0
 10
20.131701
 20
101.532422
 30
0.0
  0
LWPOLYLINE
  5
11c
100
AcDbEntity
  8
Layer_1
 62
6
100
AcDbPolyline
 90
17
 70
1
 10
17.501685
 20
105.983090
 30
0.0
 10
18.017776
 20
105.699367
 30
0.0
 10
18.294783
 20
105.084404
 30
0.0
 10
18.313129
 20
104.129608
 30
0.0
 10
18.216317
 20
103.580559
 30
0.0
 10
17.872516
 20
102.689619
 30
0.0
 10
17.401369
 20
102.203565
 30
0.0
 10
16.819878
 20
102.116387
 30
0.0
 10
16.451898
 20
102.181272
 30
0.0
 10
15.929454
 20
102.463104
 30
0.0
 10
15.664645
 20
103.078928
 30
0.0
 10
15.640460
 20
104.034754
 30
0.0
 10
15.737271
 20
104.583802
 30
0.0
 10
16.086911
 20
105.473713
 30
0.0
 10
16.545859
 20
105.958906
 30
0.0
 10
17.133704
 20
106.047975
 30
0.0
 10
17.501685
 20
105.983090
 30
0.0
  0
LWPOLYLINE
  5
11d
100
AcDbEntity
  8
Layer_1
 62
6
100
AcDbPolyline
 90
14
 70
0
 10
31.683650
 20
101.026325
 30
0.0
 10
31.748563
 20
101.204672
 30
0.0
 10
31.695984
 20
101.615133
 30
0.0
 10
31.582550
 20
101.858394
 30
0.0
 10
31.301915
 20
102.162511
 30
0.0
 10
30.599671
 20
102.418107
 30
0.0
 10
30.178064
 20
102.369585
 30
0.0
 10
29.940377
 20
102.254122
 30
0.0
 10
29.641834
 20
101.971459
 30
0.0
 10
29.512007
 20
101.614765
 30
0.0
 10
29.559012
 20
101.206331
 30
0.0
 10
29.717423
 20
100.549065
 30
0.0
 10
30.834041
 20
98.154467
 30
0.0
 10
28.376190
 20
99.049051
 30
0.0
  0
LWPOLYLINE
  5
11e
100
AcDbEntity
  8
Layer_1
 62
6
100
AcDbPolyline
 90
17
 70
1
 10
27.612340
 20
103.505406
 30
0.0
 10
28.071323
 20
103.136376
 30
0.0
 10
28.237336
 20
102.482654
 30
0.0
 10
28.089601
 20
101.539178
 30
0.0
 10
27.898918
 20
101.015283
 30
0.0
 10
27.405636
 20
100.197577
 30
0.0
 10
26.857244
 20
99.800721
 30
0.0
 10
26.269450
 20
99.815842
 30
0.0
 10
25.918328
 20
99.943640
 30
0.0
 10
25.452758
 20
100.311912
 30
0.0
 10
25.298906
 20
100.964364
 30
0.0
 10
25.441067
 20
101.909867
 30
0.0
 10
25.631750
 20
102.433763
 30
0.0
 10
26.130606
 20
103.249441
 30
0.0
 10
26.666837
 20
103.647567
 30
0.0
 10
27.261219
 20
103.633204
 30
0.0
 10
27.612340
 20
103.505406
 30
0.0
  0
LWPOLYLINE
  5
11f
100
AcDbEntity
  8
Layer_1
 62
6
100
AcDbPolyline
 90
15
 70
0
 10
41.772208
 20
96.945702
 30
0.0
 10
39.994999
 20
97.971774
 30
0.0
 10
40.213338
 20
96.119871
 30
0.0
 10
39.730512
 20
96.398630
 30
0.0
 10
39.312019
 20
96.421092
 30
0.0
 10
39.057893
 20
96.348657
 30
0.0
 10
38.614767
 20
95.960729
 30
0.0
 10
38.427939
 20
95.637133
 30
0.0
 10
38.312063
 20
95.056842
 30
0.0
 10
38.443694
 20
94.549384
 30
0.0
 10
38.838242
 20
94.105861
 30
0.0
 10
39.326204
 20
93.824136
 30
0.0
 10
39.902444
 20
93.707174
 30
0.0
 10
40.160224
 20
93.774076
 30
0.0
 10
40.506282
 20
94.005740
 30
0.0
  0
LWPOLYLINE
  5
120
100
AcDbEntity
  8
Layer_1
 62
6
100
AcDbPolyline
 90
17
 70
1
 10
37.888950
 20
99.187700
 30
0.0
 10
38.276879
 20
98.744575
 30
0.0
 10
38.326852
 20
98.071955
 30
0.0
 10
38.017528
 20
97.168467
 30
0.0
 10
37.738768
 20
96.685641
 30
0.0
 10
37.110987
 20
95.966014
 30
0.0
 10
36.502012
 20
95.670414
 30
0.0
 10
35.925772
 20
95.787375
 30
0.0
 10
35.602176
 20
95.974204
 30
0.0
 10
35.207628
 20
96.417727
 30
0.0
 10
35.169411
 20
97.086983
 30
0.0
 10
35.473598
 20
97.993438
 30
0.0
 10
35.752357
 20
98.476263
 30
0.0
 10
36.385277
 20
99.192924
 30
0.0
 10
36.982496
 20
99.491887
 30
0.0
 10
37.565354
 20
99.374529
 30
0.0
 10
37.888950
 20
99.187700
 30
0.0
  0
LWPOLYLINE
  5
121
100
AcDbEntity
  8
Layer_1
 62
6
100
AcDbPolyline
 90
3
 70
0
 10
49.251149
 20
91.159518
 30
0.0
 10
48.997252
 20
87.950407
 30
0.0
 10
46.848201
 20
89.753674
 30
0.0
  0
LWPOLYLINE
  5
122
100
AcDbEntity
  8
Layer_1
 62
6
100
AcDbPolyline
 90
2
 70
0
 10
49.251149
 20
91.159518
 30
0.0
 10
46.727338
 20
88.151755
 30
0.0
  0
LWPOLYLINE
  5
123
100
AcDbEntity
  8
Layer_1
 62
6
100
AcDbPolyline
 90
17
 70
1
 10
46.961457
 20
93.080797
 30
0.0
 10
47.266544
 20
92.577041
 30
0.0
 10
47.198959
 20
91.905963
 30
0.0
 10
46.737445
 20
91.069913
 30
0.0
 10
46.379079
 20
90.642829
 30
0.0
 10
45.635873
 20
90.043150
 30
0.0
 10
44.984820
 20
89.857787
 30
0.0
 10
44.437646
 20
90.073035
 30
0.0
 10
44.151408
 20
90.313216
 30
0.0
 10
43.839872
 20
90.818514
 30
0.0
 10
43.918450
 20
91.484237
 30
0.0
 10
44.375419
 20
92.324099
 30
0.0
 10
44.733785
 20
92.751183
 30
0.0
 10
45.481535
 20
93.347052
 30
0.0
 10
46.121595
 20
93.537767
 30
0.0
 10
46.675220
 20
93.320979
 30
0.0
 10
46.961457
 20
93.080797
 30
0.0
  0
LWPOLYLINE
  5
124
100
AcDbEntity
  8
Layer_1
 62
6
100
AcDbPolyline
 90
17
 70
0
 10
56.131694
 20
83.740992
 30
0.0
 10
57.332601
 20
82.309805
 30
0.0
 10
56.164258
 20
81.081692
 30
0.0
 10
56.187652
 20
81.349079
 30
0.0
 10
55.970133
 20
81.894348
 30
0.0
 10
55.607954
 20
82.325975
 30
0.0
 10
55.104929
 20
82.639419
 30
0.0
 10
54.577780
 20
82.677118
 30
0.0
 10
54.028699
 20
82.464143
 30
0.0
 10
53.742462
 20
82.223961
 30
0.0
 10
53.435103
 20
81.718299
 30
0.0
 10
53.385235
 20
81.196423
 30
0.0
 10
53.604294
 20
80.644705
 30
0.0
 10
53.966473
 20
80.213077
 30
0.0
 10
54.467957
 20
79.906085
 30
0.0
 10
54.733073
 20
79.880784
 30
0.0
 10
55.137495
 20
79.980120
 30
0.0
  0
LWPOLYLINE
  5
125
100
AcDbEntity
  8
Layer_1
 62
6
100
AcDbPolyline
 90
17
 70
1
 10
54.450237
 20
85.744875
 30
0.0
 10
54.663212
 20
85.195794
 30
0.0
 10
54.480122
 20
84.546647
 30
0.0
 10
53.880441
 20
83.803441
 30
0.0
 10
53.453357
 20
83.445075
 30
0.0
 10
52.617308
 20
82.983562
 30
0.0
 10
51.943958
 20
82.914071
 30
0.0
 10
51.442474
 20
83.221064
 30
0.0
 10
51.202293
 20
83.507300
 30
0.0
 10
50.983233
 20
84.059020
 30
0.0
 10
51.176220
 20
84.700985
 30
0.0
 10
51.772087
 20
85.448735
 30
0.0
 10
52.199171
 20
85.807101
 30
0.0
 10
53.039033
 20
86.264071
 30
0.0
 10
53.702486
 20
86.340743
 30
0.0
 10
54.210055
 20
86.031113
 30
0.0
 10
54.450237
 20
85.744875
 30
0.0
  0
LWPOLYLINE
  5
126
100
AcDbEntity
  8
Layer_1
 62
6
100
AcDbPolyline
 90
23
 70
0
 10
61.391616
 20
74.674863
 30
0.0
 10
61.807143
 20
74.702461
 30
0.0
 10
62.253234
 20
74.309396
 30
0.0
 10
62.437096
 20
73.990936
 30
0.0
 10
62.554456
 20
73.408078
 30
0.0
 10
62.258458
 20
72.805723
 30
0.0
 10
61.541797
 20
72.172803
 30
0.0
 10
60.730239
 20
71.704250
 30
0.0
 10
59.990718
 20
71.496443
 30
0.0
 10
59.480294
 20
71.633211
 30
0.0
 10
59.036771
 20
72.027759
 30
0.0
 10
58.944840
 20
72.186988
 30
0.0
 10
58.824913
 20
72.768364
 30
0.0
 10
58.964647
 20
73.273652
 30
0.0
 10
59.355143
 20
73.718260
 30
0.0
 10
59.514373
 20
73.810191
 30
0.0
 10
60.097232
 20
73.927550
 30
0.0
 10
60.604690
 20
73.795919
 30
0.0
 10
61.050782
 20
73.402853
 30
0.0
 10
61.142713
 20
73.243625
 30
0.0
 10
61.260072
 20
72.660766
 30
0.0
 10
61.123304
 20
72.150342
 30
0.0
 10
60.730239
 20
71.704250
 30
0.0
  0
LWPOLYLINE
  5
127
100
AcDbEntity
  8
Layer_1
 62
6
100
AcDbPolyline
 90
17
 70
1
 10
60.663846
 20
77.062296
 30
0.0
 10
60.778239
 20
76.484574
 30
0.0
 10
60.485207
 20
75.877083
 30
0.0
 10
59.765580
 20
75.249300
 30
0.0
 10
59.282755
 20
74.970540
 30
0.0
 10
58.379266
 20
74.661217
 30
0.0
 10
57.704079
 20
74.709707
 30
0.0
 10
57.263521
 20
75.099118
 30
0.0
 10
57.076693
 20
75.422714
 30
0.0
 10
56.956766
 20
76.004091
 30
0.0
 10
57.258297
 20
76.602792
 30
0.0
 10
57.974958
 20
77.235711
 30
0.0
 10
58.457784
 20
77.514470
 30
0.0
 10
59.364238
 20
77.818657
 30
0.0
 10
60.030927
 20
77.778958
 30
0.0
 10
60.477018
 20
77.385892
 30
0.0
 10
60.663846
 20
77.062296
 30
0.0
  0
LWPOLYLINE
  5
128
100
AcDbEntity
  8
Layer_1
 62
6
100
AcDbPolyline
 90
2
 70
0
 10
66.200594
 20
65.465960
 30
0.0
 10
63.150019
 20
62.367461
 30
0.0
  0
LWPOLYLINE
  5
129
100
AcDbEntity
  8
Layer_1
 62
6
100
AcDbPolyline
 90
2
 70
0
 10
67.095178
 20
63.008108
 30
0.0
 10
66.200594
 20
65.465960
 30
0.0
  0
LWPOLYLINE
  5
12a
100
AcDbEntity
  8
Layer_1
 62
6
100
AcDbPolyline
 90
17
 70
1
 10
65.433708
 20
67.572963
 30
0.0
 10
65.446043
 20
66.984154
 30
0.0
 10
65.051973
 20
66.436777
 30
0.0
 10
64.234267
 20
65.943495
 30
0.0
 10
63.710371
 20
65.752812
 30
0.0
 10
62.766896
 20
65.605078
 30
0.0
 10
62.110387
 20
65.770076
 30
0.0
 10
61.744144
 20
66.230072
 30
0.0
 10
61.616346
 20
66.581194
 30
0.0
 10
61.599196
 20
67.174562
 30
0.0
 10
62.000110
 20
67.711807
 30
0.0
 10
62.815786
 20
68.210663
 30
0.0
 10
63.339682
 20
68.401346
 30
0.0
 10
64.285187
 20
68.543507
 30
0.0
 10
64.934852
 20
68.388641
 30
0.0
 10
65.305910
 20
67.924085
 30
0.0
 10
65.433708
 20
67.572963
 30
0.0
  0
LWPOLYLINE
  5
12b
100
AcDbEntity
  8
Layer_1
 62
6
100
AcDbPolyline
 90
29
 70
1
 10
69.614195
 20
53.382609
 30
0.0
 10
69.524097
 20
52.800603
 30
0.0
 10
69.189075
 20
52.548808
 30
0.0
 10
68.821097
 20
52.483923
 30
0.0
 10
68.420160
 20
52.605949
 30
0.0
 10
68.174206
 20
52.942001
 30
0.0
 10
67.857526
 20
53.645001
 30
0.0
 10
67.572774
 20
54.166934
 30
0.0
 10
67.146780
 20
54.465217
 30
0.0
 10
66.740003
 20
54.586212
 30
0.0
 10
66.190955
 20
54.489400
 30
0.0
 10
65.855933
 20
54.237605
 30
0.0
 10
65.703871
 20
54.024093
 30
0.0
 10
65.617724
 20
53.436762
 30
0.0
 10
65.747494
 20
52.700803
 30
0.0
 10
66.028295
 20
52.184197
 30
0.0
 10
66.245243
 20
52.029729
 30
0.0
 10
66.645149
 20
51.913546
 30
0.0
 10
67.194197
 20
52.010357
 30
0.0
 10
67.536090
 20
52.257341
 30
0.0
 10
67.832314
 20
52.695016
 30
0.0
 10
67.922411
 20
53.277022
 30
0.0
 10
67.979551
 20
54.045938
 30
0.0
 10
68.095736
 20
54.445845
 30
0.0
 10
68.431787
 20
54.691799
 30
0.0
 10
68.799767
 20
54.756684
 30
0.0
 10
69.199674
 20
54.640500
 30
0.0
 10
69.484426
 20
54.118568
 30
0.0
 10
69.614195
 20
53.382609
 30
0.0
  0
LWPOLYLINE
  5
12c
100
AcDbEntity
  8
Layer_1
 62
6
100
AcDbPolyline
 90
17
 70
1
 10
68.932339
 20
57.249599
 30
0.0
 10
68.842241
 20
56.667593
 30
0.0
 10
68.359107
 20
56.196960
 30
0.0
 10
67.468166
 20
55.853164
 30
0.0
 10
66.919117
 20
55.756352
 30
0.0
 10
65.964322
 20
55.774694
 30
0.0
 10
65.346439
 20
56.051186
 30
0.0
 10
65.065636
 20
56.567792
 30
0.0
 10
65.000752
 20
56.935772
 30
0.0
 10
65.086899
 20
57.523104
 30
0.0
 10
65.575013
 20
57.982569
 30
0.0
 10
66.464923
 20
58.332207
 30
0.0
 10
67.013971
 20
58.429019
 30
0.0
 10
67.969798
 20
58.404836
 30
0.0
 10
68.582701
 20
58.139510
 30
0.0
 10
68.867454
 20
57.617578
 30
0.0
 10
68.932339
 20
57.249599
 30
0.0
  0
LWPOLYLINE
  5
12d
100
AcDbEntity
  8
Layer_1
 62
6
100
AcDbPolyline
 90
23
 70
0
 10
68.735175
 20
44.126303
 30
0.0
 10
68.171725
 20
43.942441
 30
0.0
 10
67.804000
 20
43.568784
 30
0.0
 10
67.614206
 20
43.011265
 30
0.0
 10
67.614206
 20
42.821472
 30
0.0
 10
67.804000
 20
42.263953
 30
0.0
 10
68.171725
 20
41.884365
 30
0.0
 10
68.735175
 20
41.700503
 30
0.0
 10
68.919038
 20
41.700503
 30
0.0
 10
69.482487
 20
41.884365
 30
0.0
 10
69.856143
 20
42.263953
 30
0.0
 10
70.045937
 20
42.821472
 30
0.0
 10
70.045937
 20
43.011265
 30
0.0
 10
69.856143
 20
43.568784
 30
0.0
 10
69.482487
 20
43.942441
 30
0.0
 10
68.735175
 20
44.126303
 30
0.0
 10
67.804000
 20
44.126303
 30
0.0
 10
66.866894
 20
43.942441
 30
0.0
 10
66.306409
 20
43.568784
 30
0.0
 10
66.119581
 20
43.011265
 30
0.0
 10
66.119581
 20
42.631678
 30
0.0
 10
66.306409
 20
42.074159
 30
0.0
 10
66.680065
 20
41.884365
 30
0.0
  0
LWPOLYLINE
  5
12e
100
AcDbEntity
  8
Layer_1
 62
6
100
AcDbPolyline
 90
17
 70
1
 10
70.045937
 20
46.557766
 30
0.0
 10
69.856143
 20
46.000247
 30
0.0
 10
69.298626
 20
45.620660
 30
0.0
 10
68.361519
 20
45.436797
 30
0.0
 10
67.804000
 20
45.436797
 30
0.0
 10
66.866894
 20
45.620660
 30
0.0
 10
66.306409
 20
46.000247
 30
0.0
 10
66.119581
 20
46.557766
 30
0.0
 10
66.119581
 20
46.931422
 30
0.0
 10
66.306409
 20
47.494873
 30
0.0
 10
66.866894
 20
47.862597
 30
0.0
 10
67.804000
 20
48.052392
 30
0.0
 10
68.361519
 20
48.052392
 30
0.0
 10
69.298626
 20
47.862597
 30
0.0
 10
69.856143
 20
47.494873
 30
0.0
 10
70.045937
 20
46.931422
 30
0.0
 10
70.045937
 20
46.557766
 30
0.0
  0
LWPOLYLINE
  5
12f
100
AcDbEntity
  8
Layer_1
 62
5
100
AcDbPolyline
 90
232
 70
1
 10
3.711088
 20
114.274551
 30
0.0
 10
2.492153
 20
114.049922
 30
0.0
 10
1.548385
 20
113.414393
 30
0.0
 10
0.854912
 20
112.419028
 30
0.0
 10
0.386600
 20
111.115958
 30
0.0
 10
0.118048
 20
109.556505
 30
0.0
 10
0.024121
 20
107.792266
 30
0.0
 10
0.259864
 20
103.856593
 30
0.0
 10
0.892218
 20
99.721686
 30
0.0
 10
1.720364
 20
95.800829
 30
0.0
 10
3.158109
 20
90.253314
 30
0.0
 10
4.614905
 20
84.298874
 30
0.0
 10
5.505228
 20
79.038961
 30
0.0
 10
5.894430
 20
74.414313
 30
0.0
 10
5.847334
 20
70.365144
 30
0.0
 10
5.429557
 20
66.831899
 30
0.0
 10
4.706186
 20
63.755325
 30
0.0
 10
3.742309
 20
61.075626
 30
0.0
 10
2.603014
 20
58.733535
 30
0.0
 10
1.353652
 20
56.669256
 30
0.0
 10
0.059310
 20
54.823259
 30
0.0
 10
-1.648575
 20
52.415286
 30
0.0
 10
-3.497747
 20
50.094627
 30
0.0
 10
-5.477359
 20
47.869481
 30
0.0
 10
-7.576033
 20
45.746730
 30
0.0
 10
-9.782922
 20
43.734310
 30
0.0
 10
-12.086384
 20
41.839364
 30
0.0
 10
-14.475809
 20
40.069567
 30
0.0
 10
-16.939608
 20
38.432061
 30
0.0
 10
-19.467172
 20
36.934784
 30
0.0
 10
-22.046595
 20
35.584881
 30
0.0
 10
-24.667557
 20
34.390020
 30
0.0
 10
-27.318153
 20
33.357352
 30
0.0
 10
-29.987798
 20
32.494546
 30
0.0
 10
-32.665116
 20
31.809280
 30
0.0
 10
-35.338994
 20
31.308424
 30
0.0
 10
-37.998321
 20
31.000185
 30
0.0
 10
-40.179545
 20
30.841964
 30
0.0
 10
-42.215778
 20
30.389526
 30
0.0
 10
-44.096436
 20
29.676739
 30
0.0
 10
-45.810935
 20
28.737733
 30
0.0
 10
-47.348428
 20
27.606375
 30
0.0
 10
-48.698332
 20
26.316267
 30
0.0
 10
-49.849798
 20
24.901541
 30
0.0
 10
-50.792244
 20
23.395824
 30
0.0
 10
-51.514556
 20
21.833195
 30
0.0
 10
-52.006681
 20
20.247547
 30
0.0
 10
-52.257506
 20
18.672748
 30
0.0
 10
-52.257506
 20
17.142134
 30
0.0
 10
-51.993717
 20
15.690630
 30
0.0
 10
-51.456613
 20
14.351310
 30
0.0
 10
-50.635611
 20
13.158304
 30
0.0
 10
-49.519599
 20
12.145214
 30
0.0
 10
-48.616840
 20
11.705742
 30
0.0
 10
-47.198410
 20
11.297754
 30
0.0
 10
-42.949202
 20
10.571473
 30
0.0
 10
-37.043440
 20
9.957640
 30
0.0
 10
-29.752583
 20
9.446730
 30
0.0
 10
-12.100672
 20
8.697430
 30
0.0
 10
7.835148
 20
8.249755
 30
0.0
 10
27.884210
 20
8.029622
 30
0.0
 10
45.875581
 20
7.964005
 30
0.0
 10
67.000167
 20
7.999988
 30
0.0
 10
70.334710
 20
8.232822
 30
0.0
 10
73.420807
 20
8.889782
 30
0.0
 10
76.197605
 20
9.907105
 30
0.0
 10
78.605313
 20
11.222348
 30
0.0
 10
80.583073
 20
12.771747
 30
0.0
 10
82.070557
 20
14.492332
 30
0.0
 10
83.007182
 20
16.320867
 30
0.0
 10
83.250334
 20
17.256169
 30
0.0
 10
83.332884
 20
18.194646
 30
0.0
 10
83.112486
 20
20.559491
 30
0.0
 10
82.529609
 20
23.734464
 30
0.0
 10
80.750554
 20
31.160787
 30
0.0
 10
78.050746
 20
40.826804
 30
0.0
 10
78.099694
 20
41.776923
 30
0.0
 10
77.972165
 20
42.136489
 30
0.0
 10
77.626355
 20
42.297355
 30
0.0
 10
72.378084
 20
42.519605
 30
0.0
 10
72.472276
 20
45.027855
 30
0.0
 10
72.466455
 20
45.484790
 30
0.0
 10
73.326350
 20
45.525007
 30
0.0
 10
73.673748
 20
45.687990
 30
0.0
 10
73.805246
 20
46.048619
 30
0.0
 10
73.735396
 20
47.795134
 30
0.0
 10
73.575059
 20
48.141738
 30
0.0
 10
73.215755
 20
48.271119
 30
0.0
 10
72.391313
 20
48.232490
 30
0.0
 10
72.176472
 20
51.189472
 30
0.0
 10
73.027636
 20
51.304037
 30
0.0
 10
73.359688
 20
51.496389
 30
0.0
 10
73.459436
 20
51.866805
 30
0.0
 10
73.237450
 20
53.601149
 30
0.0
 10
73.047480
 20
53.932407
 30
0.0
 10
72.678121
 20
54.030038
 30
0.0
 10
71.860824
 20
53.919442
 30
0.0
 10
71.395160
 20
56.847321
 30
0.0
 10
72.226478
 20
57.034381
 30
0.0
 10
72.540803
 20
57.255043
 30
0.0
 10
72.608007
 20
57.632868
 30
0.0
 10
72.235474
 20
59.341282
 30
0.0
 10
72.017460
 20
59.655078
 30
0.0
 10
71.640958
 20
59.720166
 30
0.0
 10
70.838477
 20
59.539191
 30
0.0
 10
70.115635
 20
62.414417
 30
0.0
 10
70.928962
 20
62.673973
 30
0.0
 10
71.222649
 20
62.920829
 30
0.0
 10
71.256516
 20
63.302888
 30
0.0
 10
70.736609
 20
64.972408
 30
0.0
 10
70.492402
 20
65.265831
 30
0.0
 10
70.111931
 20
65.297581
 30
0.0
 10
69.333792
 20
65.049402
 30
0.0
 10
68.361713
 20
67.850809
 30
0.0
 10
69.145144
 20
68.178363
 30
0.0
 10
69.416077
 20
68.450090
 30
0.0
 10
69.415548
 20
68.834265
 30
0.0
 10
68.752502
 20
70.451663
 30
0.0
 10
68.483421
 20
70.722596
 30
0.0
 10
68.101363
 20
70.722596
 30
0.0
 10
67.346507
 20
70.406922
 30
0.0
 10
66.137364
 20
73.114137
 30
0.0
 10
66.887193
 20
73.508102
 30
0.0
 10
67.133517
 20
73.802067
 30
0.0
 10
67.100444
 20
74.184390
 30
0.0
 10
66.299024
 20
75.738287
 30
0.0
 10
66.007189
 20
75.984876
 30
0.0
 10
65.626718
 20
75.950219
 30
0.0
 10
64.906787
 20
75.572394
 30
0.0
 10
63.462427
 20
78.162397
 30
0.0
 10
64.174685
 20
78.619332
 30
0.0
 10
64.394289
 20
78.933921
 30
0.0
 10
64.328144
 20
79.311746
 30
0.0
 10
63.393636
 20
80.789706
 30
0.0
 10
63.081692
 20
81.009839
 30
0.0
 10
62.705986
 20
80.942106
 30
0.0
 10
62.022832
 20
80.503956
 30
0.0
 10
60.362837
 20
82.961670
 30
0.0
 10
61.026412
 20
83.474432
 30
0.0
 10
61.218232
 20
83.806749
 30
0.0
 10
61.119545
 20
84.177694
 30
0.0
 10
60.060154
 20
85.568871
 30
0.0
 10
59.729954
 20
85.760958
 30
0.0
 10
59.361389
 20
85.660681
 30
0.0
 10
58.719510
 20
85.164590
 30
0.0
 10
56.848380
 20
87.466197
 30
0.0
 10
57.467502
 20
88.036903
 30
0.0
 10
57.629163
 20
88.384827
 30
0.0
 10
57.498459
 20
88.745722
 30
0.0
 10
56.321860
 20
90.038737
 30
0.0
 10
55.976314
 20
90.201456
 30
0.0
 10
55.618065
 20
90.069694
 30
0.0
 10
55.026986
 20
89.524655
 30
0.0
 10
52.959797
 20
91.651637
 30
0.0
 10
53.524683
 20
92.271556
 30
0.0
 10
53.655387
 20
92.632447
 30
0.0
 10
53.493726
 20
92.980639
 30
0.0
 10
52.208910
 20
94.166236
 30
0.0
 10
51.850400
 20
94.298261
 30
0.0
 10
51.504589
 20
94.135545
 30
0.0
 10
50.960871
 20
93.538909
 30
0.0
 10
48.720380
 20
95.481742
 30
0.0
 10
49.227321
 20
96.146904
 30
0.0
 10
49.326011
 20
96.517585
 30
0.0
 10
49.134717
 20
96.850166
 30
0.0
 10
47.751476
 20
97.919347
 30
0.0
 10
47.382911
 20
98.019624
 30
0.0
 10
47.052712
 20
97.827272
 30
0.0
 10
46.565349
 20
97.188039
 30
0.0
 10
44.160817
 20
98.925028
 30
0.0
 10
44.608491
 20
99.632521
 30
0.0
 10
44.674637
 20
100.010346
 30
0.0
 10
44.455033
 20
100.324936
 30
0.0
 10
42.983686
 20
101.269498
 30
0.0
 10
42.607977
 20
101.337231
 30
0.0
 10
42.295769
 20
101.117098
 30
0.0
 10
41.866880
 20
100.439235
 30
0.0
 10
39.322382
 20
101.964029
 30
0.0
 10
39.703912
 20
102.702481
 30
0.0
 10
39.736720
 20
103.084803
 30
0.0
 10
39.490393
 20
103.379020
 30
0.0
 10
37.942581
 20
104.191817
 30
0.0
 10
37.562110
 20
104.226478
 30
0.0
 10
37.270275
 20
103.979889
 30
0.0
 10
36.901975
 20
103.266308
 30
0.0
 10
34.233415
 20
104.561969
 30
0.0
 10
34.550121
 20
105.333494
 30
0.0
 10
34.549856
 20
105.716875
 30
0.0
 10
34.278923
 20
105.988602
 30
0.0
 10
32.665759
 20
106.663554
 30
0.0
 10
32.283701
 20
106.663554
 30
0.0
 10
32.014355
 20
106.392356
 30
0.0
 10
31.711671
 20
105.654433
 30
0.0
 10
28.939104
 20
106.708798
 30
0.0
 10
29.186753
 20
107.503606
 30
0.0
 10
29.152887
 20
107.885664
 30
0.0
 10
28.859199
 20
108.132785
 30
0.0
 10
27.193648
 20
108.664595
 30
0.0
 10
26.812912
 20
108.632583
 30
0.0
 10
26.568173
 20
108.339160
 30
0.0
 10
26.330048
 20
107.574779
 30
0.0
 10
23.477576
 20
108.388105
 30
0.0
 10
23.654317
 20
109.199317
 30
0.0
 10
23.587378
 20
109.577407
 30
0.0
 10
23.273317
 20
109.797805
 30
0.0
 10
21.567549
 20
110.182244
 30
0.0
 10
21.191312
 20
110.117157
 30
0.0
 10
20.973295
 20
109.803625
 30
0.0
 10
20.802903
 20
109.022840
 30
0.0
 10
17.889312
 20
109.580846
 30
0.0
 10
17.995145
 20
110.406611
 30
0.0
 10
17.895662
 20
110.777027
 30
0.0
 10
17.563610
 20
110.969379
 30
0.0
 10
15.831118
 20
111.204065
 30
0.0
 10
15.461760
 20
111.106433
 30
0.0
 10
15.271789
 20
110.775175
 30
0.0
 10
15.169925
 20
109.983278
 30
0.0
 10
12.218763
 20
110.287813
 30
0.0
 10
12.252365
 20
111.116223
 30
0.0
 10
12.120867
 20
111.476585
 30
0.0
 10
11.773470
 20
111.639040
 30
0.0
 10
10.583374
 20
111.695396
 30
0.0
 10
9.954724
 20
111.695131
 30
0.0
 10
9.645691
 20
111.553050
 30
0.0
 10
9.508108
 20
111.245075
 30
0.0
 10
9.475564
 20
110.445240
 30
0.0
 10
7.002504
 20
110.497363
 30
0.0
 10
6.502177
 20
110.478842
 30
0.0
 10
6.446879
 20
111.695396
 30
0.0
 10
5.693875
 20
111.695396
 30
0.0
 10
4.066159
 20
114.259470
 30
0.0
 10
3.709501
 20
114.274551
 30
0.0
  0
ENDSEC
  0
SECTION
  2
OBJECTS
  0
DICTIONARY
  5
C
330
0
100
AcDbDictionary
  3
ACAD_GROUP
350
D
  3
ACAD_MLINESTYLE
350
17
  0
DICTIONARY
  5
D
330
C
100
AcDbDictionary
  0
DICTIONARY
  5
1A
330
C
100
AcDbDictionary
  0
DICTIONARY
  5
17
330
C
100
AcDbDictionary
  3
STANDARD
350
18
  0
DICTIONARY
  5
19
330
C
100
AcDbDictionary
  0
ENDSEC
  0
EOF
