  0
SECTION
  2
HEADER
  9
$ACADVER
  1
AC1014
  9
$HANDSEED
  5
FFFF
  9
$MEASUREMENT
 70
     1
  0
ENDSEC
  0
SECTION
  2
TABLES
  0
TABLE
  2
VPORT
  5
8
330
0
100
AcDbSymbolTable
 70
     4
  0
VPORT
  5
2E
330
8
100
AcDbSymbolTableRecord
100
AcDbViewportTableRecord
  2
*ACTIVE
 70
     0
 10
0.0
 20
0.0
 11
1.0
 21
1.0
 12
210.0
 22
148.5
 13
0.0
 23
0.0
 14
10.0
 24
10.0
 15
10.0
 25
10.0
 16
0.0
 26
0.0
 36
1.0
 17
0.0
 27
0.0
 37
0.0
 40
341.0
 41
1.24
 42
50.0
 43
0.0
 44
0.0
 50
0.0
 51
0.0
 71
     0
 72
   100
 73
     1
 74
     3
 75
     0
 76
     0
 77
     0
 78
     0
  0
ENDTAB
  0
TABLE
  2
LTYPE
  5
5
330
0
100
AcDbSymbolTable
 70
     1
  0
LTYPE
  5
14
330
5
100
AcDbSymbolTableRecord
100
AcDbLinetypeTableRecord
  2
BYBLOCK
 70
     0
  3

 72
    65
 73
     0
 40
0.0
  0
LTYPE
  5
15
330
5
100
AcDbSymbolTableRecord
100
AcDbLinetypeTableRecord
  2
BYLAYER
 70
     0
  3

 72
    65
 73
     0
 40
0.0
  0
LTYPE
  5
16
330
5
100
AcDbSymbolTableRecord
100
AcDbLinetypeTableRecord
  2
CONTINUOUS
 70
     0
  3
Solid line
 72
    65
 73
     0
 40
0.0
  0
ENDTAB
  0
TABLE
  2
LAYER
  5
2
100
AcDbSymbolTable
 70
3
  0
LAYER
  5
50
100
AcDbSymbolTableRecord
100
AcDbLayerTableRecord
  2
0
 70
0
  6
CONTINUOUS
  0
LAYER
  5
51
100
AcDbSymbolTableRecord
100
AcDbLayerTableRecord
  2
phone
 70
0
  6
CONTINUOUS
  0
LAYER
  5
52
100
AcDbSymbolTableRecord
100
AcDbLayerTableRecord
  2
side
 70
0
  6
CONTINUOUS
  0
ENDTAB
  0
TABLE
  2
STYLE
  5
3
330
0
100
AcDbSymbolTable
 70
     1
  0
STYLE
  5
11
330
3
100
AcDbSymbolTableRecord
100
AcDbTextStyleTableRecord
  2
STANDARD
 70
     0
 40
0.0
 41
1.0
 50
0.0
 71
     0
 42
2.5
  3
txt
  4

  0
ENDTAB
  0
TABLE
  2
VIEW
  5
6
330
0
100
AcDbSymbolTable
 70
     0
  0
ENDTAB
  0
TABLE
  2
UCS
  5
7
330
0
100
AcDbSymbolTable
 70
     0
  0
ENDTAB
  0
TABLE
  2
APPID
  5
9
330
0
100
AcDbSymbolTable
 70
     2
  0
APPID
  5
12
330
9
100
AcDbSymbolTableRecord
100
AcDbRegAppTableRecord
  2
ACAD
 70
     0
  0
ENDTAB
  0
TABLE
  2
DIMSTYLE
  5
A
330
0
100
AcDbSymbolTable
 70
     1
  0
DIMSTYLE
105
27
330
A
100
AcDbSymbolTableRecord
100
AcDbDimStyleTableRecord
  2
ISO-25
 70
     0
  3

  4

  5

  6

  7

 40
1.0
 41
2.5
 42
0.625
 43
3.75
 44
1.25
 45
0.0
 46
0.0
 47
0.0
 48
0.0
140
2.5
141
2.5
142
0.0
143
0.03937007874016
144
1.0
145
0.0
146
1.0
147
0.625
 71
     0
 72
     0
 73
     0
 74
     0
 75
     0
 76
     0
 77
     1
 78
     8
170
     0
171
     3
172
     1
173
     0
174
     0
175
     0
176
     0
177
     0
178
     0
270
     2
271
     2
272
     2
273
     2
274
     3
340
11
275
     0
280
     0
281
     0
282
     0
283
     0
284
     8
285
     0
286
     0
287
     3
288
     0
  0
ENDTAB
  0
TABLE
  2
BLOCK_RECORD
  5
1
330
0
100
AcDbSymbolTable
 70
     1
  0
BLOCK_RECORD
  5
1F
330
1
100
AcDbSymbolTableRecord
100
AcDbBlockTableRecord
  2
*MODEL_SPACE
  0
BLOCK_RECORD
  5
1B
330
1
100
AcDbSymbolTableRecord
100
AcDbBlockTableRecord
  2
*PAPER_SPACE
  0
ENDTAB
  0
ENDSEC
  0
SECTION
  2
BLOCKS
  0
BLOCK
  5
20
330
1F
100
AcDbEntity
  8
0
100
AcDbBlockBegin
  2
*MODEL_SPACE
 70
     0
 10
0.0
 20
0.0
 30
0.0
  3
*MODEL_SPACE
  1

  0
ENDBLK
  5
21
330
1F
100
AcDbEntity
  8
0
100
AcDbBlockEnd
  0
BLOCK
  5
1C
330
1B
100
AcDbEntity
 67
     1
  8
0
100
AcDbBlockBegin
  2
*PAPER_SPACE
  1

  0
ENDBLK
  5
1D
330
1B
100
AcDbEntity
 67
     1
  8
0
100
AcDbBlockEnd
  0
ENDSEC
  0
SECTION
  2
ENTITIES
  0
LWPOLYLINE
  5
100
100
AcDbEntity
  8
phone
 62
7
100
AcDbPolyline
 90
63
 70
1
 10
1.999878
 20
297.000000
 30
0.0
 10
1.595768
 20
296.959692
 30
0.0
 10
1.220081
 20
296.843420
 30
0.0
 10
0.880050
 20
296.659452
 30
0.0
 10
0.584460
 20
296.415540
 30
0.0
 10
0.340548
 20
296.119950
 30
0.0
 10
0.156580
 20
295.779919
 30
0.0
 10
0.040308
 20
295.404232
 30
0.0
 10
0.000000
 20
295.000122
 30
0.0
 10
0.000000
 20
277.499898
 30
0.0
 10
3.500045
 20
277.499898
 30
0.0
 10
3.500045
 20
277.000187
 30
0.0
 10
3.500045
 20
246.999952
 30
0.0
 10
2.999817
 20
246.999952
 30
0.0
 10
2.999817
 20
277.000187
 30
0.0
 10
0.000000
 20
277.000187
 30
0.0
 10
-1.500167
 20
277.000187
 30
0.0
 10
-1.500167
 20
266.999764
 30
0.0
 10
0.000000
 20
266.999764
 30
0.0
 10
0.000000
 20
203.999994
 30
0.0
 10
-2.999817
 20
203.999994
 30
0.0
 10
-2.999817
 20
198.999782
 30
0.0
 10
0.000000
 20
198.999782
 30
0.0
 10
0.040308
 20
198.595670
 30
0.0
 10
0.156580
 20
198.219983
 30
0.0
 10
0.340548
 20
197.879954
 30
0.0
 10
0.584460
 20
197.584364
 30
0.0
 10
0.880050
 20
197.340450
 30
0.0
 10
1.220081
 20
197.156483
 30
0.0
 10
1.595768
 20
197.040212
 30
0.0
 10
1.999878
 20
196.999905
 30
0.0
 10
77.999888
 20
196.999905
 30
0.0
 10
78.403999
 20
197.040212
 30
0.0
 10
78.779687
 20
197.156483
 30
0.0
 10
79.119718
 20
197.340450
 30
0.0
 10
79.415306
 20
197.584364
 30
0.0
 10
79.659220
 20
197.879954
 30
0.0
 10
79.843187
 20
198.219983
 30
0.0
 10
79.958942
 20
198.595670
 30
0.0
 10
79.999768
 20
198.999782
 30
0.0
 10
83.000100
 20
198.999782
 30
0.0
 10
83.000100
 20
203.999994
 30
0.0
 10
79.999768
 20
203.999994
 30
0.0
 10
79.999768
 20
266.999764
 30
0.0
 10
81.499934
 20
266.999764
 30
0.0
 10
81.499934
 20
277.000187
 30
0.0
 10
79.999768
 20
277.000187
 30
0.0
 10
76.999951
 20
277.000187
 30
0.0
 10
76.999951
 20
246.999952
 30
0.0
 10
76.500240
 20
246.999952
 30
0.0
 10
76.500240
 20
277.000187
 30
0.0
 10
76.500240
 20
277.499898
 30
0.0
 10
79.999768
 20
277.499898
 30
0.0
 10
79.999768
 20
295.000122
 30
0.0
 10
79.958942
 20
295.404232
 30
0.0
 10
79.843187
 20
295.779919
 30
0.0
 10
79.659220
 20
296.119950
 30
0.0
 10
79.415306
 20
296.415540
 30
0.0
 10
79.119718
 20
296.659452
 30
0.0
 10
78.779687
 20
296.843420
 30
0.0
 10
78.403999
 20
296.959692
 30
0.0
 10
77.999888
 20
297.000000
 30
0.0
 10
1.999878
 20
297.000000
 30
0.0
  0
LWPOLYLINE
  5
101
100
AcDbEntity
  8
side
 62
7
100
AcDbPolyline
 90
85
 70
1
 10
108.499803
 20
290.500140
 30
0.0
 10
108.499803
 20
289.413391
 30
0.0
 10
106.365938
 20
289.318776
 30
0.0
 10
104.237101
 20
289.154681
 30
0.0
 10
102.114349
 20
288.921239
 30
0.0
 10
100.000063
 20
288.618609
 30
0.0
 10
100.000063
 20
219.000041
 30
0.0
 10
100.040545
 20
218.596022
 30
0.0
 10
100.156697
 20
218.220313
 30
0.0
 10
100.340847
 20
217.880324
 30
0.0
 10
100.584528
 20
217.584784
 30
0.0
 10
100.880332
 20
217.340839
 30
0.0
 10
101.220057
 20
217.156953
 30
0.0
 10
101.596030
 20
217.040801
 30
0.0
 10
102.000049
 20
217.000320
 30
0.0
 10
174.968692
 20
217.000320
 30
0.0
 10
175.164219
 20
218.744718
 30
0.0
 10
175.312914
 20
220.493349
 30
0.0
 10
175.414514
 20
222.245420
 30
0.0
 10
175.469283
 20
223.999872
 30
0.0
 10
175.445735
 20
225.762261
 30
0.0
 10
175.374827
 20
227.518301
 30
0.0
 10
175.257352
 20
229.267461
 30
0.0
 10
175.093575
 20
231.008684
 30
0.0
 10
174.883496
 20
232.741440
 30
0.0
 10
174.628173
 20
234.464407
 30
0.0
 10
174.327342
 20
236.177055
 30
0.0
 10
173.981796
 20
237.878590
 30
0.0
 10
173.591800
 20
239.568219
 30
0.0
 10
173.157883
 20
241.244619
 30
0.0
 10
172.680046
 20
242.907526
 30
0.0
 10
172.158817
 20
244.555880
 30
0.0
 10
171.594725
 20
246.188888
 30
0.0
 10
170.988035
 20
247.805492
 30
0.0
 10
170.339277
 20
249.405163
 30
0.0
 10
169.648715
 20
250.986842
 30
0.0
 10
168.916612
 20
252.549736
 30
0.0
 10
168.143500
 20
254.093051
 30
0.0
 10
167.329642
 20
255.616257
 30
0.0
 10
166.475567
 20
257.117767
 30
0.0
 10
165.581540
 20
258.597317
 30
0.0
 10
164.647825
 20
260.054113
 30
0.0
 10
163.675217
 20
261.487096
 30
0.0
 10
162.663715
 20
262.895209
 30
0.0
 10
161.613848
 20
264.278186
 30
0.0
 10
160.525881
 20
265.634705
 30
0.0
 10
159.400344
 20
266.964236
 30
0.0
 10
158.237500
 20
268.265457
 30
0.0
 10
157.037879
 20
269.538367
 30
0.0
 10
155.801481
 20
270.781300
 30
0.0
 10
154.529100
 20
271.993859
 30
0.0
 10
153.221265
 20
273.175091
 30
0.0
 10
153.894894
 20
273.977625
 30
0.0
 10
151.596988
 20
275.905671
 30
0.0
 10
150.920977
 20
275.100570
 30
0.0
 10
148.768063
 20
276.750591
 30
0.0
 10
149.372371
 20
277.613080
 30
0.0
 10
146.914656
 20
279.333903
 30
0.0
 10
146.311936
 20
278.472976
 30
0.0
 10
144.023819
 20
279.930248
 30
0.0
 10
144.549282
 20
280.840785
 30
0.0
 10
141.951602
 20
282.340443
 30
0.0
 10
141.425082
 20
281.428345
 30
0.0
 10
139.020019
 20
282.683052
 30
0.0
 10
139.463725
 20
283.635446
 30
0.0
 10
136.745132
 20
284.903065
 30
0.0
 10
136.301690
 20
283.952735
 30
0.0
 10
133.793969
 20
284.987308
 30
0.0
 10
134.154067
 20
285.976374
 30
0.0
 10
131.335196
 20
287.002666
 30
0.0
 10
130.974834
 20
286.013601
 30
0.0
 10
128.389061
 20
286.832671
 30
0.0
 10
128.660259
 20
287.846025
 30
0.0
 10
125.762807
 20
288.622207
 30
0.0
 10
125.490551
 20
287.606260
 30
0.0
 10
122.842071
 20
288.192788
 30
0.0
 10
123.025163
 20
289.229426
 30
0.0
 10
120.070826
 20
289.750311
 30
0.0
 10
119.888263
 20
288.716796
 30
0.0
 10
117.198509
 20
289.068189
 30
0.0
 10
117.290055
 20
290.116177
 30
0.0
 10
114.301586
 20
290.377664
 30
0.0
 10
114.209511
 20
289.328644
 30
0.0
 10
111.500178
 20
289.450591
 30
0.0
 10
111.500178
 20
290.500140
 30
0.0
  0
LWPOLYLINE
  5
102
100
AcDbEntity
  8
side
 62
7
100
AcDbPolyline
 90
33
 70
1
 10
109.999990
 20
226.920078
 30
0.0
 10
110.572284
 20
226.863457
 30
0.0
 10
111.117590
 20
226.697828
 30
0.0
 10
111.620299
 20
226.429540
 30
0.0
 10
112.065063
 20
226.064680
 30
0.0
 10
112.429659
 20
225.619915
 30
0.0
 10
112.697946
 20
225.117472
 30
0.0
 10
112.863576
 20
224.572165
 30
0.0
 10
112.920196
 20
223.999872
 30
0.0
 10
112.860930
 20
223.411438
 30
0.0
 10
112.690538
 20
222.863222
 30
0.0
 10
112.421457
 20
222.367393
 30
0.0
 10
112.064799
 20
221.935063
 30
0.0
 10
111.632734
 20
221.578670
 30
0.0
 10
111.136640
 20
221.309588
 30
0.0
 10
110.588424
 20
221.139461
 30
0.0
 10
109.999990
 20
221.080195
 30
0.0
 10
109.411557
 20
221.139461
 30
0.0
 10
108.863340
 20
221.309588
 30
0.0
 10
108.367247
 20
221.578670
 30
0.0
 10
107.935182
 20
221.935063
 30
0.0
 10
107.578524
 20
222.367393
 30
0.0
 10
107.309442
 20
222.863222
 30
0.0
 10
107.139051
 20
223.411438
 30
0.0
 10
107.079784
 20
223.999872
 30
0.0
 10
107.136405
 20
224.572165
 30
0.0
 10
107.302034
 20
225.117472
 30
0.0
 10
107.570322
 20
225.619915
 30
0.0
 10
107.934917
 20
226.064680
 30
0.0
 10
108.379682
 20
226.429540
 30
0.0
 10
108.882390
 20
226.697828
 30
0.0
 10
109.427697
 20
226.863457
 30
0.0
 10
109.999990
 20
226.920078
 30
0.0
  0
ENDSEC
  0
SECTION
  2
OBJECTS
  0
DICTIONARY
  5
C
330
0
100
AcDbDictionary
  3
ACAD_GROUP
350
D
  3
ACAD_MLINESTYLE
350
17
  0
DICTIONARY
  5
D
330
C
100
AcDbDictionary
  0
DICTIONARY
  5
1A
330
C
100
AcDbDictionary
  0
DICTIONARY
  5
17
330
C
100
AcDbDictionary
  3
STANDARD
350
18
  0
DICTIONARY
  5
19
330
C
100
AcDbDictionary
  0
ENDSEC
  0
EOF
