  0
SECTION
  2
HEADER
  9
$ACADVER
  1
AC1014
  9
$HANDSEED
  5
FFFF
  9
$MEASUREMENT
 70
     1
  0
ENDSEC
  0
SECTION
  2
TABLES
  0
TABLE
  2
VPORT
  5
8
330
0
100
AcDbSymbolTable
 70
     4
  0
VPORT
  5
2E
330
8
100
AcDbSymbolTableRecord
100
AcDbViewportTableRecord
  2
*ACTIVE
 70
     0
 10
0.0
 20
0.0
 11
1.0
 21
1.0
 12
210.0
 22
148.5
 13
0.0
 23
0.0
 14
10.0
 24
10.0
 15
10.0
 25
10.0
 16
0.0
 26
0.0
 36
1.0
 17
0.0
 27
0.0
 37
0.0
 40
341.0
 41
1.24
 42
50.0
 43
0.0
 44
0.0
 50
0.0
 51
0.0
 71
     0
 72
   100
 73
     1
 74
     3
 75
     0
 76
     0
 77
     0
 78
     0
  0
ENDTAB
  0
TABLE
  2
LTYPE
  5
5
330
0
100
AcDbSymbolTable
 70
     1
  0
LTYPE
  5
14
330
5
100
AcDbSymbolTableRecord
100
AcDbLinetypeTableRecord
  2
BYBLOCK
 70
     0
  3

 72
    65
 73
     0
 40
0.0
  0
LTYPE
  5
15
330
5
100
AcDbSymbolTableRecord
100
AcDbLinetypeTableRecord
  2
BYLAYER
 70
     0
  3

 72
    65
 73
     0
 40
0.0
  0
LTYPE
  5
16
330
5
100
AcDbSymbolTableRecord
100
AcDbLinetypeTableRecord
  2
CONTINUOUS
 70
     0
  3
Solid line
 72
    65
 73
     0
 40
0.0
  0
ENDTAB
  0
TABLE
  2
LAYER
  5
2
100
AcDbSymbolTable
 70
2
  0
LAYER
  5
50
100
AcDbSymbolTableRecord
100
AcDbLayerTableRecord
  2
0
 70
0
  6
CONTINUOUS
  0
LAYER
  5
51
100
AcDbSymbolTableRecord
100
AcDbLayerTableRecord
  2
Layer_1
 70
0
  6
CONTINUOUS
  0
ENDTAB
  0
TABLE
  2
STYLE
  5
3
330
0
100
AcDbSymbolTable
 70
     1
  0
STYLE
  5
11
330
3
100
AcDbSymbolTableRecord
100
AcDbTextStyleTableRecord
  2
STANDARD
 70
     0
 40
0.0
 41
1.0
 50
0.0
 71
     0
 42
2.5
  3
txt
  4

  0
ENDTAB
  0
TABLE
  2
VIEW
  5
6
330
0
100
AcDbSymbolTable
 70
     0
  0
ENDTAB
  0
TABLE
  2
UCS
  5
7
330
0
100
AcDbSymbolTable
 70
     0
  0
ENDTAB
  0
TABLE
  2
APPID
  5
9
330
0
100
AcDbSymbolTable
 70
     2
  0
APPID
  5
12
330
9
100
AcDbSymbolTableRecord
100
AcDbRegAppTableRecord
  2
ACAD
 70
     0
  0
ENDTAB
  0
TABLE
  2
DIMSTYLE
  5
A
330
0
100
AcDbSymbolTable
 70
     1
  0
DIMSTYLE
105
27
330
A
100
AcDbSymbolTableRecord
100
AcDbDimStyleTableRecord
  2
ISO-25
 70
     0
  3

  4

  5

  6

  7

 40
1.0
 41
2.5
 42
0.625
 43
3.75
 44
1.25
 45
0.0
 46
0.0
 47
0.0
 48
0.0
140
2.5
141
2.5
142
0.0
143
0.03937007874016
144
1.0
145
0.0
146
1.0
147
0.625
 71
     0
 72
     0
 73
     0
 74
     0
 75
     0
 76
     0
 77
     1
 78
     8
170
     0
171
     3
172
     1
173
     0
174
     0
175
     0
176
     0
177
     0
178
     0
270
     2
271
     2
272
     2
273
     2
274
     3
340
11
275
     0
280
     0
281
     0
282
     0
283
     0
284
     8
285
     0
286
     0
287
     3
288
     0
  0
ENDTAB
  0
TABLE
  2
BLOCK_RECORD
  5
1
330
0
100
AcDbSymbolTable
 70
     1
  0
BLOCK_RECORD
  5
1F
330
1
100
AcDbSymbolTableRecord
100
AcDbBlockTableRecord
  2
*MODEL_SPACE
  0
BLOCK_RECORD
  5
1B
330
1
100
AcDbSymbolTableRecord
100
AcDbBlockTableRecord
  2
*PAPER_SPACE
  0
ENDTAB
  0
ENDSEC
  0
SECTION
  2
BLOCKS
  0
BLOCK
  5
20
330
1F
100
AcDbEntity
  8
0
100
AcDbBlockBegin
  2
*MODEL_SPACE
 70
     0
 10
0.0
 20
0.0
 30
0.0
  3
*MODEL_SPACE
  1

  0
ENDBLK
  5
21
330
1F
100
AcDbEntity
  8
0
100
AcDbBlockEnd
  0
BLOCK
  5
1C
330
1B
100
AcDbEntity
 67
     1
  8
0
100
AcDbBlockBegin
  2
*PAPER_SPACE
  1

  0
ENDBLK
  5
1D
330
1B
100
AcDbEntity
 67
     1
  8
0
100
AcDbBlockEnd
  0
ENDSEC
  0
SECTION
  2
ENTITIES
  0
LWPOLYLINE
  5
100
100
AcDbEntity
  8
Layer_1
 62
1
100
AcDbPolyline
 90
17
 70
1
 10
12.920000
 20
40.000000
 30
0.0
 10
12.690500
 20
38.863400
 30
0.0
 10
12.064800
 20
37.935200
 30
0.0
 10
11.136600
 20
37.309500
 30
0.0
 10
10.000000
 20
37.080000
 30
0.0
 10
8.863400
 20
37.309500
 30
0.0
 10
7.935250
 20
37.935200
 30
0.0
 10
7.309470
 20
38.863400
 30
0.0
 10
7.080000
 20
40.000000
 30
0.0
 10
7.309470
 20
41.136600
 30
0.0
 10
7.935250
 20
42.064800
 30
0.0
 10
8.863400
 20
42.690500
 30
0.0
 10
10.000000
 20
42.920000
 30
0.0
 10
11.136600
 20
42.690500
 30
0.0
 10
12.064800
 20
42.064800
 30
0.0
 10
12.690500
 20
41.136600
 30
0.0
 10
12.920000
 20
40.000000
 30
0.0
  0
LWPOLYLINE
  5
101
100
AcDbEntity
  8
Layer_1
 62
1
100
AcDbPolyline
 90
230
 70
1
 10
5.462720
 20
110.814698
 30
0.0
 10
4.807506
 20
110.776068
 30
0.0
 10
4.215262
 20
110.646423
 30
0.0
 10
3.683423
 20
110.430258
 30
0.0
 10
3.209475
 20
110.133131
 30
0.0
 10
2.790878
 20
109.760598
 30
0.0
 10
2.425078
 20
109.317420
 30
0.0
 10
2.109576
 20
108.809156
 30
0.0
 10
1.841823
 20
108.240831
 30
0.0
 10
1.619292
 20
107.618002
 30
0.0
 10
1.439447
 20
106.945431
 30
0.0
 10
1.299758
 20
106.228833
 30
0.0
 10
1.197689
 20
105.473210
 30
0.0
 10
1.096290
 20
103.865998
 30
0.0
 10
1.114989
 20
102.165865
 30
0.0
 10
1.233525
 20
100.414721
 30
0.0
 10
1.431642
 20
98.654527
 30
0.0
 10
1.689074
 20
96.927248
 30
0.0
 10
1.985566
 20
95.274845
 30
0.0
 10
2.614684
 20
92.362497
 30
0.0
 10
3.156902
 20
90.253133
 30
0.0
 10
3.982085
 20
87.166081
 30
0.0
 10
4.699582
 20
84.223464
 30
0.0
 10
5.314976
 20
81.420619
 30
0.0
 10
5.833771
 20
78.752905
 30
0.0
 10
6.261523
 20
76.215665
 30
0.0
 10
6.603735
 20
73.804252
 30
0.0
 10
6.865937
 20
71.514019
 30
0.0
 10
7.053659
 20
69.340308
 30
0.0
 10
7.172431
 20
67.278463
 30
0.0
 10
7.227782
 20
65.323854
 30
0.0
 10
7.225242
 20
63.471823
 30
0.0
 10
7.170341
 20
61.717715
 30
0.0
 10
7.068608
 20
60.056873
 30
0.0
 10
6.925548
 20
58.484666
 30
0.0
 10
6.746743
 20
56.996411
 30
0.0
 10
6.537669
 20
55.587505
 30
0.0
 10
6.050888
 20
52.988952
 30
0.0
 10
5.509472
 20
50.652152
 30
0.0
 10
4.439576
 20
46.613817
 30
0.0
 10
3.999547
 20
44.837934
 30
0.0
 10
3.681783
 20
43.175028
 30
0.0
 10
3.582591
 20
42.374134
 30
0.0
 10
3.530521
 20
41.587263
 30
0.0
 10
3.531129
 20
40.810182
 30
0.0
 10
3.589972
 20
40.038128
 30
0.0
 10
3.822038
 20
38.678698
 30
0.0
 10
4.168061
 20
37.469023
 30
0.0
 10
4.605708
 20
36.389523
 30
0.0
 10
5.112597
 20
35.420619
 30
0.0
 10
5.666449
 20
34.542732
 30
0.0
 10
6.244907
 20
33.736546
 30
0.0
 10
7.386293
 20
32.261494
 30
0.0
 10
7.904559
 20
31.553205
 30
0.0
 10
8.358082
 20
30.838830
 30
0.0
 10
8.724556
 20
30.098790
 30
0.0
 10
8.981625
 20
29.313507
 30
0.0
 10
9.106958
 20
28.463401
 30
0.0
 10
9.113255
 20
28.008053
 30
0.0
 10
9.078224
 20
27.529157
 30
0.0
 10
8.999114
 20
27.024332
 30
0.0
 10
8.873119
 20
26.491197
 30
0.0
 10
8.469259
 20
25.329940
 30
0.0
 10
8.327866
 20
25.055038
 30
0.0
 10
8.138795
 20
24.794424
 30
0.0
 10
7.903527
 20
24.547038
 30
0.0
 10
7.623466
 20
24.313147
 30
0.0
 10
6.934756
 20
23.883728
 30
0.0
 10
6.084067
 20
23.503786
 30
0.0
 10
5.082937
 20
23.170676
 30
0.0
 10
3.942794
 20
22.882015
 30
0.0
 10
2.675123
 20
22.634894
 30
0.0
 10
1.291392
 20
22.427197
 30
0.0
 10
-0.196936
 20
22.256011
 30
0.0
 10
-1.778386
 20
22.119222
 30
0.0
 10
-5.174774
 20
21.937982
 30
0.0
 10
-8.806048
 20
21.863105
 30
0.0
 10
-12.580408
 20
21.874482
 30
0.0
 10
-16.406151
 20
21.951740
 30
0.0
 10
-20.191492
 20
22.074772
 30
0.0
 10
-27.274043
 20
22.376926
 30
0.0
 10
-33.093818
 20
22.618755
 30
0.0
 10
-35.300972
 20
22.666644
 30
0.0
 10
-36.917047
 20
22.638599
 30
0.0
 10
-38.266687
 20
22.510540
 30
0.0
 10
-39.711312
 20
22.276119
 30
0.0
 10
-41.214145
 20
21.943274
 30
0.0
 10
-42.739204
 20
21.519411
 30
0.0
 10
-44.249974
 20
21.012469
 30
0.0
 10
-45.709945
 20
20.430122
 30
0.0
 10
-47.082868
 20
19.780040
 30
0.0
 10
-48.332495
 20
19.069899
 30
0.0
 10
-49.422314
 20
18.307105
 30
0.0
 10
-49.895918
 20
17.908642
 30
0.0
 10
-50.315812
 20
17.499597
 30
0.0
 10
-50.677497
 20
17.081555
 30
0.0
 10
-50.976741
 20
16.655047
 30
0.0
 10
-51.208781
 20
16.221395
 30
0.0
 10
-51.368854
 20
15.781128
 30
0.0
 10
-51.452462
 20
15.335570
 30
0.0
 10
-51.455372
 20
14.885513
 30
0.0
 10
-51.373087
 20
14.432017
 30
0.0
 10
-51.200579
 20
13.975876
 30
0.0
 10
-50.933614
 20
13.518147
 30
0.0
 10
-50.567431
 20
13.059888
 30
0.0
 10
-50.097795
 20
12.601895
 30
0.0
 10
-49.519945
 20
12.145224
 30
0.0
 10
-49.132595
 20
11.923238
 30
0.0
 10
-48.606339
 20
11.713159
 30
0.0
 10
-47.945939
 20
11.514457
 30
0.0
 10
-47.155629
 20
11.326868
 30
0.0
 10
-45.203533
 20
10.984497
 30
0.0
 10
-42.784977
 20
10.683930
 30
0.0
 10
-39.935414
 20
10.422786
 30
0.0
 10
-36.690300
 20
10.199213
 30
0.0
 10
-33.085087
 20
10.011095
 30
0.0
 10
-29.154702
 20
9.856049
 30
0.0
 10
-20.460123
 20
9.637238
 30
0.0
 10
-10.889562
 20
9.526113
 30
0.0
 10
-0.725551
 20
9.505740
 30
0.0
 10
9.749340
 20
9.559186
 30
0.0
 10
20.252531
 20
9.669782
 30
0.0
 10
30.501431
 20
9.820330
 30
0.0
 10
49.105872
 20
10.174078
 30
0.0
 10
63.301826
 20
10.485493
 30
0.0
 10
70.828693
 20
10.619107
 30
0.0
 10
72.480222
 20
10.649270
 30
0.0
 10
73.998930
 20
10.739757
 30
0.0
 10
75.387728
 20
10.889776
 30
0.0
 10
76.651114
 20
11.099855
 30
0.0
 10
77.792262
 20
11.369201
 30
0.0
 10
78.814876
 20
11.697813
 30
0.0
 10
79.722661
 20
12.085428
 30
0.0
 10
80.519586
 20
12.531780
 30
0.0
 10
81.208826
 20
13.036870
 30
0.0
 10
81.794349
 20
13.600432
 30
0.0
 10
82.279859
 20
14.221938
 30
0.0
 10
82.668532
 20
14.901388
 30
0.0
 10
82.964866
 20
15.638782
 30
0.0
 10
83.171770
 20
16.433326
 30
0.0
 10
83.293214
 20
17.285549
 30
0.0
 10
83.332901
 20
18.194392
 30
0.0
 10
83.298770
 20
19.241878
 30
0.0
 10
83.201932
 20
20.492563
 30
0.0
 10
82.856386
 20
23.454574
 30
0.0
 10
82.367172
 20
26.783297
 30
0.0
 10
81.805991
 20
30.181605
 30
0.0
 10
80.750568
 20
35.998734
 30
0.0
 10
80.259766
 20
38.529738
 30
0.0
 10
80.265851
 20
38.596942
 30
0.0
 10
75.420801
 20
38.692986
 30
0.0
 10
75.469749
 20
39.999763
 30
0.0
 10
75.452287
 20
41.355223
 30
0.0
 10
76.502947
 20
41.401261
 30
0.0
 10
76.371978
 20
44.398461
 30
0.0
 10
75.319466
 20
44.352688
 30
0.0
 10
75.084780
 20
47.054613
 30
0.0
 10
76.127768
 20
47.192196
 30
0.0
 10
75.736449
 20
50.166113
 30
0.0
 10
74.696107
 20
50.029323
 30
0.0
 10
74.220916
 20
52.700292
 30
0.0
 10
75.249087
 20
52.928363
 30
0.0
 10
74.600064
 20
55.856771
 30
0.0
 10
73.571099
 20
55.628886
 30
0.0
 10
72.874187
 20
58.250430
 30
0.0
 10
73.874047
 20
58.565655
 30
0.0
 10
72.971818
 20
61.426965
 30
0.0
 10
71.968782
 20
61.110708
 30
0.0
 10
71.039566
 20
63.658884
 30
0.0
 10
72.012703
 20
64.061950
 30
0.0
 10
70.864941
 20
66.833884
 30
0.0
 10
69.893920
 20
66.431849
 30
0.0
 10
68.746157
 20
68.889564
 30
0.0
 10
69.679343
 20
69.375339
 30
0.0
 10
68.294514
 20
72.036148
 30
0.0
 10
67.360270
 20
71.549870
 30
0.0
 10
66.006397
 20
73.900640
 30
0.0
 10
66.891957
 20
74.464943
 30
0.0
 10
65.280380
 20
76.995021
 30
0.0
 10
64.395085
 20
76.431221
 30
0.0
 10
62.836424
 20
78.650728
 30
0.0
 10
63.671978
 20
79.292033
 30
0.0
 10
61.845824
 20
81.672249
 30
0.0
 10
61.010799
 20
81.031462
 30
0.0
 10
59.269312
 20
83.111447
 30
0.0
 10
60.042953
 20
83.820451
 30
0.0
 10
58.015981
 20
86.032182
 30
0.0
 10
57.240487
 20
85.321115
 30
0.0
 10
55.322258
 20
87.239344
 30
0.0
 10
56.033193
 20
88.015526
 30
0.0
 10
53.821541
 20
90.042287
 30
0.0
 10
53.112458
 20
89.268169
 30
0.0
 10
51.032568
 20
91.009656
 30
0.0
 10
51.673389
 20
91.844761
 30
0.0
 10
49.293197
 20
93.670994
 30
0.0
 10
48.651847
 20
92.835387
 30
0.0
 10
46.432258
 20
94.394471
 30
0.0
 10
46.996085
 20
95.279687
 30
0.0
 10
44.466139
 20
96.891476
 30
0.0
 10
43.901783
 20
96.005730
 30
0.0
 10
41.550960
 20
97.359656
 30
0.0
 10
42.037264
 20
98.293450
 30
0.0
 10
39.376350
 20
99.678914
 30
0.0
 10
38.890575
 20
98.745623
 30
0.0
 10
36.432331
 20
99.893888
 30
0.0
 10
36.834497
 20
100.863851
 30
0.0
 10
34.062987
 20
102.012090
 30
0.0
 10
33.660027
 20
101.039534
 30
0.0
 10
31.111295
 20
101.968169
 30
0.0
 10
31.427473
 20
102.971204
 30
0.0
 10
28.566798
 20
103.872957
 30
0.0
 10
28.251414
 20
102.873546
 30
0.0
 10
25.629949
 20
103.571173
 30
0.0
 10
25.857861
 20
104.599027
 30
0.0
 10
22.928844
 20
105.248076
 30
0.0
 10
22.700932
 20
104.220223
 30
0.0
 10
20.030307
 20
104.695652
 30
0.0
 10
20.167256
 20
105.735386
 30
0.0
 10
17.192757
 20
106.127075
 30
0.0
 10
17.055809
 20
105.084775
 30
0.0
 10
14.353116
 20
105.319381
 30
0.0
 10
14.399128
 20
106.371523
 30
0.0
 10
11.402404
 20
106.502254
 30
0.0
 10
11.356419
 20
105.452202
 30
0.0
 10
9.999900
 20
105.469770
 30
0.0
 10
8.686800
 20
105.420664
 30
0.0
 10
8.597926
 20
109.250481
 30
0.0
 10
7.279666
 20
109.142531
 30
0.0
 10
5.820304
 20
110.797500
 30
0.0
 10
5.462720
 20
110.814698
 30
0.0
  0
LWPOLYLINE
  5
102
100
AcDbEntity
  8
Layer_1
 62
1
100
AcDbPolyline
 90
4
 70
1
 10
-48.000000
 20
17.000000
 30
0.0
 10
-42.000000
 20
17.000000
 30
0.0
 10
-42.000000
 20
14.000000
 30
0.0
 10
-48.000000
 20
14.000000
 30
0.0
  0
LWPOLYLINE
  5
103
100
AcDbEntity
  8
Layer_1
 62
1
100
AcDbPolyline
 90
4
 70
1
 10
-24.000000
 20
17.000000
 30
0.0
 10
-18.000000
 20
17.000000
 30
0.0
 10
-18.000000
 20
14.000000
 30
0.0
 10
-24.000000
 20
14.000000
 30
0.0
  0
LWPOLYLINE
  5
104
100
AcDbEntity
  8
Layer_1
 62
1
100
AcDbPolyline
 90
17
 70
1
 10
62.500000
 20
30.000000
 30
0.0
 10
62.309700
 20
29.043300
 30
0.0
 10
61.767800
 20
28.232200
 30
0.0
 10
60.956700
 20
27.690300
 30
0.0
 10
60.000000
 20
27.500000
 30
0.0
 10
59.043300
 20
27.690300
 30
0.0
 10
58.232200
 20
28.232200
 30
0.0
 10
57.690300
 20
29.043300
 30
0.0
 10
57.500000
 20
30.000000
 30
0.0
 10
57.690300
 20
30.956700
 30
0.0
 10
58.232200
 20
31.767800
 30
0.0
 10
59.043300
 20
32.309700
 30
0.0
 10
60.000000
 20
32.500000
 30
0.0
 10
60.956700
 20
32.309700
 30
0.0
 10
61.767800
 20
31.767800
 30
0.0
 10
62.309700
 20
30.956700
 30
0.0
 10
62.500000
 20
30.000000
 30
0.0
  0
LWPOLYLINE
  5
105
100
AcDbEntity
  8
Layer_1
 62
1
100
AcDbPolyline
 90
17
 70
1
 10
78.500000
 20
22.000000
 30
0.0
 10
78.423900
 20
21.617300
 30
0.0
 10
78.207100
 20
21.292900
 30
0.0
 10
77.882700
 20
21.076100
 30
0.0
 10
77.500000
 20
21.000000
 30
0.0
 10
77.117300
 20
21.076100
 30
0.0
 10
76.792900
 20
21.292900
 30
0.0
 10
76.576100
 20
21.617300
 30
0.0
 10
76.500000
 20
22.000000
 30
0.0
 10
76.576100
 20
22.382700
 30
0.0
 10
76.792900
 20
22.707100
 30
0.0
 10
77.117300
 20
22.923900
 30
0.0
 10
77.500000
 20
23.000000
 30
0.0
 10
77.882700
 20
22.923900
 30
0.0
 10
78.207100
 20
22.707100
 30
0.0
 10
78.423900
 20
22.382700
 30
0.0
 10
78.500000
 20
22.000000
 30
0.0
  0
LWPOLYLINE
  5
106
100
AcDbEntity
  8
Layer_1
 62
1
100
AcDbPolyline
 90
17
 70
1
 10
43.500000
 20
22.000000
 30
0.0
 10
43.423900
 20
21.617300
 30
0.0
 10
43.207100
 20
21.292900
 30
0.0
 10
42.882700
 20
21.076100
 30
0.0
 10
42.500000
 20
21.000000
 30
0.0
 10
42.117300
 20
21.076100
 30
0.0
 10
41.792900
 20
21.292900
 30
0.0
 10
41.576100
 20
21.617300
 30
0.0
 10
41.500000
 20
22.000000
 30
0.0
 10
41.576100
 20
22.382700
 30
0.0
 10
41.792900
 20
22.707100
 30
0.0
 10
42.117300
 20
22.923900
 30
0.0
 10
42.500000
 20
23.000000
 30
0.0
 10
42.882700
 20
22.923900
 30
0.0
 10
43.207100
 20
22.707100
 30
0.0
 10
43.423900
 20
22.382700
 30
0.0
 10
43.500000
 20
22.000000
 30
0.0
  0
LWPOLYLINE
  5
107
100
AcDbEntity
  8
Layer_1
 62
1
100
AcDbPolyline
 90
4
 70
1
 10
15.000000
 20
35.000000
 30
0.0
 10
21.000000
 20
35.000000
 30
0.0
 10
21.000000
 20
32.000000
 30
0.0
 10
15.000000
 20
32.000000
 30
0.0
  0
LWPOLYLINE
  5
108
100
AcDbEntity
  8
Layer_1
 62
1
100
AcDbPolyline
 90
4
 70
1
 10
39.000000
 20
35.000000
 30
0.0
 10
45.000000
 20
35.000000
 30
0.0
 10
45.000000
 20
32.000000
 30
0.0
 10
39.000000
 20
32.000000
 30
0.0
  0
LWPOLYLINE
  5
109
100
AcDbEntity
  8
Layer_1
 62
1
100
AcDbPolyline
 90
4
 70
1
 10
10.000000
 20
17.000000
 30
0.0
 10
16.000000
 20
17.000000
 30
0.0
 10
16.000000
 20
14.000000
 30
0.0
 10
10.000000
 20
14.000000
 30
0.0
  0
LWPOLYLINE
  5
10a
100
AcDbEntity
  8
Layer_1
 62
1
100
AcDbPolyline
 90
4
 70
1
 10
34.000000
 20
17.000000
 30
0.0
 10
40.000000
 20
17.000000
 30
0.0
 10
40.000000
 20
14.000000
 30
0.0
 10
34.000000
 20
14.000000
 30
0.0
  0
LWPOLYLINE
  5
10b
100
AcDbEntity
  8
Layer_1
 62
1
100
AcDbPolyline
 90
65
 70
1
 10
55.898400
 20
64.562200
 30
0.0
 10
55.791200
 20
62.396600
 30
0.0
 10
55.473500
 20
60.267700
 30
0.0
 10
54.951400
 20
58.189900
 30
0.0
 10
54.230600
 20
56.177400
 30
0.0
 10
53.317200
 20
54.244800
 30
0.0
 10
52.217200
 20
52.406300
 30
0.0
 10
50.936500
 20
50.676300
 30
0.0
 10
49.481000
 20
49.069200
 30
0.0
 10
47.873900
 20
47.613700
 30
0.0
 10
46.143900
 20
46.333000
 30
0.0
 10
44.305400
 20
45.233000
 30
0.0
 10
42.372800
 20
44.319600
 30
0.0
 10
40.360300
 20
43.598900
 30
0.0
 10
38.282500
 20
43.076700
 30
0.0
 10
36.153600
 20
42.759000
 30
0.0
 10
33.988000
 20
42.651800
 30
0.0
 10
31.822500
 20
42.759000
 30
0.0
 10
29.693600
 20
43.076700
 30
0.0
 10
27.615700
 20
43.598900
 30
0.0
 10
25.603300
 20
44.319600
 30
0.0
 10
23.670600
 20
45.233000
 30
0.0
 10
21.832100
 20
46.333000
 30
0.0
 10
20.102100
 20
47.613700
 30
0.0
 10
18.495000
 20
49.069200
 30
0.0
 10
17.039500
 20
50.676300
 30
0.0
 10
15.758800
 20
52.406300
 30
0.0
 10
14.658800
 20
54.244800
 30
0.0
 10
13.745500
 20
56.177400
 30
0.0
 10
13.024700
 20
58.189900
 30
0.0
 10
12.502500
 20
60.267700
 30
0.0
 10
12.184800
 20
62.396600
 30
0.0
 10
12.077600
 20
64.562200
 30
0.0
 10
12.184800
 20
66.727800
 30
0.0
 10
12.502500
 20
68.856700
 30
0.0
 10
13.024700
 20
70.934520
 30
0.0
 10
13.745500
 20
72.946950
 30
0.0
 10
14.658800
 20
74.879600
 30
0.0
 10
15.758800
 20
76.718100
 30
0.0
 10
17.039500
 20
78.448090
 30
0.0
 10
18.495000
 20
80.055195
 30
0.0
 10
20.102100
 20
81.510680
 30
0.0
 10
21.832100
 20
82.791400
 30
0.0
 10
23.670600
 20
83.891420
 30
0.0
 10
25.603300
 20
84.804770
 30
0.0
 10
27.615700
 20
85.525520
 30
0.0
 10
29.693600
 20
86.047710
 30
0.0
 10
31.822500
 20
86.365390
 30
0.0
 10
33.988000
 20
86.472600
 30
0.0
 10
36.153600
 20
86.365390
 30
0.0
 10
38.282500
 20
86.047710
 30
0.0
 10
40.360300
 20
85.525520
 30
0.0
 10
42.372800
 20
84.804770
 30
0.0
 10
44.305400
 20
83.891420
 30
0.0
 10
46.143900
 20
82.791400
 30
0.0
 10
47.873900
 20
81.510680
 30
0.0
 10
49.481000
 20
80.055195
 30
0.0
 10
50.936500
 20
78.448090
 30
0.0
 10
52.217200
 20
76.718100
 30
0.0
 10
53.317200
 20
74.879600
 30
0.0
 10
54.230600
 20
72.946950
 30
0.0
 10
54.951400
 20
70.934520
 30
0.0
 10
55.473500
 20
68.856700
 30
0.0
 10
55.791200
 20
66.727800
 30
0.0
 10
55.898400
 20
64.562200
 30
0.0
  0
LWPOLYLINE
  5
10c
100
AcDbEntity
  8
Layer_1
 62
1
100
AcDbPolyline
 90
4
 70
1
 10
74.000000
 20
17.000000
 30
0.0
 10
80.000000
 20
17.000000
 30
0.0
 10
80.000000
 20
14.000000
 30
0.0
 10
74.000000
 20
14.000000
 30
0.0
  0
ENDSEC
  0
SECTION
  2
OBJECTS
  0
DICTIONARY
  5
C
330
0
100
AcDbDictionary
  3
ACAD_GROUP
350
D
  3
ACAD_MLINESTYLE
350
17
  0
DICTIONARY
  5
D
330
C
100
AcDbDictionary
  0
DICTIONARY
  5
1A
330
C
100
AcDbDictionary
  0
DICTIONARY
  5
17
330
C
100
AcDbDictionary
  3
STANDARD
350
18
  0
DICTIONARY
  5
19
330
C
100
AcDbDictionary
  0
ENDSEC
  0
EOF
