  0
SECTION
  2
HEADER
  9
$ACADVER
  1
AC1014
  9
$HANDSEED
  5
FFFF
  9
$MEASUREMENT
 70
     1
  0
ENDSEC
  0
SECTION
  2
TABLES
  0
TABLE
  2
VPORT
  5
8
330
0
100
AcDbSymbolTable
 70
     4
  0
VPORT
  5
2E
330
8
100
AcDbSymbolTableRecord
100
AcDbViewportTableRecord
  2
*ACTIVE
 70
     0
 10
0.0
 20
0.0
 11
1.0
 21
1.0
 12
210.0
 22
148.5
 13
0.0
 23
0.0
 14
10.0
 24
10.0
 15
10.0
 25
10.0
 16
0.0
 26
0.0
 36
1.0
 17
0.0
 27
0.0
 37
0.0
 40
341.0
 41
1.24
 42
50.0
 43
0.0
 44
0.0
 50
0.0
 51
0.0
 71
     0
 72
   100
 73
     1
 74
     3
 75
     0
 76
     0
 77
     0
 78
     0
  0
ENDTAB
  0
TABLE
  2
LTYPE
  5
5
330
0
100
AcDbSymbolTable
 70
     1
  0
LTYPE
  5
14
330
5
100
AcDbSymbolTableRecord
100
AcDbLinetypeTableRecord
  2
BYBLOCK
 70
     0
  3

 72
    65
 73
     0
 40
0.0
  0
LTYPE
  5
15
330
5
100
AcDbSymbolTableRecord
100
AcDbLinetypeTableRecord
  2
BYLAYER
 70
     0
  3

 72
    65
 73
     0
 40
0.0
  0
LTYPE
  5
16
330
5
100
AcDbSymbolTableRecord
100
AcDbLinetypeTableRecord
  2
CONTINUOUS
 70
     0
  3
Solid line
 72
    65
 73
     0
 40
0.0
  0
ENDTAB
  0
TABLE
  2
LAYER
  5
2
100
AcDbSymbolTable
 70
2
  0
LAYER
  5
50
100
AcDbSymbolTableRecord
100
AcDbLayerTableRecord
  2
0
 70
0
  6
CONTINUOUS
  0
LAYER
  5
51
100
AcDbSymbolTableRecord
100
AcDbLayerTableRecord
  2
Layer_1
 70
0
  6
CONTINUOUS
  0
ENDTAB
  0
TABLE
  2
STYLE
  5
3
330
0
100
AcDbSymbolTable
 70
     1
  0
STYLE
  5
11
330
3
100
AcDbSymbolTableRecord
100
AcDbTextStyleTableRecord
  2
STANDARD
 70
     0
 40
0.0
 41
1.0
 50
0.0
 71
     0
 42
2.5
  3
txt
  4

  0
ENDTAB
  0
TABLE
  2
VIEW
  5
6
330
0
100
AcDbSymbolTable
 70
     0
  0
ENDTAB
  0
TABLE
  2
UCS
  5
7
330
0
100
AcDbSymbolTable
 70
     0
  0
ENDTAB
  0
TABLE
  2
APPID
  5
9
330
0
100
AcDbSymbolTable
 70
     2
  0
APPID
  5
12
330
9
100
AcDbSymbolTableRecord
100
AcDbRegAppTableRecord
  2
ACAD
 70
     0
  0
ENDTAB
  0
TABLE
  2
DIMSTYLE
  5
A
330
0
100
AcDbSymbolTable
 70
     1
  0
DIMSTYLE
105
27
330
A
100
AcDbSymbolTableRecord
100
AcDbDimStyleTableRecord
  2
ISO-25
 70
     0
  3

  4

  5

  6

  7

 40
1.0
 41
2.5
 42
0.625
 43
3.75
 44
1.25
 45
0.0
 46
0.0
 47
0.0
 48
0.0
140
2.5
141
2.5
142
0.0
143
0.03937007874016
144
1.0
145
0.0
146
1.0
147
0.625
 71
     0
 72
     0
 73
     0
 74
     0
 75
     0
 76
     0
 77
     1
 78
     8
170
     0
171
     3
172
     1
173
     0
174
     0
175
     0
176
     0
177
     0
178
     0
270
     2
271
     2
272
     2
273
     2
274
     3
340
11
275
     0
280
     0
281
     0
282
     0
283
     0
284
     8
285
     0
286
     0
287
     3
288
     0
  0
ENDTAB
  0
TABLE
  2
BLOCK_RECORD
  5
1
330
0
100
AcDbSymbolTable
 70
     1
  0
BLOCK_RECORD
  5
1F
330
1
100
AcDbSymbolTableRecord
100
AcDbBlockTableRecord
  2
*MODEL_SPACE
  0
BLOCK_RECORD
  5
1B
330
1
100
AcDbSymbolTableRecord
100
AcDbBlockTableRecord
  2
*PAPER_SPACE
  0
ENDTAB
  0
ENDSEC
  0
SECTION
  2
BLOCKS
  0
BLOCK
  5
20
330
1F
100
AcDbEntity
  8
0
100
AcDbBlockBegin
  2
*MODEL_SPACE
 70
     0
 10
0.0
 20
0.0
 30
0.0
  3
*MODEL_SPACE
  1

  0
ENDBLK
  5
21
330
1F
100
AcDbEntity
  8
0
100
AcDbBlockEnd
  0
BLOCK
  5
1C
330
1B
100
AcDbEntity
 67
     1
  8
0
100
AcDbBlockBegin
  2
*PAPER_SPACE
  1

  0
ENDBLK
  5
1D
330
1B
100
AcDbEntity
 67
     1
  8
0
100
AcDbBlockEnd
  0
ENDSEC
  0
SECTION
  2
ENTITIES
  0
LWPOLYLINE
  5
100
100
AcDbEntity
  8
Layer_1
 62
7
100
AcDbPolyline
 90
253
 70
1
 10
10.996768
 20
121.340573
 30
0.0
 10
10.592722
 20
121.300092
 30
0.0
 10
10.216854
 20
121.183886
 30
0.0
 10
9.877075
 20
120.999948
 30
0.0
 10
9.581323
 20
120.756134
 30
0.0
 10
9.337509
 20
120.460382
 30
0.0
 10
9.153544
 20
120.120603
 30
0.0
 10
9.037365
 20
119.744735
 30
0.0
 10
8.996884
 20
119.340689
 30
0.0
 10
8.996884
 20
119.232686
 30
0.0
 10
10.199920
 20
119.232686
 30
0.0
 10
10.603967
 20
119.192178
 30
0.0
 10
10.979834
 20
119.075920
 30
0.0
 10
11.319613
 20
118.891902
 30
0.0
 10
11.615365
 20
118.647982
 30
0.0
 10
11.859179
 20
118.352124
 30
0.0
 10
12.043118
 20
118.012293
 30
0.0
 10
12.159323
 20
117.636346
 30
0.0
 10
12.199804
 20
117.232273
 30
0.0
 10
12.199804
 20
113.232505
 30
0.0
 10
12.159323
 20
112.828459
 30
0.0
 10
12.043118
 20
112.452591
 30
0.0
 10
11.859179
 20
112.112839
 30
0.0
 10
11.615365
 20
111.817087
 30
0.0
 10
11.319613
 20
111.573273
 30
0.0
 10
10.979834
 20
111.389308
 30
0.0
 10
10.603967
 20
111.273129
 30
0.0
 10
10.199920
 20
111.232648
 30
0.0
 10
8.996884
 20
111.232648
 30
0.0
 10
8.996884
 20
110.395478
 30
0.0
 10
8.988100
 20
110.395478
 30
0.0
 10
8.988100
 20
110.000137
 30
0.0
 10
8.999980
 20
109.967064
 30
0.0
 10
8.999980
 20
70.100303
 30
0.0
 10
8.000038
 20
70.100303
 30
0.0
 10
6.603749
 20
110.000137
 30
0.0
 10
4.465382
 20
110.000137
 30
0.0
 10
3.599796
 20
110.000137
 30
0.0
 10
2.599846
 20
110.000137
 30
0.0
 10
2.100134
 20
110.000137
 30
0.0
 10
1.696083
 20
109.959655
 30
0.0
 10
1.320215
 20
109.843477
 30
0.0
 10
0.980444
 20
109.659511
 30
0.0
 10
0.684692
 20
109.415697
 30
0.0
 10
0.440878
 20
109.119945
 30
0.0
 10
0.256921
 20
108.780193
 30
0.0
 10
0.140739
 20
108.404325
 30
0.0
 10
0.100252
 20
108.000279
 30
0.0
 10
0.100252
 20
103.999982
 30
0.0
 10
0.140739
 20
103.595831
 30
0.0
 10
0.256921
 20
103.220121
 30
0.0
 10
0.440878
 20
102.880396
 30
0.0
 10
0.684692
 20
102.584591
 30
0.0
 10
0.980444
 20
102.340645
 30
0.0
 10
1.320215
 20
102.156759
 30
0.0
 10
1.696083
 20
102.040606
 30
0.0
 10
2.100134
 20
102.000125
 30
0.0
 10
2.100134
 20
100.000135
 30
0.0
 10
3.599796
 20
100.000135
 30
0.0
 10
3.599796
 20
94.522984
 30
0.0
 10
3.804769
 20
94.244113
 30
0.0
 10
3.962620
 20
93.934020
 30
0.0
 10
4.064114
 20
93.595882
 30
0.0
 10
4.100018
 20
93.232608
 30
0.0
 10
4.100018
 20
44.232464
 30
0.0
 10
4.064114
 20
43.869190
 30
0.0
 10
3.962620
 20
43.531052
 30
0.0
 10
3.804769
 20
43.220960
 30
0.0
 10
3.599796
 20
42.942088
 30
0.0
 10
3.599796
 20
38.499989
 30
0.0
 10
0.599965
 20
38.499989
 30
0.0
 10
0.599965
 20
30.500031
 30
0.0
 10
3.599796
 20
30.500031
 30
0.0
 10
3.599796
 20
26.232557
 30
0.0
 10
4.600240
 20
26.232557
 30
0.0
 10
5.004286
 20
26.192076
 30
0.0
 10
5.380154
 20
26.075659
 30
0.0
 10
5.719933
 20
25.891773
 30
0.0
 10
6.015685
 20
25.647826
 30
0.0
 10
6.259499
 20
25.352022
 30
0.0
 10
6.443464
 20
25.012031
 30
0.0
 10
6.559643
 20
24.636058
 30
0.0
 10
6.600124
 20
24.232038
 30
0.0
 10
6.600124
 20
20.232323
 30
0.0
 10
6.559643
 20
19.828304
 30
0.0
 10
6.443464
 20
19.452330
 30
0.0
 10
6.259499
 20
19.112604
 30
0.0
 10
6.015685
 20
18.816799
 30
0.0
 10
5.719933
 20
18.573118
 30
0.0
 10
5.380154
 20
18.388967
 30
0.0
 10
5.004286
 20
18.272815
 30
0.0
 10
4.600240
 20
18.232334
 30
0.0
 10
4.600240
 20
2.100124
 30
0.0
 10
4.640722
 20
1.696104
 30
0.0
 10
4.756927
 20
1.320131
 30
0.0
 10
4.940866
 20
0.980405
 30
0.0
 10
5.184680
 20
0.684600
 30
0.0
 10
5.480432
 20
0.440918
 30
0.0
 10
5.820210
 20
0.256768
 30
0.0
 10
6.196078
 20
0.140616
 30
0.0
 10
6.600124
 20
0.100134
 30
0.0
 10
96.600110
 20
0.100134
 30
0.0
 10
97.004130
 20
0.140616
 30
0.0
 10
97.380103
 20
0.256768
 30
0.0
 10
97.719829
 20
0.440918
 30
0.0
 10
98.015634
 20
0.684600
 30
0.0
 10
98.259580
 20
0.980405
 30
0.0
 10
98.443731
 20
1.320131
 30
0.0
 10
98.559883
 20
1.696104
 30
0.0
 10
98.600364
 20
2.100124
 30
0.0
 10
98.600364
 20
18.232334
 30
0.0
 10
98.196345
 20
18.272815
 30
0.0
 10
97.820371
 20
18.388967
 30
0.0
 10
97.480645
 20
18.573118
 30
0.0
 10
97.184576
 20
18.816799
 30
0.0
 10
96.940894
 20
19.112604
 30
0.0
 10
96.756744
 20
19.452330
 30
0.0
 10
96.640591
 20
19.828304
 30
0.0
 10
96.600110
 20
20.232323
 30
0.0
 10
96.600110
 20
24.232038
 30
0.0
 10
96.640591
 20
24.636058
 30
0.0
 10
96.756744
 20
25.012031
 30
0.0
 10
96.940894
 20
25.352022
 30
0.0
 10
97.184576
 20
25.647826
 30
0.0
 10
97.480645
 20
25.891773
 30
0.0
 10
97.820371
 20
26.075659
 30
0.0
 10
98.196345
 20
26.192076
 30
0.0
 10
98.600364
 20
26.232557
 30
0.0
 10
99.600227
 20
26.232557
 30
0.0
 10
99.600227
 20
30.500031
 30
0.0
 10
102.600079
 20
30.500031
 30
0.0
 10
102.600079
 20
38.499989
 30
0.0
 10
99.600227
 20
38.499989
 30
0.0
 10
99.600227
 20
42.942088
 30
0.0
 10
99.395439
 20
43.220960
 30
0.0
 10
99.237482
 20
43.531052
 30
0.0
 10
99.135882
 20
43.869190
 30
0.0
 10
99.100163
 20
44.232464
 30
0.0
 10
99.100163
 20
93.232608
 30
0.0
 10
99.135882
 20
93.595882
 30
0.0
 10
99.237482
 20
93.934020
 30
0.0
 10
99.395439
 20
94.244113
 30
0.0
 10
99.600227
 20
94.522984
 30
0.0
 10
99.600227
 20
100.000135
 30
0.0
 10
101.099889
 20
100.000135
 30
0.0
 10
101.099889
 20
102.000125
 30
0.0
 10
101.504173
 20
102.040606
 30
0.0
 10
101.879882
 20
102.156759
 30
0.0
 10
102.219872
 20
102.340645
 30
0.0
 10
102.515677
 20
102.584591
 30
0.0
 10
102.759623
 20
102.880396
 30
0.0
 10
102.943509
 20
103.220121
 30
0.0
 10
103.059926
 20
103.595831
 30
0.0
 10
103.100407
 20
103.999982
 30
0.0
 10
103.100407
 20
108.000279
 30
0.0
 10
103.059926
 20
108.404325
 30
0.0
 10
102.943509
 20
108.780193
 30
0.0
 10
102.759623
 20
109.119945
 30
0.0
 10
102.515677
 20
109.415697
 30
0.0
 10
102.219872
 20
109.659511
 30
0.0
 10
101.879882
 20
109.843477
 30
0.0
 10
101.504173
 20
109.959655
 30
0.0
 10
101.099889
 20
110.000137
 30
0.0
 10
99.715056
 20
110.000137
 30
0.0
 10
98.734773
 20
110.000137
 30
0.0
 10
96.595877
 20
110.000137
 30
0.0
 10
95.000171
 20
70.100303
 30
0.0
 10
94.000044
 20
70.100303
 30
0.0
 10
94.000044
 20
109.967064
 30
0.0
 10
94.000044
 20
110.000137
 30
0.0
 10
94.000044
 20
110.395478
 30
0.0
 10
93.993959
 20
110.395478
 30
0.0
 10
93.993959
 20
111.232648
 30
0.0
 10
93.000182
 20
111.232648
 30
0.0
 10
92.596162
 20
111.273129
 30
0.0
 10
92.220188
 20
111.389308
 30
0.0
 10
91.880463
 20
111.573273
 30
0.0
 10
91.584658
 20
111.817087
 30
0.0
 10
91.340976
 20
112.112839
 30
0.0
 10
91.157090
 20
112.452591
 30
0.0
 10
91.040938
 20
112.828459
 30
0.0
 10
91.000457
 20
113.232505
 30
0.0
 10
91.000457
 20
117.232273
 30
0.0
 10
91.040938
 20
117.636346
 30
0.0
 10
91.157090
 20
118.012293
 30
0.0
 10
91.340976
 20
118.352124
 30
0.0
 10
91.584658
 20
118.647982
 30
0.0
 10
91.880463
 20
118.891902
 30
0.0
 10
92.220188
 20
119.075920
 30
0.0
 10
92.596162
 20
119.192178
 30
0.0
 10
93.000182
 20
119.232686
 30
0.0
 10
93.993959
 20
119.232686
 30
0.0
 10
93.993959
 20
119.340689
 30
0.0
 10
93.953477
 20
119.744735
 30
0.0
 10
93.837325
 20
120.120603
 30
0.0
 10
93.653439
 20
120.460382
 30
0.0
 10
93.409493
 20
120.756134
 30
0.0
 10
93.113688
 20
120.999948
 30
0.0
 10
92.773962
 20
121.183886
 30
0.0
 10
92.397989
 20
121.300092
 30
0.0
 10
91.993969
 20
121.340573
 30
0.0
 10
86.701233
 20
121.340573
 30
0.0
 10
85.625699
 20
121.235163
 30
0.0
 10
84.538259
 20
121.020268
 30
0.0
 10
83.440236
 20
120.703270
 30
0.0
 10
82.332688
 20
120.291604
 30
0.0
 10
81.216144
 20
119.792678
 30
0.0
 10
80.092192
 20
119.213848
 30
0.0
 10
78.961625
 20
118.562522
 30
0.0
 10
77.825237
 20
117.846134
 30
0.0
 10
76.684351
 20
117.072041
 30
0.0
 10
75.540026
 20
116.247651
 30
0.0
 10
73.244231
 20
114.477637
 30
0.0
 10
70.946320
 20
112.595255
 30
0.0
 10
68.654230
 20
110.659718
 30
0.0
 10
66.375898
 20
108.730213
 30
0.0
 10
64.119791
 20
106.865902
 30
0.0
 10
61.893846
 20
105.126025
 30
0.0
 10
59.706267
 20
103.569637
 30
0.0
 10
58.629410
 20
102.879073
 30
0.0
 10
57.564989
 20
102.256242
 30
0.0
 10
56.514327
 20
101.709083
 30
0.0
 10
55.478216
 20
101.244738
 30
0.0
 10
54.457716
 20
100.870881
 30
0.0
 10
53.453885
 20
100.594391
 30
0.0
 10
52.467780
 20
100.423205
 30
0.0
 10
51.500197
 20
100.364467
 30
0.0
 10
50.532878
 20
100.423205
 30
0.0
 10
49.546774
 20
100.594391
 30
0.0
 10
48.542943
 20
100.870881
 30
0.0
 10
47.522443
 20
101.244738
 30
0.0
 10
46.486332
 20
101.709083
 30
0.0
 10
45.435670
 20
102.256242
 30
0.0
 10
44.371249
 20
102.879073
 30
0.0
 10
43.294392
 20
103.569637
 30
0.0
 10
41.106812
 20
105.126025
 30
0.0
 10
38.880868
 20
106.865902
 30
0.0
 10
36.624761
 20
108.730213
 30
0.0
 10
34.346429
 20
110.659718
 30
0.0
 10
32.054339
 20
112.595255
 30
0.0
 10
29.756428
 20
114.477637
 30
0.0
 10
27.460633
 20
116.247651
 30
0.0
 10
26.316228
 20
117.072041
 30
0.0
 10
25.175343
 20
117.846134
 30
0.0
 10
24.039061
 20
118.562522
 30
0.0
 10
22.908388
 20
119.213848
 30
0.0
 10
21.784383
 20
119.792678
 30
0.0
 10
20.667997
 20
120.291604
 30
0.0
 10
19.560317
 20
120.703270
 30
0.0
 10
18.462267
 20
121.020268
 30
0.0
 10
17.374933
 20
121.235163
 30
0.0
 10
16.299294
 20
121.340573
 30
0.0
 10
10.996768
 20
121.340573
 30
0.0
  0
LWPOLYLINE
  5
101
100
AcDbEntity
  8
Layer_1
 62
7
100
AcDbPolyline
 90
5
 70
1
 10
11.599834
 20
6.000091
 30
0.0
 10
23.600169
 20
6.000091
 30
0.0
 10
23.600169
 20
2.999709
 30
0.0
 10
11.599834
 20
2.999709
 30
0.0
 10
11.599834
 20
6.000091
 30
0.0
  0
LWPOLYLINE
  5
102
100
AcDbEntity
  8
Layer_1
 62
7
100
AcDbPolyline
 90
5
 70
1
 10
79.600065
 20
6.000091
 30
0.0
 10
91.600268
 20
6.000091
 30
0.0
 10
91.600268
 20
2.999709
 30
0.0
 10
79.600065
 20
2.999709
 30
0.0
 10
79.600065
 20
6.000091
 30
0.0
  0
ENDSEC
  0
SECTION
  2
OBJECTS
  0
DICTIONARY
  5
C
330
0
100
AcDbDictionary
  3
ACAD_GROUP
350
D
  3
ACAD_MLINESTYLE
350
17
  0
DICTIONARY
  5
D
330
C
100
AcDbDictionary
  0
DICTIONARY
  5
1A
330
C
100
AcDbDictionary
  0
DICTIONARY
  5
17
330
C
100
AcDbDictionary
  3
STANDARD
350
18
  0
DICTIONARY
  5
19
330
C
100
AcDbDictionary
  0
ENDSEC
  0
EOF
