  0
SECTION
  2
HEADER
  9
$ACADVER
  1
AC1014
  9
$HANDSEED
  5
FFFF
  9
$MEASUREMENT
 70
     1
  0
ENDSEC
  0
SECTION
  2
TABLES
  0
TABLE
  2
VPORT
  5
8
330
0
100
AcDbSymbolTable
 70
     4
  0
VPORT
  5
2E
330
8
100
AcDbSymbolTableRecord
100
AcDbViewportTableRecord
  2
*ACTIVE
 70
     0
 10
0.0
 20
0.0
 11
1.0
 21
1.0
 12
210.0
 22
148.5
 13
0.0
 23
0.0
 14
10.0
 24
10.0
 15
10.0
 25
10.0
 16
0.0
 26
0.0
 36
1.0
 17
0.0
 27
0.0
 37
0.0
 40
341.0
 41
1.24
 42
50.0
 43
0.0
 44
0.0
 50
0.0
 51
0.0
 71
     0
 72
   100
 73
     1
 74
     3
 75
     0
 76
     0
 77
     0
 78
     0
  0
ENDTAB
  0
TABLE
  2
LTYPE
  5
5
330
0
100
AcDbSymbolTable
 70
     1
  0
LTYPE
  5
14
330
5
100
AcDbSymbolTableRecord
100
AcDbLinetypeTableRecord
  2
BYBLOCK
 70
     0
  3

 72
    65
 73
     0
 40
0.0
  0
LTYPE
  5
15
330
5
100
AcDbSymbolTableRecord
100
AcDbLinetypeTableRecord
  2
BYLAYER
 70
     0
  3

 72
    65
 73
     0
 40
0.0
  0
LTYPE
  5
16
330
5
100
AcDbSymbolTableRecord
100
AcDbLinetypeTableRecord
  2
CONTINUOUS
 70
     0
  3
Solid line
 72
    65
 73
     0
 40
0.0
  0
ENDTAB
  0
TABLE
  2
LAYER
  5
2
100
AcDbSymbolTable
 70
2
  0
LAYER
  5
50
100
AcDbSymbolTableRecord
100
AcDbLayerTableRecord
  2
0
 70
0
  6
CONTINUOUS
  0
LAYER
  5
51
100
AcDbSymbolTableRecord
100
AcDbLayerTableRecord
  2
Layer_1
 70
0
  6
CONTINUOUS
  0
ENDTAB
  0
TABLE
  2
STYLE
  5
3
330
0
100
AcDbSymbolTable
 70
     1
  0
STYLE
  5
11
330
3
100
AcDbSymbolTableRecord
100
AcDbTextStyleTableRecord
  2
STANDARD
 70
     0
 40
0.0
 41
1.0
 50
0.0
 71
     0
 42
2.5
  3
txt
  4

  0
ENDTAB
  0
TABLE
  2
VIEW
  5
6
330
0
100
AcDbSymbolTable
 70
     0
  0
ENDTAB
  0
TABLE
  2
UCS
  5
7
330
0
100
AcDbSymbolTable
 70
     0
  0
ENDTAB
  0
TABLE
  2
APPID
  5
9
330
0
100
AcDbSymbolTable
 70
     2
  0
APPID
  5
12
330
9
100
AcDbSymbolTableRecord
100
AcDbRegAppTableRecord
  2
ACAD
 70
     0
  0
ENDTAB
  0
TABLE
  2
DIMSTYLE
  5
A
330
0
100
AcDbSymbolTable
 70
     1
  0
DIMSTYLE
105
27
330
A
100
AcDbSymbolTableRecord
100
AcDbDimStyleTableRecord
  2
ISO-25
 70
     0
  3

  4

  5

  6

  7

 40
1.0
 41
2.5
 42
0.625
 43
3.75
 44
1.25
 45
0.0
 46
0.0
 47
0.0
 48
0.0
140
2.5
141
2.5
142
0.0
143
0.03937007874016
144
1.0
145
0.0
146
1.0
147
0.625
 71
     0
 72
     0
 73
     0
 74
     0
 75
     0
 76
     0
 77
     1
 78
     8
170
     0
171
     3
172
     1
173
     0
174
     0
175
     0
176
     0
177
     0
178
     0
270
     2
271
     2
272
     2
273
     2
274
     3
340
11
275
     0
280
     0
281
     0
282
     0
283
     0
284
     8
285
     0
286
     0
287
     3
288
     0
  0
ENDTAB
  0
TABLE
  2
BLOCK_RECORD
  5
1
330
0
100
AcDbSymbolTable
 70
     1
  0
BLOCK_RECORD
  5
1F
330
1
100
AcDbSymbolTableRecord
100
AcDbBlockTableRecord
  2
*MODEL_SPACE
  0
BLOCK_RECORD
  5
1B
330
1
100
AcDbSymbolTableRecord
100
AcDbBlockTableRecord
  2
*PAPER_SPACE
  0
ENDTAB
  0
ENDSEC
  0
SECTION
  2
BLOCKS
  0
BLOCK
  5
20
330
1F
100
AcDbEntity
  8
0
100
AcDbBlockBegin
  2
*MODEL_SPACE
 70
     0
 10
0.0
 20
0.0
 30
0.0
  3
*MODEL_SPACE
  1

  0
ENDBLK
  5
21
330
1F
100
AcDbEntity
  8
0
100
AcDbBlockEnd
  0
BLOCK
  5
1C
330
1B
100
AcDbEntity
 67
     1
  8
0
100
AcDbBlockBegin
  2
*PAPER_SPACE
  1

  0
ENDBLK
  5
1D
330
1B
100
AcDbEntity
 67
     1
  8
0
100
AcDbBlockEnd
  0
ENDSEC
  0
SECTION
  2
ENTITIES
  0
LWPOLYLINE
  5
100
100
AcDbEntity
  8
Layer_1
 62
7
100
AcDbPolyline
 90
44
 70
1
 10
0.100252
 20
70.099619
 30
0.0
 10
0.100252
 20
64.099987
 30
0.0
 10
3.100068
 20
64.099987
 30
0.0
 10
3.100068
 20
51.099749
 30
0.0
 10
0.100252
 20
51.099749
 30
0.0
 10
0.100252
 20
45.100118
 30
0.0
 10
3.100068
 20
45.100118
 30
0.0
 10
24.099814
 20
45.100118
 30
0.0
 10
24.099814
 20
7.255927
 30
0.0
 10
3.100068
 20
7.255927
 30
0.0
 10
3.100068
 20
6.099937
 30
0.0
 10
0.100252
 20
6.099937
 30
0.0
 10
0.100252
 20
0.099770
 30
0.0
 10
102.100198
 20
0.099770
 30
0.0
 10
102.100198
 20
6.099937
 30
0.0
 10
99.099866
 20
6.099937
 30
0.0
 10
99.099866
 20
7.255927
 30
0.0
 10
78.100120
 20
7.255927
 30
0.0
 10
78.100120
 20
45.100118
 30
0.0
 10
99.099866
 20
45.100118
 30
0.0
 10
102.100198
 20
45.100118
 30
0.0
 10
102.100198
 20
51.099749
 30
0.0
 10
99.099866
 20
51.099749
 30
0.0
 10
99.099866
 20
64.099987
 30
0.0
 10
102.100198
 20
64.099987
 30
0.0
 10
102.100198
 20
70.099619
 30
0.0
 10
99.099866
 20
70.099619
 30
0.0
 10
76.422186
 20
70.099619
 30
0.0
 10
76.411852
 20
69.998334
 30
0.0
 10
76.353458
 20
69.810231
 30
0.0
 10
76.139516
 20
69.492421
 30
0.0
 10
75.822225
 20
69.278479
 30
0.0
 10
75.634122
 20
69.220602
 30
0.0
 10
75.432068
 20
69.199932
 30
0.0
 10
72.432252
 20
69.199932
 30
0.0
 10
72.230195
 20
69.220602
 30
0.0
 10
72.042095
 20
69.278479
 30
0.0
 10
71.724802
 20
69.492421
 30
0.0
 10
71.510859
 20
69.810231
 30
0.0
 10
71.452466
 20
69.998334
 30
0.0
 10
71.442131
 20
70.099619
 30
0.0
 10
24.099814
 20
70.099619
 30
0.0
 10
3.100068
 20
70.099619
 30
0.0
 10
0.100252
 20
70.099619
 30
0.0
  0
LWPOLYLINE
  5
101
100
AcDbEntity
  8
Layer_1
 62
7
100
AcDbPolyline
 90
34
 70
1
 10
44.100206
 20
59.099887
 30
0.0
 10
44.402360
 20
59.069355
 30
0.0
 10
44.683876
 20
58.981935
 30
0.0
 10
44.938405
 20
58.843664
 30
0.0
 10
45.160391
 20
58.660546
 30
0.0
 10
45.343482
 20
58.438614
 30
0.0
 10
45.481859
 20
58.183900
 30
0.0
 10
45.569172
 20
57.902436
 30
0.0
 10
45.599864
 20
57.600229
 30
0.0
 10
45.569437
 20
57.297943
 30
0.0
 10
45.481859
 20
57.016400
 30
0.0
 10
45.343747
 20
56.761606
 30
0.0
 10
45.160655
 20
56.539594
 30
0.0
 10
44.938670
 20
56.356397
 30
0.0
 10
44.683876
 20
56.218046
 30
0.0
 10
44.402360
 20
56.130601
 30
0.0
 10
44.100206
 20
56.100068
 30
0.0
 10
43.805990
 20
56.129120
 30
0.0
 10
43.526061
 20
56.214210
 30
0.0
 10
43.267827
 20
56.352058
 30
0.0
 10
43.039227
 20
56.539409
 30
0.0
 10
42.851902
 20
56.767903
 30
0.0
 10
42.714054
 20
57.026110
 30
0.0
 10
42.629123
 20
57.306171
 30
0.0
 10
42.600019
 20
57.600229
 30
0.0
 10
42.630446
 20
57.902489
 30
0.0
 10
42.718023
 20
58.184032
 30
0.0
 10
42.856400
 20
58.438773
 30
0.0
 10
43.039492
 20
58.660732
 30
0.0
 10
43.261477
 20
58.843824
 30
0.0
 10
43.516271
 20
58.982094
 30
0.0
 10
43.797788
 20
59.069433
 30
0.0
 10
44.100206
 20
59.099887
 30
0.0
 10
44.100206
 20
59.099887
 30
0.0
  0
LWPOLYLINE
  5
102
100
AcDbEntity
  8
Layer_1
 62
7
100
AcDbPolyline
 90
26
 70
1
 10
72.432308
 20
45.200048
 30
0.0
 10
75.432153
 20
45.200048
 30
0.0
 10
75.634030
 20
45.179940
 30
0.0
 10
75.822148
 20
45.121731
 30
0.0
 10
76.139648
 20
44.907948
 30
0.0
 10
76.353696
 20
44.590184
 30
0.0
 10
76.411640
 20
44.402065
 30
0.0
 10
76.432013
 20
44.200188
 30
0.0
 10
76.411640
 20
43.998046
 30
0.0
 10
76.353696
 20
43.810192
 30
0.0
 10
76.139648
 20
43.492428
 30
0.0
 10
75.822148
 20
43.278644
 30
0.0
 10
75.634030
 20
43.220436
 30
0.0
 10
75.432153
 20
43.200328
 30
0.0
 10
72.432308
 20
43.200328
 30
0.0
 10
72.230169
 20
43.220436
 30
0.0
 10
72.042315
 20
43.278644
 30
0.0
 10
71.724550
 20
43.492428
 30
0.0
 10
71.510767
 20
43.810192
 30
0.0
 10
71.452556
 20
43.998046
 30
0.0
 10
71.432183
 20
44.200188
 30
0.0
 10
71.452556
 20
44.402065
 30
0.0
 10
71.510767
 20
44.590184
 30
0.0
 10
71.724550
 20
44.907948
 30
0.0
 10
72.042315
 20
45.121731
 30
0.0
 10
72.230169
 20
45.179940
 30
0.0
  0
LWPOLYLINE
  5
103
100
AcDbEntity
  8
Layer_1
 62
7
100
AcDbPolyline
 90
78
 70
1
 10
37.100128
 20
30.700077
 30
0.0
 10
65.099914
 20
30.700077
 30
0.0
 10
65.503933
 20
30.659596
 30
0.0
 10
65.879905
 20
30.543444
 30
0.0
 10
66.219630
 20
30.359558
 30
0.0
 10
66.515434
 20
30.115612
 30
0.0
 10
66.759115
 20
29.819809
 30
0.0
 10
66.943000
 20
29.480084
 30
0.0
 10
67.059152
 20
29.104376
 30
0.0
 10
67.099634
 20
28.700092
 30
0.0
 10
67.099634
 20
26.200046
 30
0.0
 10
69.599946
 20
26.200046
 30
0.0
 10
70.003964
 20
26.159564
 30
0.0
 10
70.379672
 20
26.043412
 30
0.0
 10
70.719662
 20
25.859527
 30
0.0
 10
71.015201
 20
25.615581
 30
0.0
 10
71.259147
 20
25.319777
 30
0.0
 10
71.443032
 20
24.980052
 30
0.0
 10
71.559184
 20
24.604344
 30
0.0
 10
71.599666
 20
24.200325
 30
0.0
 10
71.599666
 20
9.200043
 30
0.0
 10
71.559184
 20
8.796024
 30
0.0
 10
71.443032
 20
8.420052
 30
0.0
 10
71.259147
 20
8.080327
 30
0.0
 10
71.015201
 20
7.784787
 30
0.0
 10
70.719662
 20
7.540841
 30
0.0
 10
70.379672
 20
7.356956
 30
0.0
 10
70.003964
 20
7.240804
 30
0.0
 10
69.599946
 20
7.200323
 30
0.0
 10
67.099634
 20
7.200323
 30
0.0
 10
67.099634
 20
4.700011
 30
0.0
 10
67.059152
 20
4.295992
 30
0.0
 10
66.943000
 20
3.920284
 30
0.0
 10
66.759115
 20
3.580559
 30
0.0
 10
66.515434
 20
3.284755
 30
0.0
 10
66.219630
 20
3.040809
 30
0.0
 10
65.879905
 20
2.856924
 30
0.0
 10
65.503933
 20
2.740772
 30
0.0
 10
65.099914
 20
2.700290
 30
0.0
 10
37.100128
 20
2.700290
 30
0.0
 10
36.696109
 20
2.740772
 30
0.0
 10
36.320136
 20
2.856924
 30
0.0
 10
35.980411
 20
3.040809
 30
0.0
 10
35.684607
 20
3.284755
 30
0.0
 10
35.440926
 20
3.580559
 30
0.0
 10
35.256776
 20
3.920284
 30
0.0
 10
35.140623
 20
4.295992
 30
0.0
 10
35.100142
 20
4.700011
 30
0.0
 10
35.100142
 20
7.200323
 30
0.0
 10
32.600095
 20
7.200323
 30
0.0
 10
32.196077
 20
7.240804
 30
0.0
 10
31.820104
 20
7.356956
 30
0.0
 10
31.480379
 20
7.540841
 30
0.0
 10
31.184575
 20
7.784787
 30
0.0
 10
30.940893
 20
8.080327
 30
0.0
 10
30.756743
 20
8.420052
 30
0.0
 10
30.640591
 20
8.796024
 30
0.0
 10
30.600110
 20
9.200043
 30
0.0
 10
30.600110
 20
24.200325
 30
0.0
 10
30.640591
 20
24.604344
 30
0.0
 10
30.756743
 20
24.980052
 30
0.0
 10
30.940893
 20
25.319777
 30
0.0
 10
31.184575
 20
25.615581
 30
0.0
 10
31.480379
 20
25.859527
 30
0.0
 10
31.820104
 20
26.043412
 30
0.0
 10
32.196077
 20
26.159564
 30
0.0
 10
32.600095
 20
26.200046
 30
0.0
 10
35.100142
 20
26.200046
 30
0.0
 10
35.100142
 20
28.700092
 30
0.0
 10
35.140623
 20
29.104376
 30
0.0
 10
35.256776
 20
29.480084
 30
0.0
 10
35.440926
 20
29.819809
 30
0.0
 10
35.684607
 20
30.115612
 30
0.0
 10
35.980411
 20
30.359558
 30
0.0
 10
36.320136
 20
30.543444
 30
0.0
 10
36.696109
 20
30.659596
 30
0.0
 10
37.100128
 20
30.700077
 30
0.0
 10
37.100128
 20
30.700077
 30
0.0
  0
LWPOLYLINE
  5
104
100
AcDbEntity
  8
Layer_1
 62
7
100
AcDbPolyline
 90
26
 70
1
 10
32.099768
 20
30.199750
 30
0.0
 10
32.301381
 20
30.179642
 30
0.0
 10
32.488970
 20
30.121169
 30
0.0
 10
32.807000
 20
29.906856
 30
0.0
 10
33.021312
 20
29.589092
 30
0.0
 10
33.079520
 20
29.401503
 30
0.0
 10
33.099893
 20
29.199890
 30
0.0
 10
33.079520
 20
28.998278
 30
0.0
 10
33.021312
 20
28.810688
 30
0.0
 10
32.807000
 20
28.492924
 30
0.0
 10
32.488970
 20
28.278611
 30
0.0
 10
32.301381
 20
28.220403
 30
0.0
 10
32.099768
 20
28.200030
 30
0.0
 10
31.898420
 20
28.220403
 30
0.0
 10
31.710566
 20
28.278611
 30
0.0
 10
31.392802
 20
28.492924
 30
0.0
 10
31.178489
 20
28.810688
 30
0.0
 10
31.120281
 20
28.998278
 30
0.0
 10
31.099908
 20
29.199890
 30
0.0
 10
31.120281
 20
29.401503
 30
0.0
 10
31.178489
 20
29.589092
 30
0.0
 10
31.392802
 20
29.906856
 30
0.0
 10
31.710566
 20
30.121169
 30
0.0
 10
31.898420
 20
30.179642
 30
0.0
 10
32.099768
 20
30.199750
 30
0.0
 10
32.099768
 20
30.199750
 30
0.0
  0
LWPOLYLINE
  5
105
100
AcDbEntity
  8
Layer_1
 62
7
100
AcDbPolyline
 90
26
 70
1
 10
70.100007
 20
30.199750
 30
0.0
 10
70.301620
 20
30.179642
 30
0.0
 10
70.489209
 20
30.121169
 30
0.0
 10
70.807239
 20
29.906856
 30
0.0
 10
71.021551
 20
29.589092
 30
0.0
 10
71.079759
 20
29.401503
 30
0.0
 10
71.100132
 20
29.199890
 30
0.0
 10
71.079759
 20
28.998278
 30
0.0
 10
71.021551
 20
28.810688
 30
0.0
 10
70.807239
 20
28.492924
 30
0.0
 10
70.489209
 20
28.278611
 30
0.0
 10
70.301620
 20
28.220403
 30
0.0
 10
70.100007
 20
28.200030
 30
0.0
 10
69.898659
 20
28.220403
 30
0.0
 10
69.710805
 20
28.278611
 30
0.0
 10
69.393041
 20
28.492924
 30
0.0
 10
69.178729
 20
28.810688
 30
0.0
 10
69.120521
 20
28.998278
 30
0.0
 10
69.100148
 20
29.199890
 30
0.0
 10
69.120521
 20
29.401503
 30
0.0
 10
69.178729
 20
29.589092
 30
0.0
 10
69.393041
 20
29.906856
 30
0.0
 10
69.710805
 20
30.121169
 30
0.0
 10
69.898659
 20
30.179642
 30
0.0
 10
70.100007
 20
30.199750
 30
0.0
 10
70.100007
 20
30.199750
 30
0.0
  0
LWPOLYLINE
  5
106
100
AcDbEntity
  8
Layer_1
 62
7
100
AcDbPolyline
 90
26
 70
1
 10
32.099768
 20
5.199808
 30
0.0
 10
32.301381
 20
5.179436
 30
0.0
 10
32.488970
 20
5.121228
 30
0.0
 10
32.807000
 20
4.906915
 30
0.0
 10
33.021312
 20
4.589151
 30
0.0
 10
33.079520
 20
4.401297
 30
0.0
 10
33.099893
 20
4.199949
 30
0.0
 10
33.079520
 20
3.998336
 30
0.0
 10
33.021312
 20
3.810747
 30
0.0
 10
32.807000
 20
3.492718
 30
0.0
 10
32.488970
 20
3.278670
 30
0.0
 10
32.301381
 20
3.220197
 30
0.0
 10
32.099768
 20
3.199824
 30
0.0
 10
31.898420
 20
3.220197
 30
0.0
 10
31.710566
 20
3.278670
 30
0.0
 10
31.392802
 20
3.492718
 30
0.0
 10
31.178489
 20
3.810747
 30
0.0
 10
31.120281
 20
3.998336
 30
0.0
 10
31.099908
 20
4.199949
 30
0.0
 10
31.120281
 20
4.401297
 30
0.0
 10
31.178489
 20
4.589151
 30
0.0
 10
31.392802
 20
4.906915
 30
0.0
 10
31.710566
 20
5.121228
 30
0.0
 10
31.898420
 20
5.179436
 30
0.0
 10
32.099768
 20
5.199808
 30
0.0
 10
32.099768
 20
5.199808
 30
0.0
  0
LWPOLYLINE
  5
107
100
AcDbEntity
  8
Layer_1
 62
7
100
AcDbPolyline
 90
26
 70
1
 10
70.100007
 20
5.199808
 30
0.0
 10
70.301620
 20
5.179436
 30
0.0
 10
70.489209
 20
5.121228
 30
0.0
 10
70.807239
 20
4.906915
 30
0.0
 10
71.021551
 20
4.589151
 30
0.0
 10
71.079759
 20
4.401297
 30
0.0
 10
71.100132
 20
4.199949
 30
0.0
 10
71.079759
 20
3.998336
 30
0.0
 10
71.021551
 20
3.810747
 30
0.0
 10
70.807239
 20
3.492718
 30
0.0
 10
70.489209
 20
3.278670
 30
0.0
 10
70.301620
 20
3.220197
 30
0.0
 10
70.100007
 20
3.199824
 30
0.0
 10
69.898659
 20
3.220197
 30
0.0
 10
69.710805
 20
3.278670
 30
0.0
 10
69.393041
 20
3.492718
 30
0.0
 10
69.178729
 20
3.810747
 30
0.0
 10
69.120521
 20
3.998336
 30
0.0
 10
69.100148
 20
4.199949
 30
0.0
 10
69.120521
 20
4.401297
 30
0.0
 10
69.178729
 20
4.589151
 30
0.0
 10
69.393041
 20
4.906915
 30
0.0
 10
69.710805
 20
5.121228
 30
0.0
 10
69.898659
 20
5.179436
 30
0.0
 10
70.100007
 20
5.199808
 30
0.0
 10
70.100007
 20
5.199808
 30
0.0
  0
ENDSEC
  0
SECTION
  2
OBJECTS
  0
DICTIONARY
  5
C
330
0
100
AcDbDictionary
  3
ACAD_GROUP
350
D
  3
ACAD_MLINESTYLE
350
17
  0
DICTIONARY
  5
D
330
C
100
AcDbDictionary
  0
DICTIONARY
  5
1A
330
C
100
AcDbDictionary
  0
DICTIONARY
  5
17
330
C
100
AcDbDictionary
  3
STANDARD
350
18
  0
DICTIONARY
  5
19
330
C
100
AcDbDictionary
  0
ENDSEC
  0
EOF
