  0
SECTION
  2
HEADER
  9
$ACADVER
  1
AC1014
  9
$HANDSEED
  5
FFFF
  9
$MEASUREMENT
 70
     1
  0
ENDSEC
  0
SECTION
  2
TABLES
  0
TABLE
  2
VPORT
  5
8
330
0
100
AcDbSymbolTable
 70
     4
  0
VPORT
  5
2E
330
8
100
AcDbSymbolTableRecord
100
AcDbViewportTableRecord
  2
*ACTIVE
 70
     0
 10
0.0
 20
0.0
 11
1.0
 21
1.0
 12
210.0
 22
148.5
 13
0.0
 23
0.0
 14
10.0
 24
10.0
 15
10.0
 25
10.0
 16
0.0
 26
0.0
 36
1.0
 17
0.0
 27
0.0
 37
0.0
 40
341.0
 41
1.24
 42
50.0
 43
0.0
 44
0.0
 50
0.0
 51
0.0
 71
     0
 72
   100
 73
     1
 74
     3
 75
     0
 76
     0
 77
     0
 78
     0
  0
ENDTAB
  0
TABLE
  2
LTYPE
  5
5
330
0
100
AcDbSymbolTable
 70
     1
  0
LTYPE
  5
14
330
5
100
AcDbSymbolTableRecord
100
AcDbLinetypeTableRecord
  2
BYBLOCK
 70
     0
  3

 72
    65
 73
     0
 40
0.0
  0
LTYPE
  5
15
330
5
100
AcDbSymbolTableRecord
100
AcDbLinetypeTableRecord
  2
BYLAYER
 70
     0
  3

 72
    65
 73
     0
 40
0.0
  0
LTYPE
  5
16
330
5
100
AcDbSymbolTableRecord
100
AcDbLinetypeTableRecord
  2
CONTINUOUS
 70
     0
  3
Solid line
 72
    65
 73
     0
 40
0.0
  0
ENDTAB
  0
TABLE
  2
LAYER
  5
2
100
AcDbSymbolTable
 70
2
  0
LAYER
  5
50
100
AcDbSymbolTableRecord
100
AcDbLayerTableRecord
  2
0
 70
0
  6
CONTINUOUS
  0
LAYER
  5
51
100
AcDbSymbolTableRecord
100
AcDbLayerTableRecord
  2
Layer_1
 70
0
  6
CONTINUOUS
  0
ENDTAB
  0
TABLE
  2
STYLE
  5
3
330
0
100
AcDbSymbolTable
 70
     1
  0
STYLE
  5
11
330
3
100
AcDbSymbolTableRecord
100
AcDbTextStyleTableRecord
  2
STANDARD
 70
     0
 40
0.0
 41
1.0
 50
0.0
 71
     0
 42
2.5
  3
txt
  4

  0
ENDTAB
  0
TABLE
  2
VIEW
  5
6
330
0
100
AcDbSymbolTable
 70
     0
  0
ENDTAB
  0
TABLE
  2
UCS
  5
7
330
0
100
AcDbSymbolTable
 70
     0
  0
ENDTAB
  0
TABLE
  2
APPID
  5
9
330
0
100
AcDbSymbolTable
 70
     2
  0
APPID
  5
12
330
9
100
AcDbSymbolTableRecord
100
AcDbRegAppTableRecord
  2
ACAD
 70
     0
  0
ENDTAB
  0
TABLE
  2
DIMSTYLE
  5
A
330
0
100
AcDbSymbolTable
 70
     1
  0
DIMSTYLE
105
27
330
A
100
AcDbSymbolTableRecord
100
AcDbDimStyleTableRecord
  2
ISO-25
 70
     0
  3

  4

  5

  6

  7

 40
1.0
 41
2.5
 42
0.625
 43
3.75
 44
1.25
 45
0.0
 46
0.0
 47
0.0
 48
0.0
140
2.5
141
2.5
142
0.0
143
0.03937007874016
144
1.0
145
0.0
146
1.0
147
0.625
 71
     0
 72
     0
 73
     0
 74
     0
 75
     0
 76
     0
 77
     1
 78
     8
170
     0
171
     3
172
     1
173
     0
174
     0
175
     0
176
     0
177
     0
178
     0
270
     2
271
     2
272
     2
273
     2
274
     3
340
11
275
     0
280
     0
281
     0
282
     0
283
     0
284
     8
285
     0
286
     0
287
     3
288
     0
  0
ENDTAB
  0
TABLE
  2
BLOCK_RECORD
  5
1
330
0
100
AcDbSymbolTable
 70
     1
  0
BLOCK_RECORD
  5
1F
330
1
100
AcDbSymbolTableRecord
100
AcDbBlockTableRecord
  2
*MODEL_SPACE
  0
BLOCK_RECORD
  5
1B
330
1
100
AcDbSymbolTableRecord
100
AcDbBlockTableRecord
  2
*PAPER_SPACE
  0
ENDTAB
  0
ENDSEC
  0
SECTION
  2
BLOCKS
  0
BLOCK
  5
20
330
1F
100
AcDbEntity
  8
0
100
AcDbBlockBegin
  2
*MODEL_SPACE
 70
     0
 10
0.0
 20
0.0
 30
0.0
  3
*MODEL_SPACE
  1

  0
ENDBLK
  5
21
330
1F
100
AcDbEntity
  8
0
100
AcDbBlockEnd
  0
BLOCK
  5
1C
330
1B
100
AcDbEntity
 67
     1
  8
0
100
AcDbBlockBegin
  2
*PAPER_SPACE
  1

  0
ENDBLK
  5
1D
330
1B
100
AcDbEntity
 67
     1
  8
0
100
AcDbBlockEnd
  0
ENDSEC
  0
SECTION
  2
ENTITIES
  0
LWPOLYLINE
  5
100
100
AcDbEntity
  8
Layer_1
 62
7
100
AcDbPolyline
 90
33
 70
1
 10
22.426300
 20
46.475712
 30
0.0
 10
22.232300
 20
44.515612
 30
0.0
 10
21.665100
 20
42.648812
 30
0.0
 10
20.746100
 20
40.927712
 30
0.0
 10
19.497300
 20
39.404612
 30
0.0
 10
17.974300
 20
38.155812
 30
0.0
 10
16.253100
 20
37.236912
 30
0.0
 10
14.386300
 20
36.669612
 30
0.0
 10
12.426300
 20
36.475712
 30
0.0
 10
10.410900
 20
36.678812
 30
0.0
 10
8.534000
 20
37.261512
 30
0.0
 10
6.835000
 20
38.183512
 30
0.0
 10
5.355000
 20
39.404612
 30
0.0
 10
4.134000
 20
40.884612
 30
0.0
 10
3.212000
 20
42.583212
 30
0.0
 10
2.629000
 20
44.460312
 30
0.0
 10
2.426000
 20
46.475712
 30
0.0
 10
2.629000
 20
48.491012
 30
0.0
 10
3.212000
 20
50.368112
 30
0.0
 10
4.134000
 20
52.066812
 30
0.0
 10
5.355000
 20
53.546712
 30
0.0
 10
6.835000
 20
54.767812
 30
0.0
 10
8.534000
 20
55.689822
 30
0.0
 10
10.410900
 20
56.272512
 30
0.0
 10
12.426300
 20
56.475672
 30
0.0
 10
14.441600
 20
56.272512
 30
0.0
 10
16.318700
 20
55.689822
 30
0.0
 10
18.017400
 20
54.767812
 30
0.0
 10
19.497300
 20
53.546712
 30
0.0
 10
20.718400
 20
52.066812
 30
0.0
 10
21.640400
 20
50.368112
 30
0.0
 10
22.223100
 20
48.491012
 30
0.0
 10
22.426300
 20
46.475712
 30
0.0
  0
SPLINE
  5
101
100
AcDbEntity
  8
Layer_1
 62
7
100
AcDbSpline
 70
8
 71
3
 72
8
 73
4
 74
0
 40
0
 40
0
 40
0
 40
0
 40
1
 40
1
 40
1
 40
1
 10
13.426264
 20
52.975669
 30
0.0
 10
13.426264
 20
52.710453
 30
0.0
 10
13.320907
 20
52.456099
 30
0.0
 10
13.133371
 20
52.268562
 30
0.0
  0
SPLINE
  5
102
100
AcDbEntity
  8
Layer_1
 62
7
100
AcDbSpline
 70
8
 71
3
 72
8
 73
4
 74
0
 40
0
 40
0
 40
0
 40
0
 40
1
 40
1
 40
1
 40
1
 10
13.133371
 20
52.268562
 30
0.0
 10
12.945835
 20
52.081026
 30
0.0
 10
12.691481
 20
51.975669
 30
0.0
 10
12.426264
 20
51.975669
 30
0.0
  0
SPLINE
  5
103
100
AcDbEntity
  8
Layer_1
 62
7
100
AcDbSpline
 70
8
 71
3
 72
8
 73
4
 74
0
 40
0
 40
0
 40
0
 40
0
 40
1
 40
1
 40
1
 40
1
 10
12.426264
 20
51.975669
 30
0.0
 10
12.161048
 20
51.975669
 30
0.0
 10
11.906694
 20
52.081026
 30
0.0
 10
11.719157
 20
52.268562
 30
0.0
  0
SPLINE
  5
104
100
AcDbEntity
  8
Layer_1
 62
7
100
AcDbSpline
 70
8
 71
3
 72
8
 73
4
 74
0
 40
0
 40
0
 40
0
 40
0
 40
1
 40
1
 40
1
 40
1
 10
11.719157
 20
52.268562
 30
0.0
 10
11.531621
 20
52.456099
 30
0.0
 10
11.426264
 20
52.710453
 30
0.0
 10
11.426264
 20
52.975669
 30
0.0
  0
SPLINE
  5
105
100
AcDbEntity
  8
Layer_1
 62
7
100
AcDbSpline
 70
8
 71
3
 72
8
 73
4
 74
0
 40
0
 40
0
 40
0
 40
0
 40
1
 40
1
 40
1
 40
1
 10
11.426264
 20
52.975669
 30
0.0
 10
11.426264
 20
53.240886
 30
0.0
 10
11.531621
 20
53.495240
 30
0.0
 10
11.719157
 20
53.682776
 30
0.0
  0
SPLINE
  5
106
100
AcDbEntity
  8
Layer_1
 62
7
100
AcDbSpline
 70
8
 71
3
 72
8
 73
4
 74
0
 40
0
 40
0
 40
0
 40
0
 40
1
 40
1
 40
1
 40
1
 10
11.719157
 20
53.682776
 30
0.0
 10
11.906694
 20
53.870312
 30
0.0
 10
12.161048
 20
53.975669
 30
0.0
 10
12.426264
 20
53.975669
 30
0.0
  0
SPLINE
  5
107
100
AcDbEntity
  8
Layer_1
 62
7
100
AcDbSpline
 70
8
 71
3
 72
8
 73
4
 74
0
 40
0
 40
0
 40
0
 40
0
 40
1
 40
1
 40
1
 40
1
 10
12.426264
 20
53.975669
 30
0.0
 10
12.691481
 20
53.975669
 30
0.0
 10
12.945835
 20
53.870312
 30
0.0
 10
13.133371
 20
53.682776
 30
0.0
  0
SPLINE
  5
108
100
AcDbEntity
  8
Layer_1
 62
7
100
AcDbSpline
 70
8
 71
3
 72
8
 73
4
 74
0
 40
0
 40
0
 40
0
 40
0
 40
1
 40
1
 40
1
 40
1
 10
13.133371
 20
53.682776
 30
0.0
 10
13.320907
 20
53.495240
 30
0.0
 10
13.426264
 20
53.240886
 30
0.0
 10
13.426264
 20
52.975669
 30
0.0
  0
LWPOLYLINE
  5
109
100
AcDbEntity
  8
Layer_1
 62
7
100
AcDbPolyline
 90
19
 70
1
 10
10.472518
 20
47.867426
 30
0.0
 10
10.280536
 20
47.548789
 30
0.0
 10
10.140783
 20
47.206418
 30
0.0
 10
10.055270
 20
46.846611
 30
0.0
 10
10.026033
 20
46.475771
 30
0.0
 10
10.055323
 20
46.104746
 30
0.0
 10
10.140942
 20
45.744833
 30
0.0
 10
10.280853
 20
45.402330
 30
0.0
 10
10.473047
 20
45.083613
 30
0.0
 10
14.379778
 20
45.083613
 30
0.0
 10
14.571813
 20
45.402356
 30
0.0
 10
14.711619
 20
45.744859
 30
0.0
 10
14.797106
 20
46.104799
 30
0.0
 10
14.826263
 20
46.475771
 30
0.0
 10
14.797529
 20
46.846479
 30
0.0
 10
14.712518
 20
47.206233
 30
0.0
 10
14.573295
 20
47.548656
 30
0.0
 10
14.381842
 20
47.867426
 30
0.0
 10
10.472518
 20
47.867426
 30
0.0
  0
SPLINE
  5
10a
100
AcDbEntity
  8
Layer_1
 62
7
100
AcDbSpline
 70
8
 71
3
 72
8
 73
4
 74
0
 40
0
 40
0
 40
0
 40
0
 40
1
 40
1
 40
1
 40
1
 10
13.426264
 20
39.975670
 30
0.0
 10
13.426264
 20
39.710453
 30
0.0
 10
13.320907
 20
39.456099
 30
0.0
 10
13.133371
 20
39.268563
 30
0.0
  0
SPLINE
  5
10b
100
AcDbEntity
  8
Layer_1
 62
7
100
AcDbSpline
 70
8
 71
3
 72
8
 73
4
 74
0
 40
0
 40
0
 40
0
 40
0
 40
1
 40
1
 40
1
 40
1
 10
13.133371
 20
39.268563
 30
0.0
 10
12.945835
 20
39.081026
 30
0.0
 10
12.691481
 20
38.975670
 30
0.0
 10
12.426264
 20
38.975670
 30
0.0
  0
SPLINE
  5
10c
100
AcDbEntity
  8
Layer_1
 62
7
100
AcDbSpline
 70
8
 71
3
 72
8
 73
4
 74
0
 40
0
 40
0
 40
0
 40
0
 40
1
 40
1
 40
1
 40
1
 10
12.426264
 20
38.975670
 30
0.0
 10
12.161048
 20
38.975670
 30
0.0
 10
11.906694
 20
39.081026
 30
0.0
 10
11.719157
 20
39.268563
 30
0.0
  0
SPLINE
  5
10d
100
AcDbEntity
  8
Layer_1
 62
7
100
AcDbSpline
 70
8
 71
3
 72
8
 73
4
 74
0
 40
0
 40
0
 40
0
 40
0
 40
1
 40
1
 40
1
 40
1
 10
11.719157
 20
39.268563
 30
0.0
 10
11.531621
 20
39.456099
 30
0.0
 10
11.426264
 20
39.710453
 30
0.0
 10
11.426264
 20
39.975670
 30
0.0
  0
SPLINE
  5
10e
100
AcDbEntity
  8
Layer_1
 62
7
100
AcDbSpline
 70
8
 71
3
 72
8
 73
4
 74
0
 40
0
 40
0
 40
0
 40
0
 40
1
 40
1
 40
1
 40
1
 10
11.426264
 20
39.975670
 30
0.0
 10
11.426264
 20
40.240886
 30
0.0
 10
11.531621
 20
40.495240
 30
0.0
 10
11.719157
 20
40.682776
 30
0.0
  0
SPLINE
  5
10f
100
AcDbEntity
  8
Layer_1
 62
7
100
AcDbSpline
 70
8
 71
3
 72
8
 73
4
 74
0
 40
0
 40
0
 40
0
 40
0
 40
1
 40
1
 40
1
 40
1
 10
11.719157
 20
40.682776
 30
0.0
 10
11.906694
 20
40.870313
 30
0.0
 10
12.161048
 20
40.975670
 30
0.0
 10
12.426264
 20
40.975670
 30
0.0
  0
SPLINE
  5
110
100
AcDbEntity
  8
Layer_1
 62
7
100
AcDbSpline
 70
8
 71
3
 72
8
 73
4
 74
0
 40
0
 40
0
 40
0
 40
0
 40
1
 40
1
 40
1
 40
1
 10
12.426264
 20
40.975670
 30
0.0
 10
12.691481
 20
40.975670
 30
0.0
 10
12.945835
 20
40.870313
 30
0.0
 10
13.133371
 20
40.682776
 30
0.0
  0
SPLINE
  5
111
100
AcDbEntity
  8
Layer_1
 62
7
100
AcDbSpline
 70
8
 71
3
 72
8
 73
4
 74
0
 40
0
 40
0
 40
0
 40
0
 40
1
 40
1
 40
1
 40
1
 10
13.133371
 20
40.682776
 30
0.0
 10
13.320907
 20
40.495240
 30
0.0
 10
13.426264
 20
40.240886
 30
0.0
 10
13.426264
 20
39.975670
 30
0.0
  0
LWPOLYLINE
  5
112
100
AcDbEntity
  8
Layer_1
 62
7
100
AcDbPolyline
 90
1
 70
1
 10
13.426264
 20
52.975669
 30
0.0
  0
LWPOLYLINE
  5
113
100
AcDbEntity
  8
Layer_1
 62
7
100
AcDbPolyline
 90
1
 70
1
 10
13.426264
 20
39.975670
 30
0.0
  0
ENDSEC
  0
SECTION
  2
OBJECTS
  0
DICTIONARY
  5
C
330
0
100
AcDbDictionary
  3
ACAD_GROUP
350
D
  3
ACAD_MLINESTYLE
350
17
  0
DICTIONARY
  5
D
330
C
100
AcDbDictionary
  0
DICTIONARY
  5
1A
330
C
100
AcDbDictionary
  0
DICTIONARY
  5
17
330
C
100
AcDbDictionary
  3
STANDARD
350
18
  0
DICTIONARY
  5
19
330
C
100
AcDbDictionary
  0
ENDSEC
  0
EOF
