  0
SECTION
  2
HEADER
  9
$ACADVER
  1
AC1014
  9
$HANDSEED
  5
FFFF
  9
$MEASUREMENT
 70
     1
  0
ENDSEC
  0
SECTION
  2
TABLES
  0
TABLE
  2
VPORT
  5
8
330
0
100
AcDbSymbolTable
 70
     4
  0
VPORT
  5
2E
330
8
100
AcDbSymbolTableRecord
100
AcDbViewportTableRecord
  2
*ACTIVE
 70
     0
 10
0.0
 20
0.0
 11
1.0
 21
1.0
 12
210.0
 22
148.5
 13
0.0
 23
0.0
 14
10.0
 24
10.0
 15
10.0
 25
10.0
 16
0.0
 26
0.0
 36
1.0
 17
0.0
 27
0.0
 37
0.0
 40
341.0
 41
1.24
 42
50.0
 43
0.0
 44
0.0
 50
0.0
 51
0.0
 71
     0
 72
   100
 73
     1
 74
     3
 75
     0
 76
     0
 77
     0
 78
     0
  0
ENDTAB
  0
TABLE
  2
LTYPE
  5
5
330
0
100
AcDbSymbolTable
 70
     1
  0
LTYPE
  5
14
330
5
100
AcDbSymbolTableRecord
100
AcDbLinetypeTableRecord
  2
BYBLOCK
 70
     0
  3

 72
    65
 73
     0
 40
0.0
  0
LTYPE
  5
15
330
5
100
AcDbSymbolTableRecord
100
AcDbLinetypeTableRecord
  2
BYLAYER
 70
     0
  3

 72
    65
 73
     0
 40
0.0
  0
LTYPE
  5
16
330
5
100
AcDbSymbolTableRecord
100
AcDbLinetypeTableRecord
  2
CONTINUOUS
 70
     0
  3
Solid line
 72
    65
 73
     0
 40
0.0
  0
ENDTAB
  0
TABLE
  2
LAYER
  5
2
100
AcDbSymbolTable
 70
2
  0
LAYER
  5
50
100
AcDbSymbolTableRecord
100
AcDbLayerTableRecord
  2
0
 70
0
  6
CONTINUOUS
  0
LAYER
  5
51
100
AcDbSymbolTableRecord
100
AcDbLayerTableRecord
  2
Layer_1
 70
0
  6
CONTINUOUS
  0
ENDTAB
  0
TABLE
  2
STYLE
  5
3
330
0
100
AcDbSymbolTable
 70
     1
  0
STYLE
  5
11
330
3
100
AcDbSymbolTableRecord
100
AcDbTextStyleTableRecord
  2
STANDARD
 70
     0
 40
0.0
 41
1.0
 50
0.0
 71
     0
 42
2.5
  3
txt
  4

  0
ENDTAB
  0
TABLE
  2
VIEW
  5
6
330
0
100
AcDbSymbolTable
 70
     0
  0
ENDTAB
  0
TABLE
  2
UCS
  5
7
330
0
100
AcDbSymbolTable
 70
     0
  0
ENDTAB
  0
TABLE
  2
APPID
  5
9
330
0
100
AcDbSymbolTable
 70
     2
  0
APPID
  5
12
330
9
100
AcDbSymbolTableRecord
100
AcDbRegAppTableRecord
  2
ACAD
 70
     0
  0
ENDTAB
  0
TABLE
  2
DIMSTYLE
  5
A
330
0
100
AcDbSymbolTable
 70
     1
  0
DIMSTYLE
105
27
330
A
100
AcDbSymbolTableRecord
100
AcDbDimStyleTableRecord
  2
ISO-25
 70
     0
  3

  4

  5

  6

  7

 40
1.0
 41
2.5
 42
0.625
 43
3.75
 44
1.25
 45
0.0
 46
0.0
 47
0.0
 48
0.0
140
2.5
141
2.5
142
0.0
143
0.03937007874016
144
1.0
145
0.0
146
1.0
147
0.625
 71
     0
 72
     0
 73
     0
 74
     0
 75
     0
 76
     0
 77
     1
 78
     8
170
     0
171
     3
172
     1
173
     0
174
     0
175
     0
176
     0
177
     0
178
     0
270
     2
271
     2
272
     2
273
     2
274
     3
340
11
275
     0
280
     0
281
     0
282
     0
283
     0
284
     8
285
     0
286
     0
287
     3
288
     0
  0
ENDTAB
  0
TABLE
  2
BLOCK_RECORD
  5
1
330
0
100
AcDbSymbolTable
 70
     1
  0
BLOCK_RECORD
  5
1F
330
1
100
AcDbSymbolTableRecord
100
AcDbBlockTableRecord
  2
*MODEL_SPACE
  0
BLOCK_RECORD
  5
1B
330
1
100
AcDbSymbolTableRecord
100
AcDbBlockTableRecord
  2
*PAPER_SPACE
  0
ENDTAB
  0
ENDSEC
  0
SECTION
  2
BLOCKS
  0
BLOCK
  5
20
330
1F
100
AcDbEntity
  8
0
100
AcDbBlockBegin
  2
*MODEL_SPACE
 70
     0
 10
0.0
 20
0.0
 30
0.0
  3
*MODEL_SPACE
  1

  0
ENDBLK
  5
21
330
1F
100
AcDbEntity
  8
0
100
AcDbBlockEnd
  0
BLOCK
  5
1C
330
1B
100
AcDbEntity
 67
     1
  8
0
100
AcDbBlockBegin
  2
*PAPER_SPACE
  1

  0
ENDBLK
  5
1D
330
1B
100
AcDbEntity
 67
     1
  8
0
100
AcDbBlockEnd
  0
ENDSEC
  0
SECTION
  2
ENTITIES
  0
LWPOLYLINE
  5
100
100
AcDbEntity
  8
Layer_1
 62
7
100
AcDbPolyline
 90
255
 70
1
 10
3.643709
 20
114.015097
 30
0.0
 10
2.998576
 20
113.958741
 30
0.0
 10
2.425766
 20
113.794700
 30
0.0
 10
1.922116
 20
113.529058
 30
0.0
 10
1.484450
 20
113.168166
 30
0.0
 10
1.109604
 20
112.718639
 30
0.0
 10
0.794406
 20
112.186562
 30
0.0
 10
0.535691
 20
111.578285
 30
0.0
 10
0.330290
 20
110.900158
 30
0.0
 10
0.175035
 20
110.158795
 30
0.0
 10
0.066755
 20
109.360548
 30
0.0
 10
0.002283
 20
108.511500
 30
0.0
 10
-0.021549
 20
107.618266
 30
0.0
 10
0.040034
 20
105.724352
 30
0.0
 10
0.226157
 20
103.729659
 30
0.0
 10
0.511471
 20
101.685091
 30
0.0
 10
0.870630
 20
99.641555
 30
0.0
 10
1.278289
 20
97.649984
 30
0.0
 10
1.709097
 20
95.761255
 30
0.0
 10
2.538786
 20
92.496033
 30
0.0
 10
3.156902
 20
90.253133
 30
0.0
 10
3.960151
 20
87.185342
 30
0.0
 10
4.613645
 20
84.298659
 30
0.0
 10
5.125508
 20
81.585643
 30
0.0
 10
5.503942
 20
79.038838
 30
0.0
 10
5.757069
 20
76.650798
 30
0.0
 10
5.893038
 20
74.414117
 30
0.0
 10
5.919999
 20
72.321289
 30
0.0
 10
5.846101
 20
70.364960
 30
0.0
 10
5.679466
 20
68.537589
 30
0.0
 10
5.428297
 20
66.831820
 30
0.0
 10
5.100690
 20
65.240166
 30
0.0
 10
4.704821
 20
63.755192
 30
0.0
 10
4.248838
 20
62.369490
 30
0.0
 10
3.740891
 20
61.075571
 30
0.0
 10
3.189129
 20
59.866002
 30
0.0
 10
2.601666
 20
58.733374
 30
0.0
 10
1.986687
 20
57.670199
 30
0.0
 10
1.352333
 20
56.669068
 30
0.0
 10
0.058084
 20
54.823176
 30
0.0
 10
-2.404417
 20
51.548296
 30
0.0
 10
-2.946268
 20
50.773067
 30
0.0
 10
-3.442308
 20
50.000484
 30
0.0
 10
-3.884374
 20
49.222873
 30
0.0
 10
-4.264342
 20
48.432827
 30
0.0
 10
-4.574064
 20
47.622938
 30
0.0
 10
-4.805389
 20
46.785796
 30
0.0
 10
-4.950142
 20
45.913994
 30
0.0
 10
-5.000202
 20
45.000123
 30
0.0
 10
-4.963795
 20
44.081490
 30
0.0
 10
-4.857988
 20
43.199634
 30
0.0
 10
-4.687940
 20
42.352438
 30
0.0
 10
-4.458785
 20
41.538580
 30
0.0
 10
-4.175733
 20
40.755942
 30
0.0
 10
-3.843920
 20
40.002673
 30
0.0
 10
-3.468502
 20
39.277451
 30
0.0
 10
-3.054641
 20
38.578157
 30
0.0
 10
-2.132206
 20
37.250742
 30
0.0
 10
-1.117886
 20
36.006142
 30
0.0
 10
-0.052947
 20
34.830069
 30
0.0
 10
1.021342
 20
33.708501
 30
0.0
 10
2.063713
 20
32.627413
 30
0.0
 10
3.032892
 20
31.572519
 30
0.0
 10
3.887629
 20
30.529796
 30
0.0
 10
4.586658
 20
29.484692
 30
0.0
 10
4.864867
 20
28.957113
 30
0.0
 10
5.088678
 20
28.423449
 30
0.0
 10
5.252932
 20
27.882376
 30
0.0
 10
5.352468
 20
27.331778
 30
0.0
 10
5.382128
 20
26.770067
 30
0.0
 10
5.336725
 20
26.195392
 30
0.0
 10
5.211154
 20
25.606165
 30
0.0
 10
5.000202
 20
25.000269
 30
0.0
 10
4.864232
 20
24.731453
 30
0.0
 10
4.691142
 20
24.488565
 30
0.0
 10
4.481909
 20
24.270549
 30
0.0
 10
4.237487
 20
24.076874
 30
0.0
 10
3.647017
 20
23.759638
 30
0.0
 10
2.927562
 20
23.531832
 30
0.0
 10
2.086840
 20
23.387369
 30
0.0
 10
1.132679
 20
23.321224
 30
0.0
 10
0.072848
 20
23.327574
 30
0.0
 10
-1.084868
 20
23.401128
 30
0.0
 10
-2.332688
 20
23.536065
 30
0.0
 10
-3.662812
 20
23.727359
 30
0.0
 10
-6.538939
 20
24.256261
 30
0.0
 10
-9.650915
 20
24.943384
 30
0.0
 10
-12.936511
 20
25.745336
 30
0.0
 10
-19.779509
 20
27.516192
 30
0.0
 10
-23.212372
 20
28.397255
 30
0.0
 10
-26.569723
 20
29.216934
 30
0.0
 10
-29.789437
 20
29.931044
 30
0.0
 10
-32.809127
 20
30.495401
 30
0.0
 10
-34.224647
 20
30.707861
 30
0.0
 10
-35.566614
 20
30.866346
 30
0.0
 10
-36.827618
 20
30.965565
 30
0.0
 10
-37.999722
 20
30.999961
 30
0.0
 10
-39.107797
 20
30.959480
 30
0.0
 10
-40.180947
 20
30.841476
 30
0.0
 10
-41.217849
 20
30.649917
 30
0.0
 10
-42.217181
 20
30.389038
 30
0.0
 10
-43.177618
 20
30.063071
 30
0.0
 10
-44.097839
 20
29.676515
 30
0.0
 10
-44.976520
 20
29.233074
 30
0.0
 10
-45.812339
 20
28.737509
 30
0.0
 10
-46.603972
 20
28.193790
 30
0.0
 10
-47.349833
 20
27.605886
 30
0.0
 10
-48.048862
 20
26.978559
 30
0.0
 10
-48.699737
 20
26.316042
 30
0.0
 10
-49.300870
 20
25.622040
 30
0.0
 10
-49.851204
 20
24.901051
 30
0.0
 10
-50.349149
 20
24.157572
 30
0.0
 10
-50.793649
 20
23.395572
 30
0.0
 10
-51.182851
 20
22.619284
 30
0.0
 10
-51.516226
 20
21.832942
 30
0.0
 10
-51.791658
 20
21.040780
 30
0.0
 10
-52.008087
 20
20.247295
 30
0.0
 10
-52.164456
 20
19.456455
 30
0.0
 10
-52.258912
 20
18.672230
 30
0.0
 10
-52.290662
 20
17.899647
 30
0.0
 10
-52.257854
 20
17.142145
 30
0.0
 10
-52.159429
 20
16.404222
 30
0.0
 10
-51.994064
 20
15.690376
 30
0.0
 10
-51.760437
 20
15.004576
 30
0.0
 10
-51.456960
 20
14.351055
 30
0.0
 10
-51.082574
 20
13.734311
 30
0.0
 10
-50.635958
 20
13.158049
 30
0.0
 10
-50.115522
 20
12.627030
 30
0.0
 10
-49.519945
 20
12.145224
 30
0.0
 10
-49.135241
 20
11.921386
 30
0.0
 10
-48.617187
 20
11.705751
 30
0.0
 10
-47.970281
 20
11.497788
 30
0.0
 10
-47.198756
 20
11.297499
 30
0.0
 10
-45.298254
 20
10.919938
 30
0.0
 10
-42.949547
 20
10.571482
 30
0.0
 10
-40.186768
 20
10.251072
 30
0.0
 10
-37.043783
 20
9.957384
 30
0.0
 10
-33.554458
 20
9.689890
 30
0.0
 10
-29.752925
 20
9.446738
 30
0.0
 10
-21.348144
 20
9.029755
 30
0.0
 10
-12.101010
 20
8.697174
 30
0.0
 10
-2.282836
 20
8.440263
 30
0.0
 10
7.835000
 20
8.249499
 30
0.0
 10
17.981110
 20
8.115620
 30
0.0
 10
27.884173
 20
8.029630
 30
0.0
 10
45.875310
 20
7.963749
 30
0.0
 10
59.637612
 20
7.978565
 30
0.0
 10
67.000172
 20
7.999732
 30
0.0
 10
68.694564
 20
8.059263
 30
0.0
 10
70.334716
 20
8.232830
 30
0.0
 10
71.912426
 20
8.512230
 30
0.0
 10
73.420551
 20
8.889526
 30
0.0
 10
74.851418
 20
9.357045
 30
0.0
 10
76.197618
 20
9.907113
 30
0.0
 10
77.451478
 20
10.531265
 30
0.0
 10
78.605326
 20
11.222093
 30
0.0
 10
79.651489
 20
11.971393
 30
0.0
 10
80.582822
 20
12.771493
 30
0.0
 10
81.391653
 20
13.614455
 30
0.0
 10
82.070309
 20
14.492078
 30
0.0
 10
82.611382
 20
15.396953
 30
0.0
 10
83.007199
 20
16.320878
 30
0.0
 10
83.250086
 20
17.255915
 30
0.0
 10
83.311999
 20
17.725286
 30
0.0
 10
83.332901
 20
18.194392
 30
0.0
 10
83.273634
 20
19.269659
 30
0.0
 10
83.105889
 20
20.597603
 30
0.0
 10
82.845274
 20
22.134038
 30
0.0
 10
82.507136
 20
23.834780
 30
0.0
 10
81.659676
 20
27.551911
 30
0.0
 10
80.687068
 20
31.395778
 30
0.0
 10
79.712872
 20
35.012103
 30
0.0
 10
78.860120
 20
38.047138
 30
0.0
 10
78.012395
 20
40.957819
 30
0.0
 10
78.266130
 20
43.597038
 30
0.0
 10
73.420287
 20
43.693082
 30
0.0
 10
73.469499
 20
45.000123
 30
0.0
 10
73.451772
 20
46.355055
 30
0.0
 10
74.502962
 20
46.401092
 30
0.0
 10
74.372257
 20
49.398292
 30
0.0
 10
73.318951
 20
49.352255
 30
0.0
 10
73.085059
 20
52.054973
 30
0.0
 10
74.127782
 20
52.191763
 30
0.0
 10
73.736199
 20
55.166367
 30
0.0
 10
72.696387
 20
55.029419
 30
0.0
 10
72.220930
 20
57.700070
 30
0.0
 10
73.249366
 20
57.927956
 30
0.0
 10
72.599814
 20
60.856973
 30
0.0
 10
71.571378
 20
60.629087
 30
0.0
 10
70.873672
 20
63.250632
 30
0.0
 10
71.874062
 20
63.565856
 30
0.0
 10
70.971832
 20
66.426664
 30
0.0
 10
69.968268
 20
66.110407
 30
0.0
 10
69.039845
 20
68.659085
 30
0.0
 10
70.012718
 20
69.062178
 30
0.0
 10
68.864955
 20
71.833583
 30
0.0
 10
67.893935
 20
71.431522
 30
0.0
 10
66.746437
 20
73.889263
 30
0.0
 10
67.679622
 20
74.375011
 30
0.0
 10
66.294528
 20
77.036349
 30
0.0
 10
65.360285
 20
76.550072
 30
0.0
 10
64.005883
 20
78.900326
 30
0.0
 10
64.892237
 20
79.465150
 30
0.0
 10
63.280395
 20
81.995228
 30
0.0
 10
62.395099
 20
81.431438
 30
0.0
 10
60.836174
 20
83.650932
 30
0.0
 10
61.671728
 20
84.292256
 30
0.0
 10
59.845574
 20
86.672474
 30
0.0
 10
59.010285
 20
86.031680
 30
0.0
 10
57.268797
 20
88.111649
 30
0.0
 10
58.042968
 20
88.820653
 30
0.0
 10
56.016260
 20
91.032410
 30
0.0
 10
55.239972
 20
90.321343
 30
0.0
 10
53.322272
 20
92.239043
 30
0.0
 10
54.033472
 20
93.015224
 30
0.0
 10
51.821556
 20
95.041986
 30
0.0
 10
51.112737
 20
94.268370
 30
0.0
 10
49.032583
 20
96.009884
 30
0.0
 10
49.673404
 20
96.844460
 30
0.0
 10
47.293212
 20
98.670693
 30
0.0
 10
46.652391
 20
97.835615
 30
0.0
 10
44.432537
 20
99.394672
 30
0.0
 10
44.996099
 20
100.279386
 30
0.0
 10
42.465624
 20
101.891175
 30
0.0
 10
41.901268
 20
101.005429
 30
0.0
 10
39.550975
 20
102.359355
 30
0.0
 10
40.037279
 20
103.293678
 30
0.0
 10
37.376100
 20
104.678587
 30
0.0
 10
36.890854
 20
103.745825
 30
0.0
 10
34.432610
 20
104.893561
 30
0.0
 10
34.834512
 20
105.864052
 30
0.0
 10
32.063266
 20
107.011841
 30
0.0
 10
31.660041
 20
106.039233
 30
0.0
 10
29.111310
 20
106.968450
 30
0.0
 10
29.427752
 20
107.970956
 30
0.0
 10
26.566812
 20
108.873185
 30
0.0
 10
26.251641
 20
107.873854
 30
0.0
 10
23.630069
 20
108.571295
 30
0.0
 10
23.857982
 20
109.599202
 30
0.0
 10
20.928965
 20
110.248225
 30
0.0
 10
20.701053
 20
109.220318
 30
0.0
 10
18.030428
 20
109.695775
 30
0.0
 10
18.167376
 20
110.735058
 30
0.0
 10
15.192878
 20
111.126906
 30
0.0
 10
15.055929
 20
110.084977
 30
0.0
 10
12.353263
 20
110.319133
 30
0.0
 10
12.399248
 20
111.371116
 30
0.0
 10
9.402022
 20
111.501820
 30
0.0
 10
9.356011
 20
110.451954
 30
0.0
 10
8.000021
 20
110.469416
 30
0.0
 10
6.686920
 20
110.420468
 30
0.0
 10
6.657472
 20
111.695231
 30
0.0
 10
5.569691
 20
111.695231
 30
0.0
 10
3.999759
 20
114.000016
 30
0.0
 10
3.643709
 20
114.015097
 30
0.0
  0
LWPOLYLINE
  5
101
100
AcDbEntity
  8
Layer_1
 62
7
100
AcDbPolyline
 90
129
 70
1
 10
31.988125
 20
91.472677
 30
0.0
 10
33.115779
 20
91.444182
 30
0.0
 10
34.228352
 20
91.359541
 30
0.0
 10
35.325050
 20
91.220212
 30
0.0
 10
36.404020
 20
91.027516
 30
0.0
 10
37.463941
 20
90.782855
 30
0.0
 10
38.503754
 20
90.487607
 30
0.0
 10
39.521606
 20
90.143146
 30
0.0
 10
40.516704
 20
89.750822
 30
0.0
 10
41.487195
 20
89.312063
 30
0.0
 10
42.432022
 20
88.828193
 30
0.0
 10
43.349597
 20
88.300614
 30
0.0
 10
44.238333
 20
87.730728
 30
0.0
 10
45.097435
 20
87.119858
 30
0.0
 10
45.925052
 20
86.469406
 30
0.0
 10
46.720124
 20
85.780749
 30
0.0
 10
47.481066
 20
85.055288
 30
0.0
 10
48.206554
 20
84.294346
 30
0.0
 10
48.895264
 20
83.499353
 30
0.0
 10
49.545610
 20
82.671630
 30
0.0
 10
50.156533
 20
81.812618
 30
0.0
 10
50.726445
 20
80.923650
 30
0.0
 10
51.254024
 20
80.006115
 30
0.0
 10
51.737947
 20
79.061388
 30
0.0
 10
52.176626
 20
78.090849
 30
0.0
 10
52.569004
 20
77.095880
 30
0.0
 10
52.913491
 20
76.077817
 30
0.0
 10
53.208766
 20
75.038110
 30
0.0
 10
53.453241
 20
73.978083
 30
0.0
 10
53.646122
 20
72.899113
 30
0.0
 10
53.785293
 20
71.802600
 30
0.0
 10
53.869960
 20
70.689895
 30
0.0
 10
53.898535
 20
69.562399
 30
0.0
 10
53.871547
 20
68.475914
 30
0.0
 10
53.791378
 20
67.396811
 30
0.0
 10
53.658558
 20
66.326863
 30
0.0
 10
53.473614
 20
65.267894
 30
0.0
 10
53.237870
 20
64.221679
 30
0.0
 10
52.951591
 20
63.190016
 30
0.0
 10
52.615570
 20
62.174704
 30
0.0
 10
52.230866
 20
61.177542
 30
0.0
 10
51.797743
 20
60.200330
 30
0.0
 10
51.317524
 20
59.244867
 30
0.0
 10
50.790474
 20
58.312925
 30
0.0
 10
50.217387
 20
57.406330
 30
0.0
 10
49.599320
 20
56.526855
 30
0.0
 10
48.936804
 20
55.676325
 30
0.0
 10
48.230631
 20
54.856487
 30
0.0
 10
47.481331
 20
54.069167
 30
0.0
 10
46.693931
 20
53.319946
 30
0.0
 10
45.874252
 20
52.613773
 30
0.0
 10
45.023616
 20
51.950992
 30
0.0
 10
44.144141
 20
51.332925
 30
0.0
 10
43.237679
 20
50.759838
 30
0.0
 10
42.305816
 20
50.232788
 30
0.0
 10
41.350141
 20
49.752569
 30
0.0
 10
40.373035
 20
49.319446
 30
0.0
 10
39.375820
 20
48.934742
 30
0.0
 10
38.360614
 20
48.598721
 30
0.0
 10
37.329004
 20
48.312442
 30
0.0
 10
36.282841
 20
48.076434
 30
0.0
 10
35.223714
 20
47.891755
 30
0.0
 10
34.153739
 20
47.758934
 30
0.0
 10
33.074768
 20
47.678500
 30
0.0
 10
31.988125
 20
47.651513
 30
0.0
 10
30.901745
 20
47.678500
 30
0.0
 10
29.822510
 20
47.758669
 30
0.0
 10
28.752535
 20
47.891755
 30
0.0
 10
27.693673
 20
48.076434
 30
0.0
 10
26.647510
 20
48.312442
 30
0.0
 10
25.615741
 20
48.598721
 30
0.0
 10
24.600429
 20
48.934477
 30
0.0
 10
23.603267
 20
49.319446
 30
0.0
 10
22.626029
 20
49.752305
 30
0.0
 10
21.670565
 20
50.232788
 30
0.0
 10
20.738623
 20
50.759838
 30
0.0
 10
19.832002
 20
51.332661
 30
0.0
 10
18.952527
 20
51.950992
 30
0.0
 10
18.101971
 20
52.613509
 30
0.0
 10
17.282133
 20
53.319682
 30
0.0
 10
16.494839
 20
54.069008
 30
0.0
 10
15.745592
 20
54.856302
 30
0.0
 10
15.039313
 20
55.676140
 30
0.0
 10
14.376717
 20
56.526696
 30
0.0
 10
13.758571
 20
57.406171
 30
0.0
 10
13.185590
 20
58.312792
 30
0.0
 10
12.658540
 20
59.244734
 30
0.0
 10
12.178162
 20
60.200198
 30
0.0
 10
11.745172
 20
61.177436
 30
0.0
 10
11.360362
 20
62.174598
 30
0.0
 10
11.024420
 20
63.189910
 30
0.0
 10
10.738141
 20
64.221600
 30
0.0
 10
10.502265
 20
65.267815
 30
0.0
 10
10.317480
 20
66.326810
 30
0.0
 10
10.184606
 20
67.396758
 30
0.0
 10
10.104332
 20
68.475888
 30
0.0
 10
10.077423
 20
69.562399
 30
0.0
 10
10.104358
 20
70.648884
 30
0.0
 10
10.184659
 20
71.727987
 30
0.0
 10
10.317559
 20
72.797936
 30
0.0
 10
10.502344
 20
73.856904
 30
0.0
 10
10.738247
 20
74.903093
 30
0.0
 10
11.024552
 20
75.934757
 30
0.0
 10
11.360494
 20
76.950042
 30
0.0
 10
11.745330
 20
77.947201
 30
0.0
 10
12.178321
 20
78.924403
 30
0.0
 10
12.658698
 20
79.879860
 30
0.0
 10
13.185775
 20
80.811781
 30
0.0
 10
13.758756
 20
81.718368
 30
0.0
 10
14.376903
 20
82.597825
 30
0.0
 10
15.039499
 20
83.448367
 30
0.0
 10
15.745777
 20
84.268179
 30
0.0
 10
16.495024
 20
85.055447
 30
0.0
 10
17.282319
 20
85.804667
 30
0.0
 10
18.102156
 20
86.510920
 30
0.0
 10
18.952686
 20
87.173516
 30
0.0
 10
19.832161
 20
87.791635
 30
0.0
 10
20.738756
 20
88.364590
 30
0.0
 10
21.670698
 20
88.891640
 30
0.0
 10
22.626161
 20
89.372018
 30
0.0
 10
23.603373
 20
89.804982
 30
0.0
 10
24.600535
 20
90.189792
 30
0.0
 10
25.615847
 20
90.525707
 30
0.0
 10
26.647510
 20
90.811986
 30
0.0
 10
27.693673
 20
91.047862
 30
0.0
 10
28.752800
 20
91.232621
 30
0.0
 10
29.822510
 20
91.365494
 30
0.0
 10
30.901745
 20
91.445769
 30
0.0
 10
31.988125
 20
91.472677
 30
0.0
  0
LWPOLYLINE
  5
102
100
AcDbEntity
  8
Layer_1
 62
7
100
AcDbPolyline
 90
65
 70
1
 10
7.000081
 20
52.499738
 30
0.0
 10
7.766897
 20
52.461109
 30
0.0
 10
8.511540
 20
52.347338
 30
0.0
 10
9.230281
 20
52.162659
 30
0.0
 10
9.919308
 20
51.910511
 30
0.0
 10
10.574893
 20
51.594598
 30
0.0
 10
11.193251
 20
51.218890
 30
0.0
 10
11.770598
 20
50.787090
 30
0.0
 10
12.303178
 20
50.303167
 30
0.0
 10
12.787233
 20
49.770561
 30
0.0
 10
13.218980
 20
49.193240
 30
0.0
 10
13.594635
 20
48.574909
 30
0.0
 10
13.910469
 20
47.919271
 30
0.0
 10
14.162669
 20
47.230296
 30
0.0
 10
14.347481
 20
46.511423
 30
0.0
 10
14.461146
 20
45.766886
 30
0.0
 10
14.499881
 20
45.000123
 30
0.0
 10
14.463210
 20
44.258761
 30
0.0
 10
14.354519
 20
43.530098
 30
0.0
 10
14.175793
 20
42.818898
 30
0.0
 10
13.929095
 20
42.129923
 30
0.0
 10
13.616464
 20
41.468200
 30
0.0
 10
13.239961
 20
40.839021
 30
0.0
 10
12.801573
 20
40.246884
 30
0.0
 10
12.303363
 20
39.696551
 30
0.0
 10
11.753268
 20
39.198340
 30
0.0
 10
11.161104
 20
38.759926
 30
0.0
 10
10.531766
 20
38.383423
 30
0.0
 10
9.870228
 20
38.070686
 30
0.0
 10
9.181359
 20
37.824094
 30
0.0
 10
8.470106
 20
37.645236
 30
0.0
 10
7.741391
 20
37.536492
 30
0.0
 10
7.000081
 20
37.499715
 30
0.0
 10
6.258772
 20
37.536492
 30
0.0
 10
5.530003
 20
37.645236
 30
0.0
 10
4.818697
 20
37.823830
 30
0.0
 10
4.129802
 20
38.070686
 30
0.0
 10
3.468211
 20
38.383159
 30
0.0
 10
2.838847
 20
38.759926
 30
0.0
 10
2.246619
 20
39.198340
 30
0.0
 10
1.696471
 20
39.696551
 30
0.0
 10
1.198229
 20
40.246619
 30
0.0
 10
0.759815
 20
40.838757
 30
0.0
 10
0.383265
 20
41.468200
 30
0.0
 10
0.070615
 20
42.129659
 30
0.0
 10
-0.176097
 20
42.818634
 30
0.0
 10
-0.354833
 20
43.530098
 30
0.0
 10
-0.463555
 20
44.258761
 30
0.0
 10
-0.500229
 20
45.000123
 30
0.0
 10
-0.463508
 20
45.741486
 30
0.0
 10
-0.354743
 20
46.470148
 30
0.0
 10
-0.175974
 20
47.181348
 30
0.0
 10
0.070764
 20
47.870323
 30
0.0
 10
0.383432
 20
48.531782
 30
0.0
 10
0.759994
 20
49.160961
 30
0.0
 10
1.198414
 20
49.753363
 30
0.0
 10
1.696654
 20
50.303432
 30
0.0
 10
2.246794
 20
50.801642
 30
0.0
 10
2.839006
 20
51.240057
 30
0.0
 10
3.468343
 20
51.616559
 30
0.0
 10
4.129908
 20
51.929032
 30
0.0
 10
4.818803
 20
52.175888
 30
0.0
 10
5.530056
 20
52.354482
 30
0.0
 10
6.258798
 20
52.463225
 30
0.0
 10
7.000081
 20
52.499738
 30
0.0
  0
LWPOLYLINE
  5
103
100
AcDbEntity
  8
Layer_1
 62
7
100
AcDbPolyline
 90
5
 70
1
 10
15.000129
 20
38.000042
 30
0.0
 10
20.999741
 20
38.000042
 30
0.0
 10
20.999741
 20
35.000196
 30
0.0
 10
15.000129
 20
35.000196
 30
0.0
 10
15.000129
 20
38.000042
 30
0.0
  0
LWPOLYLINE
  5
104
100
AcDbEntity
  8
Layer_1
 62
7
100
AcDbPolyline
 90
5
 70
1
 10
28.999656
 20
38.000042
 30
0.0
 10
34.999877
 20
38.000042
 30
0.0
 10
34.999877
 20
35.000196
 30
0.0
 10
28.999656
 20
35.000196
 30
0.0
 10
28.999656
 20
38.000042
 30
0.0
  0
LWPOLYLINE
  5
105
100
AcDbEntity
  8
Layer_1
 62
7
100
AcDbPolyline
 90
17
 70
1
 10
41.970060
 20
37.701857
 30
0.0
 10
42.352647
 20
37.625657
 30
0.0
 10
42.677027
 20
37.408698
 30
0.0
 10
42.893720
 20
37.084319
 30
0.0
 10
42.969920
 20
36.701732
 30
0.0
 10
42.893720
 20
36.318880
 30
0.0
 10
42.677027
 20
35.994501
 30
0.0
 10
42.352647
 20
35.777542
 30
0.0
 10
41.969795
 20
35.701342
 30
0.0
 10
41.586943
 20
35.777542
 30
0.0
 10
41.262564
 20
35.994501
 30
0.0
 10
41.045870
 20
36.318880
 30
0.0
 10
40.969670
 20
36.701732
 30
0.0
 10
41.045870
 20
37.084319
 30
0.0
 10
41.262564
 20
37.408698
 30
0.0
 10
41.587208
 20
37.625657
 30
0.0
 10
41.970060
 20
37.701857
 30
0.0
  0
LWPOLYLINE
  5
106
100
AcDbEntity
  8
Layer_1
 62
7
100
AcDbPolyline
 90
65
 70
1
 10
60.000885
 20
34.584271
 30
0.0
 10
60.455703
 20
34.561782
 30
0.0
 10
60.902585
 20
34.495107
 30
0.0
 10
61.338883
 20
34.385305
 30
0.0
 10
61.761422
 20
34.234228
 30
0.0
 10
62.167293
 20
34.042405
 30
0.0
 10
62.553320
 20
33.811423
 30
0.0
 10
62.916593
 20
33.542607
 30
0.0
 10
63.253937
 20
33.237013
 30
0.0
 10
63.559530
 20
32.899669
 30
0.0
 10
63.828612
 20
32.536396
 30
0.0
 10
64.059593
 20
32.150369
 30
0.0
 10
64.251151
 20
31.744499
 30
0.0
 10
64.402493
 20
31.321959
 30
0.0
 10
64.512295
 20
30.885926
 30
0.0
 10
64.578970
 20
30.438780
 30
0.0
 10
64.601460
 20
29.984226
 30
0.0
 10
64.578970
 20
29.529407
 30
0.0
 10
64.512295
 20
29.082526
 30
0.0
 10
64.402493
 20
28.646228
 30
0.0
 10
64.251151
 20
28.223688
 30
0.0
 10
64.059593
 20
27.818082
 30
0.0
 10
63.828612
 20
27.432055
 30
0.0
 10
63.559530
 20
27.068782
 30
0.0
 10
63.253937
 20
26.731438
 30
0.0
 10
62.916593
 20
26.425844
 30
0.0
 10
62.553320
 20
26.157028
 30
0.0
 10
62.167293
 20
25.926047
 30
0.0
 10
61.761687
 20
25.734224
 30
0.0
 10
61.339147
 20
25.582882
 30
0.0
 10
60.902849
 20
25.473344
 30
0.0
 10
60.455968
 20
25.406669
 30
0.0
 10
60.001149
 20
25.383915
 30
0.0
 10
59.546595
 20
25.406669
 30
0.0
 10
59.099714
 20
25.473344
 30
0.0
 10
58.663416
 20
25.582882
 30
0.0
 10
58.240876
 20
25.734224
 30
0.0
 10
57.835006
 20
25.926047
 30
0.0
 10
57.448978
 20
26.157028
 30
0.0
 10
57.085970
 20
26.425844
 30
0.0
 10
56.748362
 20
26.731438
 30
0.0
 10
56.442768
 20
27.068782
 30
0.0
 10
56.173951
 20
27.432055
 30
0.0
 10
55.942970
 20
27.818082
 30
0.0
 10
55.751147
 20
28.223688
 30
0.0
 10
55.599806
 20
28.646228
 30
0.0
 10
55.490268
 20
29.082526
 30
0.0
 10
55.423593
 20
29.529407
 30
0.0
 10
55.401103
 20
29.984226
 30
0.0
 10
55.423593
 20
30.438780
 30
0.0
 10
55.490268
 20
30.885926
 30
0.0
 10
55.599806
 20
31.321959
 30
0.0
 10
55.751147
 20
31.744499
 30
0.0
 10
55.942970
 20
32.150369
 30
0.0
 10
56.173951
 20
32.536396
 30
0.0
 10
56.442768
 20
32.899669
 30
0.0
 10
56.748362
 20
33.237013
 30
0.0
 10
57.085970
 20
33.542607
 30
0.0
 10
57.448978
 20
33.811423
 30
0.0
 10
57.835006
 20
34.042405
 30
0.0
 10
58.240876
 20
34.233963
 30
0.0
 10
58.663151
 20
34.385305
 30
0.0
 10
59.099449
 20
34.494842
 30
0.0
 10
59.546330
 20
34.561782
 30
0.0
 10
60.000885
 20
34.584271
 30
0.0
  0
LWPOLYLINE
  5
107
100
AcDbEntity
  8
Layer_1
 62
7
100
AcDbPolyline
 90
65
 70
1
 10
22.499928
 20
28.999976
 30
0.0
 10
23.241211
 20
28.963463
 30
0.0
 10
23.969953
 20
28.854719
 30
0.0
 10
24.681206
 20
28.675861
 30
0.0
 10
25.370102
 20
28.429269
 30
0.0
 10
26.031666
 20
28.116532
 30
0.0
 10
26.661004
 20
27.740030
 30
0.0
 10
27.253141
 20
27.301615
 30
0.0
 10
27.803475
 20
26.803405
 30
0.0
 10
28.301685
 20
26.253336
 30
0.0
 10
28.740100
 20
25.661199
 30
0.0
 10
29.116602
 20
25.032019
 30
0.0
 10
29.429339
 20
24.370297
 30
0.0
 10
29.675931
 20
23.681586
 30
0.0
 10
29.854789
 20
22.970122
 30
0.0
 10
29.963533
 20
22.241459
 30
0.0
 10
30.000310
 20
21.500097
 30
0.0
 10
29.963533
 20
20.758999
 30
0.0
 10
29.854789
 20
20.030072
 30
0.0
 10
29.676195
 20
19.318872
 30
0.0
 10
29.429339
 20
18.629897
 30
0.0
 10
29.116866
 20
17.968438
 30
0.0
 10
28.740100
 20
17.338995
 30
0.0
 10
28.301685
 20
16.746857
 30
0.0
 10
27.803475
 20
16.196524
 30
0.0
 10
27.253406
 20
15.698313
 30
0.0
 10
26.661268
 20
15.259899
 30
0.0
 10
26.031798
 20
14.883397
 30
0.0
 10
25.370208
 20
14.570659
 30
0.0
 10
24.681312
 20
14.324067
 30
0.0
 10
23.970006
 20
14.145209
 30
0.0
 10
23.241238
 20
14.036465
 30
0.0
 10
22.499928
 20
13.999953
 30
0.0
 10
21.758619
 20
14.036730
 30
0.0
 10
21.029903
 20
14.145474
 30
0.0
 10
20.318650
 20
14.324067
 30
0.0
 10
19.629781
 20
14.570924
 30
0.0
 10
18.968244
 20
14.883661
 30
0.0
 10
18.338906
 20
15.260163
 30
0.0
 10
17.746742
 20
15.698578
 30
0.0
 10
17.196646
 20
16.196788
 30
0.0
 10
16.698436
 20
16.746857
 30
0.0
 10
16.260048
 20
17.338995
 30
0.0
 10
15.883546
 20
17.968438
 30
0.0
 10
15.570914
 20
18.630161
 30
0.0
 10
15.324217
 20
19.318872
 30
0.0
 10
15.145491
 20
20.030072
 30
0.0
 10
15.036800
 20
20.758999
 30
0.0
 10
15.000129
 20
21.500097
 30
0.0
 10
15.038864
 20
22.267124
 30
0.0
 10
15.152529
 20
23.011661
 30
0.0
 10
15.337340
 20
23.730269
 30
0.0
 10
15.589541
 20
24.419509
 30
0.0
 10
15.905374
 20
25.075147
 30
0.0
 10
16.281029
 20
25.693478
 30
0.0
 10
16.712776
 20
26.270799
 30
0.0
 10
17.196805
 20
26.803405
 30
0.0
 10
17.729411
 20
27.287328
 30
0.0
 10
18.306759
 20
27.719128
 30
0.0
 10
18.925116
 20
28.094836
 30
0.0
 10
19.580701
 20
28.410484
 30
0.0
 10
20.269729
 20
28.662896
 30
0.0
 10
20.988470
 20
28.847576
 30
0.0
 10
21.733113
 20
28.961346
 30
0.0
 10
22.499928
 20
28.999976
 30
0.0
  0
LWPOLYLINE
  5
108
100
AcDbEntity
  8
Layer_1
 62
7
100
AcDbPolyline
 90
5
 70
1
 10
-48.000179
 20
17.000328
 30
0.0
 10
-41.999958
 20
17.000328
 30
0.0
 10
-41.999958
 20
13.999953
 30
0.0
 10
-48.000179
 20
13.999953
 30
0.0
 10
-48.000179
 20
17.000328
 30
0.0
  0
LWPOLYLINE
  5
109
100
AcDbEntity
  8
Layer_1
 62
7
100
AcDbPolyline
 90
5
 70
1
 10
-24.000089
 20
17.000328
 30
0.0
 10
-17.999921
 20
17.000328
 30
0.0
 10
-17.999921
 20
13.999953
 30
0.0
 10
-24.000089
 20
13.999953
 30
0.0
 10
-24.000089
 20
17.000328
 30
0.0
  0
LWPOLYLINE
  5
10a
100
AcDbEntity
  8
Layer_1
 62
7
100
AcDbPolyline
 90
5
 70
1
 10
9.999900
 20
17.000328
 30
0.0
 10
16.000068
 20
17.000328
 30
0.0
 10
16.000068
 20
13.999953
 30
0.0
 10
9.999900
 20
13.999953
 30
0.0
 10
9.999900
 20
17.000328
 30
0.0
  0
LWPOLYLINE
  5
10b
100
AcDbEntity
  8
Layer_1
 62
7
100
AcDbPolyline
 90
5
 70
1
 10
28.999656
 20
17.000328
 30
0.0
 10
34.999877
 20
17.000328
 30
0.0
 10
34.999877
 20
13.999953
 30
0.0
 10
28.999656
 20
13.999953
 30
0.0
 10
28.999656
 20
17.000328
 30
0.0
  0
LWPOLYLINE
  5
10c
100
AcDbEntity
  8
Layer_1
 62
7
100
AcDbPolyline
 90
5
 70
1
 10
74.000253
 20
17.000328
 30
0.0
 10
79.999680
 20
17.000328
 30
0.0
 10
79.999680
 20
13.999953
 30
0.0
 10
74.000253
 20
13.999953
 30
0.0
 10
74.000253
 20
17.000328
 30
0.0
  0
LWPOLYLINE
  5
10d
100
AcDbEntity
  8
Layer_1
 62
7
100
AcDbPolyline
 90
21
 70
1
 10
66.718391
 20
12.952997
 30
0.0
 10
67.101243
 20
12.876797
 30
0.0
 10
67.425887
 20
12.659838
 30
0.0
 10
67.553945
 20
12.503205
 30
0.0
 10
67.645491
 20
12.329109
 30
0.0
 10
67.718516
 20
11.952872
 30
0.0
 10
67.645491
 20
11.576899
 30
0.0
 10
67.553945
 20
11.402803
 30
0.0
 10
67.425887
 20
11.246170
 30
0.0
 10
67.101507
 20
11.029211
 30
0.0
 10
66.718655
 20
10.953011
 30
0.0
 10
66.335803
 20
11.029211
 30
0.0
 10
66.011424
 20
11.246170
 30
0.0
 10
65.883366
 20
11.402803
 30
0.0
 10
65.791820
 20
11.576899
 30
0.0
 10
65.718795
 20
11.952872
 30
0.0
 10
65.791820
 20
12.329109
 30
0.0
 10
65.883366
 20
12.503205
 30
0.0
 10
66.011424
 20
12.659838
 30
0.0
 10
66.335803
 20
12.876797
 30
0.0
 10
66.718391
 20
12.952997
 30
0.0
  0
LWPOLYLINE
  5
10e
100
AcDbEntity
  8
Layer_1
 62
3
100
AcDbPolyline
 90
2
 70
0
 10
8.245600
 20
106.975000
 30
0.0
 10
6.337510
 20
101.962400
 30
0.0
  0
LWPOLYLINE
  5
10f
100
AcDbEntity
  8
Layer_1
 62
3
100
AcDbPolyline
 90
2
 70
0
 10
8.245600
 20
106.975000
 30
0.0
 10
10.153700
 20
101.962400
 30
0.0
  0
LWPOLYLINE
  5
110
100
AcDbEntity
  8
Layer_1
 62
3
100
AcDbPolyline
 90
2
 70
0
 10
7.049260
 20
103.628200
 30
0.0
 10
9.441950
 20
103.628200
 30
0.0
  0
LWPOLYLINE
  5
111
100
AcDbEntity
  8
Layer_1
 62
3
100
AcDbPolyline
 90
2
 70
0
 10
26.910700
 20
103.393100
 30
0.0
 10
26.910700
 20
98.380500
 30
0.0
  0
LWPOLYLINE
  5
112
100
AcDbEntity
  8
Layer_1
 62
3
100
AcDbPolyline
 90
9
 70
0
 10
26.910700
 20
103.393100
 30
0.0
 10
29.061100
 20
103.393100
 30
0.0
 10
29.772900
 20
103.150800
 30
0.0
 10
30.015200
 20
102.908500
 30
0.0
 10
30.257500
 20
102.439000
 30
0.0
 10
30.257500
 20
101.954400
 30
0.0
 10
30.015200
 20
101.485000
 30
0.0
 10
29.772900
 20
101.242700
 30
0.0
 10
29.061100
 20
101.000400
 30
0.0
  0
LWPOLYLINE
  5
113
100
AcDbEntity
  8
Layer_1
 62
3
100
AcDbPolyline
 90
10
 70
0
 10
26.910700
 20
101.000400
 30
0.0
 10
29.061100
 20
101.000400
 30
0.0
 10
29.772900
 20
100.765600
 30
0.0
 10
30.015200
 20
100.530900
 30
0.0
 10
30.257500
 20
100.046300
 30
0.0
 10
30.257500
 20
99.334600
 30
0.0
 10
30.015200
 20
98.857500
 30
0.0
 10
29.772900
 20
98.619000
 30
0.0
 10
29.061100
 20
98.380500
 30
0.0
 10
26.910700
 20
98.380500
 30
0.0
  0
LWPOLYLINE
  5
114
100
AcDbEntity
  8
Layer_1
 62
3
100
AcDbPolyline
 90
18
 70
0
 10
52.986000
 20
88.536790
 30
0.0
 10
52.743700
 20
89.013820
 30
0.0
 10
52.266700
 20
89.490840
 30
0.0
 10
51.789600
 20
89.733140
 30
0.0
 10
50.835600
 20
89.733140
 30
0.0
 10
50.358600
 20
89.490840
 30
0.0
 10
49.881500
 20
89.013820
 30
0.0
 10
49.639200
 20
88.536790
 30
0.0
 10
49.404500
 20
87.825040
 30
0.0
 10
49.404500
 20
86.628690
 30
0.0
 10
49.639200
 20
85.916940
 30
0.0
 10
49.881500
 20
85.436130
 30
0.0
 10
50.358600
 20
84.959110
 30
0.0
 10
50.835600
 20
84.720590
 30
0.0
 10
51.789600
 20
84.720590
 30
0.0
 10
52.266700
 20
84.959110
 30
0.0
 10
52.743700
 20
85.436130
 30
0.0
 10
52.986000
 20
85.916940
 30
0.0
  0
LWPOLYLINE
  5
115
100
AcDbEntity
  8
Layer_1
 62
3
100
AcDbPolyline
 90
2
 70
0
 10
61.196100
 20
72.663920
 30
0.0
 10
61.196100
 20
67.651400
 30
0.0
  0
LWPOLYLINE
  5
116
100
AcDbEntity
  8
Layer_1
 62
3
100
AcDbPolyline
 90
12
 70
0
 10
61.196100
 20
72.663920
 30
0.0
 10
62.869400
 20
72.663920
 30
0.0
 10
63.588800
 20
72.421630
 30
0.0
 10
64.058200
 20
71.944600
 30
0.0
 10
64.300500
 20
71.467580
 30
0.0
 10
64.542800
 20
70.755820
 30
0.0
 10
64.542800
 20
69.559500
 30
0.0
 10
64.300500
 20
68.847700
 30
0.0
 10
64.058200
 20
68.366900
 30
0.0
 10
63.588800
 20
67.889900
 30
0.0
 10
62.869400
 20
67.651400
 30
0.0
 10
61.196100
 20
67.651400
 30
0.0
  0
LWPOLYLINE
  5
117
100
AcDbEntity
  8
Layer_1
 62
3
100
AcDbPolyline
 90
2
 70
0
 10
66.619700
 20
47.465900
 30
0.0
 10
66.619700
 20
42.453300
 30
0.0
  0
LWPOLYLINE
  5
118
100
AcDbEntity
  8
Layer_1
 62
3
100
AcDbPolyline
 90
2
 70
0
 10
66.619700
 20
47.465900
 30
0.0
 10
69.724100
 20
47.465900
 30
0.0
  0
LWPOLYLINE
  5
119
100
AcDbEntity
  8
Layer_1
 62
3
100
AcDbPolyline
 90
2
 70
0
 10
66.619700
 20
45.073200
 30
0.0
 10
68.527800
 20
45.073200
 30
0.0
  0
LWPOLYLINE
  5
11a
100
AcDbEntity
  8
Layer_1
 62
3
100
AcDbPolyline
 90
2
 70
0
 10
66.619700
 20
42.453300
 30
0.0
 10
69.724100
 20
42.453300
 30
0.0
  0
LWPOLYLINE
  5
11b
100
AcDbEntity
  8
Layer_1
 62
6
100
AcDbPolyline
 90
16
 70
1
 10
8.299720
 20
106.947200
 30
0.0
 10
8.857240
 20
106.757400
 30
0.0
 10
9.236820
 20
106.199900
 30
0.0
 10
9.420690
 20
105.262800
 30
0.0
 10
9.420690
 20
104.705300
 30
0.0
 10
9.236820
 20
103.768200
 30
0.0
 10
8.857240
 20
103.207700
 30
0.0
 10
8.299720
 20
103.020900
 30
0.0
 10
7.926060
 20
103.020900
 30
0.0
 10
7.362610
 20
103.207700
 30
0.0
 10
6.994890
 20
103.768200
 30
0.0
 10
6.805090
 20
104.705300
 30
0.0
 10
6.805090
 20
105.262800
 30
0.0
 10
6.994890
 20
106.199900
 30
0.0
 10
7.362610
 20
106.757400
 30
0.0
 10
7.926060
 20
106.947200
 30
0.0
  0
LWPOLYLINE
  5
11c
100
AcDbEntity
  8
Layer_1
 62
6
100
AcDbPolyline
 90
4
 70
0
 10
21.600800
 20
104.501600
 30
0.0
 10
21.270500
 20
104.746500
 30
0.0
 10
20.813500
 20
105.399300
 30
0.0
 10
20.131700
 20
101.532600
 30
0.0
  0
LWPOLYLINE
  5
11d
100
AcDbEntity
  8
Layer_1
 62
6
100
AcDbPolyline
 90
16
 70
1
 10
17.501700
 20
105.983200
 30
0.0
 10
18.017800
 20
105.699500
 30
0.0
 10
18.294800
 20
105.084500
 30
0.0
 10
18.313100
 20
104.129700
 30
0.0
 10
18.216300
 20
103.580700
 30
0.0
 10
17.872500
 20
102.689800
 30
0.0
 10
17.401400
 20
102.203700
 30
0.0
 10
16.819900
 20
102.116500
 30
0.0
 10
16.451900
 20
102.181400
 30
0.0
 10
15.929400
 20
102.463200
 30
0.0
 10
15.664600
 20
103.079100
 30
0.0
 10
15.640500
 20
104.034900
 30
0.0
 10
15.737300
 20
104.583900
 30
0.0
 10
16.086900
 20
105.473900
 30
0.0
 10
16.545900
 20
105.959100
 30
0.0
 10
17.133700
 20
106.048100
 30
0.0
  0
LWPOLYLINE
  5
11e
100
AcDbEntity
  8
Layer_1
 62
6
100
AcDbPolyline
 90
14
 70
0
 10
31.683700
 20
101.026400
 30
0.0
 10
31.748600
 20
101.204800
 30
0.0
 10
31.696100
 20
101.615300
 30
0.0
 10
31.582600
 20
101.858500
 30
0.0
 10
31.302000
 20
102.162600
 30
0.0
 10
30.599700
 20
102.418200
 30
0.0
 10
30.178100
 20
102.369700
 30
0.0
 10
29.940400
 20
102.254200
 30
0.0
 10
29.641900
 20
101.971600
 30
0.0
 10
29.512100
 20
101.614900
 30
0.0
 10
29.559100
 20
101.206500
 30
0.0
 10
29.717500
 20
100.549200
 30
0.0
 10
30.834100
 20
98.154600
 30
0.0
 10
28.376200
 20
99.049200
 30
0.0
  0
LWPOLYLINE
  5
11f
100
AcDbEntity
  8
Layer_1
 62
6
100
AcDbPolyline
 90
16
 70
1
 10
27.612400
 20
103.505500
 30
0.0
 10
28.071400
 20
103.136500
 30
0.0
 10
28.237400
 20
102.482800
 30
0.0
 10
28.089700
 20
101.539300
 30
0.0
 10
27.899000
 20
101.015400
 30
0.0
 10
27.405700
 20
100.197700
 30
0.0
 10
26.857300
 20
99.800800
 30
0.0
 10
26.269500
 20
99.816000
 30
0.0
 10
25.918400
 20
99.943800
 30
0.0
 10
25.452800
 20
100.312000
 30
0.0
 10
25.299000
 20
100.964500
 30
0.0
 10
25.441100
 20
101.910000
 30
0.0
 10
25.631800
 20
102.433900
 30
0.0
 10
26.130700
 20
103.249600
 30
0.0
 10
26.666900
 20
103.647700
 30
0.0
 10
27.261300
 20
103.633300
 30
0.0
  0
LWPOLYLINE
  5
120
100
AcDbEntity
  8
Layer_1
 62
6
100
AcDbPolyline
 90
15
 70
0
 10
41.772200
 20
96.945800
 30
0.0
 10
39.995000
 20
97.971800
 30
0.0
 10
40.213300
 20
96.119900
 30
0.0
 10
39.730500
 20
96.398700
 30
0.0
 10
39.312000
 20
96.421200
 30
0.0
 10
39.057900
 20
96.348700
 30
0.0
 10
38.614700
 20
95.960800
 30
0.0
 10
38.427900
 20
95.637200
 30
0.0
 10
38.312000
 20
95.056900
 30
0.0
 10
38.443700
 20
94.549500
 30
0.0
 10
38.838200
 20
94.105900
 30
0.0
 10
39.326200
 20
93.824200
 30
0.0
 10
39.902400
 20
93.707200
 30
0.0
 10
40.160200
 20
93.774100
 30
0.0
 10
40.506200
 20
94.005800
 30
0.0
  0
LWPOLYLINE
  5
121
100
AcDbEntity
  8
Layer_1
 62
6
100
AcDbPolyline
 90
16
 70
1
 10
37.888900
 20
99.187800
 30
0.0
 10
38.276800
 20
98.744600
 30
0.0
 10
38.326800
 20
98.072000
 30
0.0
 10
38.017500
 20
97.168500
 30
0.0
 10
37.738700
 20
96.685700
 30
0.0
 10
37.111000
 20
95.966100
 30
0.0
 10
36.502000
 20
95.670500
 30
0.0
 10
35.925700
 20
95.787400
 30
0.0
 10
35.602100
 20
95.974300
 30
0.0
 10
35.207600
 20
96.417800
 30
0.0
 10
35.169400
 20
97.087100
 30
0.0
 10
35.473600
 20
97.993500
 30
0.0
 10
35.752300
 20
98.476300
 30
0.0
 10
36.385200
 20
99.193000
 30
0.0
 10
36.982500
 20
99.492000
 30
0.0
 10
37.565300
 20
99.374600
 30
0.0
  0
LWPOLYLINE
  5
122
100
AcDbEntity
  8
Layer_1
 62
6
100
AcDbPolyline
 90
3
 70
0
 10
49.251200
 20
91.159600
 30
0.0
 10
48.997300
 20
87.950460
 30
0.0
 10
46.848200
 20
89.753730
 30
0.0
  0
LWPOLYLINE
  5
123
100
AcDbEntity
  8
Layer_1
 62
6
100
AcDbPolyline
 90
2
 70
0
 10
49.251200
 20
91.159600
 30
0.0
 10
46.727400
 20
88.151810
 30
0.0
  0
LWPOLYLINE
  5
124
100
AcDbEntity
  8
Layer_1
 62
6
100
AcDbPolyline
 90
16
 70
1
 10
46.961500
 20
93.080900
 30
0.0
 10
47.266600
 20
92.577100
 30
0.0
 10
47.199000
 20
91.906000
 30
0.0
 10
46.737500
 20
91.070000
 30
0.0
 10
46.379100
 20
90.642900
 30
0.0
 10
45.635900
 20
90.043200
 30
0.0
 10
44.984800
 20
89.857840
 30
0.0
 10
44.437700
 20
90.073100
 30
0.0
 10
44.151400
 20
90.313300
 30
0.0
 10
43.839900
 20
90.818600
 30
0.0
 10
43.918500
 20
91.484300
 30
0.0
 10
44.375400
 20
92.324200
 30
0.0
 10
44.733800
 20
92.751200
 30
0.0
 10
45.481600
 20
93.347100
 30
0.0
 10
46.121600
 20
93.537800
 30
0.0
 10
46.675200
 20
93.321000
 30
0.0
  0
LWPOLYLINE
  5
125
100
AcDbEntity
  8
Layer_1
 62
6
100
AcDbPolyline
 90
17
 70
0
 10
56.131800
 20
83.741080
 30
0.0
 10
57.332700
 20
82.309890
 30
0.0
 10
56.164300
 20
81.081780
 30
0.0
 10
56.187700
 20
81.349170
 30
0.0
 10
55.970200
 20
81.894430
 30
0.0
 10
55.608000
 20
82.326060
 30
0.0
 10
55.105000
 20
82.639510
 30
0.0
 10
54.577800
 20
82.677210
 30
0.0
 10
54.028800
 20
82.464230
 30
0.0
 10
53.742500
 20
82.224050
 30
0.0
 10
53.435200
 20
81.718390
 30
0.0
 10
53.385300
 20
81.196510
 30
0.0
 10
53.604300
 20
80.644791
 30
0.0
 10
53.966500
 20
80.213164
 30
0.0
 10
54.468000
 20
79.906170
 30
0.0
 10
54.733100
 20
79.880871
 30
0.0
 10
55.137500
 20
79.980205
 30
0.0
  0
LWPOLYLINE
  5
126
100
AcDbEntity
  8
Layer_1
 62
6
100
AcDbPolyline
 90
16
 70
1
 10
54.450300
 20
85.744960
 30
0.0
 10
54.663300
 20
85.195880
 30
0.0
 10
54.480200
 20
84.546740
 30
0.0
 10
53.880500
 20
83.803530
 30
0.0
 10
53.453400
 20
83.445160
 30
0.0
 10
52.617400
 20
82.983650
 30
0.0
 10
51.944000
 20
82.914160
 30
0.0
 10
51.442500
 20
83.221150
 30
0.0
 10
51.202300
 20
83.507390
 30
0.0
 10
50.983300
 20
84.059110
 30
0.0
 10
51.176300
 20
84.701070
 30
0.0
 10
51.772100
 20
85.448820
 30
0.0
 10
52.199200
 20
85.807190
 30
0.0
 10
53.039100
 20
86.264160
 30
0.0
 10
53.702500
 20
86.340830
 30
0.0
 10
54.210100
 20
86.031200
 30
0.0
  0
LWPOLYLINE
  5
127
100
AcDbEntity
  8
Layer_1
 62
6
100
AcDbPolyline
 90
23
 70
0
 10
61.391600
 20
74.674930
 30
0.0
 10
61.807200
 20
74.702530
 30
0.0
 10
62.253200
 20
74.309460
 30
0.0
 10
62.437100
 20
73.991000
 30
0.0
 10
62.554500
 20
73.408140
 30
0.0
 10
62.258500
 20
72.805790
 30
0.0
 10
61.541800
 20
72.172870
 30
0.0
 10
60.730300
 20
71.704320
 30
0.0
 10
59.990700
 20
71.496510
 30
0.0
 10
59.480300
 20
71.633280
 30
0.0
 10
59.036800
 20
72.027820
 30
0.0
 10
58.944900
 20
72.187050
 30
0.0
 10
58.824900
 20
72.768430
 30
0.0
 10
58.964700
 20
73.273720
 30
0.0
 10
59.355200
 20
73.718330
 30
0.0
 10
59.514400
 20
73.810260
 30
0.0
 10
60.097200
 20
73.927620
 30
0.0
 10
60.604700
 20
73.795990
 30
0.0
 10
61.050800
 20
73.402920
 30
0.0
 10
61.142700
 20
73.243690
 30
0.0
 10
61.260100
 20
72.660830
 30
0.0
 10
61.123300
 20
72.150410
 30
0.0
 10
60.730300
 20
71.704320
 30
0.0
  0
LWPOLYLINE
  5
128
100
AcDbEntity
  8
Layer_1
 62
6
100
AcDbPolyline
 90
16
 70
1
 10
60.663900
 20
77.062360
 30
0.0
 10
60.778300
 20
76.484640
 30
0.0
 10
60.485200
 20
75.877150
 30
0.0
 10
59.765600
 20
75.249370
 30
0.0
 10
59.282800
 20
74.970610
 30
0.0
 10
58.379300
 20
74.661280
 30
0.0
 10
57.704100
 20
74.709770
 30
0.0
 10
57.263500
 20
75.099180
 30
0.0
 10
57.076700
 20
75.422780
 30
0.0
 10
56.956800
 20
76.004160
 30
0.0
 10
57.258300
 20
76.602860
 30
0.0
 10
57.975000
 20
77.235780
 30
0.0
 10
58.457800
 20
77.514540
 30
0.0
 10
59.364300
 20
77.818720
 30
0.0
 10
60.030900
 20
77.779020
 30
0.0
 10
60.477000
 20
77.385960
 30
0.0
  0
LWPOLYLINE
  5
129
100
AcDbEntity
  8
Layer_1
 62
6
100
AcDbPolyline
 90
2
 70
0
 10
66.200600
 20
65.466000
 30
0.0
 10
63.150100
 20
62.367500
 30
0.0
  0
LWPOLYLINE
  5
12a
100
AcDbEntity
  8
Layer_1
 62
6
100
AcDbPolyline
 90
2
 70
0
 10
67.095200
 20
63.008200
 30
0.0
 10
66.200600
 20
65.466000
 30
0.0
  0
LWPOLYLINE
  5
12b
100
AcDbEntity
  8
Layer_1
 62
6
100
AcDbPolyline
 90
16
 70
1
 10
65.433800
 20
67.573000
 30
0.0
 10
65.446100
 20
66.984200
 30
0.0
 10
65.052000
 20
66.436800
 30
0.0
 10
64.234300
 20
65.943600
 30
0.0
 10
63.710400
 20
65.752900
 30
0.0
 10
62.766900
 20
65.605100
 30
0.0
 10
62.110400
 20
65.770100
 30
0.0
 10
61.744200
 20
66.230100
 30
0.0
 10
61.616400
 20
66.581300
 30
0.0
 10
61.599200
 20
67.174600
 30
0.0
 10
62.000100
 20
67.711900
 30
0.0
 10
62.815800
 20
68.210700
 30
0.0
 10
63.339700
 20
68.401400
 30
0.0
 10
64.285200
 20
68.543600
 30
0.0
 10
64.934900
 20
68.388700
 30
0.0
 10
65.306000
 20
67.924100
 30
0.0
  0
LWPOLYLINE
  5
12c
100
AcDbEntity
  8
Layer_1
 62
6
100
AcDbPolyline
 90
28
 70
1
 10
69.614300
 20
53.382600
 30
0.0
 10
69.524200
 20
52.800600
 30
0.0
 10
69.189200
 20
52.548800
 30
0.0
 10
68.821200
 20
52.483900
 30
0.0
 10
68.420300
 20
52.606000
 30
0.0
 10
68.174300
 20
52.942000
 30
0.0
 10
67.857600
 20
53.645000
 30
0.0
 10
67.572900
 20
54.166900
 30
0.0
 10
67.146900
 20
54.465200
 30
0.0
 10
66.740100
 20
54.586200
 30
0.0
 10
66.191000
 20
54.489400
 30
0.0
 10
65.856000
 20
54.237600
 30
0.0
 10
65.704000
 20
54.024100
 30
0.0
 10
65.617800
 20
53.436800
 30
0.0
 10
65.747600
 20
52.700800
 30
0.0
 10
66.028400
 20
52.184200
 30
0.0
 10
66.245300
 20
52.029700
 30
0.0
 10
66.645200
 20
51.913600
 30
0.0
 10
67.194300
 20
52.010400
 30
0.0
 10
67.536200
 20
52.257300
 30
0.0
 10
67.832400
 20
52.695000
 30
0.0
 10
67.922500
 20
53.277000
 30
0.0
 10
67.979600
 20
54.045900
 30
0.0
 10
68.095800
 20
54.445900
 30
0.0
 10
68.431900
 20
54.691800
 30
0.0
 10
68.799900
 20
54.756700
 30
0.0
 10
69.199800
 20
54.640500
 30
0.0
 10
69.484500
 20
54.118600
 30
0.0
  0
LWPOLYLINE
  5
12d
100
AcDbEntity
  8
Layer_1
 62
6
100
AcDbPolyline
 90
16
 70
1
 10
68.932400
 20
57.249600
 30
0.0
 10
68.842300
 20
56.667600
 30
0.0
 10
68.359200
 20
56.197000
 30
0.0
 10
67.468300
 20
55.853200
 30
0.0
 10
66.919200
 20
55.756400
 30
0.0
 10
65.964400
 20
55.774700
 30
0.0
 10
65.346500
 20
56.051200
 30
0.0
 10
65.065700
 20
56.567800
 30
0.0
 10
65.000800
 20
56.935800
 30
0.0
 10
65.087000
 20
57.523100
 30
0.0
 10
65.575100
 20
57.982600
 30
0.0
 10
66.465000
 20
58.332200
 30
0.0
 10
67.014100
 20
58.429000
 30
0.0
 10
67.969900
 20
58.404800
 30
0.0
 10
68.582800
 20
58.139500
 30
0.0
 10
68.867600
 20
57.617600
 30
0.0
  0
LWPOLYLINE
  5
12e
100
AcDbEntity
  8
Layer_1
 62
6
100
AcDbPolyline
 90
23
 70
0
 10
68.735200
 20
44.126400
 30
0.0
 10
68.171800
 20
43.942500
 30
0.0
 10
67.804000
 20
43.568800
 30
0.0
 10
67.614200
 20
43.011300
 30
0.0
 10
67.614200
 20
42.821500
 30
0.0
 10
67.804000
 20
42.264000
 30
0.0
 10
68.171800
 20
41.884400
 30
0.0
 10
68.735200
 20
41.700600
 30
0.0
 10
68.919100
 20
41.700600
 30
0.0
 10
69.482500
 20
41.884400
 30
0.0
 10
69.856200
 20
42.264000
 30
0.0
 10
70.046000
 20
42.821500
 30
0.0
 10
70.046000
 20
43.011300
 30
0.0
 10
69.856200
 20
43.568800
 30
0.0
 10
69.482500
 20
43.942500
 30
0.0
 10
68.735200
 20
44.126400
 30
0.0
 10
67.804000
 20
44.126400
 30
0.0
 10
66.866900
 20
43.942500
 30
0.0
 10
66.306400
 20
43.568800
 30
0.0
 10
66.119600
 20
43.011300
 30
0.0
 10
66.119600
 20
42.631700
 30
0.0
 10
66.306400
 20
42.074200
 30
0.0
 10
66.680100
 20
41.884400
 30
0.0
  0
LWPOLYLINE
  5
12f
100
AcDbEntity
  8
Layer_1
 62
6
100
AcDbPolyline
 90
16
 70
1
 10
70.046000
 20
46.557800
 30
0.0
 10
69.856200
 20
46.000300
 30
0.0
 10
69.298700
 20
45.620700
 30
0.0
 10
68.361500
 20
45.436900
 30
0.0
 10
67.804000
 20
45.436900
 30
0.0
 10
66.866900
 20
45.620700
 30
0.0
 10
66.306400
 20
46.000300
 30
0.0
 10
66.119600
 20
46.557800
 30
0.0
 10
66.119600
 20
46.931500
 30
0.0
 10
66.306400
 20
47.494900
 30
0.0
 10
66.866900
 20
47.862700
 30
0.0
 10
67.804000
 20
48.052400
 30
0.0
 10
68.361500
 20
48.052400
 30
0.0
 10
69.298700
 20
47.862700
 30
0.0
 10
69.856200
 20
47.494900
 30
0.0
 10
70.046000
 20
46.931500
 30
0.0
  0
ENDSEC
  0
SECTION
  2
OBJECTS
  0
DICTIONARY
  5
C
330
0
100
AcDbDictionary
  3
ACAD_GROUP
350
D
  3
ACAD_MLINESTYLE
350
17
  0
DICTIONARY
  5
D
330
C
100
AcDbDictionary
  0
DICTIONARY
  5
1A
330
C
100
AcDbDictionary
  0
DICTIONARY
  5
17
330
C
100
AcDbDictionary
  3
STANDARD
350
18
  0
DICTIONARY
  5
19
330
C
100
AcDbDictionary
  0
ENDSEC
  0
EOF
