  0
SECTION
  2
HEADER
  9
$ACADVER
  1
AC1014
  9
$HANDSEED
  5
FFFF
  9
$MEASUREMENT
 70
     1
  0
ENDSEC
  0
SECTION
  2
TABLES
  0
TABLE
  2
VPORT
  5
8
330
0
100
AcDbSymbolTable
 70
     4
  0
VPORT
  5
2E
330
8
100
AcDbSymbolTableRecord
100
AcDbViewportTableRecord
  2
*ACTIVE
 70
     0
 10
0.0
 20
0.0
 11
1.0
 21
1.0
 12
210.0
 22
148.5
 13
0.0
 23
0.0
 14
10.0
 24
10.0
 15
10.0
 25
10.0
 16
0.0
 26
0.0
 36
1.0
 17
0.0
 27
0.0
 37
0.0
 40
341.0
 41
1.24
 42
50.0
 43
0.0
 44
0.0
 50
0.0
 51
0.0
 71
     0
 72
   100
 73
     1
 74
     3
 75
     0
 76
     0
 77
     0
 78
     0
  0
ENDTAB
  0
TABLE
  2
LTYPE
  5
5
330
0
100
AcDbSymbolTable
 70
     1
  0
LTYPE
  5
14
330
5
100
AcDbSymbolTableRecord
100
AcDbLinetypeTableRecord
  2
BYBLOCK
 70
     0
  3

 72
    65
 73
     0
 40
0.0
  0
LTYPE
  5
15
330
5
100
AcDbSymbolTableRecord
100
AcDbLinetypeTableRecord
  2
BYLAYER
 70
     0
  3

 72
    65
 73
     0
 40
0.0
  0
LTYPE
  5
16
330
5
100
AcDbSymbolTableRecord
100
AcDbLinetypeTableRecord
  2
CONTINUOUS
 70
     0
  3
Solid line
 72
    65
 73
     0
 40
0.0
  0
ENDTAB
  0
TABLE
  2
LAYER
  5
2
100
AcDbSymbolTable
 70
2
  0
LAYER
  5
50
100
AcDbSymbolTableRecord
100
AcDbLayerTableRecord
  2
0
 70
0
  6
CONTINUOUS
  0
LAYER
  5
51
100
AcDbSymbolTableRecord
100
AcDbLayerTableRecord
  2
Layer_1
 70
0
  6
CONTINUOUS
  0
ENDTAB
  0
TABLE
  2
STYLE
  5
3
330
0
100
AcDbSymbolTable
 70
     1
  0
STYLE
  5
11
330
3
100
AcDbSymbolTableRecord
100
AcDbTextStyleTableRecord
  2
STANDARD
 70
     0
 40
0.0
 41
1.0
 50
0.0
 71
     0
 42
2.5
  3
txt
  4

  0
ENDTAB
  0
TABLE
  2
VIEW
  5
6
330
0
100
AcDbSymbolTable
 70
     0
  0
ENDTAB
  0
TABLE
  2
UCS
  5
7
330
0
100
AcDbSymbolTable
 70
     0
  0
ENDTAB
  0
TABLE
  2
APPID
  5
9
330
0
100
AcDbSymbolTable
 70
     2
  0
APPID
  5
12
330
9
100
AcDbSymbolTableRecord
100
AcDbRegAppTableRecord
  2
ACAD
 70
     0
  0
ENDTAB
  0
TABLE
  2
DIMSTYLE
  5
A
330
0
100
AcDbSymbolTable
 70
     1
  0
DIMSTYLE
105
27
330
A
100
AcDbSymbolTableRecord
100
AcDbDimStyleTableRecord
  2
ISO-25
 70
     0
  3

  4

  5

  6

  7

 40
1.0
 41
2.5
 42
0.625
 43
3.75
 44
1.25
 45
0.0
 46
0.0
 47
0.0
 48
0.0
140
2.5
141
2.5
142
0.0
143
0.03937007874016
144
1.0
145
0.0
146
1.0
147
0.625
 71
     0
 72
     0
 73
     0
 74
     0
 75
     0
 76
     0
 77
     1
 78
     8
170
     0
171
     3
172
     1
173
     0
174
     0
175
     0
176
     0
177
     0
178
     0
270
     2
271
     2
272
     2
273
     2
274
     3
340
11
275
     0
280
     0
281
     0
282
     0
283
     0
284
     8
285
     0
286
     0
287
     3
288
     0
  0
ENDTAB
  0
TABLE
  2
BLOCK_RECORD
  5
1
330
0
100
AcDbSymbolTable
 70
     1
  0
BLOCK_RECORD
  5
1F
330
1
100
AcDbSymbolTableRecord
100
AcDbBlockTableRecord
  2
*MODEL_SPACE
  0
BLOCK_RECORD
  5
1B
330
1
100
AcDbSymbolTableRecord
100
AcDbBlockTableRecord
  2
*PAPER_SPACE
  0
ENDTAB
  0
ENDSEC
  0
SECTION
  2
BLOCKS
  0
BLOCK
  5
20
330
1F
100
AcDbEntity
  8
0
100
AcDbBlockBegin
  2
*MODEL_SPACE
 70
     0
 10
0.0
 20
0.0
 30
0.0
  3
*MODEL_SPACE
  1

  0
ENDBLK
  5
21
330
1F
100
AcDbEntity
  8
0
100
AcDbBlockEnd
  0
BLOCK
  5
1C
330
1B
100
AcDbEntity
 67
     1
  8
0
100
AcDbBlockBegin
  2
*PAPER_SPACE
  1

  0
ENDBLK
  5
1D
330
1B
100
AcDbEntity
 67
     1
  8
0
100
AcDbBlockEnd
  0
ENDSEC
  0
SECTION
  2
ENTITIES
  0
LWPOLYLINE
  5
100
100
AcDbEntity
  8
Layer_1
 62
7
100
AcDbPolyline
 90
14
 70
1
 10
95.786800
 20
72.545022
 30
0.0
 10
95.786800
 20
66.544882
 30
0.0
 10
98.786619
 20
66.544882
 30
0.0
 10
98.786619
 20
48.544939
 30
0.0
 10
95.786800
 20
48.544939
 30
0.0
 10
95.786800
 20
42.544720
 30
0.0
 10
98.786619
 20
42.544720
 30
0.0
 10
184.787081
 20
42.544720
 30
0.0
 10
187.786926
 20
42.544720
 30
0.0
 10
187.786926
 20
48.544939
 30
0.0
 10
184.787081
 20
48.544939
 30
0.0
 10
184.787081
 20
66.544882
 30
0.0
 10
187.786926
 20
66.544882
 30
0.0
 10
187.786926
 20
72.545022
 30
0.0
  0
LWPOLYLINE
  5
101
100
AcDbEntity
  8
Layer_1
 62
7
100
AcDbPolyline
 90
21
 70
1
 10
124.786458
 20
58.544836
 30
0.0
 10
125.169310
 20
58.468875
 30
0.0
 10
125.493954
 20
58.252128
 30
0.0
 10
125.710912
 20
57.927670
 30
0.0
 10
125.787112
 20
57.544897
 30
0.0
 10
125.710912
 20
57.162151
 30
0.0
 10
125.493954
 20
56.837692
 30
0.0
 10
125.169310
 20
56.620946
 30
0.0
 10
124.786458
 20
56.544957
 30
0.0
 10
124.585110
 20
56.565330
 30
0.0
 10
124.397256
 20
56.623592
 30
0.0
 10
124.079492
 20
56.837878
 30
0.0
 10
123.865179
 20
57.155721
 30
0.0
 10
123.806971
 20
57.343417
 30
0.0
 10
123.786598
 20
57.544923
 30
0.0
 10
123.806971
 20
57.746457
 30
0.0
 10
123.865179
 20
57.934152
 30
0.0
 10
124.079492
 20
58.251969
 30
0.0
 10
124.397256
 20
58.466282
 30
0.0
 10
124.585110
 20
58.524543
 30
0.0
 10
124.786458
 20
58.544916
 30
0.0
  0
LWPOLYLINE
  5
102
100
AcDbEntity
  8
Layer_1
 62
7
100
AcDbPolyline
 90
21
 70
1
 10
158.786476
 20
58.544836
 30
0.0
 10
159.169328
 20
58.468875
 30
0.0
 10
159.493972
 20
58.252128
 30
0.0
 10
159.710930
 20
57.927670
 30
0.0
 10
159.787130
 20
57.544897
 30
0.0
 10
159.710930
 20
57.162151
 30
0.0
 10
159.493972
 20
56.837692
 30
0.0
 10
159.169328
 20
56.620946
 30
0.0
 10
158.786476
 20
56.544957
 30
0.0
 10
158.585128
 20
56.565330
 30
0.0
 10
158.397274
 20
56.623592
 30
0.0
 10
158.079509
 20
56.837878
 30
0.0
 10
157.865197
 20
57.155721
 30
0.0
 10
157.806989
 20
57.343417
 30
0.0
 10
157.786616
 20
57.544923
 30
0.0
 10
157.806989
 20
57.746457
 30
0.0
 10
157.865197
 20
57.934152
 30
0.0
 10
158.079509
 20
58.251969
 30
0.0
 10
158.397274
 20
58.466282
 30
0.0
 10
158.585128
 20
58.524543
 30
0.0
 10
158.786476
 20
58.544916
 30
0.0
  0
LWPOLYLINE
  5
103
100
AcDbEntity
  8
Layer_1
 62
7
100
AcDbPolyline
 90
46
 70
1
 10
108.580287
 20
42.544693
 30
0.0
 10
108.580287
 20
39.544875
 30
0.0
 10
105.580468
 20
39.544875
 30
0.0
 10
100.580773
 20
39.544875
 30
0.0
 10
100.580773
 20
34.545177
 30
0.0
 10
100.606490
 20
34.032547
 30
0.0
 10
100.681990
 20
33.535025
 30
0.0
 10
100.804799
 20
33.055123
 30
0.0
 10
100.972444
 20
32.595304
 30
0.0
 10
101.182446
 20
32.158027
 30
0.0
 10
101.432334
 20
31.745807
 30
0.0
 10
101.719635
 20
31.361076
 30
0.0
 10
102.041868
 20
31.006323
 30
0.0
 10
102.396566
 20
30.684034
 30
0.0
 10
102.781246
 20
30.396697
 30
0.0
 10
103.193451
 20
30.146771
 30
0.0
 10
103.630675
 20
29.936719
 30
0.0
 10
104.090468
 20
29.769052
 30
0.0
 10
104.570343
 20
29.646206
 30
0.0
 10
105.067838
 20
29.570694
 30
0.0
 10
105.580468
 20
29.545030
 30
0.0
 10
181.580586
 20
29.545030
 30
0.0
 10
182.093083
 20
29.570694
 30
0.0
 10
182.590500
 20
29.646206
 30
0.0
 10
183.070454
 20
29.769052
 30
0.0
 10
183.530300
 20
29.936719
 30
0.0
 10
183.967656
 20
30.146771
 30
0.0
 10
184.379876
 20
30.396697
 30
0.0
 10
184.764581
 20
30.684034
 30
0.0
 10
185.119387
 20
31.006323
 30
0.0
 10
185.441649
 20
31.361076
 30
0.0
 10
185.728987
 20
31.745807
 30
0.0
 10
185.978753
 20
32.158027
 30
0.0
 10
186.188832
 20
32.595304
 30
0.0
 10
186.356578
 20
33.055123
 30
0.0
 10
186.479345
 20
33.535025
 30
0.0
 10
186.555015
 20
34.032547
 30
0.0
 10
186.580680
 20
34.545177
 30
0.0
 10
186.580680
 20
39.544875
 30
0.0
 10
181.580586
 20
39.544875
 30
0.0
 10
178.580741
 20
39.544875
 30
0.0
 10
178.580741
 20
42.544693
 30
0.0
 10
166.580302
 20
42.544693
 30
0.0
 10
166.580302
 20
39.544875
 30
0.0
 10
120.580594
 20
39.544875
 30
0.0
 10
120.580594
 20
42.544693
 30
0.0
  0
LWPOLYLINE
  5
104
100
AcDbEntity
  8
Layer_1
 62
7
100
AcDbPolyline
 90
215
 70
1
 10
17.129887
 20
193.545182
 30
0.0
 10
17.129887
 20
193.525550
 30
0.0
 10
16.129419
 20
192.525613
 30
0.0
 10
12.129661
 20
192.525613
 30
0.0
 10
11.129721
 20
193.525550
 30
0.0
 10
10.129782
 20
193.525550
 30
0.0
 10
9.129842
 20
192.525613
 30
0.0
 10
9.129842
 20
186.525968
 30
0.0
 10
10.129782
 20
185.525526
 30
0.0
 10
11.129721
 20
185.525526
 30
0.0
 10
12.129661
 20
186.525968
 30
0.0
 10
16.129419
 20
186.525968
 30
0.0
 10
17.129887
 20
185.525526
 30
0.0
 10
17.129887
 20
183.525647
 30
0.0
 10
16.129419
 20
182.525707
 30
0.0
 10
13.128568
 20
182.525707
 30
0.0
 10
11.729691
 20
152.444734
 30
0.0
 10
10.229529
 20
152.444734
 30
0.0
 10
10.229529
 20
172.445191
 30
0.0
 10
10.229529
 20
182.445089
 30
0.0
 10
7.229711
 20
182.445089
 30
0.0
 10
5.729545
 20
182.445089
 30
0.0
 10
5.729545
 20
172.445191
 30
0.0
 10
7.229711
 20
172.445191
 30
0.0
 10
7.229711
 20
147.544917
 30
0.0
 10
7.244687
 20
147.544917
 30
0.0
 10
9.129842
 20
145.525882
 30
0.0
 10
14.129540
 20
145.525882
 30
0.0
 10
16.129418
 20
145.525882
 30
0.0
 10
17.129887
 20
144.526024
 30
0.0
 10
17.129887
 20
142.525508
 30
0.0
 10
16.129418
 20
141.525650
 30
0.0
 10
12.129661
 20
141.525650
 30
0.0
 10
11.129721
 20
142.525508
 30
0.0
 10
10.129782
 20
142.525508
 30
0.0
 10
9.129842
 20
141.525650
 30
0.0
 10
9.129842
 20
135.525431
 30
0.0
 10
10.129782
 20
134.525568
 30
0.0
 10
11.129721
 20
134.525568
 30
0.0
 10
12.129661
 20
135.525431
 30
0.0
 10
16.129419
 20
135.525431
 30
0.0
 10
17.129887
 20
134.525568
 30
0.0
 10
17.129887
 20
132.525583
 30
0.0
 10
16.129419
 20
131.525726
 30
0.0
 10
9.129842
 20
131.525726
 30
0.0
 10
7.229711
 20
129.626015
 30
0.0
 10
7.229711
 20
109.444930
 30
0.0
 10
4.229894
 20
109.444930
 30
0.0
 10
4.229894
 20
104.445084
 30
0.0
 10
7.229711
 20
104.445084
 30
0.0
 10
7.229711
 20
97.544753
 30
0.0
 10
7.244687
 20
97.544753
 30
0.0
 10
9.129842
 20
95.525983
 30
0.0
 10
14.129540
 20
95.525983
 30
0.0
 10
16.129418
 20
95.525983
 30
0.0
 10
17.129887
 20
94.525858
 30
0.0
 10
17.129887
 20
92.525608
 30
0.0
 10
16.129418
 20
91.525484
 30
0.0
 10
12.129661
 20
91.525484
 30
0.0
 10
11.129721
 20
92.525608
 30
0.0
 10
10.129782
 20
92.525608
 30
0.0
 10
9.129842
 20
91.525484
 30
0.0
 10
9.129842
 20
85.526058
 30
0.0
 10
10.129782
 20
84.525404
 30
0.0
 10
11.129721
 20
84.525404
 30
0.0
 10
12.129661
 20
85.526058
 30
0.0
 10
16.129419
 20
85.526058
 30
0.0
 10
17.129887
 20
84.525404
 30
0.0
 10
17.129887
 20
82.525684
 30
0.0
 10
16.129419
 20
81.525559
 30
0.0
 10
9.129842
 20
81.525559
 30
0.0
 10
7.229711
 20
79.626116
 30
0.0
 10
7.229711
 20
74.545324
 30
0.0
 10
7.270192
 20
74.141041
 30
0.0
 10
7.386371
 20
73.765332
 30
0.0
 10
7.570336
 20
73.425343
 30
0.0
 10
7.814149
 20
73.129539
 30
0.0
 10
8.109901
 20
72.885593
 30
0.0
 10
8.449678
 20
72.701708
 30
0.0
 10
8.825546
 20
72.585291
 30
0.0
 10
9.229591
 20
72.544810
 30
0.0
 10
91.229657
 20
72.544810
 30
0.0
 10
91.633673
 20
72.585291
 30
0.0
 10
92.009646
 20
72.701708
 30
0.0
 10
92.349371
 20
72.885593
 30
0.0
 10
92.645178
 20
73.129539
 30
0.0
 10
92.888859
 20
73.425343
 30
0.0
 10
93.073009
 20
73.765332
 30
0.0
 10
93.189161
 20
74.141041
 30
0.0
 10
93.229642
 20
74.545324
 30
0.0
 10
93.229642
 20
79.525839
 30
0.0
 10
93.129894
 20
79.525839
 30
0.0
 10
91.129380
 20
81.525559
 30
0.0
 10
84.129298
 20
81.525559
 30
0.0
 10
83.129441
 20
82.525684
 30
0.0
 10
83.129441
 20
84.525404
 30
0.0
 10
84.129298
 20
85.526058
 30
0.0
 10
88.129535
 20
85.526058
 30
0.0
 10
89.129660
 20
84.525404
 30
0.0
 10
90.129520
 20
84.525404
 30
0.0
 10
91.129380
 20
85.526058
 30
0.0
 10
91.129380
 20
91.525484
 30
0.0
 10
90.129520
 20
92.525608
 30
0.0
 10
89.129660
 20
92.525608
 30
0.0
 10
88.129535
 20
91.525484
 30
0.0
 10
84.129298
 20
91.525484
 30
0.0
 10
83.129441
 20
92.525608
 30
0.0
 10
83.129441
 20
94.525858
 30
0.0
 10
84.129298
 20
95.525983
 30
0.0
 10
86.129815
 20
95.525983
 30
0.0
 10
91.129380
 20
95.525983
 30
0.0
 10
93.014536
 20
97.544753
 30
0.0
 10
93.229642
 20
97.541313
 30
0.0
 10
93.229642
 20
104.445084
 30
0.0
 10
96.229487
 20
104.445084
 30
0.0
 10
96.229487
 20
109.444930
 30
0.0
 10
93.229642
 20
109.444930
 30
0.0
 10
93.229642
 20
129.525738
 30
0.0
 10
93.129894
 20
129.525738
 30
0.0
 10
91.129380
 20
131.525726
 30
0.0
 10
84.129298
 20
131.525726
 30
0.0
 10
83.129441
 20
132.525583
 30
0.0
 10
83.129441
 20
134.525568
 30
0.0
 10
84.129298
 20
135.525431
 30
0.0
 10
88.129535
 20
135.525431
 30
0.0
 10
89.129660
 20
134.525568
 30
0.0
 10
90.129520
 20
134.525568
 30
0.0
 10
91.129380
 20
135.525431
 30
0.0
 10
91.129380
 20
141.525650
 30
0.0
 10
90.129520
 20
142.525508
 30
0.0
 10
89.129660
 20
142.525508
 30
0.0
 10
88.129535
 20
141.525650
 30
0.0
 10
84.129298
 20
141.525650
 30
0.0
 10
83.129441
 20
142.525508
 30
0.0
 10
83.129441
 20
144.526024
 30
0.0
 10
84.129298
 20
145.525882
 30
0.0
 10
86.129815
 20
145.525882
 30
0.0
 10
91.129380
 20
145.525882
 30
0.0
 10
93.014536
 20
147.544917
 30
0.0
 10
93.229642
 20
147.541212
 30
0.0
 10
93.229642
 20
172.445191
 30
0.0
 10
94.729829
 20
172.445191
 30
0.0
 10
94.729829
 20
182.445089
 30
0.0
 10
93.229642
 20
182.445089
 30
0.0
 10
90.229797
 20
182.445089
 30
0.0
 10
90.229797
 20
172.445191
 30
0.0
 10
90.229797
 20
152.444734
 30
0.0
 10
88.729610
 20
152.444734
 30
0.0
 10
87.130733
 20
182.525707
 30
0.0
 10
84.129298
 20
182.525707
 30
0.0
 10
83.129441
 20
183.525647
 30
0.0
 10
83.129441
 20
185.525526
 30
0.0
 10
84.129298
 20
186.525968
 30
0.0
 10
88.129535
 20
186.525968
 30
0.0
 10
89.129660
 20
185.525526
 30
0.0
 10
90.129520
 20
185.525526
 30
0.0
 10
91.129380
 20
186.525968
 30
0.0
 10
91.129380
 20
192.525613
 30
0.0
 10
90.129520
 20
193.525550
 30
0.0
 10
89.129660
 20
193.525550
 30
0.0
 10
88.129535
 20
192.525613
 30
0.0
 10
84.129298
 20
192.525613
 30
0.0
 10
83.129441
 20
193.525550
 30
0.0
 10
83.129441
 20
193.545182
 30
0.0
 10
81.129456
 20
193.545182
 30
0.0
 10
80.186481
 20
193.484942
 30
0.0
 10
79.232394
 20
193.309341
 30
0.0
 10
78.268517
 20
193.026072
 30
0.0
 10
77.295644
 20
192.642829
 30
0.0
 10
76.314570
 20
192.167296
 30
0.0
 10
75.326616
 20
191.607171
 30
0.0
 10
74.332312
 20
190.970139
 30
0.0
 10
73.332716
 20
190.263892
 30
0.0
 10
72.328623
 20
189.496122
 30
0.0
 10
71.321090
 20
188.674511
 30
0.0
 10
69.299409
 20
186.900560
 30
0.0
 10
67.274818
 20
185.003577
 30
0.0
 10
65.254460
 20
183.045053
 30
0.0
 10
63.246009
 20
181.086528
 30
0.0
 10
61.256343
 20
179.189545
 30
0.0
 10
59.293135
 20
177.415594
 30
0.0
 10
57.363794
 20
175.826216
 30
0.0
 10
56.413940
 20
175.119964
 30
0.0
 10
55.475463
 20
174.482927
 30
0.0
 10
54.548892
 20
173.922804
 30
0.0
 10
53.635286
 20
173.447268
 30
0.0
 10
52.735703
 20
173.064020
 30
0.0
 10
51.850937
 20
172.780757
 30
0.0
 10
50.981781
 20
172.605153
 30
0.0
 10
50.129294
 20
172.544907
 30
0.0
 10
49.277071
 20
172.605153
 30
0.0
 10
48.407915
 20
172.780757
 30
0.0
 10
47.523149
 20
173.064020
 30
0.0
 10
46.623565
 20
173.447268
 30
0.0
 10
45.709959
 20
173.922804
 30
0.0
 10
44.783389
 20
174.482927
 30
0.0
 10
43.844912
 20
175.119964
 30
0.0
 10
42.895058
 20
175.826216
 30
0.0
 10
40.965717
 20
177.415594
 30
0.0
 10
39.002509
 20
179.189545
 30
0.0
 10
37.013108
 20
181.086528
 30
0.0
 10
35.004656
 20
183.045053
 30
0.0
 10
32.984298
 20
185.003577
 30
0.0
 10
30.959707
 20
186.900560
 30
0.0
 10
28.938027
 20
188.674511
 30
0.0
 10
27.930573
 20
189.496122
 30
0.0
 10
26.926586
 20
190.263892
 30
0.0
 10
25.926990
 20
190.970139
 30
0.0
 10
24.932712
 20
191.607171
 30
0.0
 10
23.944652
 20
192.167296
 30
0.0
 10
22.963737
 20
192.642829
 30
0.0
 10
21.990864
 20
193.026072
 30
0.0
 10
21.026961
 20
193.309341
 30
0.0
 10
20.072952
 20
193.484942
 30
0.0
 10
19.129767
 20
193.545182
 30
0.0
  0
LWPOLYLINE
  5
105
100
AcDbEntity
  8
Layer_1
 62
7
100
AcDbPolyline
 90
4
 70
1
 10
15.229730
 20
78.445281
 30
0.0
 10
27.229506
 20
78.445281
 30
0.0
 10
27.229506
 20
75.444907
 30
0.0
 10
15.229730
 20
75.444907
 30
0.0
  0
LWPOLYLINE
  5
106
100
AcDbEntity
  8
Layer_1
 62
7
100
AcDbPolyline
 90
4
 70
1
 10
73.229793
 20
78.445281
 30
0.0
 10
85.229703
 20
78.445281
 30
0.0
 10
85.229703
 20
75.444907
 30
0.0
 10
73.229793
 20
75.444907
 30
0.0
  0
LWPOLYLINE
  5
107
100
AcDbEntity
  8
Layer_1
 62
7
100
AcDbPolyline
 90
16
 70
1
 10
129.323381
 20
143.865080
 30
0.0
 10
128.186782
 20
144.094581
 30
0.0
 10
127.258581
 20
144.720280
 30
0.0
 10
126.632882
 20
145.648480
 30
0.0
 10
126.403382
 20
146.785080
 30
0.0
 10
126.632882
 20
147.921679
 30
0.0
 10
127.258581
 20
148.849829
 30
0.0
 10
128.186782
 20
149.475609
 30
0.0
 10
129.323381
 20
149.705079
 30
0.0
 10
130.459980
 20
149.475609
 30
0.0
 10
131.388181
 20
148.849829
 30
0.0
 10
132.013881
 20
147.921679
 30
0.0
 10
132.243380
 20
146.785080
 30
0.0
 10
132.013881
 20
145.648480
 30
0.0
 10
131.388181
 20
144.720280
 30
0.0
 10
130.459980
 20
144.094581
 30
0.0
  0
LWPOLYLINE
  5
108
100
AcDbEntity
  8
Layer_1
 62
7
100
AcDbPolyline
 90
243
 70
1
 10
200.138059
 20
151.322358
 30
0.0
 10
200.099429
 20
151.977572
 30
0.0
 10
199.969784
 20
152.569816
 30
0.0
 10
199.753619
 20
153.101655
 30
0.0
 10
199.456492
 20
153.575603
 30
0.0
 10
199.083959
 20
153.994200
 30
0.0
 10
198.640782
 20
154.360000
 30
0.0
 10
198.132517
 20
154.675501
 30
0.0
 10
197.564193
 20
154.943254
 30
0.0
 10
196.941364
 20
155.165785
 30
0.0
 10
196.268793
 20
155.345630
 30
0.0
 10
195.552196
 20
155.485319
 30
0.0
 10
194.796572
 20
155.587388
 30
0.0
 10
193.189361
 20
155.688787
 30
0.0
 10
191.489229
 20
155.670088
 30
0.0
 10
189.738084
 20
155.551552
 30
0.0
 10
187.977891
 20
155.353435
 30
0.0
 10
186.250612
 20
155.096003
 30
0.0
 10
184.598211
 20
154.799512
 30
0.0
 10
181.685863
 20
154.170394
 30
0.0
 10
179.576500
 20
153.628176
 30
0.0
 10
176.489448
 20
152.802993
 30
0.0
 10
173.546832
 20
152.085496
 30
0.0
 10
170.743988
 20
151.470102
 30
0.0
 10
168.076275
 20
150.951308
 30
0.0
 10
165.539035
 20
150.523556
 30
0.0
 10
163.127623
 20
150.181344
 30
0.0
 10
160.837390
 20
149.919142
 30
0.0
 10
158.663680
 20
149.731420
 30
0.0
 10
156.601836
 20
149.612648
 30
0.0
 10
154.647227
 20
149.557297
 30
0.0
 10
152.795197
 20
149.559837
 30
0.0
 10
151.041089
 20
149.614738
 30
0.0
 10
149.380247
 20
149.716471
 30
0.0
 10
147.808041
 20
149.859531
 30
0.0
 10
146.319786
 20
150.038336
 30
0.0
 10
144.910880
 20
150.247410
 30
0.0
 10
142.312329
 20
150.734191
 30
0.0
 10
139.975530
 20
151.275606
 30
0.0
 10
135.937195
 20
152.345502
 30
0.0
 10
134.161312
 20
152.785531
 30
0.0
 10
132.498407
 20
153.103295
 30
0.0
 10
131.697513
 20
153.202487
 30
0.0
 10
130.910643
 20
153.254557
 30
0.0
 10
130.133561
 20
153.253948
 30
0.0
 10
129.361508
 20
153.195105
 30
0.0
 10
128.002079
 20
152.963039
 30
0.0
 10
126.792404
 20
152.617017
 30
0.0
 10
125.712904
 20
152.179370
 30
0.0
 10
124.744000
 20
151.672481
 30
0.0
 10
123.866113
 20
151.118629
 30
0.0
 10
123.059928
 20
150.540171
 30
0.0
 10
121.584871
 20
149.398785
 30
0.0
 10
120.876582
 20
148.880519
 30
0.0
 10
120.162207
 20
148.426997
 30
0.0
 10
119.422168
 20
148.060523
 30
0.0
 10
118.636884
 20
147.803454
 30
0.0
 10
117.786778
 20
147.678121
 30
0.0
 10
117.331431
 20
147.671824
 30
0.0
 10
116.852535
 20
147.706855
 30
0.0
 10
116.347710
 20
147.785965
 30
0.0
 10
115.814575
 20
147.911959
 30
0.0
 10
114.653319
 20
148.315819
 30
0.0
 10
114.384238
 20
148.454328
 30
0.0
 10
114.140557
 20
148.634853
 30
0.0
 10
113.921482
 20
148.856283
 30
0.0
 10
113.726219
 20
149.117506
 30
0.0
 10
113.404486
 20
149.754755
 30
0.0
 10
113.170594
 20
150.537551
 30
0.0
 10
113.018723
 20
151.456820
 30
0.0
 10
112.943846
 20
152.503510
 30
0.0
 10
112.940142
 20
153.668550
 30
0.0
 10
113.002584
 20
154.942944
 30
0.0
 10
113.125615
 20
156.317589
 30
0.0
 10
113.303944
 20
157.783449
 30
0.0
 10
113.805065
 20
160.952580
 30
0.0
 10
114.462554
 20
164.377928
 30
0.0
 10
115.233550
 20
167.987055
 30
0.0
 10
116.943816
 20
175.466956
 30
0.0
 10
117.797097
 20
179.192844
 30
0.0
 10
118.591905
 20
182.812819
 30
0.0
 10
119.284849
 20
186.254360
 30
0.0
 10
119.833065
 20
189.445234
 30
0.0
 10
120.039440
 20
190.923990
 30
0.0
 10
120.193428
 20
192.312788
 30
0.0
 10
120.290001
 20
193.602896
 30
0.0
 10
120.323338
 20
194.784789
 30
0.0
 10
120.282857
 20
195.892864
 30
0.0
 10
120.164853
 20
196.966013
 30
0.0
 10
119.973294
 20
198.002915
 30
0.0
 10
119.712415
 20
199.002246
 30
0.0
 10
119.386449
 20
199.962683
 30
0.0
 10
118.999893
 20
200.882904
 30
0.0
 10
118.556451
 20
201.761585
 30
0.0
 10
118.060887
 20
202.597404
 30
0.0
 10
117.517168
 20
203.389037
 30
0.0
 10
116.929264
 20
204.134897
 30
0.0
 10
116.301937
 20
204.833926
 30
0.0
 10
115.639421
 20
205.484801
 30
0.0
 10
114.945419
 20
206.085934
 30
0.0
 10
114.224429
 20
206.636267
 30
0.0
 10
113.480950
 20
207.134213
 30
0.0
 10
112.718951
 20
207.578713
 30
0.0
 10
111.942663
 20
207.967915
 30
0.0
 10
111.156322
 20
208.301289
 30
0.0
 10
110.364160
 20
208.576721
 30
0.0
 10
109.570674
 20
208.793150
 30
0.0
 10
108.779835
 20
208.949518
 30
0.0
 10
107.995610
 20
209.043975
 30
0.0
 10
107.223027
 20
209.075725
 30
0.0
 10
106.465525
 20
209.042916
 30
0.0
 10
105.727603
 20
208.944491
 30
0.0
 10
105.013757
 20
208.779127
 30
0.0
 10
104.327957
 20
208.545500
 30
0.0
 10
103.674437
 20
208.242023
 30
0.0
 10
103.057693
 20
207.867638
 30
0.0
 10
102.481431
 20
207.421021
 30
0.0
 10
101.950412
 20
206.900586
 30
0.0
 10
101.468606
 20
206.305009
 30
0.0
 10
101.244768
 20
205.920305
 30
0.0
 10
101.029133
 20
205.402251
 30
0.0
 10
100.821171
 20
204.755345
 30
0.0
 10
100.620881
 20
203.983820
 30
0.0
 10
100.243321
 20
202.083318
 30
0.0
 10
99.894865
 20
199.734613
 30
0.0
 10
99.574454
 20
196.971834
 30
0.0
 10
99.280767
 20
193.828850
 30
0.0
 10
99.013273
 20
190.339526
 30
0.0
 10
98.770121
 20
186.537993
 30
0.0
 10
98.353138
 20
178.133214
 30
0.0
 10
98.020557
 20
168.886083
 30
0.0
 10
97.763647
 20
159.067912
 30
0.0
 10
97.572882
 20
148.950078
 30
0.0
 10
97.439003
 20
138.803971
 30
0.0
 10
97.353013
 20
128.900912
 30
0.0
 10
97.287132
 20
110.909779
 30
0.0
 10
97.301949
 20
97.147481
 30
0.0
 10
97.323115
 20
89.784923
 30
0.0
 10
97.382647
 20
88.090532
 30
0.0
 10
97.556213
 20
86.450380
 30
0.0
 10
97.835613
 20
84.872670
 30
0.0
 10
98.212909
 20
83.364545
 30
0.0
 10
98.680428
 20
81.933679
 30
0.0
 10
99.230496
 20
80.587479
 30
0.0
 10
99.854648
 20
79.333619
 30
0.0
 10
100.545475
 20
78.179772
 30
0.0
 10
101.294775
 20
77.133610
 30
0.0
 10
102.094874
 20
76.202277
 30
0.0
 10
102.937837
 20
75.393446
 30
0.0
 10
103.815459
 20
74.714789
 30
0.0
 10
104.720334
 20
74.173719
 30
0.0
 10
105.644259
 20
73.777900
 30
0.0
 10
106.579296
 20
73.535015
 30
0.0
 10
107.048667
 20
73.473100
 30
0.0
 10
107.517773
 20
73.452198
 30
0.0
 10
108.565258
 20
73.486329
 30
0.0
 10
109.815943
 20
73.583169
 30
0.0
 10
112.777953
 20
73.928715
 30
0.0
 10
116.106675
 20
74.417927
 30
0.0
 10
119.504982
 20
74.979108
 30
0.0
 10
125.322115
 20
76.034531
 30
0.0
 10
127.853118
 20
76.525333
 30
0.0
 10
127.920323
 20
76.519247
 30
0.0
 10
128.016366
 20
81.364296
 30
0.0
 10
129.323143
 20
81.315348
 30
0.0
 10
130.678603
 20
81.332811
 30
0.0
 10
130.724640
 20
80.282150
 30
0.0
 10
133.721840
 20
80.413119
 30
0.0
 10
133.676067
 20
81.465631
 30
0.0
 10
136.377991
 20
81.700319
 30
0.0
 10
136.515574
 20
80.657329
 30
0.0
 10
139.489490
 20
81.048648
 30
0.0
 10
139.352701
 20
82.088992
 30
0.0
 10
142.023669
 20
82.564181
 30
0.0
 10
142.251739
 20
81.536010
 30
0.0
 10
145.180147
 20
82.185033
 30
0.0
 10
144.952261
 20
83.213997
 30
0.0
 10
147.573805
 20
83.910910
 30
0.0
 10
147.889030
 20
82.911050
 30
0.0
 10
150.750339
 20
83.813279
 30
0.0
 10
150.434082
 20
84.816316
 30
0.0
 10
152.982257
 20
85.745530
 30
0.0
 10
153.385324
 20
84.772393
 30
0.0
 10
156.157256
 20
85.920155
 30
0.0
 10
155.755222
 20
86.891176
 30
0.0
 10
158.212936
 20
88.038940
 30
0.0
 10
158.698711
 20
87.105753
 30
0.0
 10
161.359519
 20
88.490581
 30
0.0
 10
160.873241
 20
89.424825
 30
0.0
 10
163.224011
 20
90.778697
 30
0.0
 10
163.788314
 20
89.893140
 30
0.0
 10
166.318391
 20
91.504717
 30
0.0
 10
165.754591
 20
92.390009
 30
0.0
 10
167.974098
 20
93.948669
 30
0.0
 10
168.615403
 20
93.113116
 30
0.0
 10
170.995617
 20
94.939269
 30
0.0
 10
170.354831
 20
95.774294
 30
0.0
 10
172.434815
 20
97.515781
 30
0.0
 10
173.143819
 20
96.742140
 30
0.0
 10
175.355550
 20
98.769112
 30
0.0
 10
174.644483
 20
99.544605
 30
0.0
 10
176.562711
 20
101.462834
 30
0.0
 10
177.338893
 20
100.751899
 30
0.0
 10
179.365653
 20
102.963550
 30
0.0
 10
178.591536
 20
103.672633
 30
0.0
 10
180.333023
 20
105.752522
 30
0.0
 10
181.168127
 20
105.111702
 30
0.0
 10
182.994360
 20
107.491893
 30
0.0
 10
182.158753
 20
108.133243
 30
0.0
 10
183.717836
 20
110.352832
 30
0.0
 10
184.603052
 20
109.789005
 30
0.0
 10
186.214841
 20
112.318950
 30
0.0
 10
185.329095
 20
112.883306
 30
0.0
 10
186.683021
 20
115.234128
 30
0.0
 10
187.616815
 20
114.747824
 30
0.0
 10
189.002278
 20
117.408738
 30
0.0
 10
188.068987
 20
117.894513
 30
0.0
 10
189.217252
 20
120.352756
 30
0.0
 10
190.187214
 20
119.950589
 30
0.0
 10
191.335453
 20
122.722099
 30
0.0
 10
190.362898
 20
123.125059
 30
0.0
 10
191.291532
 20
125.673790
 30
0.0
 10
192.294567
 20
125.357613
 30
0.0
 10
193.196320
 20
128.218287
 30
0.0
 10
192.196909
 20
128.533670
 30
0.0
 10
192.894536
 20
131.155134
 30
0.0
 10
193.922389
 20
130.927222
 30
0.0
 10
194.571438
 20
133.856238
 30
0.0
 10
193.543585
 20
134.084150
 30
0.0
 10
194.019015
 20
136.754775
 30
0.0
 10
195.058748
 20
136.617826
 30
0.0
 10
195.450437
 20
139.592324
 30
0.0
 10
194.408138
 20
139.729272
 30
0.0
 10
194.642744
 20
142.431964
 30
0.0
 10
195.694885
 20
142.385952
 30
0.0
 10
195.825616
 20
145.382675
 30
0.0
 10
194.775564
 20
145.428660
 30
0.0
 10
194.793133
 20
146.785179
 30
0.0
 10
194.744026
 20
148.098278
 30
0.0
 10
198.573842
 20
148.187153
 30
0.0
 10
198.465892
 20
149.505412
 30
0.0
 10
200.120861
 20
150.964774
 30
0.0
 10
200.138059
 20
151.322358
 30
0.0
  0
LWPOLYLINE
  5
109
100
AcDbEntity
  8
Layer_1
 62
7
100
AcDbPolyline
 90
4
 70
1
 10
106.323391
 20
204.785063
 30
0.0
 10
106.323391
 20
198.785066
 30
0.0
 10
103.323387
 20
198.785066
 30
0.0
 10
103.323387
 20
204.785063
 30
0.0
  0
LWPOLYLINE
  5
10a
100
AcDbEntity
  8
Layer_1
 62
7
100
AcDbPolyline
 90
4
 70
1
 10
106.323391
 20
180.785070
 30
0.0
 10
106.323391
 20
174.785072
 30
0.0
 10
103.323387
 20
174.785072
 30
0.0
 10
103.323387
 20
180.785070
 30
0.0
  0
LWPOLYLINE
  5
10b
100
AcDbEntity
  8
Layer_1
 62
7
100
AcDbPolyline
 90
16
 70
1
 10
125.317982
 20
114.108088
 30
0.0
 10
125.101281
 20
114.432488
 30
0.0
 10
125.025181
 20
114.815190
 30
0.0
 10
125.101281
 20
115.197888
 30
0.0
 10
125.317982
 20
115.522288
 30
0.0
 10
125.648780
 20
115.741988
 30
0.0
 10
126.025181
 20
115.815187
 30
0.0
 10
126.401482
 20
115.741988
 30
0.0
 10
126.732280
 20
115.522288
 30
0.0
 10
126.948982
 20
115.197888
 30
0.0
 10
127.025182
 20
114.815190
 30
0.0
 10
126.948982
 20
114.432488
 30
0.0
 10
126.732280
 20
114.108088
 30
0.0
 10
126.401482
 20
113.888389
 30
0.0
 10
126.025181
 20
113.815189
 30
0.0
 10
125.648780
 20
113.888389
 30
0.0
  0
LWPOLYLINE
  5
10c
100
AcDbEntity
  8
Layer_1
 62
7
100
AcDbPolyline
 90
16
 70
1
 10
100.569287
 20
89.359396
 30
0.0
 10
100.352488
 20
89.683796
 30
0.0
 10
100.276394
 20
90.066495
 30
0.0
 10
100.352488
 20
90.449095
 30
0.0
 10
100.569287
 20
90.773596
 30
0.0
 10
100.893693
 20
90.990295
 30
0.0
 10
101.276386
 20
91.066495
 30
0.0
 10
101.659079
 20
90.990295
 30
0.0
 10
101.983485
 20
90.773596
 30
0.0
 10
102.200284
 20
90.449095
 30
0.0
 10
102.276379
 20
90.066495
 30
0.0
 10
102.200284
 20
89.683796
 30
0.0
 10
101.983485
 20
89.359396
 30
0.0
 10
101.659079
 20
89.142597
 30
0.0
 10
101.276386
 20
89.066497
 30
0.0
 10
100.893693
 20
89.142597
 30
0.0
  0
LWPOLYLINE
  5
10d
100
AcDbEntity
  8
Layer_1
 62
7
100
AcDbPolyline
 90
32
 70
1
 10
116.054896
 20
93.531295
 30
0.0
 10
115.465484
 20
94.252895
 30
0.0
 10
115.044479
 20
95.052995
 30
0.0
 10
114.791775
 20
95.905395
 30
0.0
 10
114.707585
 20
96.783994
 30
0.0
 10
114.791775
 20
97.662492
 30
0.0
 10
115.044479
 20
98.514993
 30
0.0
 10
115.465484
 20
99.314992
 30
0.0
 10
116.054896
 20
100.036693
 30
0.0
 10
116.776573
 20
100.626092
 30
0.0
 10
117.576673
 20
101.047092
 30
0.0
 10
118.429081
 20
101.299793
 30
0.0
 10
119.307577
 20
101.383994
 30
0.0
 10
120.186178
 20
101.299793
 30
0.0
 10
121.038586
 20
101.047092
 30
0.0
 10
121.838683
 20
100.626092
 30
0.0
 10
122.560281
 20
100.036693
 30
0.0
 10
123.149783
 20
99.314992
 30
0.0
 10
123.570783
 20
98.514993
 30
0.0
 10
123.823383
 20
97.662492
 30
0.0
 10
123.907581
 20
96.783994
 30
0.0
 10
123.823383
 20
95.905395
 30
0.0
 10
123.570783
 20
95.052995
 30
0.0
 10
123.149783
 20
94.252895
 30
0.0
 10
122.560281
 20
93.531295
 30
0.0
 10
121.838683
 20
92.941795
 30
0.0
 10
121.038586
 20
92.520796
 30
0.0
 10
120.186178
 20
92.268195
 30
0.0
 10
119.307577
 20
92.183994
 30
0.0
 10
118.429081
 20
92.268195
 30
0.0
 10
117.576673
 20
92.520796
 30
0.0
 10
116.776573
 20
92.941795
 30
0.0
  0
LWPOLYLINE
  5
10e
100
AcDbEntity
  8
Layer_1
 62
7
100
AcDbPolyline
 90
4
 70
1
 10
127.323380
 20
141.785081
 30
0.0
 10
127.323380
 20
135.785083
 30
0.0
 10
124.323382
 20
135.785083
 30
0.0
 10
124.323382
 20
141.785081
 30
0.0
  0
LWPOLYLINE
  5
10f
100
AcDbEntity
  8
Layer_1
 62
7
100
AcDbPolyline
 90
4
 70
1
 10
127.323380
 20
127.785085
 30
0.0
 10
127.323380
 20
121.785088
 30
0.0
 10
124.323382
 20
121.785088
 30
0.0
 10
124.323382
 20
127.785085
 30
0.0
  0
LWPOLYLINE
  5
110
100
AcDbEntity
  8
Layer_1
 62
7
100
AcDbPolyline
 90
4
 70
1
 10
106.323391
 20
146.785080
 30
0.0
 10
106.323391
 20
140.785081
 30
0.0
 10
103.323387
 20
140.785081
 30
0.0
 10
103.323387
 20
146.785080
 30
0.0
  0
LWPOLYLINE
  5
111
100
AcDbEntity
  8
Layer_1
 62
7
100
AcDbPolyline
 90
4
 70
1
 10
106.323391
 20
127.785085
 30
0.0
 10
106.323391
 20
121.785088
 30
0.0
 10
103.323387
 20
121.785088
 30
0.0
 10
103.323387
 20
127.785085
 30
0.0
  0
LWPOLYLINE
  5
112
100
AcDbEntity
  8
Layer_1
 62
7
100
AcDbPolyline
 90
64
 70
1
 10
153.885574
 20
100.886693
 30
0.0
 10
151.719973
 20
100.993892
 30
0.0
 10
149.591075
 20
101.311593
 30
0.0
 10
147.513276
 20
101.833692
 30
0.0
 10
145.500777
 20
102.554491
 30
0.0
 10
143.568176
 20
103.467891
 30
0.0
 10
141.729677
 20
104.567891
 30
0.0
 10
139.999678
 20
105.848590
 30
0.0
 10
138.392578
 20
107.304092
 30
0.0
 10
136.937079
 20
108.911191
 30
0.0
 10
135.656380
 20
110.641190
 30
0.0
 10
134.556380
 20
112.479689
 30
0.0
 10
133.642981
 20
114.412290
 30
0.0
 10
132.922280
 20
116.424787
 30
0.0
 10
132.400080
 20
118.502589
 30
0.0
 10
132.082379
 20
120.631486
 30
0.0
 10
131.975180
 20
122.797087
 30
0.0
 10
132.082379
 20
124.962585
 30
0.0
 10
132.400080
 20
127.091485
 30
0.0
 10
132.922280
 20
129.169384
 30
0.0
 10
133.642981
 20
131.181784
 30
0.0
 10
134.556380
 20
133.114483
 30
0.0
 10
135.656380
 20
134.952983
 30
0.0
 10
136.937079
 20
136.682982
 30
0.0
 10
138.392578
 20
138.290082
 30
0.0
 10
139.999678
 20
139.745582
 30
0.0
 10
141.729677
 20
141.026281
 30
0.0
 10
143.568176
 20
142.126281
 30
0.0
 10
145.500777
 20
143.039581
 30
0.0
 10
147.513276
 20
143.760380
 30
0.0
 10
149.591075
 20
144.282580
 30
0.0
 10
151.719973
 20
144.600280
 30
0.0
 10
153.885574
 20
144.707480
 30
0.0
 10
156.051172
 20
144.600280
 30
0.0
 10
158.180072
 20
144.282580
 30
0.0
 10
160.257892
 20
143.760380
 30
0.0
 10
162.270320
 20
143.039581
 30
0.0
 10
164.202971
 20
142.126281
 30
0.0
 10
166.041471
 20
141.026281
 30
0.0
 10
167.771459
 20
139.745582
 30
0.0
 10
169.378564
 20
138.290082
 30
0.0
 10
170.834050
 20
136.682982
 30
0.0
 10
172.114768
 20
134.952983
 30
0.0
 10
173.214788
 20
133.114483
 30
0.0
 10
174.128138
 20
131.181784
 30
0.0
 10
174.848886
 20
129.169384
 30
0.0
 10
175.371078
 20
127.091485
 30
0.0
 10
175.688758
 20
124.962585
 30
0.0
 10
175.795967
 20
122.797087
 30
0.0
 10
175.688758
 20
120.631486
 30
0.0
 10
175.371078
 20
118.502589
 30
0.0
 10
174.848886
 20
116.424787
 30
0.0
 10
174.128138
 20
114.412290
 30
0.0
 10
173.214788
 20
112.479689
 30
0.0
 10
172.114768
 20
110.641190
 30
0.0
 10
170.834050
 20
108.911191
 30
0.0
 10
169.378564
 20
107.304092
 30
0.0
 10
167.771459
 20
105.848590
 30
0.0
 10
166.041471
 20
104.567891
 30
0.0
 10
164.202971
 20
103.467891
 30
0.0
 10
162.270320
 20
102.554491
 30
0.0
 10
160.257892
 20
101.833692
 30
0.0
 10
158.180072
 20
101.311593
 30
0.0
 10
156.051172
 20
100.993892
 30
0.0
  0
LWPOLYLINE
  5
113
100
AcDbEntity
  8
Layer_1
 62
7
100
AcDbPolyline
 90
4
 70
1
 10
106.323391
 20
82.785097
 30
0.0
 10
106.323391
 20
76.785098
 30
0.0
 10
103.323387
 20
76.785098
 30
0.0
 10
103.323387
 20
82.785097
 30
0.0
  0
LWPOLYLINE
  5
114
100
AcDbEntity
  8
Layer_1
 62
7
100
AcDbPolyline
 90
20
 70
1
 10
117.323387
 20
128.285086
 30
0.0
 10
117.323387
 20
113.285089
 30
0.0
 10
117.245097
 20
112.895090
 30
0.0
 10
117.031182
 20
112.577289
 30
0.0
 10
116.713391
 20
112.363389
 30
0.0
 10
116.323395
 20
112.285088
 30
0.0
 10
111.323380
 20
112.285088
 30
0.0
 10
110.933384
 20
112.363389
 30
0.0
 10
110.615593
 20
112.577289
 30
0.0
 10
110.401678
 20
112.895090
 30
0.0
 10
110.323387
 20
113.285089
 30
0.0
 10
110.323387
 20
128.285086
 30
0.0
 10
110.401678
 20
128.675085
 30
0.0
 10
110.615593
 20
128.992884
 30
0.0
 10
110.933384
 20
129.206783
 30
0.0
 10
111.323380
 20
129.285084
 30
0.0
 10
116.323395
 20
129.285084
 30
0.0
 10
116.713391
 20
129.206783
 30
0.0
 10
117.031182
 20
128.992884
 30
0.0
 10
117.245097
 20
128.675085
 30
0.0
  0
LWPOLYLINE
  5
115
100
AcDbEntity
  8
Layer_1
 62
7
100
AcDbPolyline
 90
20
 70
1
 10
116.323395
 20
200.285065
 30
0.0
 10
116.323395
 20
185.285067
 30
0.0
 10
116.245078
 20
184.895069
 30
0.0
 10
116.031189
 20
184.577270
 30
0.0
 10
115.713372
 20
184.363370
 30
0.0
 10
115.323376
 20
184.285070
 30
0.0
 10
110.323387
 20
184.285070
 30
0.0
 10
109.933392
 20
184.363370
 30
0.0
 10
109.615574
 20
184.577270
 30
0.0
 10
109.401685
 20
184.895069
 30
0.0
 10
109.323395
 20
185.285067
 30
0.0
 10
109.323395
 20
200.285065
 30
0.0
 10
109.401685
 20
200.675063
 30
0.0
 10
109.615574
 20
200.992865
 30
0.0
 10
109.933392
 20
201.206765
 30
0.0
 10
110.323387
 20
201.285065
 30
0.0
 10
115.323376
 20
201.285065
 30
0.0
 10
115.713372
 20
201.206765
 30
0.0
 10
116.031189
 20
200.992865
 30
0.0
 10
116.245078
 20
200.675063
 30
0.0
  0
LWPOLYLINE
  5
116
100
AcDbEntity
  8
Layer_1
 62
7
100
AcDbPolyline
 90
16
 70
1
 10
126.639204
 20
219.381396
 30
0.0
 10
126.409704
 20
220.517995
 30
0.0
 10
125.784004
 20
221.446196
 30
0.0
 10
124.855805
 20
222.071896
 30
0.0
 10
123.719205
 20
222.301395
 30
0.0
 10
122.582605
 20
222.071896
 30
0.0
 10
121.654455
 20
221.446196
 30
0.0
 10
121.028676
 20
220.517995
 30
0.0
 10
120.799206
 20
219.381396
 30
0.0
 10
121.028676
 20
218.244797
 30
0.0
 10
121.654455
 20
217.316596
 30
0.0
 10
122.582605
 20
216.690897
 30
0.0
 10
123.719205
 20
216.461397
 30
0.0
 10
124.855805
 20
216.690897
 30
0.0
 10
125.784004
 20
217.316596
 30
0.0
 10
126.409704
 20
218.244797
 30
0.0
  0
LWPOLYLINE
  5
117
100
AcDbEntity
  8
Layer_1
 62
7
100
AcDbPolyline
 90
243
 70
1
 10
119.181926
 20
148.566719
 30
0.0
 10
118.526712
 20
148.605348
 30
0.0
 10
117.934469
 20
148.734994
 30
0.0
 10
117.402630
 20
148.951158
 30
0.0
 10
116.928682
 20
149.248285
 30
0.0
 10
116.510085
 20
149.620818
 30
0.0
 10
116.144285
 20
150.063995
 30
0.0
 10
115.828783
 20
150.572260
 30
0.0
 10
115.561030
 20
151.140585
 30
0.0
 10
115.338499
 20
151.763414
 30
0.0
 10
115.158654
 20
152.435984
 30
0.0
 10
115.018965
 20
153.152582
 30
0.0
 10
114.916896
 20
153.908205
 30
0.0
 10
114.815497
 20
155.515416
 30
0.0
 10
114.834196
 20
157.215549
 30
0.0
 10
114.952732
 20
158.966693
 30
0.0
 10
115.150849
 20
160.726886
 30
0.0
 10
115.408281
 20
162.454165
 30
0.0
 10
115.704773
 20
164.106567
 30
0.0
 10
116.333891
 20
167.018914
 30
0.0
 10
116.876109
 20
169.128277
 30
0.0
 10
117.701292
 20
172.215329
 30
0.0
 10
118.418788
 20
175.157945
 30
0.0
 10
119.034182
 20
177.960789
 30
0.0
 10
119.552977
 20
180.628503
 30
0.0
 10
119.980729
 20
183.165742
 30
0.0
 10
120.322941
 20
185.577154
 30
0.0
 10
120.585143
 20
187.867387
 30
0.0
 10
120.772865
 20
190.041097
 30
0.0
 10
120.891637
 20
192.102941
 30
0.0
 10
120.946988
 20
194.057550
 30
0.0
 10
120.944448
 20
195.909580
 30
0.0
 10
120.889547
 20
197.663688
 30
0.0
 10
120.787814
 20
199.324530
 30
0.0
 10
120.644754
 20
200.896736
 30
0.0
 10
120.465949
 20
202.384991
 30
0.0
 10
120.256875
 20
203.793897
 30
0.0
 10
119.770094
 20
206.392448
 30
0.0
 10
119.228678
 20
208.729248
 30
0.0
 10
118.158782
 20
212.767582
 30
0.0
 10
117.718754
 20
214.543465
 30
0.0
 10
117.400990
 20
216.206371
 30
0.0
 10
117.301798
 20
217.007264
 30
0.0
 10
117.249728
 20
217.794135
 30
0.0
 10
117.250336
 20
218.571216
 30
0.0
 10
117.309179
 20
219.343270
 30
0.0
 10
117.541245
 20
220.702698
 30
0.0
 10
117.887268
 20
221.912373
 30
0.0
 10
118.324915
 20
222.991873
 30
0.0
 10
118.831804
 20
223.960777
 30
0.0
 10
119.385656
 20
224.838664
 30
0.0
 10
119.964113
 20
225.644849
 30
0.0
 10
121.105499
 20
227.119906
 30
0.0
 10
121.623765
 20
227.828195
 30
0.0
 10
122.077288
 20
228.542570
 30
0.0
 10
122.443762
 20
229.282610
 30
0.0
 10
122.700831
 20
230.067893
 30
0.0
 10
122.826164
 20
230.917999
 30
0.0
 10
122.832461
 20
231.373347
 30
0.0
 10
122.797430
 20
231.852242
 30
0.0
 10
122.718320
 20
232.357067
 30
0.0
 10
122.592325
 20
232.890202
 30
0.0
 10
122.188465
 20
234.051458
 30
0.0
 10
122.049956
 20
234.320539
 30
0.0
 10
121.869431
 20
234.564221
 30
0.0
 10
121.648001
 20
234.783296
 30
0.0
 10
121.386778
 20
234.978558
 30
0.0
 10
120.749530
 20
235.300291
 30
0.0
 10
119.966734
 20
235.534183
 30
0.0
 10
119.047465
 20
235.686054
 30
0.0
 10
118.000774
 20
235.760931
 30
0.0
 10
116.835735
 20
235.764635
 30
0.0
 10
115.561340
 20
235.702193
 30
0.0
 10
114.186695
 20
235.579162
 30
0.0
 10
112.720836
 20
235.400833
 30
0.0
 10
109.551705
 20
234.899712
 30
0.0
 10
106.126357
 20
234.242223
 30
0.0
 10
102.517230
 20
233.471227
 30
0.0
 10
95.037329
 20
231.760961
 30
0.0
 10
91.311441
 20
230.907680
 30
0.0
 10
87.691466
 20
230.112872
 30
0.0
 10
84.249924
 20
229.419928
 30
0.0
 10
81.059050
 20
228.871712
 30
0.0
 10
79.580294
 20
228.665337
 30
0.0
 10
78.191497
 20
228.511349
 30
0.0
 10
76.901389
 20
228.414777
 30
0.0
 10
75.719495
 20
228.381439
 30
0.0
 10
74.611421
 20
228.421920
 30
0.0
 10
73.538271
 20
228.539924
 30
0.0
 10
72.501369
 20
228.731483
 30
0.0
 10
71.502038
 20
228.992362
 30
0.0
 10
70.541601
 20
229.318328
 30
0.0
 10
69.621380
 20
229.704885
 30
0.0
 10
68.742699
 20
230.148326
 30
0.0
 10
67.906881
 20
230.643890
 30
0.0
 10
67.115248
 20
231.187609
 30
0.0
 10
66.369388
 20
231.775513
 30
0.0
 10
65.670359
 20
232.402840
 30
0.0
 10
65.019484
 20
233.065356
 30
0.0
 10
64.418351
 20
233.759358
 30
0.0
 10
63.868017
 20
234.480348
 30
0.0
 10
63.370072
 20
235.223827
 30
0.0
 10
62.925572
 20
235.985826
 30
0.0
 10
62.536370
 20
236.762114
 30
0.0
 10
62.202995
 20
237.548455
 30
0.0
 10
61.927564
 20
238.340618
 30
0.0
 10
61.711135
 20
239.134103
 30
0.0
 10
61.554766
 20
239.924942
 30
0.0
 10
61.460310
 20
240.709167
 30
0.0
 10
61.428560
 20
241.481750
 30
0.0
 10
61.461368
 20
242.239252
 30
0.0
 10
61.559793
 20
242.977175
 30
0.0
 10
61.725158
 20
243.691020
 30
0.0
 10
61.958785
 20
244.376820
 30
0.0
 10
62.262262
 20
245.030341
 30
0.0
 10
62.636647
 20
245.647084
 30
0.0
 10
63.083264
 20
246.223347
 30
0.0
 10
63.603699
 20
246.754365
 30
0.0
 10
64.199276
 20
247.236171
 30
0.0
 10
64.583980
 20
247.460009
 30
0.0
 10
65.102034
 20
247.675644
 30
0.0
 10
65.748940
 20
247.883606
 30
0.0
 10
66.520465
 20
248.083896
 30
0.0
 10
68.420966
 20
248.461456
 30
0.0
 10
70.769672
 20
248.809912
 30
0.0
 10
73.532450
 20
249.130323
 30
0.0
 10
76.675435
 20
249.424010
 30
0.0
 10
80.164759
 20
249.691504
 30
0.0
 10
83.966291
 20
249.934656
 30
0.0
 10
92.371070
 20
250.351639
 30
0.0
 10
101.618202
 20
250.684220
 30
0.0
 10
111.436373
 20
250.941131
 30
0.0
 10
121.554206
 20
251.131895
 30
0.0
 10
131.700313
 20
251.265774
 30
0.0
 10
141.603373
 20
251.351764
 30
0.0
 10
159.594505
 20
251.417645
 30
0.0
 10
173.356803
 20
251.402828
 30
0.0
 10
180.719362
 20
251.381662
 30
0.0
 10
182.413753
 20
251.322131
 30
0.0
 10
184.053905
 20
251.148564
 30
0.0
 10
185.631615
 20
250.869164
 30
0.0
 10
187.139739
 20
250.491868
 30
0.0
 10
188.570605
 20
250.024350
 30
0.0
 10
189.916805
 20
249.474281
 30
0.0
 10
191.170665
 20
248.850129
 30
0.0
 10
192.324513
 20
248.159302
 30
0.0
 10
193.370675
 20
247.410002
 30
0.0
 10
194.302008
 20
246.609903
 30
0.0
 10
195.110839
 20
245.766940
 30
0.0
 10
195.789495
 20
244.889318
 30
0.0
 10
196.330565
 20
243.984443
 30
0.0
 10
196.726384
 20
243.060518
 30
0.0
 10
196.969269
 20
242.125481
 30
0.0
 10
197.031184
 20
241.656110
 30
0.0
 10
197.052086
 20
241.187004
 30
0.0
 10
197.017955
 20
240.139519
 30
0.0
 10
196.921115
 20
238.888834
 30
0.0
 10
196.575569
 20
235.926824
 30
0.0
 10
196.086357
 20
232.598102
 30
0.0
 10
195.525176
 20
229.199795
 30
0.0
 10
194.469754
 20
223.382662
 30
0.0
 10
193.978952
 20
220.851659
 30
0.0
 10
193.985037
 20
220.784455
 30
0.0
 10
189.139989
 20
220.688411
 30
0.0
 10
189.188937
 20
219.381634
 30
0.0
 10
189.171474
 20
218.026174
 30
0.0
 10
190.222134
 20
217.980137
 30
0.0
 10
190.091165
 20
214.982938
 30
0.0
 10
189.038653
 20
215.028710
 30
0.0
 10
188.803965
 20
212.326786
 30
0.0
 10
189.846955
 20
212.189203
 30
0.0
 10
189.455636
 20
209.215287
 30
0.0
 10
188.415292
 20
209.352077
 30
0.0
 10
187.940104
 20
206.681109
 30
0.0
 10
188.968274
 20
206.453038
 30
0.0
 10
188.319251
 20
203.524630
 30
0.0
 10
187.290287
 20
203.752516
 30
0.0
 10
186.593375
 20
201.130972
 30
0.0
 10
187.593235
 20
200.815748
 30
0.0
 10
186.691006
 20
197.954438
 30
0.0
 10
185.687968
 20
198.270695
 30
0.0
 10
184.758754
 20
195.722520
 30
0.0
 10
185.731892
 20
195.319454
 30
0.0
 10
184.584129
 20
192.547521
 30
0.0
 10
183.613109
 20
192.949555
 30
0.0
 10
182.465344
 20
190.491841
 30
0.0
 10
183.398532
 20
190.006066
 30
0.0
 10
182.013703
 20
187.345258
 30
0.0
 10
181.079460
 20
187.831536
 30
0.0
 10
179.725587
 20
185.480766
 30
0.0
 10
180.611145
 20
184.916463
 30
0.0
 10
178.999568
 20
182.386386
 30
0.0
 10
178.114275
 20
182.950186
 30
0.0
 10
176.555615
 20
180.730679
 30
0.0
 10
177.391169
 20
180.089375
 30
0.0
 10
175.565015
 20
177.709160
 30
0.0
 10
174.729991
 20
178.349946
 30
0.0
 10
172.988504
 20
176.269962
 30
0.0
 10
173.762145
 20
175.560958
 30
0.0
 10
171.735173
 20
173.349227
 30
0.0
 10
170.959679
 20
174.060295
 30
0.0
 10
169.041450
 20
172.142066
 30
0.0
 10
169.752386
 20
171.365885
 30
0.0
 10
167.540734
 20
169.339124
 30
0.0
 10
166.831651
 20
170.113242
 30
0.0
 10
164.751762
 20
168.371755
 30
0.0
 10
165.392583
 20
167.536650
 30
0.0
 10
163.012392
 20
165.710417
 30
0.0
 10
162.371042
 20
166.546024
 30
0.0
 10
160.151453
 20
164.986941
 30
0.0
 10
160.715280
 20
164.101725
 30
0.0
 10
158.185335
 20
162.489936
 30
0.0
 10
157.620979
 20
163.375682
 30
0.0
 10
155.270156
 20
162.021756
 30
0.0
 10
155.756460
 20
161.087963
 30
0.0
 10
153.095547
 20
159.702499
 30
0.0
 10
152.609772
 20
160.635790
 30
0.0
 10
150.151529
 20
159.487525
 30
0.0
 10
150.553695
 20
158.517563
 30
0.0
 10
147.782186
 20
157.369324
 30
0.0
 10
147.379225
 20
158.341879
 30
0.0
 10
144.830495
 20
157.413245
 30
0.0
 10
145.146672
 20
156.410210
 30
0.0
 10
142.285998
 20
155.508457
 30
0.0
 10
141.970614
 20
156.507868
 30
0.0
 10
139.349150
 20
155.810241
 30
0.0
 10
139.577062
 20
154.782388
 30
0.0
 10
136.648046
 20
154.133339
 30
0.0
 10
136.420134
 20
155.161192
 30
0.0
 10
133.749510
 20
154.685762
 30
0.0
 10
133.886459
 20
153.646029
 30
0.0
 10
130.911961
 20
153.254340
 30
0.0
 10
130.775013
 20
154.296640
 30
0.0
 10
128.072320
 20
154.062034
 30
0.0
 10
128.118332
 20
153.009892
 30
0.0
 10
125.121609
 20
152.879161
 30
0.0
 10
125.075624
 20
153.929213
 30
0.0
 10
123.719106
 20
153.911644
 30
0.0
 10
122.406006
 20
153.960751
 30
0.0
 10
122.317132
 20
150.130935
 30
0.0
 10
120.998872
 20
150.238885
 30
0.0
 10
119.539511
 20
148.583917
 30
0.0
 10
119.181927
 20
148.566719
 30
0.0
  0
LWPOLYLINE
  5
118
100
AcDbEntity
  8
Layer_1
 62
7
100
AcDbPolyline
 90
4
 70
1
 10
65.719222
 20
242.381386
 30
0.0
 10
71.719219
 20
242.381386
 30
0.0
 10
71.719219
 20
245.381390
 30
0.0
 10
65.719222
 20
245.381390
 30
0.0
  0
LWPOLYLINE
  5
119
100
AcDbEntity
  8
Layer_1
 62
7
100
AcDbPolyline
 90
4
 70
1
 10
89.719215
 20
242.381386
 30
0.0
 10
95.719213
 20
242.381386
 30
0.0
 10
95.719213
 20
245.381390
 30
0.0
 10
89.719215
 20
245.381390
 30
0.0
  0
LWPOLYLINE
  5
11a
100
AcDbEntity
  8
Layer_1
 62
7
100
AcDbPolyline
 90
16
 70
1
 10
156.396196
 20
223.386795
 30
0.0
 10
156.071796
 20
223.603497
 30
0.0
 10
155.689095
 20
223.679596
 30
0.0
 10
155.306396
 20
223.603497
 30
0.0
 10
154.981996
 20
223.386795
 30
0.0
 10
154.762297
 20
223.055997
 30
0.0
 10
154.689097
 20
222.679596
 30
0.0
 10
154.762297
 20
222.303295
 30
0.0
 10
154.981996
 20
221.972497
 30
0.0
 10
155.306396
 20
221.755795
 30
0.0
 10
155.689095
 20
221.679595
 30
0.0
 10
156.071796
 20
221.755795
 30
0.0
 10
156.396196
 20
221.972497
 30
0.0
 10
156.615896
 20
222.303295
 30
0.0
 10
156.689095
 20
222.679596
 30
0.0
 10
156.615896
 20
223.055997
 30
0.0
  0
LWPOLYLINE
  5
11b
100
AcDbEntity
  8
Layer_1
 62
7
100
AcDbPolyline
 90
16
 70
1
 10
181.144888
 20
248.135490
 30
0.0
 10
180.820488
 20
248.352289
 30
0.0
 10
180.437790
 20
248.428383
 30
0.0
 10
180.055189
 20
248.352289
 30
0.0
 10
179.730688
 20
248.135490
 30
0.0
 10
179.513989
 20
247.811084
 30
0.0
 10
179.437789
 20
247.428391
 30
0.0
 10
179.513989
 20
247.045698
 30
0.0
 10
179.730688
 20
246.721292
 30
0.0
 10
180.055189
 20
246.504493
 30
0.0
 10
180.437790
 20
246.428399
 30
0.0
 10
180.820488
 20
246.504493
 30
0.0
 10
181.144888
 20
246.721292
 30
0.0
 10
181.361688
 20
247.045698
 30
0.0
 10
181.437787
 20
247.428391
 30
0.0
 10
181.361688
 20
247.811084
 30
0.0
  0
LWPOLYLINE
  5
11c
100
AcDbEntity
  8
Layer_1
 62
7
100
AcDbPolyline
 90
32
 70
1
 10
176.972990
 20
232.649881
 30
0.0
 10
176.251389
 20
233.239294
 30
0.0
 10
175.451290
 20
233.660298
 30
0.0
 10
174.598890
 20
233.913002
 30
0.0
 10
173.720291
 20
233.997192
 30
0.0
 10
172.841792
 20
233.913002
 30
0.0
 10
171.989292
 20
233.660298
 30
0.0
 10
171.189292
 20
233.239294
 30
0.0
 10
170.467591
 20
232.649881
 30
0.0
 10
169.878192
 20
231.928204
 30
0.0
 10
169.457193
 20
231.128104
 30
0.0
 10
169.204492
 20
230.275696
 30
0.0
 10
169.120291
 20
229.397201
 30
0.0
 10
169.204492
 20
228.518599
 30
0.0
 10
169.457193
 20
227.666191
 30
0.0
 10
169.878192
 20
226.866094
 30
0.0
 10
170.467591
 20
226.144496
 30
0.0
 10
171.189292
 20
225.554994
 30
0.0
 10
171.989292
 20
225.133994
 30
0.0
 10
172.841792
 20
224.881394
 30
0.0
 10
173.720291
 20
224.797196
 30
0.0
 10
174.598890
 20
224.881394
 30
0.0
 10
175.451290
 20
225.133994
 30
0.0
 10
176.251389
 20
225.554994
 30
0.0
 10
176.972990
 20
226.144496
 30
0.0
 10
177.562489
 20
226.866094
 30
0.0
 10
177.983489
 20
227.666191
 30
0.0
 10
178.236089
 20
228.518599
 30
0.0
 10
178.320290
 20
229.397201
 30
0.0
 10
178.236089
 20
230.275696
 30
0.0
 10
177.983489
 20
231.128104
 30
0.0
 10
177.562489
 20
231.928204
 30
0.0
  0
LWPOLYLINE
  5
11d
100
AcDbEntity
  8
Layer_1
 62
7
100
AcDbPolyline
 90
4
 70
1
 10
128.719203
 20
221.381397
 30
0.0
 10
134.719202
 20
221.381397
 30
0.0
 10
134.719202
 20
224.381395
 30
0.0
 10
128.719203
 20
224.381395
 30
0.0
  0
LWPOLYLINE
  5
11e
100
AcDbEntity
  8
Layer_1
 62
7
100
AcDbPolyline
 90
4
 70
1
 10
142.719200
 20
221.381397
 30
0.0
 10
148.719197
 20
221.381397
 30
0.0
 10
148.719197
 20
224.381395
 30
0.0
 10
142.719200
 20
224.381395
 30
0.0
  0
LWPOLYLINE
  5
11f
100
AcDbEntity
  8
Layer_1
 62
7
100
AcDbPolyline
 90
4
 70
1
 10
123.719205
 20
242.381386
 30
0.0
 10
129.719203
 20
242.381386
 30
0.0
 10
129.719203
 20
245.381390
 30
0.0
 10
123.719205
 20
245.381390
 30
0.0
  0
LWPOLYLINE
  5
120
100
AcDbEntity
  8
Layer_1
 62
7
100
AcDbPolyline
 90
4
 70
1
 10
142.719200
 20
242.381386
 30
0.0
 10
148.719197
 20
242.381386
 30
0.0
 10
148.719197
 20
245.381390
 30
0.0
 10
142.719200
 20
245.381390
 30
0.0
  0
LWPOLYLINE
  5
121
100
AcDbEntity
  8
Layer_1
 62
7
100
AcDbPolyline
 90
64
 70
1
 10
169.617591
 20
194.819203
 30
0.0
 10
169.510393
 20
196.984804
 30
0.0
 10
169.192692
 20
199.113702
 30
0.0
 10
168.670592
 20
201.191501
 30
0.0
 10
167.949793
 20
203.204000
 30
0.0
 10
167.036394
 20
205.136601
 30
0.0
 10
165.936394
 20
206.975100
 30
0.0
 10
164.655695
 20
208.705099
 30
0.0
 10
163.200193
 20
210.312199
 30
0.0
 10
161.593093
 20
211.767698
 30
0.0
 10
159.863094
 20
213.048397
 30
0.0
 10
158.024595
 20
214.148397
 30
0.0
 10
156.091994
 20
215.061797
 30
0.0
 10
154.079497
 20
215.782498
 30
0.0
 10
152.001696
 20
216.304698
 30
0.0
 10
149.872798
 20
216.622399
 30
0.0
 10
147.707197
 20
216.729597
 30
0.0
 10
145.541700
 20
216.622399
 30
0.0
 10
143.412799
 20
216.304698
 30
0.0
 10
141.334900
 20
215.782498
 30
0.0
 10
139.322501
 20
215.061797
 30
0.0
 10
137.389801
 20
214.148397
 30
0.0
 10
135.551302
 20
213.048397
 30
0.0
 10
133.821302
 20
211.767698
 30
0.0
 10
132.214202
 20
210.312199
 30
0.0
 10
130.758703
 20
208.705099
 30
0.0
 10
129.478003
 20
206.975100
 30
0.0
 10
128.378004
 20
205.136601
 30
0.0
 10
127.464704
 20
203.204000
 30
0.0
 10
126.743904
 20
201.191501
 30
0.0
 10
126.221704
 20
199.113702
 30
0.0
 10
125.904004
 20
196.984804
 30
0.0
 10
125.796804
 20
194.819203
 30
0.0
 10
125.904004
 20
192.653605
 30
0.0
 10
126.221704
 20
190.524705
 30
0.0
 10
126.743904
 20
188.446885
 30
0.0
 10
127.464704
 20
186.434457
 30
0.0
 10
128.378004
 20
184.501806
 30
0.0
 10
129.478003
 20
182.663307
 30
0.0
 10
130.758703
 20
180.933318
 30
0.0
 10
132.214202
 20
179.326213
 30
0.0
 10
133.821302
 20
177.870727
 30
0.0
 10
135.551302
 20
176.590010
 30
0.0
 10
137.389801
 20
175.489989
 30
0.0
 10
139.322501
 20
174.576639
 30
0.0
 10
141.334900
 20
173.855891
 30
0.0
 10
143.412799
 20
173.333699
 30
0.0
 10
145.541700
 20
173.016019
 30
0.0
 10
147.707197
 20
172.908810
 30
0.0
 10
149.872798
 20
173.016019
 30
0.0
 10
152.001696
 20
173.333699
 30
0.0
 10
154.079497
 20
173.855891
 30
0.0
 10
156.091994
 20
174.576639
 30
0.0
 10
158.024595
 20
175.489989
 30
0.0
 10
159.863094
 20
176.590010
 30
0.0
 10
161.593093
 20
177.870727
 30
0.0
 10
163.200193
 20
179.326213
 30
0.0
 10
164.655695
 20
180.933318
 30
0.0
 10
165.936394
 20
182.663307
 30
0.0
 10
167.036394
 20
184.501806
 30
0.0
 10
167.949793
 20
186.434457
 30
0.0
 10
168.670592
 20
188.446885
 30
0.0
 10
169.192692
 20
190.524705
 30
0.0
 10
169.510393
 20
192.653605
 30
0.0
  0
LWPOLYLINE
  5
122
100
AcDbEntity
  8
Layer_1
 62
7
100
AcDbPolyline
 90
4
 70
1
 10
187.719187
 20
242.381386
 30
0.0
 10
193.719187
 20
242.381386
 30
0.0
 10
193.719187
 20
245.381390
 30
0.0
 10
187.719187
 20
245.381390
 30
0.0
  0
LWPOLYLINE
  5
123
100
AcDbEntity
  8
Layer_1
 62
7
100
AcDbPolyline
 90
20
 70
1
 10
142.219198
 20
231.381390
 30
0.0
 10
157.219196
 20
231.381390
 30
0.0
 10
157.609194
 20
231.459680
 30
0.0
 10
157.926996
 20
231.673596
 30
0.0
 10
158.140895
 20
231.991387
 30
0.0
 10
158.219196
 20
232.381382
 30
0.0
 10
158.219196
 20
237.381397
 30
0.0
 10
158.140895
 20
237.771393
 30
0.0
 10
157.926996
 20
238.089184
 30
0.0
 10
157.609194
 20
238.303100
 30
0.0
 10
157.219196
 20
238.381390
 30
0.0
 10
142.219198
 20
238.381390
 30
0.0
 10
141.829200
 20
238.303100
 30
0.0
 10
141.511401
 20
238.089184
 30
0.0
 10
141.297501
 20
237.771393
 30
0.0
 10
141.219201
 20
237.381397
 30
0.0
 10
141.219201
 20
232.381382
 30
0.0
 10
141.297501
 20
231.991387
 30
0.0
 10
141.511401
 20
231.673596
 30
0.0
 10
141.829200
 20
231.459680
 30
0.0
  0
LWPOLYLINE
  5
124
100
AcDbEntity
  8
Layer_1
 62
7
100
AcDbPolyline
 90
20
 70
1
 10
70.219220
 20
232.381382
 30
0.0
 10
85.219217
 20
232.381382
 30
0.0
 10
85.609215
 20
232.459699
 30
0.0
 10
85.927014
 20
232.673588
 30
0.0
 10
86.140914
 20
232.991405
 30
0.0
 10
86.219215
 20
233.381401
 30
0.0
 10
86.219215
 20
238.381390
 30
0.0
 10
86.140914
 20
238.771386
 30
0.0
 10
85.927014
 20
239.089203
 30
0.0
 10
85.609215
 20
239.303092
 30
0.0
 10
85.219217
 20
239.381382
 30
0.0
 10
70.219220
 20
239.381382
 30
0.0
 10
69.829221
 20
239.303092
 30
0.0
 10
69.511420
 20
239.089203
 30
0.0
 10
69.297520
 20
238.771386
 30
0.0
 10
69.219219
 20
238.381390
 30
0.0
 10
69.219219
 20
233.381401
 30
0.0
 10
69.297520
 20
232.991405
 30
0.0
 10
69.511420
 20
232.673588
 30
0.0
 10
69.829221
 20
232.459699
 30
0.0
  0
LWPOLYLINE
  5
125
100
AcDbEntity
  8
Layer_1
 62
7
100
AcDbPolyline
 90
12
 70
1
 10
95.786788
 20
28.544402
 30
0.0
 10
95.786788
 20
22.544765
 30
0.0
 10
98.786604
 20
22.544765
 30
0.0
 10
98.786604
 20
14.544746
 30
0.0
 10
95.786788
 20
14.544746
 30
0.0
 10
95.786788
 20
8.544580
 30
0.0
 10
187.786317
 20
8.544580
 30
0.0
 10
187.786317
 20
14.544746
 30
0.0
 10
184.786501
 20
14.544746
 30
0.0
 10
184.786501
 20
22.544765
 30
0.0
 10
187.786317
 20
22.544765
 30
0.0
 10
187.786317
 20
28.544402
 30
0.0
  0
LWPOLYLINE
  5
126
100
AcDbEntity
  8
Layer_1
 62
7
100
AcDbPolyline
 90
32
 70
1
 10
94.309861
 20
208.557287
 30
0.0
 10
94.115861
 20
206.597188
 30
0.0
 10
93.548661
 20
204.730389
 30
0.0
 10
92.629662
 20
203.009288
 30
0.0
 10
91.380862
 20
201.486188
 30
0.0
 10
89.857862
 20
200.237390
 30
0.0
 10
88.136663
 20
199.318489
 30
0.0
 10
86.269863
 20
198.751188
 30
0.0
 10
84.309864
 20
198.557289
 30
0.0
 10
82.294464
 20
198.760391
 30
0.0
 10
80.417565
 20
199.343090
 30
0.0
 10
78.718565
 20
200.265089
 30
0.0
 10
77.238566
 20
201.486188
 30
0.0
 10
76.017566
 20
202.966188
 30
0.0
 10
75.095567
 20
204.664788
 30
0.0
 10
74.512567
 20
206.541888
 30
0.0
 10
74.309567
 20
208.557287
 30
0.0
 10
74.512567
 20
210.572586
 30
0.0
 10
75.095567
 20
212.449685
 30
0.0
 10
76.017566
 20
214.148386
 30
0.0
 10
77.238566
 20
215.628285
 30
0.0
 10
78.718565
 20
216.849385
 30
0.0
 10
80.417565
 20
217.771394
 30
0.0
 10
82.294464
 20
218.354083
 30
0.0
 10
84.309864
 20
218.557243
 30
0.0
 10
86.325163
 20
218.354083
 30
0.0
 10
88.202263
 20
217.771394
 30
0.0
 10
89.900962
 20
216.849385
 30
0.0
 10
91.380862
 20
215.628285
 30
0.0
 10
92.601962
 20
214.148386
 30
0.0
 10
93.523961
 20
212.449685
 30
0.0
 10
94.106661
 20
210.572586
 30
0.0
  0
LWPOLYLINE
  5
127
100
AcDbEntity
  8
Layer_1
 62
7
100
AcDbPolyline
 90
18
 70
1
 10
82.351955
 20
209.949000
 30
0.0
 10
82.161719
 20
209.631368
 30
0.0
 10
82.023237
 20
209.290347
 30
0.0
 10
81.938543
 20
208.932127
 30
0.0
 10
81.909598
 20
208.563034
 30
0.0
 10
81.939046
 20
208.190289
 30
0.0
 10
82.025352
 20
207.828789
 30
0.0
 10
82.166455
 20
207.484936
 30
0.0
 10
82.360237
 20
207.165187
 30
0.0
 10
86.259214
 20
207.165187
 30
0.0
 10
86.452995
 20
207.484936
 30
0.0
 10
86.594071
 20
207.828789
 30
0.0
 10
86.680378
 20
208.190289
 30
0.0
 10
86.709826
 20
208.563034
 30
0.0
 10
86.681251
 20
208.932048
 30
0.0
 10
86.596928
 20
209.290214
 30
0.0
 10
86.458868
 20
209.631262
 30
0.0
 10
86.269030
 20
209.949000
 30
0.0
  0
LWPOLYLINE
  5
128
100
AcDbEntity
  8
Layer_1
 62
7
100
AcDbPolyline
 90
16
 70
1
 10
85.309864
 20
215.057285
 30
0.0
 10
85.233664
 20
214.674584
 30
0.0
 10
85.016964
 20
214.350184
 30
0.0
 10
84.692464
 20
214.133384
 30
0.0
 10
84.309864
 20
214.057285
 30
0.0
 10
83.927164
 20
214.133384
 30
0.0
 10
83.602764
 20
214.350184
 30
0.0
 10
83.385964
 20
214.674584
 30
0.0
 10
83.309864
 20
215.057285
 30
0.0
 10
83.385964
 20
215.439886
 30
0.0
 10
83.602764
 20
215.764384
 30
0.0
 10
83.927164
 20
215.981086
 30
0.0
 10
84.309864
 20
216.057286
 30
0.0
 10
84.692464
 20
215.981086
 30
0.0
 10
85.016964
 20
215.764384
 30
0.0
 10
85.233664
 20
215.439886
 30
0.0
  0
LWPOLYLINE
  5
129
100
AcDbEntity
  8
Layer_1
 62
7
100
AcDbPolyline
 90
16
 70
1
 10
85.309864
 20
202.057289
 30
0.0
 10
85.233664
 20
201.674590
 30
0.0
 10
85.016964
 20
201.350190
 30
0.0
 10
84.692464
 20
201.133390
 30
0.0
 10
84.309864
 20
201.057288
 30
0.0
 10
83.927164
 20
201.133390
 30
0.0
 10
83.602764
 20
201.350190
 30
0.0
 10
83.385964
 20
201.674590
 30
0.0
 10
83.309864
 20
202.057289
 30
0.0
 10
83.385964
 20
202.439889
 30
0.0
 10
83.602764
 20
202.764387
 30
0.0
 10
83.927164
 20
202.981089
 30
0.0
 10
84.309864
 20
203.057289
 30
0.0
 10
84.692464
 20
202.981089
 30
0.0
 10
85.016964
 20
202.764387
 30
0.0
 10
85.233664
 20
202.439889
 30
0.0
  0
LWPOLYLINE
  5
12a
100
AcDbEntity
  8
Layer_1
 62
7
100
AcDbPolyline
 90
28
 70
1
 10
101.296360
 20
216.734984
 30
0.0
 10
101.218760
 20
215.950984
 30
0.0
 10
100.991859
 20
215.204285
 30
0.0
 10
100.624260
 20
214.515784
 30
0.0
 10
100.124758
 20
213.906586
 30
0.0
 10
99.515561
 20
213.406984
 30
0.0
 10
98.827060
 20
213.039486
 30
0.0
 10
98.080360
 20
212.812585
 30
0.0
 10
97.296360
 20
212.734985
 30
0.0
 10
96.512360
 20
212.812585
 30
0.0
 10
95.765561
 20
213.039486
 30
0.0
 10
95.077161
 20
213.406984
 30
0.0
 10
94.467961
 20
213.906586
 30
0.0
 10
93.968361
 20
214.515784
 30
0.0
 10
93.600861
 20
215.204285
 30
0.0
 10
93.373861
 20
215.950984
 30
0.0
 10
93.296361
 20
216.734984
 30
0.0
 10
93.377561
 20
217.541114
 30
0.0
 10
93.610661
 20
218.291953
 30
0.0
 10
94.467961
 20
219.563403
 30
0.0
 10
95.739361
 20
220.420634
 30
0.0
 10
96.490160
 20
220.653703
 30
0.0
 10
97.296360
 20
220.734972
 30
0.0
 10
98.102460
 20
220.653703
 30
0.0
 10
98.853359
 20
220.420634
 30
0.0
 10
100.124758
 20
219.563403
 30
0.0
 10
100.981961
 20
218.291953
 30
0.0
 10
101.215058
 20
217.541114
 30
0.0
  0
LWPOLYLINE
  5
12b
100
AcDbEntity
  8
Layer_1
 62
7
100
AcDbPolyline
 90
16
 70
1
 10
99.796360
 20
216.734984
 30
0.0
 10
99.606059
 20
215.778285
 30
0.0
 10
99.064060
 20
214.967184
 30
0.0
 10
98.253060
 20
214.425286
 30
0.0
 10
97.296360
 20
214.234984
 30
0.0
 10
96.339660
 20
214.425286
 30
0.0
 10
95.528561
 20
214.967184
 30
0.0
 10
94.986661
 20
215.778285
 30
0.0
 10
94.796361
 20
216.734984
 30
0.0
 10
94.992761
 20
217.708084
 30
0.0
 10
95.528561
 20
218.502744
 30
0.0
 10
96.323261
 20
219.038515
 30
0.0
 10
97.296360
 20
219.234973
 30
0.0
 10
98.269460
 20
219.038515
 30
0.0
 10
99.064060
 20
218.502744
 30
0.0
 10
99.599860
 20
217.708084
 30
0.0
  0
LWPOLYLINE
  5
12c
100
AcDbEntity
  8
Layer_1
 62
7
100
AcDbPolyline
 90
2
 70
0
 10
77.643566
 20
208.562888
 30
0.0
 10
90.975662
 20
208.562888
 30
0.0
  0
LWPOLYLINE
  5
12d
100
AcDbEntity
  8
Layer_1
 62
7
100
AcDbPolyline
 90
2
 70
0
 10
80.155565
 20
205.286289
 30
0.0
 10
88.464463
 20
205.286289
 30
0.0
  0
LWPOLYLINE
  5
12e
100
AcDbEntity
  8
Layer_1
 62
7
100
AcDbPolyline
 90
2
 70
0
 10
80.155565
 20
211.828187
 30
0.0
 10
88.464463
 20
211.828187
 30
0.0
  0
LWPOLYLINE
  5
12f
100
AcDbEntity
  8
Layer_1
 62
7
100
AcDbPolyline
 90
32
 70
1
 10
62.954628
 20
193.991714
 30
0.0
 10
62.760628
 20
192.031615
 30
0.0
 10
62.193429
 20
190.164816
 30
0.0
 10
61.274429
 20
188.443715
 30
0.0
 10
60.025629
 20
186.920615
 30
0.0
 10
58.502629
 20
185.671817
 30
0.0
 10
56.781430
 20
184.752916
 30
0.0
 10
54.914630
 20
184.185615
 30
0.0
 10
52.954631
 20
183.991716
 30
0.0
 10
50.939231
 20
184.194818
 30
0.0
 10
49.062332
 20
184.777517
 30
0.0
 10
47.363333
 20
185.699516
 30
0.0
 10
45.883333
 20
186.920615
 30
0.0
 10
44.662333
 20
188.400615
 30
0.0
 10
43.740334
 20
190.099215
 30
0.0
 10
43.157334
 20
191.976315
 30
0.0
 10
42.954334
 20
193.991714
 30
0.0
 10
43.157334
 20
196.007013
 30
0.0
 10
43.740334
 20
197.884112
 30
0.0
 10
44.662333
 20
199.582813
 30
0.0
 10
45.883333
 20
201.062712
 30
0.0
 10
47.363333
 20
202.283812
 30
0.0
 10
49.062332
 20
203.205821
 30
0.0
 10
50.939231
 20
203.788510
 30
0.0
 10
52.954631
 20
203.991670
 30
0.0
 10
54.969930
 20
203.788510
 30
0.0
 10
56.847030
 20
203.205821
 30
0.0
 10
58.545729
 20
202.283812
 30
0.0
 10
60.025629
 20
201.062712
 30
0.0
 10
61.246729
 20
199.582813
 30
0.0
 10
62.168728
 20
197.884112
 30
0.0
 10
62.751428
 20
196.007013
 30
0.0
  0
LWPOLYLINE
  5
130
100
AcDbEntity
  8
Layer_1
 62
7
100
AcDbPolyline
 90
18
 70
1
 10
50.996722
 20
195.383427
 30
0.0
 10
50.806487
 20
195.065795
 30
0.0
 10
50.668004
 20
194.724774
 30
0.0
 10
50.583311
 20
194.366554
 30
0.0
 10
50.554365
 20
193.997461
 30
0.0
 10
50.583813
 20
193.624716
 30
0.0
 10
50.670120
 20
193.263216
 30
0.0
 10
50.811223
 20
192.919363
 30
0.0
 10
51.005004
 20
192.599614
 30
0.0
 10
54.903981
 20
192.599614
 30
0.0
 10
55.097762
 20
192.919363
 30
0.0
 10
55.238838
 20
193.263216
 30
0.0
 10
55.325145
 20
193.624716
 30
0.0
 10
55.354593
 20
193.997461
 30
0.0
 10
55.326018
 20
194.366475
 30
0.0
 10
55.241695
 20
194.724641
 30
0.0
 10
55.103635
 20
195.065689
 30
0.0
 10
54.913797
 20
195.383427
 30
0.0
  0
LWPOLYLINE
  5
131
100
AcDbEntity
  8
Layer_1
 62
7
100
AcDbPolyline
 90
16
 70
1
 10
53.954631
 20
200.491712
 30
0.0
 10
53.878431
 20
200.109011
 30
0.0
 10
53.661731
 20
199.784611
 30
0.0
 10
53.337231
 20
199.567811
 30
0.0
 10
52.954631
 20
199.491712
 30
0.0
 10
52.571931
 20
199.567811
 30
0.0
 10
52.247531
 20
199.784611
 30
0.0
 10
52.030731
 20
200.109011
 30
0.0
 10
51.954631
 20
200.491712
 30
0.0
 10
52.030731
 20
200.874313
 30
0.0
 10
52.247531
 20
201.198811
 30
0.0
 10
52.571931
 20
201.415513
 30
0.0
 10
52.954631
 20
201.491713
 30
0.0
 10
53.337231
 20
201.415513
 30
0.0
 10
53.661731
 20
201.198811
 30
0.0
 10
53.878431
 20
200.874313
 30
0.0
  0
LWPOLYLINE
  5
132
100
AcDbEntity
  8
Layer_1
 62
7
100
AcDbPolyline
 90
16
 70
1
 10
53.954631
 20
187.491716
 30
0.0
 10
53.878431
 20
187.109017
 30
0.0
 10
53.661731
 20
186.784617
 30
0.0
 10
53.337231
 20
186.567817
 30
0.0
 10
52.954631
 20
186.491715
 30
0.0
 10
52.571931
 20
186.567817
 30
0.0
 10
52.247531
 20
186.784617
 30
0.0
 10
52.030731
 20
187.109017
 30
0.0
 10
51.954631
 20
187.491716
 30
0.0
 10
52.030731
 20
187.874316
 30
0.0
 10
52.247531
 20
188.198814
 30
0.0
 10
52.571931
 20
188.415516
 30
0.0
 10
52.954631
 20
188.491716
 30
0.0
 10
53.337231
 20
188.415516
 30
0.0
 10
53.661731
 20
188.198814
 30
0.0
 10
53.878431
 20
187.874316
 30
0.0
  0
LWPOLYLINE
  5
133
100
AcDbEntity
  8
Layer_1
 62
7
100
AcDbPolyline
 90
28
 70
1
 10
69.941127
 20
202.169411
 30
0.0
 10
69.863527
 20
201.385411
 30
0.0
 10
69.636626
 20
200.638712
 30
0.0
 10
69.269027
 20
199.950211
 30
0.0
 10
68.769526
 20
199.341013
 30
0.0
 10
68.160328
 20
198.841411
 30
0.0
 10
67.471827
 20
198.473913
 30
0.0
 10
66.725127
 20
198.247012
 30
0.0
 10
65.941127
 20
198.169412
 30
0.0
 10
65.157127
 20
198.247012
 30
0.0
 10
64.410328
 20
198.473913
 30
0.0
 10
63.721928
 20
198.841411
 30
0.0
 10
63.112728
 20
199.341013
 30
0.0
 10
62.613128
 20
199.950211
 30
0.0
 10
62.245628
 20
200.638712
 30
0.0
 10
62.018628
 20
201.385411
 30
0.0
 10
61.941129
 20
202.169411
 30
0.0
 10
62.022328
 20
202.975541
 30
0.0
 10
62.255428
 20
203.726380
 30
0.0
 10
63.112728
 20
204.997830
 30
0.0
 10
64.384128
 20
205.855061
 30
0.0
 10
65.134928
 20
206.088130
 30
0.0
 10
65.941127
 20
206.169399
 30
0.0
 10
66.747227
 20
206.088130
 30
0.0
 10
67.498126
 20
205.855061
 30
0.0
 10
68.769526
 20
204.997830
 30
0.0
 10
69.626728
 20
203.726380
 30
0.0
 10
69.859826
 20
202.975541
 30
0.0
  0
LWPOLYLINE
  5
134
100
AcDbEntity
  8
Layer_1
 62
7
100
AcDbPolyline
 90
16
 70
1
 10
68.441127
 20
202.169411
 30
0.0
 10
68.250826
 20
201.212712
 30
0.0
 10
67.708827
 20
200.401611
 30
0.0
 10
66.897827
 20
199.859713
 30
0.0
 10
65.941127
 20
199.669411
 30
0.0
 10
64.984428
 20
199.859713
 30
0.0
 10
64.173328
 20
200.401611
 30
0.0
 10
63.631428
 20
201.212712
 30
0.0
 10
63.441128
 20
202.169411
 30
0.0
 10
63.637528
 20
203.142511
 30
0.0
 10
64.173328
 20
203.937171
 30
0.0
 10
64.968028
 20
204.472942
 30
0.0
 10
65.941127
 20
204.669400
 30
0.0
 10
66.914227
 20
204.472942
 30
0.0
 10
67.708827
 20
203.937171
 30
0.0
 10
68.244627
 20
203.142511
 30
0.0
  0
LWPOLYLINE
  5
135
100
AcDbEntity
  8
Layer_1
 62
7
100
AcDbPolyline
 90
2
 70
0
 10
46.288333
 20
193.997315
 30
0.0
 10
59.620429
 20
193.997315
 30
0.0
  0
LWPOLYLINE
  5
136
100
AcDbEntity
  8
Layer_1
 62
7
100
AcDbPolyline
 90
2
 70
0
 10
48.800332
 20
190.720716
 30
0.0
 10
57.109230
 20
190.720716
 30
0.0
  0
LWPOLYLINE
  5
137
100
AcDbEntity
  8
Layer_1
 62
7
100
AcDbPolyline
 90
2
 70
0
 10
48.800332
 20
197.262614
 30
0.0
 10
57.109230
 20
197.262614
 30
0.0
  0
LWPOLYLINE
  5
138
100
AcDbEntity
  8
Layer_1
 62
7
100
AcDbPolyline
 90
27
 70
1
 10
3.787167
 20
72.524448
 30
0.0
 10
3.787167
 20
66.524813
 30
0.0
 10
6.786984
 20
66.524813
 30
0.0
 10
6.786984
 20
53.524568
 30
0.0
 10
3.787167
 20
53.524568
 30
0.0
 10
3.787167
 20
47.524957
 30
0.0
 10
27.786718
 20
47.524957
 30
0.0
 10
27.786718
 20
9.680865
 30
0.0
 10
6.786984
 20
9.680865
 30
0.0
 10
6.786984
 20
8.524636
 30
0.0
 10
3.787167
 20
8.524636
 30
0.0
 10
3.787167
 20
2.524681
 30
0.0
 10
95.786754
 20
2.524681
 30
0.0
 10
95.786754
 20
8.524636
 30
0.0
 10
92.786910
 20
8.524636
 30
0.0
 10
92.786910
 20
9.680865
 30
0.0
 10
71.787203
 20
9.680865
 30
0.0
 10
71.787203
 20
47.524957
 30
0.0
 10
95.786754
 20
47.524957
 30
0.0
 10
95.786754
 20
53.524568
 30
0.0
 10
92.786910
 20
53.524568
 30
0.0
 10
92.786910
 20
66.524813
 30
0.0
 10
95.786754
 20
66.524813
 30
0.0
 10
95.786754
 20
72.524448
 30
0.0
 10
92.786910
 20
72.524448
 30
0.0
 10
27.786718
 20
72.524448
 30
0.0
 10
6.786984
 20
72.524448
 30
0.0
  0
LWPOLYLINE
  5
139
100
AcDbEntity
  8
Layer_1
 62
7
100
AcDbPolyline
 90
16
 70
1
 10
38.786903
 20
42.061310
 30
0.0
 10
38.634704
 20
41.296011
 30
0.0
 10
38.201105
 20
40.647110
 30
0.0
 10
37.552305
 20
40.213611
 30
0.0
 10
36.786905
 20
40.061309
 30
0.0
 10
36.021505
 20
40.213611
 30
0.0
 10
35.372705
 20
40.647110
 30
0.0
 10
34.939106
 20
41.296011
 30
0.0
 10
34.786904
 20
42.061310
 30
0.0
 10
34.939106
 20
42.826710
 30
0.0
 10
35.372705
 20
43.475510
 30
0.0
 10
36.021505
 20
43.909109
 30
0.0
 10
36.786905
 20
44.061308
 30
0.0
 10
37.552305
 20
43.909109
 30
0.0
 10
38.201105
 20
43.475510
 30
0.0
 10
38.634704
 20
42.826710
 30
0.0
  0
LWPOLYLINE
  5
13a
100
AcDbEntity
  8
Layer_1
 62
7
100
AcDbPolyline
 90
16
 70
1
 10
64.786894
 20
42.061310
 30
0.0
 10
64.634695
 20
41.296011
 30
0.0
 10
64.201096
 20
40.647110
 30
0.0
 10
63.552296
 20
40.213611
 30
0.0
 10
62.786896
 20
40.061309
 30
0.0
 10
62.021496
 20
40.213611
 30
0.0
 10
61.372696
 20
40.647110
 30
0.0
 10
60.939097
 20
41.296011
 30
0.0
 10
60.786898
 20
42.061310
 30
0.0
 10
60.939097
 20
42.826710
 30
0.0
 10
61.372696
 20
43.475510
 30
0.0
 10
62.021496
 20
43.909109
 30
0.0
 10
62.786896
 20
44.061308
 30
0.0
 10
63.552296
 20
43.909109
 30
0.0
 10
64.201096
 20
43.475510
 30
0.0
 10
64.634695
 20
42.826710
 30
0.0
  0
ENDSEC
  0
SECTION
  2
OBJECTS
  0
DICTIONARY
  5
C
330
0
100
AcDbDictionary
  3
ACAD_GROUP
350
D
  3
ACAD_MLINESTYLE
350
17
  0
DICTIONARY
  5
D
330
C
100
AcDbDictionary
  0
DICTIONARY
  5
1A
330
C
100
AcDbDictionary
  0
DICTIONARY
  5
17
330
C
100
AcDbDictionary
  3
STANDARD
350
18
  0
DICTIONARY
  5
19
330
C
100
AcDbDictionary
  0
ENDSEC
  0
EOF
