  0
SECTION
  2
HEADER
  9
$ACADVER
  1
AC1014
  9
$HANDSEED
  5
FFFF
  9
$MEASUREMENT
 70
     1
  0
ENDSEC
  0
SECTION
  2
TABLES
  0
TABLE
  2
VPORT
  5
8
330
0
100
AcDbSymbolTable
 70
     4
  0
VPORT
  5
2E
330
8
100
AcDbSymbolTableRecord
100
AcDbViewportTableRecord
  2
*ACTIVE
 70
     0
 10
0.0
 20
0.0
 11
1.0
 21
1.0
 12
210.0
 22
148.5
 13
0.0
 23
0.0
 14
10.0
 24
10.0
 15
10.0
 25
10.0
 16
0.0
 26
0.0
 36
1.0
 17
0.0
 27
0.0
 37
0.0
 40
341.0
 41
1.24
 42
50.0
 43
0.0
 44
0.0
 50
0.0
 51
0.0
 71
     0
 72
   100
 73
     1
 74
     3
 75
     0
 76
     0
 77
     0
 78
     0
  0
ENDTAB
  0
TABLE
  2
LTYPE
  5
5
330
0
100
AcDbSymbolTable
 70
     1
  0
LTYPE
  5
14
330
5
100
AcDbSymbolTableRecord
100
AcDbLinetypeTableRecord
  2
BYBLOCK
 70
     0
  3

 72
    65
 73
     0
 40
0.0
  0
LTYPE
  5
15
330
5
100
AcDbSymbolTableRecord
100
AcDbLinetypeTableRecord
  2
BYLAYER
 70
     0
  3

 72
    65
 73
     0
 40
0.0
  0
LTYPE
  5
16
330
5
100
AcDbSymbolTableRecord
100
AcDbLinetypeTableRecord
  2
CONTINUOUS
 70
     0
  3
Solid line
 72
    65
 73
     0
 40
0.0
  0
ENDTAB
  0
TABLE
  2
LAYER
  5
2
100
AcDbSymbolTable
 70
4
  0
LAYER
  5
50
100
AcDbSymbolTableRecord
100
AcDbLayerTableRecord
  2
0
 70
0
  6
CONTINUOUS
  0
LAYER
  5
51
100
AcDbSymbolTableRecord
100
AcDbLayerTableRecord
  2
phone
 70
0
  6
CONTINUOUS
  0
LAYER
  5
52
100
AcDbSymbolTableRecord
100
AcDbLayerTableRecord
  2
side
 70
0
  6
CONTINUOUS
  0
LAYER
  5
53
100
AcDbSymbolTableRecord
100
AcDbLayerTableRecord
  2
wheel
 70
0
  6
CONTINUOUS
  0
ENDTAB
  0
TABLE
  2
STYLE
  5
3
330
0
100
AcDbSymbolTable
 70
     1
  0
STYLE
  5
11
330
3
100
AcDbSymbolTableRecord
100
AcDbTextStyleTableRecord
  2
STANDARD
 70
     0
 40
0.0
 41
1.0
 50
0.0
 71
     0
 42
2.5
  3
txt
  4

  0
ENDTAB
  0
TABLE
  2
VIEW
  5
6
330
0
100
AcDbSymbolTable
 70
     0
  0
ENDTAB
  0
TABLE
  2
UCS
  5
7
330
0
100
AcDbSymbolTable
 70
     0
  0
ENDTAB
  0
TABLE
  2
APPID
  5
9
330
0
100
AcDbSymbolTable
 70
     2
  0
APPID
  5
12
330
9
100
AcDbSymbolTableRecord
100
AcDbRegAppTableRecord
  2
ACAD
 70
     0
  0
ENDTAB
  0
TABLE
  2
DIMSTYLE
  5
A
330
0
100
AcDbSymbolTable
 70
     1
  0
DIMSTYLE
105
27
330
A
100
AcDbSymbolTableRecord
100
AcDbDimStyleTableRecord
  2
ISO-25
 70
     0
  3

  4

  5

  6

  7

 40
1.0
 41
2.5
 42
0.625
 43
3.75
 44
1.25
 45
0.0
 46
0.0
 47
0.0
 48
0.0
140
2.5
141
2.5
142
0.0
143
0.03937007874016
144
1.0
145
0.0
146
1.0
147
0.625
 71
     0
 72
     0
 73
     0
 74
     0
 75
     0
 76
     0
 77
     1
 78
     8
170
     0
171
     3
172
     1
173
     0
174
     0
175
     0
176
     0
177
     0
178
     0
270
     2
271
     2
272
     2
273
     2
274
     3
340
11
275
     0
280
     0
281
     0
282
     0
283
     0
284
     8
285
     0
286
     0
287
     3
288
     0
  0
ENDTAB
  0
TABLE
  2
BLOCK_RECORD
  5
1
330
0
100
AcDbSymbolTable
 70
     1
  0
BLOCK_RECORD
  5
1F
330
1
100
AcDbSymbolTableRecord
100
AcDbBlockTableRecord
  2
*MODEL_SPACE
  0
BLOCK_RECORD
  5
1B
330
1
100
AcDbSymbolTableRecord
100
AcDbBlockTableRecord
  2
*PAPER_SPACE
  0
ENDTAB
  0
ENDSEC
  0
SECTION
  2
BLOCKS
  0
BLOCK
  5
20
330
1F
100
AcDbEntity
  8
0
100
AcDbBlockBegin
  2
*MODEL_SPACE
 70
     0
 10
0.0
 20
0.0
 30
0.0
  3
*MODEL_SPACE
  1

  0
ENDBLK
  5
21
330
1F
100
AcDbEntity
  8
0
100
AcDbBlockEnd
  0
BLOCK
  5
1C
330
1B
100
AcDbEntity
 67
     1
  8
0
100
AcDbBlockBegin
  2
*PAPER_SPACE
  1

  0
ENDBLK
  5
1D
330
1B
100
AcDbEntity
 67
     1
  8
0
100
AcDbBlockEnd
  0
ENDSEC
  0
SECTION
  2
ENTITIES
  0
LWPOLYLINE
  5
100
100
AcDbEntity
  8
wheel
 62
7
100
AcDbPolyline
 90
129
 70
1
 10
30.100001
 20
60.099637
 30
0.0
 10
28.556161
 20
60.060588
 30
0.0
 10
27.032693
 20
59.944726
 30
0.0
 10
25.531291
 20
59.753935
 30
0.0
 10
24.053966
 20
59.490103
 30
0.0
 10
22.602571
 20
59.155112
 30
0.0
 10
21.178983
 20
58.750848
 30
0.0
 10
19.785054
 20
58.279195
 30
0.0
 10
18.422744
 20
57.742039
 30
0.0
 10
17.093877
 20
57.141259
 30
0.0
 10
15.800358
 20
56.478770
 30
0.0
 10
14.544065
 20
55.756406
 30
0.0
 10
13.326879
 20
54.976071
 30
0.0
 10
12.150702
 20
54.139672
 30
0.0
 10
11.017414
 20
53.249086
 30
0.0
 10
9.928894
 20
52.306193
 30
0.0
 10
8.887020
 20
51.312869
 30
0.0
 10
7.893697
 20
50.270995
 30
0.0
 10
6.950803
 20
49.182475
 30
0.0
 10
6.060217
 20
48.049187
 30
0.0
 10
5.223818
 20
46.873011
 30
0.0
 10
4.443483
 20
45.655824
 30
0.0
 10
3.721119
 20
44.399531
 30
0.0
 10
3.058630
 20
43.106012
 30
0.0
 10
2.457850
 20
41.777145
 30
0.0
 10
1.920694
 20
40.414835
 30
0.0
 10
1.449041
 20
39.020906
 30
0.0
 10
1.044777
 20
37.597319
 30
0.0
 10
0.709786
 20
36.145923
 30
0.0
 10
0.445954
 20
34.668598
 30
0.0
 10
0.255163
 20
33.167196
 30
0.0
 10
0.139301
 20
31.643729
 30
0.0
 10
0.100252
 20
30.099888
 30
0.0
 10
0.139276
 20
28.556311
 30
0.0
 10
0.255114
 20
27.032579
 30
0.0
 10
0.445883
 20
25.531336
 30
0.0
 10
0.709696
 20
24.053905
 30
0.0
 10
1.044668
 20
22.602404
 30
0.0
 10
1.448916
 20
21.178948
 30
0.0
 10
1.920557
 20
19.784861
 30
0.0
 10
2.457699
 20
18.422524
 30
0.0
 10
3.058472
 20
17.093789
 30
0.0
 10
3.720961
 20
15.800244
 30
0.0
 10
4.443325
 20
14.544005
 30
0.0
 10
5.223632
 20
13.326659
 30
0.0
 10
6.060032
 20
12.150588
 30
0.0
 10
6.950617
 20
11.017115
 30
0.0
 10
7.893511
 20
9.928622
 30
0.0
 10
8.886861
 20
8.886694
 30
0.0
 10
9.928709
 20
7.893450
 30
0.0
 10
11.017256
 20
6.950477
 30
0.0
 10
12.150543
 20
6.059891
 30
0.0
 10
13.326720
 20
5.223545
 30
0.0
 10
14.543907
 20
4.443026
 30
0.0
 10
15.800199
 20
3.720715
 30
0.0
 10
17.093744
 20
3.058199
 30
0.0
 10
18.422612
 20
2.457332
 30
0.0
 10
19.784949
 20
1.920228
 30
0.0
 10
21.178877
 20
1.448742
 30
0.0
 10
22.602465
 20
1.044459
 30
0.0
 10
24.053887
 20
0.709233
 30
0.0
 10
25.531238
 20
0.445444
 30
0.0
 10
27.032693
 20
0.254679
 30
0.0
 10
28.556161
 20
0.138792
 30
0.0
 10
30.100001
 20
0.099899
 30
0.0
 10
31.587486
 20
0.136676
 30
0.0
 10
33.065181
 20
0.246477
 30
0.0
 10
34.530176
 20
0.428510
 30
0.0
 10
35.980090
 20
0.681452
 30
0.0
 10
37.412542
 20
1.004507
 30
0.0
 10
38.825150
 20
1.396619
 30
0.0
 10
40.215268
 20
1.856464
 30
0.0
 10
41.580515
 20
2.383248
 30
0.0
 10
42.918511
 20
2.976179
 30
0.0
 10
44.226873
 20
3.633931
 30
0.0
 10
45.502691
 20
4.355713
 30
0.0
 10
46.744114
 20
5.140202
 30
0.0
 10
47.948230
 20
5.986602
 30
0.0
 10
49.112924
 20
6.893592
 30
0.0
 10
50.235284
 20
7.860642
 30
0.0
 10
51.313195
 20
8.886694
 30
0.0
 10
52.339247
 20
9.964605
 30
0.0
 10
53.306297
 20
11.086965
 30
0.0
 10
54.213287
 20
12.251659
 30
0.0
 10
55.059688
 20
13.455775
 30
0.0
 10
55.844176
 20
14.697198
 30
0.0
 10
56.565958
 20
15.973016
 30
0.0
 10
57.223711
 20
17.281379
 30
0.0
 10
57.816641
 20
18.619374
 30
0.0
 10
58.343425
 20
19.984621
 30
0.0
 10
58.803270
 20
21.374740
 30
0.0
 10
59.195382
 20
22.787347
 30
0.0
 10
59.518438
 20
24.219799
 30
0.0
 10
59.771379
 20
25.669713
 30
0.0
 10
59.953412
 20
27.134708
 30
0.0
 10
60.063214
 20
28.612403
 30
0.0
 10
60.099991
 20
30.099888
 30
0.0
 10
60.061097
 20
31.643729
 30
0.0
 10
59.945210
 20
33.167196
 30
0.0
 10
59.754445
 20
34.668651
 30
0.0
 10
59.490656
 20
36.146002
 30
0.0
 10
59.155430
 20
37.597424
 30
0.0
 10
58.751147
 20
39.021012
 30
0.0
 10
58.279661
 20
40.414940
 30
0.0
 10
57.742558
 20
41.777277
 30
0.0
 10
57.141690
 20
43.106145
 30
0.0
 10
56.479175
 20
44.399690
 30
0.0
 10
55.756863
 20
45.655982
 30
0.0
 10
54.976344
 20
46.873169
 30
0.0
 10
54.139998
 20
48.049346
 30
0.0
 10
53.249412
 20
49.182633
 30
0.0
 10
52.306439
 20
50.271180
 30
0.0
 10
51.313195
 20
51.313028
 30
0.0
 10
50.271267
 20
52.306378
 30
0.0
 10
49.182774
 20
53.249272
 30
0.0
 10
48.049301
 20
54.139857
 30
0.0
 10
46.873230
 20
54.976257
 30
0.0
 10
45.655885
 20
55.756564
 30
0.0
 10
44.399645
 20
56.478928
 30
0.0
 10
43.106100
 20
57.141417
 30
0.0
 10
41.777365
 20
57.742190
 30
0.0
 10
40.415028
 20
58.279333
 30
0.0
 10
39.020941
 20
58.750973
 30
0.0
 10
37.597485
 20
59.155221
 30
0.0
 10
36.145984
 20
59.490193
 30
0.0
 10
34.668553
 20
59.754006
 30
0.0
 10
33.167310
 20
59.944775
 30
0.0
 10
31.643578
 20
60.060614
 30
0.0
 10
30.100001
 20
60.099637
 30
0.0
  0
LWPOLYLINE
  5
101
100
AcDbEntity
  8
wheel
 62
7
100
AcDbPolyline
 90
25
 70
1
 10
30.100001
 20
31.100011
 30
0.0
 10
30.301349
 20
31.079638
 30
0.0
 10
30.489203
 20
31.021430
 30
0.0
 10
30.806967
 20
30.807118
 30
0.0
 10
31.021279
 20
30.489089
 30
0.0
 10
31.079487
 20
30.301500
 30
0.0
 10
31.099860
 20
30.099888
 30
0.0
 10
31.079487
 20
29.898540
 30
0.0
 10
31.021279
 20
29.710686
 30
0.0
 10
30.806967
 20
29.392922
 30
0.0
 10
30.489203
 20
29.178610
 30
0.0
 10
30.301349
 20
29.120402
 30
0.0
 10
30.100001
 20
29.100029
 30
0.0
 10
29.898389
 20
29.120402
 30
0.0
 10
29.710800
 20
29.178610
 30
0.0
 10
29.392772
 20
29.392922
 30
0.0
 10
29.178459
 20
29.710686
 30
0.0
 10
29.120251
 20
29.898540
 30
0.0
 10
29.099878
 20
30.099888
 30
0.0
 10
29.120251
 20
30.301500
 30
0.0
 10
29.178459
 20
30.489089
 30
0.0
 10
29.392772
 20
30.807118
 30
0.0
 10
29.710800
 20
31.021430
 30
0.0
 10
29.898389
 20
31.079638
 30
0.0
 10
30.100001
 20
31.100011
 30
0.0
  0
ENDSEC
  0
SECTION
  2
OBJECTS
  0
DICTIONARY
  5
C
330
0
100
AcDbDictionary
  3
ACAD_GROUP
350
D
  3
ACAD_MLINESTYLE
350
17
  0
DICTIONARY
  5
D
330
C
100
AcDbDictionary
  0
DICTIONARY
  5
1A
330
C
100
AcDbDictionary
  0
DICTIONARY
  5
17
330
C
100
AcDbDictionary
  3
STANDARD
350
18
  0
DICTIONARY
  5
19
330
C
100
AcDbDictionary
  0
ENDSEC
  0
EOF
