  0
SECTION
  2
HEADER
  9
$ACADVER
  1
AC1014
  9
$HANDSEED
  5
FFFF
  9
$MEASUREMENT
 70
     1
  0
ENDSEC
  0
SECTION
  2
TABLES
  0
TABLE
  2
VPORT
  5
8
330
0
100
AcDbSymbolTable
 70
     4
  0
VPORT
  5
2E
330
8
100
AcDbSymbolTableRecord
100
AcDbViewportTableRecord
  2
*ACTIVE
 70
     0
 10
0.0
 20
0.0
 11
1.0
 21
1.0
 12
210.0
 22
148.5
 13
0.0
 23
0.0
 14
10.0
 24
10.0
 15
10.0
 25
10.0
 16
0.0
 26
0.0
 36
1.0
 17
0.0
 27
0.0
 37
0.0
 40
341.0
 41
1.24
 42
50.0
 43
0.0
 44
0.0
 50
0.0
 51
0.0
 71
     0
 72
   100
 73
     1
 74
     3
 75
     0
 76
     0
 77
     0
 78
     0
  0
ENDTAB
  0
TABLE
  2
LTYPE
  5
5
330
0
100
AcDbSymbolTable
 70
     1
  0
LTYPE
  5
14
330
5
100
AcDbSymbolTableRecord
100
AcDbLinetypeTableRecord
  2
BYBLOCK
 70
     0
  3

 72
    65
 73
     0
 40
0.0
  0
LTYPE
  5
15
330
5
100
AcDbSymbolTableRecord
100
AcDbLinetypeTableRecord
  2
BYLAYER
 70
     0
  3

 72
    65
 73
     0
 40
0.0
  0
LTYPE
  5
16
330
5
100
AcDbSymbolTableRecord
100
AcDbLinetypeTableRecord
  2
CONTINUOUS
 70
     0
  3
Solid line
 72
    65
 73
     0
 40
0.0
  0
ENDTAB
  0
TABLE
  2
LAYER
  5
2
100
AcDbSymbolTable
 70
2
  0
LAYER
  5
50
100
AcDbSymbolTableRecord
100
AcDbLayerTableRecord
  2
0
 70
0
  6
CONTINUOUS
  0
LAYER
  5
51
100
AcDbSymbolTableRecord
100
AcDbLayerTableRecord
  2
Layer_1
 70
0
  6
CONTINUOUS
  0
ENDTAB
  0
TABLE
  2
STYLE
  5
3
330
0
100
AcDbSymbolTable
 70
     1
  0
STYLE
  5
11
330
3
100
AcDbSymbolTableRecord
100
AcDbTextStyleTableRecord
  2
STANDARD
 70
     0
 40
0.0
 41
1.0
 50
0.0
 71
     0
 42
2.5
  3
txt
  4

  0
ENDTAB
  0
TABLE
  2
VIEW
  5
6
330
0
100
AcDbSymbolTable
 70
     0
  0
ENDTAB
  0
TABLE
  2
UCS
  5
7
330
0
100
AcDbSymbolTable
 70
     0
  0
ENDTAB
  0
TABLE
  2
APPID
  5
9
330
0
100
AcDbSymbolTable
 70
     2
  0
APPID
  5
12
330
9
100
AcDbSymbolTableRecord
100
AcDbRegAppTableRecord
  2
ACAD
 70
     0
  0
ENDTAB
  0
TABLE
  2
DIMSTYLE
  5
A
330
0
100
AcDbSymbolTable
 70
     1
  0
DIMSTYLE
105
27
330
A
100
AcDbSymbolTableRecord
100
AcDbDimStyleTableRecord
  2
ISO-25
 70
     0
  3

  4

  5

  6

  7

 40
1.0
 41
2.5
 42
0.625
 43
3.75
 44
1.25
 45
0.0
 46
0.0
 47
0.0
 48
0.0
140
2.5
141
2.5
142
0.0
143
0.03937007874016
144
1.0
145
0.0
146
1.0
147
0.625
 71
     0
 72
     0
 73
     0
 74
     0
 75
     0
 76
     0
 77
     1
 78
     8
170
     0
171
     3
172
     1
173
     0
174
     0
175
     0
176
     0
177
     0
178
     0
270
     2
271
     2
272
     2
273
     2
274
     3
340
11
275
     0
280
     0
281
     0
282
     0
283
     0
284
     8
285
     0
286
     0
287
     3
288
     0
  0
ENDTAB
  0
TABLE
  2
BLOCK_RECORD
  5
1
330
0
100
AcDbSymbolTable
 70
     1
  0
BLOCK_RECORD
  5
1F
330
1
100
AcDbSymbolTableRecord
100
AcDbBlockTableRecord
  2
*MODEL_SPACE
  0
BLOCK_RECORD
  5
1B
330
1
100
AcDbSymbolTableRecord
100
AcDbBlockTableRecord
  2
*PAPER_SPACE
  0
ENDTAB
  0
ENDSEC
  0
SECTION
  2
BLOCKS
  0
BLOCK
  5
20
330
1F
100
AcDbEntity
  8
0
100
AcDbBlockBegin
  2
*MODEL_SPACE
 70
     0
 10
0.0
 20
0.0
 30
0.0
  3
*MODEL_SPACE
  1

  0
ENDBLK
  5
21
330
1F
100
AcDbEntity
  8
0
100
AcDbBlockEnd
  0
BLOCK
  5
1C
330
1B
100
AcDbEntity
 67
     1
  8
0
100
AcDbBlockBegin
  2
*PAPER_SPACE
  1

  0
ENDBLK
  5
1D
330
1B
100
AcDbEntity
 67
     1
  8
0
100
AcDbBlockEnd
  0
ENDSEC
  0
SECTION
  2
ENTITIES
  0
LWPOLYLINE
  5
100
100
AcDbEntity
  8
Layer_1
 62
7
100
AcDbPolyline
 90
33
 70
1
 10
22.426300
 20
46.475712
 30
0.0
 10
22.232300
 20
44.515612
 30
0.0
 10
21.665100
 20
42.648812
 30
0.0
 10
20.746100
 20
40.927712
 30
0.0
 10
19.497300
 20
39.404612
 30
0.0
 10
17.974300
 20
38.155812
 30
0.0
 10
16.253100
 20
37.236912
 30
0.0
 10
14.386300
 20
36.669612
 30
0.0
 10
12.426300
 20
36.475712
 30
0.0
 10
10.410900
 20
36.678812
 30
0.0
 10
8.534000
 20
37.261512
 30
0.0
 10
6.835000
 20
38.183512
 30
0.0
 10
5.355000
 20
39.404612
 30
0.0
 10
4.134000
 20
40.884612
 30
0.0
 10
3.212000
 20
42.583212
 30
0.0
 10
2.629000
 20
44.460312
 30
0.0
 10
2.426000
 20
46.475712
 30
0.0
 10
2.629000
 20
48.491012
 30
0.0
 10
3.212000
 20
50.368112
 30
0.0
 10
4.134000
 20
52.066812
 30
0.0
 10
5.355000
 20
53.546712
 30
0.0
 10
6.835000
 20
54.767812
 30
0.0
 10
8.534000
 20
55.689822
 30
0.0
 10
10.410900
 20
56.272512
 30
0.0
 10
12.426300
 20
56.475672
 30
0.0
 10
14.441600
 20
56.272512
 30
0.0
 10
16.318700
 20
55.689822
 30
0.0
 10
18.017400
 20
54.767812
 30
0.0
 10
19.497300
 20
53.546712
 30
0.0
 10
20.718400
 20
52.066812
 30
0.0
 10
21.640400
 20
50.368112
 30
0.0
 10
22.223100
 20
48.491012
 30
0.0
 10
22.426300
 20
46.475712
 30
0.0
  0
LWPOLYLINE
  5
101
100
AcDbEntity
  8
Layer_1
 62
7
100
AcDbPolyline
 90
19
 70
1
 10
10.468390
 20
47.867426
 30
0.0
 10
10.278155
 20
47.549794
 30
0.0
 10
10.139672
 20
47.208773
 30
0.0
 10
10.054979
 20
46.850553
 30
0.0
 10
10.026033
 20
46.481459
 30
0.0
 10
10.055481
 20
46.108714
 30
0.0
 10
10.141788
 20
45.747214
 30
0.0
 10
10.282891
 20
45.403362
 30
0.0
 10
10.476672
 20
45.083613
 30
0.0
 10
14.375651
 20
45.083613
 30
0.0
 10
14.569432
 20
45.403362
 30
0.0
 10
14.710508
 20
45.747214
 30
0.0
 10
14.796815
 20
46.108714
 30
0.0
 10
14.826263
 20
46.481459
 30
0.0
 10
14.797688
 20
46.850474
 30
0.0
 10
14.713365
 20
47.208640
 30
0.0
 10
14.575305
 20
47.549688
 30
0.0
 10
14.385467
 20
47.867426
 30
0.0
 10
10.468390
 20
47.867426
 30
0.0
  0
LWPOLYLINE
  5
102
100
AcDbEntity
  8
Layer_1
 62
7
100
AcDbPolyline
 90
17
 70
1
 10
13.426300
 20
52.975712
 30
0.0
 10
13.350100
 20
52.593012
 30
0.0
 10
13.133400
 20
52.268612
 30
0.0
 10
12.808900
 20
52.051812
 30
0.0
 10
12.426300
 20
51.975712
 30
0.0
 10
12.043600
 20
52.051812
 30
0.0
 10
11.719200
 20
52.268612
 30
0.0
 10
11.502400
 20
52.593012
 30
0.0
 10
11.426300
 20
52.975712
 30
0.0
 10
11.502400
 20
53.358312
 30
0.0
 10
11.719200
 20
53.682812
 30
0.0
 10
12.043600
 20
53.899512
 30
0.0
 10
12.426300
 20
53.975712
 30
0.0
 10
12.808900
 20
53.899512
 30
0.0
 10
13.133400
 20
53.682812
 30
0.0
 10
13.350100
 20
53.358312
 30
0.0
 10
13.426300
 20
52.975712
 30
0.0
  0
LWPOLYLINE
  5
103
100
AcDbEntity
  8
Layer_1
 62
7
100
AcDbPolyline
 90
17
 70
1
 10
13.426300
 20
39.975712
 30
0.0
 10
13.350100
 20
39.593012
 30
0.0
 10
13.133400
 20
39.268612
 30
0.0
 10
12.808900
 20
39.051812
 30
0.0
 10
12.426300
 20
38.975712
 30
0.0
 10
12.043600
 20
39.051812
 30
0.0
 10
11.719200
 20
39.268612
 30
0.0
 10
11.502400
 20
39.593012
 30
0.0
 10
11.426300
 20
39.975712
 30
0.0
 10
11.502400
 20
40.358312
 30
0.0
 10
11.719200
 20
40.682812
 30
0.0
 10
12.043600
 20
40.899512
 30
0.0
 10
12.426300
 20
40.975712
 30
0.0
 10
12.808900
 20
40.899512
 30
0.0
 10
13.133400
 20
40.682812
 30
0.0
 10
13.350100
 20
40.358312
 30
0.0
 10
13.426300
 20
39.975712
 30
0.0
  0
LWPOLYLINE
  5
104
100
AcDbEntity
  8
Layer_1
 62
7
100
AcDbPolyline
 90
29
 70
1
 10
29.412800
 20
54.653412
 30
0.0
 10
29.335200
 20
53.869412
 30
0.0
 10
29.108300
 20
53.122712
 30
0.0
 10
28.740700
 20
52.434212
 30
0.0
 10
28.241200
 20
51.825012
 30
0.0
 10
27.632000
 20
51.325412
 30
0.0
 10
26.943500
 20
50.957912
 30
0.0
 10
26.196800
 20
50.731012
 30
0.0
 10
25.412800
 20
50.653412
 30
0.0
 10
24.628800
 20
50.731012
 30
0.0
 10
23.882000
 20
50.957912
 30
0.0
 10
23.193600
 20
51.325412
 30
0.0
 10
22.584400
 20
51.825012
 30
0.0
 10
22.084800
 20
52.434212
 30
0.0
 10
21.717300
 20
53.122712
 30
0.0
 10
21.490300
 20
53.869412
 30
0.0
 10
21.412800
 20
54.653412
 30
0.0
 10
21.494000
 20
55.459542
 30
0.0
 10
21.727100
 20
56.210382
 30
0.0
 10
22.584400
 20
57.481832
 30
0.0
 10
23.855800
 20
58.339062
 30
0.0
 10
24.606600
 20
58.572132
 30
0.0
 10
25.412800
 20
58.653402
 30
0.0
 10
26.218900
 20
58.572132
 30
0.0
 10
26.969800
 20
58.339062
 30
0.0
 10
28.241200
 20
57.481832
 30
0.0
 10
29.098400
 20
56.210382
 30
0.0
 10
29.331500
 20
55.459542
 30
0.0
 10
29.412800
 20
54.653412
 30
0.0
  0
LWPOLYLINE
  5
105
100
AcDbEntity
  8
Layer_1
 62
7
100
AcDbPolyline
 90
17
 70
1
 10
27.912800
 20
54.653412
 30
0.0
 10
27.722500
 20
53.696712
 30
0.0
 10
27.180500
 20
52.885612
 30
0.0
 10
26.369500
 20
52.343712
 30
0.0
 10
25.412800
 20
52.153412
 30
0.0
 10
24.456100
 20
52.343712
 30
0.0
 10
23.645000
 20
52.885612
 30
0.0
 10
23.103100
 20
53.696712
 30
0.0
 10
22.912800
 20
54.653412
 30
0.0
 10
23.109200
 20
55.626512
 30
0.0
 10
23.645000
 20
56.421172
 30
0.0
 10
24.439700
 20
56.956942
 30
0.0
 10
25.412800
 20
57.153402
 30
0.0
 10
26.385900
 20
56.956942
 30
0.0
 10
27.180500
 20
56.421172
 30
0.0
 10
27.716300
 20
55.626512
 30
0.0
 10
27.912800
 20
54.653412
 30
0.0
  0
LWPOLYLINE
  5
106
100
AcDbEntity
  8
Layer_1
 62
7
100
AcDbPolyline
 90
2
 70
0
 10
5.760000
 20
46.481312
 30
0.0
 10
19.092100
 20
46.481312
 30
0.0
  0
LWPOLYLINE
  5
107
100
AcDbEntity
  8
Layer_1
 62
7
100
AcDbPolyline
 90
2
 70
0
 10
8.272000
 20
43.204712
 30
0.0
 10
16.580900
 20
43.204712
 30
0.0
  0
LWPOLYLINE
  5
108
100
AcDbEntity
  8
Layer_1
 62
7
100
AcDbPolyline
 90
2
 70
0
 10
8.272000
 20
49.746612
 30
0.0
 10
16.580900
 20
49.746612
 30
0.0
  0
ENDSEC
  0
SECTION
  2
OBJECTS
  0
DICTIONARY
  5
C
330
0
100
AcDbDictionary
  3
ACAD_GROUP
350
D
  3
ACAD_MLINESTYLE
350
17
  0
DICTIONARY
  5
D
330
C
100
AcDbDictionary
  0
DICTIONARY
  5
1A
330
C
100
AcDbDictionary
  0
DICTIONARY
  5
17
330
C
100
AcDbDictionary
  3
STANDARD
350
18
  0
DICTIONARY
  5
19
330
C
100
AcDbDictionary
  0
ENDSEC
  0
EOF
