  0
SECTION
  2
HEADER
  9
$ACADVER
  1
AC1014
  9
$HANDSEED
  5
FFFF
  9
$MEASUREMENT
 70
     1
  0
ENDSEC
  0
SECTION
  2
TABLES
  0
TABLE
  2
VPORT
  5
8
330
0
100
AcDbSymbolTable
 70
     4
  0
VPORT
  5
2E
330
8
100
AcDbSymbolTableRecord
100
AcDbViewportTableRecord
  2
*ACTIVE
 70
     0
 10
0.0
 20
0.0
 11
1.0
 21
1.0
 12
210.0
 22
148.5
 13
0.0
 23
0.0
 14
10.0
 24
10.0
 15
10.0
 25
10.0
 16
0.0
 26
0.0
 36
1.0
 17
0.0
 27
0.0
 37
0.0
 40
341.0
 41
1.24
 42
50.0
 43
0.0
 44
0.0
 50
0.0
 51
0.0
 71
     0
 72
   100
 73
     1
 74
     3
 75
     0
 76
     0
 77
     0
 78
     0
  0
ENDTAB
  0
TABLE
  2
LTYPE
  5
5
330
0
100
AcDbSymbolTable
 70
     1
  0
LTYPE
  5
14
330
5
100
AcDbSymbolTableRecord
100
AcDbLinetypeTableRecord
  2
BYBLOCK
 70
     0
  3

 72
    65
 73
     0
 40
0.0
  0
LTYPE
  5
15
330
5
100
AcDbSymbolTableRecord
100
AcDbLinetypeTableRecord
  2
BYLAYER
 70
     0
  3

 72
    65
 73
     0
 40
0.0
  0
LTYPE
  5
16
330
5
100
AcDbSymbolTableRecord
100
AcDbLinetypeTableRecord
  2
CONTINUOUS
 70
     0
  3
Solid line
 72
    65
 73
     0
 40
0.0
  0
ENDTAB
  0
TABLE
  2
LAYER
  5
2
100
AcDbSymbolTable
 70
4
  0
LAYER
  5
50
100
AcDbSymbolTableRecord
100
AcDbLayerTableRecord
  2
0
 70
0
  6
CONTINUOUS
  0
LAYER
  5
51
100
AcDbSymbolTableRecord
100
AcDbLayerTableRecord
  2
phone
 70
0
  6
CONTINUOUS
  0
LAYER
  5
52
100
AcDbSymbolTableRecord
100
AcDbLayerTableRecord
  2
side
 70
0
  6
CONTINUOUS
  0
LAYER
  5
53
100
AcDbSymbolTableRecord
100
AcDbLayerTableRecord
  2
wheel
 70
0
  6
CONTINUOUS
  0
ENDTAB
  0
TABLE
  2
STYLE
  5
3
330
0
100
AcDbSymbolTable
 70
     1
  0
STYLE
  5
11
330
3
100
AcDbSymbolTableRecord
100
AcDbTextStyleTableRecord
  2
STANDARD
 70
     0
 40
0.0
 41
1.0
 50
0.0
 71
     0
 42
2.5
  3
txt
  4

  0
ENDTAB
  0
TABLE
  2
VIEW
  5
6
330
0
100
AcDbSymbolTable
 70
     0
  0
ENDTAB
  0
TABLE
  2
UCS
  5
7
330
0
100
AcDbSymbolTable
 70
     0
  0
ENDTAB
  0
TABLE
  2
APPID
  5
9
330
0
100
AcDbSymbolTable
 70
     2
  0
APPID
  5
12
330
9
100
AcDbSymbolTableRecord
100
AcDbRegAppTableRecord
  2
ACAD
 70
     0
  0
ENDTAB
  0
TABLE
  2
DIMSTYLE
  5
A
330
0
100
AcDbSymbolTable
 70
     1
  0
DIMSTYLE
105
27
330
A
100
AcDbSymbolTableRecord
100
AcDbDimStyleTableRecord
  2
ISO-25
 70
     0
  3

  4

  5

  6

  7

 40
1.0
 41
2.5
 42
0.625
 43
3.75
 44
1.25
 45
0.0
 46
0.0
 47
0.0
 48
0.0
140
2.5
141
2.5
142
0.0
143
0.03937007874016
144
1.0
145
0.0
146
1.0
147
0.625
 71
     0
 72
     0
 73
     0
 74
     0
 75
     0
 76
     0
 77
     1
 78
     8
170
     0
171
     3
172
     1
173
     0
174
     0
175
     0
176
     0
177
     0
178
     0
270
     2
271
     2
272
     2
273
     2
274
     3
340
11
275
     0
280
     0
281
     0
282
     0
283
     0
284
     8
285
     0
286
     0
287
     3
288
     0
  0
ENDTAB
  0
TABLE
  2
BLOCK_RECORD
  5
1
330
0
100
AcDbSymbolTable
 70
     1
  0
BLOCK_RECORD
  5
1F
330
1
100
AcDbSymbolTableRecord
100
AcDbBlockTableRecord
  2
*MODEL_SPACE
  0
BLOCK_RECORD
  5
1B
330
1
100
AcDbSymbolTableRecord
100
AcDbBlockTableRecord
  2
*PAPER_SPACE
  0
ENDTAB
  0
ENDSEC
  0
SECTION
  2
BLOCKS
  0
BLOCK
  5
20
330
1F
100
AcDbEntity
  8
0
100
AcDbBlockBegin
  2
*MODEL_SPACE
 70
     0
 10
0.0
 20
0.0
 30
0.0
  3
*MODEL_SPACE
  1

  0
ENDBLK
  5
21
330
1F
100
AcDbEntity
  8
0
100
AcDbBlockEnd
  0
BLOCK
  5
1C
330
1B
100
AcDbEntity
 67
     1
  8
0
100
AcDbBlockBegin
  2
*PAPER_SPACE
  1

  0
ENDBLK
  5
1D
330
1B
100
AcDbEntity
 67
     1
  8
0
100
AcDbBlockEnd
  0
ENDSEC
  0
SECTION
  2
ENTITIES
  0
LWPOLYLINE
  5
100
100
AcDbEntity
  8
side
 62
7
100
AcDbPolyline
 90
85
 70
1
 10
8.632017
 20
73.631970
 30
0.0
 10
8.632017
 20
72.545223
 30
0.0
 10
6.498154
 20
72.450608
 30
0.0
 10
4.369323
 20
72.286514
 30
0.0
 10
2.246575
 20
72.053072
 30
0.0
 10
0.132291
 20
71.750443
 30
0.0
 10
0.132291
 20
2.132013
 30
0.0
 10
0.172775
 20
1.727992
 30
0.0
 10
0.288927
 20
1.352284
 30
0.0
 10
0.473077
 20
1.012295
 30
0.0
 10
0.716757
 20
0.716756
 30
0.0
 10
1.012559
 20
0.472813
 30
0.0
 10
1.352282
 20
0.288926
 30
0.0
 10
1.728258
 20
0.172774
 30
0.0
 10
2.132276
 20
0.132295
 30
0.0
 10
75.100773
 20
0.132295
 30
0.0
 10
75.296300
 20
1.876690
 30
0.0
 10
75.444995
 20
3.625316
 30
0.0
 10
75.546595
 20
5.377386
 30
0.0
 10
75.601364
 20
7.131833
 30
0.0
 10
75.577816
 20
8.894217
 30
0.0
 10
75.506908
 20
10.650253
 30
0.0
 10
75.389433
 20
12.399411
 30
0.0
 10
75.225656
 20
14.140631
 30
0.0
 10
75.015577
 20
15.873382
 30
0.0
 10
74.760255
 20
17.596348
 30
0.0
 10
74.459424
 20
19.308990
 30
0.0
 10
74.113879
 20
21.010523
 30
0.0
 10
73.723884
 20
22.700149
 30
0.0
 10
73.289968
 20
24.376546
 30
0.0
 10
72.812131
 20
26.039447
 30
0.0
 10
72.290903
 20
27.687801
 30
0.0
 10
71.726812
 20
29.320804
 30
0.0
 10
71.120124
 20
30.937406
 30
0.0
 10
70.471369
 20
32.537074
 30
0.0
 10
69.780808
 20
34.118750
 30
0.0
 10
69.048707
 20
35.681641
 30
0.0
 10
68.275596
 20
37.224951
 30
0.0
 10
67.461739
 20
38.748154
 30
0.0
 10
66.607665
 20
40.249662
 30
0.0
 10
65.713639
 20
41.729210
 30
0.0
 10
64.779926
 20
43.186003
 30
0.0
 10
63.807320
 20
44.618984
 30
0.0
 10
62.795819
 20
46.027094
 30
0.0
 10
61.745954
 20
47.410067
 30
0.0
 10
60.657992
 20
48.766583
 30
0.0
 10
59.532457
 20
50.096112
 30
0.0
 10
58.369615
 20
51.397330
 30
0.0
 10
57.169996
 20
52.670238
 30
0.0
 10
55.933600
 20
53.913169
 30
0.0
 10
54.661221
 20
55.125726
 30
0.0
 10
53.353388
 20
56.306956
 30
0.0
 10
54.027016
 20
57.109487
 30
0.0
 10
51.729116
 20
59.037530
 30
0.0
 10
51.053104
 20
58.232430
 30
0.0
 10
48.900196
 20
59.882449
 30
0.0
 10
49.504503
 20
60.744935
 30
0.0
 10
47.046793
 20
62.465755
 30
0.0
 10
46.444073
 20
61.604830
 30
0.0
 10
44.155960
 20
63.062099
 30
0.0
 10
44.681422
 20
63.972634
 30
0.0
 10
42.083750
 20
65.472289
 30
0.0
 10
41.557230
 20
64.560193
 30
0.0
 10
39.152171
 20
65.814897
 30
0.0
 10
39.595877
 20
66.767290
 30
0.0
 10
36.877288
 20
68.034906
 30
0.0
 10
36.433847
 20
67.084577
 30
0.0
 10
33.926130
 20
68.119149
 30
0.0
 10
34.286227
 20
69.108213
 30
0.0
 10
31.467364
 20
70.134503
 30
0.0
 10
31.107002
 20
69.145440
 30
0.0
 10
28.521234
 20
69.964509
 30
0.0
 10
28.792431
 20
70.977860
 30
0.0
 10
25.894987
 20
71.754041
 30
0.0
 10
25.622731
 20
70.738096
 30
0.0
 10
22.974255
 20
71.324622
 30
0.0
 10
23.157347
 20
72.361259
 30
0.0
 10
20.203018
 20
72.882143
 30
0.0
 10
20.020452
 20
71.848629
 30
0.0
 10
17.330704
 20
72.200022
 30
0.0
 10
17.422249
 20
73.248008
 30
0.0
 10
14.433786
 20
73.509495
 30
0.0
 10
14.341711
 20
72.460476
 30
0.0
 10
11.632386
 20
72.582423
 30
0.0
 10
11.632386
 20
73.631970
 30
0.0
  0
LWPOLYLINE
  5
101
100
AcDbEntity
  8
side
 62
7
100
AcDbPolyline
 90
32
 70
1
 10
10.132198
 20
10.052031
 30
0.0
 10
10.704495
 20
9.995411
 30
0.0
 10
11.249797
 20
9.829782
 30
0.0
 10
11.752507
 20
9.561495
 30
0.0
 10
12.197268
 20
9.196635
 30
0.0
 10
12.561863
 20
8.751871
 30
0.0
 10
12.830150
 20
8.249431
 30
0.0
 10
12.995782
 20
7.704126
 30
0.0
 10
13.052400
 20
7.131833
 30
0.0
 10
12.993133
 20
6.543400
 30
0.0
 10
12.822741
 20
5.995185
 30
0.0
 10
12.553661
 20
5.499359
 30
0.0
 10
12.197006
 20
5.067028
 30
0.0
 10
11.764940
 20
4.710637
 30
0.0
 10
11.268847
 20
4.441554
 30
0.0
 10
10.720633
 20
4.271427
 30
0.0
 10
10.132198
 20
4.212163
 30
0.0
 10
9.543770
 20
4.271427
 30
0.0
 10
8.995551
 20
4.441554
 30
0.0
 10
8.499461
 20
4.710637
 30
0.0
 10
8.067395
 20
5.067028
 30
0.0
 10
7.710740
 20
5.499359
 30
0.0
 10
7.441656
 20
5.995185
 30
0.0
 10
7.271267
 20
6.543400
 30
0.0
 10
7.212001
 20
7.131833
 30
0.0
 10
7.268621
 20
7.704126
 30
0.0
 10
7.434248
 20
8.249431
 30
0.0
 10
7.702538
 20
8.751871
 30
0.0
 10
8.067130
 20
9.196635
 30
0.0
 10
8.511893
 20
9.561495
 30
0.0
 10
9.014601
 20
9.829782
 30
0.0
 10
9.559909
 20
9.995411
 30
0.0
  0
ENDSEC
  0
SECTION
  2
OBJECTS
  0
DICTIONARY
  5
C
330
0
100
AcDbDictionary
  3
ACAD_GROUP
350
D
  3
ACAD_MLINESTYLE
350
17
  0
DICTIONARY
  5
D
330
C
100
AcDbDictionary
  0
DICTIONARY
  5
1A
330
C
100
AcDbDictionary
  0
DICTIONARY
  5
17
330
C
100
AcDbDictionary
  3
STANDARD
350
18
  0
DICTIONARY
  5
19
330
C
100
AcDbDictionary
  0
ENDSEC
  0
EOF
