  0
SECTION
  2
HEADER
  9
$ACADVER
  1
AC1014
  9
$HANDSEED
  5
FFFF
  9
$MEASUREMENT
 70
     1
  0
ENDSEC
  0
SECTION
  2
TABLES
  0
TABLE
  2
VPORT
  5
8
330
0
100
AcDbSymbolTable
 70
     4
  0
VPORT
  5
2E
330
8
100
AcDbSymbolTableRecord
100
AcDbViewportTableRecord
  2
*ACTIVE
 70
     0
 10
0.0
 20
0.0
 11
1.0
 21
1.0
 12
210.0
 22
148.5
 13
0.0
 23
0.0
 14
10.0
 24
10.0
 15
10.0
 25
10.0
 16
0.0
 26
0.0
 36
1.0
 17
0.0
 27
0.0
 37
0.0
 40
341.0
 41
1.24
 42
50.0
 43
0.0
 44
0.0
 50
0.0
 51
0.0
 71
     0
 72
   100
 73
     1
 74
     3
 75
     0
 76
     0
 77
     0
 78
     0
  0
ENDTAB
  0
TABLE
  2
LTYPE
  5
5
330
0
100
AcDbSymbolTable
 70
     1
  0
LTYPE
  5
14
330
5
100
AcDbSymbolTableRecord
100
AcDbLinetypeTableRecord
  2
BYBLOCK
 70
     0
  3

 72
    65
 73
     0
 40
0.0
  0
LTYPE
  5
15
330
5
100
AcDbSymbolTableRecord
100
AcDbLinetypeTableRecord
  2
BYLAYER
 70
     0
  3

 72
    65
 73
     0
 40
0.0
  0
LTYPE
  5
16
330
5
100
AcDbSymbolTableRecord
100
AcDbLinetypeTableRecord
  2
CONTINUOUS
 70
     0
  3
Solid line
 72
    65
 73
     0
 40
0.0
  0
ENDTAB
  0
TABLE
  2
LAYER
  5
2
100
AcDbSymbolTable
 70
2
  0
LAYER
  5
50
100
AcDbSymbolTableRecord
100
AcDbLayerTableRecord
  2
0
 70
0
  6
CONTINUOUS
  0
LAYER
  5
51
100
AcDbSymbolTableRecord
100
AcDbLayerTableRecord
  2
Layer_1
 70
0
  6
CONTINUOUS
  0
ENDTAB
  0
TABLE
  2
STYLE
  5
3
330
0
100
AcDbSymbolTable
 70
     1
  0
STYLE
  5
11
330
3
100
AcDbSymbolTableRecord
100
AcDbTextStyleTableRecord
  2
STANDARD
 70
     0
 40
0.0
 41
1.0
 50
0.0
 71
     0
 42
2.5
  3
txt
  4

  0
ENDTAB
  0
TABLE
  2
VIEW
  5
6
330
0
100
AcDbSymbolTable
 70
     0
  0
ENDTAB
  0
TABLE
  2
UCS
  5
7
330
0
100
AcDbSymbolTable
 70
     0
  0
ENDTAB
  0
TABLE
  2
APPID
  5
9
330
0
100
AcDbSymbolTable
 70
     2
  0
APPID
  5
12
330
9
100
AcDbSymbolTableRecord
100
AcDbRegAppTableRecord
  2
ACAD
 70
     0
  0
ENDTAB
  0
TABLE
  2
DIMSTYLE
  5
A
330
0
100
AcDbSymbolTable
 70
     1
  0
DIMSTYLE
105
27
330
A
100
AcDbSymbolTableRecord
100
AcDbDimStyleTableRecord
  2
ISO-25
 70
     0
  3

  4

  5

  6

  7

 40
1.0
 41
2.5
 42
0.625
 43
3.75
 44
1.25
 45
0.0
 46
0.0
 47
0.0
 48
0.0
140
2.5
141
2.5
142
0.0
143
0.03937007874016
144
1.0
145
0.0
146
1.0
147
0.625
 71
     0
 72
     0
 73
     0
 74
     0
 75
     0
 76
     0
 77
     1
 78
     8
170
     0
171
     3
172
     1
173
     0
174
     0
175
     0
176
     0
177
     0
178
     0
270
     2
271
     2
272
     2
273
     2
274
     3
340
11
275
     0
280
     0
281
     0
282
     0
283
     0
284
     8
285
     0
286
     0
287
     3
288
     0
  0
ENDTAB
  0
TABLE
  2
BLOCK_RECORD
  5
1
330
0
100
AcDbSymbolTable
 70
     1
  0
BLOCK_RECORD
  5
1F
330
1
100
AcDbSymbolTableRecord
100
AcDbBlockTableRecord
  2
*MODEL_SPACE
  0
BLOCK_RECORD
  5
1B
330
1
100
AcDbSymbolTableRecord
100
AcDbBlockTableRecord
  2
*PAPER_SPACE
  0
ENDTAB
  0
ENDSEC
  0
SECTION
  2
BLOCKS
  0
BLOCK
  5
20
330
1F
100
AcDbEntity
  8
0
100
AcDbBlockBegin
  2
*MODEL_SPACE
 70
     0
 10
0.0
 20
0.0
 30
0.0
  3
*MODEL_SPACE
  1

  0
ENDBLK
  5
21
330
1F
100
AcDbEntity
  8
0
100
AcDbBlockEnd
  0
BLOCK
  5
1C
330
1B
100
AcDbEntity
 67
     1
  8
0
100
AcDbBlockBegin
  2
*PAPER_SPACE
  1

  0
ENDBLK
  5
1D
330
1B
100
AcDbEntity
 67
     1
  8
0
100
AcDbBlockEnd
  0
ENDSEC
  0
SECTION
  2
ENTITIES
  0
LWPOLYLINE
  5
100
100
AcDbEntity
  8
Layer_1
 62
7
100
AcDbPolyline
 90
34
 70
1
 10
22.426294
 20
46.475699
 30
0.0
 10
22.232294
 20
44.515599
 30
0.0
 10
21.665094
 20
42.648800
 30
0.0
 10
20.746094
 20
40.927700
 30
0.0
 10
19.497295
 20
39.404601
 30
0.0
 10
17.974295
 20
38.155801
 30
0.0
 10
16.253095
 20
37.236902
 30
0.0
 10
14.386296
 20
36.669602
 30
0.0
 10
12.426296
 20
36.475702
 30
0.0
 10
10.410897
 20
36.678802
 30
0.0
 10
8.533998
 20
37.261501
 30
0.0
 10
6.834998
 20
38.183501
 30
0.0
 10
5.354998
 20
39.404601
 30
0.0
 10
4.133999
 20
40.884601
 30
0.0
 10
3.211999
 20
42.583200
 30
0.0
 10
2.628999
 20
44.460299
 30
0.0
 10
2.425999
 20
46.475699
 30
0.0
 10
2.628999
 20
48.490998
 30
0.0
 10
3.211999
 20
50.368098
 30
0.0
 10
4.133999
 20
52.066797
 30
0.0
 10
5.354998
 20
53.546697
 30
0.0
 10
6.834998
 20
54.767797
 30
0.0
 10
8.533998
 20
55.689806
 30
0.0
 10
10.410897
 20
56.272496
 30
0.0
 10
12.426296
 20
56.475656
 30
0.0
 10
14.441596
 20
56.272496
 30
0.0
 10
16.318695
 20
55.689806
 30
0.0
 10
18.017395
 20
54.767797
 30
0.0
 10
19.497295
 20
53.546697
 30
0.0
 10
20.718394
 20
52.066797
 30
0.0
 10
21.640394
 20
50.368098
 30
0.0
 10
22.223094
 20
48.490998
 30
0.0
 10
22.426294
 20
46.475699
 30
0.0
 10
22.426294
 20
46.475699
 30
0.0
  0
LWPOLYLINE
  5
101
100
AcDbEntity
  8
Layer_1
 62
7
100
AcDbPolyline
 90
20
 70
1
 10
10.468387
 20
47.867413
 30
0.0
 10
10.278152
 20
47.549781
 30
0.0
 10
10.139669
 20
47.208760
 30
0.0
 10
10.054976
 20
46.850540
 30
0.0
 10
10.026030
 20
46.481446
 30
0.0
 10
10.055478
 20
46.108701
 30
0.0
 10
10.141785
 20
45.747201
 30
0.0
 10
10.282888
 20
45.403349
 30
0.0
 10
10.476669
 20
45.083600
 30
0.0
 10
14.375647
 20
45.083600
 30
0.0
 10
14.569428
 20
45.403349
 30
0.0
 10
14.710504
 20
45.747201
 30
0.0
 10
14.796811
 20
46.108701
 30
0.0
 10
14.826259
 20
46.481446
 30
0.0
 10
14.797684
 20
46.850461
 30
0.0
 10
14.713361
 20
47.208627
 30
0.0
 10
14.575301
 20
47.549675
 30
0.0
 10
14.385463
 20
47.867413
 30
0.0
 10
10.468387
 20
47.867413
 30
0.0
 10
10.468387
 20
47.867413
 30
0.0
  0
LWPOLYLINE
  5
102
100
AcDbEntity
  8
Layer_1
 62
7
100
AcDbPolyline
 90
18
 70
1
 10
13.426296
 20
52.975697
 30
0.0
 10
13.350096
 20
52.592997
 30
0.0
 10
13.133396
 20
52.268597
 30
0.0
 10
12.808897
 20
52.051797
 30
0.0
 10
12.426296
 20
51.975697
 30
0.0
 10
12.043597
 20
52.051797
 30
0.0
 10
11.719197
 20
52.268597
 30
0.0
 10
11.502397
 20
52.592997
 30
0.0
 10
11.426297
 20
52.975697
 30
0.0
 10
11.502397
 20
53.358297
 30
0.0
 10
11.719197
 20
53.682797
 30
0.0
 10
12.043597
 20
53.899497
 30
0.0
 10
12.426296
 20
53.975697
 30
0.0
 10
12.808897
 20
53.899497
 30
0.0
 10
13.133396
 20
53.682797
 30
0.0
 10
13.350096
 20
53.358297
 30
0.0
 10
13.426296
 20
52.975697
 30
0.0
 10
13.426296
 20
52.975697
 30
0.0
  0
LWPOLYLINE
  5
103
100
AcDbEntity
  8
Layer_1
 62
7
100
AcDbPolyline
 90
18
 70
1
 10
13.426296
 20
39.975701
 30
0.0
 10
13.350096
 20
39.593001
 30
0.0
 10
13.133396
 20
39.268601
 30
0.0
 10
12.808897
 20
39.051801
 30
0.0
 10
12.426296
 20
38.975701
 30
0.0
 10
12.043597
 20
39.051801
 30
0.0
 10
11.719197
 20
39.268601
 30
0.0
 10
11.502397
 20
39.593001
 30
0.0
 10
11.426297
 20
39.975701
 30
0.0
 10
11.502397
 20
40.358301
 30
0.0
 10
11.719197
 20
40.682801
 30
0.0
 10
12.043597
 20
40.899501
 30
0.0
 10
12.426296
 20
40.975701
 30
0.0
 10
12.808897
 20
40.899501
 30
0.0
 10
13.133396
 20
40.682801
 30
0.0
 10
13.350096
 20
40.358301
 30
0.0
 10
13.426296
 20
39.975701
 30
0.0
 10
13.426296
 20
39.975701
 30
0.0
  0
LWPOLYLINE
  5
104
100
AcDbEntity
  8
Layer_1
 62
7
100
AcDbPolyline
 90
28
 70
1
 10
28.121779
 20
55.180634
 30
0.0
 10
28.044180
 20
54.396631
 30
0.0
 10
27.817278
 20
53.649932
 30
0.0
 10
27.449680
 20
52.961434
 30
0.0
 10
26.950178
 20
52.352234
 30
0.0
 10
26.340981
 20
51.852634
 30
0.0
 10
25.652480
 20
51.485133
 30
0.0
 10
24.905780
 20
51.258235
 30
0.0
 10
24.121780
 20
51.180635
 30
0.0
 10
23.337780
 20
51.258235
 30
0.0
 10
22.590981
 20
51.485133
 30
0.0
 10
21.902581
 20
51.852634
 30
0.0
 10
21.293381
 20
52.352234
 30
0.0
 10
20.793781
 20
52.961434
 30
0.0
 10
20.426281
 20
53.649932
 30
0.0
 10
20.199281
 20
54.396631
 30
0.0
 10
20.121781
 20
55.180634
 30
0.0
 10
20.202981
 20
55.986761
 30
0.0
 10
20.436081
 20
56.737603
 30
0.0
 10
21.293381
 20
58.009053
 30
0.0
 10
22.564781
 20
58.866281
 30
0.0
 10
23.315581
 20
59.099353
 30
0.0
 10
24.121780
 20
59.180622
 30
0.0
 10
24.927880
 20
59.099353
 30
0.0
 10
25.678780
 20
58.866281
 30
0.0
 10
26.950178
 20
58.009053
 30
0.0
 10
27.807378
 20
56.737603
 30
0.0
 10
28.040478
 20
55.986761
 30
0.0
  0
LWPOLYLINE
  5
105
100
AcDbEntity
  8
Layer_1
 62
7
100
AcDbPolyline
 90
16
 70
1
 10
26.621780
 20
55.180634
 30
0.0
 10
26.431479
 20
54.223933
 30
0.0
 10
25.889480
 20
53.412834
 30
0.0
 10
25.078480
 20
52.870933
 30
0.0
 10
24.121780
 20
52.680634
 30
0.0
 10
23.165081
 20
52.870933
 30
0.0
 10
22.353981
 20
53.412834
 30
0.0
 10
21.812081
 20
54.223933
 30
0.0
 10
21.621781
 20
55.180634
 30
0.0
 10
21.818181
 20
56.153731
 30
0.0
 10
22.353981
 20
56.948391
 30
0.0
 10
23.148681
 20
57.484162
 30
0.0
 10
24.121780
 20
57.680623
 30
0.0
 10
25.094880
 20
57.484162
 30
0.0
 10
25.889480
 20
56.948391
 30
0.0
 10
26.425280
 20
56.153731
 30
0.0
  0
LWPOLYLINE
  5
106
100
AcDbEntity
  8
Layer_1
 62
7
100
AcDbPolyline
 90
2
 70
0
 10
5.759998
 20
46.481299
 30
0.0
 10
19.092095
 20
46.481299
 30
0.0
  0
LWPOLYLINE
  5
107
100
AcDbEntity
  8
Layer_1
 62
7
100
AcDbPolyline
 90
2
 70
0
 10
8.271998
 20
43.204700
 30
0.0
 10
16.580895
 20
43.204700
 30
0.0
  0
LWPOLYLINE
  5
108
100
AcDbEntity
  8
Layer_1
 62
7
100
AcDbPolyline
 90
2
 70
0
 10
8.271998
 20
49.746598
 30
0.0
 10
16.580895
 20
49.746598
 30
0.0
  0
LWPOLYLINE
  5
109
100
AcDbEntity
  8
Layer_1
 62
7
100
AcDbPolyline
 90
64
 70
1
 10
29.732079
 20
52.015424
 30
0.0
 10
28.965290
 20
51.976689
 30
0.0
 10
28.220621
 20
51.863024
 30
0.0
 10
27.501907
 20
51.678187
 30
0.0
 10
26.812853
 20
51.425986
 30
0.0
 10
26.157268
 20
51.110179
 30
0.0
 10
25.538911
 20
50.734497
 30
0.0
 10
24.961564
 20
50.302777
 30
0.0
 10
24.428981
 20
49.818722
 30
0.0
 10
23.944935
 20
49.286142
 30
0.0
 10
23.513193
 20
48.708795
 30
0.0
 10
23.137527
 20
48.090438
 30
0.0
 10
22.821707
 20
47.434853
 30
0.0
 10
22.569504
 20
46.745799
 30
0.0
 10
22.384686
 20
46.027085
 30
0.0
 10
22.271022
 20
45.282415
 30
0.0
 10
22.232283
 20
44.515627
 30
0.0
 10
22.271022
 20
43.748811
 30
0.0
 10
22.384686
 20
43.004168
 30
0.0
 10
22.569504
 20
42.285428
 30
0.0
 10
22.821707
 20
41.596400
 30
0.0
 10
23.137527
 20
40.940816
 30
0.0
 10
23.513193
 20
40.322458
 30
0.0
 10
23.944935
 20
39.745111
 30
0.0
 10
24.428981
 20
39.212531
 30
0.0
 10
24.961564
 20
38.728476
 30
0.0
 10
25.538911
 20
38.296729
 30
0.0
 10
26.157268
 20
37.921074
 30
0.0
 10
26.812853
 20
37.605241
 30
0.0
 10
27.501907
 20
37.353040
 30
0.0
 10
28.220621
 20
37.168229
 30
0.0
 10
28.965290
 20
37.054564
 30
0.0
 10
29.732079
 20
37.015829
 30
0.0
 10
30.498895
 20
37.054564
 30
0.0
 10
31.243537
 20
37.168229
 30
0.0
 10
31.962278
 20
37.353040
 30
0.0
 10
32.651306
 20
37.605241
 30
0.0
 10
33.306890
 20
37.921074
 30
0.0
 10
33.925248
 20
38.296729
 30
0.0
 10
34.502595
 20
38.728476
 30
0.0
 10
35.035175
 20
39.212531
 30
0.0
 10
35.519229
 20
39.745111
 30
0.0
 10
35.950976
 20
40.322458
 30
0.0
 10
36.326632
 20
40.940816
 30
0.0
 10
36.642465
 20
41.596400
 30
0.0
 10
36.894666
 20
42.285428
 30
0.0
 10
37.079477
 20
43.004168
 30
0.0
 10
37.193142
 20
43.748811
 30
0.0
 10
37.231877
 20
44.515627
 30
0.0
 10
37.193142
 20
45.282415
 30
0.0
 10
37.079477
 20
46.027085
 30
0.0
 10
36.894666
 20
46.745799
 30
0.0
 10
36.642465
 20
47.434853
 30
0.0
 10
36.326632
 20
48.090438
 30
0.0
 10
35.950976
 20
48.708795
 30
0.0
 10
35.519229
 20
49.286142
 30
0.0
 10
35.035175
 20
49.818722
 30
0.0
 10
34.502595
 20
50.302777
 30
0.0
 10
33.925248
 20
50.734497
 30
0.0
 10
33.306890
 20
51.110179
 30
0.0
 10
32.651306
 20
51.425986
 30
0.0
 10
31.962278
 20
51.678187
 30
0.0
 10
31.243537
 20
51.863024
 30
0.0
 10
30.498895
 20
51.976689
 30
0.0
  0
LWPOLYLINE
  5
10a
100
AcDbEntity
  8
Layer_1
 62
7
100
AcDbPolyline
 90
4
 70
1
 10
28.231918
 20
48.515887
 30
0.0
 10
31.232239
 20
48.515887
 30
0.0
 10
31.232239
 20
40.515869
 30
0.0
 10
28.231918
 20
40.515869
 30
0.0
  0
ENDSEC
  0
SECTION
  2
OBJECTS
  0
DICTIONARY
  5
C
330
0
100
AcDbDictionary
  3
ACAD_GROUP
350
D
  3
ACAD_MLINESTYLE
350
17
  0
DICTIONARY
  5
D
330
C
100
AcDbDictionary
  0
DICTIONARY
  5
1A
330
C
100
AcDbDictionary
  0
DICTIONARY
  5
17
330
C
100
AcDbDictionary
  3
STANDARD
350
18
  0
DICTIONARY
  5
19
330
C
100
AcDbDictionary
  0
ENDSEC
  0
EOF
