  0
SECTION
  2
HEADER
  9
$ACADVER
  1
AC1014
  9
$HANDSEED
  5
FFFF
  9
$MEASUREMENT
 70
     1
  0
ENDSEC
  0
SECTION
  2
TABLES
  0
TABLE
  2
VPORT
  5
8
330
0
100
AcDbSymbolTable
 70
     4
  0
VPORT
  5
2E
330
8
100
AcDbSymbolTableRecord
100
AcDbViewportTableRecord
  2
*ACTIVE
 70
     0
 10
0.0
 20
0.0
 11
1.0
 21
1.0
 12
210.0
 22
148.5
 13
0.0
 23
0.0
 14
10.0
 24
10.0
 15
10.0
 25
10.0
 16
0.0
 26
0.0
 36
1.0
 17
0.0
 27
0.0
 37
0.0
 40
341.0
 41
1.24
 42
50.0
 43
0.0
 44
0.0
 50
0.0
 51
0.0
 71
     0
 72
   100
 73
     1
 74
     3
 75
     0
 76
     0
 77
     0
 78
     0
  0
ENDTAB
  0
TABLE
  2
LTYPE
  5
5
330
0
100
AcDbSymbolTable
 70
     1
  0
LTYPE
  5
14
330
5
100
AcDbSymbolTableRecord
100
AcDbLinetypeTableRecord
  2
BYBLOCK
 70
     0
  3

 72
    65
 73
     0
 40
0.0
  0
LTYPE
  5
15
330
5
100
AcDbSymbolTableRecord
100
AcDbLinetypeTableRecord
  2
BYLAYER
 70
     0
  3

 72
    65
 73
     0
 40
0.0
  0
LTYPE
  5
16
330
5
100
AcDbSymbolTableRecord
100
AcDbLinetypeTableRecord
  2
CONTINUOUS
 70
     0
  3
Solid line
 72
    65
 73
     0
 40
0.0
  0
ENDTAB
  0
TABLE
  2
LAYER
  5
2
100
AcDbSymbolTable
 70
2
  0
LAYER
  5
50
100
AcDbSymbolTableRecord
100
AcDbLayerTableRecord
  2
0
 70
0
  6
CONTINUOUS
  0
LAYER
  5
51
100
AcDbSymbolTableRecord
100
AcDbLayerTableRecord
  2
Layer_1
 70
0
  6
CONTINUOUS
  0
ENDTAB
  0
TABLE
  2
STYLE
  5
3
330
0
100
AcDbSymbolTable
 70
     1
  0
STYLE
  5
11
330
3
100
AcDbSymbolTableRecord
100
AcDbTextStyleTableRecord
  2
STANDARD
 70
     0
 40
0.0
 41
1.0
 50
0.0
 71
     0
 42
2.5
  3
txt
  4

  0
ENDTAB
  0
TABLE
  2
VIEW
  5
6
330
0
100
AcDbSymbolTable
 70
     0
  0
ENDTAB
  0
TABLE
  2
UCS
  5
7
330
0
100
AcDbSymbolTable
 70
     0
  0
ENDTAB
  0
TABLE
  2
APPID
  5
9
330
0
100
AcDbSymbolTable
 70
     2
  0
APPID
  5
12
330
9
100
AcDbSymbolTableRecord
100
AcDbRegAppTableRecord
  2
ACAD
 70
     0
  0
ENDTAB
  0
TABLE
  2
DIMSTYLE
  5
A
330
0
100
AcDbSymbolTable
 70
     1
  0
DIMSTYLE
105
27
330
A
100
AcDbSymbolTableRecord
100
AcDbDimStyleTableRecord
  2
ISO-25
 70
     0
  3

  4

  5

  6

  7

 40
1.0
 41
2.5
 42
0.625
 43
3.75
 44
1.25
 45
0.0
 46
0.0
 47
0.0
 48
0.0
140
2.5
141
2.5
142
0.0
143
0.03937007874016
144
1.0
145
0.0
146
1.0
147
0.625
 71
     0
 72
     0
 73
     0
 74
     0
 75
     0
 76
     0
 77
     1
 78
     8
170
     0
171
     3
172
     1
173
     0
174
     0
175
     0
176
     0
177
     0
178
     0
270
     2
271
     2
272
     2
273
     2
274
     3
340
11
275
     0
280
     0
281
     0
282
     0
283
     0
284
     8
285
     0
286
     0
287
     3
288
     0
  0
ENDTAB
  0
TABLE
  2
BLOCK_RECORD
  5
1
330
0
100
AcDbSymbolTable
 70
     1
  0
BLOCK_RECORD
  5
1F
330
1
100
AcDbSymbolTableRecord
100
AcDbBlockTableRecord
  2
*MODEL_SPACE
  0
BLOCK_RECORD
  5
1B
330
1
100
AcDbSymbolTableRecord
100
AcDbBlockTableRecord
  2
*PAPER_SPACE
  0
ENDTAB
  0
ENDSEC
  0
SECTION
  2
BLOCKS
  0
BLOCK
  5
20
330
1F
100
AcDbEntity
  8
0
100
AcDbBlockBegin
  2
*MODEL_SPACE
 70
     0
 10
0.0
 20
0.0
 30
0.0
  3
*MODEL_SPACE
  1

  0
ENDBLK
  5
21
330
1F
100
AcDbEntity
  8
0
100
AcDbBlockEnd
  0
BLOCK
  5
1C
330
1B
100
AcDbEntity
 67
     1
  8
0
100
AcDbBlockBegin
  2
*PAPER_SPACE
  1

  0
ENDBLK
  5
1D
330
1B
100
AcDbEntity
 67
     1
  8
0
100
AcDbBlockEnd
  0
ENDSEC
  0
SECTION
  2
ENTITIES
  0
LINE
  5
100
100
AcDbEntity
  8
Layer_1
 62
7
100
AcDbLine
 10
10.996768
 20
121.340567
 30
0.0
 11
10.216847
 21
121.183899
 31
0.0
  0
LINE
  5
101
100
AcDbEntity
  8
Layer_1
 62
7
100
AcDbLine
 10
10.216847
 20
121.183899
 30
0.0
 11
9.581326
 21
120.756127
 31
0.0
  0
LINE
  5
102
100
AcDbEntity
  8
Layer_1
 62
7
100
AcDbLine
 10
9.581326
 20
120.756127
 30
0.0
 11
9.153554
 21
120.120605
 31
0.0
  0
LINE
  5
103
100
AcDbEntity
  8
Layer_1
 62
7
100
AcDbLine
 10
9.153554
 20
120.120605
 30
0.0
 11
8.996886
 21
119.340685
 31
0.0
  0
LINE
  5
104
100
AcDbEntity
  8
Layer_1
 62
7
100
AcDbLine
 10
8.996886
 20
119.340685
 30
0.0
 11
8.996886
 21
119.232681
 31
0.0
  0
LINE
  5
105
100
AcDbEntity
  8
Layer_1
 62
7
100
AcDbLine
 10
8.996886
 20
119.232681
 30
0.0
 11
10.199915
 21
119.232681
 31
0.0
  0
LINE
  5
106
100
AcDbEntity
  8
Layer_1
 62
7
100
AcDbLine
 10
10.199915
 20
119.232681
 30
0.0
 11
10.979836
 21
119.075932
 31
0.0
  0
LINE
  5
107
100
AcDbEntity
  8
Layer_1
 62
7
100
AcDbLine
 10
10.979836
 20
119.075932
 30
0.0
 11
11.615358
 21
118.647982
 31
0.0
  0
LINE
  5
108
100
AcDbEntity
  8
Layer_1
 62
7
100
AcDbLine
 10
11.615358
 20
118.647982
 30
0.0
 11
12.043129
 21
118.012283
 31
0.0
  0
LINE
  5
109
100
AcDbEntity
  8
Layer_1
 62
7
100
AcDbLine
 10
12.043129
 20
118.012283
 30
0.0
 11
12.199798
 21
117.232282
 31
0.0
  0
LINE
  5
10a
100
AcDbEntity
  8
Layer_1
 62
7
100
AcDbLine
 10
12.199798
 20
117.232282
 30
0.0
 11
12.199798
 21
113.232518
 31
0.0
  0
LINE
  5
10b
100
AcDbEntity
  8
Layer_1
 62
7
100
AcDbLine
 10
12.199798
 20
113.232518
 30
0.0
 11
12.043129
 21
112.452598
 31
0.0
  0
LINE
  5
10c
100
AcDbEntity
  8
Layer_1
 62
7
100
AcDbLine
 10
12.043129
 20
112.452598
 30
0.0
 11
11.615358
 21
111.817076
 31
0.0
  0
LINE
  5
10d
100
AcDbEntity
  8
Layer_1
 62
7
100
AcDbLine
 10
11.615358
 20
111.817076
 30
0.0
 11
10.979836
 21
111.389304
 31
0.0
  0
LINE
  5
10e
100
AcDbEntity
  8
Layer_1
 62
7
100
AcDbLine
 10
10.979836
 20
111.389304
 30
0.0
 11
10.199915
 21
111.232635
 31
0.0
  0
LINE
  5
10f
100
AcDbEntity
  8
Layer_1
 62
7
100
AcDbLine
 10
10.199915
 20
111.232635
 30
0.0
 11
8.996886
 21
111.232635
 31
0.0
  0
LINE
  5
110
100
AcDbEntity
  8
Layer_1
 62
7
100
AcDbLine
 10
8.996886
 20
111.232635
 30
0.0
 11
8.999986
 21
70.100176
 31
0.0
  0
LINE
  5
111
100
AcDbEntity
  8
Layer_1
 62
7
100
AcDbLine
 10
8.999986
 20
70.100176
 30
0.0
 11
8.000045
 21
70.100176
 31
0.0
  0
LINE
  5
112
100
AcDbEntity
  8
Layer_1
 62
7
100
AcDbLine
 10
8.000045
 20
70.100176
 30
0.0
 11
6.603745
 21
110.000150
 31
0.0
  0
LINE
  5
113
100
AcDbEntity
  8
Layer_1
 62
7
100
AcDbLine
 10
6.603745
 20
110.000150
 30
0.0
 11
4.406975
 21
110.000150
 31
0.0
  0
LINE
  5
114
100
AcDbEntity
  8
Layer_1
 62
7
100
AcDbLine
 10
4.406975
 20
110.000150
 30
0.0
 11
3.599788
 21
110.000150
 31
0.0
  0
LINE
  5
115
100
AcDbEntity
  8
Layer_1
 62
7
100
AcDbLine
 10
3.599788
 20
110.000150
 30
0.0
 11
2.599846
 21
110.000150
 31
0.0
  0
LINE
  5
116
100
AcDbEntity
  8
Layer_1
 62
7
100
AcDbLine
 10
2.599846
 20
110.000150
 30
0.0
 11
2.100134
 21
110.000150
 31
0.0
  0
LINE
  5
117
100
AcDbEntity
  8
Layer_1
 62
7
100
AcDbLine
 10
2.100134
 20
110.000150
 30
0.0
 11
1.320214
 21
109.843481
 31
0.0
  0
LINE
  5
118
100
AcDbEntity
  8
Layer_1
 62
7
100
AcDbLine
 10
1.320214
 20
109.843481
 30
0.0
 11
0.684692
 21
109.415710
 31
0.0
  0
LINE
  5
119
100
AcDbEntity
  8
Layer_1
 62
7
100
AcDbLine
 10
0.684692
 20
109.415710
 30
0.0
 11
0.256921
 21
108.780188
 31
0.0
  0
LINE
  5
11a
100
AcDbEntity
  8
Layer_1
 62
7
100
AcDbLine
 10
0.256921
 20
108.780188
 30
0.0
 11
0.100252
 21
108.000268
 31
0.0
  0
LINE
  5
11b
100
AcDbEntity
  8
Layer_1
 62
7
100
AcDbLine
 10
0.100252
 20
108.000268
 30
0.0
 11
0.100252
 21
103.999987
 31
0.0
  0
LINE
  5
11c
100
AcDbEntity
  8
Layer_1
 62
7
100
AcDbLine
 10
0.100252
 20
103.999987
 30
0.0
 11
0.256921
 21
103.220067
 31
0.0
  0
LINE
  5
11d
100
AcDbEntity
  8
Layer_1
 62
7
100
AcDbLine
 10
0.256921
 20
103.220067
 30
0.0
 11
0.684692
 21
102.584544
 31
0.0
  0
LINE
  5
11e
100
AcDbEntity
  8
Layer_1
 62
7
100
AcDbLine
 10
0.684692
 20
102.584544
 30
0.0
 11
1.320214
 21
102.156773
 31
0.0
  0
LINE
  5
11f
100
AcDbEntity
  8
Layer_1
 62
7
100
AcDbLine
 10
1.320214
 20
102.156773
 30
0.0
 11
2.100134
 21
102.000104
 31
0.0
  0
LINE
  5
120
100
AcDbEntity
  8
Layer_1
 62
7
100
AcDbLine
 10
2.100134
 20
102.000104
 30
0.0
 11
2.100134
 21
100.000223
 31
0.0
  0
LINE
  5
121
100
AcDbEntity
  8
Layer_1
 62
7
100
AcDbLine
 10
2.100134
 20
100.000223
 30
0.0
 11
3.599788
 21
100.000223
 31
0.0
  0
LINE
  5
122
100
AcDbEntity
  8
Layer_1
 62
7
100
AcDbLine
 10
3.599788
 20
100.000223
 30
0.0
 11
3.599788
 21
38.499968
 31
0.0
  0
LINE
  5
123
100
AcDbEntity
  8
Layer_1
 62
7
100
AcDbLine
 10
3.599788
 20
38.499968
 30
0.0
 11
0.599964
 21
38.499968
 31
0.0
  0
LINE
  5
124
100
AcDbEntity
  8
Layer_1
 62
7
100
AcDbLine
 10
0.599964
 20
38.499968
 30
0.0
 11
0.599964
 21
30.499922
 31
0.0
  0
LINE
  5
125
100
AcDbEntity
  8
Layer_1
 62
7
100
AcDbLine
 10
0.599964
 20
30.499922
 30
0.0
 11
3.599788
 21
30.499922
 31
0.0
  0
LINE
  5
126
100
AcDbEntity
  8
Layer_1
 62
7
100
AcDbLine
 10
3.599788
 20
30.499922
 30
0.0
 11
3.599788
 21
26.232475
 31
0.0
  0
LINE
  5
127
100
AcDbEntity
  8
Layer_1
 62
7
100
AcDbLine
 10
3.599788
 20
26.232475
 30
0.0
 11
4.600245
 21
26.232475
 31
0.0
  0
LINE
  5
128
100
AcDbEntity
  8
Layer_1
 62
7
100
AcDbLine
 10
4.600245
 20
26.232475
 30
0.0
 11
5.380165
 21
26.075725
 31
0.0
  0
LINE
  5
129
100
AcDbEntity
  8
Layer_1
 62
7
100
AcDbLine
 10
5.380165
 20
26.075725
 30
0.0
 11
6.015687
 21
25.647776
 31
0.0
  0
LINE
  5
12a
100
AcDbEntity
  8
Layer_1
 62
7
100
AcDbLine
 10
6.015687
 20
25.647776
 30
0.0
 11
6.443459
 21
25.012076
 31
0.0
  0
LINE
  5
12b
100
AcDbEntity
  8
Layer_1
 62
7
100
AcDbLine
 10
6.443459
 20
25.012076
 30
0.0
 11
6.600127
 21
24.232075
 31
0.0
  0
LINE
  5
12c
100
AcDbEntity
  8
Layer_1
 62
7
100
AcDbLine
 10
6.600127
 20
24.232075
 30
0.0
 11
6.600127
 21
20.232310
 31
0.0
  0
LINE
  5
12d
100
AcDbEntity
  8
Layer_1
 62
7
100
AcDbLine
 10
6.600127
 20
20.232310
 30
0.0
 11
6.443459
 21
19.452391
 31
0.0
  0
LINE
  5
12e
100
AcDbEntity
  8
Layer_1
 62
7
100
AcDbLine
 10
6.443459
 20
19.452391
 30
0.0
 11
6.015687
 21
18.816869
 31
0.0
  0
LINE
  5
12f
100
AcDbEntity
  8
Layer_1
 62
7
100
AcDbLine
 10
6.015687
 20
18.816869
 30
0.0
 11
5.380165
 21
18.389098
 31
0.0
  0
LINE
  5
130
100
AcDbEntity
  8
Layer_1
 62
7
100
AcDbLine
 10
5.380165
 20
18.389098
 30
0.0
 11
4.600245
 21
18.232429
 31
0.0
  0
LINE
  5
131
100
AcDbEntity
  8
Layer_1
 62
7
100
AcDbLine
 10
4.600245
 20
18.232429
 30
0.0
 11
4.600245
 21
2.100045
 31
0.0
  0
LINE
  5
132
100
AcDbEntity
  8
Layer_1
 62
7
100
AcDbLine
 10
4.600245
 20
2.100045
 30
0.0
 11
4.756914
 21
1.320124
 31
0.0
  0
LINE
  5
133
100
AcDbEntity
  8
Layer_1
 62
7
100
AcDbLine
 10
4.756914
 20
1.320124
 30
0.0
 11
5.184685
 21
0.684603
 31
0.0
  0
LINE
  5
134
100
AcDbEntity
  8
Layer_1
 62
7
100
AcDbLine
 10
5.184685
 20
0.684603
 30
0.0
 11
5.820207
 21
0.256832
 31
0.0
  0
LINE
  5
135
100
AcDbEntity
  8
Layer_1
 62
7
100
AcDbLine
 10
5.820207
 20
0.256832
 30
0.0
 11
6.600127
 21
0.100163
 31
0.0
  0
LINE
  5
136
100
AcDbEntity
  8
Layer_1
 62
7
100
AcDbLine
 10
6.600127
 20
0.100163
 30
0.0
 11
96.599994
 21
0.100163
 31
0.0
  0
LINE
  5
137
100
AcDbEntity
  8
Layer_1
 62
7
100
AcDbLine
 10
96.599994
 20
0.100163
 30
0.0
 11
97.379995
 21
0.256832
 31
0.0
  0
LINE
  5
138
100
AcDbEntity
  8
Layer_1
 62
7
100
AcDbLine
 10
97.379995
 20
0.256832
 30
0.0
 11
98.015695
 21
0.684603
 31
0.0
  0
LINE
  5
139
100
AcDbEntity
  8
Layer_1
 62
7
100
AcDbLine
 10
98.015695
 20
0.684603
 30
0.0
 11
98.443644
 21
1.320124
 31
0.0
  0
LINE
  5
13a
100
AcDbEntity
  8
Layer_1
 62
7
100
AcDbLine
 10
98.443644
 20
1.320124
 30
0.0
 11
98.600394
 21
2.100045
 31
0.0
  0
LINE
  5
13b
100
AcDbEntity
  8
Layer_1
 62
7
100
AcDbLine
 10
98.600394
 20
2.100045
 30
0.0
 11
98.600394
 21
18.232429
 31
0.0
  0
LINE
  5
13c
100
AcDbEntity
  8
Layer_1
 62
7
100
AcDbLine
 10
98.600394
 20
18.232429
 30
0.0
 11
97.820392
 21
18.389098
 31
0.0
  0
LINE
  5
13d
100
AcDbEntity
  8
Layer_1
 62
7
100
AcDbLine
 10
97.820392
 20
18.389098
 30
0.0
 11
97.184692
 21
18.816869
 31
0.0
  0
LINE
  5
13e
100
AcDbEntity
  8
Layer_1
 62
7
100
AcDbLine
 10
97.184692
 20
18.816869
 30
0.0
 11
96.756743
 21
19.452391
 31
0.0
  0
LINE
  5
13f
100
AcDbEntity
  8
Layer_1
 62
7
100
AcDbLine
 10
96.756743
 20
19.452391
 30
0.0
 11
96.599994
 21
20.232310
 31
0.0
  0
LINE
  5
140
100
AcDbEntity
  8
Layer_1
 62
7
100
AcDbLine
 10
96.599994
 20
20.232310
 30
0.0
 11
96.599994
 21
24.232075
 31
0.0
  0
LINE
  5
141
100
AcDbEntity
  8
Layer_1
 62
7
100
AcDbLine
 10
96.599994
 20
24.232075
 30
0.0
 11
96.756743
 21
25.012076
 31
0.0
  0
LINE
  5
142
100
AcDbEntity
  8
Layer_1
 62
7
100
AcDbLine
 10
96.756743
 20
25.012076
 30
0.0
 11
97.184692
 21
25.647776
 31
0.0
  0
LINE
  5
143
100
AcDbEntity
  8
Layer_1
 62
7
100
AcDbLine
 10
97.184692
 20
25.647776
 30
0.0
 11
97.820392
 21
26.075725
 31
0.0
  0
LINE
  5
144
100
AcDbEntity
  8
Layer_1
 62
7
100
AcDbLine
 10
97.820392
 20
26.075725
 30
0.0
 11
98.600394
 21
26.232475
 31
0.0
  0
LINE
  5
145
100
AcDbEntity
  8
Layer_1
 62
7
100
AcDbLine
 10
98.600394
 20
26.232475
 30
0.0
 11
99.600335
 21
26.232475
 31
0.0
  0
LINE
  5
146
100
AcDbEntity
  8
Layer_1
 62
7
100
AcDbLine
 10
99.600335
 20
26.232475
 30
0.0
 11
99.600335
 21
30.499922
 31
0.0
  0
LINE
  5
147
100
AcDbEntity
  8
Layer_1
 62
7
100
AcDbLine
 10
99.600335
 20
30.499922
 30
0.0
 11
102.600159
 21
30.499922
 31
0.0
  0
LINE
  5
148
100
AcDbEntity
  8
Layer_1
 62
7
100
AcDbLine
 10
102.600159
 20
30.499922
 30
0.0
 11
102.600159
 21
38.499968
 31
0.0
  0
LINE
  5
149
100
AcDbEntity
  8
Layer_1
 62
7
100
AcDbLine
 10
102.600159
 20
38.499968
 30
0.0
 11
99.600335
 21
38.499968
 31
0.0
  0
LINE
  5
14a
100
AcDbEntity
  8
Layer_1
 62
7
100
AcDbLine
 10
99.600335
 20
38.499968
 30
0.0
 11
99.600335
 21
100.000223
 31
0.0
  0
LINE
  5
14b
100
AcDbEntity
  8
Layer_1
 62
7
100
AcDbLine
 10
99.600335
 20
100.000223
 30
0.0
 11
101.099989
 21
100.000223
 31
0.0
  0
LINE
  5
14c
100
AcDbEntity
  8
Layer_1
 62
7
100
AcDbLine
 10
101.099989
 20
100.000223
 30
0.0
 11
101.099989
 21
102.000104
 31
0.0
  0
LINE
  5
14d
100
AcDbEntity
  8
Layer_1
 62
7
100
AcDbLine
 10
101.099989
 20
102.000104
 30
0.0
 11
101.879988
 21
102.156773
 31
0.0
  0
LINE
  5
14e
100
AcDbEntity
  8
Layer_1
 62
7
100
AcDbLine
 10
101.879988
 20
102.156773
 30
0.0
 11
102.515687
 21
102.584544
 31
0.0
  0
LINE
  5
14f
100
AcDbEntity
  8
Layer_1
 62
7
100
AcDbLine
 10
102.515687
 20
102.584544
 30
0.0
 11
102.943636
 21
103.220067
 31
0.0
  0
LINE
  5
150
100
AcDbEntity
  8
Layer_1
 62
7
100
AcDbLine
 10
102.943636
 20
103.220067
 30
0.0
 11
103.100386
 21
103.999987
 31
0.0
  0
LINE
  5
151
100
AcDbEntity
  8
Layer_1
 62
7
100
AcDbLine
 10
103.100386
 20
103.999987
 30
0.0
 11
103.100386
 21
108.000268
 31
0.0
  0
LINE
  5
152
100
AcDbEntity
  8
Layer_1
 62
7
100
AcDbLine
 10
103.100386
 20
108.000268
 30
0.0
 11
102.943636
 21
108.780188
 31
0.0
  0
LINE
  5
153
100
AcDbEntity
  8
Layer_1
 62
7
100
AcDbLine
 10
102.943636
 20
108.780188
 30
0.0
 11
102.515687
 21
109.415710
 31
0.0
  0
LINE
  5
154
100
AcDbEntity
  8
Layer_1
 62
7
100
AcDbLine
 10
102.515687
 20
109.415710
 30
0.0
 11
101.879988
 21
109.843481
 31
0.0
  0
LINE
  5
155
100
AcDbEntity
  8
Layer_1
 62
7
100
AcDbLine
 10
101.879988
 20
109.843481
 30
0.0
 11
101.099989
 21
110.000150
 31
0.0
  0
LINE
  5
156
100
AcDbEntity
  8
Layer_1
 62
7
100
AcDbLine
 10
101.099989
 20
110.000150
 30
0.0
 11
99.715056
 21
110.000150
 31
0.0
  0
LINE
  5
157
100
AcDbEntity
  8
Layer_1
 62
7
100
AcDbLine
 10
99.715056
 20
110.000150
 30
0.0
 11
98.793146
 21
110.000150
 31
0.0
  0
LINE
  5
158
100
AcDbEntity
  8
Layer_1
 62
7
100
AcDbLine
 10
98.793146
 20
110.000150
 30
0.0
 11
96.595861
 21
110.000150
 31
0.0
  0
LINE
  5
159
100
AcDbEntity
  8
Layer_1
 62
7
100
AcDbLine
 10
96.595861
 20
110.000150
 30
0.0
 11
95.000089
 21
70.100176
 31
0.0
  0
LINE
  5
15a
100
AcDbEntity
  8
Layer_1
 62
7
100
AcDbLine
 10
95.000089
 20
70.100176
 30
0.0
 11
94.000147
 21
70.100176
 31
0.0
  0
LINE
  5
15b
100
AcDbEntity
  8
Layer_1
 62
7
100
AcDbLine
 10
94.000147
 20
70.100176
 30
0.0
 11
94.000147
 21
109.967077
 31
0.0
  0
LINE
  5
15c
100
AcDbEntity
  8
Layer_1
 62
7
100
AcDbLine
 10
94.000147
 20
109.967077
 30
0.0
 11
94.000147
 21
110.000150
 31
0.0
  0
LINE
  5
15d
100
AcDbEntity
  8
Layer_1
 62
7
100
AcDbLine
 10
94.000147
 20
110.000150
 30
0.0
 11
94.000147
 21
110.395476
 31
0.0
  0
LINE
  5
15e
100
AcDbEntity
  8
Layer_1
 62
7
100
AcDbLine
 10
94.000147
 20
110.395476
 30
0.0
 11
93.993956
 21
110.395476
 31
0.0
  0
LINE
  5
15f
100
AcDbEntity
  8
Layer_1
 62
7
100
AcDbLine
 10
93.993956
 20
110.395476
 30
0.0
 11
93.993956
 21
111.232635
 31
0.0
  0
LINE
  5
160
100
AcDbEntity
  8
Layer_1
 62
7
100
AcDbLine
 10
93.993956
 20
111.232635
 30
0.0
 11
93.000216
 21
111.232635
 31
0.0
  0
LINE
  5
161
100
AcDbEntity
  8
Layer_1
 62
7
100
AcDbLine
 10
93.000216
 20
111.232635
 30
0.0
 11
92.220297
 21
111.389304
 31
0.0
  0
LINE
  5
162
100
AcDbEntity
  8
Layer_1
 62
7
100
AcDbLine
 10
92.220297
 20
111.389304
 30
0.0
 11
91.584775
 21
111.817076
 31
0.0
  0
LINE
  5
163
100
AcDbEntity
  8
Layer_1
 62
7
100
AcDbLine
 10
91.584775
 20
111.817076
 30
0.0
 11
91.157004
 21
112.452598
 31
0.0
  0
LINE
  5
164
100
AcDbEntity
  8
Layer_1
 62
7
100
AcDbLine
 10
91.157004
 20
112.452598
 30
0.0
 11
91.000335
 21
113.232518
 31
0.0
  0
LINE
  5
165
100
AcDbEntity
  8
Layer_1
 62
7
100
AcDbLine
 10
91.000335
 20
113.232518
 30
0.0
 11
91.000335
 21
117.232282
 31
0.0
  0
LINE
  5
166
100
AcDbEntity
  8
Layer_1
 62
7
100
AcDbLine
 10
91.000335
 20
117.232282
 30
0.0
 11
91.157004
 21
118.012283
 31
0.0
  0
LINE
  5
167
100
AcDbEntity
  8
Layer_1
 62
7
100
AcDbLine
 10
91.157004
 20
118.012283
 30
0.0
 11
91.584775
 21
118.647982
 31
0.0
  0
LINE
  5
168
100
AcDbEntity
  8
Layer_1
 62
7
100
AcDbLine
 10
91.584775
 20
118.647982
 30
0.0
 11
92.220297
 21
119.075932
 31
0.0
  0
LINE
  5
169
100
AcDbEntity
  8
Layer_1
 62
7
100
AcDbLine
 10
92.220297
 20
119.075932
 30
0.0
 11
93.000216
 21
119.232681
 31
0.0
  0
LINE
  5
16a
100
AcDbEntity
  8
Layer_1
 62
7
100
AcDbLine
 10
93.000216
 20
119.232681
 30
0.0
 11
93.993956
 21
119.232681
 31
0.0
  0
LINE
  5
16b
100
AcDbEntity
  8
Layer_1
 62
7
100
AcDbLine
 10
93.993956
 20
119.232681
 30
0.0
 11
93.993956
 21
119.340685
 31
0.0
  0
LINE
  5
16c
100
AcDbEntity
  8
Layer_1
 62
7
100
AcDbLine
 10
93.993956
 20
119.340685
 30
0.0
 11
93.837288
 21
120.120605
 31
0.0
  0
LINE
  5
16d
100
AcDbEntity
  8
Layer_1
 62
7
100
AcDbLine
 10
93.837288
 20
120.120605
 30
0.0
 11
93.409517
 21
120.756127
 31
0.0
  0
LINE
  5
16e
100
AcDbEntity
  8
Layer_1
 62
7
100
AcDbLine
 10
93.409517
 20
120.756127
 30
0.0
 11
92.773995
 21
121.183899
 31
0.0
  0
LINE
  5
16f
100
AcDbEntity
  8
Layer_1
 62
7
100
AcDbLine
 10
92.773995
 20
121.183899
 30
0.0
 11
91.994075
 21
121.340567
 31
0.0
  0
LINE
  5
170
100
AcDbEntity
  8
Layer_1
 62
7
100
AcDbLine
 10
91.994075
 20
121.340567
 30
0.0
 11
86.701362
 21
121.340567
 31
0.0
  0
LINE
  5
171
100
AcDbEntity
  8
Layer_1
 62
7
100
AcDbLine
 10
86.701362
 20
121.340567
 30
0.0
 11
84.538385
 21
121.020255
 31
0.0
  0
LINE
  5
172
100
AcDbEntity
  8
Layer_1
 62
7
100
AcDbLine
 10
84.538385
 20
121.020255
 30
0.0
 11
82.332652
 21
120.291615
 31
0.0
  0
LINE
  5
173
100
AcDbEntity
  8
Layer_1
 62
7
100
AcDbLine
 10
82.332652
 20
120.291615
 30
0.0
 11
80.092268
 21
119.213841
 31
0.0
  0
LINE
  5
174
100
AcDbEntity
  8
Layer_1
 62
7
100
AcDbLine
 10
80.092268
 20
119.213841
 30
0.0
 11
77.825333
 21
117.846125
 31
0.0
  0
LINE
  5
175
100
AcDbEntity
  8
Layer_1
 62
7
100
AcDbLine
 10
77.825333
 20
117.846125
 30
0.0
 11
73.244220
 21
114.477644
 31
0.0
  0
LINE
  5
176
100
AcDbEntity
  8
Layer_1
 62
7
100
AcDbLine
 10
73.244220
 20
114.477644
 30
0.0
 11
68.654130
 21
110.659721
 31
0.0
  0
LINE
  5
177
100
AcDbEntity
  8
Layer_1
 62
7
100
AcDbLine
 10
68.654130
 20
110.659721
 30
0.0
 11
64.119880
 21
106.865901
 31
0.0
  0
LINE
  5
178
100
AcDbEntity
  8
Layer_1
 62
7
100
AcDbLine
 10
64.119880
 20
106.865901
 30
0.0
 11
59.706287
 21
103.569733
 31
0.0
  0
LINE
  5
179
100
AcDbEntity
  8
Layer_1
 62
7
100
AcDbLine
 10
59.706287
 20
103.569733
 30
0.0
 11
57.564991
 21
102.256252
 31
0.0
  0
LINE
  5
17a
100
AcDbEntity
  8
Layer_1
 62
7
100
AcDbLine
 10
57.564991
 20
102.256252
 30
0.0
 11
55.478166
 21
101.244764
 31
0.0
  0
LINE
  5
17b
100
AcDbEntity
  8
Layer_1
 62
7
100
AcDbLine
 10
55.478166
 20
101.244764
 30
0.0
 11
53.453913
 21
100.594463
 31
0.0
  0
LINE
  5
17c
100
AcDbEntity
  8
Layer_1
 62
7
100
AcDbLine
 10
53.453913
 20
100.594463
 30
0.0
 11
51.500335
 21
100.364541
 31
0.0
  0
LINE
  5
17d
100
AcDbEntity
  8
Layer_1
 62
7
100
AcDbLine
 10
51.500335
 20
100.364541
 30
0.0
 11
49.546757
 21
100.594463
 31
0.0
  0
LINE
  5
17e
100
AcDbEntity
  8
Layer_1
 62
7
100
AcDbLine
 10
49.546757
 20
100.594463
 30
0.0
 11
47.522505
 21
101.244764
 31
0.0
  0
LINE
  5
17f
100
AcDbEntity
  8
Layer_1
 62
7
100
AcDbLine
 10
47.522505
 20
101.244764
 30
0.0
 11
45.435680
 21
102.256252
 31
0.0
  0
LINE
  5
180
100
AcDbEntity
  8
Layer_1
 62
7
100
AcDbLine
 10
45.435680
 20
102.256252
 30
0.0
 11
43.294386
 21
103.569733
 31
0.0
  0
LINE
  5
181
100
AcDbEntity
  8
Layer_1
 62
7
100
AcDbLine
 10
43.294386
 20
103.569733
 30
0.0
 11
38.880793
 21
106.865901
 31
0.0
  0
LINE
  5
182
100
AcDbEntity
  8
Layer_1
 62
7
100
AcDbLine
 10
38.880793
 20
106.865901
 30
0.0
 11
34.346543
 21
110.659721
 31
0.0
  0
LINE
  5
183
100
AcDbEntity
  8
Layer_1
 62
7
100
AcDbLine
 10
34.346543
 20
110.659721
 30
0.0
 11
29.756454
 21
114.477644
 31
0.0
  0
LINE
  5
184
100
AcDbEntity
  8
Layer_1
 62
7
100
AcDbLine
 10
29.756454
 20
114.477644
 30
0.0
 11
25.175340
 21
117.846125
 31
0.0
  0
LINE
  5
185
100
AcDbEntity
  8
Layer_1
 62
7
100
AcDbLine
 10
25.175340
 20
117.846125
 30
0.0
 11
22.908405
 21
119.213841
 31
0.0
  0
LINE
  5
186
100
AcDbEntity
  8
Layer_1
 62
7
100
AcDbLine
 10
22.908405
 20
119.213841
 30
0.0
 11
20.668020
 21
120.291615
 31
0.0
  0
LINE
  5
187
100
AcDbEntity
  8
Layer_1
 62
7
100
AcDbLine
 10
20.668020
 20
120.291615
 30
0.0
 11
18.462287
 21
121.020255
 31
0.0
  0
LINE
  5
188
100
AcDbEntity
  8
Layer_1
 62
7
100
AcDbLine
 10
18.462287
 20
121.020255
 30
0.0
 11
16.299309
 21
121.340567
 31
0.0
  0
LINE
  5
189
100
AcDbEntity
  8
Layer_1
 62
7
100
AcDbLine
 10
16.299309
 20
121.340567
 30
0.0
 11
10.996768
 21
121.340567
 31
0.0
  0
LINE
  5
18a
100
AcDbEntity
  8
Layer_1
 62
7
100
AcDbLine
 10
37.916629
 20
90.232322
 30
0.0
 11
40.335070
 21
89.988583
 31
0.0
  0
LINE
  5
18b
100
AcDbEntity
  8
Layer_1
 62
7
100
AcDbLine
 10
40.335070
 20
89.988583
 30
0.0
 11
42.587625
 21
89.289409
 31
0.0
  0
LINE
  5
18c
100
AcDbEntity
  8
Layer_1
 62
7
100
AcDbLine
 10
42.587625
 20
89.289409
 30
0.0
 11
44.626036
 21
88.183056
 31
0.0
  0
LINE
  5
18d
100
AcDbEntity
  8
Layer_1
 62
7
100
AcDbLine
 10
44.626036
 20
88.183056
 30
0.0
 11
46.402047
 21
86.717778
 31
0.0
  0
LINE
  5
18e
100
AcDbEntity
  8
Layer_1
 62
7
100
AcDbLine
 10
46.402047
 20
86.717778
 30
0.0
 11
47.867401
 21
84.941830
 31
0.0
  0
LINE
  5
18f
100
AcDbEntity
  8
Layer_1
 62
7
100
AcDbLine
 10
47.867401
 20
84.941830
 30
0.0
 11
48.973842
 21
82.903466
 31
0.0
  0
LINE
  5
190
100
AcDbEntity
  8
Layer_1
 62
7
100
AcDbLine
 10
48.973842
 20
82.903466
 30
0.0
 11
49.673112
 21
80.650942
 31
0.0
  0
LINE
  5
191
100
AcDbEntity
  8
Layer_1
 62
7
100
AcDbLine
 10
49.673112
 20
80.650942
 30
0.0
 11
49.916956
 21
78.232511
 31
0.0
  0
LINE
  5
192
100
AcDbEntity
  8
Layer_1
 62
7
100
AcDbLine
 10
49.916956
 20
78.232511
 30
0.0
 11
49.673202
 21
75.814000
 31
0.0
  0
LINE
  5
193
100
AcDbEntity
  8
Layer_1
 62
7
100
AcDbLine
 10
49.673202
 20
75.814000
 30
0.0
 11
48.973990
 21
73.561391
 31
0.0
  0
LINE
  5
194
100
AcDbEntity
  8
Layer_1
 62
7
100
AcDbLine
 10
48.973990
 20
73.561391
 30
0.0
 11
47.867579
 21
71.522941
 31
0.0
  0
LINE
  5
195
100
AcDbEntity
  8
Layer_1
 62
7
100
AcDbLine
 10
47.867579
 20
71.522941
 30
0.0
 11
46.402229
 21
69.746912
 31
0.0
  0
LINE
  5
196
100
AcDbEntity
  8
Layer_1
 62
7
100
AcDbLine
 10
46.402229
 20
69.746912
 30
0.0
 11
44.626199
 21
68.281562
 31
0.0
  0
LINE
  5
197
100
AcDbEntity
  8
Layer_1
 62
7
100
AcDbLine
 10
44.626199
 20
68.281562
 30
0.0
 11
42.587750
 21
67.175152
 31
0.0
  0
LINE
  5
198
100
AcDbEntity
  8
Layer_1
 62
7
100
AcDbLine
 10
42.587750
 20
67.175152
 30
0.0
 11
40.335140
 21
66.475940
 31
0.0
  0
LINE
  5
199
100
AcDbEntity
  8
Layer_1
 62
7
100
AcDbLine
 10
40.335140
 20
66.475940
 30
0.0
 11
37.916629
 21
66.232187
 31
0.0
  0
LINE
  5
19a
100
AcDbEntity
  8
Layer_1
 62
7
100
AcDbLine
 10
37.916629
 20
66.232187
 30
0.0
 11
35.498198
 21
66.476030
 31
0.0
  0
LINE
  5
19b
100
AcDbEntity
  8
Layer_1
 62
7
100
AcDbLine
 10
35.498198
 20
66.476030
 30
0.0
 11
33.245674
 21
67.175300
 31
0.0
  0
LINE
  5
19c
100
AcDbEntity
  8
Layer_1
 62
7
100
AcDbLine
 10
33.245674
 20
67.175300
 30
0.0
 11
31.207311
 21
68.281741
 31
0.0
  0
LINE
  5
19d
100
AcDbEntity
  8
Layer_1
 62
7
100
AcDbLine
 10
31.207311
 20
68.281741
 30
0.0
 11
29.431363
 21
69.747094
 31
0.0
  0
LINE
  5
19e
100
AcDbEntity
  8
Layer_1
 62
7
100
AcDbLine
 10
29.431363
 20
69.747094
 30
0.0
 11
27.966086
 21
71.523105
 31
0.0
  0
LINE
  5
19f
100
AcDbEntity
  8
Layer_1
 62
7
100
AcDbLine
 10
27.966086
 20
71.523105
 30
0.0
 11
26.859733
 21
73.561516
 31
0.0
  0
LINE
  5
1a0
100
AcDbEntity
  8
Layer_1
 62
7
100
AcDbLine
 10
26.859733
 20
73.561516
 30
0.0
 11
26.160559
 21
75.814070
 31
0.0
  0
LINE
  5
1a1
100
AcDbEntity
  8
Layer_1
 62
7
100
AcDbLine
 10
26.160559
 20
75.814070
 30
0.0
 11
25.916819
 21
78.232511
 31
0.0
  0
LINE
  5
1a2
100
AcDbEntity
  8
Layer_1
 62
7
100
AcDbLine
 10
25.916819
 20
78.232511
 30
0.0
 11
26.160649
 21
80.650872
 31
0.0
  0
LINE
  5
1a3
100
AcDbEntity
  8
Layer_1
 62
7
100
AcDbLine
 10
26.160649
 20
80.650872
 30
0.0
 11
26.859881
 21
82.903341
 31
0.0
  0
LINE
  5
1a4
100
AcDbEntity
  8
Layer_1
 62
7
100
AcDbLine
 10
26.859881
 20
82.903341
 30
0.0
 11
27.966263
 21
84.941666
 31
0.0
  0
LINE
  5
1a5
100
AcDbEntity
  8
Layer_1
 62
7
100
AcDbLine
 10
27.966263
 20
84.941666
 30
0.0
 11
29.431545
 21
86.717596
 31
0.0
  0
LINE
  5
1a6
100
AcDbEntity
  8
Layer_1
 62
7
100
AcDbLine
 10
29.431545
 20
86.717596
 30
0.0
 11
31.207474
 21
88.182878
 31
0.0
  0
LINE
  5
1a7
100
AcDbEntity
  8
Layer_1
 62
7
100
AcDbLine
 10
31.207474
 20
88.182878
 30
0.0
 11
33.245799
 21
89.289260
 31
0.0
  0
LINE
  5
1a8
100
AcDbEntity
  8
Layer_1
 62
7
100
AcDbLine
 10
33.245799
 20
89.289260
 30
0.0
 11
35.498268
 21
89.988493
 31
0.0
  0
LINE
  5
1a9
100
AcDbEntity
  8
Layer_1
 62
7
100
AcDbLine
 10
35.498268
 20
89.988493
 30
0.0
 11
37.916629
 21
90.232322
 31
0.0
  0
LINE
  5
1aa
100
AcDbEntity
  8
Layer_1
 62
7
100
AcDbLine
 10
37.916629
 20
90.232322
 30
0.0
 11
37.916629
 21
90.232322
 31
0.0
  0
LINE
  5
1ab
100
AcDbEntity
  8
Layer_1
 62
7
100
AcDbLine
 10
65.917048
 20
90.232322
 30
0.0
 11
68.335410
 21
89.988493
 31
0.0
  0
LINE
  5
1ac
100
AcDbEntity
  8
Layer_1
 62
7
100
AcDbLine
 10
68.335410
 20
89.988493
 30
0.0
 11
70.587878
 21
89.289260
 31
0.0
  0
LINE
  5
1ad
100
AcDbEntity
  8
Layer_1
 62
7
100
AcDbLine
 10
70.587878
 20
89.289260
 30
0.0
 11
72.626203
 21
88.182878
 31
0.0
  0
LINE
  5
1ae
100
AcDbEntity
  8
Layer_1
 62
7
100
AcDbLine
 10
72.626203
 20
88.182878
 30
0.0
 11
74.402132
 21
86.717596
 31
0.0
  0
LINE
  5
1af
100
AcDbEntity
  8
Layer_1
 62
7
100
AcDbLine
 10
74.402132
 20
86.717596
 30
0.0
 11
75.867413
 21
84.941666
 31
0.0
  0
LINE
  5
1b0
100
AcDbEntity
  8
Layer_1
 62
7
100
AcDbLine
 10
75.867413
 20
84.941666
 30
0.0
 11
76.973795
 21
82.903341
 31
0.0
  0
LINE
  5
1b1
100
AcDbEntity
  8
Layer_1
 62
7
100
AcDbLine
 10
76.973795
 20
82.903341
 30
0.0
 11
77.673027
 21
80.650872
 31
0.0
  0
LINE
  5
1b2
100
AcDbEntity
  8
Layer_1
 62
7
100
AcDbLine
 10
77.673027
 20
80.650872
 30
0.0
 11
77.916857
 21
78.232511
 31
0.0
  0
LINE
  5
1b3
100
AcDbEntity
  8
Layer_1
 62
7
100
AcDbLine
 10
77.916857
 20
78.232511
 30
0.0
 11
77.673117
 21
75.814070
 31
0.0
  0
LINE
  5
1b4
100
AcDbEntity
  8
Layer_1
 62
7
100
AcDbLine
 10
77.673117
 20
75.814070
 30
0.0
 11
76.973943
 21
73.561516
 31
0.0
  0
LINE
  5
1b5
100
AcDbEntity
  8
Layer_1
 62
7
100
AcDbLine
 10
76.973943
 20
73.561516
 30
0.0
 11
75.867590
 21
71.523105
 31
0.0
  0
LINE
  5
1b6
100
AcDbEntity
  8
Layer_1
 62
7
100
AcDbLine
 10
75.867590
 20
71.523105
 30
0.0
 11
74.402313
 21
69.747094
 31
0.0
  0
LINE
  5
1b7
100
AcDbEntity
  8
Layer_1
 62
7
100
AcDbLine
 10
74.402313
 20
69.747094
 30
0.0
 11
72.626366
 21
68.281741
 31
0.0
  0
LINE
  5
1b8
100
AcDbEntity
  8
Layer_1
 62
7
100
AcDbLine
 10
72.626366
 20
68.281741
 30
0.0
 11
70.588003
 21
67.175300
 31
0.0
  0
LINE
  5
1b9
100
AcDbEntity
  8
Layer_1
 62
7
100
AcDbLine
 10
70.588003
 20
67.175300
 30
0.0
 11
68.335479
 21
66.476030
 31
0.0
  0
LINE
  5
1ba
100
AcDbEntity
  8
Layer_1
 62
7
100
AcDbLine
 10
68.335479
 20
66.476030
 30
0.0
 11
65.917048
 21
66.232187
 31
0.0
  0
LINE
  5
1bb
100
AcDbEntity
  8
Layer_1
 62
7
100
AcDbLine
 10
65.917048
 20
66.232187
 30
0.0
 11
63.498538
 21
66.475940
 31
0.0
  0
LINE
  5
1bc
100
AcDbEntity
  8
Layer_1
 62
7
100
AcDbLine
 10
63.498538
 20
66.475940
 30
0.0
 11
61.245928
 21
67.175152
 31
0.0
  0
LINE
  5
1bd
100
AcDbEntity
  8
Layer_1
 62
7
100
AcDbLine
 10
61.245928
 20
67.175152
 30
0.0
 11
59.207478
 21
68.281562
 31
0.0
  0
LINE
  5
1be
100
AcDbEntity
  8
Layer_1
 62
7
100
AcDbLine
 10
59.207478
 20
68.281562
 30
0.0
 11
57.431449
 21
69.746912
 31
0.0
  0
LINE
  5
1bf
100
AcDbEntity
  8
Layer_1
 62
7
100
AcDbLine
 10
57.431449
 20
69.746912
 30
0.0
 11
55.966099
 21
71.522941
 31
0.0
  0
LINE
  5
1c0
100
AcDbEntity
  8
Layer_1
 62
7
100
AcDbLine
 10
55.966099
 20
71.522941
 30
0.0
 11
54.859688
 21
73.561391
 31
0.0
  0
LINE
  5
1c1
100
AcDbEntity
  8
Layer_1
 62
7
100
AcDbLine
 10
54.859688
 20
73.561391
 30
0.0
 11
54.160475
 21
75.814000
 31
0.0
  0
LINE
  5
1c2
100
AcDbEntity
  8
Layer_1
 62
7
100
AcDbLine
 10
54.160475
 20
75.814000
 30
0.0
 11
53.916721
 21
78.232511
 31
0.0
  0
LINE
  5
1c3
100
AcDbEntity
  8
Layer_1
 62
7
100
AcDbLine
 10
53.916721
 20
78.232511
 30
0.0
 11
54.160565
 21
80.650942
 31
0.0
  0
LINE
  5
1c4
100
AcDbEntity
  8
Layer_1
 62
7
100
AcDbLine
 10
54.160565
 20
80.650942
 30
0.0
 11
54.859835
 21
82.903466
 31
0.0
  0
LINE
  5
1c5
100
AcDbEntity
  8
Layer_1
 62
7
100
AcDbLine
 10
54.859835
 20
82.903466
 30
0.0
 11
55.966276
 21
84.941830
 31
0.0
  0
LINE
  5
1c6
100
AcDbEntity
  8
Layer_1
 62
7
100
AcDbLine
 10
55.966276
 20
84.941830
 30
0.0
 11
57.431630
 21
86.717778
 31
0.0
  0
LINE
  5
1c7
100
AcDbEntity
  8
Layer_1
 62
7
100
AcDbLine
 10
57.431630
 20
86.717778
 30
0.0
 11
59.207641
 21
88.183056
 31
0.0
  0
LINE
  5
1c8
100
AcDbEntity
  8
Layer_1
 62
7
100
AcDbLine
 10
59.207641
 20
88.183056
 30
0.0
 11
61.246052
 21
89.289409
 31
0.0
  0
LINE
  5
1c9
100
AcDbEntity
  8
Layer_1
 62
7
100
AcDbLine
 10
61.246052
 20
89.289409
 30
0.0
 11
63.498607
 21
89.988583
 31
0.0
  0
LINE
  5
1ca
100
AcDbEntity
  8
Layer_1
 62
7
100
AcDbLine
 10
63.498607
 20
89.988583
 30
0.0
 11
65.917048
 21
90.232322
 31
0.0
  0
LINE
  5
1cb
100
AcDbEntity
  8
Layer_1
 62
7
100
AcDbLine
 10
65.917048
 20
90.232322
 30
0.0
 11
65.917048
 21
90.232322
 31
0.0
  0
LINE
  5
1cc
100
AcDbEntity
  8
Layer_1
 62
7
100
AcDbLine
 10
21.916538
 20
66.278177
 30
0.0
 11
24.335049
 21
66.034423
 31
0.0
  0
LINE
  5
1cd
100
AcDbEntity
  8
Layer_1
 62
7
100
AcDbLine
 10
24.335049
 20
66.034423
 30
0.0
 11
26.587659
 21
65.335211
 31
0.0
  0
LINE
  5
1ce
100
AcDbEntity
  8
Layer_1
 62
7
100
AcDbLine
 10
26.587659
 20
65.335211
 30
0.0
 11
28.626109
 21
64.228800
 31
0.0
  0
LINE
  5
1cf
100
AcDbEntity
  8
Layer_1
 62
7
100
AcDbLine
 10
28.626109
 20
64.228800
 30
0.0
 11
30.402139
 21
62.763450
 31
0.0
  0
LINE
  5
1d0
100
AcDbEntity
  8
Layer_1
 62
7
100
AcDbLine
 10
30.402139
 20
62.763450
 30
0.0
 11
31.867488
 21
60.987420
 31
0.0
  0
LINE
  5
1d1
100
AcDbEntity
  8
Layer_1
 62
7
100
AcDbLine
 10
31.867488
 20
60.987420
 30
0.0
 11
32.973899
 21
58.948970
 31
0.0
  0
LINE
  5
1d2
100
AcDbEntity
  8
Layer_1
 62
7
100
AcDbLine
 10
32.973899
 20
58.948970
 30
0.0
 11
33.673111
 21
56.696360
 31
0.0
  0
LINE
  5
1d3
100
AcDbEntity
  8
Layer_1
 62
7
100
AcDbLine
 10
33.673111
 20
56.696360
 30
0.0
 11
33.916864
 21
54.277850
 31
0.0
  0
LINE
  5
1d4
100
AcDbEntity
  8
Layer_1
 62
7
100
AcDbLine
 10
33.916864
 20
54.277850
 30
0.0
 11
33.673020
 21
51.859419
 31
0.0
  0
LINE
  5
1d5
100
AcDbEntity
  8
Layer_1
 62
7
100
AcDbLine
 10
33.673020
 20
51.859419
 30
0.0
 11
32.973750
 21
49.606895
 31
0.0
  0
LINE
  5
1d6
100
AcDbEntity
  8
Layer_1
 62
7
100
AcDbLine
 10
32.973750
 20
49.606895
 30
0.0
 11
31.867309
 21
47.568531
 31
0.0
  0
LINE
  5
1d7
100
AcDbEntity
  8
Layer_1
 62
7
100
AcDbLine
 10
31.867309
 20
47.568531
 30
0.0
 11
30.401955
 21
45.792584
 31
0.0
  0
LINE
  5
1d8
100
AcDbEntity
  8
Layer_1
 62
7
100
AcDbLine
 10
30.401955
 20
45.792584
 30
0.0
 11
28.625944
 21
44.327306
 31
0.0
  0
LINE
  5
1d9
100
AcDbEntity
  8
Layer_1
 62
7
100
AcDbLine
 10
28.625944
 20
44.327306
 30
0.0
 11
26.587533
 21
43.220954
 31
0.0
  0
LINE
  5
1da
100
AcDbEntity
  8
Layer_1
 62
7
100
AcDbLine
 10
26.587533
 20
43.220954
 30
0.0
 11
24.334979
 21
42.521780
 31
0.0
  0
LINE
  5
1db
100
AcDbEntity
  8
Layer_1
 62
7
100
AcDbLine
 10
24.334979
 20
42.521780
 30
0.0
 11
21.916538
 21
42.278041
 31
0.0
  0
LINE
  5
1dc
100
AcDbEntity
  8
Layer_1
 62
7
100
AcDbLine
 10
21.916538
 20
42.278041
 30
0.0
 11
19.498177
 21
42.521871
 31
0.0
  0
LINE
  5
1dd
100
AcDbEntity
  8
Layer_1
 62
7
100
AcDbLine
 10
19.498177
 20
42.521871
 30
0.0
 11
17.245708
 21
43.221102
 31
0.0
  0
LINE
  5
1de
100
AcDbEntity
  8
Layer_1
 62
7
100
AcDbLine
 10
17.245708
 20
43.221102
 30
0.0
 11
15.207384
 21
44.327485
 31
0.0
  0
LINE
  5
1df
100
AcDbEntity
  8
Layer_1
 62
7
100
AcDbLine
 10
15.207384
 20
44.327485
 30
0.0
 11
13.431455
 21
45.792766
 31
0.0
  0
LINE
  5
1e0
100
AcDbEntity
  8
Layer_1
 62
7
100
AcDbLine
 10
13.431455
 20
45.792766
 30
0.0
 11
11.966173
 21
47.568695
 31
0.0
  0
LINE
  5
1e1
100
AcDbEntity
  8
Layer_1
 62
7
100
AcDbLine
 10
11.966173
 20
47.568695
 30
0.0
 11
10.859790
 21
49.607020
 31
0.0
  0
LINE
  5
1e2
100
AcDbEntity
  8
Layer_1
 62
7
100
AcDbLine
 10
10.859790
 20
49.607020
 30
0.0
 11
10.160558
 21
51.859488
 31
0.0
  0
LINE
  5
1e3
100
AcDbEntity
  8
Layer_1
 62
7
100
AcDbLine
 10
10.160558
 20
51.859488
 30
0.0
 11
9.916728
 21
54.277850
 31
0.0
  0
LINE
  5
1e4
100
AcDbEntity
  8
Layer_1
 62
7
100
AcDbLine
 10
9.916728
 20
54.277850
 30
0.0
 11
10.160468
 21
56.696291
 31
0.0
  0
LINE
  5
1e5
100
AcDbEntity
  8
Layer_1
 62
7
100
AcDbLine
 10
10.160468
 20
56.696291
 30
0.0
 11
10.859641
 21
58.948845
 31
0.0
  0
LINE
  5
1e6
100
AcDbEntity
  8
Layer_1
 62
7
100
AcDbLine
 10
10.859641
 20
58.948845
 30
0.0
 11
11.965994
 21
60.987256
 31
0.0
  0
LINE
  5
1e7
100
AcDbEntity
  8
Layer_1
 62
7
100
AcDbLine
 10
11.965994
 20
60.987256
 30
0.0
 11
13.431271
 21
62.763268
 31
0.0
  0
LINE
  5
1e8
100
AcDbEntity
  8
Layer_1
 62
7
100
AcDbLine
 10
13.431271
 20
62.763268
 30
0.0
 11
15.207219
 21
64.228622
 31
0.0
  0
LINE
  5
1e9
100
AcDbEntity
  8
Layer_1
 62
7
100
AcDbLine
 10
15.207219
 20
64.228622
 30
0.0
 11
17.245583
 21
65.335062
 31
0.0
  0
LINE
  5
1ea
100
AcDbEntity
  8
Layer_1
 62
7
100
AcDbLine
 10
17.245583
 20
65.335062
 30
0.0
 11
19.498107
 21
66.034333
 31
0.0
  0
LINE
  5
1eb
100
AcDbEntity
  8
Layer_1
 62
7
100
AcDbLine
 10
19.498107
 20
66.034333
 30
0.0
 11
21.916538
 21
66.278177
 31
0.0
  0
LINE
  5
1ec
100
AcDbEntity
  8
Layer_1
 62
7
100
AcDbLine
 10
21.916538
 20
66.278177
 30
0.0
 11
21.916538
 21
66.278177
 31
0.0
  0
LINE
  5
1ed
100
AcDbEntity
  8
Layer_1
 62
7
100
AcDbLine
 10
51.916837
 20
66.278177
 30
0.0
 11
54.335268
 21
66.034333
 31
0.0
  0
LINE
  5
1ee
100
AcDbEntity
  8
Layer_1
 62
7
100
AcDbLine
 10
54.335268
 20
66.034333
 30
0.0
 11
56.587793
 21
65.335062
 31
0.0
  0
LINE
  5
1ef
100
AcDbEntity
  8
Layer_1
 62
7
100
AcDbLine
 10
56.587793
 20
65.335062
 30
0.0
 11
58.626156
 21
64.228622
 31
0.0
  0
LINE
  5
1f0
100
AcDbEntity
  8
Layer_1
 62
7
100
AcDbLine
 10
58.626156
 20
64.228622
 30
0.0
 11
60.402104
 21
62.763268
 31
0.0
  0
LINE
  5
1f1
100
AcDbEntity
  8
Layer_1
 62
7
100
AcDbLine
 10
60.402104
 20
62.763268
 30
0.0
 11
61.867382
 21
60.987256
 31
0.0
  0
LINE
  5
1f2
100
AcDbEntity
  8
Layer_1
 62
7
100
AcDbLine
 10
61.867382
 20
60.987256
 30
0.0
 11
62.973735
 21
58.948845
 31
0.0
  0
LINE
  5
1f3
100
AcDbEntity
  8
Layer_1
 62
7
100
AcDbLine
 10
62.973735
 20
58.948845
 30
0.0
 11
63.672909
 21
56.696291
 31
0.0
  0
LINE
  5
1f4
100
AcDbEntity
  8
Layer_1
 62
7
100
AcDbLine
 10
63.672909
 20
56.696291
 30
0.0
 11
63.916648
 21
54.277850
 31
0.0
  0
LINE
  5
1f5
100
AcDbEntity
  8
Layer_1
 62
7
100
AcDbLine
 10
63.916648
 20
54.277850
 30
0.0
 11
63.672819
 21
51.859488
 31
0.0
  0
LINE
  5
1f6
100
AcDbEntity
  8
Layer_1
 62
7
100
AcDbLine
 10
63.672819
 20
51.859488
 30
0.0
 11
62.973587
 21
49.607020
 31
0.0
  0
LINE
  5
1f7
100
AcDbEntity
  8
Layer_1
 62
7
100
AcDbLine
 10
62.973587
 20
49.607020
 30
0.0
 11
61.867204
 21
47.568695
 31
0.0
  0
LINE
  5
1f8
100
AcDbEntity
  8
Layer_1
 62
7
100
AcDbLine
 10
61.867204
 20
47.568695
 30
0.0
 11
60.401922
 21
45.792766
 31
0.0
  0
LINE
  5
1f9
100
AcDbEntity
  8
Layer_1
 62
7
100
AcDbLine
 10
60.401922
 20
45.792766
 30
0.0
 11
58.625993
 21
44.327485
 31
0.0
  0
LINE
  5
1fa
100
AcDbEntity
  8
Layer_1
 62
7
100
AcDbLine
 10
58.625993
 20
44.327485
 30
0.0
 11
56.587668
 21
43.221102
 31
0.0
  0
LINE
  5
1fb
100
AcDbEntity
  8
Layer_1
 62
7
100
AcDbLine
 10
56.587668
 20
43.221102
 30
0.0
 11
54.335199
 21
42.521871
 31
0.0
  0
LINE
  5
1fc
100
AcDbEntity
  8
Layer_1
 62
7
100
AcDbLine
 10
54.335199
 20
42.521871
 30
0.0
 11
51.916837
 21
42.278041
 31
0.0
  0
LINE
  5
1fd
100
AcDbEntity
  8
Layer_1
 62
7
100
AcDbLine
 10
51.916837
 20
42.278041
 30
0.0
 11
49.498396
 21
42.521780
 31
0.0
  0
LINE
  5
1fe
100
AcDbEntity
  8
Layer_1
 62
7
100
AcDbLine
 10
49.498396
 20
42.521780
 30
0.0
 11
47.245842
 21
43.220954
 31
0.0
  0
LINE
  5
1ff
100
AcDbEntity
  8
Layer_1
 62
7
100
AcDbLine
 10
47.245842
 20
43.220954
 30
0.0
 11
45.207430
 21
44.327306
 31
0.0
  0
LINE
  5
200
100
AcDbEntity
  8
Layer_1
 62
7
100
AcDbLine
 10
45.207430
 20
44.327306
 30
0.0
 11
43.431419
 21
45.792584
 31
0.0
  0
LINE
  5
201
100
AcDbEntity
  8
Layer_1
 62
7
100
AcDbLine
 10
43.431419
 20
45.792584
 30
0.0
 11
41.966065
 21
47.568531
 31
0.0
  0
LINE
  5
202
100
AcDbEntity
  8
Layer_1
 62
7
100
AcDbLine
 10
41.966065
 20
47.568531
 30
0.0
 11
40.859624
 21
49.606895
 31
0.0
  0
LINE
  5
203
100
AcDbEntity
  8
Layer_1
 62
7
100
AcDbLine
 10
40.859624
 20
49.606895
 30
0.0
 11
40.160354
 21
51.859419
 31
0.0
  0
LINE
  5
204
100
AcDbEntity
  8
Layer_1
 62
7
100
AcDbLine
 10
40.160354
 20
51.859419
 30
0.0
 11
39.916510
 21
54.277850
 31
0.0
  0
LINE
  5
205
100
AcDbEntity
  8
Layer_1
 62
7
100
AcDbLine
 10
39.916510
 20
54.277850
 30
0.0
 11
40.160264
 21
56.696360
 31
0.0
  0
LINE
  5
206
100
AcDbEntity
  8
Layer_1
 62
7
100
AcDbLine
 10
40.160264
 20
56.696360
 30
0.0
 11
40.859476
 21
58.948970
 31
0.0
  0
LINE
  5
207
100
AcDbEntity
  8
Layer_1
 62
7
100
AcDbLine
 10
40.859476
 20
58.948970
 30
0.0
 11
41.965887
 21
60.987420
 31
0.0
  0
LINE
  5
208
100
AcDbEntity
  8
Layer_1
 62
7
100
AcDbLine
 10
41.965887
 20
60.987420
 30
0.0
 11
43.431237
 21
62.763450
 31
0.0
  0
LINE
  5
209
100
AcDbEntity
  8
Layer_1
 62
7
100
AcDbLine
 10
43.431237
 20
62.763450
 30
0.0
 11
45.207267
 21
64.228800
 31
0.0
  0
LINE
  5
20a
100
AcDbEntity
  8
Layer_1
 62
7
100
AcDbLine
 10
45.207267
 20
64.228800
 30
0.0
 11
47.245717
 21
65.335211
 31
0.0
  0
LINE
  5
20b
100
AcDbEntity
  8
Layer_1
 62
7
100
AcDbLine
 10
47.245717
 20
65.335211
 30
0.0
 11
49.498327
 21
66.034423
 31
0.0
  0
LINE
  5
20c
100
AcDbEntity
  8
Layer_1
 62
7
100
AcDbLine
 10
49.498327
 20
66.034423
 30
0.0
 11
51.916837
 21
66.278177
 31
0.0
  0
LINE
  5
20d
100
AcDbEntity
  8
Layer_1
 62
7
100
AcDbLine
 10
51.916837
 20
66.278177
 30
0.0
 11
51.916837
 21
66.278177
 31
0.0
  0
LINE
  5
20e
100
AcDbEntity
  8
Layer_1
 62
7
100
AcDbLine
 10
81.916622
 20
66.278177
 30
0.0
 11
84.335133
 21
66.034423
 31
0.0
  0
LINE
  5
20f
100
AcDbEntity
  8
Layer_1
 62
7
100
AcDbLine
 10
84.335133
 20
66.034423
 30
0.0
 11
86.587743
 21
65.335211
 31
0.0
  0
LINE
  5
210
100
AcDbEntity
  8
Layer_1
 62
7
100
AcDbLine
 10
86.587743
 20
65.335211
 30
0.0
 11
88.626193
 21
64.228800
 31
0.0
  0
LINE
  5
211
100
AcDbEntity
  8
Layer_1
 62
7
100
AcDbLine
 10
88.626193
 20
64.228800
 30
0.0
 11
90.402222
 21
62.763450
 31
0.0
  0
LINE
  5
212
100
AcDbEntity
  8
Layer_1
 62
7
100
AcDbLine
 10
90.402222
 20
62.763450
 30
0.0
 11
91.867573
 21
60.987420
 31
0.0
  0
LINE
  5
213
100
AcDbEntity
  8
Layer_1
 62
7
100
AcDbLine
 10
91.867573
 20
60.987420
 30
0.0
 11
92.973984
 21
58.948970
 31
0.0
  0
LINE
  5
214
100
AcDbEntity
  8
Layer_1
 62
7
100
AcDbLine
 10
92.973984
 20
58.948970
 30
0.0
 11
93.673196
 21
56.696360
 31
0.0
  0
LINE
  5
215
100
AcDbEntity
  8
Layer_1
 62
7
100
AcDbLine
 10
93.673196
 20
56.696360
 30
0.0
 11
93.916949
 21
54.277850
 31
0.0
  0
LINE
  5
216
100
AcDbEntity
  8
Layer_1
 62
7
100
AcDbLine
 10
93.916949
 20
54.277850
 30
0.0
 11
93.673105
 21
51.859419
 31
0.0
  0
LINE
  5
217
100
AcDbEntity
  8
Layer_1
 62
7
100
AcDbLine
 10
93.673105
 20
51.859419
 30
0.0
 11
92.973835
 21
49.606895
 31
0.0
  0
LINE
  5
218
100
AcDbEntity
  8
Layer_1
 62
7
100
AcDbLine
 10
92.973835
 20
49.606895
 30
0.0
 11
91.867394
 21
47.568531
 31
0.0
  0
LINE
  5
219
100
AcDbEntity
  8
Layer_1
 62
7
100
AcDbLine
 10
91.867394
 20
47.568531
 30
0.0
 11
90.402040
 21
45.792584
 31
0.0
  0
LINE
  5
21a
100
AcDbEntity
  8
Layer_1
 62
7
100
AcDbLine
 10
90.402040
 20
45.792584
 30
0.0
 11
88.626029
 21
44.327306
 31
0.0
  0
LINE
  5
21b
100
AcDbEntity
  8
Layer_1
 62
7
100
AcDbLine
 10
88.626029
 20
44.327306
 30
0.0
 11
86.587618
 21
43.220954
 31
0.0
  0
LINE
  5
21c
100
AcDbEntity
  8
Layer_1
 62
7
100
AcDbLine
 10
86.587618
 20
43.220954
 30
0.0
 11
84.335063
 21
42.521780
 31
0.0
  0
LINE
  5
21d
100
AcDbEntity
  8
Layer_1
 62
7
100
AcDbLine
 10
84.335063
 20
42.521780
 30
0.0
 11
81.916622
 21
42.278041
 31
0.0
  0
LINE
  5
21e
100
AcDbEntity
  8
Layer_1
 62
7
100
AcDbLine
 10
81.916622
 20
42.278041
 30
0.0
 11
79.498260
 21
42.521871
 31
0.0
  0
LINE
  5
21f
100
AcDbEntity
  8
Layer_1
 62
7
100
AcDbLine
 10
79.498260
 20
42.521871
 30
0.0
 11
77.245791
 21
43.221102
 31
0.0
  0
LINE
  5
220
100
AcDbEntity
  8
Layer_1
 62
7
100
AcDbLine
 10
77.245791
 20
43.221102
 30
0.0
 11
75.207467
 21
44.327485
 31
0.0
  0
LINE
  5
221
100
AcDbEntity
  8
Layer_1
 62
7
100
AcDbLine
 10
75.207467
 20
44.327485
 30
0.0
 11
73.431537
 21
45.792766
 31
0.0
  0
LINE
  5
222
100
AcDbEntity
  8
Layer_1
 62
7
100
AcDbLine
 10
73.431537
 20
45.792766
 30
0.0
 11
71.966255
 21
47.568695
 31
0.0
  0
LINE
  5
223
100
AcDbEntity
  8
Layer_1
 62
7
100
AcDbLine
 10
71.966255
 20
47.568695
 30
0.0
 11
70.859873
 21
49.607020
 31
0.0
  0
LINE
  5
224
100
AcDbEntity
  8
Layer_1
 62
7
100
AcDbLine
 10
70.859873
 20
49.607020
 30
0.0
 11
70.160640
 21
51.859488
 31
0.0
  0
LINE
  5
225
100
AcDbEntity
  8
Layer_1
 62
7
100
AcDbLine
 10
70.160640
 20
51.859488
 30
0.0
 11
69.916811
 21
54.277850
 31
0.0
  0
LINE
  5
226
100
AcDbEntity
  8
Layer_1
 62
7
100
AcDbLine
 10
69.916811
 20
54.277850
 30
0.0
 11
70.160550
 21
56.696291
 31
0.0
  0
LINE
  5
227
100
AcDbEntity
  8
Layer_1
 62
7
100
AcDbLine
 10
70.160550
 20
56.696291
 30
0.0
 11
70.859724
 21
58.948845
 31
0.0
  0
LINE
  5
228
100
AcDbEntity
  8
Layer_1
 62
7
100
AcDbLine
 10
70.859724
 20
58.948845
 30
0.0
 11
71.966077
 21
60.987256
 31
0.0
  0
LINE
  5
229
100
AcDbEntity
  8
Layer_1
 62
7
100
AcDbLine
 10
71.966077
 20
60.987256
 30
0.0
 11
73.431355
 21
62.763268
 31
0.0
  0
LINE
  5
22a
100
AcDbEntity
  8
Layer_1
 62
7
100
AcDbLine
 10
73.431355
 20
62.763268
 30
0.0
 11
75.207303
 21
64.228622
 31
0.0
  0
LINE
  5
22b
100
AcDbEntity
  8
Layer_1
 62
7
100
AcDbLine
 10
75.207303
 20
64.228622
 30
0.0
 11
77.245666
 21
65.335062
 31
0.0
  0
LINE
  5
22c
100
AcDbEntity
  8
Layer_1
 62
7
100
AcDbLine
 10
77.245666
 20
65.335062
 30
0.0
 11
79.498191
 21
66.034333
 31
0.0
  0
LINE
  5
22d
100
AcDbEntity
  8
Layer_1
 62
7
100
AcDbLine
 10
79.498191
 20
66.034333
 30
0.0
 11
81.916622
 21
66.278177
 31
0.0
  0
LINE
  5
22e
100
AcDbEntity
  8
Layer_1
 62
7
100
AcDbLine
 10
81.916622
 20
66.278177
 30
0.0
 11
81.916622
 21
66.278177
 31
0.0
  0
LINE
  5
22f
100
AcDbEntity
  8
Layer_1
 62
7
100
AcDbLine
 10
37.916629
 20
42.232564
 30
0.0
 11
40.335140
 21
41.988811
 31
0.0
  0
LINE
  5
230
100
AcDbEntity
  8
Layer_1
 62
7
100
AcDbLine
 10
40.335140
 20
41.988811
 30
0.0
 11
42.587750
 21
41.289599
 31
0.0
  0
LINE
  5
231
100
AcDbEntity
  8
Layer_1
 62
7
100
AcDbLine
 10
42.587750
 20
41.289599
 30
0.0
 11
44.626199
 21
40.183189
 31
0.0
  0
LINE
  5
232
100
AcDbEntity
  8
Layer_1
 62
7
100
AcDbLine
 10
44.626199
 20
40.183189
 30
0.0
 11
46.402229
 21
38.717839
 31
0.0
  0
LINE
  5
233
100
AcDbEntity
  8
Layer_1
 62
7
100
AcDbLine
 10
46.402229
 20
38.717839
 30
0.0
 11
47.867579
 21
36.941810
 31
0.0
  0
LINE
  5
234
100
AcDbEntity
  8
Layer_1
 62
7
100
AcDbLine
 10
47.867579
 20
36.941810
 30
0.0
 11
48.973990
 21
34.903360
 31
0.0
  0
LINE
  5
235
100
AcDbEntity
  8
Layer_1
 62
7
100
AcDbLine
 10
48.973990
 20
34.903360
 30
0.0
 11
49.673202
 21
32.650751
 31
0.0
  0
LINE
  5
236
100
AcDbEntity
  8
Layer_1
 62
7
100
AcDbLine
 10
49.673202
 20
32.650751
 30
0.0
 11
49.916956
 21
30.232240
 31
0.0
  0
LINE
  5
237
100
AcDbEntity
  8
Layer_1
 62
7
100
AcDbLine
 10
49.916956
 20
30.232240
 30
0.0
 11
49.673112
 21
27.813809
 31
0.0
  0
LINE
  5
238
100
AcDbEntity
  8
Layer_1
 62
7
100
AcDbLine
 10
49.673112
 20
27.813809
 30
0.0
 11
48.973842
 21
25.561285
 31
0.0
  0
LINE
  5
239
100
AcDbEntity
  8
Layer_1
 62
7
100
AcDbLine
 10
48.973842
 20
25.561285
 30
0.0
 11
47.867401
 21
23.522921
 31
0.0
  0
LINE
  5
23a
100
AcDbEntity
  8
Layer_1
 62
7
100
AcDbLine
 10
47.867401
 20
23.522921
 30
0.0
 11
46.402047
 21
21.746973
 31
0.0
  0
LINE
  5
23b
100
AcDbEntity
  8
Layer_1
 62
7
100
AcDbLine
 10
46.402047
 20
21.746973
 30
0.0
 11
44.626036
 21
20.281695
 31
0.0
  0
LINE
  5
23c
100
AcDbEntity
  8
Layer_1
 62
7
100
AcDbLine
 10
44.626036
 20
20.281695
 30
0.0
 11
42.587625
 21
19.175342
 31
0.0
  0
LINE
  5
23d
100
AcDbEntity
  8
Layer_1
 62
7
100
AcDbLine
 10
42.587625
 20
19.175342
 30
0.0
 11
40.335070
 21
18.476168
 31
0.0
  0
LINE
  5
23e
100
AcDbEntity
  8
Layer_1
 62
7
100
AcDbLine
 10
40.335070
 20
18.476168
 30
0.0
 11
37.916629
 21
18.232429
 31
0.0
  0
LINE
  5
23f
100
AcDbEntity
  8
Layer_1
 62
7
100
AcDbLine
 10
37.916629
 20
18.232429
 30
0.0
 11
35.498268
 21
18.476259
 31
0.0
  0
LINE
  5
240
100
AcDbEntity
  8
Layer_1
 62
7
100
AcDbLine
 10
35.498268
 20
18.476259
 30
0.0
 11
33.245799
 21
19.175491
 31
0.0
  0
LINE
  5
241
100
AcDbEntity
  8
Layer_1
 62
7
100
AcDbLine
 10
33.245799
 20
19.175491
 30
0.0
 11
31.207474
 21
20.281873
 31
0.0
  0
LINE
  5
242
100
AcDbEntity
  8
Layer_1
 62
7
100
AcDbLine
 10
31.207474
 20
20.281873
 30
0.0
 11
29.431545
 21
21.747155
 31
0.0
  0
LINE
  5
243
100
AcDbEntity
  8
Layer_1
 62
7
100
AcDbLine
 10
29.431545
 20
21.747155
 30
0.0
 11
27.966263
 21
23.523085
 31
0.0
  0
LINE
  5
244
100
AcDbEntity
  8
Layer_1
 62
7
100
AcDbLine
 10
27.966263
 20
23.523085
 30
0.0
 11
26.859881
 21
25.561410
 31
0.0
  0
LINE
  5
245
100
AcDbEntity
  8
Layer_1
 62
7
100
AcDbLine
 10
26.859881
 20
25.561410
 30
0.0
 11
26.160649
 21
27.813879
 31
0.0
  0
LINE
  5
246
100
AcDbEntity
  8
Layer_1
 62
7
100
AcDbLine
 10
26.160649
 20
27.813879
 30
0.0
 11
25.916819
 21
30.232240
 31
0.0
  0
LINE
  5
247
100
AcDbEntity
  8
Layer_1
 62
7
100
AcDbLine
 10
25.916819
 20
30.232240
 30
0.0
 11
26.160559
 21
32.650681
 31
0.0
  0
LINE
  5
248
100
AcDbEntity
  8
Layer_1
 62
7
100
AcDbLine
 10
26.160559
 20
32.650681
 30
0.0
 11
26.859733
 21
34.903235
 31
0.0
  0
LINE
  5
249
100
AcDbEntity
  8
Layer_1
 62
7
100
AcDbLine
 10
26.859733
 20
34.903235
 30
0.0
 11
27.966086
 21
36.941646
 31
0.0
  0
LINE
  5
24a
100
AcDbEntity
  8
Layer_1
 62
7
100
AcDbLine
 10
27.966086
 20
36.941646
 30
0.0
 11
29.431363
 21
38.717657
 31
0.0
  0
LINE
  5
24b
100
AcDbEntity
  8
Layer_1
 62
7
100
AcDbLine
 10
29.431363
 20
38.717657
 30
0.0
 11
31.207311
 21
40.183010
 31
0.0
  0
LINE
  5
24c
100
AcDbEntity
  8
Layer_1
 62
7
100
AcDbLine
 10
31.207311
 20
40.183010
 30
0.0
 11
33.245674
 21
41.289451
 31
0.0
  0
LINE
  5
24d
100
AcDbEntity
  8
Layer_1
 62
7
100
AcDbLine
 10
33.245674
 20
41.289451
 30
0.0
 11
35.498198
 21
41.988721
 31
0.0
  0
LINE
  5
24e
100
AcDbEntity
  8
Layer_1
 62
7
100
AcDbLine
 10
35.498198
 20
41.988721
 30
0.0
 11
37.916629
 21
42.232564
 31
0.0
  0
LINE
  5
24f
100
AcDbEntity
  8
Layer_1
 62
7
100
AcDbLine
 10
37.916629
 20
42.232564
 30
0.0
 11
37.916629
 21
42.232564
 31
0.0
  0
LINE
  5
250
100
AcDbEntity
  8
Layer_1
 62
7
100
AcDbLine
 10
65.917048
 20
42.232564
 30
0.0
 11
68.335479
 21
41.988721
 31
0.0
  0
LINE
  5
251
100
AcDbEntity
  8
Layer_1
 62
7
100
AcDbLine
 10
68.335479
 20
41.988721
 30
0.0
 11
70.588003
 21
41.289451
 31
0.0
  0
LINE
  5
252
100
AcDbEntity
  8
Layer_1
 62
7
100
AcDbLine
 10
70.588003
 20
41.289451
 30
0.0
 11
72.626366
 21
40.183010
 31
0.0
  0
LINE
  5
253
100
AcDbEntity
  8
Layer_1
 62
7
100
AcDbLine
 10
72.626366
 20
40.183010
 30
0.0
 11
74.402313
 21
38.717657
 31
0.0
  0
LINE
  5
254
100
AcDbEntity
  8
Layer_1
 62
7
100
AcDbLine
 10
74.402313
 20
38.717657
 30
0.0
 11
75.867590
 21
36.941646
 31
0.0
  0
LINE
  5
255
100
AcDbEntity
  8
Layer_1
 62
7
100
AcDbLine
 10
75.867590
 20
36.941646
 30
0.0
 11
76.973943
 21
34.903235
 31
0.0
  0
LINE
  5
256
100
AcDbEntity
  8
Layer_1
 62
7
100
AcDbLine
 10
76.973943
 20
34.903235
 30
0.0
 11
77.673117
 21
32.650681
 31
0.0
  0
LINE
  5
257
100
AcDbEntity
  8
Layer_1
 62
7
100
AcDbLine
 10
77.673117
 20
32.650681
 30
0.0
 11
77.916857
 21
30.232240
 31
0.0
  0
LINE
  5
258
100
AcDbEntity
  8
Layer_1
 62
7
100
AcDbLine
 10
77.916857
 20
30.232240
 30
0.0
 11
77.673027
 21
27.813879
 31
0.0
  0
LINE
  5
259
100
AcDbEntity
  8
Layer_1
 62
7
100
AcDbLine
 10
77.673027
 20
27.813879
 30
0.0
 11
76.973795
 21
25.561410
 31
0.0
  0
LINE
  5
25a
100
AcDbEntity
  8
Layer_1
 62
7
100
AcDbLine
 10
76.973795
 20
25.561410
 30
0.0
 11
75.867413
 21
23.523085
 31
0.0
  0
LINE
  5
25b
100
AcDbEntity
  8
Layer_1
 62
7
100
AcDbLine
 10
75.867413
 20
23.523085
 30
0.0
 11
74.402132
 21
21.747155
 31
0.0
  0
LINE
  5
25c
100
AcDbEntity
  8
Layer_1
 62
7
100
AcDbLine
 10
74.402132
 20
21.747155
 30
0.0
 11
72.626203
 21
20.281873
 31
0.0
  0
LINE
  5
25d
100
AcDbEntity
  8
Layer_1
 62
7
100
AcDbLine
 10
72.626203
 20
20.281873
 30
0.0
 11
70.587878
 21
19.175491
 31
0.0
  0
LINE
  5
25e
100
AcDbEntity
  8
Layer_1
 62
7
100
AcDbLine
 10
70.587878
 20
19.175491
 30
0.0
 11
68.335410
 21
18.476259
 31
0.0
  0
LINE
  5
25f
100
AcDbEntity
  8
Layer_1
 62
7
100
AcDbLine
 10
68.335410
 20
18.476259
 30
0.0
 11
65.917048
 21
18.232429
 31
0.0
  0
LINE
  5
260
100
AcDbEntity
  8
Layer_1
 62
7
100
AcDbLine
 10
65.917048
 20
18.232429
 30
0.0
 11
63.498607
 21
18.476168
 31
0.0
  0
LINE
  5
261
100
AcDbEntity
  8
Layer_1
 62
7
100
AcDbLine
 10
63.498607
 20
18.476168
 30
0.0
 11
61.246052
 21
19.175342
 31
0.0
  0
LINE
  5
262
100
AcDbEntity
  8
Layer_1
 62
7
100
AcDbLine
 10
61.246052
 20
19.175342
 30
0.0
 11
59.207641
 21
20.281695
 31
0.0
  0
LINE
  5
263
100
AcDbEntity
  8
Layer_1
 62
7
100
AcDbLine
 10
59.207641
 20
20.281695
 30
0.0
 11
57.431630
 21
21.746973
 31
0.0
  0
LINE
  5
264
100
AcDbEntity
  8
Layer_1
 62
7
100
AcDbLine
 10
57.431630
 20
21.746973
 30
0.0
 11
55.966276
 21
23.522921
 31
0.0
  0
LINE
  5
265
100
AcDbEntity
  8
Layer_1
 62
7
100
AcDbLine
 10
55.966276
 20
23.522921
 30
0.0
 11
54.859835
 21
25.561285
 31
0.0
  0
LINE
  5
266
100
AcDbEntity
  8
Layer_1
 62
7
100
AcDbLine
 10
54.859835
 20
25.561285
 30
0.0
 11
54.160565
 21
27.813809
 31
0.0
  0
LINE
  5
267
100
AcDbEntity
  8
Layer_1
 62
7
100
AcDbLine
 10
54.160565
 20
27.813809
 30
0.0
 11
53.916721
 21
30.232240
 31
0.0
  0
LINE
  5
268
100
AcDbEntity
  8
Layer_1
 62
7
100
AcDbLine
 10
53.916721
 20
30.232240
 30
0.0
 11
54.160475
 21
32.650751
 31
0.0
  0
LINE
  5
269
100
AcDbEntity
  8
Layer_1
 62
7
100
AcDbLine
 10
54.160475
 20
32.650751
 30
0.0
 11
54.859688
 21
34.903360
 31
0.0
  0
LINE
  5
26a
100
AcDbEntity
  8
Layer_1
 62
7
100
AcDbLine
 10
54.859688
 20
34.903360
 30
0.0
 11
55.966099
 21
36.941810
 31
0.0
  0
LINE
  5
26b
100
AcDbEntity
  8
Layer_1
 62
7
100
AcDbLine
 10
55.966099
 20
36.941810
 30
0.0
 11
57.431449
 21
38.717839
 31
0.0
  0
LINE
  5
26c
100
AcDbEntity
  8
Layer_1
 62
7
100
AcDbLine
 10
57.431449
 20
38.717839
 30
0.0
 11
59.207478
 21
40.183189
 31
0.0
  0
LINE
  5
26d
100
AcDbEntity
  8
Layer_1
 62
7
100
AcDbLine
 10
59.207478
 20
40.183189
 30
0.0
 11
61.245928
 21
41.289599
 31
0.0
  0
LINE
  5
26e
100
AcDbEntity
  8
Layer_1
 62
7
100
AcDbLine
 10
61.245928
 20
41.289599
 30
0.0
 11
63.498538
 21
41.988811
 31
0.0
  0
LINE
  5
26f
100
AcDbEntity
  8
Layer_1
 62
7
100
AcDbLine
 10
63.498538
 20
41.988811
 30
0.0
 11
65.917048
 21
42.232564
 31
0.0
  0
LINE
  5
270
100
AcDbEntity
  8
Layer_1
 62
7
100
AcDbLine
 10
65.917048
 20
42.232564
 30
0.0
 11
65.917048
 21
42.232564
 31
0.0
  0
LINE
  5
271
100
AcDbEntity
  8
Layer_1
 62
7
100
AcDbLine
 10
11.599833
 20
6.000075
 30
0.0
 11
23.600160
 21
6.000075
 31
0.0
  0
LINE
  5
272
100
AcDbEntity
  8
Layer_1
 62
7
100
AcDbLine
 10
23.600160
 20
6.000075
 30
0.0
 11
23.600160
 21
2.999733
 31
0.0
  0
LINE
  5
273
100
AcDbEntity
  8
Layer_1
 62
7
100
AcDbLine
 10
23.600160
 20
2.999733
 30
0.0
 11
11.599833
 21
2.999733
 31
0.0
  0
LINE
  5
274
100
AcDbEntity
  8
Layer_1
 62
7
100
AcDbLine
 10
11.599833
 20
2.999733
 30
0.0
 11
11.599833
 21
6.000075
 31
0.0
  0
LINE
  5
275
100
AcDbEntity
  8
Layer_1
 62
7
100
AcDbLine
 10
79.599962
 20
6.000075
 30
0.0
 11
91.600289
 21
6.000075
 31
0.0
  0
LINE
  5
276
100
AcDbEntity
  8
Layer_1
 62
7
100
AcDbLine
 10
91.600289
 20
6.000075
 30
0.0
 11
91.600289
 21
2.999733
 31
0.0
  0
LINE
  5
277
100
AcDbEntity
  8
Layer_1
 62
7
100
AcDbLine
 10
91.600289
 20
2.999733
 30
0.0
 11
79.599962
 21
2.999733
 31
0.0
  0
LINE
  5
278
100
AcDbEntity
  8
Layer_1
 62
7
100
AcDbLine
 10
79.599962
 20
2.999733
 30
0.0
 11
79.599962
 21
6.000075
 31
0.0
  0
ENDSEC
  0
SECTION
  2
OBJECTS
  0
DICTIONARY
  5
C
330
0
100
AcDbDictionary
  3
ACAD_GROUP
350
D
  3
ACAD_MLINESTYLE
350
17
  0
DICTIONARY
  5
D
330
C
100
AcDbDictionary
  0
DICTIONARY
  5
1A
330
C
100
AcDbDictionary
  0
DICTIONARY
  5
17
330
C
100
AcDbDictionary
  3
STANDARD
350
18
  0
DICTIONARY
  5
19
330
C
100
AcDbDictionary
  0
ENDSEC
  0
EOF
