  0
SECTION
  2
HEADER
  9
$ACADVER
  1
AC1014
  9
$HANDSEED
  5
FFFF
  9
$MEASUREMENT
 70
     1
  0
ENDSEC
  0
SECTION
  2
TABLES
  0
TABLE
  2
VPORT
  5
8
330
0
100
AcDbSymbolTable
 70
     4
  0
VPORT
  5
2E
330
8
100
AcDbSymbolTableRecord
100
AcDbViewportTableRecord
  2
*ACTIVE
 70
     0
 10
0.0
 20
0.0
 11
1.0
 21
1.0
 12
210.0
 22
148.5
 13
0.0
 23
0.0
 14
10.0
 24
10.0
 15
10.0
 25
10.0
 16
0.0
 26
0.0
 36
1.0
 17
0.0
 27
0.0
 37
0.0
 40
341.0
 41
1.24
 42
50.0
 43
0.0
 44
0.0
 50
0.0
 51
0.0
 71
     0
 72
   100
 73
     1
 74
     3
 75
     0
 76
     0
 77
     0
 78
     0
  0
ENDTAB
  0
TABLE
  2
LTYPE
  5
5
330
0
100
AcDbSymbolTable
 70
     1
  0
LTYPE
  5
14
330
5
100
AcDbSymbolTableRecord
100
AcDbLinetypeTableRecord
  2
BYBLOCK
 70
     0
  3

 72
    65
 73
     0
 40
0.0
  0
LTYPE
  5
15
330
5
100
AcDbSymbolTableRecord
100
AcDbLinetypeTableRecord
  2
BYLAYER
 70
     0
  3

 72
    65
 73
     0
 40
0.0
  0
LTYPE
  5
16
330
5
100
AcDbSymbolTableRecord
100
AcDbLinetypeTableRecord
  2
CONTINUOUS
 70
     0
  3
Solid line
 72
    65
 73
     0
 40
0.0
  0
ENDTAB
  0
TABLE
  2
LAYER
  5
2
100
AcDbSymbolTable
 70
2
  0
LAYER
  5
50
100
AcDbSymbolTableRecord
100
AcDbLayerTableRecord
  2
0
 70
0
  6
CONTINUOUS
  0
LAYER
  5
51
100
AcDbSymbolTableRecord
100
AcDbLayerTableRecord
  2
Layer_1
 70
0
  6
CONTINUOUS
  0
ENDTAB
  0
TABLE
  2
STYLE
  5
3
330
0
100
AcDbSymbolTable
 70
     1
  0
STYLE
  5
11
330
3
100
AcDbSymbolTableRecord
100
AcDbTextStyleTableRecord
  2
STANDARD
 70
     0
 40
0.0
 41
1.0
 50
0.0
 71
     0
 42
2.5
  3
txt
  4

  0
ENDTAB
  0
TABLE
  2
VIEW
  5
6
330
0
100
AcDbSymbolTable
 70
     0
  0
ENDTAB
  0
TABLE
  2
UCS
  5
7
330
0
100
AcDbSymbolTable
 70
     0
  0
ENDTAB
  0
TABLE
  2
APPID
  5
9
330
0
100
AcDbSymbolTable
 70
     2
  0
APPID
  5
12
330
9
100
AcDbSymbolTableRecord
100
AcDbRegAppTableRecord
  2
ACAD
 70
     0
  0
ENDTAB
  0
TABLE
  2
DIMSTYLE
  5
A
330
0
100
AcDbSymbolTable
 70
     1
  0
DIMSTYLE
105
27
330
A
100
AcDbSymbolTableRecord
100
AcDbDimStyleTableRecord
  2
ISO-25
 70
     0
  3

  4

  5

  6

  7

 40
1.0
 41
2.5
 42
0.625
 43
3.75
 44
1.25
 45
0.0
 46
0.0
 47
0.0
 48
0.0
140
2.5
141
2.5
142
0.0
143
0.03937007874016
144
1.0
145
0.0
146
1.0
147
0.625
 71
     0
 72
     0
 73
     0
 74
     0
 75
     0
 76
     0
 77
     1
 78
     8
170
     0
171
     3
172
     1
173
     0
174
     0
175
     0
176
     0
177
     0
178
     0
270
     2
271
     2
272
     2
273
     2
274
     3
340
11
275
     0
280
     0
281
     0
282
     0
283
     0
284
     8
285
     0
286
     0
287
     3
288
     0
  0
ENDTAB
  0
TABLE
  2
BLOCK_RECORD
  5
1
330
0
100
AcDbSymbolTable
 70
     1
  0
BLOCK_RECORD
  5
1F
330
1
100
AcDbSymbolTableRecord
100
AcDbBlockTableRecord
  2
*MODEL_SPACE
  0
BLOCK_RECORD
  5
1B
330
1
100
AcDbSymbolTableRecord
100
AcDbBlockTableRecord
  2
*PAPER_SPACE
  0
ENDTAB
  0
ENDSEC
  0
SECTION
  2
BLOCKS
  0
BLOCK
  5
20
330
1F
100
AcDbEntity
  8
0
100
AcDbBlockBegin
  2
*MODEL_SPACE
 70
     0
 10
0.0
 20
0.0
 30
0.0
  3
*MODEL_SPACE
  1

  0
ENDBLK
  5
21
330
1F
100
AcDbEntity
  8
0
100
AcDbBlockEnd
  0
BLOCK
  5
1C
330
1B
100
AcDbEntity
 67
     1
  8
0
100
AcDbBlockBegin
  2
*PAPER_SPACE
  1

  0
ENDBLK
  5
1D
330
1B
100
AcDbEntity
 67
     1
  8
0
100
AcDbBlockEnd
  0
ENDSEC
  0
SECTION
  2
ENTITIES
  0
LINE
  5
100
100
AcDbEntity
  8
Layer_1
 62
7
100
AcDbLine
 10
0.100252
 20
70.099664
 30
0.0
 11
0.100252
 21
64.099974
 31
0.0
  0
LINE
  5
101
100
AcDbEntity
  8
Layer_1
 62
7
100
AcDbLine
 10
0.100252
 20
64.099974
 30
0.0
 11
3.100069
 21
64.099974
 31
0.0
  0
LINE
  5
102
100
AcDbEntity
  8
Layer_1
 62
7
100
AcDbLine
 10
3.100069
 20
64.099974
 30
0.0
 11
3.100069
 21
51.099675
 31
0.0
  0
LINE
  5
103
100
AcDbEntity
  8
Layer_1
 62
7
100
AcDbLine
 10
3.100069
 20
51.099675
 30
0.0
 11
0.100252
 21
51.099675
 31
0.0
  0
LINE
  5
104
100
AcDbEntity
  8
Layer_1
 62
7
100
AcDbLine
 10
0.100252
 20
51.099675
 30
0.0
 11
0.100252
 21
45.099985
 31
0.0
  0
LINE
  5
105
100
AcDbEntity
  8
Layer_1
 62
7
100
AcDbLine
 10
0.100252
 20
45.099985
 30
0.0
 11
3.100069
 21
45.099985
 31
0.0
  0
LINE
  5
106
100
AcDbEntity
  8
Layer_1
 62
7
100
AcDbLine
 10
3.100069
 20
45.099985
 30
0.0
 11
24.099804
 21
45.099985
 31
0.0
  0
LINE
  5
107
100
AcDbEntity
  8
Layer_1
 62
7
100
AcDbLine
 10
24.099804
 20
45.099985
 30
0.0
 11
24.099804
 21
7.254790
 31
0.0
  0
LINE
  5
108
100
AcDbEntity
  8
Layer_1
 62
7
100
AcDbLine
 10
24.099804
 20
7.254790
 30
0.0
 11
3.100069
 21
7.254790
 31
0.0
  0
LINE
  5
109
100
AcDbEntity
  8
Layer_1
 62
7
100
AcDbLine
 10
3.100069
 20
7.254790
 30
0.0
 11
3.100069
 21
6.101207
 31
0.0
  0
LINE
  5
10a
100
AcDbEntity
  8
Layer_1
 62
7
100
AcDbLine
 10
3.100069
 20
6.101207
 30
0.0
 11
0.100252
 21
6.101207
 31
0.0
  0
LINE
  5
10b
100
AcDbEntity
  8
Layer_1
 62
7
100
AcDbLine
 10
0.100252
 20
6.101207
 30
0.0
 11
0.100252
 21
0.100458
 31
0.0
  0
LINE
  5
10c
100
AcDbEntity
  8
Layer_1
 62
7
100
AcDbLine
 10
0.100252
 20
0.100458
 30
0.0
 11
102.100034
 21
0.100458
 31
0.0
  0
LINE
  5
10d
100
AcDbEntity
  8
Layer_1
 62
7
100
AcDbLine
 10
102.100034
 20
0.100458
 30
0.0
 11
102.100034
 21
6.101207
 31
0.0
  0
LINE
  5
10e
100
AcDbEntity
  8
Layer_1
 62
7
100
AcDbLine
 10
102.100034
 20
6.101207
 30
0.0
 11
99.099924
 21
6.101207
 31
0.0
  0
LINE
  5
10f
100
AcDbEntity
  8
Layer_1
 62
7
100
AcDbLine
 10
99.099924
 20
6.101207
 30
0.0
 11
99.099924
 21
7.254790
 31
0.0
  0
LINE
  5
110
100
AcDbEntity
  8
Layer_1
 62
7
100
AcDbLine
 10
99.099924
 20
7.254790
 30
0.0
 11
78.099951
 21
7.254790
 31
0.0
  0
LINE
  5
111
100
AcDbEntity
  8
Layer_1
 62
7
100
AcDbLine
 10
78.099951
 20
7.254790
 30
0.0
 11
78.099951
 21
45.099985
 31
0.0
  0
LINE
  5
112
100
AcDbEntity
  8
Layer_1
 62
7
100
AcDbLine
 10
78.099951
 20
45.099985
 30
0.0
 11
99.099924
 21
45.099985
 31
0.0
  0
LINE
  5
113
100
AcDbEntity
  8
Layer_1
 62
7
100
AcDbLine
 10
99.099924
 20
45.099985
 30
0.0
 11
102.100034
 21
45.099985
 31
0.0
  0
LINE
  5
114
100
AcDbEntity
  8
Layer_1
 62
7
100
AcDbLine
 10
102.100034
 20
45.099985
 30
0.0
 11
102.100034
 21
51.099675
 31
0.0
  0
LINE
  5
115
100
AcDbEntity
  8
Layer_1
 62
7
100
AcDbLine
 10
102.100034
 20
51.099675
 30
0.0
 11
99.099924
 21
51.099675
 31
0.0
  0
LINE
  5
116
100
AcDbEntity
  8
Layer_1
 62
7
100
AcDbLine
 10
99.099924
 20
51.099675
 30
0.0
 11
99.099924
 21
64.099974
 31
0.0
  0
LINE
  5
117
100
AcDbEntity
  8
Layer_1
 62
7
100
AcDbLine
 10
99.099924
 20
64.099974
 30
0.0
 11
102.100034
 21
64.099974
 31
0.0
  0
LINE
  5
118
100
AcDbEntity
  8
Layer_1
 62
7
100
AcDbLine
 10
102.100034
 20
64.099974
 30
0.0
 11
102.100034
 21
70.099664
 31
0.0
  0
LINE
  5
119
100
AcDbEntity
  8
Layer_1
 62
7
100
AcDbLine
 10
102.100034
 20
70.099664
 30
0.0
 11
99.099924
 21
70.099664
 31
0.0
  0
LINE
  5
11a
100
AcDbEntity
  8
Layer_1
 62
7
100
AcDbLine
 10
99.099924
 20
70.099664
 30
0.0
 11
76.422229
 21
70.099664
 31
0.0
  0
LINE
  5
11b
100
AcDbEntity
  8
Layer_1
 62
7
100
AcDbLine
 10
76.422229
 20
70.099664
 30
0.0
 11
76.411910
 21
69.998328
 31
0.0
  0
LINE
  5
11c
100
AcDbEntity
  8
Layer_1
 62
7
100
AcDbLine
 10
76.411910
 20
69.998328
 30
0.0
 11
76.353437
 21
69.810210
 31
0.0
  0
LINE
  5
11d
100
AcDbEntity
  8
Layer_1
 62
7
100
AcDbLine
 10
76.353437
 20
69.810210
 30
0.0
 11
76.139389
 21
69.492445
 31
0.0
  0
LINE
  5
11e
100
AcDbEntity
  8
Layer_1
 62
7
100
AcDbLine
 10
76.139389
 20
69.492445
 30
0.0
 11
75.822154
 21
69.278397
 31
0.0
  0
LINE
  5
11f
100
AcDbEntity
  8
Layer_1
 62
7
100
AcDbLine
 10
75.822154
 20
69.278397
 30
0.0
 11
75.634035
 21
69.220453
 31
0.0
  0
LINE
  5
120
100
AcDbEntity
  8
Layer_1
 62
7
100
AcDbLine
 10
75.634035
 20
69.220453
 30
0.0
 11
75.432158
 21
69.199816
 31
0.0
  0
LINE
  5
121
100
AcDbEntity
  8
Layer_1
 62
7
100
AcDbLine
 10
75.432158
 20
69.199816
 30
0.0
 11
72.432313
 21
69.199816
 31
0.0
  0
LINE
  5
122
100
AcDbEntity
  8
Layer_1
 62
7
100
AcDbLine
 10
72.432313
 20
69.199816
 30
0.0
 11
72.230171
 21
69.220453
 31
0.0
  0
LINE
  5
123
100
AcDbEntity
  8
Layer_1
 62
7
100
AcDbLine
 10
72.230171
 20
69.220453
 30
0.0
 11
72.042053
 21
69.278397
 31
0.0
  0
LINE
  5
124
100
AcDbEntity
  8
Layer_1
 62
7
100
AcDbLine
 10
72.042053
 20
69.278397
 30
0.0
 11
71.724817
 21
69.492445
 31
0.0
  0
LINE
  5
125
100
AcDbEntity
  8
Layer_1
 62
7
100
AcDbLine
 10
71.724817
 20
69.492445
 30
0.0
 11
71.510770
 21
69.810210
 31
0.0
  0
LINE
  5
126
100
AcDbEntity
  8
Layer_1
 62
7
100
AcDbLine
 10
71.510770
 20
69.810210
 30
0.0
 11
71.452297
 21
69.998328
 31
0.0
  0
LINE
  5
127
100
AcDbEntity
  8
Layer_1
 62
7
100
AcDbLine
 10
71.452297
 20
69.998328
 30
0.0
 11
71.441978
 21
70.099664
 31
0.0
  0
LINE
  5
128
100
AcDbEntity
  8
Layer_1
 62
7
100
AcDbLine
 10
71.441978
 20
70.099664
 30
0.0
 11
24.099804
 21
70.099664
 31
0.0
  0
LINE
  5
129
100
AcDbEntity
  8
Layer_1
 62
7
100
AcDbLine
 10
24.099804
 20
70.099664
 30
0.0
 11
3.100069
 21
70.099664
 31
0.0
  0
LINE
  5
12a
100
AcDbEntity
  8
Layer_1
 62
7
100
AcDbLine
 10
3.100069
 20
70.099664
 30
0.0
 11
0.100252
 21
70.099664
 31
0.0
  0
LINE
  5
12b
100
AcDbEntity
  8
Layer_1
 62
7
100
AcDbLine
 10
0.100252
 20
70.099664
 30
0.0
 11
0.100252
 21
70.099664
 31
0.0
  0
LINE
  5
12c
100
AcDbEntity
  8
Layer_1
 62
7
100
AcDbLine
 10
0.100252
 20
70.099664
 30
0.0
 11
0.100252
 21
70.099664
 31
0.0
  0
LINE
  5
12d
100
AcDbEntity
  8
Layer_1
 62
7
100
AcDbLine
 10
44.100208
 20
59.099879
 30
0.0
 11
44.402363
 21
59.069452
 31
0.0
  0
LINE
  5
12e
100
AcDbEntity
  8
Layer_1
 62
7
100
AcDbLine
 10
44.402363
 20
59.069452
 30
0.0
 11
44.683879
 21
58.981875
 31
0.0
  0
LINE
  5
12f
100
AcDbEntity
  8
Layer_1
 62
7
100
AcDbLine
 10
44.683879
 20
58.981875
 30
0.0
 11
44.938408
 21
58.843763
 31
0.0
  0
LINE
  5
130
100
AcDbEntity
  8
Layer_1
 62
7
100
AcDbLine
 10
44.938408
 20
58.843763
 30
0.0
 11
45.160394
 21
58.660406
 31
0.0
  0
LINE
  5
131
100
AcDbEntity
  8
Layer_1
 62
7
100
AcDbLine
 10
45.160394
 20
58.660406
 30
0.0
 11
45.343485
 21
58.438686
 31
0.0
  0
LINE
  5
132
100
AcDbEntity
  8
Layer_1
 62
7
100
AcDbLine
 10
45.343485
 20
58.438686
 30
0.0
 11
45.481862
 21
58.183892
 31
0.0
  0
LINE
  5
133
100
AcDbEntity
  8
Layer_1
 62
7
100
AcDbLine
 10
45.481862
 20
58.183892
 30
0.0
 11
45.569175
 21
57.902375
 31
0.0
  0
LINE
  5
134
100
AcDbEntity
  8
Layer_1
 62
7
100
AcDbLine
 10
45.569175
 20
57.902375
 30
0.0
 11
45.599866
 21
57.600221
 31
0.0
  0
LINE
  5
135
100
AcDbEntity
  8
Layer_1
 62
7
100
AcDbLine
 10
45.599866
 20
57.600221
 30
0.0
 11
45.569439
 21
57.297803
 31
0.0
  0
LINE
  5
136
100
AcDbEntity
  8
Layer_1
 62
7
100
AcDbLine
 10
45.569439
 20
57.297803
 30
0.0
 11
45.481862
 21
57.016286
 31
0.0
  0
LINE
  5
137
100
AcDbEntity
  8
Layer_1
 62
7
100
AcDbLine
 10
45.481862
 20
57.016286
 30
0.0
 11
45.343750
 21
56.761492
 31
0.0
  0
LINE
  5
138
100
AcDbEntity
  8
Layer_1
 62
7
100
AcDbLine
 10
45.343750
 20
56.761492
 30
0.0
 11
45.160658
 21
56.539507
 31
0.0
  0
LINE
  5
139
100
AcDbEntity
  8
Layer_1
 62
7
100
AcDbLine
 10
45.160658
 20
56.539507
 30
0.0
 11
44.938673
 21
56.356415
 31
0.0
  0
LINE
  5
13a
100
AcDbEntity
  8
Layer_1
 62
7
100
AcDbLine
 10
44.938673
 20
56.356415
 30
0.0
 11
44.683879
 21
56.218038
 31
0.0
  0
LINE
  5
13b
100
AcDbEntity
  8
Layer_1
 62
7
100
AcDbLine
 10
44.683879
 20
56.218038
 30
0.0
 11
44.402363
 21
56.130461
 31
0.0
  0
LINE
  5
13c
100
AcDbEntity
  8
Layer_1
 62
7
100
AcDbLine
 10
44.402363
 20
56.130461
 30
0.0
 11
44.100208
 21
56.100034
 31
0.0
  0
LINE
  5
13d
100
AcDbEntity
  8
Layer_1
 62
7
100
AcDbLine
 10
44.100208
 20
56.100034
 30
0.0
 11
43.805992
 21
56.129138
 31
0.0
  0
LINE
  5
13e
100
AcDbEntity
  8
Layer_1
 62
7
100
AcDbLine
 10
43.805992
 20
56.129138
 30
0.0
 11
43.526063
 21
56.214070
 31
0.0
  0
LINE
  5
13f
100
AcDbEntity
  8
Layer_1
 62
7
100
AcDbLine
 10
43.526063
 20
56.214070
 30
0.0
 11
43.267830
 21
56.351918
 31
0.0
  0
LINE
  5
140
100
AcDbEntity
  8
Layer_1
 62
7
100
AcDbLine
 10
43.267830
 20
56.351918
 30
0.0
 11
43.039230
 21
56.539507
 31
0.0
  0
LINE
  5
141
100
AcDbEntity
  8
Layer_1
 62
7
100
AcDbLine
 10
43.039230
 20
56.539507
 30
0.0
 11
42.851905
 21
56.767842
 31
0.0
  0
LINE
  5
142
100
AcDbEntity
  8
Layer_1
 62
7
100
AcDbLine
 10
42.851905
 20
56.767842
 30
0.0
 11
42.714057
 21
57.026076
 31
0.0
  0
LINE
  5
143
100
AcDbEntity
  8
Layer_1
 62
7
100
AcDbLine
 10
42.714057
 20
57.026076
 30
0.0
 11
42.629126
 21
57.306269
 31
0.0
  0
LINE
  5
144
100
AcDbEntity
  8
Layer_1
 62
7
100
AcDbLine
 10
42.629126
 20
57.306269
 30
0.0
 11
42.600021
 21
57.600221
 31
0.0
  0
LINE
  5
145
100
AcDbEntity
  8
Layer_1
 62
7
100
AcDbLine
 10
42.600021
 20
57.600221
 30
0.0
 11
42.630448
 21
57.902375
 31
0.0
  0
LINE
  5
146
100
AcDbEntity
  8
Layer_1
 62
7
100
AcDbLine
 10
42.630448
 20
57.902375
 30
0.0
 11
42.718026
 21
58.183892
 31
0.0
  0
LINE
  5
147
100
AcDbEntity
  8
Layer_1
 62
7
100
AcDbLine
 10
42.718026
 20
58.183892
 30
0.0
 11
42.856403
 21
58.438686
 31
0.0
  0
LINE
  5
148
100
AcDbEntity
  8
Layer_1
 62
7
100
AcDbLine
 10
42.856403
 20
58.438686
 30
0.0
 11
43.039494
 21
58.660671
 31
0.0
  0
LINE
  5
149
100
AcDbEntity
  8
Layer_1
 62
7
100
AcDbLine
 10
43.039494
 20
58.660671
 30
0.0
 11
43.261480
 21
58.843763
 31
0.0
  0
LINE
  5
14a
100
AcDbEntity
  8
Layer_1
 62
7
100
AcDbLine
 10
43.261480
 20
58.843763
 30
0.0
 11
43.516273
 21
58.982140
 31
0.0
  0
LINE
  5
14b
100
AcDbEntity
  8
Layer_1
 62
7
100
AcDbLine
 10
43.516273
 20
58.982140
 30
0.0
 11
43.797790
 21
59.069452
 31
0.0
  0
LINE
  5
14c
100
AcDbEntity
  8
Layer_1
 62
7
100
AcDbLine
 10
43.797790
 20
59.069452
 30
0.0
 11
44.100208
 21
59.099879
 31
0.0
  0
LINE
  5
14d
100
AcDbEntity
  8
Layer_1
 62
7
100
AcDbLine
 10
44.100208
 20
59.099879
 30
0.0
 11
44.100208
 21
59.099879
 31
0.0
  0
LINE
  5
14e
100
AcDbEntity
  8
Layer_1
 62
7
100
AcDbLine
 10
44.100208
 20
59.099879
 30
0.0
 11
44.100208
 21
59.099879
 31
0.0
  0
LINE
  5
14f
100
AcDbEntity
  8
Layer_1
 62
7
100
AcDbLine
 10
44.100208
 20
59.099879
 30
0.0
 11
44.100208
 21
59.099879
 31
0.0
  0
LINE
  5
150
100
AcDbEntity
  8
Layer_1
 62
7
100
AcDbLine
 10
72.432313
 20
45.199998
 30
0.0
 11
75.432158
 21
45.199998
 31
0.0
  0
LINE
  5
151
100
AcDbEntity
  8
Layer_1
 62
7
100
AcDbLine
 10
75.432158
 20
45.199998
 30
0.0
 11
75.634035
 21
45.179889
 31
0.0
  0
LINE
  5
152
100
AcDbEntity
  8
Layer_1
 62
7
100
AcDbLine
 10
75.634035
 20
45.179889
 30
0.0
 11
75.822154
 21
45.121681
 31
0.0
  0
LINE
  5
153
100
AcDbEntity
  8
Layer_1
 62
7
100
AcDbLine
 10
75.822154
 20
45.121681
 30
0.0
 11
76.139654
 21
44.907898
 31
0.0
  0
LINE
  5
154
100
AcDbEntity
  8
Layer_1
 62
7
100
AcDbLine
 10
76.139654
 20
44.907898
 30
0.0
 11
76.353701
 21
44.590133
 31
0.0
  0
LINE
  5
155
100
AcDbEntity
  8
Layer_1
 62
7
100
AcDbLine
 10
76.353701
 20
44.590133
 30
0.0
 11
76.411645
 21
44.402015
 31
0.0
  0
LINE
  5
156
100
AcDbEntity
  8
Layer_1
 62
7
100
AcDbLine
 10
76.411645
 20
44.402015
 30
0.0
 11
76.432018
 21
44.200138
 31
0.0
  0
LINE
  5
157
100
AcDbEntity
  8
Layer_1
 62
7
100
AcDbLine
 10
76.432018
 20
44.200138
 30
0.0
 11
76.411645
 21
43.997996
 31
0.0
  0
LINE
  5
158
100
AcDbEntity
  8
Layer_1
 62
7
100
AcDbLine
 10
76.411645
 20
43.997996
 30
0.0
 11
76.353701
 21
43.810142
 31
0.0
  0
LINE
  5
159
100
AcDbEntity
  8
Layer_1
 62
7
100
AcDbLine
 10
76.353701
 20
43.810142
 30
0.0
 11
76.139654
 21
43.492377
 31
0.0
  0
LINE
  5
15a
100
AcDbEntity
  8
Layer_1
 62
7
100
AcDbLine
 10
76.139654
 20
43.492377
 30
0.0
 11
75.822154
 21
43.278594
 31
0.0
  0
LINE
  5
15b
100
AcDbEntity
  8
Layer_1
 62
7
100
AcDbLine
 10
75.822154
 20
43.278594
 30
0.0
 11
75.634035
 21
43.220386
 31
0.0
  0
LINE
  5
15c
100
AcDbEntity
  8
Layer_1
 62
7
100
AcDbLine
 10
75.634035
 20
43.220386
 30
0.0
 11
75.432158
 21
43.200277
 31
0.0
  0
LINE
  5
15d
100
AcDbEntity
  8
Layer_1
 62
7
100
AcDbLine
 10
75.432158
 20
43.200277
 30
0.0
 11
72.432313
 21
43.200277
 31
0.0
  0
LINE
  5
15e
100
AcDbEntity
  8
Layer_1
 62
7
100
AcDbLine
 10
72.432313
 20
43.200277
 30
0.0
 11
72.230171
 21
43.220386
 31
0.0
  0
LINE
  5
15f
100
AcDbEntity
  8
Layer_1
 62
7
100
AcDbLine
 10
72.230171
 20
43.220386
 30
0.0
 11
72.042317
 21
43.278594
 31
0.0
  0
LINE
  5
160
100
AcDbEntity
  8
Layer_1
 62
7
100
AcDbLine
 10
72.042317
 20
43.278594
 30
0.0
 11
71.724553
 21
43.492377
 31
0.0
  0
LINE
  5
161
100
AcDbEntity
  8
Layer_1
 62
7
100
AcDbLine
 10
71.724553
 20
43.492377
 30
0.0
 11
71.510770
 21
43.810142
 31
0.0
  0
LINE
  5
162
100
AcDbEntity
  8
Layer_1
 62
7
100
AcDbLine
 10
71.510770
 20
43.810142
 30
0.0
 11
71.452561
 21
43.997996
 31
0.0
  0
LINE
  5
163
100
AcDbEntity
  8
Layer_1
 62
7
100
AcDbLine
 10
71.452561
 20
43.997996
 30
0.0
 11
71.432188
 21
44.200138
 31
0.0
  0
LINE
  5
164
100
AcDbEntity
  8
Layer_1
 62
7
100
AcDbLine
 10
71.432188
 20
44.200138
 30
0.0
 11
71.452561
 21
44.402015
 31
0.0
  0
LINE
  5
165
100
AcDbEntity
  8
Layer_1
 62
7
100
AcDbLine
 10
71.452561
 20
44.402015
 30
0.0
 11
71.510770
 21
44.590133
 31
0.0
  0
LINE
  5
166
100
AcDbEntity
  8
Layer_1
 62
7
100
AcDbLine
 10
71.510770
 20
44.590133
 30
0.0
 11
71.724553
 21
44.907898
 31
0.0
  0
LINE
  5
167
100
AcDbEntity
  8
Layer_1
 62
7
100
AcDbLine
 10
71.724553
 20
44.907898
 30
0.0
 11
72.042317
 21
45.121681
 31
0.0
  0
LINE
  5
168
100
AcDbEntity
  8
Layer_1
 62
7
100
AcDbLine
 10
72.042317
 20
45.121681
 30
0.0
 11
72.230171
 21
45.179889
 31
0.0
  0
LINE
  5
169
100
AcDbEntity
  8
Layer_1
 62
7
100
AcDbLine
 10
72.230171
 20
45.179889
 30
0.0
 11
72.432313
 21
45.199998
 31
0.0
  0
LINE
  5
16a
100
AcDbEntity
  8
Layer_1
 62
7
100
AcDbLine
 10
72.432313
 20
45.199998
 30
0.0
 11
72.432313
 21
45.199998
 31
0.0
  0
LINE
  5
16b
100
AcDbEntity
  8
Layer_1
 62
7
100
AcDbLine
 10
37.100129
 20
30.699512
 30
0.0
 11
65.099917
 21
30.699512
 31
0.0
  0
LINE
  5
16c
100
AcDbEntity
  8
Layer_1
 62
7
100
AcDbLine
 10
65.099917
 20
30.699512
 30
0.0
 11
65.503936
 21
30.659825
 31
0.0
  0
LINE
  5
16d
100
AcDbEntity
  8
Layer_1
 62
7
100
AcDbLine
 10
65.503936
 20
30.659825
 30
0.0
 11
65.879909
 21
30.543408
 31
0.0
  0
LINE
  5
16e
100
AcDbEntity
  8
Layer_1
 62
7
100
AcDbLine
 10
65.879909
 20
30.543408
 30
0.0
 11
66.219634
 21
30.360846
 31
0.0
  0
LINE
  5
16f
100
AcDbEntity
  8
Layer_1
 62
7
100
AcDbLine
 10
66.219634
 20
30.360846
 30
0.0
 11
66.515438
 21
30.114783
 31
0.0
  0
LINE
  5
170
100
AcDbEntity
  8
Layer_1
 62
7
100
AcDbLine
 10
66.515438
 20
30.114783
 30
0.0
 11
66.759119
 21
29.821096
 31
0.0
  0
LINE
  5
171
100
AcDbEntity
  8
Layer_1
 62
7
100
AcDbLine
 10
66.759119
 20
29.821096
 30
0.0
 11
66.943004
 21
29.479783
 31
0.0
  0
LINE
  5
172
100
AcDbEntity
  8
Layer_1
 62
7
100
AcDbLine
 10
66.943004
 20
29.479783
 30
0.0
 11
67.059156
 21
29.104075
 31
0.0
  0
LINE
  5
173
100
AcDbEntity
  8
Layer_1
 62
7
100
AcDbLine
 10
67.059156
 20
29.104075
 30
0.0
 11
67.099637
 21
28.699263
 31
0.0
  0
LINE
  5
174
100
AcDbEntity
  8
Layer_1
 62
7
100
AcDbLine
 10
67.099637
 20
28.699263
 30
0.0
 11
67.099637
 21
26.198951
 31
0.0
  0
LINE
  5
175
100
AcDbEntity
  8
Layer_1
 62
7
100
AcDbLine
 10
67.099637
 20
26.198951
 30
0.0
 11
69.599949
 21
26.198951
 31
0.0
  0
LINE
  5
176
100
AcDbEntity
  8
Layer_1
 62
7
100
AcDbLine
 10
69.599949
 20
26.198951
 30
0.0
 11
70.003968
 21
26.159263
 31
0.0
  0
LINE
  5
177
100
AcDbEntity
  8
Layer_1
 62
7
100
AcDbLine
 10
70.003968
 20
26.159263
 30
0.0
 11
70.379676
 21
26.042847
 31
0.0
  0
LINE
  5
178
100
AcDbEntity
  8
Layer_1
 62
7
100
AcDbLine
 10
70.379676
 20
26.042847
 30
0.0
 11
70.719666
 21
25.860284
 31
0.0
  0
LINE
  5
179
100
AcDbEntity
  8
Layer_1
 62
7
100
AcDbLine
 10
70.719666
 20
25.860284
 30
0.0
 11
71.015205
 21
25.616868
 31
0.0
  0
LINE
  5
17a
100
AcDbEntity
  8
Layer_1
 62
7
100
AcDbLine
 10
71.015205
 20
25.616868
 30
0.0
 11
71.259151
 21
25.320535
 31
0.0
  0
LINE
  5
17b
100
AcDbEntity
  8
Layer_1
 62
7
100
AcDbLine
 10
71.259151
 20
25.320535
 30
0.0
 11
71.443036
 21
24.979222
 31
0.0
  0
LINE
  5
17c
100
AcDbEntity
  8
Layer_1
 62
7
100
AcDbLine
 10
71.443036
 20
24.979222
 30
0.0
 11
71.559188
 21
24.603514
 31
0.0
  0
LINE
  5
17d
100
AcDbEntity
  8
Layer_1
 62
7
100
AcDbLine
 10
71.559188
 20
24.603514
 30
0.0
 11
71.599669
 21
24.201347
 31
0.0
  0
LINE
  5
17e
100
AcDbEntity
  8
Layer_1
 62
7
100
AcDbLine
 10
71.599669
 20
24.201347
 30
0.0
 11
71.599669
 21
9.199477
 31
0.0
  0
LINE
  5
17f
100
AcDbEntity
  8
Layer_1
 62
7
100
AcDbLine
 10
71.599669
 20
9.199477
 30
0.0
 11
71.559188
 21
8.797310
 31
0.0
  0
LINE
  5
180
100
AcDbEntity
  8
Layer_1
 62
7
100
AcDbLine
 10
71.559188
 20
8.797310
 30
0.0
 11
71.443036
 21
8.418956
 31
0.0
  0
LINE
  5
181
100
AcDbEntity
  8
Layer_1
 62
7
100
AcDbLine
 10
71.443036
 20
8.418956
 30
0.0
 11
71.259151
 21
8.080289
 31
0.0
  0
LINE
  5
182
100
AcDbEntity
  8
Layer_1
 62
7
100
AcDbLine
 10
71.259151
 20
8.080289
 30
0.0
 11
71.015205
 21
7.783956
 31
0.0
  0
LINE
  5
183
100
AcDbEntity
  8
Layer_1
 62
7
100
AcDbLine
 10
71.015205
 20
7.783956
 30
0.0
 11
70.719666
 21
7.540540
 31
0.0
  0
LINE
  5
184
100
AcDbEntity
  8
Layer_1
 62
7
100
AcDbLine
 10
70.719666
 20
7.540540
 30
0.0
 11
70.379676
 21
7.357977
 31
0.0
  0
LINE
  5
185
100
AcDbEntity
  8
Layer_1
 62
7
100
AcDbLine
 10
70.379676
 20
7.357977
 30
0.0
 11
70.003968
 21
7.241560
 31
0.0
  0
LINE
  5
186
100
AcDbEntity
  8
Layer_1
 62
7
100
AcDbLine
 10
70.003968
 20
7.241560
 30
0.0
 11
69.599949
 21
7.199227
 31
0.0
  0
LINE
  5
187
100
AcDbEntity
  8
Layer_1
 62
7
100
AcDbLine
 10
69.599949
 20
7.199227
 30
0.0
 11
67.099637
 21
7.199227
 31
0.0
  0
LINE
  5
188
100
AcDbEntity
  8
Layer_1
 62
7
100
AcDbLine
 10
67.099637
 20
7.199227
 30
0.0
 11
67.099637
 21
4.698915
 31
0.0
  0
LINE
  5
189
100
AcDbEntity
  8
Layer_1
 62
7
100
AcDbLine
 10
67.099637
 20
4.698915
 30
0.0
 11
67.059156
 21
4.296749
 31
0.0
  0
LINE
  5
18a
100
AcDbEntity
  8
Layer_1
 62
7
100
AcDbLine
 10
67.059156
 20
4.296749
 30
0.0
 11
66.943004
 21
3.921041
 31
0.0
  0
LINE
  5
18b
100
AcDbEntity
  8
Layer_1
 62
7
100
AcDbLine
 10
66.943004
 20
3.921041
 30
0.0
 11
66.759119
 21
3.579728
 31
0.0
  0
LINE
  5
18c
100
AcDbEntity
  8
Layer_1
 62
7
100
AcDbLine
 10
66.759119
 20
3.579728
 30
0.0
 11
66.515438
 21
3.286041
 31
0.0
  0
LINE
  5
18d
100
AcDbEntity
  8
Layer_1
 62
7
100
AcDbLine
 10
66.515438
 20
3.286041
 30
0.0
 11
66.219634
 21
3.039978
 31
0.0
  0
LINE
  5
18e
100
AcDbEntity
  8
Layer_1
 62
7
100
AcDbLine
 10
66.219634
 20
3.039978
 30
0.0
 11
65.879909
 21
2.857416
 31
0.0
  0
LINE
  5
18f
100
AcDbEntity
  8
Layer_1
 62
7
100
AcDbLine
 10
65.879909
 20
2.857416
 30
0.0
 11
65.503936
 21
2.740999
 31
0.0
  0
LINE
  5
190
100
AcDbEntity
  8
Layer_1
 62
7
100
AcDbLine
 10
65.503936
 20
2.740999
 30
0.0
 11
65.099917
 21
2.701312
 31
0.0
  0
LINE
  5
191
100
AcDbEntity
  8
Layer_1
 62
7
100
AcDbLine
 10
65.099917
 20
2.701312
 30
0.0
 11
37.100129
 21
2.701312
 31
0.0
  0
LINE
  5
192
100
AcDbEntity
  8
Layer_1
 62
7
100
AcDbLine
 10
37.100129
 20
2.701312
 30
0.0
 11
36.696111
 21
2.740999
 31
0.0
  0
LINE
  5
193
100
AcDbEntity
  8
Layer_1
 62
7
100
AcDbLine
 10
36.696111
 20
2.740999
 30
0.0
 11
36.320138
 21
2.857416
 31
0.0
  0
LINE
  5
194
100
AcDbEntity
  8
Layer_1
 62
7
100
AcDbLine
 10
36.320138
 20
2.857416
 30
0.0
 11
35.980413
 21
3.039978
 31
0.0
  0
LINE
  5
195
100
AcDbEntity
  8
Layer_1
 62
7
100
AcDbLine
 10
35.980413
 20
3.039978
 30
0.0
 11
35.684609
 21
3.286041
 31
0.0
  0
LINE
  5
196
100
AcDbEntity
  8
Layer_1
 62
7
100
AcDbLine
 10
35.684609
 20
3.286041
 30
0.0
 11
35.440928
 21
3.579728
 31
0.0
  0
LINE
  5
197
100
AcDbEntity
  8
Layer_1
 62
7
100
AcDbLine
 10
35.440928
 20
3.579728
 30
0.0
 11
35.256778
 21
3.921041
 31
0.0
  0
LINE
  5
198
100
AcDbEntity
  8
Layer_1
 62
7
100
AcDbLine
 10
35.256778
 20
3.921041
 30
0.0
 11
35.140626
 21
4.296749
 31
0.0
  0
LINE
  5
199
100
AcDbEntity
  8
Layer_1
 62
7
100
AcDbLine
 10
35.140626
 20
4.296749
 30
0.0
 11
35.100144
 21
4.698915
 31
0.0
  0
LINE
  5
19a
100
AcDbEntity
  8
Layer_1
 62
7
100
AcDbLine
 10
35.100144
 20
4.698915
 30
0.0
 11
35.100144
 21
7.199227
 31
0.0
  0
LINE
  5
19b
100
AcDbEntity
  8
Layer_1
 62
7
100
AcDbLine
 10
35.100144
 20
7.199227
 30
0.0
 11
32.600097
 21
7.199227
 31
0.0
  0
LINE
  5
19c
100
AcDbEntity
  8
Layer_1
 62
7
100
AcDbLine
 10
32.600097
 20
7.199227
 30
0.0
 11
32.196078
 21
7.241560
 31
0.0
  0
LINE
  5
19d
100
AcDbEntity
  8
Layer_1
 62
7
100
AcDbLine
 10
32.196078
 20
7.241560
 30
0.0
 11
31.820106
 21
7.357977
 31
0.0
  0
LINE
  5
19e
100
AcDbEntity
  8
Layer_1
 62
7
100
AcDbLine
 10
31.820106
 20
7.357977
 30
0.0
 11
31.480381
 21
7.540540
 31
0.0
  0
LINE
  5
19f
100
AcDbEntity
  8
Layer_1
 62
7
100
AcDbLine
 10
31.480381
 20
7.540540
 30
0.0
 11
31.184577
 21
7.783956
 31
0.0
  0
LINE
  5
1a0
100
AcDbEntity
  8
Layer_1
 62
7
100
AcDbLine
 10
31.184577
 20
7.783956
 30
0.0
 11
30.940895
 21
8.080289
 31
0.0
  0
LINE
  5
1a1
100
AcDbEntity
  8
Layer_1
 62
7
100
AcDbLine
 10
30.940895
 20
8.080289
 30
0.0
 11
30.756746
 21
8.418956
 31
0.0
  0
LINE
  5
1a2
100
AcDbEntity
  8
Layer_1
 62
7
100
AcDbLine
 10
30.756746
 20
8.418956
 30
0.0
 11
30.640593
 21
8.797310
 31
0.0
  0
LINE
  5
1a3
100
AcDbEntity
  8
Layer_1
 62
7
100
AcDbLine
 10
30.640593
 20
8.797310
 30
0.0
 11
30.600112
 21
9.199477
 31
0.0
  0
LINE
  5
1a4
100
AcDbEntity
  8
Layer_1
 62
7
100
AcDbLine
 10
30.600112
 20
9.199477
 30
0.0
 11
30.600112
 21
24.201347
 31
0.0
  0
LINE
  5
1a5
100
AcDbEntity
  8
Layer_1
 62
7
100
AcDbLine
 10
30.600112
 20
24.201347
 30
0.0
 11
30.640593
 21
24.603514
 31
0.0
  0
LINE
  5
1a6
100
AcDbEntity
  8
Layer_1
 62
7
100
AcDbLine
 10
30.640593
 20
24.603514
 30
0.0
 11
30.756746
 21
24.979222
 31
0.0
  0
LINE
  5
1a7
100
AcDbEntity
  8
Layer_1
 62
7
100
AcDbLine
 10
30.756746
 20
24.979222
 30
0.0
 11
30.940895
 21
25.320535
 31
0.0
  0
LINE
  5
1a8
100
AcDbEntity
  8
Layer_1
 62
7
100
AcDbLine
 10
30.940895
 20
25.320535
 30
0.0
 11
31.184577
 21
25.616868
 31
0.0
  0
LINE
  5
1a9
100
AcDbEntity
  8
Layer_1
 62
7
100
AcDbLine
 10
31.184577
 20
25.616868
 30
0.0
 11
31.480381
 21
25.860284
 31
0.0
  0
LINE
  5
1aa
100
AcDbEntity
  8
Layer_1
 62
7
100
AcDbLine
 10
31.480381
 20
25.860284
 30
0.0
 11
31.820106
 21
26.042847
 31
0.0
  0
LINE
  5
1ab
100
AcDbEntity
  8
Layer_1
 62
7
100
AcDbLine
 10
31.820106
 20
26.042847
 30
0.0
 11
32.196078
 21
26.159263
 31
0.0
  0
LINE
  5
1ac
100
AcDbEntity
  8
Layer_1
 62
7
100
AcDbLine
 10
32.196078
 20
26.159263
 30
0.0
 11
32.600097
 21
26.198951
 31
0.0
  0
LINE
  5
1ad
100
AcDbEntity
  8
Layer_1
 62
7
100
AcDbLine
 10
32.600097
 20
26.198951
 30
0.0
 11
35.100144
 21
26.198951
 31
0.0
  0
LINE
  5
1ae
100
AcDbEntity
  8
Layer_1
 62
7
100
AcDbLine
 10
35.100144
 20
26.198951
 30
0.0
 11
35.100144
 21
28.699263
 31
0.0
  0
LINE
  5
1af
100
AcDbEntity
  8
Layer_1
 62
7
100
AcDbLine
 10
35.100144
 20
28.699263
 30
0.0
 11
35.140626
 21
29.104075
 31
0.0
  0
LINE
  5
1b0
100
AcDbEntity
  8
Layer_1
 62
7
100
AcDbLine
 10
35.140626
 20
29.104075
 30
0.0
 11
35.256778
 21
29.479783
 31
0.0
  0
LINE
  5
1b1
100
AcDbEntity
  8
Layer_1
 62
7
100
AcDbLine
 10
35.256778
 20
29.479783
 30
0.0
 11
35.440928
 21
29.821096
 31
0.0
  0
LINE
  5
1b2
100
AcDbEntity
  8
Layer_1
 62
7
100
AcDbLine
 10
35.440928
 20
29.821096
 30
0.0
 11
35.684609
 21
30.114783
 31
0.0
  0
LINE
  5
1b3
100
AcDbEntity
  8
Layer_1
 62
7
100
AcDbLine
 10
35.684609
 20
30.114783
 30
0.0
 11
35.980413
 21
30.360846
 31
0.0
  0
LINE
  5
1b4
100
AcDbEntity
  8
Layer_1
 62
7
100
AcDbLine
 10
35.980413
 20
30.360846
 30
0.0
 11
36.320138
 21
30.543408
 31
0.0
  0
LINE
  5
1b5
100
AcDbEntity
  8
Layer_1
 62
7
100
AcDbLine
 10
36.320138
 20
30.543408
 30
0.0
 11
36.696111
 21
30.659825
 31
0.0
  0
LINE
  5
1b6
100
AcDbEntity
  8
Layer_1
 62
7
100
AcDbLine
 10
36.696111
 20
30.659825
 30
0.0
 11
37.100129
 21
30.699512
 31
0.0
  0
LINE
  5
1b7
100
AcDbEntity
  8
Layer_1
 62
7
100
AcDbLine
 10
37.100129
 20
30.699512
 30
0.0
 11
37.100129
 21
30.699512
 31
0.0
  0
LINE
  5
1b8
100
AcDbEntity
  8
Layer_1
 62
7
100
AcDbLine
 10
37.100129
 20
30.699512
 30
0.0
 11
37.100129
 21
30.699512
 31
0.0
  0
LINE
  5
1b9
100
AcDbEntity
  8
Layer_1
 62
7
100
AcDbLine
 10
37.100129
 20
30.699512
 30
0.0
 11
37.100129
 21
30.699512
 31
0.0
  0
LINE
  5
1ba
100
AcDbEntity
  8
Layer_1
 62
7
100
AcDbLine
 10
32.099770
 20
30.199450
 30
0.0
 11
32.301383
 21
30.180929
 31
0.0
  0
LINE
  5
1bb
100
AcDbEntity
  8
Layer_1
 62
7
100
AcDbLine
 10
32.301383
 20
30.180929
 30
0.0
 11
32.488972
 21
30.120075
 31
0.0
  0
LINE
  5
1bc
100
AcDbEntity
  8
Layer_1
 62
7
100
AcDbLine
 10
32.488972
 20
30.120075
 30
0.0
 11
32.807001
 21
29.905762
 31
0.0
  0
LINE
  5
1bd
100
AcDbEntity
  8
Layer_1
 62
7
100
AcDbLine
 10
32.807001
 20
29.905762
 30
0.0
 11
33.021314
 21
29.588263
 31
0.0
  0
LINE
  5
1be
100
AcDbEntity
  8
Layer_1
 62
7
100
AcDbLine
 10
33.021314
 20
29.588263
 30
0.0
 11
33.079522
 21
29.400408
 31
0.0
  0
LINE
  5
1bf
100
AcDbEntity
  8
Layer_1
 62
7
100
AcDbLine
 10
33.079522
 20
29.400408
 30
0.0
 11
33.099895
 21
29.199325
 31
0.0
  0
LINE
  5
1c0
100
AcDbEntity
  8
Layer_1
 62
7
100
AcDbLine
 10
33.099895
 20
29.199325
 30
0.0
 11
33.079522
 21
28.998242
 31
0.0
  0
LINE
  5
1c1
100
AcDbEntity
  8
Layer_1
 62
7
100
AcDbLine
 10
33.079522
 20
28.998242
 30
0.0
 11
33.021314
 21
28.810388
 31
0.0
  0
LINE
  5
1c2
100
AcDbEntity
  8
Layer_1
 62
7
100
AcDbLine
 10
33.021314
 20
28.810388
 30
0.0
 11
32.807001
 21
28.492888
 31
0.0
  0
LINE
  5
1c3
100
AcDbEntity
  8
Layer_1
 62
7
100
AcDbLine
 10
32.807001
 20
28.492888
 30
0.0
 11
32.488972
 21
28.278575
 31
0.0
  0
LINE
  5
1c4
100
AcDbEntity
  8
Layer_1
 62
7
100
AcDbLine
 10
32.488972
 20
28.278575
 30
0.0
 11
32.301383
 21
28.220367
 31
0.0
  0
LINE
  5
1c5
100
AcDbEntity
  8
Layer_1
 62
7
100
AcDbLine
 10
32.301383
 20
28.220367
 30
0.0
 11
32.099770
 21
28.199200
 31
0.0
  0
LINE
  5
1c6
100
AcDbEntity
  8
Layer_1
 62
7
100
AcDbLine
 10
32.099770
 20
28.199200
 30
0.0
 11
31.898422
 21
28.220367
 31
0.0
  0
LINE
  5
1c7
100
AcDbEntity
  8
Layer_1
 62
7
100
AcDbLine
 10
31.898422
 20
28.220367
 30
0.0
 11
31.710568
 21
28.278575
 31
0.0
  0
LINE
  5
1c8
100
AcDbEntity
  8
Layer_1
 62
7
100
AcDbLine
 10
31.710568
 20
28.278575
 30
0.0
 11
31.392804
 21
28.492888
 31
0.0
  0
LINE
  5
1c9
100
AcDbEntity
  8
Layer_1
 62
7
100
AcDbLine
 10
31.392804
 20
28.492888
 30
0.0
 11
31.178491
 21
28.810388
 31
0.0
  0
LINE
  5
1ca
100
AcDbEntity
  8
Layer_1
 62
7
100
AcDbLine
 10
31.178491
 20
28.810388
 30
0.0
 11
31.120283
 21
28.998242
 31
0.0
  0
LINE
  5
1cb
100
AcDbEntity
  8
Layer_1
 62
7
100
AcDbLine
 10
31.120283
 20
28.998242
 30
0.0
 11
31.099910
 21
29.199325
 31
0.0
  0
LINE
  5
1cc
100
AcDbEntity
  8
Layer_1
 62
7
100
AcDbLine
 10
31.099910
 20
29.199325
 30
0.0
 11
31.120283
 21
29.400408
 31
0.0
  0
LINE
  5
1cd
100
AcDbEntity
  8
Layer_1
 62
7
100
AcDbLine
 10
31.120283
 20
29.400408
 30
0.0
 11
31.178491
 21
29.588263
 31
0.0
  0
LINE
  5
1ce
100
AcDbEntity
  8
Layer_1
 62
7
100
AcDbLine
 10
31.178491
 20
29.588263
 30
0.0
 11
31.392804
 21
29.905762
 31
0.0
  0
LINE
  5
1cf
100
AcDbEntity
  8
Layer_1
 62
7
100
AcDbLine
 10
31.392804
 20
29.905762
 30
0.0
 11
31.710568
 21
30.120075
 31
0.0
  0
LINE
  5
1d0
100
AcDbEntity
  8
Layer_1
 62
7
100
AcDbLine
 10
31.710568
 20
30.120075
 30
0.0
 11
31.898422
 21
30.180929
 31
0.0
  0
LINE
  5
1d1
100
AcDbEntity
  8
Layer_1
 62
7
100
AcDbLine
 10
31.898422
 20
30.180929
 30
0.0
 11
32.099770
 21
30.199450
 31
0.0
  0
LINE
  5
1d2
100
AcDbEntity
  8
Layer_1
 62
7
100
AcDbLine
 10
32.099770
 20
30.199450
 30
0.0
 11
32.099770
 21
30.199450
 31
0.0
  0
LINE
  5
1d3
100
AcDbEntity
  8
Layer_1
 62
7
100
AcDbLine
 10
32.099770
 20
30.199450
 30
0.0
 11
32.099770
 21
30.199450
 31
0.0
  0
LINE
  5
1d4
100
AcDbEntity
  8
Layer_1
 62
7
100
AcDbLine
 10
32.099770
 20
30.199450
 30
0.0
 11
32.099770
 21
30.199450
 31
0.0
  0
LINE
  5
1d5
100
AcDbEntity
  8
Layer_1
 62
7
100
AcDbLine
 10
70.100012
 20
30.199450
 30
0.0
 11
70.301624
 21
30.180929
 31
0.0
  0
LINE
  5
1d6
100
AcDbEntity
  8
Layer_1
 62
7
100
AcDbLine
 10
70.301624
 20
30.180929
 30
0.0
 11
70.489214
 21
30.120075
 31
0.0
  0
LINE
  5
1d7
100
AcDbEntity
  8
Layer_1
 62
7
100
AcDbLine
 10
70.489214
 20
30.120075
 30
0.0
 11
70.807243
 21
29.905762
 31
0.0
  0
LINE
  5
1d8
100
AcDbEntity
  8
Layer_1
 62
7
100
AcDbLine
 10
70.807243
 20
29.905762
 30
0.0
 11
71.021555
 21
29.588263
 31
0.0
  0
LINE
  5
1d9
100
AcDbEntity
  8
Layer_1
 62
7
100
AcDbLine
 10
71.021555
 20
29.588263
 30
0.0
 11
71.079763
 21
29.400408
 31
0.0
  0
LINE
  5
1da
100
AcDbEntity
  8
Layer_1
 62
7
100
AcDbLine
 10
71.079763
 20
29.400408
 30
0.0
 11
71.100136
 21
29.199325
 31
0.0
  0
LINE
  5
1db
100
AcDbEntity
  8
Layer_1
 62
7
100
AcDbLine
 10
71.100136
 20
29.199325
 30
0.0
 11
71.079763
 21
28.998242
 31
0.0
  0
LINE
  5
1dc
100
AcDbEntity
  8
Layer_1
 62
7
100
AcDbLine
 10
71.079763
 20
28.998242
 30
0.0
 11
71.021555
 21
28.810388
 31
0.0
  0
LINE
  5
1dd
100
AcDbEntity
  8
Layer_1
 62
7
100
AcDbLine
 10
71.021555
 20
28.810388
 30
0.0
 11
70.807243
 21
28.492888
 31
0.0
  0
LINE
  5
1de
100
AcDbEntity
  8
Layer_1
 62
7
100
AcDbLine
 10
70.807243
 20
28.492888
 30
0.0
 11
70.489214
 21
28.278575
 31
0.0
  0
LINE
  5
1df
100
AcDbEntity
  8
Layer_1
 62
7
100
AcDbLine
 10
70.489214
 20
28.278575
 30
0.0
 11
70.301624
 21
28.220367
 31
0.0
  0
LINE
  5
1e0
100
AcDbEntity
  8
Layer_1
 62
7
100
AcDbLine
 10
70.301624
 20
28.220367
 30
0.0
 11
70.100012
 21
28.199200
 31
0.0
  0
LINE
  5
1e1
100
AcDbEntity
  8
Layer_1
 62
7
100
AcDbLine
 10
70.100012
 20
28.199200
 30
0.0
 11
69.898664
 21
28.220367
 31
0.0
  0
LINE
  5
1e2
100
AcDbEntity
  8
Layer_1
 62
7
100
AcDbLine
 10
69.898664
 20
28.220367
 30
0.0
 11
69.710810
 21
28.278575
 31
0.0
  0
LINE
  5
1e3
100
AcDbEntity
  8
Layer_1
 62
7
100
AcDbLine
 10
69.710810
 20
28.278575
 30
0.0
 11
69.393045
 21
28.492888
 31
0.0
  0
LINE
  5
1e4
100
AcDbEntity
  8
Layer_1
 62
7
100
AcDbLine
 10
69.393045
 20
28.492888
 30
0.0
 11
69.178733
 21
28.810388
 31
0.0
  0
LINE
  5
1e5
100
AcDbEntity
  8
Layer_1
 62
7
100
AcDbLine
 10
69.178733
 20
28.810388
 30
0.0
 11
69.120524
 21
28.998242
 31
0.0
  0
LINE
  5
1e6
100
AcDbEntity
  8
Layer_1
 62
7
100
AcDbLine
 10
69.120524
 20
28.998242
 30
0.0
 11
69.100151
 21
29.199325
 31
0.0
  0
LINE
  5
1e7
100
AcDbEntity
  8
Layer_1
 62
7
100
AcDbLine
 10
69.100151
 20
29.199325
 30
0.0
 11
69.120524
 21
29.400408
 31
0.0
  0
LINE
  5
1e8
100
AcDbEntity
  8
Layer_1
 62
7
100
AcDbLine
 10
69.120524
 20
29.400408
 30
0.0
 11
69.178733
 21
29.588263
 31
0.0
  0
LINE
  5
1e9
100
AcDbEntity
  8
Layer_1
 62
7
100
AcDbLine
 10
69.178733
 20
29.588263
 30
0.0
 11
69.393045
 21
29.905762
 31
0.0
  0
LINE
  5
1ea
100
AcDbEntity
  8
Layer_1
 62
7
100
AcDbLine
 10
69.393045
 20
29.905762
 30
0.0
 11
69.710810
 21
30.120075
 31
0.0
  0
LINE
  5
1eb
100
AcDbEntity
  8
Layer_1
 62
7
100
AcDbLine
 10
69.710810
 20
30.120075
 30
0.0
 11
69.898664
 21
30.180929
 31
0.0
  0
LINE
  5
1ec
100
AcDbEntity
  8
Layer_1
 62
7
100
AcDbLine
 10
69.898664
 20
30.180929
 30
0.0
 11
70.100012
 21
30.199450
 31
0.0
  0
LINE
  5
1ed
100
AcDbEntity
  8
Layer_1
 62
7
100
AcDbLine
 10
70.100012
 20
30.199450
 30
0.0
 11
70.100012
 21
30.199450
 31
0.0
  0
LINE
  5
1ee
100
AcDbEntity
  8
Layer_1
 62
7
100
AcDbLine
 10
70.100012
 20
30.199450
 30
0.0
 11
70.100012
 21
30.199450
 31
0.0
  0
LINE
  5
1ef
100
AcDbEntity
  8
Layer_1
 62
7
100
AcDbLine
 10
70.100012
 20
30.199450
 30
0.0
 11
70.100012
 21
30.199450
 31
0.0
  0
LINE
  5
1f0
100
AcDbEntity
  8
Layer_1
 62
7
100
AcDbLine
 10
32.099770
 20
5.198978
 30
0.0
 11
32.301383
 21
5.180457
 31
0.0
  0
LINE
  5
1f1
100
AcDbEntity
  8
Layer_1
 62
7
100
AcDbLine
 10
32.301383
 20
5.180457
 30
0.0
 11
32.488972
 21
5.122249
 31
0.0
  0
LINE
  5
1f2
100
AcDbEntity
  8
Layer_1
 62
7
100
AcDbLine
 10
32.488972
 20
5.122249
 30
0.0
 11
32.807001
 21
4.907936
 31
0.0
  0
LINE
  5
1f3
100
AcDbEntity
  8
Layer_1
 62
7
100
AcDbLine
 10
32.807001
 20
4.907936
 30
0.0
 11
33.021314
 21
4.590436
 31
0.0
  0
LINE
  5
1f4
100
AcDbEntity
  8
Layer_1
 62
7
100
AcDbLine
 10
33.021314
 20
4.590436
 30
0.0
 11
33.079522
 21
4.402582
 31
0.0
  0
LINE
  5
1f5
100
AcDbEntity
  8
Layer_1
 62
7
100
AcDbLine
 10
33.079522
 20
4.402582
 30
0.0
 11
33.099895
 21
4.198853
 31
0.0
  0
LINE
  5
1f6
100
AcDbEntity
  8
Layer_1
 62
7
100
AcDbLine
 10
33.099895
 20
4.198853
 30
0.0
 11
33.079522
 21
3.997770
 31
0.0
  0
LINE
  5
1f7
100
AcDbEntity
  8
Layer_1
 62
7
100
AcDbLine
 10
33.079522
 20
3.997770
 30
0.0
 11
33.021314
 21
3.809916
 31
0.0
  0
LINE
  5
1f8
100
AcDbEntity
  8
Layer_1
 62
7
100
AcDbLine
 10
33.021314
 20
3.809916
 30
0.0
 11
32.807001
 21
3.492416
 31
0.0
  0
LINE
  5
1f9
100
AcDbEntity
  8
Layer_1
 62
7
100
AcDbLine
 10
32.807001
 20
3.492416
 30
0.0
 11
32.488972
 21
3.278103
 31
0.0
  0
LINE
  5
1fa
100
AcDbEntity
  8
Layer_1
 62
7
100
AcDbLine
 10
32.488972
 20
3.278103
 30
0.0
 11
32.301383
 21
3.219895
 31
0.0
  0
LINE
  5
1fb
100
AcDbEntity
  8
Layer_1
 62
7
100
AcDbLine
 10
32.301383
 20
3.219895
 30
0.0
 11
32.099770
 21
3.198728
 31
0.0
  0
LINE
  5
1fc
100
AcDbEntity
  8
Layer_1
 62
7
100
AcDbLine
 10
32.099770
 20
3.198728
 30
0.0
 11
31.898422
 21
3.219895
 31
0.0
  0
LINE
  5
1fd
100
AcDbEntity
  8
Layer_1
 62
7
100
AcDbLine
 10
31.898422
 20
3.219895
 30
0.0
 11
31.710568
 21
3.278103
 31
0.0
  0
LINE
  5
1fe
100
AcDbEntity
  8
Layer_1
 62
7
100
AcDbLine
 10
31.710568
 20
3.278103
 30
0.0
 11
31.392804
 21
3.492416
 31
0.0
  0
LINE
  5
1ff
100
AcDbEntity
  8
Layer_1
 62
7
100
AcDbLine
 10
31.392804
 20
3.492416
 30
0.0
 11
31.178491
 21
3.809916
 31
0.0
  0
LINE
  5
200
100
AcDbEntity
  8
Layer_1
 62
7
100
AcDbLine
 10
31.178491
 20
3.809916
 30
0.0
 11
31.120283
 21
3.997770
 31
0.0
  0
LINE
  5
201
100
AcDbEntity
  8
Layer_1
 62
7
100
AcDbLine
 10
31.120283
 20
3.997770
 30
0.0
 11
31.099910
 21
4.198853
 31
0.0
  0
LINE
  5
202
100
AcDbEntity
  8
Layer_1
 62
7
100
AcDbLine
 10
31.099910
 20
4.198853
 30
0.0
 11
31.120283
 21
4.402582
 31
0.0
  0
LINE
  5
203
100
AcDbEntity
  8
Layer_1
 62
7
100
AcDbLine
 10
31.120283
 20
4.402582
 30
0.0
 11
31.178491
 21
4.590436
 31
0.0
  0
LINE
  5
204
100
AcDbEntity
  8
Layer_1
 62
7
100
AcDbLine
 10
31.178491
 20
4.590436
 30
0.0
 11
31.392804
 21
4.907936
 31
0.0
  0
LINE
  5
205
100
AcDbEntity
  8
Layer_1
 62
7
100
AcDbLine
 10
31.392804
 20
4.907936
 30
0.0
 11
31.710568
 21
5.122249
 31
0.0
  0
LINE
  5
206
100
AcDbEntity
  8
Layer_1
 62
7
100
AcDbLine
 10
31.710568
 20
5.122249
 30
0.0
 11
31.898422
 21
5.180457
 31
0.0
  0
LINE
  5
207
100
AcDbEntity
  8
Layer_1
 62
7
100
AcDbLine
 10
31.898422
 20
5.180457
 30
0.0
 11
32.099770
 21
5.198978
 31
0.0
  0
LINE
  5
208
100
AcDbEntity
  8
Layer_1
 62
7
100
AcDbLine
 10
32.099770
 20
5.198978
 30
0.0
 11
32.099770
 21
5.198978
 31
0.0
  0
LINE
  5
209
100
AcDbEntity
  8
Layer_1
 62
7
100
AcDbLine
 10
32.099770
 20
5.198978
 30
0.0
 11
32.099770
 21
5.198978
 31
0.0
  0
LINE
  5
20a
100
AcDbEntity
  8
Layer_1
 62
7
100
AcDbLine
 10
32.099770
 20
5.198978
 30
0.0
 11
32.099770
 21
5.198978
 31
0.0
  0
LINE
  5
20b
100
AcDbEntity
  8
Layer_1
 62
7
100
AcDbLine
 10
70.100012
 20
5.198978
 30
0.0
 11
70.301624
 21
5.180457
 31
0.0
  0
LINE
  5
20c
100
AcDbEntity
  8
Layer_1
 62
7
100
AcDbLine
 10
70.301624
 20
5.180457
 30
0.0
 11
70.489214
 21
5.122249
 31
0.0
  0
LINE
  5
20d
100
AcDbEntity
  8
Layer_1
 62
7
100
AcDbLine
 10
70.489214
 20
5.122249
 30
0.0
 11
70.807243
 21
4.907936
 31
0.0
  0
LINE
  5
20e
100
AcDbEntity
  8
Layer_1
 62
7
100
AcDbLine
 10
70.807243
 20
4.907936
 30
0.0
 11
71.021555
 21
4.590436
 31
0.0
  0
LINE
  5
20f
100
AcDbEntity
  8
Layer_1
 62
7
100
AcDbLine
 10
71.021555
 20
4.590436
 30
0.0
 11
71.079763
 21
4.402582
 31
0.0
  0
LINE
  5
210
100
AcDbEntity
  8
Layer_1
 62
7
100
AcDbLine
 10
71.079763
 20
4.402582
 30
0.0
 11
71.100136
 21
4.198853
 31
0.0
  0
LINE
  5
211
100
AcDbEntity
  8
Layer_1
 62
7
100
AcDbLine
 10
71.100136
 20
4.198853
 30
0.0
 11
71.079763
 21
3.997770
 31
0.0
  0
LINE
  5
212
100
AcDbEntity
  8
Layer_1
 62
7
100
AcDbLine
 10
71.079763
 20
3.997770
 30
0.0
 11
71.021555
 21
3.809916
 31
0.0
  0
LINE
  5
213
100
AcDbEntity
  8
Layer_1
 62
7
100
AcDbLine
 10
71.021555
 20
3.809916
 30
0.0
 11
70.807243
 21
3.492416
 31
0.0
  0
LINE
  5
214
100
AcDbEntity
  8
Layer_1
 62
7
100
AcDbLine
 10
70.807243
 20
3.492416
 30
0.0
 11
70.489214
 21
3.278103
 31
0.0
  0
LINE
  5
215
100
AcDbEntity
  8
Layer_1
 62
7
100
AcDbLine
 10
70.489214
 20
3.278103
 30
0.0
 11
70.301624
 21
3.219895
 31
0.0
  0
LINE
  5
216
100
AcDbEntity
  8
Layer_1
 62
7
100
AcDbLine
 10
70.301624
 20
3.219895
 30
0.0
 11
70.100012
 21
3.198728
 31
0.0
  0
LINE
  5
217
100
AcDbEntity
  8
Layer_1
 62
7
100
AcDbLine
 10
70.100012
 20
3.198728
 30
0.0
 11
69.898664
 21
3.219895
 31
0.0
  0
LINE
  5
218
100
AcDbEntity
  8
Layer_1
 62
7
100
AcDbLine
 10
69.898664
 20
3.219895
 30
0.0
 11
69.710810
 21
3.278103
 31
0.0
  0
LINE
  5
219
100
AcDbEntity
  8
Layer_1
 62
7
100
AcDbLine
 10
69.710810
 20
3.278103
 30
0.0
 11
69.393045
 21
3.492416
 31
0.0
  0
LINE
  5
21a
100
AcDbEntity
  8
Layer_1
 62
7
100
AcDbLine
 10
69.393045
 20
3.492416
 30
0.0
 11
69.178733
 21
3.809916
 31
0.0
  0
LINE
  5
21b
100
AcDbEntity
  8
Layer_1
 62
7
100
AcDbLine
 10
69.178733
 20
3.809916
 30
0.0
 11
69.120524
 21
3.997770
 31
0.0
  0
LINE
  5
21c
100
AcDbEntity
  8
Layer_1
 62
7
100
AcDbLine
 10
69.120524
 20
3.997770
 30
0.0
 11
69.100151
 21
4.198853
 31
0.0
  0
LINE
  5
21d
100
AcDbEntity
  8
Layer_1
 62
7
100
AcDbLine
 10
69.100151
 20
4.198853
 30
0.0
 11
69.120524
 21
4.402582
 31
0.0
  0
LINE
  5
21e
100
AcDbEntity
  8
Layer_1
 62
7
100
AcDbLine
 10
69.120524
 20
4.402582
 30
0.0
 11
69.178733
 21
4.590436
 31
0.0
  0
LINE
  5
21f
100
AcDbEntity
  8
Layer_1
 62
7
100
AcDbLine
 10
69.178733
 20
4.590436
 30
0.0
 11
69.393045
 21
4.907936
 31
0.0
  0
LINE
  5
220
100
AcDbEntity
  8
Layer_1
 62
7
100
AcDbLine
 10
69.393045
 20
4.907936
 30
0.0
 11
69.710810
 21
5.122249
 31
0.0
  0
LINE
  5
221
100
AcDbEntity
  8
Layer_1
 62
7
100
AcDbLine
 10
69.710810
 20
5.122249
 30
0.0
 11
69.898664
 21
5.180457
 31
0.0
  0
LINE
  5
222
100
AcDbEntity
  8
Layer_1
 62
7
100
AcDbLine
 10
69.898664
 20
5.180457
 30
0.0
 11
70.100012
 21
5.198978
 31
0.0
  0
LINE
  5
223
100
AcDbEntity
  8
Layer_1
 62
7
100
AcDbLine
 10
70.100012
 20
5.198978
 30
0.0
 11
70.100012
 21
5.198978
 31
0.0
  0
LINE
  5
224
100
AcDbEntity
  8
Layer_1
 62
7
100
AcDbLine
 10
70.100012
 20
5.198978
 30
0.0
 11
70.100012
 21
5.198978
 31
0.0
  0
LINE
  5
225
100
AcDbEntity
  8
Layer_1
 62
7
100
AcDbLine
 10
70.100012
 20
5.198978
 30
0.0
 11
70.100012
 21
5.198978
 31
0.0
  0
LINE
  5
226
100
AcDbEntity
  8
Layer_1
 62
7
100
AcDbLine
 10
30.010621
 20
2.730416
 30
0.0
 11
32.099770
 21
3.198728
 31
0.0
  0
ENDSEC
  0
SECTION
  2
OBJECTS
  0
DICTIONARY
  5
C
330
0
100
AcDbDictionary
  3
ACAD_GROUP
350
D
  3
ACAD_MLINESTYLE
350
17
  0
DICTIONARY
  5
D
330
C
100
AcDbDictionary
  0
DICTIONARY
  5
1A
330
C
100
AcDbDictionary
  0
DICTIONARY
  5
17
330
C
100
AcDbDictionary
  3
STANDARD
350
18
  0
DICTIONARY
  5
19
330
C
100
AcDbDictionary
  0
ENDSEC
  0
EOF
