  0
SECTION
  2
HEADER
  9
$ACADVER
  1
AC1014
  9
$HANDSEED
  5
FFFF
  9
$MEASUREMENT
 70
     1
  0
ENDSEC
  0
SECTION
  2
TABLES
  0
TABLE
  2
VPORT
  5
8
330
0
100
AcDbSymbolTable
 70
     4
  0
VPORT
  5
2E
330
8
100
AcDbSymbolTableRecord
100
AcDbViewportTableRecord
  2
*ACTIVE
 70
     0
 10
0.0
 20
0.0
 11
1.0
 21
1.0
 12
210.0
 22
148.5
 13
0.0
 23
0.0
 14
10.0
 24
10.0
 15
10.0
 25
10.0
 16
0.0
 26
0.0
 36
1.0
 17
0.0
 27
0.0
 37
0.0
 40
341.0
 41
1.24
 42
50.0
 43
0.0
 44
0.0
 50
0.0
 51
0.0
 71
     0
 72
   100
 73
     1
 74
     3
 75
     0
 76
     0
 77
     0
 78
     0
  0
ENDTAB
  0
TABLE
  2
LTYPE
  5
5
330
0
100
AcDbSymbolTable
 70
     1
  0
LTYPE
  5
14
330
5
100
AcDbSymbolTableRecord
100
AcDbLinetypeTableRecord
  2
BYBLOCK
 70
     0
  3

 72
    65
 73
     0
 40
0.0
  0
LTYPE
  5
15
330
5
100
AcDbSymbolTableRecord
100
AcDbLinetypeTableRecord
  2
BYLAYER
 70
     0
  3

 72
    65
 73
     0
 40
0.0
  0
LTYPE
  5
16
330
5
100
AcDbSymbolTableRecord
100
AcDbLinetypeTableRecord
  2
CONTINUOUS
 70
     0
  3
Solid line
 72
    65
 73
     0
 40
0.0
  0
ENDTAB
  0
TABLE
  2
LAYER
  5
2
100
AcDbSymbolTable
 70
2
  0
LAYER
  5
50
100
AcDbSymbolTableRecord
100
AcDbLayerTableRecord
  2
0
 70
0
  6
CONTINUOUS
  0
LAYER
  5
51
100
AcDbSymbolTableRecord
100
AcDbLayerTableRecord
  2
Layer_1
 70
0
  6
CONTINUOUS
  0
ENDTAB
  0
TABLE
  2
STYLE
  5
3
330
0
100
AcDbSymbolTable
 70
     1
  0
STYLE
  5
11
330
3
100
AcDbSymbolTableRecord
100
AcDbTextStyleTableRecord
  2
STANDARD
 70
     0
 40
0.0
 41
1.0
 50
0.0
 71
     0
 42
2.5
  3
txt
  4

  0
ENDTAB
  0
TABLE
  2
VIEW
  5
6
330
0
100
AcDbSymbolTable
 70
     0
  0
ENDTAB
  0
TABLE
  2
UCS
  5
7
330
0
100
AcDbSymbolTable
 70
     0
  0
ENDTAB
  0
TABLE
  2
APPID
  5
9
330
0
100
AcDbSymbolTable
 70
     2
  0
APPID
  5
12
330
9
100
AcDbSymbolTableRecord
100
AcDbRegAppTableRecord
  2
ACAD
 70
     0
  0
ENDTAB
  0
TABLE
  2
DIMSTYLE
  5
A
330
0
100
AcDbSymbolTable
 70
     1
  0
DIMSTYLE
105
27
330
A
100
AcDbSymbolTableRecord
100
AcDbDimStyleTableRecord
  2
ISO-25
 70
     0
  3

  4

  5

  6

  7

 40
1.0
 41
2.5
 42
0.625
 43
3.75
 44
1.25
 45
0.0
 46
0.0
 47
0.0
 48
0.0
140
2.5
141
2.5
142
0.0
143
0.03937007874016
144
1.0
145
0.0
146
1.0
147
0.625
 71
     0
 72
     0
 73
     0
 74
     0
 75
     0
 76
     0
 77
     1
 78
     8
170
     0
171
     3
172
     1
173
     0
174
     0
175
     0
176
     0
177
     0
178
     0
270
     2
271
     2
272
     2
273
     2
274
     3
340
11
275
     0
280
     0
281
     0
282
     0
283
     0
284
     8
285
     0
286
     0
287
     3
288
     0
  0
ENDTAB
  0
TABLE
  2
BLOCK_RECORD
  5
1
330
0
100
AcDbSymbolTable
 70
     1
  0
BLOCK_RECORD
  5
1F
330
1
100
AcDbSymbolTableRecord
100
AcDbBlockTableRecord
  2
*MODEL_SPACE
  0
BLOCK_RECORD
  5
1B
330
1
100
AcDbSymbolTableRecord
100
AcDbBlockTableRecord
  2
*PAPER_SPACE
  0
ENDTAB
  0
ENDSEC
  0
SECTION
  2
BLOCKS
  0
BLOCK
  5
20
330
1F
100
AcDbEntity
  8
0
100
AcDbBlockBegin
  2
*MODEL_SPACE
 70
     0
 10
0.0
 20
0.0
 30
0.0
  3
*MODEL_SPACE
  1

  0
ENDBLK
  5
21
330
1F
100
AcDbEntity
  8
0
100
AcDbBlockEnd
  0
BLOCK
  5
1C
330
1B
100
AcDbEntity
 67
     1
  8
0
100
AcDbBlockBegin
  2
*PAPER_SPACE
  1

  0
ENDBLK
  5
1D
330
1B
100
AcDbEntity
 67
     1
  8
0
100
AcDbBlockEnd
  0
ENDSEC
  0
SECTION
  2
ENTITIES
  0
LWPOLYLINE
  5
100
100
AcDbEntity
  8
Layer_1
 62
7
100
AcDbPolyline
 90
49
 70
1
 10
0.000000
 20
296.999751
 30
0.0
 10
0.000000
 20
290.999745
 30
0.0
 10
2.999817
 20
290.999745
 30
0.0
 10
2.999817
 20
277.999772
 30
0.0
 10
0.000000
 20
277.999772
 30
0.0
 10
0.000000
 20
271.999769
 30
0.0
 10
2.999817
 20
271.999769
 30
0.0
 10
23.999487
 20
271.999769
 30
0.0
 10
23.999487
 20
234.154911
 30
0.0
 10
2.999817
 20
234.154911
 30
0.0
 10
2.999817
 20
233.000800
 30
0.0
 10
0.000000
 20
233.000800
 30
0.0
 10
0.000000
 20
227.000848
 30
0.0
 10
101.999963
 20
227.000848
 30
0.0
 10
101.999963
 20
233.000800
 30
0.0
 10
98.999327
 20
233.000800
 30
0.0
 10
98.999327
 20
234.154911
 30
0.0
 10
77.999630
 20
234.154911
 30
0.0
 10
77.999630
 20
271.999769
 30
0.0
 10
98.999327
 20
271.999769
 30
0.0
 10
101.999963
 20
271.999769
 30
0.0
 10
101.999963
 20
277.999772
 30
0.0
 10
98.999327
 20
277.999772
 30
0.0
 10
98.999327
 20
290.999745
 30
0.0
 10
101.999963
 20
290.999745
 30
0.0
 10
101.999963
 20
296.999751
 30
0.0
 10
98.999327
 20
296.999751
 30
0.0
 10
76.321910
 20
296.999751
 30
0.0
 10
76.311325
 20
296.897751
 30
0.0
 10
76.253118
 20
296.709752
 30
0.0
 10
76.038805
 20
296.392752
 30
0.0
 10
75.721835
 20
296.178751
 30
0.0
 10
75.533716
 20
296.120752
 30
0.0
 10
75.331839
 20
296.099752
 30
0.0
 10
72.331731
 20
296.099752
 30
0.0
 10
72.129854
 20
296.120752
 30
0.0
 10
71.941736
 20
296.178751
 30
0.0
 10
71.624500
 20
296.392752
 30
0.0
 10
71.410452
 20
296.709752
 30
0.0
 10
71.351715
 20
296.897751
 30
0.0
 10
71.341661
 20
296.999751
 30
0.0
 10
23.999487
 20
296.999751
 30
0.0
 10
2.999817
 20
296.999751
 30
0.0
 10
0.000000
 20
296.999751
 30
0.0
 10
0.000000
 20
296.999751
 30
0.0
 10
0.000000
 20
296.999751
 30
0.0
 10
0.000000
 20
296.999751
 30
0.0
 10
0.000000
 20
296.999751
 30
0.0
 10
0.000000
 20
296.999751
 30
0.0
  0
LWPOLYLINE
  5
101
100
AcDbEntity
  8
Layer_1
 62
7
100
AcDbPolyline
 90
38
 70
1
 10
44.799904
 20
285.999761
 30
0.0
 10
45.102058
 20
285.969757
 30
0.0
 10
45.383575
 20
285.881756
 30
0.0
 10
45.638104
 20
285.743750
 30
0.0
 10
45.860092
 20
285.560764
 30
0.0
 10
46.043181
 20
285.338752
 30
0.0
 10
46.181558
 20
285.083747
 30
0.0
 10
46.268873
 20
284.802759
 30
0.0
 10
46.299562
 20
284.499759
 30
0.0
 10
46.269135
 20
284.197763
 30
0.0
 10
46.181558
 20
283.915771
 30
0.0
 10
46.043448
 20
283.661772
 30
0.0
 10
45.860354
 20
283.439760
 30
0.0
 10
45.638371
 20
283.256775
 30
0.0
 10
45.383575
 20
283.117762
 30
0.0
 10
45.102058
 20
283.030768
 30
0.0
 10
44.799904
 20
282.999758
 30
0.0
 10
44.505691
 20
283.028757
 30
0.0
 10
44.225762
 20
283.113768
 30
0.0
 10
43.967526
 20
283.251773
 30
0.0
 10
43.738929
 20
283.439760
 30
0.0
 10
43.551604
 20
283.667750
 30
0.0
 10
43.413756
 20
283.925772
 30
0.0
 10
43.328825
 20
284.205754
 30
0.0
 10
43.299721
 20
284.499759
 30
0.0
 10
43.330148
 20
284.802759
 30
0.0
 10
43.417725
 20
285.083747
 30
0.0
 10
43.556102
 20
285.338752
 30
0.0
 10
43.739194
 20
285.560764
 30
0.0
 10
43.961176
 20
285.743750
 30
0.0
 10
44.215973
 20
285.881756
 30
0.0
 10
44.497488
 20
285.969757
 30
0.0
 10
44.799904
 20
285.999761
 30
0.0
 10
44.799904
 20
285.999761
 30
0.0
 10
44.799904
 20
285.999761
 30
0.0
 10
44.799904
 20
285.999761
 30
0.0
 10
44.799904
 20
285.999761
 30
0.0
 10
44.799904
 20
285.999761
 30
0.0
  0
LWPOLYLINE
  5
102
100
AcDbEntity
  8
Layer_1
 62
7
100
AcDbPolyline
 90
31
 70
1
 10
72.331731
 20
272.099781
 30
0.0
 10
75.331839
 20
272.099781
 30
0.0
 10
75.533716
 20
272.079779
 30
0.0
 10
75.721835
 20
272.021782
 30
0.0
 10
76.039335
 20
271.807761
 30
0.0
 10
76.253118
 20
271.489785
 30
0.0
 10
76.311325
 20
271.301772
 30
0.0
 10
76.331434
 20
271.099762
 30
0.0
 10
76.311325
 20
270.897779
 30
0.0
 10
76.253118
 20
270.709767
 30
0.0
 10
76.039335
 20
270.392743
 30
0.0
 10
75.721835
 20
270.178695
 30
0.0
 10
75.533716
 20
270.120751
 30
0.0
 10
75.331839
 20
270.099849
 30
0.0
 10
72.331731
 20
270.099849
 30
0.0
 10
72.129854
 20
270.120751
 30
0.0
 10
71.942000
 20
270.178695
 30
0.0
 10
71.624236
 20
270.392743
 30
0.0
 10
71.410452
 20
270.709767
 30
0.0
 10
71.352244
 20
270.897779
 30
0.0
 10
71.331871
 20
271.099762
 30
0.0
 10
71.352244
 20
271.301772
 30
0.0
 10
71.410452
 20
271.489785
 30
0.0
 10
71.624236
 20
271.807761
 30
0.0
 10
71.942000
 20
272.021782
 30
0.0
 10
72.129854
 20
272.079779
 30
0.0
 10
72.331731
 20
272.099781
 30
0.0
 10
72.331731
 20
272.099781
 30
0.0
 10
72.331731
 20
272.099781
 30
0.0
 10
72.331731
 20
272.099781
 30
0.0
 10
72.331731
 20
272.099781
 30
0.0
  0
LWPOLYLINE
  5
103
100
AcDbEntity
  8
Layer_1
 62
7
100
AcDbPolyline
 90
83
 70
1
 10
36.999832
 20
257.599886
 30
0.0
 10
64.999604
 20
257.599886
 30
0.0
 10
65.403623
 20
257.559669
 30
0.0
 10
65.779596
 20
257.443782
 30
0.0
 10
66.119318
 20
257.260690
 30
0.0
 10
66.415123
 20
257.014892
 30
0.0
 10
66.658804
 20
256.720676
 30
0.0
 10
66.842424
 20
256.379892
 30
0.0
 10
66.958841
 20
256.003655
 30
0.0
 10
66.999322
 20
255.598843
 30
0.0
 10
66.999322
 20
253.098797
 30
0.0
 10
69.499634
 20
253.098797
 30
0.0
 10
69.903651
 20
253.059904
 30
0.0
 10
70.279359
 20
252.942693
 30
0.0
 10
70.619349
 20
252.760660
 30
0.0
 10
70.914623
 20
252.516714
 30
0.0
 10
71.158834
 20
252.220910
 30
0.0
 10
71.342719
 20
251.878804
 30
0.0
 10
71.458871
 20
251.503890
 30
0.0
 10
71.499352
 20
251.101724
 30
0.0
 10
71.499352
 20
236.099862
 30
0.0
 10
71.458871
 20
235.697696
 30
0.0
 10
71.342719
 20
235.318812
 30
0.0
 10
71.158834
 20
234.980675
 30
0.0
 10
70.914623
 20
234.683813
 30
0.0
 10
70.619349
 20
234.440925
 30
0.0
 10
70.279359
 20
234.257834
 30
0.0
 10
69.903651
 20
234.141681
 30
0.0
 10
69.499634
 20
234.098819
 30
0.0
 10
66.999322
 20
234.098819
 30
0.0
 10
66.999322
 20
231.598774
 30
0.0
 10
66.958841
 20
231.196872
 30
0.0
 10
66.842424
 20
230.820899
 30
0.0
 10
66.658804
 20
230.479851
 30
0.0
 10
66.415123
 20
230.185900
 30
0.0
 10
66.119318
 20
229.939837
 30
0.0
 10
65.779596
 20
229.757805
 30
0.0
 10
65.403623
 20
229.640860
 30
0.0
 10
64.999604
 20
229.601700
 30
0.0
 10
36.999832
 20
229.601700
 30
0.0
 10
36.595813
 20
229.640860
 30
0.0
 10
36.219841
 20
229.757805
 30
0.0
 10
35.880116
 20
229.939837
 30
0.0
 10
35.584312
 20
230.185900
 30
0.0
 10
35.340631
 20
230.479851
 30
0.0
 10
35.156481
 20
230.820899
 30
0.0
 10
35.040329
 20
231.196872
 30
0.0
 10
34.999847
 20
231.598774
 30
0.0
 10
34.999847
 20
234.098819
 30
0.0
 10
32.499802
 20
234.098819
 30
0.0
 10
32.095783
 20
234.141681
 30
0.0
 10
31.719811
 20
234.257834
 30
0.0
 10
31.380086
 20
234.440925
 30
0.0
 10
31.084282
 20
234.683813
 30
0.0
 10
30.840600
 20
234.980675
 30
0.0
 10
30.656450
 20
235.318812
 30
0.0
 10
30.540298
 20
235.697696
 30
0.0
 10
30.499817
 20
236.099862
 30
0.0
 10
30.499817
 20
251.101724
 30
0.0
 10
30.540298
 20
251.503890
 30
0.0
 10
30.656450
 20
251.878804
 30
0.0
 10
30.840600
 20
252.220910
 30
0.0
 10
31.084282
 20
252.516714
 30
0.0
 10
31.380086
 20
252.760660
 30
0.0
 10
31.719811
 20
252.942693
 30
0.0
 10
32.095783
 20
253.059904
 30
0.0
 10
32.499802
 20
253.098797
 30
0.0
 10
34.999847
 20
253.098797
 30
0.0
 10
34.999847
 20
255.598843
 30
0.0
 10
35.040329
 20
256.003655
 30
0.0
 10
35.156481
 20
256.379892
 30
0.0
 10
35.340631
 20
256.720676
 30
0.0
 10
35.584312
 20
257.014892
 30
0.0
 10
35.880116
 20
257.260690
 30
0.0
 10
36.219841
 20
257.443782
 30
0.0
 10
36.595813
 20
257.559669
 30
0.0
 10
36.999832
 20
257.599886
 30
0.0
 10
36.999832
 20
257.599886
 30
0.0
 10
36.999832
 20
257.599886
 30
0.0
 10
36.999832
 20
257.599886
 30
0.0
 10
36.999832
 20
257.599886
 30
0.0
 10
36.999832
 20
257.599886
 30
0.0
 10
36.999832
 20
257.599886
 30
0.0
  0
LWPOLYLINE
  5
104
100
AcDbEntity
  8
Layer_1
 62
7
100
AcDbPolyline
 90
31
 70
1
 10
31.999475
 20
257.099823
 30
0.0
 10
32.201088
 20
257.080773
 30
0.0
 10
32.388677
 20
257.019655
 30
0.0
 10
32.706706
 20
256.805871
 30
0.0
 10
32.921019
 20
256.487842
 30
0.0
 10
32.979227
 20
256.300782
 30
0.0
 10
32.999600
 20
256.099699
 30
0.0
 10
32.979227
 20
255.897822
 30
0.0
 10
32.921019
 20
255.710761
 30
0.0
 10
32.706706
 20
255.392732
 30
0.0
 10
32.388677
 20
255.178684
 30
0.0
 10
32.201088
 20
255.120742
 30
0.0
 10
31.999475
 20
255.098781
 30
0.0
 10
31.798127
 20
255.120742
 30
0.0
 10
31.610273
 20
255.178684
 30
0.0
 10
31.292509
 20
255.392732
 30
0.0
 10
31.078196
 20
255.710761
 30
0.0
 10
31.019988
 20
255.897822
 30
0.0
 10
30.999615
 20
256.099699
 30
0.0
 10
31.019988
 20
256.300782
 30
0.0
 10
31.078196
 20
256.487842
 30
0.0
 10
31.292509
 20
256.805871
 30
0.0
 10
31.610273
 20
257.019655
 30
0.0
 10
31.798127
 20
257.080773
 30
0.0
 10
31.999475
 20
257.099823
 30
0.0
 10
31.999475
 20
257.099823
 30
0.0
 10
31.999475
 20
257.099823
 30
0.0
 10
31.999475
 20
257.099823
 30
0.0
 10
31.999475
 20
257.099823
 30
0.0
 10
31.999475
 20
257.099823
 30
0.0
 10
31.999475
 20
257.099823
 30
0.0
  0
LWPOLYLINE
  5
105
100
AcDbEntity
  8
Layer_1
 62
7
100
AcDbPolyline
 90
31
 70
1
 10
69.999695
 20
257.099823
 30
0.0
 10
70.201307
 20
257.080773
 30
0.0
 10
70.388897
 20
257.019655
 30
0.0
 10
70.706926
 20
256.805871
 30
0.0
 10
70.921238
 20
256.487842
 30
0.0
 10
70.979446
 20
256.300782
 30
0.0
 10
70.999819
 20
256.099699
 30
0.0
 10
70.979446
 20
255.897822
 30
0.0
 10
70.921238
 20
255.710761
 30
0.0
 10
70.706926
 20
255.392732
 30
0.0
 10
70.388897
 20
255.178684
 30
0.0
 10
70.201307
 20
255.120742
 30
0.0
 10
69.999695
 20
255.098781
 30
0.0
 10
69.798348
 20
255.120742
 30
0.0
 10
69.610494
 20
255.178684
 30
0.0
 10
69.292729
 20
255.392732
 30
0.0
 10
69.078418
 20
255.710761
 30
0.0
 10
69.020209
 20
255.897822
 30
0.0
 10
68.999836
 20
256.099699
 30
0.0
 10
69.020209
 20
256.300782
 30
0.0
 10
69.078418
 20
256.487842
 30
0.0
 10
69.292729
 20
256.805871
 30
0.0
 10
69.610494
 20
257.019655
 30
0.0
 10
69.798348
 20
257.080773
 30
0.0
 10
69.999695
 20
257.099823
 30
0.0
 10
69.999695
 20
257.099823
 30
0.0
 10
69.999695
 20
257.099823
 30
0.0
 10
69.999695
 20
257.099823
 30
0.0
 10
69.999695
 20
257.099823
 30
0.0
 10
69.999695
 20
257.099823
 30
0.0
 10
69.999695
 20
257.099823
 30
0.0
  0
LWPOLYLINE
  5
106
100
AcDbEntity
  8
Layer_1
 62
7
100
AcDbPolyline
 90
31
 70
1
 10
31.999475
 20
232.098836
 30
0.0
 10
32.201088
 20
232.080844
 30
0.0
 10
32.388677
 20
232.022901
 30
0.0
 10
32.706706
 20
231.807795
 30
0.0
 10
32.921019
 20
231.490824
 30
0.0
 10
32.979227
 20
231.302705
 30
0.0
 10
32.999600
 20
231.098711
 30
0.0
 10
32.979227
 20
230.897893
 30
0.0
 10
32.921019
 20
230.709774
 30
0.0
 10
32.706706
 20
230.392803
 30
0.0
 10
32.388677
 20
230.177698
 30
0.0
 10
32.201088
 20
230.119754
 30
0.0
 10
31.999475
 20
230.098851
 30
0.0
 10
31.798127
 20
230.119754
 30
0.0
 10
31.610273
 20
230.177698
 30
0.0
 10
31.292509
 20
230.392803
 30
0.0
 10
31.078196
 20
230.709774
 30
0.0
 10
31.019988
 20
230.897893
 30
0.0
 10
30.999615
 20
231.098711
 30
0.0
 10
31.019988
 20
231.302705
 30
0.0
 10
31.078196
 20
231.490824
 30
0.0
 10
31.292509
 20
231.807795
 30
0.0
 10
31.610273
 20
232.022901
 30
0.0
 10
31.798127
 20
232.080844
 30
0.0
 10
31.999475
 20
232.098836
 30
0.0
 10
31.999475
 20
232.098836
 30
0.0
 10
31.999475
 20
232.098836
 30
0.0
 10
31.999475
 20
232.098836
 30
0.0
 10
31.999475
 20
232.098836
 30
0.0
 10
31.999475
 20
232.098836
 30
0.0
 10
31.999475
 20
232.098836
 30
0.0
  0
LWPOLYLINE
  5
107
100
AcDbEntity
  8
Layer_1
 62
7
100
AcDbPolyline
 90
31
 70
1
 10
69.999695
 20
232.098836
 30
0.0
 10
70.201307
 20
232.080844
 30
0.0
 10
70.388897
 20
232.022901
 30
0.0
 10
70.706926
 20
231.807795
 30
0.0
 10
70.921238
 20
231.490824
 30
0.0
 10
70.979446
 20
231.302705
 30
0.0
 10
70.999819
 20
231.098711
 30
0.0
 10
70.979446
 20
230.897893
 30
0.0
 10
70.921238
 20
230.709774
 30
0.0
 10
70.706926
 20
230.392803
 30
0.0
 10
70.388897
 20
230.177698
 30
0.0
 10
70.201307
 20
230.119754
 30
0.0
 10
69.999695
 20
230.098851
 30
0.0
 10
69.798348
 20
230.119754
 30
0.0
 10
69.610494
 20
230.177698
 30
0.0
 10
69.292729
 20
230.392803
 30
0.0
 10
69.078418
 20
230.709774
 30
0.0
 10
69.020209
 20
230.897893
 30
0.0
 10
68.999836
 20
231.098711
 30
0.0
 10
69.020209
 20
231.302705
 30
0.0
 10
69.078418
 20
231.490824
 30
0.0
 10
69.292729
 20
231.807795
 30
0.0
 10
69.610494
 20
232.022901
 30
0.0
 10
69.798348
 20
232.080844
 30
0.0
 10
69.999695
 20
232.098836
 30
0.0
 10
69.999695
 20
232.098836
 30
0.0
 10
69.999695
 20
232.098836
 30
0.0
 10
69.999695
 20
232.098836
 30
0.0
 10
69.999695
 20
232.098836
 30
0.0
 10
69.999695
 20
232.098836
 30
0.0
 10
69.999695
 20
232.098836
 30
0.0
  0
LWPOLYLINE
  5
108
100
AcDbEntity
  8
Layer_1
 62
7
100
AcDbPolyline
 90
20
 70
1
 10
0.000000
 20
227.000848
 30
0.0
 10
0.000000
 20
221.000897
 30
0.0
 10
2.999817
 20
221.000897
 30
0.0
 10
2.999817
 20
203.000779
 30
0.0
 10
0.000000
 20
203.000779
 30
0.0
 10
0.000000
 20
197.000828
 30
0.0
 10
2.999817
 20
197.000828
 30
0.0
 10
98.999327
 20
197.000828
 30
0.0
 10
101.999963
 20
197.000828
 30
0.0
 10
101.999963
 20
203.000779
 30
0.0
 10
98.999327
 20
203.000779
 30
0.0
 10
98.999327
 20
221.000897
 30
0.0
 10
101.999963
 20
221.000897
 30
0.0
 10
101.999963
 20
227.000848
 30
0.0
 10
98.999327
 20
227.000848
 30
0.0
 10
2.999817
 20
227.000848
 30
0.0
 10
0.000000
 20
227.000848
 30
0.0
 10
0.000000
 20
227.000848
 30
0.0
 10
0.000000
 20
227.000848
 30
0.0
 10
0.000000
 20
227.000848
 30
0.0
  0
LWPOLYLINE
  5
109
100
AcDbEntity
  8
Layer_1
 62
7
100
AcDbPolyline
 90
25
 70
1
 10
33.999988
 20
213.000697
 30
0.0
 10
34.201335
 20
212.980854
 30
0.0
 10
34.389189
 20
212.921852
 30
0.0
 10
34.706954
 20
212.707804
 30
0.0
 10
34.921266
 20
212.389776
 30
0.0
 10
34.979474
 20
212.202714
 30
0.0
 10
34.999847
 20
212.000838
 30
0.0
 10
34.979474
 20
211.799756
 30
0.0
 10
34.921266
 20
211.611902
 30
0.0
 10
34.706954
 20
211.293873
 30
0.0
 10
34.389189
 20
211.079825
 30
0.0
 10
34.201335
 20
211.021881
 30
0.0
 10
33.999988
 20
211.000714
 30
0.0
 10
33.617137
 20
211.076914
 30
0.0
 10
33.292493
 20
211.293873
 30
0.0
 10
33.075535
 20
211.617723
 30
0.0
 10
32.999600
 20
212.000838
 30
0.0
 10
33.075535
 20
212.383689
 30
0.0
 10
33.292493
 20
212.707804
 30
0.0
 10
33.617137
 20
212.924762
 30
0.0
 10
33.999988
 20
213.000697
 30
0.0
 10
33.999988
 20
213.000697
 30
0.0
 10
33.999988
 20
213.000697
 30
0.0
 10
33.999988
 20
213.000697
 30
0.0
 10
33.999988
 20
213.000697
 30
0.0
  0
LWPOLYLINE
  5
10a
100
AcDbEntity
  8
Layer_1
 62
7
100
AcDbPolyline
 90
25
 70
1
 10
67.999712
 20
213.000697
 30
0.0
 10
68.201324
 20
212.980854
 30
0.0
 10
68.388914
 20
212.921852
 30
0.0
 10
68.706943
 20
212.707804
 30
0.0
 10
68.921255
 20
212.389776
 30
0.0
 10
68.979463
 20
212.202714
 30
0.0
 10
68.999836
 20
212.000838
 30
0.0
 10
68.979463
 20
211.799756
 30
0.0
 10
68.921255
 20
211.611902
 30
0.0
 10
68.706943
 20
211.293873
 30
0.0
 10
68.388914
 20
211.079825
 30
0.0
 10
68.201324
 20
211.021881
 30
0.0
 10
67.999712
 20
211.000714
 30
0.0
 10
67.617124
 20
211.076914
 30
0.0
 10
67.292216
 20
211.293873
 30
0.0
 10
67.075522
 20
211.617723
 30
0.0
 10
66.999322
 20
212.000838
 30
0.0
 10
67.075522
 20
212.383689
 30
0.0
 10
67.292216
 20
212.707804
 30
0.0
 10
67.617124
 20
212.924762
 30
0.0
 10
67.999712
 20
213.000697
 30
0.0
 10
67.999712
 20
213.000697
 30
0.0
 10
67.999712
 20
213.000697
 30
0.0
 10
67.999712
 20
213.000697
 30
0.0
 10
67.999712
 20
213.000697
 30
0.0
  0
LWPOLYLINE
  5
10b
100
AcDbEntity
  8
Layer_1
 62
7
100
AcDbPolyline
 90
252
 70
1
 10
112.182617
 20
296.999835
 30
0.0
 10
111.778571
 20
296.959353
 30
0.0
 10
111.402702
 20
296.843146
 30
0.0
 10
111.062924
 20
296.659208
 30
0.0
 10
110.767170
 20
296.415394
 30
0.0
 10
110.523357
 20
296.119643
 30
0.0
 10
110.339392
 20
295.779862
 30
0.0
 10
110.223214
 20
295.403995
 30
0.0
 10
110.182732
 20
294.999950
 30
0.0
 10
110.182732
 20
294.891947
 30
0.0
 10
111.385769
 20
294.891947
 30
0.0
 10
111.789816
 20
294.851440
 30
0.0
 10
112.165683
 20
294.735182
 30
0.0
 10
112.505461
 20
294.551164
 30
0.0
 10
112.801212
 20
294.307242
 30
0.0
 10
113.045026
 20
294.011385
 30
0.0
 10
113.228967
 20
293.671555
 30
0.0
 10
113.345172
 20
293.295608
 30
0.0
 10
113.385653
 20
292.891534
 30
0.0
 10
113.385653
 20
288.891768
 30
0.0
 10
113.345172
 20
288.487723
 30
0.0
 10
113.228967
 20
288.111853
 30
0.0
 10
113.045026
 20
287.772102
 30
0.0
 10
112.801212
 20
287.476351
 30
0.0
 10
112.505461
 20
287.232537
 30
0.0
 10
112.165683
 20
287.048570
 30
0.0
 10
111.789816
 20
286.932391
 30
0.0
 10
111.385769
 20
286.891910
 30
0.0
 10
110.182732
 20
286.891910
 30
0.0
 10
110.182732
 20
286.054742
 30
0.0
 10
110.173948
 20
286.054742
 30
0.0
 10
110.173948
 20
285.659399
 30
0.0
 10
110.185828
 20
285.626326
 30
0.0
 10
110.185828
 20
245.759577
 30
0.0
 10
109.185886
 20
245.759577
 30
0.0
 10
107.789598
 20
285.659399
 30
0.0
 10
105.651231
 20
285.659399
 30
0.0
 10
104.785647
 20
285.659399
 30
0.0
 10
103.785696
 20
285.659399
 30
0.0
 10
103.285983
 20
285.659399
 30
0.0
 10
102.881933
 20
285.618918
 30
0.0
 10
102.506066
 20
285.502740
 30
0.0
 10
102.166293
 20
285.318775
 30
0.0
 10
101.870542
 20
285.074961
 30
0.0
 10
101.626729
 20
284.779208
 30
0.0
 10
101.442772
 20
284.439456
 30
0.0
 10
101.326591
 20
284.063589
 30
0.0
 10
101.286104
 20
283.659544
 30
0.0
 10
101.286104
 20
279.659246
 30
0.0
 10
101.326591
 20
279.255095
 30
0.0
 10
101.442772
 20
278.879387
 30
0.0
 10
101.626729
 20
278.539662
 30
0.0
 10
101.870542
 20
278.243855
 30
0.0
 10
102.166293
 20
277.999910
 30
0.0
 10
102.506066
 20
277.816024
 30
0.0
 10
102.881933
 20
277.699872
 30
0.0
 10
103.285983
 20
277.659391
 30
0.0
 10
103.285983
 20
275.659401
 30
0.0
 10
104.785647
 20
275.659401
 30
0.0
 10
104.785647
 20
270.182252
 30
0.0
 10
104.990619
 20
269.903382
 30
0.0
 10
105.148470
 20
269.593287
 30
0.0
 10
105.249964
 20
269.255150
 30
0.0
 10
105.285868
 20
268.891877
 30
0.0
 10
105.285868
 20
219.891745
 30
0.0
 10
105.249964
 20
219.528473
 30
0.0
 10
105.148470
 20
219.190335
 30
0.0
 10
104.990619
 20
218.880241
 30
0.0
 10
104.785647
 20
218.601370
 30
0.0
 10
104.785647
 20
214.159271
 30
0.0
 10
101.785815
 20
214.159271
 30
0.0
 10
101.785815
 20
206.159311
 30
0.0
 10
104.785647
 20
206.159311
 30
0.0
 10
104.785647
 20
201.891847
 30
0.0
 10
105.786089
 20
201.891847
 30
0.0
 10
106.190136
 20
201.851366
 30
0.0
 10
106.566003
 20
201.734949
 30
0.0
 10
106.905781
 20
201.551064
 30
0.0
 10
107.201535
 20
201.307118
 30
0.0
 10
107.445349
 20
201.011314
 30
0.0
 10
107.629313
 20
200.671325
 30
0.0
 10
107.745492
 20
200.295352
 30
0.0
 10
107.785973
 20
199.891333
 30
0.0
 10
107.785973
 20
195.891602
 30
0.0
 10
107.745492
 20
195.487583
 30
0.0
 10
107.629313
 20
195.111610
 30
0.0
 10
107.445349
 20
194.771885
 30
0.0
 10
107.201535
 20
194.476081
 30
0.0
 10
106.905781
 20
194.232400
 30
0.0
 10
106.566003
 20
194.048250
 30
0.0
 10
106.190136
 20
193.932098
 30
0.0
 10
105.786089
 20
193.891617
 30
0.0
 10
105.786089
 20
177.759420
 30
0.0
 10
105.826573
 20
177.355401
 30
0.0
 10
105.942778
 20
176.979428
 30
0.0
 10
106.126716
 20
176.639704
 30
0.0
 10
106.370529
 20
176.343899
 30
0.0
 10
106.666281
 20
176.100218
 30
0.0
 10
107.006058
 20
175.916068
 30
0.0
 10
107.381928
 20
175.799916
 30
0.0
 10
107.785973
 20
175.759435
 30
0.0
 10
197.785935
 20
175.759435
 30
0.0
 10
198.189953
 20
175.799916
 30
0.0
 10
198.565926
 20
175.916068
 30
0.0
 10
198.905651
 20
176.100218
 30
0.0
 10
199.201455
 20
176.343899
 30
0.0
 10
199.445401
 20
176.639704
 30
0.0
 10
199.629551
 20
176.979428
 30
0.0
 10
199.745703
 20
177.355401
 30
0.0
 10
199.786184
 20
177.759420
 30
0.0
 10
199.786184
 20
193.891617
 30
0.0
 10
199.382165
 20
193.932098
 30
0.0
 10
199.006192
 20
194.048250
 30
0.0
 10
198.666468
 20
194.232400
 30
0.0
 10
198.370399
 20
194.476081
 30
0.0
 10
198.126718
 20
194.771885
 30
0.0
 10
197.942568
 20
195.111610
 30
0.0
 10
197.826416
 20
195.487583
 30
0.0
 10
197.785935
 20
195.891602
 30
0.0
 10
197.785935
 20
199.891333
 30
0.0
 10
197.826416
 20
200.295352
 30
0.0
 10
197.942568
 20
200.671325
 30
0.0
 10
198.126718
 20
201.011314
 30
0.0
 10
198.370399
 20
201.307118
 30
0.0
 10
198.666468
 20
201.551064
 30
0.0
 10
199.006192
 20
201.734949
 30
0.0
 10
199.382165
 20
201.851366
 30
0.0
 10
199.786184
 20
201.891847
 30
0.0
 10
200.786044
 20
201.891847
 30
0.0
 10
200.786044
 20
206.159311
 30
0.0
 10
203.785916
 20
206.159311
 30
0.0
 10
203.785916
 20
214.159271
 30
0.0
 10
200.786044
 20
214.159271
 30
0.0
 10
200.786044
 20
218.601370
 30
0.0
 10
200.581257
 20
218.880241
 30
0.0
 10
200.423300
 20
219.190335
 30
0.0
 10
200.321700
 20
219.528473
 30
0.0
 10
200.285982
 20
219.891745
 30
0.0
 10
200.285982
 20
268.891877
 30
0.0
 10
200.321700
 20
269.255150
 30
0.0
 10
200.423300
 20
269.593287
 30
0.0
 10
200.581257
 20
269.903382
 30
0.0
 10
200.786044
 20
270.182252
 30
0.0
 10
200.786044
 20
275.659401
 30
0.0
 10
202.285702
 20
275.659401
 30
0.0
 10
202.285702
 20
277.659391
 30
0.0
 10
202.689985
 20
277.699872
 30
0.0
 10
203.065693
 20
277.816024
 30
0.0
 10
203.405683
 20
277.999910
 30
0.0
 10
203.701513
 20
278.243855
 30
0.0
 10
203.945459
 20
278.539662
 30
0.0
 10
204.129345
 20
278.879387
 30
0.0
 10
204.245761
 20
279.255095
 30
0.0
 10
204.286242
 20
279.659246
 30
0.0
 10
204.286242
 20
283.659544
 30
0.0
 10
204.245761
 20
284.063589
 30
0.0
 10
204.129345
 20
284.439456
 30
0.0
 10
203.945459
 20
284.779208
 30
0.0
 10
203.701513
 20
285.074961
 30
0.0
 10
203.405683
 20
285.318775
 30
0.0
 10
203.065693
 20
285.502740
 30
0.0
 10
202.689985
 20
285.618918
 30
0.0
 10
202.285702
 20
285.659399
 30
0.0
 10
200.900873
 20
285.659399
 30
0.0
 10
199.920592
 20
285.659399
 30
0.0
 10
197.781701
 20
285.659399
 30
0.0
 10
196.186000
 20
245.759577
 30
0.0
 10
195.185875
 20
245.759577
 30
0.0
 10
195.185875
 20
285.626326
 30
0.0
 10
195.185875
 20
285.659399
 30
0.0
 10
195.185875
 20
286.054742
 30
0.0
 10
195.179789
 20
286.054742
 30
0.0
 10
195.179789
 20
286.891910
 30
0.0
 10
194.186015
 20
286.891910
 30
0.0
 10
193.781996
 20
286.932391
 30
0.0
 10
193.406023
 20
287.048570
 30
0.0
 10
193.066298
 20
287.232537
 30
0.0
 10
192.770494
 20
287.476351
 30
0.0
 10
192.526813
 20
287.772102
 30
0.0
 10
192.342928
 20
288.111853
 30
0.0
 10
192.226776
 20
288.487723
 30
0.0
 10
192.186294
 20
288.891768
 30
0.0
 10
192.186294
 20
292.891534
 30
0.0
 10
192.226776
 20
293.295608
 30
0.0
 10
192.342928
 20
293.671555
 30
0.0
 10
192.526813
 20
294.011385
 30
0.0
 10
192.770494
 20
294.307242
 30
0.0
 10
193.066298
 20
294.551164
 30
0.0
 10
193.406023
 20
294.735182
 30
0.0
 10
193.781996
 20
294.851440
 30
0.0
 10
194.186015
 20
294.891947
 30
0.0
 10
195.179789
 20
294.891947
 30
0.0
 10
195.179789
 20
294.999950
 30
0.0
 10
195.139308
 20
295.403995
 30
0.0
 10
195.023156
 20
295.779862
 30
0.0
 10
194.839271
 20
296.119643
 30
0.0
 10
194.595325
 20
296.415394
 30
0.0
 10
194.299521
 20
296.659208
 30
0.0
 10
193.959796
 20
296.843146
 30
0.0
 10
193.583823
 20
296.959353
 30
0.0
 10
193.179805
 20
296.999835
 30
0.0
 10
187.887055
 20
296.999835
 30
0.0
 10
186.811524
 20
296.894425
 30
0.0
 10
185.724086
 20
296.679528
 30
0.0
 10
184.626066
 20
296.362530
 30
0.0
 10
183.518520
 20
295.950865
 30
0.0
 10
182.401979
 20
295.451938
 30
0.0
 10
181.278029
 20
294.873109
 30
0.0
 10
180.147465
 20
294.221782
 30
0.0
 10
179.011080
 20
293.505396
 30
0.0
 10
177.870171
 20
292.731302
 30
0.0
 10
176.725848
 20
291.906914
 30
0.0
 10
174.430059
 20
290.136899
 30
0.0
 10
172.132153
 20
288.254517
 30
0.0
 10
169.840069
 20
286.318982
 30
0.0
 10
167.561742
 20
284.389476
 30
0.0
 10
165.305614
 20
282.525167
 30
0.0
 10
163.079681
 20
280.785289
 30
0.0
 10
160.892101
 20
279.228902
 30
0.0
 10
159.815244
 20
278.538339
 30
0.0
 10
158.750823
 20
277.915508
 30
0.0
 10
157.700163
 20
277.368349
 30
0.0
 10
156.664052
 20
276.904003
 30
0.0
 10
155.643552
 20
276.530147
 30
0.0
 10
154.639721
 20
276.253658
 30
0.0
 10
153.653616
 20
276.082472
 30
0.0
 10
152.686033
 20
276.023732
 30
0.0
 10
151.718714
 20
276.082472
 30
0.0
 10
150.732612
 20
276.253658
 30
0.0
 10
149.728780
 20
276.530147
 30
0.0
 10
148.708280
 20
276.904003
 30
0.0
 10
147.672169
 20
277.368349
 30
0.0
 10
146.621509
 20
277.915508
 30
0.0
 10
145.557088
 20
278.538339
 30
0.0
 10
144.480232
 20
279.228902
 30
0.0
 10
142.292652
 20
280.785289
 30
0.0
 10
140.066708
 20
282.525167
 30
0.0
 10
137.810601
 20
284.389476
 30
0.0
 10
135.532269
 20
286.318982
 30
0.0
 10
133.240182
 20
288.254517
 30
0.0
 10
130.942271
 20
290.136899
 30
0.0
 10
128.646477
 20
291.906914
 30
0.0
 10
127.502072
 20
292.731302
 30
0.0
 10
126.361186
 20
293.505396
 30
0.0
 10
125.224904
 20
294.221782
 30
0.0
 10
124.094232
 20
294.873109
 30
0.0
 10
122.970229
 20
295.451938
 30
0.0
 10
121.853841
 20
295.950865
 30
0.0
 10
120.746163
 20
296.362530
 30
0.0
 10
119.648114
 20
296.679528
 30
0.0
 10
118.560780
 20
296.894425
 30
0.0
 10
117.485140
 20
296.999835
 30
0.0
  0
LWPOLYLINE
  5
10c
100
AcDbEntity
  8
Layer_1
 62
7
100
AcDbPolyline
 90
4
 70
1
 10
112.785681
 20
181.659377
 30
0.0
 10
124.786014
 20
181.659377
 30
0.0
 10
124.786014
 20
178.659003
 30
0.0
 10
112.785681
 20
178.659003
 30
0.0
  0
LWPOLYLINE
  5
10d
100
AcDbEntity
  8
Layer_1
 62
7
100
AcDbPolyline
 90
4
 70
1
 10
180.785904
 20
181.659377
 30
0.0
 10
192.786105
 20
181.659377
 30
0.0
 10
192.786105
 20
178.659003
 30
0.0
 10
180.785904
 20
178.659003
 30
0.0
  0
LWPOLYLINE
  5
10e
100
AcDbEntity
  8
Layer_1
 62
7
100
AcDbPolyline
 90
233
 70
1
 10
95.346492
 20
95.014357
 30
0.0
 10
95.571123
 20
93.795424
 30
0.0
 10
96.206652
 20
92.851655
 30
0.0
 10
97.202015
 20
92.158183
 30
0.0
 10
98.505085
 20
91.689870
 30
0.0
 10
100.064539
 20
91.421318
 30
0.0
 10
101.828778
 20
91.327391
 30
0.0
 10
105.764452
 20
91.563135
 30
0.0
 10
109.899357
 20
92.195489
 30
0.0
 10
113.820214
 20
93.023634
 30
0.0
 10
119.367730
 20
94.461378
 30
0.0
 10
125.322172
 20
95.918173
 30
0.0
 10
130.582083
 20
96.808496
 30
0.0
 10
135.206732
 20
97.197698
 30
0.0
 10
139.255912
 20
97.150602
 30
0.0
 10
142.789155
 20
96.732825
 30
0.0
 10
145.865727
 20
96.009454
 30
0.0
 10
148.545424
 20
95.045578
 30
0.0
 10
150.887515
 20
93.906284
 30
0.0
 10
152.951792
 20
92.656922
 30
0.0
 10
154.797789
 20
91.362581
 30
0.0
 10
157.205760
 20
89.654698
 30
0.0
 10
159.526417
 20
87.805525
 30
0.0
 10
161.751563
 20
85.825915
 30
0.0
 10
163.874312
 20
83.727241
 30
0.0
 10
165.886730
 20
81.520354
 30
0.0
 10
167.781676
 20
79.216894
 30
0.0
 10
169.551471
 20
76.827443
 30
0.0
 10
171.188977
 20
74.363645
 30
0.0
 10
172.686253
 20
71.836084
 30
0.0
 10
174.036155
 20
69.256663
 30
0.0
 10
175.231013
 20
66.635702
 30
0.0
 10
176.263680
 20
63.985109
 30
0.0
 10
177.126486
 20
61.315465
 30
0.0
 10
177.811756
 20
58.638149
 30
0.0
 10
178.312612
 20
55.964271
 30
0.0
 10
178.620852
 20
53.304947
 30
0.0
 10
178.779073
 20
51.123724
 30
0.0
 10
179.231510
 20
49.087492
 30
0.0
 10
179.944297
 20
47.206836
 30
0.0
 10
180.883301
 20
45.492336
 30
0.0
 10
182.014659
 20
43.954845
 30
0.0
 10
183.304766
 20
42.604941
 30
0.0
 10
184.719492
 20
41.453475
 30
0.0
 10
186.225235
 20
40.511031
 30
0.0
 10
187.787862
 20
39.788719
 30
0.0
 10
189.373510
 20
39.296594
 30
0.0
 10
190.948307
 20
39.045769
 30
0.0
 10
192.478921
 20
39.045769
 30
0.0
 10
193.930425
 20
39.309559
 30
0.0
 10
195.269744
 20
39.846663
 30
0.0
 10
196.462749
 20
40.667665
 30
0.0
 10
197.475838
 20
41.783675
 30
0.0
 10
197.915311
 20
42.686433
 30
0.0
 10
198.323297
 20
44.104864
 30
0.0
 10
199.049578
 20
48.354068
 30
0.0
 10
199.663411
 20
54.259828
 30
0.0
 10
200.174321
 20
61.550680
 30
0.0
 10
200.923620
 20
79.202607
 30
0.0
 10
201.371295
 20
99.138414
 30
0.0
 10
201.591427
 20
119.187464
 30
0.0
 10
201.657044
 20
137.178851
 30
0.0
 10
201.621061
 20
158.303430
 30
0.0
 10
201.388228
 20
161.637973
 30
0.0
 10
200.731269
 20
164.724070
 30
0.0
 10
199.713947
 20
167.500869
 30
0.0
 10
198.398703
 20
169.908575
 30
0.0
 10
196.849306
 20
171.886335
 30
0.0
 10
195.128721
 20
173.373820
 30
0.0
 10
193.300188
 20
174.310445
 30
0.0
 10
192.364886
 20
174.553597
 30
0.0
 10
191.426409
 20
174.636147
 30
0.0
 10
189.061566
 20
174.415749
 30
0.0
 10
185.886569
 20
173.832872
 30
0.0
 10
178.460250
 20
172.053816
 30
0.0
 10
168.794236
 20
169.354010
 30
0.0
 10
167.844117
 20
169.402957
 30
0.0
 10
167.484549
 20
169.275428
 30
0.0
 10
167.323682
 20
168.929619
 30
0.0
 10
167.101432
 20
163.681347
 30
0.0
 10
164.593185
 20
163.775539
 30
0.0
 10
164.136249
 20
163.769718
 30
0.0
 10
164.096033
 20
164.629614
 30
0.0
 10
163.933050
 20
164.977012
 30
0.0
 10
163.572423
 20
165.108510
 30
0.0
 10
161.825910
 20
165.038660
 30
0.0
 10
161.479306
 20
164.878322
 30
0.0
 10
161.349925
 20
164.519018
 30
0.0
 10
161.388554
 20
163.694577
 30
0.0
 10
158.431573
 20
163.479735
 30
0.0
 10
158.317009
 20
164.330899
 30
0.0
 10
158.124657
 20
164.662951
 30
0.0
 10
157.754241
 20
164.762699
 30
0.0
 10
156.019897
 20
164.540714
 30
0.0
 10
155.688639
 20
164.350743
 30
0.0
 10
155.591008
 20
163.981385
 30
0.0
 10
155.701604
 20
163.164087
 30
0.0
 10
152.773727
 20
162.698421
 30
0.0
 10
152.586667
 20
163.529741
 30
0.0
 10
152.366005
 20
163.844066
 30
0.0
 10
151.988180
 20
163.911270
 30
0.0
 10
150.279768
 20
163.538737
 30
0.0
 10
149.965972
 20
163.320721
 30
0.0
 10
149.900884
 20
162.944219
 30
0.0
 10
150.081859
 20
162.141740
 30
0.0
 10
147.206635
 20
161.418898
 30
0.0
 10
146.947079
 20
162.232225
 30
0.0
 10
146.700223
 20
162.525912
 30
0.0
 10
146.318164
 20
162.559780
 30
0.0
 10
144.648644
 20
162.039873
 30
0.0
 10
144.355223
 20
161.795665
 30
0.0
 10
144.323473
 20
161.415194
 30
0.0
 10
144.571650
 20
160.637055
 30
0.0
 10
141.770245
 20
159.664976
 30
0.0
 10
141.442691
 20
160.448407
 30
0.0
 10
141.170964
 20
160.719340
 30
0.0
 10
140.786789
 20
160.718811
 30
0.0
 10
139.169393
 20
160.055765
 30
0.0
 10
138.898460
 20
159.786684
 30
0.0
 10
138.899783
 20
159.404626
 30
0.0
 10
139.215431
 20
158.649770
 30
0.0
 10
136.508217
 20
157.440626
 30
0.0
 10
136.114252
 20
158.190455
 30
0.0
 10
135.820300
 20
158.436780
 30
0.0
 10
135.437978
 20
158.403709
 30
0.0
 10
133.884081
 20
157.602287
 30
0.0
 10
133.637491
 20
157.310451
 30
0.0
 10
133.672150
 20
156.929980
 30
0.0
 10
134.049974
 20
156.210049
 30
0.0
 10
131.459970
 20
154.765690
 30
0.0
 10
131.003035
 20
155.477948
 30
0.0
 10
130.688446
 20
155.697552
 30
0.0
 10
130.310621
 20
155.631406
 30
0.0
 10
128.832661
 20
154.696900
 30
0.0
 10
128.612527
 20
154.384956
 30
0.0
 10
128.680261
 20
154.009248
 30
0.0
 10
129.118411
 20
153.326094
 30
0.0
 10
126.660697
 20
151.666099
 30
0.0
 10
126.147936
 20
152.329673
 30
0.0
 10
125.815620
 20
152.521496
 30
0.0
 10
125.444674
 20
152.422807
 30
0.0
 10
124.053495
 20
151.363416
 30
0.0
 10
123.861408
 20
151.033217
 30
0.0
 10
123.961685
 20
150.664653
 30
0.0
 10
124.457778
 20
150.022774
 30
0.0
 10
122.156171
 20
148.151643
 30
0.0
 10
121.585465
 20
148.770766
 30
0.0
 10
121.237538
 20
148.932426
 30
0.0
 10
120.876646
 20
148.801722
 30
0.0
 10
119.583629
 20
147.625122
 30
0.0
 10
119.420910
 20
147.279577
 30
0.0
 10
119.552672
 20
146.921331
 30
0.0
 10
120.097713
 20
146.330252
 30
0.0
 10
117.970730
 20
144.263063
 30
0.0
 10
117.350811
 20
144.827948
 30
0.0
 10
116.989920
 20
144.958652
 30
0.0
 10
116.641728
 20
144.796992
 30
0.0
 10
115.456132
 20
143.512178
 30
0.0
 10
115.324106
 20
143.153667
 30
0.0
 10
115.486824
 20
142.807857
 30
0.0
 10
116.083458
 20
142.264138
 30
0.0
 10
114.140625
 20
140.023649
 30
0.0
 10
113.475462
 20
140.530590
 30
0.0
 10
113.104781
 20
140.629280
 30
0.0
 10
112.772200
 20
140.437987
 30
0.0
 10
111.703021
 20
139.054745
 30
0.0
 10
111.602744
 20
138.686181
 30
0.0
 10
111.795096
 20
138.355981
 30
0.0
 10
112.434327
 20
137.868619
 30
0.0
 10
110.697340
 20
135.464088
 30
0.0
 10
109.989845
 20
135.911763
 30
0.0
 10
109.612020
 20
135.977909
 30
0.0
 10
109.297430
 20
135.758305
 30
0.0
 10
108.352870
 20
134.286957
 30
0.0
 10
108.285137
 20
133.911250
 30
0.0
 10
108.505270
 20
133.599043
 30
0.0
 10
109.183130
 20
133.170153
 30
0.0
 10
107.658339
 20
130.625656
 30
0.0
 10
106.919887
 20
131.007185
 30
0.0
 10
106.537564
 20
131.039993
 30
0.0
 10
106.243348
 20
130.793666
 30
0.0
 10
105.430549
 20
129.245856
 30
0.0
 10
105.395889
 20
128.865386
 30
0.0
 10
105.642479
 20
128.573550
 30
0.0
 10
106.356060
 20
128.205250
 30
0.0
 10
105.060397
 20
125.536666
 30
0.0
 10
104.288873
 20
125.853372
 30
0.0
 10
103.905492
 20
125.853107
 30
0.0
 10
103.633765
 20
125.582174
 30
0.0
 10
102.958813
 20
123.969010
 30
0.0
 10
102.958813
 20
123.586952
 30
0.0
 10
103.230011
 20
123.317606
 30
0.0
 10
103.967934
 20
123.014924
 30
0.0
 10
102.913569
 20
120.242357
 30
0.0
 10
102.118761
 20
120.490007
 30
0.0
 10
101.736703
 20
120.456140
 30
0.0
 10
101.489583
 20
120.162452
 30
0.0
 10
100.957772
 20
118.496903
 30
0.0
 10
100.989786
 20
118.116168
 30
0.0
 10
101.283208
 20
117.871428
 30
0.0
 10
102.047588
 20
117.633303
 30
0.0
 10
101.234261
 20
114.780833
 30
0.0
 10
100.423049
 20
114.957575
 30
0.0
 10
100.044960
 20
114.890635
 30
0.0
 10
99.824562
 20
114.576575
 30
0.0
 10
99.440122
 20
112.870806
 30
0.0
 10
99.505210
 20
112.494570
 30
0.0
 10
99.818741
 20
112.276552
 30
0.0
 10
100.599526
 20
112.106163
 30
0.0
 10
100.041520
 20
109.192572
 30
0.0
 10
99.215756
 20
109.298405
 30
0.0
 10
98.845339
 20
109.198922
 30
0.0
 10
98.652987
 20
108.866871
 30
0.0
 10
98.418303
 20
107.134381
 30
0.0
 10
98.515933
 20
106.765023
 30
0.0
 10
98.847191
 20
106.575052
 30
0.0
 10
99.639089
 20
106.473187
 30
0.0
 10
99.334554
 20
103.522028
 30
0.0
 10
98.506143
 20
103.555630
 30
0.0
 10
98.145783
 20
103.424132
 30
0.0
 10
97.983328
 20
103.076734
 30
0.0
 10
97.926971
 20
101.886638
 30
0.0
 10
97.927235
 20
101.257990
 30
0.0
 10
98.069316
 20
100.948957
 30
0.0
 10
98.377291
 20
100.811374
 30
0.0
 10
99.177127
 20
100.778830
 30
0.0
 10
99.125004
 20
98.305771
 30
0.0
 10
99.143525
 20
97.805446
 30
0.0
 10
97.926971
 20
97.750146
 30
0.0
 10
97.926971
 20
96.997144
 30
0.0
 10
95.362896
 20
95.369428
 30
0.0
 10
95.347815
 20
95.012769
 30
0.0
 10
95.346492
 20
95.014357
 30
0.0
  0
LWPOLYLINE
  5
10f
100
AcDbEntity
  8
Layer_1
 62
7
100
AcDbPolyline
 90
36
 70
1
 10
157.122945
 20
98.302860
 30
0.0
 10
157.274816
 20
99.814424
 30
0.0
 10
157.711907
 20
101.222007
 30
0.0
 10
158.403792
 20
102.495974
 30
0.0
 10
159.319778
 20
103.605900
 30
0.0
 10
160.429969
 20
104.521888
 30
0.0
 10
161.703938
 20
105.212978
 30
0.0
 10
163.110989
 20
105.649804
 30
0.0
 10
164.622818
 20
105.802998
 30
0.0
 10
166.092842
 20
105.656948
 30
0.0
 10
167.492751
 20
105.232028
 30
0.0
 10
168.783917
 20
104.542790
 30
0.0
 10
169.925856
 20
103.605900
 30
0.0
 10
170.862746
 20
102.463959
 30
0.0
 10
171.551985
 20
101.172795
 30
0.0
 10
171.977964
 20
99.772885
 30
0.0
 10
172.122956
 20
98.302860
 30
0.0
 10
171.977964
 20
96.832838
 30
0.0
 10
171.551985
 20
95.432398
 30
0.0
 10
170.862746
 20
94.141497
 30
0.0
 10
169.925856
 20
92.999293
 30
0.0
 10
168.783917
 20
92.062403
 30
0.0
 10
167.492751
 20
91.373429
 30
0.0
 10
166.092842
 20
90.947980
 30
0.0
 10
164.622818
 20
90.802459
 30
0.0
 10
163.152793
 20
90.947980
 30
0.0
 10
161.752885
 20
91.373429
 30
0.0
 10
160.461984
 20
92.062668
 30
0.0
 10
159.318984
 20
92.999293
 30
0.0
 10
158.382889
 20
94.141763
 30
0.0
 10
157.693916
 20
95.432663
 30
0.0
 10
157.267937
 20
96.832838
 30
0.0
 10
157.122945
 20
98.302860
 30
0.0
 10
157.122945
 20
98.302860
 30
0.0
 10
157.122945
 20
98.302860
 30
0.0
 10
157.122945
 20
98.302860
 30
0.0
  0
LWPOLYLINE
  5
110
100
AcDbEntity
  8
Layer_1
 62
7
100
AcDbPolyline
 90
8
 70
1
 10
171.622893
 20
106.302796
 30
0.0
 10
171.622893
 20
112.303013
 30
0.0
 10
174.622736
 20
112.303013
 30
0.0
 10
174.622736
 20
106.302796
 30
0.0
 10
171.622893
 20
106.302796
 30
0.0
 10
171.622893
 20
106.302796
 30
0.0
 10
171.622893
 20
106.302796
 30
0.0
 10
171.622893
 20
106.302796
 30
0.0
  0
LWPOLYLINE
  5
111
100
AcDbEntity
  8
Layer_1
 62
7
100
AcDbPolyline
 90
8
 70
1
 10
171.622893
 20
120.302946
 30
0.0
 10
171.622893
 20
126.302899
 30
0.0
 10
174.622736
 20
126.302899
 30
0.0
 10
174.622736
 20
120.302946
 30
0.0
 10
171.622893
 20
120.302946
 30
0.0
 10
171.622893
 20
120.302946
 30
0.0
 10
171.622893
 20
120.302946
 30
0.0
 10
171.622893
 20
120.302946
 30
0.0
  0
LWPOLYLINE
  5
112
100
AcDbEntity
  8
Layer_1
 62
7
100
AcDbPolyline
 90
20
 70
1
 10
171.920814
 20
133.272811
 30
0.0
 10
171.996749
 20
133.654869
 30
0.0
 10
172.213972
 20
133.979776
 30
0.0
 10
172.537822
 20
134.196999
 30
0.0
 10
172.920937
 20
134.272934
 30
0.0
 10
173.303789
 20
134.196999
 30
0.0
 10
173.627903
 20
133.979776
 30
0.0
 10
173.844862
 20
133.654869
 30
0.0
 10
173.920797
 20
133.272811
 30
0.0
 10
173.844862
 20
132.889960
 30
0.0
 10
173.627903
 20
132.564787
 30
0.0
 10
173.303789
 20
132.348887
 30
0.0
 10
172.920937
 20
132.271893
 30
0.0
 10
172.537822
 20
132.348887
 30
0.0
 10
172.213972
 20
132.564787
 30
0.0
 10
171.996749
 20
132.889960
 30
0.0
 10
171.920814
 20
133.272811
 30
0.0
 10
171.920814
 20
133.272811
 30
0.0
 10
171.920814
 20
133.272811
 30
0.0
 10
171.920814
 20
133.272811
 30
0.0
  0
LWPOLYLINE
  5
113
100
AcDbEntity
  8
Layer_1
 62
7
100
AcDbPolyline
 90
36
 70
1
 10
175.038926
 20
151.303885
 30
0.0
 10
175.127826
 20
152.204790
 30
0.0
 10
175.388969
 20
153.063892
 30
0.0
 10
175.810980
 20
153.855790
 30
0.0
 10
176.385917
 20
154.556935
 30
0.0
 10
177.085740
 20
155.130814
 30
0.0
 10
177.877902
 20
155.553883
 30
0.0
 10
178.736739
 20
155.814762
 30
0.0
 10
179.638968
 20
155.903927
 30
0.0
 10
180.539872
 20
155.814762
 30
0.0
 10
181.398974
 20
155.553883
 30
0.0
 10
182.190872
 20
155.130814
 30
0.0
 10
182.890959
 20
154.556935
 30
0.0
 10
183.465898
 20
153.855790
 30
0.0
 10
183.888966
 20
153.063892
 30
0.0
 10
184.149844
 20
152.205848
 30
0.0
 10
184.238744
 20
151.303885
 30
0.0
 10
184.149844
 20
150.401922
 30
0.0
 10
183.888966
 20
149.543878
 30
0.0
 10
183.465898
 20
148.751981
 30
0.0
 10
182.890959
 20
148.050836
 30
0.0
 10
182.190872
 20
147.476956
 30
0.0
 10
181.398974
 20
147.053887
 30
0.0
 10
180.539872
 20
146.793008
 30
0.0
 10
179.638968
 20
146.703844
 30
0.0
 10
178.736739
 20
146.793008
 30
0.0
 10
177.877902
 20
147.053887
 30
0.0
 10
177.085740
 20
147.476956
 30
0.0
 10
176.385917
 20
148.050836
 30
0.0
 10
175.810980
 20
148.751981
 30
0.0
 10
175.388969
 20
149.542820
 30
0.0
 10
175.127826
 20
150.401922
 30
0.0
 10
175.038926
 20
151.303885
 30
0.0
 10
175.038926
 20
151.303885
 30
0.0
 10
175.038926
 20
151.303885
 30
0.0
 10
175.038926
 20
151.303885
 30
0.0
  0
LWPOLYLINE
  5
114
100
AcDbEntity
  8
Layer_1
 62
7
100
AcDbPolyline
 90
36
 70
1
 10
180.622951
 20
113.802933
 30
0.0
 10
180.767943
 20
115.272958
 30
0.0
 10
181.193922
 20
116.672866
 30
0.0
 10
181.882897
 20
117.964032
 30
0.0
 10
182.818728
 20
119.105973
 30
0.0
 10
183.961726
 20
120.042861
 30
0.0
 10
185.251834
 20
120.731836
 30
0.0
 10
186.652802
 20
121.157815
 30
0.0
 10
188.122825
 20
121.302806
 30
0.0
 10
189.592849
 20
121.157815
 30
0.0
 10
190.992757
 20
120.731836
 30
0.0
 10
192.283923
 20
120.042861
 30
0.0
 10
193.425865
 20
119.105973
 30
0.0
 10
194.362753
 20
117.964032
 30
0.0
 10
195.051727
 20
116.672866
 30
0.0
 10
195.476912
 20
115.272958
 30
0.0
 10
195.622962
 20
113.802933
 30
0.0
 10
195.476912
 20
112.332909
 30
0.0
 10
195.051727
 20
110.933001
 30
0.0
 10
194.362753
 20
109.641834
 30
0.0
 10
193.425865
 20
108.498836
 30
0.0
 10
192.283923
 20
107.563006
 30
0.0
 10
190.992757
 20
106.874031
 30
0.0
 10
189.592849
 20
106.447787
 30
0.0
 10
188.122825
 20
106.302796
 30
0.0
 10
186.610733
 20
106.454931
 30
0.0
 10
185.202886
 20
106.892023
 30
0.0
 10
183.928917
 20
107.583908
 30
0.0
 10
182.818728
 20
108.499895
 30
0.0
 10
181.903799
 20
109.609820
 30
0.0
 10
181.211914
 20
110.882994
 30
0.0
 10
180.774822
 20
112.290840
 30
0.0
 10
180.622951
 20
113.802933
 30
0.0
 10
180.622951
 20
113.802933
 30
0.0
 10
180.622951
 20
113.802933
 30
0.0
 10
180.622951
 20
113.802933
 30
0.0
  0
LWPOLYLINE
  5
115
100
AcDbEntity
  8
Layer_1
 62
7
100
AcDbPolyline
 90
8
 70
1
 10
192.622855
 20
43.302647
 30
0.0
 10
192.622855
 20
49.302862
 30
0.0
 10
195.622962
 20
49.302862
 30
0.0
 10
195.622962
 20
43.302647
 30
0.0
 10
192.622855
 20
43.302647
 30
0.0
 10
192.622855
 20
43.302647
 30
0.0
 10
192.622855
 20
43.302647
 30
0.0
 10
192.622855
 20
43.302647
 30
0.0
  0
LWPOLYLINE
  5
116
100
AcDbEntity
  8
Layer_1
 62
7
100
AcDbPolyline
 90
8
 70
1
 10
192.622855
 20
67.302716
 30
0.0
 10
192.622855
 20
73.302932
 30
0.0
 10
195.622962
 20
73.302932
 30
0.0
 10
195.622962
 20
67.302716
 30
0.0
 10
192.622855
 20
67.302716
 30
0.0
 10
192.622855
 20
67.302716
 30
0.0
 10
192.622855
 20
67.302716
 30
0.0
 10
192.622855
 20
67.302716
 30
0.0
  0
LWPOLYLINE
  5
117
100
AcDbEntity
  8
Layer_1
 62
7
100
AcDbPolyline
 90
8
 70
1
 10
192.622855
 20
101.302970
 30
0.0
 10
192.622855
 20
107.302920
 30
0.0
 10
195.622962
 20
107.302920
 30
0.0
 10
195.622962
 20
101.302970
 30
0.0
 10
192.622855
 20
101.302970
 30
0.0
 10
192.622855
 20
101.302970
 30
0.0
 10
192.622855
 20
101.302970
 30
0.0
 10
192.622855
 20
101.302970
 30
0.0
  0
LWPOLYLINE
  5
118
100
AcDbEntity
  8
Layer_1
 62
7
100
AcDbPolyline
 90
8
 70
1
 10
192.622855
 20
120.302946
 30
0.0
 10
192.622855
 20
126.302899
 30
0.0
 10
195.622962
 20
126.302899
 30
0.0
 10
195.622962
 20
120.302946
 30
0.0
 10
192.622855
 20
120.302946
 30
0.0
 10
192.622855
 20
120.302946
 30
0.0
 10
192.622855
 20
120.302946
 30
0.0
 10
192.622855
 20
120.302946
 30
0.0
  0
LWPOLYLINE
  5
119
100
AcDbEntity
  8
Layer_1
 62
7
100
AcDbPolyline
 90
8
 70
1
 10
192.622855
 20
165.302978
 30
0.0
 10
192.622855
 20
171.301871
 30
0.0
 10
195.622962
 20
171.301871
 30
0.0
 10
195.622962
 20
165.302978
 30
0.0
 10
192.622855
 20
165.302978
 30
0.0
 10
192.622855
 20
165.302978
 30
0.0
 10
192.622855
 20
165.302978
 30
0.0
 10
192.622855
 20
165.302978
 30
0.0
  0
LWPOLYLINE
  5
11a
100
AcDbEntity
  8
Layer_1
 62
7
100
AcDbPolyline
 90
20
 70
1
 10
196.669918
 20
158.020857
 30
0.0
 10
196.745854
 20
158.403973
 30
0.0
 10
196.962812
 20
158.728880
 30
0.0
 10
197.293805
 20
158.947955
 30
0.0
 10
197.669777
 20
159.020980
 30
0.0
 10
198.045751
 20
158.947955
 30
0.0
 10
198.376743
 20
158.728880
 30
0.0
 10
198.593701
 20
158.403973
 30
0.0
 10
198.669901
 20
158.020857
 30
0.0
 10
198.593701
 20
157.638799
 30
0.0
 10
198.376743
 20
157.313891
 30
0.0
 10
198.045751
 20
157.094816
 30
0.0
 10
197.669777
 20
157.020997
 30
0.0
 10
197.293805
 20
157.094816
 30
0.0
 10
196.962812
 20
157.313891
 30
0.0
 10
196.745854
 20
157.638799
 30
0.0
 10
196.669918
 20
158.020857
 30
0.0
 10
196.669918
 20
158.020857
 30
0.0
 10
196.669918
 20
158.020857
 30
0.0
 10
196.669918
 20
158.020857
 30
0.0
  0
LWPOLYLINE
  5
11b
100
AcDbEntity
  8
Layer_1
 62
1
100
AcDbPolyline
 90
2
 70
0
 10
102.647928
 20
99.548254
 30
0.0
 10
107.660985
 20
97.640346
 30
0.0
  0
LWPOLYLINE
  5
11c
100
AcDbEntity
  8
Layer_1
 62
1
100
AcDbPolyline
 90
2
 70
0
 10
102.647928
 20
99.548254
 30
0.0
 10
107.660985
 20
101.456957
 30
0.0
  0
LWPOLYLINE
  5
11d
100
AcDbEntity
  8
Layer_1
 62
1
100
AcDbPolyline
 90
2
 70
0
 10
105.994904
 20
98.352073
 30
0.0
 10
105.994904
 20
100.744964
 30
0.0
  0
LWPOLYLINE
  5
11e
100
AcDbEntity
  8
Layer_1
 62
1
100
AcDbPolyline
 90
2
 70
0
 10
102.106855
 20
99.528145
 30
0.0
 10
99.449912
 20
99.528145
 30
0.0
  0
LWPOLYLINE
  5
11f
100
AcDbEntity
  8
Layer_1
 62
1
100
AcDbPolyline
 90
2
 70
0
 10
106.322987
 20
117.932811
 30
0.0
 10
111.335780
 20
117.932811
 30
0.0
  0
LWPOLYLINE
  5
120
100
AcDbEntity
  8
Layer_1
 62
1
100
AcDbPolyline
 90
9
 70
0
 10
106.322987
 20
117.932811
 30
0.0
 10
106.322987
 20
120.082813
 30
0.0
 10
106.565081
 20
120.794542
 30
0.0
 10
106.807439
 20
121.036900
 30
0.0
 10
107.277074
 20
121.279258
 30
0.0
 10
107.761791
 20
121.279788
 30
0.0
 10
108.231426
 20
121.037694
 30
0.0
 10
108.473785
 20
120.795336
 30
0.0
 10
108.715877
 20
120.083607
 30
0.0
  0
LWPOLYLINE
  5
121
100
AcDbEntity
  8
Layer_1
 62
1
100
AcDbPolyline
 90
10
 70
0
 10
108.715877
 20
117.932811
 30
0.0
 10
108.715877
 20
120.082813
 30
0.0
 10
108.950562
 20
120.794542
 30
0.0
 10
109.185247
 20
121.036900
 30
0.0
 10
109.669963
 20
121.279258
 30
0.0
 10
110.381957
 20
121.279788
 30
0.0
 10
110.859001
 20
121.037694
 30
0.0
 10
111.097390
 20
120.795336
 30
0.0
 10
111.336044
 20
120.083607
 30
0.0
 10
111.335780
 20
117.932811
 30
0.0
  0
LWPOLYLINE
  5
122
100
AcDbEntity
  8
Layer_1
 62
1
100
AcDbPolyline
 90
18
 70
0
 10
122.121775
 20
143.494980
 30
0.0
 10
121.644996
 20
143.252621
 30
0.0
 10
121.167952
 20
142.775578
 30
0.0
 10
120.925594
 20
142.298534
 30
0.0
 10
120.925858
 20
141.344976
 30
0.0
 10
121.168217
 20
140.867933
 30
0.0
 10
121.645260
 20
140.390891
 30
0.0
 10
122.122304
 20
140.148533
 30
0.0
 10
122.834032
 20
139.913847
 30
0.0
 10
124.029947
 20
139.913847
 30
0.0
 10
124.741676
 20
140.148533
 30
0.0
 10
125.222424
 20
140.390891
 30
0.0
 10
125.699468
 20
140.867933
 30
0.0
 10
125.938122
 20
141.344976
 30
0.0
 10
125.937857
 20
142.298799
 30
0.0
 10
125.699468
 20
142.775842
 30
0.0
 10
125.222424
 20
143.252886
 30
0.0
 10
124.741676
 20
143.495244
 30
0.0
  0
LWPOLYLINE
  5
123
100
AcDbEntity
  8
Layer_1
 62
1
100
AcDbPolyline
 90
2
 70
0
 10
137.548821
 20
151.853953
 30
0.0
 10
142.560820
 20
151.853953
 30
0.0
  0
LWPOLYLINE
  5
124
100
AcDbEntity
  8
Layer_1
 62
1
100
AcDbPolyline
 90
12
 70
0
 10
137.548821
 20
151.853953
 30
0.0
 10
137.548821
 20
153.527971
 30
0.0
 10
137.791179
 20
154.247108
 30
0.0
 10
138.268223
 20
154.716744
 30
0.0
 10
138.745266
 20
154.958836
 30
0.0
 10
139.456995
 20
155.201194
 30
0.0
 10
140.652912
 20
155.200930
 30
0.0
 10
141.364639
 20
154.958572
 30
0.0
 10
141.845386
 20
154.716214
 30
0.0
 10
142.322430
 20
154.246844
 30
0.0
 10
142.561084
 20
153.527442
 30
0.0
 10
142.560820
 20
151.853953
 30
0.0
  0
LWPOLYLINE
  5
125
100
AcDbEntity
  8
Layer_1
 62
1
100
AcDbPolyline
 90
2
 70
0
 10
162.156904
 20
157.921903
 30
0.0
 10
167.169959
 20
157.921903
 30
0.0
  0
LWPOLYLINE
  5
126
100
AcDbEntity
  8
Layer_1
 62
1
100
AcDbPolyline
 90
2
 70
0
 10
162.156904
 20
157.921903
 30
0.0
 10
162.156904
 20
161.026786
 30
0.0
  0
LWPOLYLINE
  5
127
100
AcDbEntity
  8
Layer_1
 62
1
100
AcDbPolyline
 90
2
 70
0
 10
164.549793
 20
157.921903
 30
0.0
 10
164.549793
 20
159.829811
 30
0.0
  0
LWPOLYLINE
  5
128
100
AcDbEntity
  8
Layer_1
 62
1
100
AcDbPolyline
 90
2
 70
0
 10
167.169959
 20
157.921903
 30
0.0
 10
167.169959
 20
161.026786
 30
0.0
  0
LWPOLYLINE
  5
129
100
AcDbEntity
  8
Layer_1
 62
7
100
AcDbPolyline
 90
233
 70
1
 10
81.068265
 20
161.767883
 30
0.0
 10
82.287200
 20
161.543517
 30
0.0
 10
83.230968
 20
160.907723
 30
0.0
 10
83.924440
 20
159.912361
 30
0.0
 10
84.392751
 20
158.609288
 30
0.0
 10
84.661303
 20
157.049837
 30
0.0
 10
84.755230
 20
155.285596
 30
0.0
 10
84.519487
 20
151.349923
 30
0.0
 10
83.887134
 20
147.215018
 30
0.0
 10
83.058989
 20
143.294161
 30
0.0
 10
81.621244
 20
137.746646
 30
0.0
 10
80.164448
 20
131.792204
 30
0.0
 10
79.274128
 20
126.532290
 30
0.0
 10
78.884926
 20
121.907644
 30
0.0
 10
78.932021
 20
117.858463
 30
0.0
 10
79.349798
 20
114.325485
 30
0.0
 10
80.073167
 20
111.248913
 30
0.0
 10
81.037308
 20
108.569215
 30
0.0
 10
82.176339
 20
106.226860
 30
0.0
 10
83.425701
 20
104.162584
 30
0.0
 10
84.720041
 20
102.316851
 30
0.0
 10
86.427926
 20
99.908616
 30
0.0
 10
88.277096
 20
97.588223
 30
0.0
 10
90.256708
 20
95.362813
 30
0.0
 10
92.355380
 20
93.240328
 30
0.0
 10
94.562267
 20
91.227643
 30
0.0
 10
96.865994
 20
89.332700
 30
0.0
 10
99.255179
 20
87.562903
 30
0.0
 10
101.719241
 20
85.925663
 30
0.0
 10
104.246540
 20
84.428122
 30
0.0
 10
106.826225
 20
83.078220
 30
0.0
 10
109.446920
 20
81.883362
 30
0.0
 10
112.097777
 20
80.850694
 30
0.0
 10
114.767158
 20
79.987890
 30
0.0
 10
117.444474
 20
79.302619
 30
0.0
 10
120.118350
 20
78.802028
 30
0.0
 10
122.777676
 20
78.493524
 30
0.0
 10
124.958899
 20
78.335303
 30
0.0
 10
126.995130
 20
77.882865
 30
0.0
 10
128.876052
 20
77.170078
 30
0.0
 10
130.590285
 20
76.231074
 30
0.0
 10
132.127779
 20
75.099716
 30
0.0
 10
133.477681
 20
73.809608
 30
0.0
 10
134.629147
 20
72.394883
 30
0.0
 10
135.571592
 20
70.889140
 30
0.0
 10
136.294169
 20
69.326778
 30
0.0
 10
136.786029
 20
67.740866
 30
0.0
 10
137.036854
 20
66.166067
 30
0.0
 10
137.035796
 20
64.635983
 30
0.0
 10
136.772006
 20
63.184215
 30
0.0
 10
136.235167
 20
61.844897
 30
0.0
 10
135.413901
 20
60.651891
 30
0.0
 10
134.297888
 20
59.639066
 30
0.0
 10
133.395397
 20
59.199329
 30
0.0
 10
131.976701
 20
58.791343
 30
0.0
 10
127.727496
 20
58.065062
 30
0.0
 10
121.821737
 20
57.451229
 30
0.0
 10
114.530885
 20
56.940319
 30
0.0
 10
96.879223
 20
56.191019
 30
0.0
 10
76.943149
 20
55.743344
 30
0.0
 10
56.894100
 20
55.523475
 30
0.0
 10
38.902978
 20
55.457594
 30
0.0
 10
17.778212
 20
55.493578
 30
0.0
 10
14.443645
 20
55.726411
 30
0.0
 10
11.357654
 20
56.383371
 30
0.0
 10
8.580669
 20
57.400694
 30
0.0
 10
6.173094
 20
58.715936
 30
0.0
 10
4.195362
 20
60.265335
 30
0.0
 10
2.707902
 20
61.985919
 30
0.0
 10
1.771107
 20
63.814717
 30
0.0
 10
1.528098
 20
64.749754
 30
0.0
 10
1.445416
 20
65.688230
 30
0.0
 10
1.665970
 20
68.053074
 30
0.0
 10
2.248765
 20
71.228336
 30
0.0
 10
4.027881
 20
78.654390
 30
0.0
 10
6.727766
 20
88.320404
 30
0.0
 10
6.678660
 20
89.270787
 30
0.0
 10
6.806189
 20
89.630092
 30
0.0
 10
7.152025
 20
89.790958
 30
0.0
 10
12.400270
 20
90.013208
 30
0.0
 10
12.306209
 20
92.521720
 30
0.0
 10
12.311900
 20
92.978391
 30
0.0
 10
11.452004
 20
93.018872
 30
0.0
 10
11.104553
 20
93.181591
 30
0.0
 10
10.972976
 20
93.542218
 30
0.0
 10
11.042720
 20
95.288994
 30
0.0
 10
11.203084
 20
95.635598
 30
0.0
 10
11.562600
 20
95.764980
 30
0.0
 10
12.386830
 20
95.726086
 30
0.0
 10
12.601802
 20
98.683066
 30
0.0
 10
11.750692
 20
98.797631
 30
0.0
 10
11.418561
 20
98.989983
 30
0.0
 10
11.318681
 20
99.360399
 30
0.0
 10
11.540904
 20
101.094743
 30
0.0
 10
11.730716
 20
101.426265
 30
0.0
 10
12.100021
 20
101.523632
 30
0.0
 10
12.917555
 20
101.413035
 30
0.0
 10
13.383142
 20
104.341177
 30
0.0
 10
12.551691
 20
104.528238
 30
0.0
 10
12.237524
 20
104.748636
 30
0.0
 10
12.170321
 20
105.126459
 30
0.0
 10
12.542905
 20
106.834873
 30
0.0
 10
12.760816
 20
107.148668
 30
0.0
 10
13.137186
 20
107.213756
 30
0.0
 10
13.939693
 20
107.032781
 30
0.0
 10
14.662667
 20
109.908270
 30
0.0
 10
13.849285
 20
110.167561
 30
0.0
 10
13.555598
 20
110.414417
 30
0.0
 10
13.521652
 20
110.796476
 30
0.0
 10
14.041505
 20
112.465995
 30
0.0
 10
14.285821
 20
112.759417
 30
0.0
 10
14.666292
 20
112.791167
 30
0.0
 10
15.444511
 20
112.542989
 30
0.0
 10
16.416562
 20
115.344395
 30
0.0
 10
15.633131
 20
115.672213
 30
0.0
 10
15.362252
 20
115.943676
 30
0.0
 10
15.361722
 20
116.327320
 30
0.0
 10
16.024713
 20
117.944718
 30
0.0
 10
16.293848
 20
118.215915
 30
0.0
 10
16.675826
 20
118.214592
 30
0.0
 10
17.430841
 20
117.898945
 30
0.0
 10
18.640066
 20
120.606159
 30
0.0
 10
17.890237
 20
120.999858
 30
0.0
 10
17.643910
 20
121.294075
 30
0.0
 10
17.676798
 20
121.676398
 30
0.0
 10
18.478300
 20
123.230293
 30
0.0
 10
18.770135
 20
123.476885
 30
0.0
 10
19.150606
 20
123.442225
 30
0.0
 10
19.870483
 20
123.064401
 30
0.0
 10
21.314842
 20
125.654405
 30
0.0
 10
20.602716
 20
126.111340
 30
0.0
 10
20.383059
 20
126.425664
 30
0.0
 10
20.449258
 20
126.803753
 30
0.0
 10
21.383554
 20
128.281715
 30
0.0
 10
21.695551
 20
128.501848
 30
0.0
 10
22.071365
 20
128.434115
 30
0.0
 10
22.754519
 20
127.995965
 30
0.0
 10
24.414380
 20
130.453677
 30
0.0
 10
23.750858
 20
130.966175
 30
0.0
 10
23.559194
 20
131.298756
 30
0.0
 10
23.657830
 20
131.669437
 30
0.0
 10
24.717195
 20
133.060616
 30
0.0
 10
25.047263
 20
133.252703
 30
0.0
 10
25.415854
 20
133.152691
 30
0.0
 10
26.057680
 20
132.656597
 30
0.0
 10
27.928864
 20
134.958205
 30
0.0
 10
27.309739
 20
135.528646
 30
0.0
 10
27.148078
 20
135.876838
 30
0.0
 10
27.278783
 20
136.237730
 30
0.0
 10
28.455384
 20
137.530746
 30
0.0
 10
28.800930
 20
137.693465
 30
0.0
 10
29.159176
 20
137.561703
 30
0.0
 10
29.750519
 20
137.016397
 30
0.0
 10
31.817442
 20
139.143381
 30
0.0
 10
31.252821
 20
139.763564
 30
0.0
 10
31.121852
 20
140.124456
 30
0.0
 10
31.283777
 20
140.472646
 30
0.0
 10
32.568329
 20
141.657978
 30
0.0
 10
32.926839
 20
141.790005
 30
0.0
 10
33.272650
 20
141.627551
 30
0.0
 10
33.816368
 20
141.030651
 30
0.0
 10
36.057122
 20
142.973751
 30
0.0
 10
35.550180
 20
143.638648
 30
0.0
 10
35.451226
 20
144.009593
 30
0.0
 10
35.642520
 20
144.342174
 30
0.0
 10
37.026025
 20
145.411354
 30
0.0
 10
37.394588
 20
145.511367
 30
0.0
 10
37.724524
 20
145.319279
 30
0.0
 10
38.211886
 20
144.680046
 30
0.0
 10
40.616419
 20
146.416771
 30
0.0
 10
40.169008
 20
147.124266
 30
0.0
 10
40.102863
 20
147.502355
 30
0.0
 10
40.322467
 20
147.816680
 30
0.0
 10
41.793548
 20
148.761506
 30
0.0
 10
42.169520
 20
148.829239
 30
0.0
 10
42.481464
 20
148.609106
 30
0.0
 10
42.910354
 20
147.930980
 30
0.0
 10
45.454849
 20
149.456037
 30
0.0
 10
45.073584
 20
150.194488
 30
0.0
 10
45.040511
 20
150.576547
 30
0.0
 10
45.286838
 20
150.870763
 30
0.0
 10
46.834650
 20
151.683827
 30
0.0
 10
47.215121
 20
151.718487
 30
0.0
 10
47.506957
 20
151.471895
 30
0.0
 10
47.875519
 20
150.758315
 30
0.0
 10
50.544106
 20
152.053713
 30
0.0
 10
50.227135
 20
152.825238
 30
0.0
 10
50.227400
 20
153.208884
 30
0.0
 10
50.498333
 20
153.480611
 30
0.0
 10
52.111760
 20
154.155298
 30
0.0
 10
52.493553
 20
154.156621
 30
0.0
 10
52.762899
 20
153.885687
 30
0.0
 10
53.065582
 20
153.147765
 30
0.0
 10
55.838148
 20
154.201864
 30
0.0
 10
55.590498
 20
154.996672
 30
0.0
 10
55.624629
 20
155.378993
 30
0.0
 10
55.918317
 20
155.626114
 30
0.0
 10
57.583604
 20
156.157927
 30
0.0
 10
57.964339
 20
156.125912
 30
0.0
 10
58.209079
 20
155.832225
 30
0.0
 10
58.447204
 20
155.068108
 30
0.0
 10
61.299674
 20
155.881437
 30
0.0
 10
61.122932
 20
156.692649
 30
0.0
 10
61.189872
 20
157.070474
 30
0.0
 10
61.503932
 20
157.291137
 30
0.0
 10
63.209698
 20
157.675576
 30
0.0
 10
63.585936
 20
157.610489
 30
0.0
 10
63.803952
 20
157.296957
 30
0.0
 10
63.974609
 20
156.515908
 30
0.0
 10
66.887933
 20
157.074178
 30
0.0
 10
66.782100
 20
157.899943
 30
0.0
 10
66.881583
 20
158.270359
 30
0.0
 10
67.213635
 20
158.462711
 30
0.0
 10
68.946391
 20
158.697395
 30
0.0
 10
69.315484
 20
158.599763
 30
0.0
 10
69.505454
 20
158.268242
 30
0.0
 10
69.607319
 20
157.476609
 30
0.0
 10
72.558479
 20
157.781145
 30
0.0
 10
72.524877
 20
158.609288
 30
0.0
 10
72.656375
 20
158.969915
 30
0.0
 10
73.004036
 20
159.132370
 30
0.0
 10
74.194131
 20
159.188726
 30
0.0
 10
74.823575
 20
159.188990
 30
0.0
 10
75.132608
 20
159.046645
 30
0.0
 10
75.269926
 20
158.738670
 30
0.0
 10
75.302470
 20
157.938836
 30
0.0
 10
77.775793
 20
157.990959
 30
0.0
 10
78.276119
 20
157.972439
 30
0.0
 10
78.331417
 20
159.188990
 30
0.0
 10
79.083628
 20
159.188990
 30
0.0
 10
80.711606
 20
161.753067
 30
0.0
 10
81.068000
 20
161.768148
 30
0.0
 10
81.068265
 20
161.767883
 30
0.0
  0
LWPOLYLINE
  5
12a
100
AcDbEntity
  8
Layer_1
 62
7
100
AcDbPolyline
 90
34
 70
1
 10
77.777909
 20
99.994076
 30
0.0
 10
76.266612
 20
99.841676
 30
0.0
 10
74.858764
 20
99.404585
 30
0.0
 10
73.584796
 20
98.713229
 30
0.0
 10
72.474871
 20
97.797244
 30
0.0
 10
71.559148
 20
96.687317
 30
0.0
 10
70.867792
 20
95.413348
 30
0.0
 10
70.430701
 20
94.005767
 30
0.0
 10
70.278301
 20
92.494203
 30
0.0
 10
70.423557
 20
91.024180
 30
0.0
 10
70.849007
 20
89.624006
 30
0.0
 10
71.538246
 20
88.333104
 30
0.0
 10
72.474871
 20
87.190900
 30
0.0
 10
73.617075
 20
86.254276
 30
0.0
 10
74.907977
 20
85.565036
 30
0.0
 10
76.307887
 20
85.139322
 30
0.0
 10
77.777909
 20
84.994066
 30
0.0
 10
79.248198
 20
85.139322
 30
0.0
 10
80.648371
 20
85.564772
 30
0.0
 10
81.939273
 20
86.254011
 30
0.0
 10
83.081743
 20
87.190635
 30
0.0
 10
84.018366
 20
88.333104
 30
0.0
 10
84.707605
 20
89.624006
 30
0.0
 10
85.133055
 20
91.024180
 30
0.0
 10
85.278311
 20
92.494203
 30
0.0
 10
85.132791
 20
93.964228
 30
0.0
 10
84.707341
 20
95.364400
 30
0.0
 10
84.018103
 20
96.655302
 30
0.0
 10
83.081479
 20
97.797508
 30
0.0
 10
81.939008
 20
98.734131
 30
0.0
 10
80.648106
 20
99.423106
 30
0.0
 10
79.247934
 20
99.848556
 30
0.0
 10
77.777909
 20
99.994076
 30
0.0
 10
77.777909
 20
99.994076
 30
0.0
  0
LWPOLYLINE
  5
12b
100
AcDbEntity
  8
Layer_1
 62
7
100
AcDbPolyline
 90
6
 70
1
 10
69.777974
 20
85.494128
 30
0.0
 10
63.778552
 20
85.494128
 30
0.0
 10
63.778552
 20
82.494285
 30
0.0
 10
69.777974
 20
82.494285
 30
0.0
 10
69.777974
 20
85.494128
 30
0.0
 10
69.777974
 20
85.494128
 30
0.0
  0
LWPOLYLINE
  5
12c
100
AcDbEntity
  8
Layer_1
 62
7
100
AcDbPolyline
 90
6
 70
1
 10
55.778352
 20
85.494128
 30
0.0
 10
49.778137
 20
85.494128
 30
0.0
 10
49.778137
 20
82.494285
 30
0.0
 10
55.778352
 20
82.494285
 30
0.0
 10
55.778352
 20
85.494128
 30
0.0
 10
55.778352
 20
85.494128
 30
0.0
  0
LWPOLYLINE
  5
12d
100
AcDbEntity
  8
Layer_1
 62
7
100
AcDbPolyline
 90
18
 70
1
 10
42.808224
 20
85.195943
 30
0.0
 10
42.425637
 20
85.119743
 30
0.0
 10
42.101258
 20
84.903049
 30
0.0
 10
41.884300
 20
84.578405
 30
0.0
 10
41.808364
 20
84.195818
 30
0.0
 10
41.884300
 20
83.812966
 30
0.0
 10
42.101258
 20
83.488589
 30
0.0
 10
42.425637
 20
83.271631
 30
0.0
 10
42.808489
 20
83.195695
 30
0.0
 10
43.191076
 20
83.271631
 30
0.0
 10
43.515720
 20
83.488589
 30
0.0
 10
43.732414
 20
83.812966
 30
0.0
 10
43.808614
 20
84.195818
 30
0.0
 10
43.732414
 20
84.578405
 30
0.0
 10
43.515720
 20
84.903049
 30
0.0
 10
43.191076
 20
85.119743
 30
0.0
 10
42.808224
 20
85.195943
 30
0.0
 10
42.808224
 20
85.195943
 30
0.0
  0
LWPOLYLINE
  5
12e
100
AcDbEntity
  8
Layer_1
 62
7
100
AcDbPolyline
 90
34
 70
1
 10
24.777282
 20
82.078360
 30
0.0
 10
23.875582
 20
81.989196
 30
0.0
 10
23.016773
 20
81.728316
 30
0.0
 10
22.224955
 20
81.305512
 30
0.0
 10
21.524259
 20
80.731102
 30
0.0
 10
20.949770
 20
80.030486
 30
0.0
 10
20.527045
 20
79.238855
 30
0.0
 10
20.266087
 20
78.380017
 30
0.0
 10
20.176869
 20
77.478318
 30
0.0
 10
20.266087
 20
76.576618
 30
0.0
 10
20.527045
 20
75.718047
 30
0.0
 10
20.949770
 20
74.926149
 30
0.0
 10
21.524259
 20
74.225533
 30
0.0
 10
22.224876
 20
73.651123
 30
0.0
 10
23.016640
 20
73.228319
 30
0.0
 10
23.875397
 20
72.967442
 30
0.0
 10
24.777018
 20
72.878277
 30
0.0
 10
25.678638
 20
72.967442
 30
0.0
 10
26.537421
 20
73.228319
 30
0.0
 10
27.329053
 20
73.651123
 30
0.0
 10
28.029670
 20
74.225533
 30
0.0
 10
28.604345
 20
74.926149
 30
0.0
 10
29.026884
 20
75.718047
 30
0.0
 10
29.288028
 20
76.576618
 30
0.0
 10
29.377192
 20
77.478318
 30
0.0
 10
29.288028
 20
78.380017
 30
0.0
 10
29.026884
 20
79.238855
 30
0.0
 10
28.604345
 20
80.030486
 30
0.0
 10
28.029670
 20
80.731102
 30
0.0
 10
27.329318
 20
81.305512
 30
0.0
 10
26.537421
 20
81.728316
 30
0.0
 10
25.678823
 20
81.989196
 30
0.0
 10
24.777282
 20
82.078360
 30
0.0
 10
24.777282
 20
82.078360
 30
0.0
  0
LWPOLYLINE
  5
12f
100
AcDbEntity
  8
Layer_1
 62
7
100
AcDbPolyline
 90
6
 70
1
 10
132.777860
 20
64.494431
 30
0.0
 10
126.777908
 20
64.494431
 30
0.0
 10
126.777908
 20
61.494059
 30
0.0
 10
132.777860
 20
61.494059
 30
0.0
 10
132.777860
 20
64.494431
 30
0.0
 10
132.777860
 20
64.494431
 30
0.0
  0
LWPOLYLINE
  5
130
100
AcDbEntity
  8
Layer_1
 62
7
100
AcDbPolyline
 90
6
 70
1
 10
108.777790
 20
64.494431
 30
0.0
 10
102.777838
 20
64.494431
 30
0.0
 10
102.777838
 20
61.494059
 30
0.0
 10
108.777790
 20
61.494059
 30
0.0
 10
108.777790
 20
64.494431
 30
0.0
 10
108.777790
 20
64.494431
 30
0.0
  0
LWPOLYLINE
  5
131
100
AcDbEntity
  8
Layer_1
 62
7
100
AcDbPolyline
 90
6
 70
1
 10
74.778331
 20
64.494431
 30
0.0
 10
68.778116
 20
64.494431
 30
0.0
 10
68.778116
 20
61.494059
 30
0.0
 10
74.778331
 20
61.494059
 30
0.0
 10
74.778331
 20
64.494431
 30
0.0
 10
74.778331
 20
64.494431
 30
0.0
  0
LWPOLYLINE
  5
132
100
AcDbEntity
  8
Layer_1
 62
7
100
AcDbPolyline
 90
6
 70
1
 10
55.778352
 20
64.494431
 30
0.0
 10
49.778137
 20
64.494431
 30
0.0
 10
49.778137
 20
61.494059
 30
0.0
 10
55.778352
 20
61.494059
 30
0.0
 10
55.778352
 20
64.494431
 30
0.0
 10
55.778352
 20
64.494431
 30
0.0
  0
LWPOLYLINE
  5
133
100
AcDbEntity
  8
Layer_1
 62
7
100
AcDbPolyline
 90
6
 70
1
 10
10.778190
 20
64.494431
 30
0.0
 10
4.778557
 20
64.494431
 30
0.0
 10
4.778557
 20
61.494059
 30
0.0
 10
10.778190
 20
61.494059
 30
0.0
 10
10.778190
 20
64.494431
 30
0.0
 10
10.778190
 20
64.494431
 30
0.0
  0
LWPOLYLINE
  5
134
100
AcDbEntity
  8
Layer_1
 62
7
100
AcDbPolyline
 90
18
 70
1
 10
18.059888
 20
60.447103
 30
0.0
 10
17.677009
 20
60.370903
 30
0.0
 10
17.352445
 20
60.154210
 30
0.0
 10
17.132894
 20
59.823480
 30
0.0
 10
17.059710
 20
59.447243
 30
0.0
 10
17.132894
 20
59.071007
 30
0.0
 10
17.352445
 20
58.740278
 30
0.0
 10
17.676877
 20
58.523320
 30
0.0
 10
18.059623
 20
58.447385
 30
0.0
 10
18.442369
 20
58.523320
 30
0.0
 10
18.766828
 20
58.740278
 30
0.0
 10
18.986352
 20
59.071007
 30
0.0
 10
19.059536
 20
59.447243
 30
0.0
 10
18.986352
 20
59.823480
 30
0.0
 10
18.766828
 20
60.154210
 30
0.0
 10
18.442475
 20
60.370903
 30
0.0
 10
18.059888
 20
60.447103
 30
0.0
 10
18.059888
 20
60.447103
 30
0.0
  0
LWPOLYLINE
  5
135
100
AcDbEntity
  8
Layer_1
 62
1
100
AcDbPolyline
 90
18
 70
1
 10
76.478542
 20
154.440783
 30
0.0
 10
75.920801
 20
154.251077
 30
0.0
 10
75.541389
 20
153.693600
 30
0.0
 10
75.357504
 20
152.756446
 30
0.0
 10
75.357504
 20
152.198969
 30
0.0
 10
75.541389
 20
151.261816
 30
0.0
 10
75.920801
 20
150.701165
 30
0.0
 10
76.478278
 20
150.514370
 30
0.0
 10
76.852132
 20
150.514899
 30
0.0
 10
77.415430
 20
150.701695
 30
0.0
 10
77.783201
 20
151.262081
 30
0.0
 10
77.972907
 20
152.199234
 30
0.0
 10
77.972907
 20
152.756975
 30
0.0
 10
77.783201
 20
153.693865
 30
0.0
 10
77.415430
 20
154.251606
 30
0.0
 10
76.852132
 20
154.441312
 30
0.0
 10
76.478542
 20
154.440783
 30
0.0
 10
76.478542
 20
154.440783
 30
0.0
  0
LWPOLYLINE
  5
136
100
AcDbEntity
  8
Layer_1
 62
1
100
AcDbPolyline
 90
4
 70
0
 10
63.177419
 20
151.995769
 30
0.0
 10
63.507619
 20
152.240773
 30
0.0
 10
63.964554
 20
152.893500
 30
0.0
 10
64.646385
 20
149.026883
 30
0.0
  0
LWPOLYLINE
  5
137
100
AcDbEntity
  8
Layer_1
 62
1
100
AcDbPolyline
 90
18
 70
1
 10
67.276341
 20
153.476906
 30
0.0
 10
66.760404
 20
153.193273
 30
0.0
 10
66.483385
 20
152.578117
 30
0.0
 10
66.465129
 20
151.623502
 30
0.0
 10
66.561702
 20
151.074228
 30
0.0
 10
66.905660
 20
150.183376
 30
0.0
 10
67.376883
 20
149.697336
 30
0.0
 10
67.958172
 20
149.610289
 30
0.0
 10
68.326207
 20
149.675112
 30
0.0
 10
68.848759
 20
149.956893
 30
0.0
 10
69.113607
 20
150.572843
 30
0.0
 10
69.137684
 20
151.528516
 30
0.0
 10
69.040847
 20
152.077525
 30
0.0
 10
68.691332
 20
152.967584
 30
0.0
 10
68.232280
 20
153.452565
 30
0.0
 10
67.644376
 20
153.541729
 30
0.0
 10
67.276341
 20
153.476906
 30
0.0
 10
67.276341
 20
153.476906
 30
0.0
  0
LWPOLYLINE
  5
138
100
AcDbEntity
  8
Layer_1
 62
1
100
AcDbPolyline
 90
14
 70
0
 10
53.094686
 20
148.519941
 30
0.0
 10
53.029599
 20
148.698270
 30
0.0
 10
53.082251
 20
149.108639
 30
0.0
 10
53.195757
 20
149.352055
 30
0.0
 10
53.476215
 20
149.656062
 30
0.0
 10
54.178419
 20
149.911649
 30
0.0
 10
54.600165
 20
149.863230
 30
0.0
 10
54.837761
 20
149.747607
 30
0.0
 10
55.136474
 20
149.465032
 30
0.0
 10
55.266120
 20
149.108374
 30
0.0
 10
55.219289
 20
148.699858
 30
0.0
 10
55.060804
 20
148.042635
 30
0.0
 10
53.944263
 20
145.648156
 30
0.0
 10
56.401975
 20
146.542712
 30
0.0
  0
LWPOLYLINE
  5
139
100
AcDbEntity
  8
Layer_1
 62
1
100
AcDbPolyline
 90
19
 70
1
 10
57.165827
 20
150.999880
 30
0.0
 10
56.706775
 20
150.630786
 30
0.0
 10
56.540881
 20
149.977001
 30
0.0
 10
56.688519
 20
149.033762
 30
0.0
 10
56.879283
 20
148.509887
 30
0.0
 10
57.372466
 20
147.692061
 30
0.0
 10
57.920948
 20
147.295187
 30
0.0
 10
58.508852
 20
147.310268
 30
0.0
 10
58.859952
 20
147.438062
 30
0.0
 10
59.325354
 20
147.806361
 30
0.0
 10
59.479341
 20
148.458822
 30
0.0
 10
59.336995
 20
149.404443
 30
0.0
 10
59.146495
 20
149.928318
 30
0.0
 10
58.647493
 20
150.744028
 30
0.0
 10
58.111448
 20
151.141960
 30
0.0
 10
57.516929
 20
151.127674
 30
0.0
 10
57.165827
 20
150.999880
 30
0.0
 10
57.165827
 20
150.999880
 30
0.0
 10
57.165827
 20
150.999880
 30
0.0
  0
LWPOLYLINE
  5
13a
100
AcDbEntity
  8
Layer_1
 62
1
100
AcDbPolyline
 90
15
 70
0
 10
43.005868
 20
144.439806
 30
0.0
 10
44.783072
 20
145.465858
 30
0.0
 10
44.564792
 20
143.614042
 30
0.0
 10
45.047655
 20
143.892913
 30
0.0
 10
45.466226
 20
143.915138
 30
0.0
 10
45.720226
 20
143.842907
 30
0.0
 10
46.163403
 20
143.455028
 30
0.0
 10
46.350198
 20
143.131442
 30
0.0
 10
46.466086
 20
142.550947
 30
0.0
 10
46.334588
 20
142.043476
 30
0.0
 10
45.939830
 20
141.600034
 30
0.0
 10
45.451938
 20
141.318253
 30
0.0
 10
44.875676
 20
141.201308
 30
0.0
 10
44.617972
 20
141.268247
 30
0.0
 10
44.271899
 20
141.500022
 30
0.0
  0
LWPOLYLINE
  5
13b
100
AcDbEntity
  8
Layer_1
 62
1
100
AcDbPolyline
 90
18
 70
1
 10
46.889155
 20
146.681883
 30
0.0
 10
46.501276
 20
146.238706
 30
0.0
 10
46.451269
 20
145.566135
 30
0.0
 10
46.760567
 20
144.662584
 30
0.0
 10
47.039438
 20
144.179719
 30
0.0
 10
47.667294
 20
143.460319
 30
0.0
 10
48.276100
 20
143.164515
 30
0.0
 10
48.852360
 20
143.281461
 30
0.0
 10
49.175946
 20
143.468257
 30
0.0
 10
49.570704
 20
143.911963
 30
0.0
 10
49.608804
 20
144.581093
 30
0.0
 10
49.304533
 20
145.487554
 30
0.0
 10
49.025927
 20
145.970419
 30
0.0
 10
48.393044
 20
146.687175
 30
0.0
 10
47.795617
 20
146.986154
 30
0.0
 10
47.212740
 20
146.868679
 30
0.0
 10
46.889155
 20
146.681883
 30
0.0
 10
46.889155
 20
146.681883
 30
0.0
  0
LWPOLYLINE
  5
13c
100
AcDbEntity
  8
Layer_1
 62
1
100
AcDbPolyline
 90
3
 70
0
 10
35.527162
 20
138.653902
 30
0.0
 10
35.780897
 20
135.444773
 30
0.0
 10
37.930105
 20
137.247907
 30
0.0
  0
LWPOLYLINE
  5
13d
100
AcDbEntity
  8
Layer_1
 62
1
100
AcDbPolyline
 90
2
 70
0
 10
35.527162
 20
138.653902
 30
0.0
 10
38.050755
 20
135.646121
 30
0.0
  0
LWPOLYLINE
  5
13e
100
AcDbEntity
  8
Layer_1
 62
1
100
AcDbPolyline
 90
18
 70
1
 10
37.816863
 20
140.574775
 30
0.0
 10
37.511800
 20
140.071010
 30
0.0
 10
37.579267
 20
139.400027
 30
0.0
 10
38.040701
 20
138.563944
 30
0.0
 10
38.399211
 20
138.136906
 30
0.0
 10
39.142425
 20
137.537360
 30
0.0
 10
39.793300
 20
137.351889
 30
0.0
 10
40.340458
 20
137.566994
 30
0.0
 10
40.626737
 20
137.807235
 30
0.0
 10
40.938415
 20
138.312589
 30
0.0
 10
40.859835
 20
138.978281
 30
0.0
 10
40.402900
 20
139.818068
 30
0.0
 10
40.044390
 20
140.245370
 30
0.0
 10
39.296677
 20
140.841211
 30
0.0
 10
38.656650
 20
141.031975
 30
0.0
 10
38.102878
 20
140.815017
 30
0.0
 10
37.816863
 20
140.574775
 30
0.0
 10
37.816863
 20
140.574775
 30
0.0
  0
LWPOLYLINE
  5
13f
100
AcDbEntity
  8
Layer_1
 62
1
100
AcDbPolyline
 90
17
 70
0
 10
28.646678
 20
131.234991
 30
0.0
 10
27.445735
 20
129.803598
 30
0.0
 10
28.614134
 20
128.575667
 30
0.0
 10
28.590586
 20
128.842896
 30
0.0
 10
28.808074
 20
129.388202
 30
0.0
 10
29.170288
 20
129.820001
 30
0.0
 10
29.673261
 20
130.133269
 30
0.0
 10
30.200576
 20
130.171102
 30
0.0
 10
30.749584
 20
129.958113
 30
0.0
 10
31.035863
 20
129.717873
 30
0.0
 10
31.343044
 20
129.212254
 30
0.0
 10
31.393050
 20
128.690231
 30
0.0
 10
31.173975
 20
128.138575
 30
0.0
 10
30.811761
 20
127.707040
 30
0.0
 10
30.310376
 20
127.399859
 30
0.0
 10
30.045264
 20
127.374724
 30
0.0
 10
29.640717
 20
127.473942
 30
0.0
  0
LWPOLYLINE
  5
140
100
AcDbEntity
  8
Layer_1
 62
1
100
AcDbPolyline
 90
18
 70
1
 10
30.328103
 20
133.238945
 30
0.0
 10
30.115114
 20
132.689935
 30
0.0
 10
30.298207
 20
132.040647
 30
0.0
 10
30.897750
 20
131.297433
 30
0.0
 10
31.324788
 20
130.939187
 30
0.0
 10
32.160871
 20
130.477489
 30
0.0
 10
32.834235
 20
130.408169
 30
0.0
 10
33.335621
 20
130.715085
 30
0.0
 10
33.575862
 20
131.001364
 30
0.0
 10
33.794937
 20
131.553020
 30
0.0
 10
33.602056
 20
132.194899
 30
0.0
 10
33.006214
 20
132.942876
 30
0.0
 10
32.578912
 20
133.301122
 30
0.0
 10
31.739125
 20
133.758056
 30
0.0
 10
31.075815
 20
133.834785
 30
0.0
 10
30.568080
 20
133.525224
 30
0.0
 10
30.328103
 20
133.238945
 30
0.0
 10
30.328103
 20
133.238945
 30
0.0
  0
LWPOLYLINE
  5
141
100
AcDbEntity
  8
Layer_1
 62
1
100
AcDbPolyline
 90
23
 70
0
 10
23.386685
 20
122.168787
 30
0.0
 10
22.971159
 20
122.196569
 30
0.0
 10
22.525072
 20
121.803398
 30
0.0
 10
22.341213
 20
121.484840
 30
0.0
 10
22.223844
 20
120.902227
 30
0.0
 10
22.519833
 20
120.299771
 30
0.0
 10
23.236509
 20
119.666889
 30
0.0
 10
24.048064
 20
119.198312
 30
0.0
 10
24.787574
 20
118.990615
 30
0.0
 10
25.298008
 20
119.127139
 30
0.0
 10
25.741529
 20
119.521897
 30
0.0
 10
25.833446
 20
119.680911
 30
0.0
 10
25.953381
 20
120.262465
 30
0.0
 10
25.813655
 20
120.767819
 30
0.0
 10
25.423156
 20
121.212319
 30
0.0
 10
25.263930
 20
121.304129
 30
0.0
 10
24.681053
 20
121.421604
 30
0.0
 10
24.173609
 20
121.289842
 30
0.0
 10
23.727522
 20
120.896936
 30
0.0
 10
23.635579
 20
120.737656
 30
0.0
 10
23.518237
 20
120.154780
 30
0.0
 10
23.654999
 20
119.644398
 30
0.0
 10
24.048064
 20
119.198312
 30
0.0
  0
LWPOLYLINE
  5
142
100
AcDbEntity
  8
Layer_1
 62
1
100
AcDbPolyline
 90
18
 70
1
 10
24.114369
 20
124.555855
 30
0.0
 10
23.999989
 20
123.978270
 30
0.0
 10
24.293015
 20
123.370787
 30
0.0
 10
25.012655
 20
122.742932
 30
0.0
 10
25.495467
 20
122.464062
 30
0.0
 10
26.398965
 20
122.154764
 30
0.0
 10
27.074260
 20
122.203183
 30
0.0
 10
27.514791
 20
122.592650
 30
0.0
 10
27.701587
 20
122.916234
 30
0.0
 10
27.821443
 20
123.497787
 30
0.0
 10
27.519818
 20
124.096274
 30
0.0
 10
26.803327
 20
124.729422
 30
0.0
 10
26.320438
 20
125.008028
 30
0.0
 10
25.413975
 20
125.312299
 30
0.0
 10
24.747305
 20
125.272612
 30
0.0
 10
24.301218
 20
124.879441
 30
0.0
 10
24.114369
 20
124.555855
 30
0.0
 10
24.114369
 20
124.555855
 30
0.0
  0
LWPOLYLINE
  5
143
100
AcDbEntity
  8
Layer_1
 62
1
100
AcDbPolyline
 90
2
 70
0
 10
18.367175
 20
112.468904
 30
0.0
 10
21.417765
 20
109.370372
 30
0.0
  0
LWPOLYLINE
  5
144
100
AcDbEntity
  8
Layer_1
 62
1
100
AcDbPolyline
 90
2
 70
0
 10
17.472592
 20
110.010928
 30
0.0
 10
18.367175
 20
112.468640
 30
0.0
  0
LWPOLYLINE
  5
145
100
AcDbEntity
  8
Layer_1
 62
1
100
AcDbPolyline
 90
19
 70
1
 10
19.134096
 20
114.575781
 30
0.0
 10
19.121766
 20
113.987083
 30
0.0
 10
19.515836
 20
113.439660
 30
0.0
 10
20.333529
 20
112.946477
 30
0.0
 10
20.857430
 20
112.755713
 30
0.0
 10
21.800881
 20
112.608075
 30
0.0
 10
22.457392
 20
112.772911
 30
0.0
 10
22.823654
 20
113.233021
 30
0.0
 10
22.951448
 20
113.584123
 30
0.0
 10
22.968593
 20
114.177583
 30
0.0
 10
22.567670
 20
114.714687
 30
0.0
 10
21.751986
 20
115.213691
 30
0.0
 10
21.228111
 20
115.404191
 30
0.0
 10
20.282597
 20
115.546537
 30
0.0
 10
19.632940
 20
115.391491
 30
0.0
 10
19.261889
 20
114.927148
 30
0.0
 10
19.134096
 20
114.575781
 30
0.0
 10
19.134096
 20
114.575781
 30
0.0
 10
19.134096
 20
114.575781
 30
0.0
  0
LWPOLYLINE
  5
146
100
AcDbEntity
  8
Layer_1
 62
1
100
AcDbPolyline
 90
30
 70
1
 10
15.187494
 20
100.431962
 30
0.0
 10
15.277585
 20
99.849878
 30
0.0
 10
15.612600
 20
99.597995
 30
0.0
 10
15.980581
 20
99.533172
 30
0.0
 10
16.381530
 20
99.655145
 30
0.0
 10
16.627460
 20
99.991431
 30
0.0
 10
16.944140
 20
100.694428
 30
0.0
 10
17.228911
 20
101.216186
 30
0.0
 10
17.654890
 20
101.514635
 30
0.0
 10
18.061660
 20
101.635551
 30
0.0
 10
18.610724
 20
101.538713
 30
0.0
 10
18.945739
 20
101.286830
 30
0.0
 10
19.097795
 20
101.073311
 30
0.0
 10
19.183943
 20
100.486201
 30
0.0
 10
19.054192
 20
99.750131
 30
0.0
 10
18.773389
 20
99.233399
 30
0.0
 10
18.556431
 20
99.079147
 30
0.0
 10
18.156513
 20
98.962731
 30
0.0
 10
17.607477
 20
99.059568
 30
0.0
 10
17.265582
 20
99.306689
 30
0.0
 10
16.969355
 20
99.744310
 30
0.0
 10
16.879264
 20
100.326393
 30
0.0
 10
16.822114
 20
101.095272
 30
0.0
 10
16.705936
 20
101.495057
 30
0.0
 10
16.369890
 20
101.741120
 30
0.0
 10
16.001907
 20
101.805941
 30
0.0
 10
15.602016
 20
101.689789
 30
0.0
 10
15.317246
 20
101.167768
 30
0.0
 10
15.187494
 20
100.431962
 30
0.0
 10
15.187494
 20
100.431962
 30
0.0
  0
LWPOLYLINE
  5
147
100
AcDbEntity
  8
Layer_1
 62
1
100
AcDbPolyline
 90
18
 70
1
 10
15.869299
 20
104.298844
 30
0.0
 10
15.959389
 20
103.717025
 30
0.0
 10
16.442517
 20
103.246332
 30
0.0
 10
17.333448
 20
102.902374
 30
0.0
 10
17.882511
 20
102.805801
 30
0.0
 10
18.837286
 20
102.824057
 30
0.0
 10
19.455167
 20
103.100546
 30
0.0
 10
19.735969
 20
103.617013
 30
0.0
 10
19.800871
 20
103.985048
 30
0.0
 10
19.714723
 20
104.572423
 30
0.0
 10
19.226594
 20
105.032003
 30
0.0
 10
18.336695
 20
105.381517
 30
0.0
 10
17.787658
 20
105.478355
 30
0.0
 10
16.831824
 20
105.454012
 30
0.0
 10
16.218918
 20
105.188901
 30
0.0
 10
15.934175
 20
104.666879
 30
0.0
 10
15.869299
 20
104.298844
 30
0.0
 10
15.869299
 20
104.298844
 30
0.0
  0
LWPOLYLINE
  5
148
100
AcDbEntity
  8
Layer_1
 62
1
100
AcDbPolyline
 90
23
 70
0
 10
16.230190
 20
90.872043
 30
0.0
 10
16.793645
 20
90.688159
 30
0.0
 10
17.161363
 20
90.314568
 30
0.0
 10
17.351148
 20
89.757091
 30
0.0
 10
17.351175
 20
89.567121
 30
0.0
 10
17.161389
 20
89.009644
 30
0.0
 10
16.793672
 20
88.630231
 30
0.0
 10
16.230217
 20
88.446346
 30
0.0
 10
16.046279
 20
88.446346
 30
0.0
 10
15.482849
 20
88.630231
 30
0.0
 10
15.109178
 20
89.009644
 30
0.0
 10
14.919392
 20
89.567385
 30
0.0
 10
14.919392
 20
89.757091
 30
0.0
 10
15.109178
 20
90.314568
 30
0.0
 10
15.482849
 20
90.688159
 30
0.0
 10
16.230136
 20
90.872043
 30
0.0
 10
17.161389
 20
90.872043
 30
0.0
 10
18.098490
 20
90.688159
 30
0.0
 10
18.658984
 20
90.314568
 30
0.0
 10
18.845806
 20
89.757091
 30
0.0
 10
18.845779
 20
89.377415
 30
0.0
 10
18.658957
 20
88.819938
 30
0.0
 10
18.285313
 20
88.630231
 30
0.0
  0
LWPOLYLINE
  5
149
100
AcDbEntity
  8
Layer_1
 62
1
100
AcDbPolyline
 90
18
 70
1
 10
14.919392
 20
93.303563
 30
0.0
 10
15.109178
 20
92.746087
 30
0.0
 10
15.666708
 20
92.366410
 30
0.0
 10
16.603807
 20
92.182524
 30
0.0
 10
17.161389
 20
92.182524
 30
0.0
 10
18.098490
 20
92.366410
 30
0.0
 10
18.658984
 20
92.746087
 30
0.0
 10
18.845806
 20
93.303563
 30
0.0
 10
18.845779
 20
93.677155
 30
0.0
 10
18.658957
 20
94.240716
 30
0.0
 10
18.098464
 20
94.608486
 30
0.0
 10
17.161363
 20
94.798192
 30
0.0
 10
16.603780
 20
94.798192
 30
0.0
 10
15.666681
 20
94.608222
 30
0.0
 10
15.109178
 20
94.240716
 30
0.0
 10
14.919366
 20
93.677155
 30
0.0
 10
14.919392
 20
93.303563
 30
0.0
 10
14.919392
 20
93.303563
 30
0.0
  0
LWPOLYLINE
  5
14a
100
AcDbEntity
  8
Layer_1
 62
7
100
AcDbPolyline
 90
18
 70
1
 10
0.000000
 20
197.000828
 30
0.0
 10
0.000000
 20
191.000876
 30
0.0
 10
2.999817
 20
191.000876
 30
0.0
 10
2.999817
 20
183.000942
 30
0.0
 10
0.000000
 20
183.000942
 30
0.0
 10
0.000000
 20
177.000725
 30
0.0
 10
101.999963
 20
177.000725
 30
0.0
 10
101.999963
 20
183.000942
 30
0.0
 10
98.999327
 20
183.000942
 30
0.0
 10
98.999327
 20
191.000876
 30
0.0
 10
101.999963
 20
191.000876
 30
0.0
 10
101.999963
 20
197.000828
 30
0.0
 10
98.999327
 20
197.000828
 30
0.0
 10
2.999817
 20
197.000828
 30
0.0
 10
0.000000
 20
197.000828
 30
0.0
 10
0.000000
 20
197.000828
 30
0.0
 10
0.000000
 20
197.000828
 30
0.0
 10
0.000000
 20
197.000828
 30
0.0
  0
LWPOLYLINE
  5
14b
100
AcDbEntity
  8
Layer_1
 62
7
100
AcDbPolyline
 90
19
 70
1
 10
57.199530
 20
188.000768
 30
0.0
 10
57.582382
 20
187.924833
 30
0.0
 10
57.906761
 20
187.708933
 30
0.0
 10
58.123454
 20
187.383760
 30
0.0
 10
58.199390
 20
187.000909
 30
0.0
 10
58.123454
 20
186.618851
 30
0.0
 10
57.906761
 20
186.293943
 30
0.0
 10
57.582382
 20
186.076720
 30
0.0
 10
57.199530
 20
186.000785
 30
0.0
 10
56.816940
 20
186.076720
 30
0.0
 10
56.492563
 20
186.293943
 30
0.0
 10
56.275870
 20
186.618851
 30
0.0
 10
56.199405
 20
187.000909
 30
0.0
 10
56.275870
 20
187.383760
 30
0.0
 10
56.492563
 20
187.708933
 30
0.0
 10
56.816940
 20
187.924833
 30
0.0
 10
57.199530
 20
188.000768
 30
0.0
 10
57.199530
 20
188.000768
 30
0.0
 10
57.199530
 20
188.000768
 30
0.0
  0
LWPOLYLINE
  5
14c
100
AcDbEntity
  8
Layer_1
 62
7
100
AcDbPolyline
 90
31
 70
1
 10
5.045388
 20
176.055901
 30
0.0
 10
5.045388
 20
172.955779
 30
0.0
 10
2.045568
 20
172.955779
 30
0.0
 10
2.045568
 20
167.955953
 30
0.0
 10
2.146787
 20
166.945774
 30
0.0
 10
2.437238
 20
166.005974
 30
0.0
 10
2.897132
 20
165.156928
 30
0.0
 10
3.506679
 20
164.416889
 30
0.0
 10
4.246030
 20
163.806760
 30
0.0
 10
5.095475
 20
163.346914
 30
0.0
 10
6.035140
 20
163.056931
 30
0.0
 10
7.045266
 20
162.955860
 30
0.0
 10
83.045231
 20
162.955860
 30
0.0
 10
84.055143
 20
163.056931
 30
0.0
 10
84.994943
 20
163.346914
 30
0.0
 10
85.844520
 20
163.806760
 30
0.0
 10
86.584030
 20
164.416889
 30
0.0
 10
87.193629
 20
165.156928
 30
0.0
 10
87.653473
 20
166.005974
 30
0.0
 10
87.943986
 20
166.945774
 30
0.0
 10
88.045321
 20
167.955953
 30
0.0
 10
88.045321
 20
172.955779
 30
0.0
 10
85.044949
 20
172.955779
 30
0.0
 10
85.044949
 20
176.055901
 30
0.0
 10
73.045311
 20
176.055901
 30
0.0
 10
73.045311
 20
172.955779
 30
0.0
 10
17.045184
 20
172.955779
 30
0.0
 10
17.045184
 20
176.055901
 30
0.0
 10
5.045388
 20
176.055901
 30
0.0
 10
5.045388
 20
176.055901
 30
0.0
 10
5.045388
 20
176.055901
 30
0.0
  0
LWPOLYLINE
  5
14d
100
AcDbEntity
  8
Layer_1
 62
1
100
AcDbPolyline
 90
2
 70
0
 10
103.703880
 20
121.383769
 30
0.0
 10
105.941723
 20
120.536838
 30
0.0
  0
LWPOLYLINE
  5
14e
100
AcDbEntity
  8
Layer_1
 62
1
100
AcDbPolyline
 90
2
 70
0
 10
120.974013
 20
143.446826
 30
0.0
 10
119.267717
 20
145.124281
 30
0.0
  0
LWPOLYLINE
  5
14f
100
AcDbEntity
  8
Layer_1
 62
1
100
AcDbPolyline
 90
2
 70
0
 10
139.006939
 20
155.642783
 30
0.0
 10
138.033802
 20
157.828770
 30
0.0
  0
LWPOLYLINE
  5
150
100
AcDbEntity
  8
Layer_1
 62
1
100
AcDbPolyline
 90
2
 70
0
 10
165.557854
 20
161.063827
 30
0.0
 10
165.565792
 20
163.456452
 30
0.0
  0
LWPOLYLINE
  5
151
100
AcDbEntity
  8
Layer_1
 62
1
100
AcDbPolyline
 90
2
 70
0
 10
76.675126
 20
155.190876
 30
0.0
 10
76.683065
 20
157.583501
 30
0.0
  0
LWPOLYLINE
  5
152
100
AcDbEntity
  8
Layer_1
 62
1
100
AcDbPolyline
 90
2
 70
0
 10
65.891249
 20
154.081744
 30
0.0
 10
65.444633
 20
156.432564
 30
0.0
  0
LWPOLYLINE
  5
153
100
AcDbEntity
  8
Layer_1
 62
1
100
AcDbPolyline
 90
2
 70
0
 10
55.361370
 20
151.073963
 30
0.0
 10
54.459407
 20
153.290111
 30
0.0
  0
LWPOLYLINE
  5
154
100
AcDbEntity
  8
Layer_1
 62
1
100
AcDbPolyline
 90
2
 70
0
 10
45.477074
 20
146.316758
 30
0.0
 10
44.210516
 20
148.346904
 30
0.0
  0
LWPOLYLINE
  5
155
100
AcDbEntity
  8
Layer_1
 62
1
100
AcDbPolyline
 90
2
 70
0
 10
36.681803
 20
139.973908
 30
0.0
 10
35.144310
 20
141.807203
 30
0.0
  0
LWPOLYLINE
  5
156
100
AcDbEntity
  8
Layer_1
 62
1
100
AcDbPolyline
 90
2
 70
0
 10
29.057840
 20
132.141983
 30
0.0
 10
27.187766
 20
133.634496
 30
0.0
  0
LWPOLYLINE
  5
157
100
AcDbEntity
  8
Layer_1
 62
1
100
AcDbPolyline
 90
2
 70
0
 10
22.873184
 20
122.964916
 30
0.0
 10
20.807080
 20
124.171945
 30
0.0
  0
LWPOLYLINE
  5
158
100
AcDbEntity
  8
Layer_1
 62
1
100
AcDbPolyline
 90
2
 70
0
 10
18.377996
 20
113.061836
 30
0.0
 10
16.143326
 20
113.916969
 30
0.0
  0
LWPOLYLINE
  5
159
100
AcDbEntity
  8
Layer_1
 62
1
100
AcDbPolyline
 90
2
 70
0
 10
15.757380
 20
102.442792
 30
0.0
 10
13.398541
 20
102.843901
 30
0.0
  0
LWPOLYLINE
  5
15a
100
AcDbEntity
  8
Layer_1
 62
1
100
AcDbPolyline
 90
2
 70
0
 10
15.004297
 20
91.565516
 30
0.0
 10
12.611618
 20
91.553345
 30
0.0
  0
ENDSEC
  0
SECTION
  2
OBJECTS
  0
DICTIONARY
  5
C
330
0
100
AcDbDictionary
  3
ACAD_GROUP
350
D
  3
ACAD_MLINESTYLE
350
17
  0
DICTIONARY
  5
D
330
C
100
AcDbDictionary
  0
DICTIONARY
  5
1A
330
C
100
AcDbDictionary
  0
DICTIONARY
  5
17
330
C
100
AcDbDictionary
  3
STANDARD
350
18
  0
DICTIONARY
  5
19
330
C
100
AcDbDictionary
  0
ENDSEC
  0
EOF
