<?xml version="1.0" encoding="UTF-8" standalone="no"?>
<!-- Created with Inkscape (http://www.inkscape.org/) -->

<svg
   sodipodi:docname="bot_side.svg"
   inkscape:version="1.1.2 (0a00cf5339, 2022-02-04)"
   id="svg5"
   version="1.1"
   viewBox="0 0 210 80"
   height="80mm"
   width="210mm"
   xmlns:inkscape="http://www.inkscape.org/namespaces/inkscape"
   xmlns:sodipodi="http://sodipodi.sourceforge.net/DTD/sodipodi-0.dtd"
   xmlns="http://www.w3.org/2000/svg"
   xmlns:svg="http://www.w3.org/2000/svg">
  <sodipodi:namedview
     id="namedview7"
     pagecolor="#ffffff"
     bordercolor="#666666"
     borderopacity="1.0"
     inkscape:pageshadow="2"
     inkscape:pageopacity="0.0"
     inkscape:pagecheckerboard="0"
     inkscape:document-units="mm"
     showgrid="true"
     inkscape:zoom="1.5028112"
     inkscape:cx="-118.44468"
     inkscape:cy="167.02031"
     inkscape:window-width="2560"
     inkscape:window-height="1382"
     inkscape:window-x="0"
     inkscape:window-y="0"
     inkscape:window-maximized="1"
     inkscape:current-layer="layer1"
     inkscape:snap-bbox="true"
     inkscape:snap-object-midpoints="true"
     inkscape:snap-bbox-midpoints="true"
     showguides="true"
     inkscape:guide-bbox="true"
     inkscape:snap-global="true"
     inkscape:snap-smooth-nodes="true"
     inkscape:snap-midpoints="true"
     inkscape:snap-intersection-paths="true"
     inkscape:object-paths="true">
    <sodipodi:guide
       position="92,217"
       orientation="0,1"
       id="guide2610"
       inkscape:label=""
       inkscape:locked="false"
       inkscape:color="rgb(0,0,255)" />
    <inkscape:grid
       type="xygrid"
       id="grid1645"
       units="mm"
       spacingx="1"
       spacingy="1" />
  </sodipodi:namedview>
  <defs
     id="defs2" />
  <g
     inkscape:label="Layer 1"
     inkscape:groupmode="layer"
     id="layer1">
    <circle
       style="fill:none;stroke:#ff0000;stroke-width:0.2"
       id="circle2192"
       cx="8"
       cy="35"
       r="65.469582" />
    <rect
       style="fill:none;stroke:#ff0000;stroke-width:0.200172"
       id="rect2874"
       width="3.00721"
       height="5.6321173"
       x="4.3973503"
       y="-33.654335"
       inkscape:transform-center-y="-121.998"
       transform="matrix(0.99665293,-0.08174925,0.02323428,0.99973005,0,0)"
       inkscape:transform-center-x="2.8353005" />
    <rect
       style="fill:none;stroke:#ff0000;stroke-width:0.2"
       id="rect2960"
       width="3"
       height="3"
       x="8.0190973"
       y="-31.882269"
       inkscape:transform-center-y="-64.939056"
       transform="rotate(2.5)"
       inkscape:transform-center-x="-2.8352967" />
    <rect
       style="fill:none;stroke:#ff0000;stroke-width:0.2"
       id="rect2962"
       width="3"
       height="3"
       x="11.000098"
       y="-32.843647"
       inkscape:transform-center-y="-64.444831"
       transform="rotate(7.5)"
       inkscape:transform-center-x="-8.484326" />
    <rect
       style="fill:none;stroke:#ff0000;stroke-width:0.2"
       id="rect2964"
       width="3"
       height="3"
       x="13.88595"
       y="-34.06118"
       inkscape:transform-center-y="-63.460143"
       transform="rotate(12.5)"
       inkscape:transform-center-x="-14.068773" />
    <rect
       style="fill:none;stroke:#ff0000;stroke-width:0.2"
       id="rect2966"
       width="3"
       height="3"
       x="16.654713"
       y="-35.525597"
       inkscape:transform-center-y="-61.992483"
       transform="rotate(17.5)"
       inkscape:transform-center-x="-19.54615" />
    <rect
       style="fill:none;stroke:#ff0000;stroke-width:0.2"
       id="rect2968"
       width="3"
       height="3"
       x="19.285309"
       y="-37.225754"
       inkscape:transform-center-y="-60.053021"
       transform="rotate(22.5)"
       inkscape:transform-center-x="-24.874777" />
    <rect
       style="fill:none;stroke:#ff0000;stroke-width:0.2"
       id="rect2970"
       width="3"
       height="3"
       x="21.757717"
       y="-39.148712"
       inkscape:transform-center-y="-57.656519"
       transform="rotate(27.5)"
       inkscape:transform-center-x="-30.014088" />
    <rect
       style="fill:none;stroke:#ff0000;stroke-width:0.2"
       id="rect2972"
       width="3"
       height="3"
       x="24.053112"
       y="-41.279835"
       inkscape:transform-center-y="-54.82122"
       transform="rotate(32.5)"
       inkscape:transform-center-x="-34.924969" />
    <rect
       style="fill:none;stroke:#ff0000;stroke-width:0.2"
       id="rect2974"
       width="3"
       height="3"
       x="26.154041"
       y="-43.602913"
       inkscape:transform-center-y="-51.568699"
       transform="rotate(37.5)"
       inkscape:transform-center-x="-39.570057" />
    <g
       id="g1478"
       style="stroke:#ff0000"
       transform="translate(-243,-7)">
      <rect
         style="fill:none;stroke:#ff0000;stroke-width:0.2"
         id="rect1348"
         width="6"
         height="3"
         x="195"
         y="70" />
      <rect
         style="fill:none;stroke:#ff0000;stroke-width:0.2"
         id="rect1474"
         width="6"
         height="3"
         x="219"
         y="70" />
    </g>
    <rect
       style="fill:none;stroke:#ff0000;stroke-width:0.2"
       id="rect1629"
       width="3"
       height="3"
       x="28.044504"
       y="-46.10025"
       inkscape:transform-center-y="-47.923704"
       transform="rotate(42.5)"
       inkscape:transform-center-x="-43.913989" />
    <rect
       style="fill:none;stroke:#ff0000;stroke-width:0.2"
       id="rect1631"
       width="3"
       height="3"
       x="29.710114"
       y="-48.752857"
       inkscape:transform-center-y="-43.913986"
       transform="rotate(47.5)"
       inkscape:transform-center-x="-47.923709" />
    <rect
       style="fill:none;stroke:#ff0000;stroke-width:0.2"
       id="rect1633"
       width="3"
       height="3"
       x="31.138193"
       y="-51.540535"
       inkscape:transform-center-y="-39.570054"
       transform="rotate(52.5)"
       inkscape:transform-center-x="-51.568699" />
    <rect
       style="fill:none;stroke:#ff0000;stroke-width:0.2"
       id="rect1635"
       width="3"
       height="3"
       x="32.317879"
       y="-54.44207"
       inkscape:transform-center-y="-34.924969"
       transform="rotate(57.5)"
       inkscape:transform-center-x="-54.821223" />
    <rect
       style="fill:none;stroke:#ff0000;stroke-width:0.2"
       id="rect1637"
       width="3"
       height="3"
       x="33.240189"
       y="-57.435379"
       inkscape:transform-center-y="-30.014086"
       transform="rotate(62.5)"
       inkscape:transform-center-x="-57.656524" />
    <path
       id="circle1643"
       style="fill:none;stroke:#ff0000;stroke-width:0.2"
       d="m 42.677012,44.005356 a 1,1 0 0 1 -1.414214,0 1,1 0 0 1 0,-1.414213 1,1 0 0 1 1.414214,0 1,1 0 0 1 0,1.414213 z m 24.748737,24.748738 a 1,1 0 0 1 -1.414214,0 1,1 0 0 1 0,-1.414214 1,1 0 0 1 1.414214,0 1,1 0 0 1 0,1.414214 z m -4.17193,-15.485639 a 4.5999999,4.5999999 0 0 1 -6.505382,0 4.5999999,4.5999999 0 0 1 0,-6.505382 4.5999999,4.5999999 0 0 1 6.505382,0 4.5999999,4.5999999 0 0 1 0,6.505382 z"
       inkscape:transform-center-x="5.6372615"
       inkscape:transform-center-y="5.6633751" />
    <path
       style="fill:none;stroke:#000000;stroke-width:0.264583px;stroke-linecap:butt;stroke-linejoin:miter;stroke-opacity:1"
       d="m 78,39 c 0,0 5.332716,17.805734 5.332715,22.805733 C 83.332714,66.805734 76.16995,72.000001 67,72 57.830049,71.999999 -42.76368,72.715826 -49.520187,67.854588 -56.276695,62.99335 -50,49 -38,49 -26,49 2.5020178,61.012853 5,55 7.7235759,48.444124 -5,45 -5,35 -5,25 12.552288,23.462178 3.1567821,-10.253105 1.9519339,-14.57664 -3.8138499,-34.636832 4,-34 l 3.4054154,4.999583 1.1540023,4.391055 L 68,37 Z"
       id="path1680"
       sodipodi:nodetypes="cszzzsssccccc" />
    <path
       id="rect4148"
       style="fill:none;stroke:#ffaaaa;stroke-width:0.2"
       d="M 3.0931375,-31.695335 H 83.660856 V 43.953987 L 22.816924,42.974519 Z"
       sodipodi:nodetypes="ccccc" />
    <rect
       style="fill:none;stroke:#ff0000;stroke-width:0.2"
       id="rect848"
       width="3"
       height="3"
       x="33.898106"
       y="-60.497684"
       inkscape:transform-center-y="-24.874775"
       transform="rotate(67.5)"
       inkscape:transform-center-x="-60.053022" />
    <rect
       style="fill:none;stroke:#ff0000;stroke-width:0.2"
       id="rect962"
       width="3"
       height="3"
       x="34.286625"
       y="-63.605679"
       inkscape:transform-center-y="-19.546152"
       transform="rotate(72.5)"
       inkscape:transform-center-x="-61.992481" />
    <rect
       style="fill:none;stroke:#ff0000;stroke-width:0.2"
       id="rect964"
       width="3"
       height="3"
       x="34.402786"
       y="-66.735703"
       inkscape:transform-center-y="-14.068771"
       transform="rotate(77.5)"
       inkscape:transform-center-x="-63.460137" />
    <rect
       style="fill:none;stroke:#ff0000;stroke-width:0.2"
       id="rect966"
       width="3"
       height="3"
       x="34.245701"
       y="-69.863937"
       inkscape:transform-center-y="-8.4843197"
       transform="rotate(82.5)"
       inkscape:transform-center-x="-64.44483" />
    <rect
       style="fill:none;stroke:#ff0000;stroke-width:0.2"
       id="rect968"
       width="3"
       height="3"
       x="33.81657"
       y="-72.966591"
       inkscape:transform-center-y="-2.835296"
       transform="rotate(87.5)"
       inkscape:transform-center-x="-64.939056" />
    <rect
       style="fill:none;stroke:#ff0000;stroke-width:0.20029"
       id="rect970"
       width="3.0109758"
       height="6.6037416"
       x="34.946102"
       y="-81.627525"
       inkscape:transform-center-y="2.8353051"
       transform="matrix(-0.09573939,0.99540643,-0.99980365,-0.01981576,0,0)"
       inkscape:transform-center-x="-143.05501" />
    <rect
       style="fill:none;stroke:#ff0000;stroke-width:0.2"
       id="rect2314"
       width="6"
       height="3"
       x="15"
       y="42" />
    <rect
       style="fill:none;stroke:#ff0000;stroke-width:0.2"
       id="rect2316"
       width="6"
       height="3"
       x="29"
       y="42" />
    <rect
       style="fill:none;stroke:#ff0000;stroke-width:0.2"
       id="rect2320"
       width="6"
       height="3"
       x="10"
       y="63" />
    <rect
       style="fill:none;stroke:#ff0000;stroke-width:0.2"
       id="rect2322"
       width="6"
       height="3"
       x="29"
       y="63" />
    <circle
       style="fill:none;stroke:#ff0000;stroke-width:0.2"
       id="path1243"
       cx="31.988026"
       cy="10.437801"
       r="21.910406" />
    <rect
       style="fill:none;stroke:#ff0000;stroke-width:0.2"
       id="rect862"
       width="6"
       height="3"
       x="74"
       y="63" />
    <circle
       style="fill:none;stroke:#ff0000;stroke-width:0.2"
       id="circle1083"
       cx="22.5"
       cy="58.5"
       r="7.5" />
    <circle
       style="fill:none;stroke:#ff0000;stroke-width:0.2"
       id="circle1722"
       cx="7"
       cy="35"
       r="7.5" />
  </g>
</svg>
