<?xml version="1.0" encoding="UTF-8" standalone="no"?>
<!-- Created with Inkscape (http://www.inkscape.org/) -->

<svg
   width="103.2mm"
   height="130.23228mm"
   viewBox="0 0 103.20001 130.23231"
   version="1.1"
   id="svg5"
   inkscape:version="1.1.2 (0a00cf5339, 2022-02-04)"
   sodipodi:docname="bot_phoneholder.svg"
   xmlns:inkscape="http://www.inkscape.org/namespaces/inkscape"
   xmlns:sodipodi="http://sodipodi.sourceforge.net/DTD/sodipodi-0.dtd"
   xmlns="http://www.w3.org/2000/svg"
   xmlns:svg="http://www.w3.org/2000/svg">
  <sodipodi:namedview
     id="namedview7"
     pagecolor="#ffffff"
     bordercolor="#666666"
     borderopacity="1.0"
     inkscape:pageshadow="2"
     inkscape:pageopacity="0.0"
     inkscape:pagecheckerboard="0"
     inkscape:document-units="mm"
     showgrid="true"
     inkscape:zoom="2.0976593"
     inkscape:cx="179.24741"
     inkscape:cy="247.41863"
     inkscape:window-width="2560"
     inkscape:window-height="1382"
     inkscape:window-x="0"
     inkscape:window-y="0"
     inkscape:window-maximized="1"
     inkscape:current-layer="layer1"
     inkscape:snap-bbox="true"
     inkscape:snap-object-midpoints="false"
     inkscape:snap-bbox-midpoints="true"
     showguides="true"
     inkscape:guide-bbox="true"
     inkscape:snap-global="false"
     fit-margin-top="0"
     fit-margin-left="0"
     fit-margin-right="0"
     fit-margin-bottom="0"
     inkscape:snap-others="false">
    <inkscape:grid
       type="xygrid"
       id="grid882"
       units="mm"
       spacingx="1"
       spacingy="1"
       originx="0.50000042"
       originy="20.1323" />
  </sodipodi:namedview>
  <defs
     id="defs2" />
  <g
     inkscape:label="Layer 1"
     inkscape:groupmode="layer"
     id="layer1"
     transform="translate(3.6000005,30.23229)">
    <rect
       style="fill:none;stroke:#000000;stroke-width:0.200001"
       id="rect846"
       width="96"
       height="120.99999"
       x="0"
       y="-21.1"
       rx="2.0000012"
       ry="2.0000012" />
    <rect
       style="fill:none;stroke:#000000;stroke-width:0.2"
       id="rect1143"
       width="102.00001"
       height="8"
       x="-3"
       y="61.5" />
    <rect
       style="fill:none;stroke:#000000;stroke-width:0.200001"
       id="rect1305"
       width="4.5"
       height="10"
       x="-1.5"
       y="-10" />
    <path
       id="rect1489"
       style="fill:none;stroke:#ff0000;stroke-width:0.200002"
       d="m 3,-10 2.3999995,-0.1 -1.4,30.1 H 3 Z"
       sodipodi:nodetypes="ccccc" />
    <rect
       style="fill:none;stroke:#ff0000;stroke-width:0.200001"
       id="rect1591"
       width="5.388"
       height="0.50000012"
       x="0"
       y="-10.5" />
    <rect
       style="fill:none;stroke:#ff0000;stroke-width:0.2"
       id="rect849"
       width="12"
       height="3"
       x="8"
       y="94" />
    <rect
       style="fill:none;stroke:#ff0000;stroke-width:0.2"
       id="rect953"
       width="12"
       height="3"
       x="76"
       y="94" />
    <rect
       style="fill:none;stroke:#000000;stroke-width:0.200001"
       id="rect955"
       width="4.5"
       height="10"
       x="-97.5"
       y="-10"
       transform="scale(-1,1)" />
    <path
       id="rect957"
       style="fill:none;stroke:#ff0000;stroke-width:0.200002"
       d="M 93,-10 90.4,-10.1 92,20 h 1 z"
       sodipodi:nodetypes="ccccc" />
    <rect
       style="fill:none;stroke:#ff0000;stroke-width:0.200001"
       id="rect959"
       width="5.592"
       height="0.50000012"
       x="-95.991997"
       y="-10.5"
       transform="scale(-1,1)" />
    <path
       style="fill:none;stroke:#ff0000;stroke-width:0.264583px;stroke-linecap:butt;stroke-linejoin:miter;stroke-opacity:1"
       d="M 0.01523879,74.899999 1.9,76.919254 h 5 1.9999999 l 0.9999999,1 v 2.000002 L 8.8999999,80.919254 H 4.8999998 L 3.8999999,79.919256 H 2.8999998 L 1.9,80.919254 v 6.000001 l 0.9999998,1 h 1.0000001 l 0.9999999,-1 h 4.0000001 l 0.9999999,1 v 1.999999 L 8.8999999,90.919255 H 1.9 l -1.99999995,1.999998 H -1.1 V 74.919255 Z"
       id="path884" />
    <path
       style="fill:none;stroke:#ff0000;stroke-width:0.264583px;stroke-linecap:butt;stroke-linejoin:miter;stroke-opacity:1"
       d="M 95.784761,74.899999 93.9,76.919254 h -5 -2 l -1,1 v 2.000002 l 1,0.999998 h 4 l 1,-0.999998 h 1 l 1,0.999998 v 6.000001 l -1,1 h -1 l -1,-1 h -4 l -1,1 v 1.999999 l 1,1.000001 h 7 l 2,1.999998 h 1 V 74.919255 Z"
       id="path984" />
    <path
       style="fill:none;stroke:#ff0000;stroke-width:0.264583px;stroke-linecap:butt;stroke-linejoin:miter;stroke-opacity:1"
       d="M 0.01523879,-26.100001 1.9,-24.080746 h 5 1.9999999 l 0.9999999,1 v 2.000002 l -0.9999999,0.999998 H 4.8999998 L 3.8999999,-21.080744 H 2.8999998 L 1.9,-20.080746 v 6.000001 l 0.9999998,1 h 1.0000001 l 0.9999999,-1 h 4.0000001 l 0.9999999,1 v 1.999999 l -0.9999999,1.000001 H 1.9 l -1.99999995,-0.01925 H -1.1 v -15.980746 z"
       id="path836"
       sodipodi:nodetypes="cccccccccccccccccccccccc" />
    <path
       style="fill:none;stroke:#ff0000;stroke-width:0.264583px;stroke-linecap:butt;stroke-linejoin:miter;stroke-opacity:1"
       d="M 95.784761,-26.100001 93.9,-24.080746 h -5 -2 l -1,1 v 2.000002 l 1,0.999998 h 4 l 1,-0.999998 h 1 l 1,0.999998 v 6.000001 l -1,1 h -1 l -1,-1 h -4 l -1,1 v 1.999999 l 1,1.000001 h 7 l 2,-0.01925 h 1 v -15.980746 z"
       id="path838"
       sodipodi:nodetypes="cccccccccccccccccccccccc" />
    <path
       style="fill:none;stroke:#ff0000;stroke-width:0.264583px;stroke-linecap:butt;stroke-linejoin:miter;stroke-opacity:1"
       d="m 11.899999,-30.099999 h 71.999998 v 9 c -11.612902,0 -25.548386,21 -35.999998,21 -10.451613,0 -24.387097,-21 -36,-21 z"
       id="path890"
       sodipodi:nodetypes="ccczcc" />
    <rect
       style="fill:none;stroke:#000000;stroke-width:0.200001"
       id="rect1466"
       height="8"
       x="-3.5"
       y="-10"
       width="4.5"
       rx="2"
       ry="2" />
    <rect
       style="fill:none;stroke:#000000;stroke-width:0.200001"
       id="rect1570"
       height="8"
       x="95"
       y="-10"
       width="4.5"
       rx="2"
       ry="2" />
  </g>
</svg>
