  0
SECTION
  2
HEADER
  9
$ACADVER
  1
AC1014
  9
$HANDSEED
  5
FFFF
  9
$MEASUREMENT
 70
     1
  0
ENDSEC
  0
SECTION
  2
TABLES
  0
TABLE
  2
VPORT
  5
8
330
0
100
AcDbSymbolTable
 70
     4
  0
VPORT
  5
2E
330
8
100
AcDbSymbolTableRecord
100
AcDbViewportTableRecord
  2
*ACTIVE
 70
     0
 10
0.0
 20
0.0
 11
1.0
 21
1.0
 12
210.0
 22
148.5
 13
0.0
 23
0.0
 14
10.0
 24
10.0
 15
10.0
 25
10.0
 16
0.0
 26
0.0
 36
1.0
 17
0.0
 27
0.0
 37
0.0
 40
341.0
 41
1.24
 42
50.0
 43
0.0
 44
0.0
 50
0.0
 51
0.0
 71
     0
 72
   100
 73
     1
 74
     3
 75
     0
 76
     0
 77
     0
 78
     0
  0
ENDTAB
  0
TABLE
  2
LTYPE
  5
5
330
0
100
AcDbSymbolTable
 70
     1
  0
LTYPE
  5
14
330
5
100
AcDbSymbolTableRecord
100
AcDbLinetypeTableRecord
  2
BYBLOCK
 70
     0
  3

 72
    65
 73
     0
 40
0.0
  0
LTYPE
  5
15
330
5
100
AcDbSymbolTableRecord
100
AcDbLinetypeTableRecord
  2
BYLAYER
 70
     0
  3

 72
    65
 73
     0
 40
0.0
  0
LTYPE
  5
16
330
5
100
AcDbSymbolTableRecord
100
AcDbLinetypeTableRecord
  2
CONTINUOUS
 70
     0
  3
Solid line
 72
    65
 73
     0
 40
0.0
  0
ENDTAB
  0
TABLE
  2
LAYER
  5
2
100
AcDbSymbolTable
 70
2
  0
LAYER
  5
50
100
AcDbSymbolTableRecord
100
AcDbLayerTableRecord
  2
0
 70
0
  6
CONTINUOUS
  0
LAYER
  5
51
100
AcDbSymbolTableRecord
100
AcDbLayerTableRecord
  2
Layer_1
 70
0
  6
CONTINUOUS
  0
ENDTAB
  0
TABLE
  2
STYLE
  5
3
330
0
100
AcDbSymbolTable
 70
     1
  0
STYLE
  5
11
330
3
100
AcDbSymbolTableRecord
100
AcDbTextStyleTableRecord
  2
STANDARD
 70
     0
 40
0.0
 41
1.0
 50
0.0
 71
     0
 42
2.5
  3
txt
  4

  0
ENDTAB
  0
TABLE
  2
VIEW
  5
6
330
0
100
AcDbSymbolTable
 70
     0
  0
ENDTAB
  0
TABLE
  2
UCS
  5
7
330
0
100
AcDbSymbolTable
 70
     0
  0
ENDTAB
  0
TABLE
  2
APPID
  5
9
330
0
100
AcDbSymbolTable
 70
     2
  0
APPID
  5
12
330
9
100
AcDbSymbolTableRecord
100
AcDbRegAppTableRecord
  2
ACAD
 70
     0
  0
ENDTAB
  0
TABLE
  2
DIMSTYLE
  5
A
330
0
100
AcDbSymbolTable
 70
     1
  0
DIMSTYLE
105
27
330
A
100
AcDbSymbolTableRecord
100
AcDbDimStyleTableRecord
  2
ISO-25
 70
     0
  3

  4

  5

  6

  7

 40
1.0
 41
2.5
 42
0.625
 43
3.75
 44
1.25
 45
0.0
 46
0.0
 47
0.0
 48
0.0
140
2.5
141
2.5
142
0.0
143
0.03937007874016
144
1.0
145
0.0
146
1.0
147
0.625
 71
     0
 72
     0
 73
     0
 74
     0
 75
     0
 76
     0
 77
     1
 78
     8
170
     0
171
     3
172
     1
173
     0
174
     0
175
     0
176
     0
177
     0
178
     0
270
     2
271
     2
272
     2
273
     2
274
     3
340
11
275
     0
280
     0
281
     0
282
     0
283
     0
284
     8
285
     0
286
     0
287
     3
288
     0
  0
ENDTAB
  0
TABLE
  2
BLOCK_RECORD
  5
1
330
0
100
AcDbSymbolTable
 70
     1
  0
BLOCK_RECORD
  5
1F
330
1
100
AcDbSymbolTableRecord
100
AcDbBlockTableRecord
  2
*MODEL_SPACE
  0
BLOCK_RECORD
  5
1B
330
1
100
AcDbSymbolTableRecord
100
AcDbBlockTableRecord
  2
*PAPER_SPACE
  0
ENDTAB
  0
ENDSEC
  0
SECTION
  2
BLOCKS
  0
BLOCK
  5
20
330
1F
100
AcDbEntity
  8
0
100
AcDbBlockBegin
  2
*MODEL_SPACE
 70
     0
 10
0.0
 20
0.0
 30
0.0
  3
*MODEL_SPACE
  1

  0
ENDBLK
  5
21
330
1F
100
AcDbEntity
  8
0
100
AcDbBlockEnd
  0
BLOCK
  5
1C
330
1B
100
AcDbEntity
 67
     1
  8
0
100
AcDbBlockBegin
  2
*PAPER_SPACE
  1

  0
ENDBLK
  5
1D
330
1B
100
AcDbEntity
 67
     1
  8
0
100
AcDbBlockEnd
  0
ENDSEC
  0
SECTION
  2
ENTITIES
  0
LWPOLYLINE
  5
100
100
AcDbEntity
  8
Layer_1
 62
7
100
AcDbPolyline
 90
46
 70
1
 10
0.000000
 20
296.999834
 30
0.0
 10
0.000000
 20
291.000145
 30
0.0
 10
2.999816
 20
291.000145
 30
0.0
 10
2.999816
 20
277.999850
 30
0.0
 10
0.000000
 20
277.999850
 30
0.0
 10
0.000000
 20
272.000162
 30
0.0
 10
2.999816
 20
272.000162
 30
0.0
 10
23.999545
 20
272.000162
 30
0.0
 10
23.999545
 20
234.154977
 30
0.0
 10
2.999816
 20
234.154977
 30
0.0
 10
2.999816
 20
233.001395
 30
0.0
 10
0.000000
 20
233.001395
 30
0.0
 10
0.000000
 20
227.000647
 30
0.0
 10
101.999753
 20
227.000647
 30
0.0
 10
101.999753
 20
233.001395
 30
0.0
 10
98.999644
 20
233.001395
 30
0.0
 10
98.999644
 20
234.154977
 30
0.0
 10
77.999677
 20
234.154977
 30
0.0
 10
77.999677
 20
272.000162
 30
0.0
 10
98.999644
 20
272.000162
 30
0.0
 10
101.999753
 20
272.000162
 30
0.0
 10
101.999753
 20
277.999850
 30
0.0
 10
98.999644
 20
277.999850
 30
0.0
 10
98.999644
 20
291.000145
 30
0.0
 10
101.999753
 20
291.000145
 30
0.0
 10
101.999753
 20
296.999834
 30
0.0
 10
98.999644
 20
296.999834
 30
0.0
 10
76.321955
 20
296.999834
 30
0.0
 10
76.311636
 20
296.898498
 30
0.0
 10
76.253164
 20
296.710380
 30
0.0
 10
76.039116
 20
296.392615
 30
0.0
 10
75.721881
 20
296.178567
 30
0.0
 10
75.533762
 20
296.120623
 30
0.0
 10
75.331885
 20
296.099986
 30
0.0
 10
72.332041
 20
296.099986
 30
0.0
 10
72.129899
 20
296.120623
 30
0.0
 10
71.941781
 20
296.178567
 30
0.0
 10
71.624545
 20
296.392615
 30
0.0
 10
71.410498
 20
296.710380
 30
0.0
 10
71.352025
 20
296.898498
 30
0.0
 10
71.341706
 20
296.999834
 30
0.0
 10
23.999545
 20
296.999834
 30
0.0
 10
2.999816
 20
296.999834
 30
0.0
 10
0.000000
 20
296.999834
 30
0.0
 10
0.000000
 20
296.999834
 30
0.0
 10
0.000000
 20
296.999834
 30
0.0
  0
LWPOLYLINE
  5
101
100
AcDbEntity
  8
Layer_1
 62
7
100
AcDbPolyline
 90
36
 70
1
 10
43.999945
 20
286.000052
 30
0.0
 10
44.302098
 20
285.969625
 30
0.0
 10
44.583615
 20
285.882048
 30
0.0
 10
44.838143
 20
285.743936
 30
0.0
 10
45.060129
 20
285.560579
 30
0.0
 10
45.243220
 20
285.338859
 30
0.0
 10
45.381597
 20
285.084065
 30
0.0
 10
45.468910
 20
284.802548
 30
0.0
 10
45.499601
 20
284.500394
 30
0.0
 10
45.469174
 20
284.197976
 30
0.0
 10
45.381597
 20
283.916459
 30
0.0
 10
45.243485
 20
283.661666
 30
0.0
 10
45.060393
 20
283.439680
 30
0.0
 10
44.838408
 20
283.256589
 30
0.0
 10
44.583615
 20
283.118211
 30
0.0
 10
44.302098
 20
283.030635
 30
0.0
 10
43.999945
 20
283.000208
 30
0.0
 10
43.705728
 20
283.029312
 30
0.0
 10
43.425799
 20
283.114244
 30
0.0
 10
43.167566
 20
283.252091
 30
0.0
 10
42.938966
 20
283.439680
 30
0.0
 10
42.751641
 20
283.668016
 30
0.0
 10
42.613793
 20
283.926249
 30
0.0
 10
42.528862
 20
284.206442
 30
0.0
 10
42.499757
 20
284.500394
 30
0.0
 10
42.530185
 20
284.802548
 30
0.0
 10
42.617762
 20
285.084065
 30
0.0
 10
42.756139
 20
285.338859
 30
0.0
 10
42.939230
 20
285.560844
 30
0.0
 10
43.161216
 20
285.743936
 30
0.0
 10
43.416009
 20
285.882313
 30
0.0
 10
43.697526
 20
285.969625
 30
0.0
 10
43.999945
 20
286.000052
 30
0.0
 10
43.999945
 20
286.000052
 30
0.0
 10
43.999945
 20
286.000052
 30
0.0
 10
43.999945
 20
286.000052
 30
0.0
  0
LWPOLYLINE
  5
102
100
AcDbEntity
  8
Layer_1
 62
7
100
AcDbPolyline
 90
28
 70
1
 10
72.332041
 20
272.100175
 30
0.0
 10
75.331885
 20
272.100175
 30
0.0
 10
75.533762
 20
272.080066
 30
0.0
 10
75.721881
 20
272.021858
 30
0.0
 10
76.039381
 20
271.808075
 30
0.0
 10
76.253429
 20
271.490310
 30
0.0
 10
76.311372
 20
271.302192
 30
0.0
 10
76.331745
 20
271.100315
 30
0.0
 10
76.311372
 20
270.898173
 30
0.0
 10
76.253429
 20
270.710319
 30
0.0
 10
76.039381
 20
270.392554
 30
0.0
 10
75.721881
 20
270.178771
 30
0.0
 10
75.533762
 20
270.120563
 30
0.0
 10
75.331885
 20
270.100454
 30
0.0
 10
72.332041
 20
270.100454
 30
0.0
 10
72.129899
 20
270.120563
 30
0.0
 10
71.942045
 20
270.178771
 30
0.0
 10
71.624281
 20
270.392554
 30
0.0
 10
71.410498
 20
270.710319
 30
0.0
 10
71.352289
 20
270.898173
 30
0.0
 10
71.331916
 20
271.100315
 30
0.0
 10
71.352289
 20
271.302192
 30
0.0
 10
71.410498
 20
271.490310
 30
0.0
 10
71.624281
 20
271.808075
 30
0.0
 10
71.942045
 20
272.021858
 30
0.0
 10
72.129899
 20
272.080066
 30
0.0
 10
72.332041
 20
272.100175
 30
0.0
 10
72.332041
 20
272.100175
 30
0.0
  0
LWPOLYLINE
  5
103
100
AcDbEntity
  8
Layer_1
 62
7
100
AcDbPolyline
 90
80
 70
1
 10
36.999867
 20
257.599693
 30
0.0
 10
64.999647
 20
257.599693
 30
0.0
 10
65.403666
 20
257.560006
 30
0.0
 10
65.779638
 20
257.443589
 30
0.0
 10
66.119363
 20
257.261027
 30
0.0
 10
66.415167
 20
257.014964
 30
0.0
 10
66.658848
 20
256.721277
 30
0.0
 10
66.842733
 20
256.379964
 30
0.0
 10
66.958885
 20
256.004256
 30
0.0
 10
66.999367
 20
255.599444
 30
0.0
 10
66.999367
 20
253.099133
 30
0.0
 10
69.499677
 20
253.099133
 30
0.0
 10
69.903696
 20
253.059445
 30
0.0
 10
70.279404
 20
252.943029
 30
0.0
 10
70.619394
 20
252.760466
 30
0.0
 10
70.914933
 20
252.517050
 30
0.0
 10
71.158879
 20
252.220717
 30
0.0
 10
71.342764
 20
251.879404
 30
0.0
 10
71.458916
 20
251.503697
 30
0.0
 10
71.499398
 20
251.101529
 30
0.0
 10
71.499398
 20
236.099664
 30
0.0
 10
71.458916
 20
235.697497
 30
0.0
 10
71.342764
 20
235.319143
 30
0.0
 10
71.158879
 20
234.980476
 30
0.0
 10
70.914933
 20
234.684143
 30
0.0
 10
70.619394
 20
234.440727
 30
0.0
 10
70.279404
 20
234.258164
 30
0.0
 10
69.903696
 20
234.141747
 30
0.0
 10
69.499677
 20
234.099414
 30
0.0
 10
66.999367
 20
234.099414
 30
0.0
 10
66.999367
 20
231.599103
 30
0.0
 10
66.958885
 20
231.196937
 30
0.0
 10
66.842733
 20
230.821229
 30
0.0
 10
66.658848
 20
230.479916
 30
0.0
 10
66.415167
 20
230.186229
 30
0.0
 10
66.119363
 20
229.940166
 30
0.0
 10
65.779638
 20
229.757605
 30
0.0
 10
65.403666
 20
229.641188
 30
0.0
 10
64.999647
 20
229.601500
 30
0.0
 10
36.999867
 20
229.601500
 30
0.0
 10
36.595849
 20
229.641188
 30
0.0
 10
36.219876
 20
229.757605
 30
0.0
 10
35.880151
 20
229.940166
 30
0.0
 10
35.584347
 20
230.186229
 30
0.0
 10
35.340666
 20
230.479916
 30
0.0
 10
35.156516
 20
230.821229
 30
0.0
 10
35.040364
 20
231.196937
 30
0.0
 10
34.999882
 20
231.599103
 30
0.0
 10
34.999882
 20
234.099414
 30
0.0
 10
32.499836
 20
234.099414
 30
0.0
 10
32.095818
 20
234.141747
 30
0.0
 10
31.719845
 20
234.258164
 30
0.0
 10
31.380120
 20
234.440727
 30
0.0
 10
31.084316
 20
234.684143
 30
0.0
 10
30.840635
 20
234.980476
 30
0.0
 10
30.656485
 20
235.319143
 30
0.0
 10
30.540333
 20
235.697497
 30
0.0
 10
30.499851
 20
236.099664
 30
0.0
 10
30.499851
 20
251.101529
 30
0.0
 10
30.540333
 20
251.503697
 30
0.0
 10
30.656485
 20
251.879404
 30
0.0
 10
30.840635
 20
252.220717
 30
0.0
 10
31.084316
 20
252.517050
 30
0.0
 10
31.380120
 20
252.760466
 30
0.0
 10
31.719845
 20
252.943029
 30
0.0
 10
32.095818
 20
253.059445
 30
0.0
 10
32.499836
 20
253.099133
 30
0.0
 10
34.999882
 20
253.099133
 30
0.0
 10
34.999882
 20
255.599444
 30
0.0
 10
35.040364
 20
256.004256
 30
0.0
 10
35.156516
 20
256.379964
 30
0.0
 10
35.340666
 20
256.721277
 30
0.0
 10
35.584347
 20
257.014964
 30
0.0
 10
35.880151
 20
257.261027
 30
0.0
 10
36.219876
 20
257.443589
 30
0.0
 10
36.595849
 20
257.560006
 30
0.0
 10
36.999867
 20
257.599693
 30
0.0
 10
36.999867
 20
257.599693
 30
0.0
 10
36.999867
 20
257.599693
 30
0.0
 10
36.999867
 20
257.599693
 30
0.0
  0
LWPOLYLINE
  5
104
100
AcDbEntity
  8
Layer_1
 62
7
100
AcDbPolyline
 90
28
 70
1
 10
31.999509
 20
257.099631
 30
0.0
 10
32.201122
 20
257.081110
 30
0.0
 10
32.388711
 20
257.020256
 30
0.0
 10
32.706740
 20
256.805943
 30
0.0
 10
32.921053
 20
256.488444
 30
0.0
 10
32.979261
 20
256.300589
 30
0.0
 10
32.999634
 20
256.099506
 30
0.0
 10
32.979261
 20
255.898423
 30
0.0
 10
32.921053
 20
255.710569
 30
0.0
 10
32.706740
 20
255.393069
 30
0.0
 10
32.388711
 20
255.178756
 30
0.0
 10
32.201122
 20
255.120548
 30
0.0
 10
31.999509
 20
255.099381
 30
0.0
 10
31.798161
 20
255.120548
 30
0.0
 10
31.610307
 20
255.178756
 30
0.0
 10
31.292543
 20
255.393069
 30
0.0
 10
31.078230
 20
255.710569
 30
0.0
 10
31.020022
 20
255.898423
 30
0.0
 10
30.999649
 20
256.099506
 30
0.0
 10
31.020022
 20
256.300589
 30
0.0
 10
31.078230
 20
256.488444
 30
0.0
 10
31.292543
 20
256.805943
 30
0.0
 10
31.610307
 20
257.020256
 30
0.0
 10
31.798161
 20
257.081110
 30
0.0
 10
31.999509
 20
257.099631
 30
0.0
 10
31.999509
 20
257.099631
 30
0.0
 10
31.999509
 20
257.099631
 30
0.0
 10
31.999509
 20
257.099631
 30
0.0
  0
LWPOLYLINE
  5
105
100
AcDbEntity
  8
Layer_1
 62
7
100
AcDbPolyline
 90
28
 70
1
 10
69.999740
 20
257.099631
 30
0.0
 10
70.201352
 20
257.081110
 30
0.0
 10
70.388942
 20
257.020256
 30
0.0
 10
70.706971
 20
256.805943
 30
0.0
 10
70.921283
 20
256.488444
 30
0.0
 10
70.979491
 20
256.300589
 30
0.0
 10
70.999864
 20
256.099506
 30
0.0
 10
70.979491
 20
255.898423
 30
0.0
 10
70.921283
 20
255.710569
 30
0.0
 10
70.706971
 20
255.393069
 30
0.0
 10
70.388942
 20
255.178756
 30
0.0
 10
70.201352
 20
255.120548
 30
0.0
 10
69.999740
 20
255.099381
 30
0.0
 10
69.798392
 20
255.120548
 30
0.0
 10
69.610538
 20
255.178756
 30
0.0
 10
69.292774
 20
255.393069
 30
0.0
 10
69.078462
 20
255.710569
 30
0.0
 10
69.020253
 20
255.898423
 30
0.0
 10
68.999881
 20
256.099506
 30
0.0
 10
69.020253
 20
256.300589
 30
0.0
 10
69.078462
 20
256.488444
 30
0.0
 10
69.292774
 20
256.805943
 30
0.0
 10
69.610538
 20
257.020256
 30
0.0
 10
69.798392
 20
257.081110
 30
0.0
 10
69.999740
 20
257.099631
 30
0.0
 10
69.999740
 20
257.099631
 30
0.0
 10
69.999740
 20
257.099631
 30
0.0
 10
69.999740
 20
257.099631
 30
0.0
  0
LWPOLYLINE
  5
106
100
AcDbEntity
  8
Layer_1
 62
7
100
AcDbPolyline
 90
28
 70
1
 10
31.999509
 20
232.099166
 30
0.0
 10
32.201122
 20
232.080645
 30
0.0
 10
32.388711
 20
232.022437
 30
0.0
 10
32.706740
 20
231.808124
 30
0.0
 10
32.921053
 20
231.490624
 30
0.0
 10
32.979261
 20
231.302770
 30
0.0
 10
32.999634
 20
231.099041
 30
0.0
 10
32.979261
 20
230.897958
 30
0.0
 10
32.921053
 20
230.710104
 30
0.0
 10
32.706740
 20
230.392604
 30
0.0
 10
32.388711
 20
230.178291
 30
0.0
 10
32.201122
 20
230.120083
 30
0.0
 10
31.999509
 20
230.098916
 30
0.0
 10
31.798161
 20
230.120083
 30
0.0
 10
31.610307
 20
230.178291
 30
0.0
 10
31.292543
 20
230.392604
 30
0.0
 10
31.078230
 20
230.710104
 30
0.0
 10
31.020022
 20
230.897958
 30
0.0
 10
30.999649
 20
231.099041
 30
0.0
 10
31.020022
 20
231.302770
 30
0.0
 10
31.078230
 20
231.490624
 30
0.0
 10
31.292543
 20
231.808124
 30
0.0
 10
31.610307
 20
232.022437
 30
0.0
 10
31.798161
 20
232.080645
 30
0.0
 10
31.999509
 20
232.099166
 30
0.0
 10
31.999509
 20
232.099166
 30
0.0
 10
31.999509
 20
232.099166
 30
0.0
 10
31.999509
 20
232.099166
 30
0.0
  0
LWPOLYLINE
  5
107
100
AcDbEntity
  8
Layer_1
 62
7
100
AcDbPolyline
 90
28
 70
1
 10
69.999740
 20
232.099166
 30
0.0
 10
70.201352
 20
232.080645
 30
0.0
 10
70.388942
 20
232.022437
 30
0.0
 10
70.706971
 20
231.808124
 30
0.0
 10
70.921283
 20
231.490624
 30
0.0
 10
70.979491
 20
231.302770
 30
0.0
 10
70.999864
 20
231.099041
 30
0.0
 10
70.979491
 20
230.897958
 30
0.0
 10
70.921283
 20
230.710104
 30
0.0
 10
70.706971
 20
230.392604
 30
0.0
 10
70.388942
 20
230.178291
 30
0.0
 10
70.201352
 20
230.120083
 30
0.0
 10
69.999740
 20
230.098916
 30
0.0
 10
69.798392
 20
230.120083
 30
0.0
 10
69.610538
 20
230.178291
 30
0.0
 10
69.292774
 20
230.392604
 30
0.0
 10
69.078462
 20
230.710104
 30
0.0
 10
69.020253
 20
230.897958
 30
0.0
 10
68.999881
 20
231.099041
 30
0.0
 10
69.020253
 20
231.302770
 30
0.0
 10
69.078462
 20
231.490624
 30
0.0
 10
69.292774
 20
231.808124
 30
0.0
 10
69.610538
 20
232.022437
 30
0.0
 10
69.798392
 20
232.080645
 30
0.0
 10
69.999740
 20
232.099166
 30
0.0
 10
69.999740
 20
232.099166
 30
0.0
 10
69.999740
 20
232.099166
 30
0.0
 10
69.999740
 20
232.099166
 30
0.0
  0
LWPOLYLINE
  5
108
100
AcDbEntity
  8
Layer_1
 62
7
100
AcDbPolyline
 90
2
 70
0
 10
29.910361
 20
229.630605
 30
0.0
 10
31.999509
 20
230.098916
 30
0.0
  0
LWPOLYLINE
  5
109
100
AcDbEntity
  8
Layer_1
 62
7
100
AcDbPolyline
 90
17
 70
1
 10
0.000000
 20
227.000700
 30
0.0
 10
0.000000
 20
221.001065
 30
0.0
 10
2.999816
 20
221.001065
 30
0.0
 10
2.999816
 20
203.001154
 30
0.0
 10
0.000000
 20
203.001154
 30
0.0
 10
0.000000
 20
197.000910
 30
0.0
 10
2.999816
 20
197.000910
 30
0.0
 10
98.999647
 20
197.000910
 30
0.0
 10
102.000020
 20
197.000910
 30
0.0
 10
102.000020
 20
203.001154
 30
0.0
 10
98.999647
 20
203.001154
 30
0.0
 10
98.999647
 20
221.001065
 30
0.0
 10
102.000020
 20
221.001065
 30
0.0
 10
102.000020
 20
227.000700
 30
0.0
 10
98.999647
 20
227.000700
 30
0.0
 10
2.999816
 20
227.000700
 30
0.0
 10
0.000000
 20
227.000700
 30
0.0
  0
LWPOLYLINE
  5
10a
100
AcDbEntity
  8
Layer_1
 62
7
100
AcDbPolyline
 90
22
 70
1
 10
34.000022
 20
213.001048
 30
0.0
 10
34.201370
 20
212.980675
 30
0.0
 10
34.389224
 20
212.922388
 30
0.0
 10
34.706989
 20
212.708102
 30
0.0
 10
34.921301
 20
212.390258
 30
0.0
 10
34.979509
 20
212.202564
 30
0.0
 10
34.999882
 20
212.001056
 30
0.0
 10
34.979509
 20
211.799524
 30
0.0
 10
34.921301
 20
211.611855
 30
0.0
 10
34.706989
 20
211.294011
 30
0.0
 10
34.389224
 20
211.079699
 30
0.0
 10
34.201370
 20
211.021437
 30
0.0
 10
34.000022
 20
211.001065
 30
0.0
 10
33.617170
 20
211.077053
 30
0.0
 10
33.292528
 20
211.293773
 30
0.0
 10
33.075569
 20
211.618231
 30
0.0
 10
32.999634
 20
212.001003
 30
0.0
 10
33.075569
 20
212.383776
 30
0.0
 10
33.292528
 20
212.708234
 30
0.0
 10
33.617170
 20
212.924954
 30
0.0
 10
34.000022
 20
213.000943
 30
0.0
 10
34.000022
 20
213.001048
 30
0.0
  0
LWPOLYLINE
  5
10b
100
AcDbEntity
  8
Layer_1
 62
7
100
AcDbPolyline
 90
22
 70
1
 10
68.000023
 20
213.001048
 30
0.0
 10
68.201371
 20
212.980675
 30
0.0
 10
68.389225
 20
212.922388
 30
0.0
 10
68.706987
 20
212.708102
 30
0.0
 10
68.921302
 20
212.390258
 30
0.0
 10
68.979508
 20
212.202564
 30
0.0
 10
68.999881
 20
212.001056
 30
0.0
 10
68.979508
 20
211.799524
 30
0.0
 10
68.921302
 20
211.611855
 30
0.0
 10
68.706987
 20
211.294011
 30
0.0
 10
68.389225
 20
211.079699
 30
0.0
 10
68.201371
 20
211.021437
 30
0.0
 10
68.000023
 20
211.001065
 30
0.0
 10
67.617171
 20
211.077053
 30
0.0
 10
67.292525
 20
211.293773
 30
0.0
 10
67.075569
 20
211.618231
 30
0.0
 10
66.999369
 20
212.001003
 30
0.0
 10
67.075569
 20
212.383776
 30
0.0
 10
67.292525
 20
212.708234
 30
0.0
 10
67.617171
 20
212.924954
 30
0.0
 10
68.000023
 20
213.000943
 30
0.0
 10
68.000023
 20
213.001048
 30
0.0
  0
LWPOLYLINE
  5
10c
100
AcDbEntity
  8
Layer_1
 62
7
100
AcDbPolyline
 90
139
 70
1
 10
112.089503
 20
297.156467
 30
0.0
 10
111.309590
 20
296.999834
 30
0.0
 10
110.674061
 20
296.572003
 30
0.0
 10
110.246283
 20
295.936474
 30
0.0
 10
110.089624
 20
295.156747
 30
0.0
 10
110.089624
 20
295.048797
 30
0.0
 10
111.292657
 20
295.048797
 30
0.0
 10
112.072568
 20
294.891899
 30
0.0
 10
112.708097
 20
294.464068
 30
0.0
 10
113.135849
 20
293.828275
 30
0.0
 10
113.292535
 20
293.048284
 30
0.0
 10
113.292535
 20
289.048580
 30
0.0
 10
113.135849
 20
288.268588
 30
0.0
 10
112.708097
 20
287.633059
 30
0.0
 10
112.072568
 20
287.205228
 30
0.0
 10
111.292657
 20
287.048596
 30
0.0
 10
110.089624
 20
287.048596
 30
0.0
 10
110.092719
 20
245.916229
 30
0.0
 10
109.092780
 20
245.916229
 30
0.0
 10
107.696469
 20
285.816167
 30
0.0
 10
105.499714
 20
285.816167
 30
0.0
 10
104.692524
 20
285.816167
 30
0.0
 10
103.692582
 20
285.816167
 30
0.0
 10
103.192869
 20
285.816167
 30
0.0
 10
102.412951
 20
285.659534
 30
0.0
 10
101.777429
 20
285.231702
 30
0.0
 10
101.349657
 20
284.596173
 30
0.0
 10
101.192989
 20
283.816182
 30
0.0
 10
101.192989
 20
279.815949
 30
0.0
 10
101.349657
 20
279.035958
 30
0.0
 10
101.777429
 20
278.400429
 30
0.0
 10
102.412951
 20
277.972863
 30
0.0
 10
103.192869
 20
277.816229
 30
0.0
 10
103.192869
 20
275.816246
 30
0.0
 10
104.692524
 20
275.816246
 30
0.0
 10
104.692524
 20
214.316001
 30
0.0
 10
101.692701
 20
214.316001
 30
0.0
 10
101.692701
 20
206.317122
 30
0.0
 10
104.692524
 20
206.317122
 30
0.0
 10
104.692524
 20
202.049395
 30
0.0
 10
105.692992
 20
202.049395
 30
0.0
 10
106.472904
 20
201.890645
 30
0.0
 10
107.108433
 20
201.464667
 30
0.0
 10
107.536184
 20
200.827021
 30
0.0
 10
107.692871
 20
200.049146
 30
0.0
 10
107.692871
 20
196.048648
 30
0.0
 10
107.536184
 20
195.268128
 30
0.0
 10
107.108433
 20
194.633128
 30
0.0
 10
106.472904
 20
194.204504
 30
0.0
 10
105.692992
 20
194.048400
 30
0.0
 10
105.692992
 20
177.916763
 30
0.0
 10
105.849651
 20
177.136242
 30
0.0
 10
106.277430
 20
176.501242
 30
0.0
 10
106.912932
 20
176.072618
 30
0.0
 10
107.692871
 20
175.916514
 30
0.0
 10
197.692587
 20
175.916514
 30
0.0
 10
198.472578
 20
176.072618
 30
0.0
 10
199.108371
 20
176.501242
 30
0.0
 10
199.536203
 20
177.136242
 30
0.0
 10
199.693100
 20
177.916763
 30
0.0
 10
199.693100
 20
194.048400
 30
0.0
 10
198.913109
 20
194.204504
 30
0.0
 10
198.277315
 20
194.633128
 30
0.0
 10
197.849484
 20
195.268128
 30
0.0
 10
197.692587
 20
196.048648
 30
0.0
 10
197.692587
 20
200.049146
 30
0.0
 10
197.849484
 20
200.827021
 30
0.0
 10
198.277315
 20
201.464667
 30
0.0
 10
198.913109
 20
201.890645
 30
0.0
 10
199.693100
 20
202.049395
 30
0.0
 10
200.692961
 20
202.049395
 30
0.0
 10
200.692961
 20
206.317122
 30
0.0
 10
203.692805
 20
206.317122
 30
0.0
 10
203.692805
 20
214.316001
 30
0.0
 10
200.692961
 20
214.316001
 30
0.0
 10
200.692961
 20
275.816246
 30
0.0
 10
202.192618
 20
275.816246
 30
0.0
 10
202.192618
 20
277.816229
 30
0.0
 10
202.972609
 20
277.972863
 30
0.0
 10
203.608403
 20
278.400429
 30
0.0
 10
204.036234
 20
279.035958
 30
0.0
 10
204.193132
 20
279.815949
 30
0.0
 10
204.193132
 20
283.816182
 30
0.0
 10
204.036234
 20
284.596173
 30
0.0
 10
203.608403
 20
285.231702
 30
0.0
 10
202.972609
 20
285.659534
 30
0.0
 10
202.192618
 20
285.816167
 30
0.0
 10
200.807790
 20
285.816167
 30
0.0
 10
199.885717
 20
285.816167
 30
0.0
 10
197.688618
 20
285.816167
 30
0.0
 10
196.092652
 20
245.916229
 30
0.0
 10
195.092792
 20
245.916229
 30
0.0
 10
195.092792
 20
285.783094
 30
0.0
 10
195.092792
 20
285.816167
 30
0.0
 10
195.092792
 20
286.211454
 30
0.0
 10
195.086707
 20
286.211454
 30
0.0
 10
195.086707
 20
287.048596
 30
0.0
 10
194.092932
 20
287.048596
 30
0.0
 10
193.312942
 20
287.205228
 30
0.0
 10
192.677413
 20
287.633059
 30
0.0
 10
192.249582
 20
288.268588
 30
0.0
 10
192.092948
 20
289.048580
 30
0.0
 10
192.092948
 20
293.048284
 30
0.0
 10
192.249582
 20
293.828275
 30
0.0
 10
192.677413
 20
294.464068
 30
0.0
 10
193.312942
 20
294.891899
 30
0.0
 10
194.092932
 20
295.048797
 30
0.0
 10
195.086707
 20
295.048797
 30
0.0
 10
195.086707
 20
295.156747
 30
0.0
 10
194.930074
 20
295.936474
 30
0.0
 10
194.502244
 20
296.572003
 30
0.0
 10
193.866715
 20
296.999834
 30
0.0
 10
193.086723
 20
297.156467
 30
0.0
 10
187.794001
 20
297.156467
 30
0.0
 10
185.631033
 20
296.836321
 30
0.0
 10
183.425468
 20
296.107659
 30
0.0
 10
181.184977
 20
295.029747
 30
0.0
 10
178.918029
 20
293.662117
 30
0.0
 10
174.337035
 20
290.293708
 30
0.0
 10
169.746781
 20
286.475773
 30
0.0
 10
165.212620
 20
282.681915
 30
0.0
 10
160.799108
 20
279.385737
 30
0.0
 10
158.657571
 20
278.072346
 30
0.0
 10
156.570804
 20
277.060844
 30
0.0
 10
154.546743
 20
276.410499
 30
0.0
 10
152.593060
 20
276.180576
 30
0.0
 10
150.639378
 20
276.410499
 30
0.0
 10
148.615316
 20
277.060844
 30
0.0
 10
146.528285
 20
278.072346
 30
0.0
 10
144.387012
 20
279.385737
 30
0.0
 10
139.973501
 20
282.681915
 30
0.0
 10
135.439339
 20
286.475773
 30
0.0
 10
130.849085
 20
290.293708
 30
0.0
 10
126.268066
 20
293.662117
 30
0.0
 10
124.001116
 20
295.029747
 30
0.0
 10
121.760759
 20
296.107659
 30
0.0
 10
119.555007
 20
296.836321
 30
0.0
 10
117.392040
 20
297.156467
 30
0.0
 10
112.089503
 20
297.156467
 30
0.0
  0
LWPOLYLINE
  5
10d
100
AcDbEntity
  8
Layer_1
 62
7
100
AcDbPolyline
 90
34
 70
1
 10
139.009359
 20
266.048363
 30
0.0
 10
141.427914
 20
265.804682
 30
0.0
 10
143.680311
 20
265.105389
 30
0.0
 10
145.718660
 20
263.999167
 30
0.0
 10
147.494807
 20
262.533904
 30
0.0
 10
148.960068
 20
260.757758
 30
0.0
 10
150.066555
 20
258.719409
 30
0.0
 10
150.765849
 20
256.467012
 30
0.0
 10
151.009795
 20
254.048458
 30
0.0
 10
150.765849
 20
251.629903
 30
0.0
 10
150.066820
 20
249.377506
 30
0.0
 10
148.960333
 20
247.338893
 30
0.0
 10
147.495072
 20
245.563010
 30
0.0
 10
145.718924
 20
244.097484
 30
0.0
 10
143.680576
 20
242.991262
 30
0.0
 10
141.427914
 20
242.291968
 30
0.0
 10
139.009359
 20
242.048287
 30
0.0
 10
136.590805
 20
242.291968
 30
0.0
 10
134.338408
 20
242.991262
 30
0.0
 10
132.300059
 20
244.097748
 30
0.0
 10
130.524176
 20
245.563010
 30
0.0
 10
129.058915
 20
247.339157
 30
0.0
 10
127.952428
 20
249.377506
 30
0.0
 10
127.253293
 20
251.630167
 30
0.0
 10
127.009533
 20
254.048458
 30
0.0
 10
127.253373
 20
256.467012
 30
0.0
 10
127.952693
 20
258.719409
 30
0.0
 10
129.058915
 20
260.757758
 30
0.0
 10
130.524176
 20
262.533640
 30
0.0
 10
132.300324
 20
263.998902
 30
0.0
 10
134.338408
 20
265.105389
 30
0.0
 10
136.591070
 20
265.804417
 30
0.0
 10
139.009359
 20
266.048363
 30
0.0
 10
139.009359
 20
266.048363
 30
0.0
  0
LWPOLYLINE
  5
10e
100
AcDbEntity
  8
Layer_1
 62
7
100
AcDbPolyline
 90
34
 70
1
 10
167.009669
 20
266.048363
 30
0.0
 10
169.428224
 20
265.804417
 30
0.0
 10
171.680620
 20
265.105389
 30
0.0
 10
173.718969
 20
263.998902
 30
0.0
 10
175.494852
 20
262.533640
 30
0.0
 10
176.960113
 20
260.757758
 30
0.0
 10
178.066600
 20
258.719409
 30
0.0
 10
178.765629
 20
256.467012
 30
0.0
 10
179.009575
 20
254.048458
 30
0.0
 10
178.765894
 20
251.630167
 30
0.0
 10
178.066600
 20
249.377506
 30
0.0
 10
176.960377
 20
247.339157
 30
0.0
 10
175.495116
 20
245.563010
 30
0.0
 10
173.718969
 20
244.097748
 30
0.0
 10
171.680620
 20
242.991262
 30
0.0
 10
169.428224
 20
242.291968
 30
0.0
 10
167.009669
 20
242.048287
 30
0.0
 10
164.591114
 20
242.291968
 30
0.0
 10
162.338718
 20
242.991262
 30
0.0
 10
160.300104
 20
244.097484
 30
0.0
 10
158.524221
 20
245.563010
 30
0.0
 10
157.058695
 20
247.338893
 30
0.0
 10
155.952473
 20
249.377506
 30
0.0
 10
155.253179
 20
251.629903
 30
0.0
 10
155.009499
 20
254.048458
 30
0.0
 10
155.253179
 20
256.467012
 30
0.0
 10
155.952473
 20
258.719409
 30
0.0
 10
157.058960
 20
260.757758
 30
0.0
 10
158.524221
 20
262.533904
 30
0.0
 10
160.300368
 20
263.999167
 30
0.0
 10
162.338718
 20
265.105389
 30
0.0
 10
164.591379
 20
265.804682
 30
0.0
 10
167.009669
 20
266.048363
 30
0.0
 10
167.009669
 20
266.048363
 30
0.0
  0
LWPOLYLINE
  5
10f
100
AcDbEntity
  8
Layer_1
 62
7
100
AcDbPolyline
 90
34
 70
1
 10
123.009274
 20
242.094324
 30
0.0
 10
125.427776
 20
241.850379
 30
0.0
 10
127.680437
 20
241.151350
 30
0.0
 10
129.718786
 20
240.044864
 30
0.0
 10
131.494932
 20
238.579601
 30
0.0
 10
132.960194
 20
236.803455
 30
0.0
 10
134.066681
 20
234.765106
 30
0.0
 10
134.765710
 20
232.512445
 30
0.0
 10
135.009655
 20
230.093889
 30
0.0
 10
134.765710
 20
227.675335
 30
0.0
 10
134.066416
 20
225.422938
 30
0.0
 10
132.959930
 20
223.384589
 30
0.0
 10
131.494668
 20
221.608707
 30
0.0
 10
129.718786
 20
220.143445
 30
0.0
 10
127.680172
 20
219.036959
 30
0.0
 10
125.427696
 20
218.337930
 30
0.0
 10
123.009274
 20
218.093984
 30
0.0
 10
120.590904
 20
218.337930
 30
0.0
 10
118.338428
 20
219.037222
 30
0.0
 10
116.300105
 20
220.143445
 30
0.0
 10
114.524197
 20
221.608707
 30
0.0
 10
113.058908
 20
223.384853
 30
0.0
 10
111.952528
 20
225.422938
 30
0.0
 10
111.253287
 20
227.675599
 30
0.0
 10
111.009447
 20
230.093889
 30
0.0
 10
111.253208
 20
232.512445
 30
0.0
 10
111.952369
 20
234.764841
 30
0.0
 10
113.058723
 20
236.803190
 30
0.0
 10
114.524011
 20
238.579337
 30
0.0
 10
116.299946
 20
240.044599
 30
0.0
 10
118.338322
 20
241.151085
 30
0.0
 10
120.590824
 20
241.850379
 30
0.0
 10
123.009274
 20
242.094324
 30
0.0
 10
123.009274
 20
242.094324
 30
0.0
  0
LWPOLYLINE
  5
110
100
AcDbEntity
  8
Layer_1
 62
7
100
AcDbPolyline
 90
34
 70
1
 10
153.009514
 20
242.094324
 30
0.0
 10
155.428070
 20
241.850379
 30
0.0
 10
157.680466
 20
241.151085
 30
0.0
 10
159.718814
 20
240.044599
 30
0.0
 10
161.494697
 20
238.579337
 30
0.0
 10
162.959958
 20
236.803190
 30
0.0
 10
164.066445
 20
234.764841
 30
0.0
 10
164.765739
 20
232.512445
 30
0.0
 10
165.009420
 20
230.093889
 30
0.0
 10
164.765474
 20
227.675599
 30
0.0
 10
164.066181
 20
225.422938
 30
0.0
 10
162.959958
 20
223.384853
 30
0.0
 10
161.494697
 20
221.608707
 30
0.0
 10
159.718814
 20
220.143445
 30
0.0
 10
157.680466
 20
219.037222
 30
0.0
 10
155.427804
 20
218.337930
 30
0.0
 10
153.009514
 20
218.093984
 30
0.0
 10
150.591224
 20
218.337930
 30
0.0
 10
148.338562
 20
219.036959
 30
0.0
 10
146.300214
 20
220.143445
 30
0.0
 10
144.524066
 20
221.608707
 30
0.0
 10
143.058805
 20
223.384589
 30
0.0
 10
141.952318
 20
225.422938
 30
0.0
 10
141.253025
 20
227.675335
 30
0.0
 10
141.009343
 20
230.093889
 30
0.0
 10
141.253025
 20
232.512445
 30
0.0
 10
141.952318
 20
234.765106
 30
0.0
 10
143.058541
 20
236.803455
 30
0.0
 10
144.524066
 20
238.579601
 30
0.0
 10
146.299949
 20
240.044864
 30
0.0
 10
148.338298
 20
241.151350
 30
0.0
 10
150.590959
 20
241.850379
 30
0.0
 10
153.009514
 20
242.094324
 30
0.0
 10
153.009514
 20
242.094324
 30
0.0
  0
LWPOLYLINE
  5
111
100
AcDbEntity
  8
Layer_1
 62
7
100
AcDbPolyline
 90
34
 70
1
 10
183.009279
 20
242.094324
 30
0.0
 10
185.427833
 20
241.850379
 30
0.0
 10
187.680494
 20
241.151350
 30
0.0
 10
189.718844
 20
240.044864
 30
0.0
 10
191.494990
 20
238.579601
 30
0.0
 10
192.960252
 20
236.803455
 30
0.0
 10
194.066738
 20
234.765106
 30
0.0
 10
194.765767
 20
232.512445
 30
0.0
 10
195.009713
 20
230.093889
 30
0.0
 10
194.765767
 20
227.675335
 30
0.0
 10
194.066475
 20
225.422938
 30
0.0
 10
192.959988
 20
223.384589
 30
0.0
 10
191.494726
 20
221.608707
 30
0.0
 10
189.718844
 20
220.143445
 30
0.0
 10
187.680230
 20
219.036959
 30
0.0
 10
185.427833
 20
218.337930
 30
0.0
 10
183.009279
 20
218.093984
 30
0.0
 10
180.590988
 20
218.337930
 30
0.0
 10
178.338592
 20
219.037222
 30
0.0
 10
176.300242
 20
220.143445
 30
0.0
 10
174.524360
 20
221.608707
 30
0.0
 10
173.058835
 20
223.384853
 30
0.0
 10
171.952612
 20
225.422938
 30
0.0
 10
171.253319
 20
227.675599
 30
0.0
 10
171.009637
 20
230.093889
 30
0.0
 10
171.253319
 20
232.512445
 30
0.0
 10
171.952348
 20
234.764841
 30
0.0
 10
173.058835
 20
236.803190
 30
0.0
 10
174.524096
 20
238.579337
 30
0.0
 10
176.299978
 20
240.044599
 30
0.0
 10
178.338327
 20
241.151085
 30
0.0
 10
180.590988
 20
241.850379
 30
0.0
 10
183.009279
 20
242.094324
 30
0.0
 10
183.009279
 20
242.094324
 30
0.0
  0
LWPOLYLINE
  5
112
100
AcDbEntity
  8
Layer_1
 62
7
100
AcDbPolyline
 90
34
 70
1
 10
139.009359
 20
218.048476
 30
0.0
 10
141.427914
 20
217.804795
 30
0.0
 10
143.680576
 20
217.105501
 30
0.0
 10
145.718924
 20
215.999278
 30
0.0
 10
147.495072
 20
214.533753
 30
0.0
 10
148.960333
 20
212.757870
 30
0.0
 10
150.066820
 20
210.719521
 30
0.0
 10
150.765849
 20
208.466860
 30
0.0
 10
151.009795
 20
206.047247
 30
0.0
 10
150.765849
 20
203.628957
 30
0.0
 10
150.066555
 20
201.377354
 30
0.0
 10
148.960068
 20
199.340063
 30
0.0
 10
147.494807
 20
197.562065
 30
0.0
 10
145.718660
 20
196.098919
 30
0.0
 10
143.680311
 20
194.990315
 30
0.0
 10
141.427914
 20
194.291815
 30
0.0
 10
139.009359
 20
194.048400
 30
0.0
 10
136.591070
 20
194.291815
 30
0.0
 10
134.338408
 20
194.990315
 30
0.0
 10
132.300324
 20
196.098919
 30
0.0
 10
130.524176
 20
197.562065
 30
0.0
 10
129.058915
 20
199.340063
 30
0.0
 10
127.952693
 20
201.377354
 30
0.0
 10
127.253373
 20
203.628957
 30
0.0
 10
127.009533
 20
206.047247
 30
0.0
 10
127.253293
 20
208.466596
 30
0.0
 10
127.952428
 20
210.719257
 30
0.0
 10
129.058915
 20
212.757605
 30
0.0
 10
130.524176
 20
214.533753
 30
0.0
 10
132.300059
 20
215.999014
 30
0.0
 10
134.338408
 20
217.105501
 30
0.0
 10
136.590805
 20
217.804795
 30
0.0
 10
139.009359
 20
218.048476
 30
0.0
 10
139.009359
 20
218.048476
 30
0.0
  0
LWPOLYLINE
  5
113
100
AcDbEntity
  8
Layer_1
 62
7
100
AcDbPolyline
 90
34
 70
1
 10
167.009669
 20
218.048476
 30
0.0
 10
169.428224
 20
217.804795
 30
0.0
 10
171.680620
 20
217.105501
 30
0.0
 10
173.718969
 20
215.999014
 30
0.0
 10
175.495116
 20
214.533753
 30
0.0
 10
176.960377
 20
212.757605
 30
0.0
 10
178.066600
 20
210.719257
 30
0.0
 10
178.765894
 20
208.466596
 30
0.0
 10
179.009575
 20
206.047247
 30
0.0
 10
178.765629
 20
203.628957
 30
0.0
 10
178.066600
 20
201.377354
 30
0.0
 10
176.960113
 20
199.340063
 30
0.0
 10
175.494852
 20
197.562065
 30
0.0
 10
173.718969
 20
196.098919
 30
0.0
 10
171.680620
 20
194.990315
 30
0.0
 10
169.428224
 20
194.291815
 30
0.0
 10
167.009669
 20
194.048400
 30
0.0
 10
164.591379
 20
194.291815
 30
0.0
 10
162.338718
 20
194.990315
 30
0.0
 10
160.300368
 20
196.098919
 30
0.0
 10
158.524221
 20
197.562065
 30
0.0
 10
157.058960
 20
199.340063
 30
0.0
 10
155.952473
 20
201.377354
 30
0.0
 10
155.253179
 20
203.628957
 30
0.0
 10
155.009499
 20
206.047247
 30
0.0
 10
155.253179
 20
208.466860
 30
0.0
 10
155.952473
 20
210.719521
 30
0.0
 10
157.058695
 20
212.757870
 30
0.0
 10
158.524221
 20
214.533753
 30
0.0
 10
160.300104
 20
215.999278
 30
0.0
 10
162.338718
 20
217.105501
 30
0.0
 10
164.591114
 20
217.804795
 30
0.0
 10
167.009669
 20
218.048476
 30
0.0
 10
167.009669
 20
218.048476
 30
0.0
  0
LWPOLYLINE
  5
114
100
AcDbEntity
  8
Layer_1
 62
7
100
AcDbPolyline
 90
5
 70
1
 10
112.692566
 20
181.816719
 30
0.0
 10
124.692896
 20
181.816719
 30
0.0
 10
124.692896
 20
178.816346
 30
0.0
 10
112.692566
 20
178.816346
 30
0.0
 10
112.692566
 20
181.816719
 30
0.0
  0
LWPOLYLINE
  5
115
100
AcDbEntity
  8
Layer_1
 62
7
100
AcDbPolyline
 90
5
 70
1
 10
180.692588
 20
181.816719
 30
0.0
 10
192.693023
 20
181.816719
 30
0.0
 10
192.693023
 20
178.816346
 30
0.0
 10
180.692588
 20
178.816346
 30
0.0
 10
180.692588
 20
181.816719
 30
0.0
  0
LWPOLYLINE
  5
116
100
AcDbEntity
  8
Layer_1
 62
7
100
AcDbPolyline
 90
246
 70
1
 10
95.348681
 20
95.012413
 30
0.0
 10
95.573159
 20
93.793402
 30
0.0
 10
96.208838
 20
92.849739
 30
0.0
 10
97.204081
 20
92.156267
 30
0.0
 10
98.507259
 20
91.687817
 30
0.0
 10
100.066739
 20
91.419233
 30
0.0
 10
101.830887
 20
91.325348
 30
0.0
 10
105.766657
 20
91.561039
 30
0.0
 10
109.901510
 20
92.193594
 30
0.0
 10
113.822382
 20
93.021713
 30
0.0
 10
119.369943
 20
94.459477
 30
0.0
 10
125.324395
 20
95.916200
 30
0.0
 10
130.584221
 20
96.806512
 30
0.0
 10
135.208945
 20
97.195600
 30
0.0
 10
139.258105
 20
97.148653
 30
0.0
 10
142.791227
 20
96.730857
 30
0.0
 10
145.867842
 20
96.007394
 30
0.0
 10
148.547482
 20
95.043456
 30
0.0
 10
150.889682
 20
93.904231
 30
0.0
 10
152.953965
 20
92.654897
 30
0.0
 10
154.799867
 20
91.360649
 30
0.0
 10
158.074645
 20
88.898150
 30
0.0
 10
159.622583
 20
87.860269
 30
0.0
 10
161.190262
 20
87.038220
 30
0.0
 10
162.837213
 20
86.497187
 30
0.0
 10
164.622967
 20
86.302356
 30
0.0
 10
166.423498
 20
86.444588
 30
0.0
 10
168.084533
 20
86.843770
 30
0.0
 10
169.620234
 20
87.458637
 30
0.0
 10
171.044763
 20
88.247923
 30
0.0
 10
173.616959
 20
90.184680
 30
0.0
 10
175.914415
 20
92.323906
 30
0.0
 10
178.050437
 20
94.335463
 30
0.0
 10
180.138289
 20
95.889215
 30
0.0
 10
181.199585
 20
96.391251
 30
0.0
 10
182.291308
 20
96.655033
 30
0.0
 10
183.427641
 20
96.639290
 30
0.0
 10
184.622762
 20
96.302767
 30
0.0
 10
185.134572
 20
95.993694
 30
0.0
 10
185.546290
 20
95.540039
 30
0.0
 10
186.091332
 20
94.230107
 30
0.0
 10
186.301887
 20
92.435235
 30
0.0
 10
186.222009
 20
90.217692
 30
0.0
 10
185.895646
 20
87.639736
 30
0.0
 10
185.366823
 20
84.763635
 30
0.0
 10
183.877776
 20
78.366053
 30
0.0
 10
180.406126
 20
64.732789
 30
0.0
 10
179.127555
 20
58.493341
 30
0.0
 10
178.756583
 20
55.735838
 30
0.0
 10
178.623127
 20
53.302834
 30
0.0
 10
178.781480
 20
51.121690
 30
0.0
 10
179.233918
 20
49.085392
 30
0.0
 10
179.946573
 20
47.204650
 30
0.0
 10
180.885578
 20
45.490169
 30
0.0
 10
182.017041
 20
43.952661
 30
0.0
 10
183.307096
 20
42.602831
 30
0.0
 10
184.721875
 20
41.451386
 30
0.0
 10
186.227513
 20
40.509037
 30
0.0
 10
187.790087
 20
39.786492
 30
0.0
 10
189.375788
 20
39.294457
 30
0.0
 10
190.950667
 20
39.043640
 30
0.0
 10
192.480909
 20
39.044698
 30
0.0
 10
193.932625
 20
39.308443
 30
0.0
 10
195.271918
 20
39.845531
 30
0.0
 10
196.464924
 20
40.666667
 30
0.0
 10
197.477801
 20
41.782562
 30
0.0
 10
197.917379
 20
42.685246
 30
0.0
 10
198.325446
 20
44.103831
 30
0.0
 10
199.051621
 20
48.353025
 30
0.0
 10
199.665507
 20
54.258768
 30
0.0
 10
200.176364
 20
61.549681
 30
0.0
 10
200.925744
 20
79.201512
 30
0.0
 10
201.373497
 20
99.137498
 30
0.0
 10
201.593392
 20
119.186614
 30
0.0
 10
201.659141
 20
137.177834
 30
0.0
 10
201.623263
 20
158.302518
 30
0.0
 10
201.390299
 20
161.637095
 30
0.0
 10
200.733471
 20
164.723095
 30
0.0
 10
199.715963
 20
167.500091
 30
0.0
 10
198.400905
 20
169.907665
 30
0.0
 10
196.851480
 20
171.885401
 30
0.0
 10
195.130842
 20
173.372874
 30
0.0
 10
193.302149
 20
174.309668
 30
0.0
 10
192.367006
 20
174.552677
 30
0.0
 10
191.428556
 20
174.635360
 30
0.0
 10
189.063738
 20
174.414806
 30
0.0
 10
185.888502
 20
173.832008
 30
0.0
 10
178.462313
 20
172.052896
 30
0.0
 10
168.796354
 20
169.352999
 30
0.0
 10
167.846024
 20
169.402089
 30
0.0
 10
167.486503
 20
169.274576
 30
0.0
 10
167.325645
 20
168.928735
 30
0.0
 10
167.103434
 20
163.680478
 30
0.0
 10
164.595062
 20
163.774532
 30
0.0
 10
164.138243
 20
163.768844
 30
0.0
 10
164.097936
 20
164.628739
 30
0.0
 10
163.935117
 20
164.976190
 30
0.0
 10
163.574453
 20
165.107783
 30
0.0
 10
161.827792
 20
165.038020
 30
0.0
 10
161.481166
 20
164.877678
 30
0.0
 10
161.351851
 20
164.518151
 30
0.0
 10
161.390610
 20
163.693914
 30
0.0
 10
158.433683
 20
163.478940
 30
0.0
 10
158.318964
 20
164.330054
 30
0.0
 10
158.126725
 20
164.662198
 30
0.0
 10
157.756208
 20
164.762068
 30
0.0
 10
156.021947
 20
164.539858
 30
0.0
 10
155.690567
 20
164.350030
 30
0.0
 10
155.593034
 20
163.980717
 30
0.0
 10
155.703619
 20
163.163199
 30
0.0
 10
152.775636
 20
162.697591
 30
0.0
 10
152.588567
 20
163.529068
 30
0.0
 10
152.368037
 20
163.843218
 30
0.0
 10
151.990154
 20
163.910441
 30
0.0
 10
150.281733
 20
163.537852
 30
0.0
 10
149.968041
 20
163.319925
 30
0.0
 10
149.902945
 20
162.943574
 30
0.0
 10
150.083812
 20
162.141041
 30
0.0
 10
147.208536
 20
161.418088
 30
0.0
 10
146.949120
 20
162.231472
 30
0.0
 10
146.702288
 20
162.525138
 30
0.0
 10
146.320219
 20
162.559103
 30
0.0
 10
144.650553
 20
162.039237
 30
0.0
 10
144.357302
 20
161.794924
 30
0.0
 10
144.325510
 20
161.414466
 30
0.0
 10
144.573557
 20
160.636224
 30
0.0
 10
141.772179
 20
159.664187
 30
0.0
 10
141.444551
 20
160.447602
 30
0.0
 10
141.172964
 20
160.718506
 30
0.0
 10
140.789292
 20
160.719036
 30
0.0
 10
139.171822
 20
160.056027
 30
0.0
 10
138.900782
 20
159.786888
 30
0.0
 10
138.902105
 20
159.404904
 30
0.0
 10
139.217848
 20
158.649913
 30
0.0
 10
136.510522
 20
157.440683
 30
0.0
 10
136.116748
 20
158.190510
 30
0.0
 10
135.822569
 20
158.436842
 30
0.0
 10
135.440304
 20
158.403932
 30
0.0
 10
133.886395
 20
157.602431
 30
0.0
 10
133.639896
 20
157.310614
 30
0.0
 10
133.674522
 20
156.930122
 30
0.0
 10
134.052275
 20
156.210268
 30
0.0
 10
131.462254
 20
154.765912
 30
0.0
 10
131.005435
 20
155.478013
 30
0.0
 10
130.690909
 20
155.697680
 30
0.0
 10
130.312970
 20
155.631492
 30
0.0
 10
128.835025
 20
154.697184
 30
0.0
 10
128.614910
 20
154.385198
 30
0.0
 10
128.682580
 20
154.009370
 30
0.0
 10
129.120796
 20
153.326208
 30
0.0
 10
126.663067
 20
151.666362
 30
0.0
 10
126.150437
 20
152.329888
 30
0.0
 10
125.817906
 20
152.521544
 30
0.0
 10
125.447122
 20
152.422905
 30
0.0
 10
124.055991
 20
151.363539
 30
0.0
 10
123.863872
 20
151.033463
 30
0.0
 10
123.964008
 20
150.664875
 30
0.0
 10
124.460102
 20
150.023054
 30
0.0
 10
122.158435
 20
148.151851
 30
0.0
 10
121.587927
 20
148.770932
 30
0.0
 10
121.239831
 20
148.932698
 30
0.0
 10
120.878926
 20
148.801939
 30
0.0
 10
119.585985
 20
147.625269
 30
0.0
 10
119.423230
 20
147.279800
 30
0.0
 10
119.554979
 20
146.921435
 30
0.0
 10
120.100163
 20
146.330259
 30
0.0
 10
117.973163
 20
144.263203
 30
0.0
 10
117.353046
 20
144.828024
 30
0.0
 10
116.992178
 20
144.958783
 30
0.0
 10
116.644045
 20
144.797017
 30
0.0
 10
115.458588
 20
143.512342
 30
0.0
 10
115.326582
 20
143.153760
 30
0.0
 10
115.489079
 20
142.807995
 30
0.0
 10
116.085941
 20
142.264358
 30
0.0
 10
114.142908
 20
140.023670
 30
0.0
 10
113.477833
 20
140.530614
 30
0.0
 10
113.107083
 20
140.629515
 30
0.0
 10
112.774516
 20
140.438113
 30
0.0
 10
111.705333
 20
139.054737
 30
0.0
 10
111.605191
 20
138.686186
 30
0.0
 10
111.797318
 20
138.356070
 30
0.0
 10
112.436554
 20
137.868764
 30
0.0
 10
110.699710
 20
135.464261
 30
0.0
 10
109.992260
 20
135.911777
 30
0.0
 10
109.614358
 20
135.977973
 30
0.0
 10
109.299795
 20
135.758298
 30
0.0
 10
108.355152
 20
134.287072
 30
0.0
 10
108.287471
 20
133.911282
 30
0.0
 10
108.507597
 20
133.599257
 30
0.0
 10
109.185590
 20
133.170341
 30
0.0
 10
107.660621
 20
130.625796
 30
0.0
 10
106.922163
 20
131.007167
 30
0.0
 10
106.539936
 20
131.040086
 30
0.0
 10
106.245719
 20
130.793743
 30
0.0
 10
105.432851
 20
129.246035
 30
0.0
 10
105.398212
 20
128.865578
 30
0.0
 10
105.644724
 20
128.573726
 30
0.0
 10
106.358374
 20
128.205273
 30
0.0
 10
105.062848
 20
125.536703
 30
0.0
 10
104.291318
 20
125.853481
 30
0.0
 10
103.907683
 20
125.853216
 30
0.0
 10
103.636061
 20
125.582302
 30
0.0
 10
102.961168
 20
123.968963
 30
0.0
 10
102.959845
 20
123.587016
 30
0.0
 10
103.230900
 20
123.317839
 30
0.0
 10
103.968838
 20
123.015016
 30
0.0
 10
102.914641
 20
120.242578
 30
0.0
 10
102.119857
 20
120.490107
 30
0.0
 10
101.737560
 20
120.456161
 30
0.0
 10
101.490440
 20
120.162479
 30
0.0
 10
100.958689
 20
118.496949
 30
0.0
 10
100.990722
 20
118.116267
 30
0.0
 10
101.284251
 20
117.871665
 30
0.0
 10
102.048543
 20
117.633437
 30
0.0
 10
101.235157
 20
114.780899
 30
0.0
 10
100.423837
 20
114.957633
 30
0.0
 10
100.045988
 20
114.890691
 30
0.0
 10
99.825426
 20
114.576779
 30
0.0
 10
99.440952
 20
112.870939
 30
0.0
 10
99.506026
 20
112.494622
 30
0.0
 10
99.819740
 20
112.276661
 30
0.0
 10
100.600570
 20
112.106130
 30
0.0
 10
100.042466
 20
109.192614
 30
0.0
 10
99.216675
 20
109.298550
 30
0.0
 10
98.846193
 20
109.198961
 30
0.0
 10
98.653920
 20
108.867052
 30
0.0
 10
98.419310
 20
107.134342
 30
0.0
 10
98.516821
 20
106.765063
 30
0.0
 10
98.848225
 20
106.575203
 30
0.0
 10
99.639905
 20
106.473400
 30
0.0
 10
99.335531
 20
103.522162
 30
0.0
 10
98.507158
 20
103.555751
 30
0.0
 10
98.146783
 20
103.424182
 30
0.0
 10
97.984194
 20
103.076710
 30
0.0
 10
97.927868
 20
101.886604
 30
0.0
 10
97.927868
 20
101.257185
 30
0.0
 10
98.070138
 20
100.948181
 30
0.0
 10
98.377968
 20
100.810701
 30
0.0
 10
99.177919
 20
100.778147
 30
0.0
 10
99.125728
 20
98.304912
 30
0.0
 10
99.144328
 20
97.804684
 30
0.0
 10
97.927865
 20
97.749392
 30
0.0
 10
97.927865
 20
96.996983
 30
0.0
 10
95.363680
 20
95.369177
 30
0.0
 10
95.348705
 20
95.012608
 30
0.0
 10
95.348681
 20
95.012413
 30
0.0
  0
LWPOLYLINE
  5
117
100
AcDbEntity
  8
Layer_1
 62
7
100
AcDbPolyline
 90
65
 70
1
 10
118.150378
 20
123.290775
 30
0.0
 10
118.263511
 20
125.530970
 30
0.0
 10
118.595537
 20
127.706449
 30
0.0
 10
119.135448
 20
129.806206
 30
0.0
 10
119.872227
 20
131.819225
 30
0.0
 10
120.794863
 20
133.734490
 30
0.0
 10
121.892346
 20
135.540990
 30
0.0
 10
123.153656
 20
137.227715
 30
0.0
 10
124.567782
 20
138.783647
 30
0.0
 10
126.123717
 20
140.197776
 30
0.0
 10
127.810439
 20
141.459086
 30
0.0
 10
129.616943
 20
142.556567
 30
0.0
 10
131.532207
 20
143.479206
 30
0.0
 10
133.545225
 20
144.215985
 30
0.0
 10
135.644981
 20
144.755896
 30
0.0
 10
137.820463
 20
145.087924
 30
0.0
 10
140.060657
 20
145.201054
 30
0.0
 10
142.226249
 20
145.093877
 30
0.0
 10
144.355168
 20
144.776231
 30
0.0
 10
146.433040
 20
144.254074
 30
0.0
 10
148.445499
 20
143.533350
 30
0.0
 10
150.378179
 20
142.620014
 30
0.0
 10
152.216709
 20
141.520014
 30
0.0
 10
153.946729
 20
140.239303
 30
0.0
 10
155.553862
 20
138.783830
 30
0.0
 10
157.009374
 20
137.176728
 30
0.0
 10
158.290127
 20
135.446743
 30
0.0
 10
159.390168
 20
133.608237
 30
0.0
 10
160.303551
 20
131.675578
 30
0.0
 10
161.024324
 20
129.663135
 30
0.0
 10
161.546529
 20
127.585275
 30
0.0
 10
161.864225
 20
125.456365
 30
0.0
 10
161.971452
 20
123.290775
 30
0.0
 10
161.864272
 20
121.125149
 30
0.0
 10
161.546619
 20
118.996202
 30
0.0
 10
161.024443
 20
116.918300
 30
0.0
 10
160.303699
 20
114.905814
 30
0.0
 10
159.390334
 20
112.973113
 30
0.0
 10
158.290307
 20
111.134562
 30
0.0
 10
157.009557
 20
109.404529
 30
0.0
 10
155.554047
 20
107.797385
 30
0.0
 10
153.946903
 20
106.341875
 30
0.0
 10
152.216870
 20
105.061126
 30
0.0
 10
150.378319
 20
103.961095
 30
0.0
 10
148.445618
 20
103.047733
 30
0.0
 10
146.433132
 20
102.326987
 30
0.0
 10
144.355230
 20
101.804813
 30
0.0
 10
142.226283
 20
101.487161
 30
0.0
 10
140.060657
 20
101.379981
 30
0.0
 10
137.895064
 20
101.487208
 30
0.0
 10
135.766157
 20
101.804902
 30
0.0
 10
133.688297
 20
102.327109
 30
0.0
 10
131.675854
 20
103.047881
 30
0.0
 10
129.743196
 20
103.961265
 30
0.0
 10
127.904689
 20
105.061307
 30
0.0
 10
126.174702
 20
106.342058
 30
0.0
 10
124.567602
 20
107.797570
 30
0.0
 10
123.112130
 20
109.404703
 30
0.0
 10
121.831418
 20
111.134723
 30
0.0
 10
120.731418
 20
112.973253
 30
0.0
 10
119.818082
 20
114.905933
 30
0.0
 10
119.097359
 20
116.918392
 30
0.0
 10
118.575198
 20
118.996265
 30
0.0
 10
118.257555
 20
121.125181
 30
0.0
 10
118.150378
 20
123.290775
 30
0.0
  0
LWPOLYLINE
  5
118
100
AcDbEntity
  8
Layer_1
 62
7
100
AcDbPolyline
 90
33
 70
1
 10
157.123172
 20
98.302651
 30
0.0
 10
157.275574
 20
99.814103
 30
0.0
 10
157.712594
 20
101.221874
 30
0.0
 10
158.404080
 20
102.495810
 30
0.0
 10
159.319868
 20
103.605750
 30
0.0
 10
160.429808
 20
104.521538
 30
0.0
 10
161.703742
 20
105.213023
 30
0.0
 10
163.111514
 20
105.650043
 30
0.0
 10
164.622967
 20
105.802446
 30
0.0
 10
166.092996
 20
105.657063
 30
0.0
 10
167.493142
 20
105.231656
 30
0.0
 10
168.784059
 20
104.542512
 30
0.0
 10
169.926399
 20
103.605932
 30
0.0
 10
170.863058
 20
102.463655
 30
0.0
 10
171.552290
 20
101.172786
 30
0.0
 10
171.977798
 20
99.772669
 30
0.0
 10
172.123282
 20
98.302651
 30
0.0
 10
171.977885
 20
96.832555
 30
0.0
 10
171.552438
 20
95.432357
 30
0.0
 10
170.863238
 20
94.141400
 30
0.0
 10
169.926582
 20
92.999036
 30
0.0
 10
168.784218
 20
92.062379
 30
0.0
 10
167.493261
 20
91.373179
 30
0.0
 10
166.093060
 20
90.947733
 30
0.0
 10
164.622967
 20
90.802337
 30
0.0
 10
163.152945
 20
90.947820
 30
0.0
 10
161.752830
 20
91.373328
 30
0.0
 10
160.461963
 20
92.062562
 30
0.0
 10
159.319685
 20
92.999218
 30
0.0
 10
158.383105
 20
94.141559
 30
0.0
 10
157.693965
 20
95.432476
 30
0.0
 10
157.268555
 20
96.832621
 30
0.0
 10
157.123172
 20
98.302651
 30
0.0
  0
LWPOLYLINE
  5
119
100
AcDbEntity
  8
Layer_1
 62
7
100
AcDbPolyline
 90
5
 70
1
 10
171.623052
 20
106.302675
 30
0.0
 10
171.623052
 20
112.302306
 30
0.0
 10
174.622867
 20
112.302306
 30
0.0
 10
174.622867
 20
106.302675
 30
0.0
 10
171.623052
 20
106.302675
 30
0.0
  0
LWPOLYLINE
  5
11a
100
AcDbEntity
  8
Layer_1
 62
7
100
AcDbPolyline
 90
5
 70
1
 10
171.623052
 20
120.302329
 30
0.0
 10
171.623052
 20
126.302476
 30
0.0
 10
174.622867
 20
126.302476
 30
0.0
 10
174.622867
 20
120.302329
 30
0.0
 10
171.623052
 20
120.302329
 30
0.0
  0
LWPOLYLINE
  5
11b
100
AcDbEntity
  8
Layer_1
 62
7
100
AcDbPolyline
 90
17
 70
1
 10
171.921227
 20
133.272589
 30
0.0
 10
171.997430
 20
133.655191
 30
0.0
 10
172.214232
 20
133.979523
 30
0.0
 10
172.538684
 20
134.196357
 30
0.0
 10
172.921422
 20
134.272501
 30
0.0
 10
173.304161
 20
134.196357
 30
0.0
 10
173.628614
 20
133.979523
 30
0.0
 10
173.845448
 20
133.655070
 30
0.0
 10
173.921592
 20
133.272330
 30
0.0
 10
173.845448
 20
132.889592
 30
0.0
 10
173.628614
 20
132.565139
 30
0.0
 10
173.304161
 20
132.348302
 30
0.0
 10
172.921422
 20
132.272160
 30
0.0
 10
172.538684
 20
132.348302
 30
0.0
 10
172.214232
 20
132.565139
 30
0.0
 10
171.997332
 20
132.889708
 30
0.0
 10
171.921227
 20
133.272589
 30
0.0
  0
LWPOLYLINE
  5
11c
100
AcDbEntity
  8
Layer_1
 62
7
100
AcDbPolyline
 90
33
 70
1
 10
175.038864
 20
151.303521
 30
0.0
 10
175.127996
 20
152.205206
 30
0.0
 10
175.388905
 20
153.064033
 30
0.0
 10
175.811595
 20
153.855859
 30
0.0
 10
176.386069
 20
154.556550
 30
0.0
 10
177.086687
 20
155.131036
 30
0.0
 10
177.878431
 20
155.553763
 30
0.0
 10
178.737215
 20
155.814727
 30
0.0
 10
179.638836
 20
155.903939
 30
0.0
 10
180.540482
 20
155.814727
 30
0.0
 10
181.399239
 20
155.553763
 30
0.0
 10
182.190978
 20
155.131036
 30
0.0
 10
182.891621
 20
154.556550
 30
0.0
 10
183.466110
 20
153.855930
 30
0.0
 10
183.888835
 20
153.064173
 30
0.0
 10
184.149793
 20
152.205412
 30
0.0
 10
184.239011
 20
151.303777
 30
0.0
 10
184.149793
 20
150.402144
 30
0.0
 10
183.888835
 20
149.543380
 30
0.0
 10
183.466110
 20
148.751626
 30
0.0
 10
182.891621
 20
148.051008
 30
0.0
 10
182.190978
 20
147.476518
 30
0.0
 10
181.399239
 20
147.053793
 30
0.0
 10
180.540482
 20
146.792827
 30
0.0
 10
179.638836
 20
146.703617
 30
0.0
 10
178.737215
 20
146.792827
 30
0.0
 10
177.878431
 20
147.053793
 30
0.0
 10
177.086687
 20
147.476518
 30
0.0
 10
176.386069
 20
148.051008
 30
0.0
 10
175.811666
 20
148.751586
 30
0.0
 10
175.389003
 20
149.543283
 30
0.0
 10
175.128071
 20
150.401969
 30
0.0
 10
175.038864
 20
151.303521
 30
0.0
  0
LWPOLYLINE
  5
11d
100
AcDbEntity
  8
Layer_1
 62
7
100
AcDbPolyline
 90
33
 70
1
 10
180.623005
 20
113.802470
 30
0.0
 10
180.768394
 20
115.272500
 30
0.0
 10
181.193817
 20
116.672645
 30
0.0
 10
181.882951
 20
117.963562
 30
0.0
 10
182.819522
 20
119.105903
 30
0.0
 10
183.961807
 20
120.042561
 30
0.0
 10
185.252682
 20
120.731793
 30
0.0
 10
186.652804
 20
121.157301
 30
0.0
 10
188.122801
 20
121.302785
 30
0.0
 10
189.592905
 20
121.157388
 30
0.0
 10
190.993105
 20
120.731941
 30
0.0
 10
192.284059
 20
120.042741
 30
0.0
 10
193.426424
 20
119.106086
 30
0.0
 10
194.363075
 20
117.963724
 30
0.0
 10
195.052287
 20
116.672767
 30
0.0
 10
195.477737
 20
115.272564
 30
0.0
 10
195.623126
 20
113.802470
 30
0.0
 10
195.477631
 20
112.332450
 30
0.0
 10
195.052129
 20
110.932333
 30
0.0
 10
194.362889
 20
109.641466
 30
0.0
 10
193.426239
 20
108.499188
 30
0.0
 10
192.283901
 20
107.562610
 30
0.0
 10
190.992999
 20
106.873468
 30
0.0
 10
189.592852
 20
106.448055
 30
0.0
 10
188.122801
 20
106.302675
 30
0.0
 10
186.611370
 20
106.455077
 30
0.0
 10
185.203575
 20
106.892097
 30
0.0
 10
183.929660
 20
107.583583
 30
0.0
 10
182.819708
 20
108.499372
 30
0.0
 10
181.903932
 20
109.609314
 30
0.0
 10
181.212444
 20
110.883245
 30
0.0
 10
180.775405
 20
112.291017
 30
0.0
 10
180.623005
 20
113.802470
 30
0.0
  0
LWPOLYLINE
  5
11e
100
AcDbEntity
  8
Layer_1
 62
7
100
AcDbPolyline
 90
5
 70
1
 10
192.622805
 20
43.302421
 30
0.0
 10
192.622805
 20
49.302569
 30
0.0
 10
195.623126
 20
49.302569
 30
0.0
 10
195.623126
 20
43.302421
 30
0.0
 10
192.622805
 20
43.302421
 30
0.0
  0
LWPOLYLINE
  5
11f
100
AcDbEntity
  8
Layer_1
 62
7
100
AcDbPolyline
 90
5
 70
1
 10
192.622805
 20
67.302494
 30
0.0
 10
192.622805
 20
73.302640
 30
0.0
 10
195.623126
 20
73.302640
 30
0.0
 10
195.623126
 20
67.302494
 30
0.0
 10
192.622805
 20
67.302494
 30
0.0
  0
LWPOLYLINE
  5
120
100
AcDbEntity
  8
Layer_1
 62
7
100
AcDbPolyline
 90
5
 70
1
 10
192.622805
 20
101.302466
 30
0.0
 10
192.622805
 20
107.302614
 30
0.0
 10
195.623126
 20
107.302614
 30
0.0
 10
195.623126
 20
101.302466
 30
0.0
 10
192.622805
 20
101.302466
 30
0.0
  0
LWPOLYLINE
  5
121
100
AcDbEntity
  8
Layer_1
 62
7
100
AcDbPolyline
 90
5
 70
1
 10
192.622805
 20
120.302329
 30
0.0
 10
192.622805
 20
126.302476
 30
0.0
 10
195.623126
 20
126.302476
 30
0.0
 10
195.623126
 20
120.302329
 30
0.0
 10
192.622805
 20
120.302329
 30
0.0
  0
LWPOLYLINE
  5
122
100
AcDbEntity
  8
Layer_1
 62
7
100
AcDbPolyline
 90
5
 70
1
 10
192.622805
 20
165.302659
 30
0.0
 10
192.622805
 20
171.302289
 30
0.0
 10
195.623126
 20
171.302289
 30
0.0
 10
195.623126
 20
165.302659
 30
0.0
 10
192.622805
 20
165.302659
 30
0.0
  0
LWPOLYLINE
  5
123
100
AcDbEntity
  8
Layer_1
 62
7
100
AcDbPolyline
 90
17
 70
1
 10
196.670082
 20
158.020936
 30
0.0
 10
196.746202
 20
158.403817
 30
0.0
 10
196.963081
 20
158.728386
 30
0.0
 10
197.293837
 20
158.947926
 30
0.0
 10
197.670021
 20
159.021104
 30
0.0
 10
198.046232
 20
158.947926
 30
0.0
 10
198.376960
 20
158.728386
 30
0.0
 10
198.593786
 20
158.403932
 30
0.0
 10
198.669933
 20
158.021195
 30
0.0
 10
198.593786
 20
157.638454
 30
0.0
 10
198.376960
 20
157.314001
 30
0.0
 10
198.046232
 20
157.094463
 30
0.0
 10
197.670021
 20
157.021282
 30
0.0
 10
197.293837
 20
157.094463
 30
0.0
 10
196.963081
 20
157.314001
 30
0.0
 10
196.746282
 20
157.638332
 30
0.0
 10
196.670082
 20
158.020936
 30
0.0
  0
LWPOLYLINE
  5
124
100
AcDbEntity
  8
Layer_1
 62
1
100
AcDbPolyline
 90
2
 70
0
 10
102.648166
 20
99.548165
 30
0.0
 10
107.660708
 20
97.640068
 30
0.0
  0
LWPOLYLINE
  5
125
100
AcDbEntity
  8
Layer_1
 62
1
100
AcDbPolyline
 90
2
 70
0
 10
102.648166
 20
99.548165
 30
0.0
 10
107.660708
 20
101.456263
 30
0.0
  0
LWPOLYLINE
  5
126
100
AcDbEntity
  8
Layer_1
 62
1
100
AcDbPolyline
 90
2
 70
0
 10
105.994908
 20
98.351820
 30
0.0
 10
105.994908
 20
100.744513
 30
0.0
  0
LWPOLYLINE
  5
127
100
AcDbEntity
  8
Layer_1
 62
1
100
AcDbPolyline
 90
2
 70
0
 10
106.230067
 20
118.213279
 30
0.0
 10
111.242611
 20
118.213279
 30
0.0
  0
LWPOLYLINE
  5
128
100
AcDbEntity
  8
Layer_1
 62
1
100
AcDbPolyline
 90
9
 70
0
 10
106.230067
 20
118.213279
 30
0.0
 10
106.230067
 20
120.363670
 30
0.0
 10
106.472367
 20
121.075420
 30
0.0
 10
106.714664
 20
121.317723
 30
0.0
 10
107.184117
 20
121.560018
 30
0.0
 10
107.668714
 20
121.560018
 30
0.0
 10
108.138167
 20
121.317723
 30
0.0
 10
108.380464
 20
121.075420
 30
0.0
 10
108.622762
 20
120.363670
 30
0.0
  0
LWPOLYLINE
  5
129
100
AcDbEntity
  8
Layer_1
 62
1
100
AcDbPolyline
 90
10
 70
0
 10
108.622762
 20
118.213279
 30
0.0
 10
108.622762
 20
120.363670
 30
0.0
 10
108.857488
 20
121.075420
 30
0.0
 10
109.092216
 20
121.317723
 30
0.0
 10
109.576811
 20
121.560018
 30
0.0
 10
110.288561
 20
121.560018
 30
0.0
 10
110.765586
 20
121.317723
 30
0.0
 10
111.004100
 20
121.075420
 30
0.0
 10
111.242611
 20
120.363670
 30
0.0
 10
111.242611
 20
118.213279
 30
0.0
  0
LWPOLYLINE
  5
12a
100
AcDbEntity
  8
Layer_1
 62
1
100
AcDbPolyline
 90
18
 70
0
 10
121.086323
 20
144.288512
 30
0.0
 10
120.609297
 20
144.046218
 30
0.0
 10
120.132272
 20
143.569193
 30
0.0
 10
119.889972
 20
143.092165
 30
0.0
 10
119.889972
 20
142.138120
 30
0.0
 10
120.132272
 20
141.661095
 30
0.0
 10
120.609297
 20
141.184068
 30
0.0
 10
121.086323
 20
140.941773
 30
0.0
 10
121.798073
 20
140.707042
 30
0.0
 10
122.994418
 20
140.707042
 30
0.0
 10
123.706169
 20
140.941773
 30
0.0
 10
124.186981
 20
141.184068
 30
0.0
 10
124.664003
 20
141.661095
 30
0.0
 10
124.902517
 20
142.138120
 30
0.0
 10
124.902517
 20
143.092165
 30
0.0
 10
124.664003
 20
143.569193
 30
0.0
 10
124.186981
 20
144.046218
 30
0.0
 10
123.706169
 20
144.288512
 30
0.0
  0
LWPOLYLINE
  5
12b
100
AcDbEntity
  8
Layer_1
 62
1
100
AcDbPolyline
 90
2
 70
0
 10
136.959176
 20
152.498589
 30
0.0
 10
141.971720
 20
152.498589
 30
0.0
  0
LWPOLYLINE
  5
12c
100
AcDbEntity
  8
Layer_1
 62
1
100
AcDbPolyline
 90
12
 70
0
 10
136.959176
 20
152.498589
 30
0.0
 10
136.959176
 20
154.171962
 30
0.0
 10
137.201475
 20
154.891281
 30
0.0
 10
137.678498
 20
155.360731
 30
0.0
 10
138.155523
 20
155.603031
 30
0.0
 10
138.867276
 20
155.845326
 30
0.0
 10
140.063621
 20
155.845326
 30
0.0
 10
140.775372
 20
155.603031
 30
0.0
 10
141.256181
 20
155.360731
 30
0.0
 10
141.733206
 20
154.891281
 30
0.0
 10
141.971720
 20
154.171962
 30
0.0
 10
141.971720
 20
152.498589
 30
0.0
  0
LWPOLYLINE
  5
12d
100
AcDbEntity
  8
Layer_1
 62
1
100
AcDbPolyline
 90
2
 70
0
 10
162.157211
 20
157.922188
 30
0.0
 10
167.169755
 20
157.922188
 30
0.0
  0
LWPOLYLINE
  5
12e
100
AcDbEntity
  8
Layer_1
 62
1
100
AcDbPolyline
 90
2
 70
0
 10
162.157211
 20
157.922188
 30
0.0
 10
162.157211
 20
161.026632
 30
0.0
  0
LWPOLYLINE
  5
12f
100
AcDbEntity
  8
Layer_1
 62
1
100
AcDbPolyline
 90
2
 70
0
 10
164.549905
 20
157.922188
 30
0.0
 10
164.549905
 20
159.830287
 30
0.0
  0
LWPOLYLINE
  5
130
100
AcDbEntity
  8
Layer_1
 62
1
100
AcDbPolyline
 90
2
 70
0
 10
167.169755
 20
157.922188
 30
0.0
 10
167.169755
 20
161.026632
 30
0.0
  0
LWPOLYLINE
  5
131
100
AcDbEntity
  8
Layer_1
 62
7
100
AcDbPolyline
 90
246
 70
1
 10
85.301767
 20
162.297459
 30
0.0
 10
86.520779
 20
162.072982
 30
0.0
 10
87.464440
 20
161.437302
 30
0.0
 10
88.157913
 20
160.442059
 30
0.0
 10
88.626363
 20
159.138881
 30
0.0
 10
88.894947
 20
157.579402
 30
0.0
 10
88.988832
 20
155.815253
 30
0.0
 10
88.753141
 20
151.879483
 30
0.0
 10
88.120586
 20
147.744630
 30
0.0
 10
87.292465
 20
143.823759
 30
0.0
 10
85.854704
 20
138.276198
 30
0.0
 10
84.397980
 20
132.321746
 30
0.0
 10
83.507668
 20
127.061919
 30
0.0
 10
83.118580
 20
122.437196
 30
0.0
 10
83.165528
 20
118.388036
 30
0.0
 10
83.583323
 20
114.854914
 30
0.0
 10
84.306786
 20
111.778298
 30
0.0
 10
85.270723
 20
109.098657
 30
0.0
 10
86.409950
 20
106.756459
 30
0.0
 10
87.659283
 20
104.692176
 30
0.0
 10
88.953531
 20
102.846274
 30
0.0
 10
91.416030
 20
99.571496
 30
0.0
 10
92.453911
 20
98.023558
 30
0.0
 10
93.275960
 20
96.455878
 30
0.0
 10
93.816993
 20
94.808927
 30
0.0
 10
94.011825
 20
93.023174
 30
0.0
 10
93.869593
 20
91.222642
 30
0.0
 10
93.470411
 20
89.561608
 30
0.0
 10
92.855543
 20
88.025906
 30
0.0
 10
92.066257
 20
86.601377
 30
0.0
 10
90.129500
 20
84.029181
 30
0.0
 10
87.990273
 20
81.731726
 30
0.0
 10
85.978716
 20
79.595704
 30
0.0
 10
84.424962
 20
77.507851
 30
0.0
 10
83.922928
 20
76.446556
 30
0.0
 10
83.659147
 20
75.354832
 30
0.0
 10
83.674890
 20
74.218500
 30
0.0
 10
84.011413
 20
73.023379
 30
0.0
 10
84.320486
 20
72.511569
 30
0.0
 10
84.774140
 20
72.099851
 30
0.0
 10
86.084073
 20
71.554809
 30
0.0
 10
87.878944
 20
71.344254
 30
0.0
 10
90.096488
 20
71.424132
 30
0.0
 10
92.674444
 20
71.750495
 30
0.0
 10
95.550545
 20
72.279318
 30
0.0
 10
101.948126
 20
73.768365
 30
0.0
 10
115.581391
 20
77.240014
 30
0.0
 10
121.820840
 20
78.518586
 30
0.0
 10
124.578342
 20
78.889558
 30
0.0
 10
127.011345
 20
79.023014
 30
0.0
 10
129.192490
 20
78.864661
 30
0.0
 10
131.228788
 20
78.412223
 30
0.0
 10
133.109531
 20
77.699568
 30
0.0
 10
134.824011
 20
76.760563
 30
0.0
 10
136.361520
 20
75.629099
 30
0.0
 10
137.711348
 20
74.339044
 30
0.0
 10
138.862794
 20
72.924266
 30
0.0
 10
139.805144
 20
71.418628
 30
0.0
 10
140.527689
 20
69.856052
 30
0.0
 10
141.019724
 20
68.270353
 30
0.0
 10
141.270540
 20
66.695474
 30
0.0
 10
141.269482
 20
65.165231
 30
0.0
 10
141.005737
 20
63.713516
 30
0.0
 10
140.468650
 20
62.374222
 30
0.0
 10
139.647513
 20
61.181217
 30
0.0
 10
138.531617
 20
60.168339
 30
0.0
 10
137.628933
 20
59.728761
 30
0.0
 10
136.210350
 20
59.320694
 30
0.0
 10
131.961155
 20
58.594520
 30
0.0
 10
126.055412
 20
57.980634
 30
0.0
 10
118.764500
 20
57.469776
 30
0.0
 10
101.112668
 20
56.720397
 30
0.0
 10
81.176682
 20
56.272643
 30
0.0
 10
61.127566
 20
56.052748
 30
0.0
 10
43.136346
 20
55.986999
 30
0.0
 10
22.011662
 20
56.022876
 30
0.0
 10
18.677086
 20
56.255842
 30
0.0
 10
15.591086
 20
56.912670
 30
0.0
 10
12.814090
 20
57.930178
 30
0.0
 10
10.406514
 20
59.245235
 30
0.0
 10
8.428779
 20
60.794661
 30
0.0
 10
6.941305
 20
62.515299
 30
0.0
 10
6.004511
 20
64.343991
 30
0.0
 10
5.761502
 20
65.279134
 30
0.0
 10
5.678820
 20
66.217584
 30
0.0
 10
5.899374
 20
68.582403
 30
0.0
 10
6.482171
 20
71.757639
 30
0.0
 10
8.261285
 20
79.183827
 30
0.0
 10
10.961181
 20
88.849786
 30
0.0
 10
10.912091
 20
89.800117
 30
0.0
 10
11.039604
 20
90.159638
 30
0.0
 10
11.385446
 20
90.320496
 30
0.0
 10
16.633702
 20
90.542707
 30
0.0
 10
16.539648
 20
93.051079
 30
0.0
 10
16.545336
 20
93.507898
 30
0.0
 10
15.685441
 20
93.548205
 30
0.0
 10
15.337991
 20
93.711024
 30
0.0
 10
15.206398
 20
94.071688
 30
0.0
 10
15.276160
 20
95.818349
 30
0.0
 10
15.436503
 20
96.164974
 30
0.0
 10
15.796029
 20
96.294289
 30
0.0
 10
16.620266
 20
96.255531
 30
0.0
 10
16.835240
 20
99.212457
 30
0.0
 10
15.984127
 20
99.327177
 30
0.0
 10
15.651981
 20
99.519416
 30
0.0
 10
15.552113
 20
99.889933
 30
0.0
 10
15.774323
 20
101.624194
 30
0.0
 10
15.964151
 20
101.955574
 30
0.0
 10
16.333463
 20
102.053106
 30
0.0
 10
17.150980
 20
101.942521
 30
0.0
 10
17.616589
 20
104.870504
 30
0.0
 10
16.785112
 20
105.057573
 30
0.0
 10
16.470962
 20
105.278103
 30
0.0
 10
16.403740
 20
105.655986
 30
0.0
 10
16.776328
 20
107.364408
 30
0.0
 10
16.994254
 20
107.678100
 30
0.0
 10
17.370606
 20
107.743196
 30
0.0
 10
18.173140
 20
107.562329
 30
0.0
 10
18.896092
 20
110.437605
 30
0.0
 10
18.082708
 20
110.697021
 30
0.0
 10
17.789041
 20
110.943853
 30
0.0
 10
17.755077
 20
111.325922
 30
0.0
 10
18.274943
 20
112.995587
 30
0.0
 10
18.519257
 20
113.288838
 30
0.0
 10
18.899714
 20
113.320630
 30
0.0
 10
19.677957
 20
113.072583
 30
0.0
 10
20.649992
 20
115.873962
 30
0.0
 10
19.866577
 20
116.201589
 30
0.0
 10
19.595674
 20
116.473176
 30
0.0
 10
19.595144
 20
116.856848
 30
0.0
 10
20.258153
 20
118.474319
 30
0.0
 10
20.527292
 20
118.745358
 30
0.0
 10
20.909276
 20
118.744035
 30
0.0
 10
21.664267
 20
118.428292
 30
0.0
 10
22.873497
 20
121.135618
 30
0.0
 10
22.123671
 20
121.529392
 30
0.0
 10
21.877339
 20
121.823572
 30
0.0
 10
21.910247
 20
122.205837
 30
0.0
 10
22.711750
 20
123.759746
 30
0.0
 10
23.003565
 20
124.006245
 30
0.0
 10
23.384057
 20
123.971619
 30
0.0
 10
24.103912
 20
123.593866
 30
0.0
 10
25.548269
 20
126.183887
 30
0.0
 10
24.836167
 20
126.640706
 30
0.0
 10
24.616499
 20
126.955231
 30
0.0
 10
24.682687
 20
127.333170
 30
0.0
 10
25.616997
 20
128.811116
 30
0.0
 10
25.928983
 20
129.031231
 30
0.0
 10
26.304810
 20
128.963561
 30
0.0
 10
26.987971
 20
128.525345
 30
0.0
 10
28.647818
 20
130.983074
 30
0.0
 10
27.984291
 20
131.495704
 30
0.0
 10
27.792635
 20
131.828235
 30
0.0
 10
27.891274
 20
132.199019
 30
0.0
 10
28.950642
 20
133.590149
 30
0.0
 10
29.280717
 20
133.782268
 30
0.0
 10
29.649306
 20
133.682132
 30
0.0
 10
30.291127
 20
133.186039
 30
0.0
 10
32.162330
 20
135.487706
 30
0.0
 10
31.543247
 20
136.058213
 30
0.0
 10
31.381481
 20
136.406310
 30
0.0
 10
31.512241
 20
136.767215
 30
0.0
 10
32.688911
 20
138.060155
 30
0.0
 10
33.034380
 20
138.222911
 30
0.0
 10
33.392745
 20
138.091162
 30
0.0
 10
33.983922
 20
137.545977
 30
0.0
 10
36.050978
 20
139.672978
 30
0.0
 10
35.486156
 20
140.293095
 30
0.0
 10
35.355396
 20
140.653963
 30
0.0
 10
35.517163
 20
141.002095
 30
0.0
 10
36.801839
 20
142.187552
 30
0.0
 10
37.160419
 20
142.319558
 30
0.0
 10
37.506185
 20
142.157062
 30
0.0
 10
38.049821
 20
141.560199
 30
0.0
 10
40.290511
 20
143.503232
 30
0.0
 10
39.783567
 20
144.168307
 30
0.0
 10
39.684665
 20
144.539056
 30
0.0
 10
39.876068
 20
144.871624
 30
0.0
 10
41.259443
 20
145.940808
 30
0.0
 10
41.627994
 20
146.040950
 30
0.0
 10
41.958109
 20
145.848823
 30
0.0
 10
42.445416
 20
145.209587
 30
0.0
 10
44.849919
 20
146.946431
 30
0.0
 10
44.402402
 20
147.653880
 30
0.0
 10
44.336207
 20
148.031782
 30
0.0
 10
44.555882
 20
148.346345
 30
0.0
 10
46.027108
 20
149.290989
 30
0.0
 10
46.402898
 20
149.358670
 30
0.0
 10
46.714924
 20
149.138544
 30
0.0
 10
47.143840
 20
148.460550
 30
0.0
 10
49.688383
 20
149.985520
 30
0.0
 10
49.307013
 20
150.723977
 30
0.0
 10
49.274094
 20
151.106205
 30
0.0
 10
49.520437
 20
151.400421
 30
0.0
 10
51.068145
 20
152.213289
 30
0.0
 10
51.448603
 20
152.247928
 30
0.0
 10
51.740454
 20
152.001416
 30
0.0
 10
52.108906
 20
151.287766
 30
0.0
 10
54.777477
 20
152.583293
 30
0.0
 10
54.460700
 20
153.354823
 30
0.0
 10
54.460964
 20
153.738458
 30
0.0
 10
54.731879
 20
154.010079
 30
0.0
 10
56.345217
 20
154.684973
 30
0.0
 10
56.727164
 20
154.686296
 30
0.0
 10
56.996340
 20
154.415241
 30
0.0
 10
57.299164
 20
153.677302
 30
0.0
 10
60.071601
 20
154.731500
 30
0.0
 10
59.824073
 20
155.526283
 30
0.0
 10
59.858019
 20
155.908580
 30
0.0
 10
60.151701
 20
156.155700
 30
0.0
 10
61.817232
 20
156.687452
 30
0.0
 10
62.197913
 20
156.655419
 30
0.0
 10
62.442515
 20
156.361890
 30
0.0
 10
62.680744
 20
155.597596
 30
0.0
 10
65.533281
 20
156.410984
 30
0.0
 10
65.356548
 20
157.222304
 30
0.0
 10
65.423490
 20
157.600153
 30
0.0
 10
65.737402
 20
157.820715
 30
0.0
 10
67.443241
 20
158.205189
 30
0.0
 10
67.819557
 20
158.140115
 30
0.0
 10
68.037518
 20
157.826401
 30
0.0
 10
68.208050
 20
157.045571
 30
0.0
 10
71.121566
 20
157.603675
 30
0.0
 10
71.015630
 20
158.429464
 30
0.0
 10
71.115219
 20
158.799947
 30
0.0
 10
71.447128
 20
158.992220
 30
0.0
 10
73.179839
 20
159.226831
 30
0.0
 10
73.549116
 20
159.129319
 30
0.0
 10
73.738976
 20
158.797915
 30
0.0
 10
73.840780
 20
158.006235
 30
0.0
 10
76.792018
 20
158.310609
 30
0.0
 10
76.758428
 20
159.138981
 30
0.0
 10
76.889999
 20
159.499357
 30
0.0
 10
77.237470
 20
159.661946
 30
0.0
 10
78.427576
 20
159.718273
 30
0.0
 10
79.056995
 20
159.718273
 30
0.0
 10
79.366000
 20
159.576002
 30
0.0
 10
79.503480
 20
159.268172
 30
0.0
 10
79.536034
 20
158.468222
 30
0.0
 10
82.009267
 20
158.520413
 30
0.0
 10
82.509494
 20
158.501813
 30
0.0
 10
82.564789
 20
159.718276
 30
0.0
 10
83.317198
 20
159.718276
 30
0.0
 10
84.945003
 20
162.282461
 30
0.0
 10
85.301571
 20
162.297435
 30
0.0
 10
85.301767
 20
162.297459
 30
0.0
  0
LWPOLYLINE
  5
132
100
AcDbEntity
  8
Layer_1
 62
7
100
AcDbPolyline
 90
65
 70
1
 10
57.023405
 20
139.495763
 30
0.0
 10
54.783211
 20
139.382630
 30
0.0
 10
52.607731
 20
139.050604
 30
0.0
 10
50.507975
 20
138.510693
 30
0.0
 10
48.494954
 20
137.773913
 30
0.0
 10
46.579690
 20
136.851278
 30
0.0
 10
44.773189
 20
135.753794
 30
0.0
 10
43.086464
 20
134.492484
 30
0.0
 10
41.530532
 20
133.078359
 30
0.0
 10
40.116404
 20
131.522424
 30
0.0
 10
38.855094
 20
129.835701
 30
0.0
 10
37.757613
 20
128.029198
 30
0.0
 10
36.834975
 20
126.113934
 30
0.0
 10
36.098195
 20
124.100916
 30
0.0
 10
35.558284
 20
122.001160
 30
0.0
 10
35.226256
 20
119.825677
 30
0.0
 10
35.113125
 20
117.585484
 30
0.0
 10
35.220303
 20
115.419892
 30
0.0
 10
35.537948
 20
113.290973
 30
0.0
 10
36.060106
 20
111.213101
 30
0.0
 10
36.780831
 20
109.200641
 30
0.0
 10
37.694166
 20
107.267962
 30
0.0
 10
38.794165
 20
105.429431
 30
0.0
 10
40.074878
 20
103.699412
 30
0.0
 10
41.530350
 20
102.092278
 30
0.0
 10
43.137452
 20
100.636767
 30
0.0
 10
44.867437
 20
99.356014
 30
0.0
 10
46.705944
 20
98.255972
 30
0.0
 10
48.638602
 20
97.342590
 30
0.0
 10
50.651046
 20
96.621817
 30
0.0
 10
52.728904
 20
96.099612
 30
0.0
 10
54.857815
 20
95.781916
 30
0.0
 10
57.023405
 20
95.674688
 30
0.0
 10
59.189031
 20
95.781868
 30
0.0
 10
61.317979
 20
96.099522
 30
0.0
 10
63.395880
 20
96.621698
 30
0.0
 10
65.408366
 20
97.342441
 30
0.0
 10
67.341067
 20
98.255806
 30
0.0
 10
69.179618
 20
99.355834
 30
0.0
 10
70.909651
 20
100.636584
 30
0.0
 10
72.516793
 20
102.092093
 30
0.0
 10
73.972304
 20
103.699237
 30
0.0
 10
75.253054
 20
105.429270
 30
0.0
 10
76.353084
 20
107.267822
 30
0.0
 10
77.266447
 20
109.200522
 30
0.0
 10
77.987193
 20
111.213008
 30
0.0
 10
78.509366
 20
113.290909
 30
0.0
 10
78.827020
 20
115.419857
 30
0.0
 10
78.934200
 20
117.585484
 30
0.0
 10
78.826972
 20
119.751075
 30
0.0
 10
78.509276
 20
121.879984
 30
0.0
 10
77.987071
 20
123.957842
 30
0.0
 10
77.266299
 20
125.970286
 30
0.0
 10
76.352916
 20
127.902944
 30
0.0
 10
75.252871
 20
129.741451
 30
0.0
 10
73.972122
 20
131.471439
 30
0.0
 10
72.516610
 20
133.078539
 30
0.0
 10
70.909476
 20
134.534010
 30
0.0
 10
69.179457
 20
135.814723
 30
0.0
 10
67.340926
 20
136.914722
 30
0.0
 10
65.408247
 20
137.828057
 30
0.0
 10
63.395785
 20
138.548782
 30
0.0
 10
61.317915
 20
139.070943
 30
0.0
 10
59.188999
 20
139.388585
 30
0.0
 10
57.023405
 20
139.495763
 30
0.0
  0
LWPOLYLINE
  5
133
100
AcDbEntity
  8
Layer_1
 62
7
100
AcDbPolyline
 90
33
 70
1
 10
82.011530
 20
100.522969
 30
0.0
 10
80.500077
 20
100.370567
 30
0.0
 10
79.092307
 20
99.933547
 30
0.0
 10
77.818370
 20
99.242061
 30
0.0
 10
76.708430
 20
98.326273
 30
0.0
 10
75.792642
 20
97.216333
 30
0.0
 10
75.101157
 20
95.942399
 30
0.0
 10
74.664136
 20
94.534626
 30
0.0
 10
74.511734
 20
93.023174
 30
0.0
 10
74.657114
 20
91.553144
 30
0.0
 10
75.082525
 20
90.152999
 30
0.0
 10
75.771669
 20
88.862082
 30
0.0
 10
76.708248
 20
87.719741
 30
0.0
 10
77.850525
 20
86.783083
 30
0.0
 10
79.141392
 20
86.093851
 30
0.0
 10
80.541511
 20
85.668343
 30
0.0
 10
82.011530
 20
85.522859
 30
0.0
 10
83.481623
 20
85.668256
 30
0.0
 10
84.881823
 20
86.093703
 30
0.0
 10
86.172780
 20
86.782903
 30
0.0
 10
87.315145
 20
87.719558
 30
0.0
 10
88.251800
 20
88.861923
 30
0.0
 10
88.941000
 20
90.152880
 30
0.0
 10
89.366447
 20
91.553080
 30
0.0
 10
89.511844
 20
93.023174
 30
0.0
 10
89.366360
 20
94.493196
 30
0.0
 10
88.940852
 20
95.893311
 30
0.0
 10
88.251618
 20
97.184178
 30
0.0
 10
87.314962
 20
98.326455
 30
0.0
 10
86.172622
 20
99.263034
 30
0.0
 10
84.881704
 20
99.952176
 30
0.0
 10
83.481559
 20
100.377586
 30
0.0
 10
82.011530
 20
100.522969
 30
0.0
  0
LWPOLYLINE
  5
134
100
AcDbEntity
  8
Layer_1
 62
7
100
AcDbPolyline
 90
5
 70
1
 10
74.011505
 20
86.023088
 30
0.0
 10
68.011875
 20
86.023088
 30
0.0
 10
68.011875
 20
83.023273
 30
0.0
 10
74.011505
 20
83.023273
 30
0.0
 10
74.011505
 20
86.023088
 30
0.0
  0
LWPOLYLINE
  5
135
100
AcDbEntity
  8
Layer_1
 62
7
100
AcDbPolyline
 90
5
 70
1
 10
60.011850
 20
86.023088
 30
0.0
 10
54.011705
 20
86.023088
 30
0.0
 10
54.011705
 20
83.023273
 30
0.0
 10
60.011850
 20
83.023273
 30
0.0
 10
60.011850
 20
86.023088
 30
0.0
  0
LWPOLYLINE
  5
136
100
AcDbEntity
  8
Layer_1
 62
7
100
AcDbPolyline
 90
17
 70
1
 10
47.041591
 20
85.724914
 30
0.0
 10
46.658988
 20
85.648711
 30
0.0
 10
46.334657
 20
85.431909
 30
0.0
 10
46.117823
 20
85.107456
 30
0.0
 10
46.041678
 20
84.724717
 30
0.0
 10
46.117823
 20
84.341979
 30
0.0
 10
46.334657
 20
84.017527
 30
0.0
 10
46.659110
 20
83.800693
 30
0.0
 10
47.041851
 20
83.724548
 30
0.0
 10
47.424589
 20
83.800693
 30
0.0
 10
47.749042
 20
84.017527
 30
0.0
 10
47.965879
 20
84.341979
 30
0.0
 10
48.042020
 20
84.724717
 30
0.0
 10
47.965879
 20
85.107456
 30
0.0
 10
47.749042
 20
85.431909
 30
0.0
 10
47.424472
 20
85.648809
 30
0.0
 10
47.041591
 20
85.724914
 30
0.0
  0
LWPOLYLINE
  5
137
100
AcDbEntity
  8
Layer_1
 62
7
100
AcDbPolyline
 90
33
 70
1
 10
29.010660
 20
82.607277
 30
0.0
 10
28.108973
 20
82.518144
 30
0.0
 10
27.250147
 20
82.257236
 30
0.0
 10
26.458322
 20
81.834546
 30
0.0
 10
25.757631
 20
81.260072
 30
0.0
 10
25.183144
 20
80.559453
 30
0.0
 10
24.760417
 20
79.767710
 30
0.0
 10
24.499453
 20
78.908925
 30
0.0
 10
24.410241
 20
78.007305
 30
0.0
 10
24.499453
 20
77.105658
 30
0.0
 10
24.760417
 20
76.246901
 30
0.0
 10
25.183144
 20
75.455162
 30
0.0
 10
25.757631
 20
74.754519
 30
0.0
 10
26.458249
 20
74.180030
 30
0.0
 10
27.250007
 20
73.757305
 30
0.0
 10
28.108767
 20
73.496347
 30
0.0
 10
29.010403
 20
73.407129
 30
0.0
 10
29.912036
 20
73.496347
 30
0.0
 10
30.770799
 20
73.757305
 30
0.0
 10
31.562554
 20
74.180030
 30
0.0
 10
32.263173
 20
74.754519
 30
0.0
 10
32.837663
 20
75.455162
 30
0.0
 10
33.260387
 20
76.246901
 30
0.0
 10
33.521354
 20
77.105658
 30
0.0
 10
33.610563
 20
78.007305
 30
0.0
 10
33.521354
 20
78.908925
 30
0.0
 10
33.260387
 20
79.767710
 30
0.0
 10
32.837663
 20
80.559453
 30
0.0
 10
32.263173
 20
81.260072
 30
0.0
 10
31.562594
 20
81.834474
 30
0.0
 10
30.770897
 20
82.257138
 30
0.0
 10
29.912212
 20
82.518070
 30
0.0
 10
29.010660
 20
82.607277
 30
0.0
  0
LWPOLYLINE
  5
138
100
AcDbEntity
  8
Layer_1
 62
7
100
AcDbPolyline
 90
33
 70
1
 10
66.511709
 20
77.023136
 30
0.0
 10
65.041680
 20
76.877746
 30
0.0
 10
63.641535
 20
76.452324
 30
0.0
 10
62.350617
 20
75.763190
 30
0.0
 10
61.208277
 20
74.826618
 30
0.0
 10
60.271618
 20
73.684333
 30
0.0
 10
59.582387
 20
72.393459
 30
0.0
 10
59.156879
 20
70.993337
 30
0.0
 10
59.011395
 20
69.523339
 30
0.0
 10
59.156791
 20
68.053236
 30
0.0
 10
59.582239
 20
66.653035
 30
0.0
 10
60.271438
 20
65.362081
 30
0.0
 10
61.208095
 20
64.219717
 30
0.0
 10
62.350457
 20
63.283065
 30
0.0
 10
63.641413
 20
62.593853
 30
0.0
 10
65.041614
 20
62.168403
 30
0.0
 10
66.511709
 20
62.023015
 30
0.0
 10
67.981728
 20
62.168508
 30
0.0
 10
69.381847
 20
62.594012
 30
0.0
 10
70.672714
 20
63.283251
 30
0.0
 10
71.814991
 20
64.219902
 30
0.0
 10
72.751571
 20
65.362240
 30
0.0
 10
73.440712
 20
66.653141
 30
0.0
 10
73.866122
 20
68.053289
 30
0.0
 10
74.011505
 20
69.523339
 30
0.0
 10
73.859102
 20
71.034771
 30
0.0
 10
73.422082
 20
72.442565
 30
0.0
 10
72.730597
 20
73.716480
 30
0.0
 10
71.814809
 20
74.826433
 30
0.0
 10
70.704866
 20
75.742209
 30
0.0
 10
69.430933
 20
76.433697
 30
0.0
 10
68.023162
 20
76.870736
 30
0.0
 10
66.511709
 20
77.023136
 30
0.0
  0
LWPOLYLINE
  5
139
100
AcDbEntity
  8
Layer_1
 62
7
100
AcDbPolyline
 90
5
 70
1
 10
137.011759
 20
65.023335
 30
0.0
 10
131.011610
 20
65.023335
 30
0.0
 10
131.011610
 20
62.023015
 30
0.0
 10
137.011759
 20
62.023015
 30
0.0
 10
137.011759
 20
65.023335
 30
0.0
  0
LWPOLYLINE
  5
13a
100
AcDbEntity
  8
Layer_1
 62
7
100
AcDbPolyline
 90
5
 70
1
 10
113.011685
 20
65.023335
 30
0.0
 10
107.011540
 20
65.023335
 30
0.0
 10
107.011540
 20
62.023015
 30
0.0
 10
113.011685
 20
62.023015
 30
0.0
 10
113.011685
 20
65.023335
 30
0.0
  0
LWPOLYLINE
  5
13b
100
AcDbEntity
  8
Layer_1
 62
7
100
AcDbPolyline
 90
5
 70
1
 10
79.011715
 20
65.023335
 30
0.0
 10
73.011565
 20
65.023335
 30
0.0
 10
73.011565
 20
62.023015
 30
0.0
 10
79.011715
 20
62.023015
 30
0.0
 10
79.011715
 20
65.023335
 30
0.0
  0
LWPOLYLINE
  5
13c
100
AcDbEntity
  8
Layer_1
 62
7
100
AcDbPolyline
 90
5
 70
1
 10
60.011850
 20
65.023335
 30
0.0
 10
54.011705
 20
65.023335
 30
0.0
 10
54.011705
 20
62.023015
 30
0.0
 10
60.011850
 20
62.023015
 30
0.0
 10
60.011850
 20
65.023335
 30
0.0
  0
LWPOLYLINE
  5
13d
100
AcDbEntity
  8
Layer_1
 62
7
100
AcDbPolyline
 90
5
 70
1
 10
15.011521
 20
65.023335
 30
0.0
 10
9.011892
 20
65.023335
 30
0.0
 10
9.011892
 20
62.023015
 30
0.0
 10
15.011521
 20
62.023015
 30
0.0
 10
15.011521
 20
65.023335
 30
0.0
  0
LWPOLYLINE
  5
13e
100
AcDbEntity
  8
Layer_1
 62
7
100
AcDbPolyline
 90
17
 70
1
 10
22.293245
 20
60.976059
 30
0.0
 10
21.910364
 20
60.899939
 30
0.0
 10
21.585794
 20
60.683060
 30
0.0
 10
21.366254
 20
60.352304
 30
0.0
 10
21.293075
 20
59.976120
 30
0.0
 10
21.366254
 20
59.599909
 30
0.0
 10
21.585794
 20
59.269180
 30
0.0
 10
21.910247
 20
59.052355
 30
0.0
 10
22.292986
 20
58.976207
 30
0.0
 10
22.675727
 20
59.052355
 30
0.0
 10
23.000180
 20
59.269180
 30
0.0
 10
23.219718
 20
59.599909
 30
0.0
 10
23.292898
 20
59.976120
 30
0.0
 10
23.219718
 20
60.352304
 30
0.0
 10
23.000180
 20
60.683060
 30
0.0
 10
22.675848
 20
60.899859
 30
0.0
 10
22.293245
 20
60.976059
 30
0.0
  0
LWPOLYLINE
  5
13f
100
AcDbEntity
  8
Layer_1
 62
1
100
AcDbPolyline
 90
17
 70
1
 10
80.711899
 20
154.970252
 30
0.0
 10
80.154383
 20
154.780458
 30
0.0
 10
79.774797
 20
154.222939
 30
0.0
 10
79.590930
 20
153.285833
 30
0.0
 10
79.590930
 20
152.728316
 30
0.0
 10
79.774797
 20
151.791210
 30
0.0
 10
80.154383
 20
151.230728
 30
0.0
 10
80.711899
 20
151.043898
 30
0.0
 10
81.085557
 20
151.043898
 30
0.0
 10
81.649006
 20
151.230728
 30
0.0
 10
82.016729
 20
151.791210
 30
0.0
 10
82.206525
 20
152.728316
 30
0.0
 10
82.206525
 20
153.285833
 30
0.0
 10
82.016729
 20
154.222939
 30
0.0
 10
81.649006
 20
154.780458
 30
0.0
 10
81.085557
 20
154.970252
 30
0.0
 10
80.711899
 20
154.970252
 30
0.0
  0
LWPOLYLINE
  5
140
100
AcDbEntity
  8
Layer_1
 62
1
100
AcDbPolyline
 90
4
 70
0
 10
67.410853
 20
152.524566
 30
0.0
 10
67.741061
 20
152.769491
 30
0.0
 10
68.198113
 20
153.422223
 30
0.0
 10
68.879920
 20
149.555522
 30
0.0
  0
LWPOLYLINE
  5
141
100
AcDbEntity
  8
Layer_1
 62
1
100
AcDbPolyline
 90
17
 70
1
 10
71.509935
 20
154.006190
 30
0.0
 10
70.993844
 20
153.722467
 30
0.0
 10
70.716836
 20
153.107504
 30
0.0
 10
70.698500
 20
152.152707
 30
0.0
 10
70.795314
 20
151.603658
 30
0.0
 10
71.139113
 20
150.712719
 30
0.0
 10
71.610262
 20
150.226667
 30
0.0
 10
72.191752
 20
150.139487
 30
0.0
 10
72.559732
 20
150.204373
 30
0.0
 10
73.082176
 20
150.486204
 30
0.0
 10
73.346986
 20
151.102027
 30
0.0
 10
73.371168
 20
152.057852
 30
0.0
 10
73.274355
 20
152.606902
 30
0.0
 10
72.924716
 20
153.496812
 30
0.0
 10
72.465768
 20
153.982004
 30
0.0
 10
71.877925
 20
154.071074
 30
0.0
 10
71.509935
 20
154.006190
 30
0.0
  0
LWPOLYLINE
  5
142
100
AcDbEntity
  8
Layer_1
 62
1
100
AcDbPolyline
 90
14
 70
0
 10
57.327974
 20
149.049425
 30
0.0
 10
57.263061
 20
149.227772
 30
0.0
 10
57.315639
 20
149.638234
 30
0.0
 10
57.429074
 20
149.881494
 30
0.0
 10
57.709710
 20
150.185611
 30
0.0
 10
58.411953
 20
150.441207
 30
0.0
 10
58.833561
 20
150.392685
 30
0.0
 10
59.071246
 20
150.277223
 30
0.0
 10
59.369789
 20
149.994558
 30
0.0
 10
59.499617
 20
149.637866
 30
0.0
 10
59.452611
 20
149.229431
 30
0.0
 10
59.294200
 20
148.572164
 30
0.0
 10
58.177583
 20
146.177568
 30
0.0
 10
60.635433
 20
147.072153
 30
0.0
  0
LWPOLYLINE
  5
143
100
AcDbEntity
  8
Layer_1
 62
1
100
AcDbPolyline
 90
17
 70
1
 10
61.399283
 20
151.528505
 30
0.0
 10
60.940299
 20
151.159476
 30
0.0
 10
60.774287
 20
150.505754
 30
0.0
 10
60.922022
 20
149.562280
 30
0.0
 10
61.112705
 20
149.038384
 30
0.0
 10
61.605986
 20
148.220676
 30
0.0
 10
62.154379
 20
147.823823
 30
0.0
 10
62.742171
 20
147.838956
 30
0.0
 10
63.093294
 20
147.966753
 30
0.0
 10
63.558863
 20
148.335026
 30
0.0
 10
63.712716
 20
148.987478
 30
0.0
 10
63.570555
 20
149.932979
 30
0.0
 10
63.379872
 20
150.456878
 30
0.0
 10
62.881017
 20
151.272553
 30
0.0
 10
62.344787
 20
151.670680
 30
0.0
 10
61.750403
 20
151.656312
 30
0.0
 10
61.399283
 20
151.528505
 30
0.0
  0
LWPOLYLINE
  5
144
100
AcDbEntity
  8
Layer_1
 62
1
100
AcDbPolyline
 90
15
 70
0
 10
47.239418
 20
144.968803
 30
0.0
 10
49.016628
 20
145.994875
 30
0.0
 10
48.798288
 20
144.142974
 30
0.0
 10
49.281113
 20
144.421732
 30
0.0
 10
49.699607
 20
144.444196
 30
0.0
 10
49.953734
 20
144.371761
 30
0.0
 10
50.396858
 20
143.983835
 30
0.0
 10
50.583686
 20
143.660239
 30
0.0
 10
50.699562
 20
143.079947
 30
0.0
 10
50.567932
 20
142.572489
 30
0.0
 10
50.173383
 20
142.128966
 30
0.0
 10
49.685423
 20
141.847240
 30
0.0
 10
49.109182
 20
141.730279
 30
0.0
 10
48.851403
 20
141.797181
 30
0.0
 10
48.505344
 20
142.028845
 30
0.0
  0
LWPOLYLINE
  5
145
100
AcDbEntity
  8
Layer_1
 62
1
100
AcDbPolyline
 90
17
 70
1
 10
51.122676
 20
147.210802
 30
0.0
 10
50.734747
 20
146.767676
 30
0.0
 10
50.684775
 20
146.095057
 30
0.0
 10
50.994096
 20
145.191569
 30
0.0
 10
51.272859
 20
144.708742
 30
0.0
 10
51.900638
 20
143.989116
 30
0.0
 10
52.509613
 20
143.693515
 30
0.0
 10
53.085854
 20
143.810477
 30
0.0
 10
53.409450
 20
143.997306
 30
0.0
 10
53.803996
 20
144.440827
 30
0.0
 10
53.842213
 20
145.110085
 30
0.0
 10
53.538026
 20
146.016540
 30
0.0
 10
53.259267
 20
146.499364
 30
0.0
 10
52.626349
 20
147.216025
 30
0.0
 10
52.029130
 20
147.514987
 30
0.0
 10
51.446272
 20
147.397630
 30
0.0
 10
51.122676
 20
147.210802
 30
0.0
  0
LWPOLYLINE
  5
146
100
AcDbEntity
  8
Layer_1
 62
1
100
AcDbPolyline
 90
3
 70
0
 10
39.760479
 20
139.182621
 30
0.0
 10
40.014376
 20
135.973512
 30
0.0
 10
42.163426
 20
137.776776
 30
0.0
  0
LWPOLYLINE
  5
147
100
AcDbEntity
  8
Layer_1
 62
1
100
AcDbPolyline
 90
2
 70
0
 10
39.760479
 20
139.182621
 30
0.0
 10
42.284290
 20
136.174860
 30
0.0
  0
LWPOLYLINE
  5
148
100
AcDbEntity
  8
Layer_1
 62
1
100
AcDbPolyline
 90
17
 70
1
 10
42.050171
 20
141.103899
 30
0.0
 10
41.745085
 20
140.600143
 30
0.0
 10
41.812670
 20
139.929065
 30
0.0
 10
42.274183
 20
139.093017
 30
0.0
 10
42.632548
 20
138.665932
 30
0.0
 10
43.375754
 20
138.066254
 30
0.0
 10
44.026806
 20
137.880889
 30
0.0
 10
44.573983
 20
138.096138
 30
0.0
 10
44.860219
 20
138.336319
 30
0.0
 10
45.171755
 20
138.841618
 30
0.0
 10
45.093176
 20
139.507341
 30
0.0
 10
44.636208
 20
140.347202
 30
0.0
 10
44.277843
 20
140.774287
 30
0.0
 10
43.530094
 20
141.370154
 30
0.0
 10
42.890032
 20
141.560868
 30
0.0
 10
42.336408
 20
141.344080
 30
0.0
 10
42.050171
 20
141.103899
 30
0.0
  0
LWPOLYLINE
  5
149
100
AcDbEntity
  8
Layer_1
 62
1
100
AcDbPolyline
 90
17
 70
0
 10
32.879938
 20
131.764097
 30
0.0
 10
31.679029
 20
130.332910
 30
0.0
 10
32.847373
 20
129.104798
 30
0.0
 10
32.823984
 20
129.372186
 30
0.0
 10
33.041503
 20
129.917455
 30
0.0
 10
33.403682
 20
130.349079
 30
0.0
 10
33.906706
 20
130.662523
 30
0.0
 10
34.433855
 20
130.700223
 30
0.0
 10
34.982937
 20
130.487247
 30
0.0
 10
35.269174
 20
130.247066
 30
0.0
 10
35.576532
 20
129.741404
 30
0.0
 10
35.626401
 20
129.219529
 30
0.0
 10
35.407342
 20
128.667812
 30
0.0
 10
35.045162
 20
128.236184
 30
0.0
 10
34.543679
 20
127.929191
 30
0.0
 10
34.278564
 20
127.903897
 30
0.0
 10
33.874140
 20
128.003232
 30
0.0
  0
LWPOLYLINE
  5
14a
100
AcDbEntity
  8
Layer_1
 62
1
100
AcDbPolyline
 90
17
 70
1
 10
34.561393
 20
133.767978
 30
0.0
 10
34.348419
 20
133.218900
 30
0.0
 10
34.531508
 20
132.569753
 30
0.0
 10
35.131188
 20
131.826546
 30
0.0
 10
35.558273
 20
131.468179
 30
0.0
 10
36.394322
 20
131.006666
 30
0.0
 10
37.067671
 20
130.937176
 30
0.0
 10
37.569156
 20
131.244170
 30
0.0
 10
37.809336
 20
131.530406
 30
0.0
 10
38.028395
 20
132.082123
 30
0.0
 10
37.835408
 20
132.724090
 30
0.0
 10
37.239540
 20
133.471839
 30
0.0
 10
36.812459
 20
133.830206
 30
0.0
 10
35.972598
 20
134.287175
 30
0.0
 10
35.309145
 20
134.363846
 30
0.0
 10
34.801576
 20
134.054217
 30
0.0
 10
34.561393
 20
133.767978
 30
0.0
  0
LWPOLYLINE
  5
14b
100
AcDbEntity
  8
Layer_1
 62
1
100
AcDbPolyline
 90
23
 70
0
 10
27.620016
 20
122.697972
 30
0.0
 10
27.204490
 20
122.725568
 30
0.0
 10
26.758399
 20
122.332503
 30
0.0
 10
26.574536
 20
122.014045
 30
0.0
 10
26.457179
 20
121.431187
 30
0.0
 10
26.753175
 20
120.828831
 30
0.0
 10
27.469836
 20
120.195911
 30
0.0
 10
28.281392
 20
119.727359
 30
0.0
 10
29.020913
 20
119.519552
 30
0.0
 10
29.531339
 20
119.656321
 30
0.0
 10
29.974860
 20
120.050867
 30
0.0
 10
30.066792
 20
120.210096
 30
0.0
 10
30.186719
 20
120.791472
 30
0.0
 10
30.046985
 20
121.296760
 30
0.0
 10
29.656489
 20
121.741369
 30
0.0
 10
29.497258
 20
121.833298
 30
0.0
 10
28.914399
 20
121.950659
 30
0.0
 10
28.406942
 20
121.819026
 30
0.0
 10
27.960849
 20
121.425961
 30
0.0
 10
27.868920
 20
121.266733
 30
0.0
 10
27.751561
 20
120.683874
 30
0.0
 10
27.888327
 20
120.173451
 30
0.0
 10
28.281392
 20
119.727359
 30
0.0
  0
LWPOLYLINE
  5
14c
100
AcDbEntity
  8
Layer_1
 62
1
100
AcDbPolyline
 90
17
 70
1
 10
28.347786
 20
125.085404
 30
0.0
 10
28.233394
 20
124.507681
 30
0.0
 10
28.526425
 20
123.900190
 30
0.0
 10
29.246052
 20
123.272409
 30
0.0
 10
29.728877
 20
122.993648
 30
0.0
 10
30.632367
 20
122.684325
 30
0.0
 10
31.307551
 20
122.732815
 30
0.0
 10
31.748109
 20
123.122226
 30
0.0
 10
31.934939
 20
123.445821
 30
0.0
 10
32.054864
 20
124.027198
 30
0.0
 10
31.753334
 20
124.625899
 30
0.0
 10
31.036674
 20
125.258819
 30
0.0
 10
30.553846
 20
125.537576
 30
0.0
 10
29.647393
 20
125.841765
 30
0.0
 10
28.980704
 20
125.802064
 30
0.0
 10
28.534614
 20
125.408999
 30
0.0
 10
28.347786
 20
125.085404
 30
0.0
  0
LWPOLYLINE
  5
14d
100
AcDbEntity
  8
Layer_1
 62
1
100
AcDbPolyline
 90
2
 70
0
 10
22.811040
 20
113.489069
 30
0.0
 10
25.861615
 20
110.390572
 30
0.0
  0
LWPOLYLINE
  5
14e
100
AcDbEntity
  8
Layer_1
 62
1
100
AcDbPolyline
 90
2
 70
0
 10
21.916455
 20
111.031218
 30
0.0
 10
22.811040
 20
113.489069
 30
0.0
  0
LWPOLYLINE
  5
14f
100
AcDbEntity
  8
Layer_1
 62
1
100
AcDbPolyline
 90
17
 70
1
 10
23.577925
 20
115.596072
 30
0.0
 10
23.565596
 20
115.007264
 30
0.0
 10
23.959666
 20
114.459888
 30
0.0
 10
24.777371
 20
113.966605
 30
0.0
 10
25.301267
 20
113.775922
 30
0.0
 10
26.244742
 20
113.628187
 30
0.0
 10
26.901249
 20
113.793186
 30
0.0
 10
27.267493
 20
114.253183
 30
0.0
 10
27.395292
 20
114.604303
 30
0.0
 10
27.412437
 20
115.197674
 30
0.0
 10
27.011522
 20
115.734918
 30
0.0
 10
26.195847
 20
116.233773
 30
0.0
 10
25.671951
 20
116.424455
 30
0.0
 10
24.726447
 20
116.566616
 30
0.0
 10
24.076781
 20
116.411750
 30
0.0
 10
23.705724
 20
115.947196
 30
0.0
 10
23.577925
 20
115.596072
 30
0.0
  0
LWPOLYLINE
  5
150
100
AcDbEntity
  8
Layer_1
 62
1
100
AcDbPolyline
 90
29
 70
1
 10
19.397440
 20
101.405722
 30
0.0
 10
19.487535
 20
100.823718
 30
0.0
 10
19.822560
 20
100.571922
 30
0.0
 10
20.190536
 20
100.507036
 30
0.0
 10
20.591475
 20
100.629064
 30
0.0
 10
20.837428
 20
100.965114
 30
0.0
 10
21.154108
 20
101.668114
 30
0.0
 10
21.438861
 20
102.190047
 30
0.0
 10
21.864853
 20
102.488330
 30
0.0
 10
22.271631
 20
102.609324
 30
0.0
 10
22.820678
 20
102.512513
 30
0.0
 10
23.155702
 20
102.260717
 30
0.0
 10
23.307762
 20
102.047206
 30
0.0
 10
23.393910
 20
101.459877
 30
0.0
 10
23.264141
 20
100.723918
 30
0.0
 10
22.983339
 20
100.207311
 30
0.0
 10
22.766391
 20
100.052844
 30
0.0
 10
22.366484
 20
99.936661
 30
0.0
 10
21.817437
 20
100.033472
 30
0.0
 10
21.475545
 20
100.280455
 30
0.0
 10
21.179320
 20
100.718131
 30
0.0
 10
21.089222
 20
101.300138
 30
0.0
 10
21.032082
 20
102.069050
 30
0.0
 10
20.915899
 20
102.468957
 30
0.0
 10
20.579846
 20
102.714911
 30
0.0
 10
20.211866
 20
102.779797
 30
0.0
 10
19.811960
 20
102.663614
 30
0.0
 10
19.527208
 20
102.141681
 30
0.0
 10
19.397440
 20
101.405722
 30
0.0
  0
LWPOLYLINE
  5
151
100
AcDbEntity
  8
Layer_1
 62
1
100
AcDbPolyline
 90
17
 70
1
 10
20.079294
 20
105.272710
 30
0.0
 10
20.169393
 20
104.690708
 30
0.0
 10
20.652527
 20
104.220072
 30
0.0
 10
21.543469
 20
103.876278
 30
0.0
 10
22.092516
 20
103.779464
 30
0.0
 10
23.047312
 20
103.797800
 30
0.0
 10
23.665195
 20
104.074292
 30
0.0
 10
23.945998
 20
104.590896
 30
0.0
 10
24.010881
 20
104.958878
 30
0.0
 10
23.924733
 20
105.546207
 30
0.0
 10
23.436619
 20
106.005672
 30
0.0
 10
22.546710
 20
106.355311
 30
0.0
 10
21.997663
 20
106.452122
 30
0.0
 10
21.041835
 20
106.427939
 30
0.0
 10
20.428933
 20
106.162615
 30
0.0
 10
20.144181
 20
105.640682
 30
0.0
 10
20.079294
 20
105.272710
 30
0.0
  0
LWPOLYLINE
  5
152
100
AcDbEntity
  8
Layer_1
 62
1
100
AcDbPolyline
 90
23
 70
0
 10
20.276459
 20
92.149419
 30
0.0
 10
20.839908
 20
91.965558
 30
0.0
 10
21.207633
 20
91.591900
 30
0.0
 10
21.397427
 20
91.034381
 30
0.0
 10
21.397427
 20
90.844587
 30
0.0
 10
21.207633
 20
90.287069
 30
0.0
 10
20.839908
 20
89.907482
 30
0.0
 10
20.276459
 20
89.723620
 30
0.0
 10
20.092598
 20
89.723620
 30
0.0
 10
19.529146
 20
89.907482
 30
0.0
 10
19.155492
 20
90.287069
 30
0.0
 10
18.965696
 20
90.844587
 30
0.0
 10
18.965696
 20
91.034381
 30
0.0
 10
19.155492
 20
91.591900
 30
0.0
 10
19.529146
 20
91.965558
 30
0.0
 10
20.276459
 20
92.149419
 30
0.0
 10
21.207633
 20
92.149419
 30
0.0
 10
22.144740
 20
91.965558
 30
0.0
 10
22.705225
 20
91.591900
 30
0.0
 10
22.892052
 20
91.034381
 30
0.0
 10
22.892052
 20
90.654795
 30
0.0
 10
22.705225
 20
90.097275
 30
0.0
 10
22.331570
 20
89.907482
 30
0.0
  0
LWPOLYLINE
  5
153
100
AcDbEntity
  8
Layer_1
 62
1
100
AcDbPolyline
 90
17
 70
1
 10
18.965696
 20
94.580881
 30
0.0
 10
19.155492
 20
94.023364
 30
0.0
 10
19.713009
 20
93.643777
 30
0.0
 10
20.650114
 20
93.459913
 30
0.0
 10
21.207633
 20
93.459913
 30
0.0
 10
22.144740
 20
93.643777
 30
0.0
 10
22.705225
 20
94.023364
 30
0.0
 10
22.892052
 20
94.580881
 30
0.0
 10
22.892052
 20
94.954538
 30
0.0
 10
22.705225
 20
95.517989
 30
0.0
 10
22.144740
 20
95.885712
 30
0.0
 10
21.207633
 20
96.075506
 30
0.0
 10
20.650114
 20
96.075506
 30
0.0
 10
19.713009
 20
95.885712
 30
0.0
 10
19.155492
 20
95.517989
 30
0.0
 10
18.965696
 20
94.954538
 30
0.0
 10
18.965696
 20
94.580881
 30
0.0
  0
LWPOLYLINE
  5
154
100
AcDbEntity
  8
Layer_1
 62
7
100
AcDbPolyline
 90
15
 70
1
 10
0.000000
 20
197.000857
 30
0.0
 10
0.000000
 20
191.001222
 30
0.0
 10
2.999815
 20
191.001222
 30
0.0
 10
2.999815
 20
183.001205
 30
0.0
 10
0.000000
 20
183.001205
 30
0.0
 10
0.000000
 20
177.001040
 30
0.0
 10
101.999920
 20
177.001040
 30
0.0
 10
101.999920
 20
183.001205
 30
0.0
 10
98.999591
 20
183.001205
 30
0.0
 10
98.999591
 20
191.001222
 30
0.0
 10
101.999920
 20
191.001222
 30
0.0
 10
101.999920
 20
197.000857
 30
0.0
 10
98.999591
 20
197.000857
 30
0.0
 10
2.999815
 20
197.000857
 30
0.0
 10
0.000000
 20
197.000857
 30
0.0
  0
LWPOLYLINE
  5
155
100
AcDbEntity
  8
Layer_1
 62
7
100
AcDbPolyline
 90
17
 70
1
 10
57.999530
 20
188.000874
 30
0.0
 10
58.382454
 20
187.924912
 30
0.0
 10
58.706981
 20
187.708404
 30
0.0
 10
58.923504
 20
187.383866
 30
0.0
 10
58.999469
 20
187.000936
 30
0.0
 10
58.923504
 20
186.618534
 30
0.0
 10
58.706981
 20
186.294022
 30
0.0
 10
58.382454
 20
186.076985
 30
0.0
 10
57.999530
 20
186.001023
 30
0.0
 10
57.617125
 20
186.076985
 30
0.0
 10
57.292598
 20
186.294022
 30
0.0
 10
57.076074
 20
186.618534
 30
0.0
 10
56.999593
 20
187.000936
 30
0.0
 10
57.076074
 20
187.383866
 30
0.0
 10
57.292598
 20
187.708404
 30
0.0
 10
57.617125
 20
187.924912
 30
0.0
 10
57.999530
 20
188.000874
 30
0.0
  0
LWPOLYLINE
  5
156
100
AcDbEntity
  8
Layer_1
 62
7
100
AcDbPolyline
 90
28
 70
1
 10
5.045391
 20
176.055496
 30
0.0
 10
5.045391
 20
172.955427
 30
0.0
 10
2.045575
 20
172.955427
 30
0.0
 10
2.045575
 20
167.955729
 30
0.0
 10
2.146792
 20
166.945577
 30
0.0
 10
2.437246
 20
166.005856
 30
0.0
 10
2.897138
 20
165.156359
 30
0.0
 10
3.506671
 20
164.416875
 30
0.0
 10
4.246049
 20
163.807249
 30
0.0
 10
5.095473
 20
163.347271
 30
0.0
 10
6.035145
 20
163.056758
 30
0.0
 10
7.045269
 20
162.955529
 30
0.0
 10
83.045263
 20
162.955529
 30
0.0
 10
84.055408
 20
163.056758
 30
0.0
 10
84.995139
 20
163.347271
 30
0.0
 10
85.844647
 20
163.807249
 30
0.0
 10
86.584120
 20
164.416875
 30
0.0
 10
87.193749
 20
165.156359
 30
0.0
 10
87.653722
 20
166.005856
 30
0.0
 10
87.944237
 20
166.945577
 30
0.0
 10
88.045474
 20
167.955729
 30
0.0
 10
88.045474
 20
172.955427
 30
0.0
 10
85.045140
 20
172.955427
 30
0.0
 10
85.045140
 20
176.055496
 30
0.0
 10
73.045360
 20
176.055496
 30
0.0
 10
73.045360
 20
172.955427
 30
0.0
 10
17.045173
 20
172.955427
 30
0.0
 10
17.045173
 20
176.055496
 30
0.0
  0
ENDSEC
  0
SECTION
  2
OBJECTS
  0
DICTIONARY
  5
C
330
0
100
AcDbDictionary
  3
ACAD_GROUP
350
D
  3
ACAD_MLINESTYLE
350
17
  0
DICTIONARY
  5
D
330
C
100
AcDbDictionary
  0
DICTIONARY
  5
1A
330
C
100
AcDbDictionary
  0
DICTIONARY
  5
17
330
C
100
AcDbDictionary
  3
STANDARD
350
18
  0
DICTIONARY
  5
19
330
C
100
AcDbDictionary
  0
ENDSEC
  0
EOF
