  0
SECTION
  2
HEADER
  9
$ACADVER
  1
AC1014
  9
$HANDSEED
  5
FFFF
  9
$MEASUREMENT
 70
     1
  0
ENDSEC
  0
SECTION
  2
TABLES
  0
TABLE
  2
VPORT
  5
8
330
0
100
AcDbSymbolTable
 70
     4
  0
VPORT
  5
2E
330
8
100
AcDbSymbolTableRecord
100
AcDbViewportTableRecord
  2
*ACTIVE
 70
     0
 10
0.0
 20
0.0
 11
1.0
 21
1.0
 12
210.0
 22
148.5
 13
0.0
 23
0.0
 14
10.0
 24
10.0
 15
10.0
 25
10.0
 16
0.0
 26
0.0
 36
1.0
 17
0.0
 27
0.0
 37
0.0
 40
341.0
 41
1.24
 42
50.0
 43
0.0
 44
0.0
 50
0.0
 51
0.0
 71
     0
 72
   100
 73
     1
 74
     3
 75
     0
 76
     0
 77
     0
 78
     0
  0
ENDTAB
  0
TABLE
  2
LTYPE
  5
5
330
0
100
AcDbSymbolTable
 70
     1
  0
LTYPE
  5
14
330
5
100
AcDbSymbolTableRecord
100
AcDbLinetypeTableRecord
  2
BYBLOCK
 70
     0
  3

 72
    65
 73
     0
 40
0.0
  0
LTYPE
  5
15
330
5
100
AcDbSymbolTableRecord
100
AcDbLinetypeTableRecord
  2
BYLAYER
 70
     0
  3

 72
    65
 73
     0
 40
0.0
  0
LTYPE
  5
16
330
5
100
AcDbSymbolTableRecord
100
AcDbLinetypeTableRecord
  2
CONTINUOUS
 70
     0
  3
Solid line
 72
    65
 73
     0
 40
0.0
  0
ENDTAB
  0
TABLE
  2
LAYER
  5
2
100
AcDbSymbolTable
 70
2
  0
LAYER
  5
50
100
AcDbSymbolTableRecord
100
AcDbLayerTableRecord
  2
0
 70
0
  6
CONTINUOUS
  0
LAYER
  5
51
100
AcDbSymbolTableRecord
100
AcDbLayerTableRecord
  2
Layer_1
 70
0
  6
CONTINUOUS
  0
ENDTAB
  0
TABLE
  2
STYLE
  5
3
330
0
100
AcDbSymbolTable
 70
     1
  0
STYLE
  5
11
330
3
100
AcDbSymbolTableRecord
100
AcDbTextStyleTableRecord
  2
STANDARD
 70
     0
 40
0.0
 41
1.0
 50
0.0
 71
     0
 42
2.5
  3
txt
  4

  0
ENDTAB
  0
TABLE
  2
VIEW
  5
6
330
0
100
AcDbSymbolTable
 70
     0
  0
ENDTAB
  0
TABLE
  2
UCS
  5
7
330
0
100
AcDbSymbolTable
 70
     0
  0
ENDTAB
  0
TABLE
  2
APPID
  5
9
330
0
100
AcDbSymbolTable
 70
     2
  0
APPID
  5
12
330
9
100
AcDbSymbolTableRecord
100
AcDbRegAppTableRecord
  2
ACAD
 70
     0
  0
ENDTAB
  0
TABLE
  2
DIMSTYLE
  5
A
330
0
100
AcDbSymbolTable
 70
     1
  0
DIMSTYLE
105
27
330
A
100
AcDbSymbolTableRecord
100
AcDbDimStyleTableRecord
  2
ISO-25
 70
     0
  3

  4

  5

  6

  7

 40
1.0
 41
2.5
 42
0.625
 43
3.75
 44
1.25
 45
0.0
 46
0.0
 47
0.0
 48
0.0
140
2.5
141
2.5
142
0.0
143
0.03937007874016
144
1.0
145
0.0
146
1.0
147
0.625
 71
     0
 72
     0
 73
     0
 74
     0
 75
     0
 76
     0
 77
     1
 78
     8
170
     0
171
     3
172
     1
173
     0
174
     0
175
     0
176
     0
177
     0
178
     0
270
     2
271
     2
272
     2
273
     2
274
     3
340
11
275
     0
280
     0
281
     0
282
     0
283
     0
284
     8
285
     0
286
     0
287
     3
288
     0
  0
ENDTAB
  0
TABLE
  2
BLOCK_RECORD
  5
1
330
0
100
AcDbSymbolTable
 70
     1
  0
BLOCK_RECORD
  5
1F
330
1
100
AcDbSymbolTableRecord
100
AcDbBlockTableRecord
  2
*MODEL_SPACE
  0
BLOCK_RECORD
  5
1B
330
1
100
AcDbSymbolTableRecord
100
AcDbBlockTableRecord
  2
*PAPER_SPACE
  0
ENDTAB
  0
ENDSEC
  0
SECTION
  2
BLOCKS
  0
BLOCK
  5
20
330
1F
100
AcDbEntity
  8
0
100
AcDbBlockBegin
  2
*MODEL_SPACE
 70
     0
 10
0.0
 20
0.0
 30
0.0
  3
*MODEL_SPACE
  1

  0
ENDBLK
  5
21
330
1F
100
AcDbEntity
  8
0
100
AcDbBlockEnd
  0
BLOCK
  5
1C
330
1B
100
AcDbEntity
 67
     1
  8
0
100
AcDbBlockBegin
  2
*PAPER_SPACE
  1

  0
ENDBLK
  5
1D
330
1B
100
AcDbEntity
 67
     1
  8
0
100
AcDbBlockEnd
  0
ENDSEC
  0
SECTION
  2
ENTITIES
  0
LWPOLYLINE
  5
100
100
AcDbEntity
  8
Layer_1
 62
7
100
AcDbPolyline
 90
17
 70
1
 10
12.920000
 20
40.000000
 30
0.0
 10
12.690500
 20
38.863400
 30
0.0
 10
12.064800
 20
37.935200
 30
0.0
 10
11.136600
 20
37.309500
 30
0.0
 10
10.000000
 20
37.080000
 30
0.0
 10
8.863400
 20
37.309500
 30
0.0
 10
7.935250
 20
37.935200
 30
0.0
 10
7.309470
 20
38.863400
 30
0.0
 10
7.080000
 20
40.000000
 30
0.0
 10
7.309470
 20
41.136600
 30
0.0
 10
7.935250
 20
42.064800
 30
0.0
 10
8.863400
 20
42.690500
 30
0.0
 10
10.000000
 20
42.920000
 30
0.0
 10
11.136600
 20
42.690500
 30
0.0
 10
12.064800
 20
42.064800
 30
0.0
 10
12.690500
 20
41.136600
 30
0.0
 10
12.920000
 20
40.000000
 30
0.0
  0
LWPOLYLINE
  5
101
100
AcDbEntity
  8
Layer_1
 62
7
100
AcDbPolyline
 90
243
 70
1
 10
5.462720
 20
110.814698
 30
0.0
 10
4.807506
 20
110.776068
 30
0.0
 10
4.215262
 20
110.646423
 30
0.0
 10
3.683423
 20
110.430258
 30
0.0
 10
3.209475
 20
110.133131
 30
0.0
 10
2.790878
 20
109.760598
 30
0.0
 10
2.425078
 20
109.317420
 30
0.0
 10
2.109576
 20
108.809156
 30
0.0
 10
1.841823
 20
108.240831
 30
0.0
 10
1.619292
 20
107.618002
 30
0.0
 10
1.439447
 20
106.945431
 30
0.0
 10
1.299758
 20
106.228833
 30
0.0
 10
1.197689
 20
105.473210
 30
0.0
 10
1.096290
 20
103.865998
 30
0.0
 10
1.114989
 20
102.165865
 30
0.0
 10
1.233525
 20
100.414721
 30
0.0
 10
1.431642
 20
98.654527
 30
0.0
 10
1.689074
 20
96.927248
 30
0.0
 10
1.985566
 20
95.274845
 30
0.0
 10
2.614684
 20
92.362497
 30
0.0
 10
3.156902
 20
90.253133
 30
0.0
 10
3.982085
 20
87.166081
 30
0.0
 10
4.699582
 20
84.223464
 30
0.0
 10
5.314976
 20
81.420619
 30
0.0
 10
5.833771
 20
78.752905
 30
0.0
 10
6.261523
 20
76.215665
 30
0.0
 10
6.603735
 20
73.804252
 30
0.0
 10
6.865937
 20
71.514019
 30
0.0
 10
7.053659
 20
69.340308
 30
0.0
 10
7.172431
 20
67.278463
 30
0.0
 10
7.227782
 20
65.323854
 30
0.0
 10
7.225242
 20
63.471823
 30
0.0
 10
7.170341
 20
61.717715
 30
0.0
 10
7.068608
 20
60.056873
 30
0.0
 10
6.925548
 20
58.484666
 30
0.0
 10
6.746743
 20
56.996411
 30
0.0
 10
6.537669
 20
55.587505
 30
0.0
 10
6.050888
 20
52.988952
 30
0.0
 10
5.509472
 20
50.652152
 30
0.0
 10
4.439576
 20
46.613817
 30
0.0
 10
3.999547
 20
44.837934
 30
0.0
 10
3.681783
 20
43.175028
 30
0.0
 10
3.582591
 20
42.374134
 30
0.0
 10
3.530521
 20
41.587263
 30
0.0
 10
3.531129
 20
40.810182
 30
0.0
 10
3.589972
 20
40.038128
 30
0.0
 10
3.822038
 20
38.678698
 30
0.0
 10
4.168061
 20
37.469023
 30
0.0
 10
4.605708
 20
36.389523
 30
0.0
 10
5.112597
 20
35.420619
 30
0.0
 10
5.666449
 20
34.542732
 30
0.0
 10
6.244907
 20
33.736546
 30
0.0
 10
7.386293
 20
32.261494
 30
0.0
 10
7.904559
 20
31.553205
 30
0.0
 10
8.358082
 20
30.838830
 30
0.0
 10
8.724556
 20
30.098790
 30
0.0
 10
8.981625
 20
29.313507
 30
0.0
 10
9.106958
 20
28.463401
 30
0.0
 10
9.113255
 20
28.008053
 30
0.0
 10
9.078224
 20
27.529157
 30
0.0
 10
8.999114
 20
27.024332
 30
0.0
 10
8.873119
 20
26.491197
 30
0.0
 10
8.469259
 20
25.329940
 30
0.0
 10
8.330750
 20
25.060859
 30
0.0
 10
8.150225
 20
24.817178
 30
0.0
 10
7.928795
 20
24.598103
 30
0.0
 10
7.667572
 20
24.402840
 30
0.0
 10
7.030323
 20
24.081107
 30
0.0
 10
6.247527
 20
23.847215
 30
0.0
 10
5.328258
 20
23.695344
 30
0.0
 10
4.281567
 20
23.620467
 30
0.0
 10
3.116527
 20
23.616763
 30
0.0
 10
1.842132
 20
23.679205
 30
0.0
 10
0.467487
 20
23.802236
 30
0.0
 10
-0.998373
 20
23.980565
 30
0.0
 10
-4.167505
 20
24.481686
 30
0.0
 10
-7.592854
 20
25.139176
 30
0.0
 10
-11.201982
 20
25.910172
 30
0.0
 10
-18.681885
 20
27.620438
 30
0.0
 10
-22.407774
 20
28.473719
 30
0.0
 10
-26.027750
 20
29.268528
 30
0.0
 10
-29.469291
 20
29.961471
 30
0.0
 10
-32.660166
 20
30.509688
 30
0.0
 10
-34.138922
 20
30.716063
 30
0.0
 10
-35.527720
 20
30.870051
 30
0.0
 10
-36.817829
 20
30.966624
 30
0.0
 10
-37.999722
 20
30.999961
 30
0.0
 10
-39.107797
 20
30.959480
 30
0.0
 10
-40.180947
 20
30.841476
 30
0.0
 10
-41.217849
 20
30.649917
 30
0.0
 10
-42.217181
 20
30.389038
 30
0.0
 10
-43.177618
 20
30.063071
 30
0.0
 10
-44.097839
 20
29.676515
 30
0.0
 10
-44.976520
 20
29.233074
 30
0.0
 10
-45.812339
 20
28.737509
 30
0.0
 10
-46.603972
 20
28.193790
 30
0.0
 10
-47.349833
 20
27.605886
 30
0.0
 10
-48.048862
 20
26.978559
 30
0.0
 10
-48.699737
 20
26.316042
 30
0.0
 10
-49.300870
 20
25.622040
 30
0.0
 10
-49.851204
 20
24.901051
 30
0.0
 10
-50.349149
 20
24.157572
 30
0.0
 10
-50.793649
 20
23.395572
 30
0.0
 10
-51.182851
 20
22.619284
 30
0.0
 10
-51.516226
 20
21.832942
 30
0.0
 10
-51.791658
 20
21.040780
 30
0.0
 10
-52.008087
 20
20.247295
 30
0.0
 10
-52.164456
 20
19.456455
 30
0.0
 10
-52.258912
 20
18.672230
 30
0.0
 10
-52.290662
 20
17.899647
 30
0.0
 10
-52.257854
 20
17.142145
 30
0.0
 10
-52.159429
 20
16.404222
 30
0.0
 10
-51.994064
 20
15.690376
 30
0.0
 10
-51.760437
 20
15.004576
 30
0.0
 10
-51.456960
 20
14.351055
 30
0.0
 10
-51.082574
 20
13.734311
 30
0.0
 10
-50.635958
 20
13.158049
 30
0.0
 10
-50.115522
 20
12.627030
 30
0.0
 10
-49.519945
 20
12.145224
 30
0.0
 10
-49.135241
 20
11.921386
 30
0.0
 10
-48.617187
 20
11.705751
 30
0.0
 10
-47.970281
 20
11.497788
 30
0.0
 10
-47.198756
 20
11.297499
 30
0.0
 10
-45.298254
 20
10.919938
 30
0.0
 10
-42.949547
 20
10.571482
 30
0.0
 10
-40.186768
 20
10.251072
 30
0.0
 10
-37.043783
 20
9.957384
 30
0.0
 10
-33.554458
 20
9.689890
 30
0.0
 10
-29.752925
 20
9.446738
 30
0.0
 10
-21.348144
 20
9.029755
 30
0.0
 10
-12.101010
 20
8.697174
 30
0.0
 10
-2.282836
 20
8.440263
 30
0.0
 10
7.835000
 20
8.249499
 30
0.0
 10
17.981110
 20
8.115620
 30
0.0
 10
27.884173
 20
8.029630
 30
0.0
 10
45.875310
 20
7.963749
 30
0.0
 10
59.637612
 20
7.978565
 30
0.0
 10
67.000172
 20
7.999732
 30
0.0
 10
68.694564
 20
8.059263
 30
0.0
 10
70.334716
 20
8.232830
 30
0.0
 10
71.912426
 20
8.512230
 30
0.0
 10
73.420551
 20
8.889526
 30
0.0
 10
74.851418
 20
9.357045
 30
0.0
 10
76.197618
 20
9.907113
 30
0.0
 10
77.451478
 20
10.531265
 30
0.0
 10
78.605326
 20
11.222093
 30
0.0
 10
79.651489
 20
11.971393
 30
0.0
 10
80.582822
 20
12.771493
 30
0.0
 10
81.391653
 20
13.614455
 30
0.0
 10
82.070309
 20
14.492078
 30
0.0
 10
82.611382
 20
15.396953
 30
0.0
 10
83.007199
 20
16.320878
 30
0.0
 10
83.250086
 20
17.255915
 30
0.0
 10
83.311999
 20
17.725286
 30
0.0
 10
83.332901
 20
18.194392
 30
0.0
 10
83.298770
 20
19.241878
 30
0.0
 10
83.201932
 20
20.492563
 30
0.0
 10
82.856386
 20
23.454574
 30
0.0
 10
82.367172
 20
26.783297
 30
0.0
 10
81.805991
 20
30.181605
 30
0.0
 10
80.750568
 20
35.998734
 30
0.0
 10
80.259766
 20
38.529738
 30
0.0
 10
80.265851
 20
38.596942
 30
0.0
 10
75.420801
 20
38.692986
 30
0.0
 10
75.469749
 20
39.999763
 30
0.0
 10
75.452287
 20
41.355223
 30
0.0
 10
76.502947
 20
41.401261
 30
0.0
 10
76.371978
 20
44.398461
 30
0.0
 10
75.319466
 20
44.352688
 30
0.0
 10
75.084780
 20
47.054613
 30
0.0
 10
76.127768
 20
47.192196
 30
0.0
 10
75.736449
 20
50.166113
 30
0.0
 10
74.696107
 20
50.029323
 30
0.0
 10
74.220916
 20
52.700292
 30
0.0
 10
75.249087
 20
52.928363
 30
0.0
 10
74.600064
 20
55.856771
 30
0.0
 10
73.571099
 20
55.628886
 30
0.0
 10
72.874187
 20
58.250430
 30
0.0
 10
73.874047
 20
58.565655
 30
0.0
 10
72.971818
 20
61.426965
 30
0.0
 10
71.968782
 20
61.110708
 30
0.0
 10
71.039566
 20
63.658884
 30
0.0
 10
72.012703
 20
64.061950
 30
0.0
 10
70.864941
 20
66.833884
 30
0.0
 10
69.893920
 20
66.431849
 30
0.0
 10
68.746157
 20
68.889564
 30
0.0
 10
69.679343
 20
69.375339
 30
0.0
 10
68.294514
 20
72.036148
 30
0.0
 10
67.360270
 20
71.549870
 30
0.0
 10
66.006397
 20
73.900640
 30
0.0
 10
66.891957
 20
74.464943
 30
0.0
 10
65.280380
 20
76.995021
 30
0.0
 10
64.395085
 20
76.431221
 30
0.0
 10
62.836424
 20
78.650728
 30
0.0
 10
63.671978
 20
79.292033
 30
0.0
 10
61.845824
 20
81.672249
 30
0.0
 10
61.010799
 20
81.031462
 30
0.0
 10
59.269312
 20
83.111447
 30
0.0
 10
60.042953
 20
83.820451
 30
0.0
 10
58.015981
 20
86.032182
 30
0.0
 10
57.240487
 20
85.321115
 30
0.0
 10
55.322258
 20
87.239344
 30
0.0
 10
56.033193
 20
88.015526
 30
0.0
 10
53.821541
 20
90.042287
 30
0.0
 10
53.112458
 20
89.268169
 30
0.0
 10
51.032568
 20
91.009656
 30
0.0
 10
51.673389
 20
91.844761
 30
0.0
 10
49.293197
 20
93.670994
 30
0.0
 10
48.651847
 20
92.835387
 30
0.0
 10
46.432258
 20
94.394471
 30
0.0
 10
46.996085
 20
95.279687
 30
0.0
 10
44.466139
 20
96.891476
 30
0.0
 10
43.901783
 20
96.005730
 30
0.0
 10
41.550960
 20
97.359656
 30
0.0
 10
42.037264
 20
98.293450
 30
0.0
 10
39.376350
 20
99.678914
 30
0.0
 10
38.890575
 20
98.745623
 30
0.0
 10
36.432331
 20
99.893888
 30
0.0
 10
36.834497
 20
100.863851
 30
0.0
 10
34.062987
 20
102.012090
 30
0.0
 10
33.660027
 20
101.039534
 30
0.0
 10
31.111295
 20
101.968169
 30
0.0
 10
31.427473
 20
102.971204
 30
0.0
 10
28.566798
 20
103.872957
 30
0.0
 10
28.251414
 20
102.873546
 30
0.0
 10
25.629949
 20
103.571173
 30
0.0
 10
25.857861
 20
104.599027
 30
0.0
 10
22.928844
 20
105.248076
 30
0.0
 10
22.700932
 20
104.220223
 30
0.0
 10
20.030307
 20
104.695652
 30
0.0
 10
20.167256
 20
105.735386
 30
0.0
 10
17.192757
 20
106.127075
 30
0.0
 10
17.055809
 20
105.084775
 30
0.0
 10
14.353116
 20
105.319381
 30
0.0
 10
14.399128
 20
106.371523
 30
0.0
 10
11.402404
 20
106.502254
 30
0.0
 10
11.356419
 20
105.452202
 30
0.0
 10
9.999900
 20
105.469770
 30
0.0
 10
8.686800
 20
105.420664
 30
0.0
 10
8.597926
 20
109.250481
 30
0.0
 10
7.279666
 20
109.142531
 30
0.0
 10
5.820304
 20
110.797500
 30
0.0
 10
5.462720
 20
110.814698
 30
0.0
  0
LWPOLYLINE
  5
102
100
AcDbEntity
  8
Layer_1
 62
7
100
AcDbPolyline
 90
4
 70
1
 10
-48.000000
 20
17.000000
 30
0.0
 10
-42.000000
 20
17.000000
 30
0.0
 10
-42.000000
 20
14.000000
 30
0.0
 10
-48.000000
 20
14.000000
 30
0.0
  0
LWPOLYLINE
  5
103
100
AcDbEntity
  8
Layer_1
 62
7
100
AcDbPolyline
 90
4
 70
1
 10
-24.000000
 20
17.000000
 30
0.0
 10
-18.000000
 20
17.000000
 30
0.0
 10
-18.000000
 20
14.000000
 30
0.0
 10
-24.000000
 20
14.000000
 30
0.0
  0
LWPOLYLINE
  5
104
100
AcDbEntity
  8
Layer_1
 62
7
100
AcDbPolyline
 90
17
 70
1
 10
42.677000
 20
35.994600
 30
0.0
 10
42.352600
 20
35.777900
 30
0.0
 10
41.969900
 20
35.701800
 30
0.0
 10
41.587200
 20
35.777900
 30
0.0
 10
41.262800
 20
35.994600
 30
0.0
 10
41.043100
 20
36.325400
 30
0.0
 10
40.969900
 20
36.701800
 30
0.0
 10
41.043100
 20
37.078100
 30
0.0
 10
41.262800
 20
37.408900
 30
0.0
 10
41.587200
 20
37.625600
 30
0.0
 10
41.969900
 20
37.701800
 30
0.0
 10
42.352600
 20
37.625600
 30
0.0
 10
42.677000
 20
37.408900
 30
0.0
 10
42.896700
 20
37.078100
 30
0.0
 10
42.969900
 20
36.701800
 30
0.0
 10
42.896700
 20
36.325400
 30
0.0
 10
42.677000
 20
35.994600
 30
0.0
  0
LWPOLYLINE
  5
105
100
AcDbEntity
  8
Layer_1
 62
7
100
AcDbPolyline
 90
17
 70
1
 10
67.425700
 20
11.245900
 30
0.0
 10
67.101300
 20
11.029100
 30
0.0
 10
66.718600
 20
10.953000
 30
0.0
 10
66.336000
 20
11.029100
 30
0.0
 10
66.011500
 20
11.245900
 30
0.0
 10
65.794800
 20
11.570300
 30
0.0
 10
65.718600
 20
11.953000
 30
0.0
 10
65.794800
 20
12.335700
 30
0.0
 10
66.011500
 20
12.660100
 30
0.0
 10
66.336000
 20
12.876900
 30
0.0
 10
66.718600
 20
12.953000
 30
0.0
 10
67.101300
 20
12.876900
 30
0.0
 10
67.425700
 20
12.660100
 30
0.0
 10
67.642500
 20
12.335700
 30
0.0
 10
67.718600
 20
11.953000
 30
0.0
 10
67.642500
 20
11.570300
 30
0.0
 10
67.425700
 20
11.245900
 30
0.0
  0
LWPOLYLINE
  5
106
100
AcDbEntity
  8
Layer_1
 62
7
100
AcDbPolyline
 90
33
 70
1
 10
63.253800
 20
26.731500
 30
0.0
 10
62.532200
 20
26.142100
 30
0.0
 10
61.732100
 20
25.721100
 30
0.0
 10
60.879700
 20
25.468400
 30
0.0
 10
60.001100
 20
25.384200
 30
0.0
 10
59.122600
 20
25.468400
 30
0.0
 10
58.270100
 20
25.721100
 30
0.0
 10
57.470100
 20
26.142100
 30
0.0
 10
56.748400
 20
26.731500
 30
0.0
 10
56.159000
 20
27.453200
 30
0.0
 10
55.738000
 20
28.253300
 30
0.0
 10
55.485300
 20
29.105700
 30
0.0
 10
55.401100
 20
29.984200
 30
0.0
 10
55.485300
 20
30.862800
 30
0.0
 10
55.738000
 20
31.715200
 30
0.0
 10
56.159000
 20
32.515300
 30
0.0
 10
56.748400
 20
33.236900
 30
0.0
 10
57.470100
 20
33.826400
 30
0.0
 10
58.270100
 20
34.247400
 30
0.0
 10
59.122600
 20
34.500000
 30
0.0
 10
60.001100
 20
34.584200
 30
0.0
 10
60.879700
 20
34.500000
 30
0.0
 10
61.732100
 20
34.247400
 30
0.0
 10
62.532200
 20
33.826400
 30
0.0
 10
63.253800
 20
33.236900
 30
0.0
 10
63.843300
 20
32.515300
 30
0.0
 10
64.264300
 20
31.715200
 30
0.0
 10
64.516900
 20
30.862800
 30
0.0
 10
64.601100
 20
29.984200
 30
0.0
 10
64.516900
 20
29.105700
 30
0.0
 10
64.264300
 20
28.253300
 30
0.0
 10
63.843300
 20
27.453200
 30
0.0
 10
63.253800
 20
26.731500
 30
0.0
  0
LWPOLYLINE
  5
107
100
AcDbEntity
  8
Layer_1
 62
7
100
AcDbPolyline
 90
4
 70
1
 10
15.000000
 20
38.000000
 30
0.0
 10
21.000000
 20
38.000000
 30
0.0
 10
21.000000
 20
35.000000
 30
0.0
 10
15.000000
 20
35.000000
 30
0.0
  0
LWPOLYLINE
  5
108
100
AcDbEntity
  8
Layer_1
 62
7
100
AcDbPolyline
 90
4
 70
1
 10
29.000000
 20
38.000000
 30
0.0
 10
35.000000
 20
38.000000
 30
0.0
 10
35.000000
 20
35.000000
 30
0.0
 10
29.000000
 20
35.000000
 30
0.0
  0
LWPOLYLINE
  5
109
100
AcDbEntity
  8
Layer_1
 62
7
100
AcDbPolyline
 90
4
 70
1
 10
10.000000
 20
17.000000
 30
0.0
 10
16.000000
 20
17.000000
 30
0.0
 10
16.000000
 20
14.000000
 30
0.0
 10
10.000000
 20
14.000000
 30
0.0
  0
LWPOLYLINE
  5
10a
100
AcDbEntity
  8
Layer_1
 62
7
100
AcDbPolyline
 90
4
 70
1
 10
29.000000
 20
17.000000
 30
0.0
 10
35.000000
 20
17.000000
 30
0.0
 10
35.000000
 20
14.000000
 30
0.0
 10
29.000000
 20
14.000000
 30
0.0
  0
LWPOLYLINE
  5
10b
100
AcDbEntity
  8
Layer_1
 62
7
100
AcDbPolyline
 90
65
 70
1
 10
55.898400
 20
64.562200
 30
0.0
 10
55.791200
 20
62.396600
 30
0.0
 10
55.473500
 20
60.267700
 30
0.0
 10
54.951400
 20
58.189900
 30
0.0
 10
54.230600
 20
56.177400
 30
0.0
 10
53.317200
 20
54.244800
 30
0.0
 10
52.217200
 20
52.406300
 30
0.0
 10
50.936500
 20
50.676300
 30
0.0
 10
49.481000
 20
49.069200
 30
0.0
 10
47.873900
 20
47.613700
 30
0.0
 10
46.143900
 20
46.333000
 30
0.0
 10
44.305400
 20
45.233000
 30
0.0
 10
42.372800
 20
44.319600
 30
0.0
 10
40.360300
 20
43.598900
 30
0.0
 10
38.282500
 20
43.076700
 30
0.0
 10
36.153600
 20
42.759000
 30
0.0
 10
33.988000
 20
42.651800
 30
0.0
 10
31.822500
 20
42.759000
 30
0.0
 10
29.693600
 20
43.076700
 30
0.0
 10
27.615700
 20
43.598900
 30
0.0
 10
25.603300
 20
44.319600
 30
0.0
 10
23.670600
 20
45.233000
 30
0.0
 10
21.832100
 20
46.333000
 30
0.0
 10
20.102100
 20
47.613700
 30
0.0
 10
18.495000
 20
49.069200
 30
0.0
 10
17.039500
 20
50.676300
 30
0.0
 10
15.758800
 20
52.406300
 30
0.0
 10
14.658800
 20
54.244800
 30
0.0
 10
13.745500
 20
56.177400
 30
0.0
 10
13.024700
 20
58.189900
 30
0.0
 10
12.502500
 20
60.267700
 30
0.0
 10
12.184800
 20
62.396600
 30
0.0
 10
12.077600
 20
64.562200
 30
0.0
 10
12.184800
 20
66.727800
 30
0.0
 10
12.502500
 20
68.856700
 30
0.0
 10
13.024700
 20
70.934520
 30
0.0
 10
13.745500
 20
72.946950
 30
0.0
 10
14.658800
 20
74.879600
 30
0.0
 10
15.758800
 20
76.718100
 30
0.0
 10
17.039500
 20
78.448090
 30
0.0
 10
18.495000
 20
80.055195
 30
0.0
 10
20.102100
 20
81.510680
 30
0.0
 10
21.832100
 20
82.791400
 30
0.0
 10
23.670600
 20
83.891420
 30
0.0
 10
25.603300
 20
84.804770
 30
0.0
 10
27.615700
 20
85.525520
 30
0.0
 10
29.693600
 20
86.047710
 30
0.0
 10
31.822500
 20
86.365390
 30
0.0
 10
33.988000
 20
86.472600
 30
0.0
 10
36.153600
 20
86.365390
 30
0.0
 10
38.282500
 20
86.047710
 30
0.0
 10
40.360300
 20
85.525520
 30
0.0
 10
42.372800
 20
84.804770
 30
0.0
 10
44.305400
 20
83.891420
 30
0.0
 10
46.143900
 20
82.791400
 30
0.0
 10
47.873900
 20
81.510680
 30
0.0
 10
49.481000
 20
80.055195
 30
0.0
 10
50.936500
 20
78.448090
 30
0.0
 10
52.217200
 20
76.718100
 30
0.0
 10
53.317200
 20
74.879600
 30
0.0
 10
54.230600
 20
72.946950
 30
0.0
 10
54.951400
 20
70.934520
 30
0.0
 10
55.473500
 20
68.856700
 30
0.0
 10
55.791200
 20
66.727800
 30
0.0
 10
55.898400
 20
64.562200
 30
0.0
  0
LWPOLYLINE
  5
10c
100
AcDbEntity
  8
Layer_1
 62
7
100
AcDbPolyline
 90
4
 70
1
 10
74.000000
 20
17.000000
 30
0.0
 10
80.000000
 20
17.000000
 30
0.0
 10
80.000000
 20
14.000000
 30
0.0
 10
74.000000
 20
14.000000
 30
0.0
  0
LWPOLYLINE
  5
10d
100
AcDbEntity
  8
Layer_1
 62
7
100
AcDbPolyline
 90
21
 70
1
 10
28.500000
 20
28.000000
 30
0.0
 10
43.500000
 20
28.000000
 30
0.0
 10
43.890000
 20
27.921700
 30
0.0
 10
44.207800
 20
27.707800
 30
0.0
 10
44.421700
 20
27.390000
 30
0.0
 10
44.500000
 20
27.000000
 30
0.0
 10
44.500000
 20
22.000000
 30
0.0
 10
44.421700
 20
21.610000
 30
0.0
 10
44.207800
 20
21.292200
 30
0.0
 10
43.890000
 20
21.078300
 30
0.0
 10
43.500000
 20
21.000000
 30
0.0
 10
28.500000
 20
21.000000
 30
0.0
 10
28.110000
 20
21.078300
 30
0.0
 10
27.792200
 20
21.292200
 30
0.0
 10
27.578300
 20
21.610000
 30
0.0
 10
27.500000
 20
22.000000
 30
0.0
 10
27.500000
 20
27.000000
 30
0.0
 10
27.578300
 20
27.390000
 30
0.0
 10
27.792200
 20
27.707800
 30
0.0
 10
28.110000
 20
27.921700
 30
0.0
 10
28.500000
 20
28.000000
 30
0.0
  0
LWPOLYLINE
  5
10e
100
AcDbEntity
  8
Layer_1
 62
7
100
AcDbPolyline
 90
21
 70
1
 10
-43.500000
 20
27.000000
 30
0.0
 10
-28.500000
 20
27.000000
 30
0.0
 10
-28.110000
 20
26.921700
 30
0.0
 10
-27.792200
 20
26.707800
 30
0.0
 10
-27.578300
 20
26.390000
 30
0.0
 10
-27.500000
 20
26.000000
 30
0.0
 10
-27.500000
 20
21.000000
 30
0.0
 10
-27.578300
 20
20.610000
 30
0.0
 10
-27.792200
 20
20.292200
 30
0.0
 10
-28.110000
 20
20.078300
 30
0.0
 10
-28.500000
 20
20.000000
 30
0.0
 10
-43.500000
 20
20.000000
 30
0.0
 10
-43.890000
 20
20.078300
 30
0.0
 10
-44.207800
 20
20.292200
 30
0.0
 10
-44.421700
 20
20.610000
 30
0.0
 10
-44.500000
 20
21.000000
 30
0.0
 10
-44.500000
 20
26.000000
 30
0.0
 10
-44.421700
 20
26.390000
 30
0.0
 10
-44.207800
 20
26.707800
 30
0.0
 10
-43.890000
 20
26.921700
 30
0.0
 10
-43.500000
 20
27.000000
 30
0.0
  0
ENDSEC
  0
SECTION
  2
OBJECTS
  0
DICTIONARY
  5
C
330
0
100
AcDbDictionary
  3
ACAD_GROUP
350
D
  3
ACAD_MLINESTYLE
350
17
  0
DICTIONARY
  5
D
330
C
100
AcDbDictionary
  0
DICTIONARY
  5
1A
330
C
100
AcDbDictionary
  0
DICTIONARY
  5
17
330
C
100
AcDbDictionary
  3
STANDARD
350
18
  0
DICTIONARY
  5
19
330
C
100
AcDbDictionary
  0
ENDSEC
  0
EOF
