  0
SECTION
  2
HEADER
  9
$ACADVER
  1
AC1014
  9
$HANDSEED
  5
FFFF
  9
$MEASUREMENT
 70
     1
  0
ENDSEC
  0
SECTION
  2
TABLES
  0
TABLE
  2
VPORT
  5
8
330
0
100
AcDbSymbolTable
 70
     4
  0
VPORT
  5
2E
330
8
100
AcDbSymbolTableRecord
100
AcDbViewportTableRecord
  2
*ACTIVE
 70
     0
 10
0.0
 20
0.0
 11
1.0
 21
1.0
 12
210.0
 22
148.5
 13
0.0
 23
0.0
 14
10.0
 24
10.0
 15
10.0
 25
10.0
 16
0.0
 26
0.0
 36
1.0
 17
0.0
 27
0.0
 37
0.0
 40
341.0
 41
1.24
 42
50.0
 43
0.0
 44
0.0
 50
0.0
 51
0.0
 71
     0
 72
   100
 73
     1
 74
     3
 75
     0
 76
     0
 77
     0
 78
     0
  0
ENDTAB
  0
TABLE
  2
LTYPE
  5
5
330
0
100
AcDbSymbolTable
 70
     1
  0
LTYPE
  5
14
330
5
100
AcDbSymbolTableRecord
100
AcDbLinetypeTableRecord
  2
BYBLOCK
 70
     0
  3

 72
    65
 73
     0
 40
0.0
  0
LTYPE
  5
15
330
5
100
AcDbSymbolTableRecord
100
AcDbLinetypeTableRecord
  2
BYLAYER
 70
     0
  3

 72
    65
 73
     0
 40
0.0
  0
LTYPE
  5
16
330
5
100
AcDbSymbolTableRecord
100
AcDbLinetypeTableRecord
  2
CONTINUOUS
 70
     0
  3
Solid line
 72
    65
 73
     0
 40
0.0
  0
ENDTAB
  0
TABLE
  2
LAYER
  5
2
100
AcDbSymbolTable
 70
2
  0
LAYER
  5
50
100
AcDbSymbolTableRecord
100
AcDbLayerTableRecord
  2
0
 70
0
  6
CONTINUOUS
  0
LAYER
  5
51
100
AcDbSymbolTableRecord
100
AcDbLayerTableRecord
  2
Layer_1
 70
0
  6
CONTINUOUS
  0
ENDTAB
  0
TABLE
  2
STYLE
  5
3
330
0
100
AcDbSymbolTable
 70
     1
  0
STYLE
  5
11
330
3
100
AcDbSymbolTableRecord
100
AcDbTextStyleTableRecord
  2
STANDARD
 70
     0
 40
0.0
 41
1.0
 50
0.0
 71
     0
 42
2.5
  3
txt
  4

  0
ENDTAB
  0
TABLE
  2
VIEW
  5
6
330
0
100
AcDbSymbolTable
 70
     0
  0
ENDTAB
  0
TABLE
  2
UCS
  5
7
330
0
100
AcDbSymbolTable
 70
     0
  0
ENDTAB
  0
TABLE
  2
APPID
  5
9
330
0
100
AcDbSymbolTable
 70
     2
  0
APPID
  5
12
330
9
100
AcDbSymbolTableRecord
100
AcDbRegAppTableRecord
  2
ACAD
 70
     0
  0
ENDTAB
  0
TABLE
  2
DIMSTYLE
  5
A
330
0
100
AcDbSymbolTable
 70
     1
  0
DIMSTYLE
105
27
330
A
100
AcDbSymbolTableRecord
100
AcDbDimStyleTableRecord
  2
ISO-25
 70
     0
  3

  4

  5

  6

  7

 40
1.0
 41
2.5
 42
0.625
 43
3.75
 44
1.25
 45
0.0
 46
0.0
 47
0.0
 48
0.0
140
2.5
141
2.5
142
0.0
143
0.03937007874016
144
1.0
145
0.0
146
1.0
147
0.625
 71
     0
 72
     0
 73
     0
 74
     0
 75
     0
 76
     0
 77
     1
 78
     8
170
     0
171
     3
172
     1
173
     0
174
     0
175
     0
176
     0
177
     0
178
     0
270
     2
271
     2
272
     2
273
     2
274
     3
340
11
275
     0
280
     0
281
     0
282
     0
283
     0
284
     8
285
     0
286
     0
287
     3
288
     0
  0
ENDTAB
  0
TABLE
  2
BLOCK_RECORD
  5
1
330
0
100
AcDbSymbolTable
 70
     1
  0
BLOCK_RECORD
  5
1F
330
1
100
AcDbSymbolTableRecord
100
AcDbBlockTableRecord
  2
*MODEL_SPACE
  0
BLOCK_RECORD
  5
1B
330
1
100
AcDbSymbolTableRecord
100
AcDbBlockTableRecord
  2
*PAPER_SPACE
  0
ENDTAB
  0
ENDSEC
  0
SECTION
  2
BLOCKS
  0
BLOCK
  5
20
330
1F
100
AcDbEntity
  8
0
100
AcDbBlockBegin
  2
*MODEL_SPACE
 70
     0
 10
0.0
 20
0.0
 30
0.0
  3
*MODEL_SPACE
  1

  0
ENDBLK
  5
21
330
1F
100
AcDbEntity
  8
0
100
AcDbBlockEnd
  0
BLOCK
  5
1C
330
1B
100
AcDbEntity
 67
     1
  8
0
100
AcDbBlockBegin
  2
*PAPER_SPACE
  1

  0
ENDBLK
  5
1D
330
1B
100
AcDbEntity
 67
     1
  8
0
100
AcDbBlockEnd
  0
ENDSEC
  0
SECTION
  2
ENTITIES
  0
LWPOLYLINE
  5
100
100
AcDbEntity
  8
Layer_1
 62
7
100
AcDbPolyline
 90
255
 70
1
 10
3.643708
 20
114.015193
 30
0.0
 10
2.998787
 20
113.958837
 30
0.0
 10
2.425691
 20
113.794531
 30
0.0
 10
1.922361
 20
113.528889
 30
0.0
 10
1.484664
 20
113.168262
 30
0.0
 10
1.109493
 20
112.718735
 30
0.0
 10
0.794266
 20
112.186394
 30
0.0
 10
0.535884
 20
111.578117
 30
0.0
 10
0.330213
 20
110.900254
 30
0.0
 10
0.175183
 20
110.158627
 30
0.0
 10
0.066663
 20
109.360380
 30
0.0
 10
0.002067
 20
108.511332
 30
0.0
 10
-0.021704
 20
107.618364
 30
0.0
 10
0.039791
 20
105.724212
 30
0.0
 10
0.226343
 20
103.729519
 30
0.0
 10
0.511596
 20
101.685349
 30
0.0
 10
0.870749
 20
99.641443
 30
0.0
 10
1.278474
 20
97.649925
 30
0.0
 10
1.708938
 20
95.761065
 30
0.0
 10
2.538862
 20
92.496107
 30
0.0
 10
3.156902
 20
90.252971
 30
0.0
 10
3.959965
 20
87.185392
 30
0.0
 10
4.613671
 20
84.298789
 30
0.0
 10
5.125269
 20
81.585752
 30
0.0
 10
5.504046
 20
79.038609
 30
0.0
 10
5.757279
 20
76.650745
 30
0.0
 10
5.893169
 20
74.413958
 30
0.0
 10
5.920050
 20
72.321105
 30
0.0
 10
5.846152
 20
70.364776
 30
0.0
 10
5.679227
 20
68.537564
 30
0.0
 10
5.428084
 20
66.831531
 30
0.0
 10
5.100451
 20
65.240063
 30
0.0
 10
4.704608
 20
63.755222
 30
0.0
 10
4.248837
 20
62.369335
 30
0.0
 10
3.740863
 20
61.075258
 30
0.0
 10
3.188943
 20
59.866112
 30
0.0
 10
2.601906
 20
58.733431
 30
0.0
 10
1.986441
 20
57.670336
 30
0.0
 10
1.352372
 20
56.668888
 30
0.0
 10
0.057878
 20
54.823155
 30
0.0
 10
-2.404504
 20
51.548408
 30
0.0
 10
-2.946082
 20
50.773180
 30
0.0
 10
-3.442175
 20
50.000596
 30
0.0
 10
-3.884506
 20
49.222986
 30
0.0
 10
-4.264341
 20
48.432676
 30
0.0
 10
-4.573877
 20
47.623051
 30
0.0
 10
-4.805388
 20
46.785910
 30
0.0
 10
-4.950088
 20
45.914108
 30
0.0
 10
-5.000200
 20
44.999973
 30
0.0
 10
-4.964032
 20
44.081604
 30
0.0
 10
-4.858093
 20
43.199484
 30
0.0
 10
-4.688098
 20
42.352553
 30
0.0
 10
-4.458651
 20
41.538695
 30
0.0
 10
-4.175970
 20
40.755793
 30
0.0
 10
-3.843680
 20
40.002789
 30
0.0
 10
-3.468528
 20
39.277301
 30
0.0
 10
-3.054587
 20
38.578008
 30
0.0
 10
-2.132168
 20
37.250858
 30
0.0
 10
-1.117761
 20
36.005994
 30
0.0
 10
-0.052710
 20
34.829921
 30
0.0
 10
1.021127
 20
33.708618
 30
0.0
 10
2.063956
 20
32.627530
 30
0.0
 10
3.032891
 20
31.572637
 30
0.0
 10
3.887628
 20
30.530179
 30
0.0
 10
4.586789
 20
29.485075
 30
0.0
 10
4.864813
 20
28.955909
 30
0.0
 10
5.088571
 20
28.424096
 30
0.0
 10
5.252904
 20
27.881701
 30
0.0
 10
5.352652
 20
27.331367
 30
0.0
 10
5.382100
 20
26.770451
 30
0.0
 10
5.336618
 20
26.196305
 30
0.0
 10
5.211047
 20
25.606284
 30
0.0
 10
5.000200
 20
25.000389
 30
0.0
 10
4.864310
 20
24.730514
 30
0.0
 10
4.691193
 20
24.489743
 30
0.0
 10
4.481908
 20
24.270139
 30
0.0
 10
4.237460
 20
24.076993
 30
0.0
 10
3.646804
 20
23.759493
 30
0.0
 10
2.927481
 20
23.531952
 30
0.0
 10
2.086694
 20
23.386431
 30
0.0
 10
1.132747
 20
23.320285
 30
0.0
 10
0.072864
 20
23.328223
 30
0.0
 10
-1.084688
 20
23.402306
 30
0.0
 10
-2.332674
 20
23.537243
 30
0.0
 10
-3.662838
 20
23.727743
 30
0.0
 10
-6.539122
 20
24.256910
 30
0.0
 10
-9.651098
 20
24.942181
 30
0.0
 10
-12.936666
 20
25.746514
 30
0.0
 10
-19.779662
 20
27.516576
 30
0.0
 10
-23.212524
 20
28.397638
 30
0.0
 10
-26.569980
 20
29.217846
 30
0.0
 10
-29.789429
 20
29.932221
 30
0.0
 10
-32.809382
 20
30.495783
 30
0.0
 10
-34.224903
 20
30.707450
 30
0.0
 10
-35.566869
 20
30.866200
 30
0.0
 10
-36.827608
 20
30.966741
 30
0.0
 10
-37.999712
 20
31.001137
 30
0.0
 10
-39.107787
 20
30.958804
 30
0.0
 10
-40.180937
 20
30.842387
 30
0.0
 10
-41.217574
 20
30.649241
 30
0.0
 10
-42.217169
 20
30.389950
 30
0.0
 10
-43.177607
 20
30.064512
 30
0.0
 10
-44.098092
 20
29.675575
 30
0.0
 10
-44.976508
 20
29.233721
 30
0.0
 10
-45.812062
 20
28.736304
 30
0.0
 10
-46.603960
 20
28.193909
 30
0.0
 10
-47.350085
 20
27.606534
 30
0.0
 10
-48.048849
 20
26.979472
 30
0.0
 10
-48.699724
 20
26.315368
 30
0.0
 10
-49.300857
 20
25.622159
 30
0.0
 10
-49.851190
 20
24.899847
 30
0.0
 10
-50.349400
 20
24.159014
 30
0.0
 10
-50.793900
 20
23.394368
 30
0.0
 10
-51.182838
 20
22.619139
 30
0.0
 10
-51.516213
 20
21.833327
 30
0.0
 10
-51.791644
 20
21.039577
 30
0.0
 10
-52.008073
 20
20.248473
 30
0.0
 10
-52.164177
 20
19.457370
 30
0.0
 10
-52.258898
 20
18.671557
 30
0.0
 10
-52.290912
 20
17.898974
 30
0.0
 10
-52.257840
 20
17.142266
 30
0.0
 10
-52.159679
 20
16.404079
 30
0.0
 10
-51.994315
 20
15.689704
 30
0.0
 10
-51.760688
 20
15.004433
 30
0.0
 10
-51.456681
 20
14.350913
 30
0.0
 10
-51.082561
 20
13.734434
 30
0.0
 10
-50.636209
 20
13.157642
 30
0.0
 10
-50.115244
 20
12.628476
 30
0.0
 10
-49.519932
 20
12.144288
 30
0.0
 10
-49.134963
 20
11.922038
 30
0.0
 10
-48.617174
 20
11.705080
 30
0.0
 10
-47.970268
 20
11.498705
 30
0.0
 10
-47.198743
 20
11.297622
 30
0.0
 10
-45.297977
 20
10.919268
 30
0.0
 10
-42.949271
 20
10.572664
 30
0.0
 10
-40.186757
 20
10.249872
 30
0.0
 10
-37.043773
 20
9.958831
 30
0.0
 10
-33.554449
 20
9.688956
 30
0.0
 10
-29.752652
 20
9.445539
 30
0.0
 10
-21.348033
 20
9.030143
 30
0.0
 10
-12.101059
 20
8.696768
 30
0.0
 10
-2.283065
 20
8.440123
 30
0.0
 10
7.835183
 20
8.249623
 30
0.0
 10
17.981316
 20
8.114685
 30
0.0
 10
27.884165
 20
8.030019
 30
0.0
 10
45.875298
 20
7.963873
 30
0.0
 10
59.637596
 20
7.977102
 30
0.0
 10
67.000154
 20
7.998269
 30
0.0
 10
68.694545
 20
8.059123
 30
0.0
 10
70.334697
 20
8.233748
 30
0.0
 10
71.912407
 20
8.511560
 30
0.0
 10
73.420267
 20
8.889914
 30
0.0
 10
74.851133
 20
9.358227
 30
0.0
 10
76.197333
 20
9.905914
 30
0.0
 10
77.451457
 20
10.530330
 30
0.0
 10
78.605570
 20
11.220893
 30
0.0
 10
79.651467
 20
11.972309
 30
0.0
 10
80.582536
 20
12.771351
 30
0.0
 10
81.391367
 20
13.615371
 30
0.0
 10
82.070552
 20
14.491142
 30
0.0
 10
82.611360
 20
15.396017
 30
0.0
 10
83.007441
 20
16.322058
 30
0.0
 10
83.250064
 20
17.256037
 30
0.0
 10
83.312241
 20
17.724349
 30
0.0
 10
83.332879
 20
18.195307
 30
0.0
 10
83.273347
 20
19.269515
 30
0.0
 10
83.106131
 20
20.597723
 30
0.0
 10
82.844987
 20
22.134952
 30
0.0
 10
82.507114
 20
23.833577
 30
0.0
 10
81.659654
 20
27.550971
 30
0.0
 10
80.687046
 20
31.395366
 30
0.0
 10
79.712851
 20
35.011955
 30
0.0
 10
78.860363
 20
38.047254
 30
0.0
 10
78.012374
 20
40.957670
 30
0.0
 10
78.266109
 20
43.596888
 30
0.0
 10
73.420267
 20
43.692931
 30
0.0
 10
73.469479
 20
44.999973
 30
0.0
 10
73.451752
 20
46.354904
 30
0.0
 10
74.502942
 20
46.401206
 30
0.0
 10
74.372237
 20
49.398140
 30
0.0
 10
73.318932
 20
49.352103
 30
0.0
 10
73.085040
 20
52.054821
 30
0.0
 10
74.127763
 20
52.191610
 30
0.0
 10
73.736179
 20
55.166055
 30
0.0
 10
72.696367
 20
55.029266
 30
0.0
 10
72.220911
 20
57.699969
 30
0.0
 10
73.249346
 20
57.927775
 30
0.0
 10
72.599794
 20
60.856712
 30
0.0
 10
71.571359
 20
60.628906
 30
0.0
 10
70.873653
 20
63.250397
 30
0.0
 10
71.874042
 20
63.565780
 30
0.0
 10
70.971813
 20
66.426454
 30
0.0
 10
69.968249
 20
66.110277
 30
0.0
 10
69.039826
 20
68.659008
 30
0.0
 10
70.012699
 20
69.061968
 30
0.0
 10
68.864937
 20
71.833478
 30
0.0
 10
67.893916
 20
71.431311
 30
0.0
 10
66.746419
 20
73.889025
 30
0.0
 10
67.679604
 20
74.374800
 30
0.0
 10
66.294511
 20
77.036243
 30
0.0
 10
65.360267
 20
76.549939
 30
0.0
 10
64.005865
 20
78.900232
 30
0.0
 10
64.892219
 20
79.464853
 30
0.0
 10
63.280378
 20
81.995062
 30
0.0
 10
62.395082
 20
81.431235
 30
0.0
 10
60.836158
 20
83.650824
 30
0.0
 10
61.671712
 20
84.291910
 30
0.0
 10
59.845558
 20
86.672365
 30
0.0
 10
59.010269
 20
86.031545
 30
0.0
 10
57.268782
 20
88.111434
 30
0.0
 10
58.042952
 20
88.820517
 30
0.0
 10
56.016245
 20
91.032168
 30
0.0
 10
55.239957
 20
90.321233
 30
0.0
 10
53.322258
 20
92.238932
 30
0.0
 10
54.033458
 20
93.014955
 30
0.0
 10
51.821542
 20
95.041663
 30
0.0
 10
51.112723
 20
94.268286
 30
0.0
 10
49.032570
 20
96.009773
 30
0.0
 10
49.673390
 20
96.844269
 30
0.0
 10
47.293199
 20
98.670422
 30
0.0
 10
46.652379
 20
97.835398
 30
0.0
 10
44.432525
 20
99.394587
 30
0.0
 10
44.996087
 20
100.279089
 30
0.0
 10
42.465613
 20
101.890930
 30
0.0
 10
41.901257
 20
101.005105
 30
0.0
 10
39.550964
 20
102.359242
 30
0.0
 10
40.037268
 20
103.293486
 30
0.0
 10
37.376090
 20
104.678314
 30
0.0
 10
36.890844
 20
103.745658
 30
0.0
 10
34.432601
 20
104.893421
 30
0.0
 10
34.834503
 20
105.863912
 30
0.0
 10
32.063258
 20
107.011674
 30
0.0
 10
31.660033
 20
106.039066
 30
0.0
 10
29.111302
 20
106.968547
 30
0.0
 10
29.427744
 20
107.970788
 30
0.0
 10
26.566805
 20
108.873017
 30
0.0
 10
26.251633
 20
107.873951
 30
0.0
 10
23.630063
 20
108.571128
 30
0.0
 10
23.857975
 20
109.599034
 30
0.0
 10
20.928959
 20
110.248057
 30
0.0
 10
20.701047
 20
109.220151
 30
0.0
 10
18.030423
 20
109.695607
 30
0.0
 10
18.167371
 20
110.734890
 30
0.0
 10
15.192873
 20
111.127002
 30
0.0
 10
15.055925
 20
110.084809
 30
0.0
 10
12.353260
 20
110.318965
 30
0.0
 10
12.399245
 20
111.370948
 30
0.0
 10
9.402019
 20
111.501652
 30
0.0
 10
9.356008
 20
110.451786
 30
0.0
 10
8.000019
 20
110.469248
 30
0.0
 10
6.686919
 20
110.420565
 30
0.0
 10
6.657470
 20
111.695062
 30
0.0
 10
5.569689
 20
111.695062
 30
0.0
 10
3.999758
 20
113.999847
 30
0.0
 10
3.643708
 20
114.015193
 30
0.0
  0
LWPOLYLINE
  5
101
100
AcDbEntity
  8
Layer_1
 62
7
100
AcDbPolyline
 90
129
 70
1
 10
36.593717
 20
91.359193
 30
0.0
 10
37.680096
 20
91.332470
 30
0.0
 10
38.759331
 20
91.252037
 30
0.0
 10
39.829041
 20
91.119216
 30
0.0
 10
40.888168
 20
90.934272
 30
0.0
 10
41.934330
 20
90.698529
 30
0.0
 10
42.965940
 20
90.412250
 30
0.0
 10
43.981411
 20
90.076229
 30
0.0
 10
44.978360
 20
89.691525
 30
0.0
 10
45.955731
 20
89.258402
 30
0.0
 10
46.911141
 20
88.777919
 30
0.0
 10
47.843003
 20
88.250869
 30
0.0
 10
48.749465
 20
87.678046
 30
0.0
 10
49.628940
 20
87.059715
 30
0.0
 10
50.479575
 20
86.397199
 30
0.0
 10
51.299519
 20
85.691026
 30
0.0
 10
52.086654
 20
84.941726
 30
0.0
 10
52.835954
 20
84.154326
 30
0.0
 10
53.542127
 20
83.334647
 30
0.0
 10
54.204643
 20
82.484012
 30
0.0
 10
54.822974
 20
81.604538
 30
0.0
 10
55.395797
 20
80.698075
 30
0.0
 10
55.922847
 20
79.765948
 30
0.0
 10
56.403330
 20
78.810538
 30
0.0
 10
56.836188
 20
77.833432
 30
0.0
 10
57.220892
 20
76.836218
 30
0.0
 10
57.556913
 20
75.820747
 30
0.0
 10
57.843192
 20
74.789137
 30
0.0
 10
58.079200
 20
73.742975
 30
0.0
 10
58.263879
 20
72.684113
 30
0.0
 10
58.396700
 20
71.614138
 30
0.0
 10
58.476869
 20
70.534903
 30
0.0
 10
58.503857
 20
69.448524
 30
0.0
 10
58.475282
 20
68.320870
 30
0.0
 10
58.390879
 20
67.208298
 30
0.0
 10
58.251444
 20
66.111865
 30
0.0
 10
58.058827
 20
65.032894
 30
0.0
 10
57.814088
 20
63.972709
 30
0.0
 10
57.518813
 20
62.933162
 30
0.0
 10
57.174326
 20
61.915045
 30
0.0
 10
56.781949
 20
60.919947
 30
0.0
 10
56.343270
 20
59.949456
 30
0.0
 10
55.859347
 20
59.004894
 30
0.0
 10
55.331768
 20
58.087319
 30
0.0
 10
54.761855
 20
57.198319
 30
0.0
 10
54.151197
 20
56.339218
 30
0.0
 10
53.500587
 20
55.511601
 30
0.0
 10
52.811877
 20
54.716528
 30
0.0
 10
52.086390
 20
53.955587
 30
0.0
 10
51.325448
 20
53.230100
 30
0.0
 10
50.530640
 20
52.541389
 30
0.0
 10
49.702759
 20
51.891044
 30
0.0
 10
48.843922
 20
51.280121
 30
0.0
 10
47.954922
 20
50.710209
 30
0.0
 10
47.037347
 20
50.182630
 30
0.0
 10
46.092520
 20
49.698707
 30
0.0
 10
45.122029
 20
49.260028
 30
0.0
 10
44.127196
 20
48.867651
 30
0.0
 10
43.109080
 20
48.523163
 30
0.0
 10
42.069267
 20
48.228153
 30
0.0
 10
41.009347
 20
47.983414
 30
0.0
 10
39.930376
 20
47.790797
 30
0.0
 10
38.833943
 20
47.651362
 30
0.0
 10
37.721106
 20
47.566695
 30
0.0
 10
36.593717
 20
47.538120
 30
0.0
 10
35.466063
 20
47.566695
 30
0.0
 10
34.353490
 20
47.651362
 30
0.0
 10
33.256793
 20
47.790797
 30
0.0
 10
32.177822
 20
47.983414
 30
0.0
 10
31.117902
 20
48.228153
 30
0.0
 10
30.078089
 20
48.523163
 30
0.0
 10
29.060238
 20
48.867651
 30
0.0
 10
28.065140
 20
49.260028
 30
0.0
 10
27.094649
 20
49.698707
 30
0.0
 10
26.149901
 20
50.182630
 30
0.0
 10
25.232379
 20
50.710209
 30
0.0
 10
24.343406
 20
51.280121
 30
0.0
 10
23.484384
 20
51.891044
 30
0.0
 10
22.656688
 20
52.541389
 30
0.0
 10
21.861668
 20
53.230100
 30
0.0
 10
21.100753
 20
53.955587
 30
0.0
 10
20.375266
 20
54.716528
 30
0.0
 10
19.686608
 20
55.511601
 30
0.0
 10
19.036157
 20
56.339218
 30
0.0
 10
18.425314
 20
57.198319
 30
0.0
 10
17.855401
 20
58.087319
 30
0.0
 10
17.327822
 20
59.004894
 30
0.0
 10
16.843952
 20
59.949456
 30
0.0
 10
16.405194
 20
60.919947
 30
0.0
 10
16.012870
 20
61.915045
 30
0.0
 10
15.668409
 20
62.933162
 30
0.0
 10
15.373160
 20
63.972709
 30
0.0
 10
15.128500
 20
65.032894
 30
0.0
 10
14.935804
 20
66.111865
 30
0.0
 10
14.796475
 20
67.208298
 30
0.0
 10
14.711861
 20
68.320870
 30
0.0
 10
14.683339
 20
69.448524
 30
0.0
 10
14.710247
 20
70.534903
 30
0.0
 10
14.790522
 20
71.614138
 30
0.0
 10
14.923395
 20
72.684113
 30
0.0
 10
15.108154
 20
73.742975
 30
0.0
 10
15.344056
 20
74.789137
 30
0.0
 10
15.630309
 20
75.820747
 30
0.0
 10
15.966224
 20
76.836218
 30
0.0
 10
16.351034
 20
77.833432
 30
0.0
 10
16.783998
 20
78.810538
 30
0.0
 10
17.264375
 20
79.765948
 30
0.0
 10
17.791425
 20
80.698075
 30
0.0
 10
18.364380
 20
81.604538
 30
0.0
 10
18.982526
 20
82.484012
 30
0.0
 10
19.645095
 20
83.334647
 30
0.0
 10
20.351347
 20
84.154326
 30
0.0
 10
21.100568
 20
84.941726
 30
0.0
 10
21.887862
 20
85.691026
 30
0.0
 10
22.707673
 20
86.397199
 30
0.0
 10
23.558202
 20
87.059715
 30
0.0
 10
24.437651
 20
87.678046
 30
0.0
 10
25.344245
 20
88.250869
 30
0.0
 10
26.276160
 20
88.777919
 30
0.0
 10
27.231703
 20
89.258402
 30
0.0
 10
28.208809
 20
89.691525
 30
0.0
 10
29.206023
 20
90.076229
 30
0.0
 10
30.221229
 20
90.412250
 30
0.0
 10
31.252839
 20
90.698529
 30
0.0
 10
32.299001
 20
90.934272
 30
0.0
 10
33.358128
 20
91.119216
 30
0.0
 10
34.428103
 20
91.252037
 30
0.0
 10
35.507073
 20
91.332470
 30
0.0
 10
36.593717
 20
91.359193
 30
0.0
  0
LWPOLYLINE
  5
102
100
AcDbEntity
  8
Layer_1
 62
7
100
AcDbPolyline
 90
66
 70
1
 10
7.000019
 20
52.499850
 30
0.0
 10
7.766834
 20
52.461221
 30
0.0
 10
8.511477
 20
52.347450
 30
0.0
 10
9.230218
 20
52.162771
 30
0.0
 10
9.919245
 20
51.910623
 30
0.0
 10
10.574830
 20
51.594711
 30
0.0
 10
11.193187
 20
51.219002
 30
0.0
 10
11.770534
 20
50.787202
 30
0.0
 10
12.303114
 20
50.303280
 30
0.0
 10
12.787169
 20
49.770674
 30
0.0
 10
13.218916
 20
49.193353
 30
0.0
 10
13.594571
 20
48.575022
 30
0.0
 10
13.910405
 20
47.919384
 30
0.0
 10
14.162605
 20
47.230410
 30
0.0
 10
14.347417
 20
46.511537
 30
0.0
 10
14.461082
 20
45.767000
 30
0.0
 10
14.499817
 20
45.000237
 30
0.0
 10
14.463145
 20
44.258875
 30
0.0
 10
14.354455
 20
43.530213
 30
0.0
 10
14.175729
 20
42.819013
 30
0.0
 10
13.929031
 20
42.130038
 30
0.0
 10
13.616400
 20
41.468315
 30
0.0
 10
13.239898
 20
40.839136
 30
0.0
 10
12.801510
 20
40.246999
 30
0.0
 10
12.303299
 20
39.696666
 30
0.0
 10
11.753204
 20
39.198456
 30
0.0
 10
11.161041
 20
38.760041
 30
0.0
 10
10.531703
 20
38.383539
 30
0.0
 10
9.870165
 20
38.070802
 30
0.0
 10
9.181296
 20
37.824210
 30
0.0
 10
8.470044
 20
37.645352
 30
0.0
 10
7.741328
 20
37.536608
 30
0.0
 10
7.000019
 20
37.499831
 30
0.0
 10
6.258736
 20
37.536608
 30
0.0
 10
5.529994
 20
37.645352
 30
0.0
 10
4.818742
 20
37.824210
 30
0.0
 10
4.129899
 20
38.070802
 30
0.0
 10
3.468335
 20
38.383539
 30
0.0
 10
2.839024
 20
38.760041
 30
0.0
 10
2.246860
 20
39.198456
 30
0.0
 10
1.696739
 20
39.696666
 30
0.0
 10
1.198542
 20
40.246999
 30
0.0
 10
0.760164
 20
40.839136
 30
0.0
 10
0.383644
 20
41.468315
 30
0.0
 10
0.071020
 20
42.130038
 30
0.0
 10
-0.175669
 20
42.819013
 30
0.0
 10
-0.354390
 20
43.530213
 30
0.0
 10
-0.463102
 20
44.258875
 30
0.0
 10
-0.499773
 20
45.000237
 30
0.0
 10
-0.461033
 20
45.767000
 30
0.0
 10
-0.347368
 20
46.511537
 30
0.0
 10
-0.162551
 20
47.230410
 30
0.0
 10
0.089652
 20
47.919384
 30
0.0
 10
0.405472
 20
48.575022
 30
0.0
 10
0.781138
 20
49.193353
 30
0.0
 10
1.212879
 20
49.770674
 30
0.0
 10
1.696924
 20
50.303280
 30
0.0
 10
2.229504
 20
50.787202
 30
0.0
 10
2.806877
 20
51.219002
 30
0.0
 10
3.425208
 20
51.594711
 30
0.0
 10
4.080792
 20
51.910623
 30
0.0
 10
4.769847
 20
52.162771
 30
0.0
 10
5.488561
 20
52.347450
 30
0.0
 10
6.233230
 20
52.461221
 30
0.0
 10
7.000019
 20
52.499850
 30
0.0
 10
7.000019
 20
52.499850
 30
0.0
  0
LWPOLYLINE
  5
103
100
AcDbEntity
  8
Layer_1
 62
7
100
AcDbPolyline
 90
6
 70
1
 10
15.000125
 20
38.000158
 30
0.0
 10
20.999735
 20
38.000158
 30
0.0
 10
20.999735
 20
35.000313
 30
0.0
 10
15.000125
 20
35.000313
 30
0.0
 10
15.000125
 20
38.000158
 30
0.0
 10
15.000125
 20
38.000158
 30
0.0
  0
LWPOLYLINE
  5
104
100
AcDbEntity
  8
Layer_1
 62
7
100
AcDbPolyline
 90
6
 70
1
 10
28.999648
 20
38.000158
 30
0.0
 10
34.999867
 20
38.000158
 30
0.0
 10
34.999867
 20
35.000313
 30
0.0
 10
28.999648
 20
35.000313
 30
0.0
 10
28.999648
 20
38.000158
 30
0.0
 10
28.999648
 20
38.000158
 30
0.0
  0
LWPOLYLINE
  5
105
100
AcDbEntity
  8
Layer_1
 62
7
100
AcDbPolyline
 90
18
 70
1
 10
41.970049
 20
37.701973
 30
0.0
 10
42.352636
 20
37.625773
 30
0.0
 10
42.677015
 20
37.408815
 30
0.0
 10
42.893709
 20
37.084435
 30
0.0
 10
42.969909
 20
36.701848
 30
0.0
 10
42.893709
 20
36.318996
 30
0.0
 10
42.677015
 20
35.994617
 30
0.0
 10
42.352636
 20
35.777659
 30
0.0
 10
41.969784
 20
35.701459
 30
0.0
 10
41.586932
 20
35.777659
 30
0.0
 10
41.262553
 20
35.994617
 30
0.0
 10
41.045859
 20
36.318996
 30
0.0
 10
40.969659
 20
36.701848
 30
0.0
 10
41.045859
 20
37.084435
 30
0.0
 10
41.262553
 20
37.408815
 30
0.0
 10
41.587197
 20
37.625773
 30
0.0
 10
41.970049
 20
37.701973
 30
0.0
 10
41.970049
 20
37.701973
 30
0.0
  0
LWPOLYLINE
  5
106
100
AcDbEntity
  8
Layer_1
 62
7
100
AcDbPolyline
 90
66
 70
1
 10
60.000869
 20
34.584388
 30
0.0
 10
60.455687
 20
34.561899
 30
0.0
 10
60.902568
 20
34.495224
 30
0.0
 10
61.338866
 20
34.385422
 30
0.0
 10
61.761406
 20
34.234345
 30
0.0
 10
62.167276
 20
34.042522
 30
0.0
 10
62.553303
 20
33.811541
 30
0.0
 10
62.916576
 20
33.542724
 30
0.0
 10
63.253920
 20
33.237130
 30
0.0
 10
63.559513
 20
32.899787
 30
0.0
 10
63.828595
 20
32.536514
 30
0.0
 10
64.059576
 20
32.149428
 30
0.0
 10
64.251134
 20
31.744616
 30
0.0
 10
64.402476
 20
31.321283
 30
0.0
 10
64.512278
 20
30.884721
 30
0.0
 10
64.578953
 20
30.437575
 30
0.0
 10
64.601442
 20
29.985137
 30
0.0
 10
64.578953
 20
29.530054
 30
0.0
 10
64.512278
 20
29.082909
 30
0.0
 10
64.402476
 20
28.646346
 30
0.0
 10
64.251134
 20
28.223013
 30
0.0
 10
64.059576
 20
27.818201
 30
0.0
 10
63.828595
 20
27.431909
 30
0.0
 10
63.559513
 20
27.069430
 30
0.0
 10
63.253920
 20
26.730763
 30
0.0
 10
62.916576
 20
26.426493
 30
0.0
 10
62.553303
 20
26.156618
 30
0.0
 10
62.167276
 20
25.926430
 30
0.0
 10
61.761670
 20
25.733284
 30
0.0
 10
61.339131
 20
25.582472
 30
0.0
 10
60.902833
 20
25.473993
 30
0.0
 10
60.455952
 20
25.407847
 30
0.0
 10
60.001133
 20
25.384035
 30
0.0
 10
59.546579
 20
25.407847
 30
0.0
 10
59.099698
 20
25.473993
 30
0.0
 10
58.663400
 20
25.582472
 30
0.0
 10
58.240861
 20
25.733284
 30
0.0
 10
57.834990
 20
25.926430
 30
0.0
 10
57.448963
 20
26.156618
 30
0.0
 10
57.085955
 20
26.426493
 30
0.0
 10
56.748347
 20
26.730763
 30
0.0
 10
56.442753
 20
27.069430
 30
0.0
 10
56.173936
 20
27.431909
 30
0.0
 10
55.942955
 20
27.818201
 30
0.0
 10
55.751132
 20
28.223013
 30
0.0
 10
55.599791
 20
28.646346
 30
0.0
 10
55.490253
 20
29.082909
 30
0.0
 10
55.423578
 20
29.530054
 30
0.0
 10
55.401089
 20
29.985137
 30
0.0
 10
55.423578
 20
30.437575
 30
0.0
 10
55.490253
 20
30.884721
 30
0.0
 10
55.599791
 20
31.321283
 30
0.0
 10
55.751132
 20
31.744616
 30
0.0
 10
55.942955
 20
32.149428
 30
0.0
 10
56.173936
 20
32.536514
 30
0.0
 10
56.442753
 20
32.899787
 30
0.0
 10
56.748347
 20
33.237130
 30
0.0
 10
57.085955
 20
33.542724
 30
0.0
 10
57.448963
 20
33.811541
 30
0.0
 10
57.834990
 20
34.042522
 30
0.0
 10
58.240861
 20
34.234080
 30
0.0
 10
58.663136
 20
34.385422
 30
0.0
 10
59.099433
 20
34.494959
 30
0.0
 10
59.546315
 20
34.561899
 30
0.0
 10
60.000869
 20
34.584388
 30
0.0
 10
60.000869
 20
34.584388
 30
0.0
  0
LWPOLYLINE
  5
107
100
AcDbEntity
  8
Layer_1
 62
7
100
AcDbPolyline
 90
66
 70
1
 10
22.499922
 20
29.000888
 30
0.0
 10
23.241205
 20
28.963846
 30
0.0
 10
23.969947
 20
28.855367
 30
0.0
 10
24.681200
 20
28.675450
 30
0.0
 10
25.370095
 20
28.429388
 30
0.0
 10
26.031659
 20
28.117180
 30
0.0
 10
26.660997
 20
27.738826
 30
0.0
 10
27.253134
 20
27.302263
 30
0.0
 10
27.803467
 20
26.802201
 30
0.0
 10
28.301677
 20
26.254513
 30
0.0
 10
28.740092
 20
25.661847
 30
0.0
 10
29.116594
 20
25.032139
 30
0.0
 10
29.429331
 20
24.370681
 30
0.0
 10
29.675923
 20
23.682764
 30
0.0
 10
29.854781
 20
22.971035
 30
0.0
 10
29.963525
 20
22.240785
 30
0.0
 10
30.000302
 20
21.499952
 30
0.0
 10
29.963525
 20
20.759119
 30
0.0
 10
29.854781
 20
20.028869
 30
0.0
 10
29.676188
 20
19.319786
 30
0.0
 10
29.429331
 20
18.629224
 30
0.0
 10
29.116858
 20
17.967766
 30
0.0
 10
28.740092
 20
17.338058
 30
0.0
 10
28.301677
 20
16.748037
 30
0.0
 10
27.803467
 20
16.197704
 30
0.0
 10
27.253399
 20
15.697641
 30
0.0
 10
26.661261
 20
15.261079
 30
0.0
 10
26.031791
 20
14.882725
 30
0.0
 10
25.370201
 20
14.570517
 30
0.0
 10
24.681305
 20
14.324454
 30
0.0
 10
23.970000
 20
14.144538
 30
0.0
 10
23.241232
 20
14.036059
 30
0.0
 10
22.499922
 20
13.999017
 30
0.0
 10
21.758613
 20
14.036059
 30
0.0
 10
21.029898
 20
14.144538
 30
0.0
 10
20.318645
 20
14.324454
 30
0.0
 10
19.629776
 20
14.570517
 30
0.0
 10
18.968238
 20
14.882725
 30
0.0
 10
18.338901
 20
15.261079
 30
0.0
 10
17.746737
 20
15.697641
 30
0.0
 10
17.196642
 20
16.197704
 30
0.0
 10
16.698432
 20
16.748037
 30
0.0
 10
16.260044
 20
17.338058
 30
0.0
 10
15.883542
 20
17.967766
 30
0.0
 10
15.570910
 20
18.629224
 30
0.0
 10
15.324213
 20
19.319786
 30
0.0
 10
15.145487
 20
20.028869
 30
0.0
 10
15.036796
 20
20.759119
 30
0.0
 10
15.000125
 20
21.499952
 30
0.0
 10
15.038860
 20
22.267244
 30
0.0
 10
15.152524
 20
23.010723
 30
0.0
 10
15.337336
 20
23.730389
 30
0.0
 10
15.589537
 20
24.418306
 30
0.0
 10
15.905370
 20
25.074472
 30
0.0
 10
16.281025
 20
25.693597
 30
0.0
 10
16.712772
 20
26.270388
 30
0.0
 10
17.196801
 20
26.802201
 30
0.0
 10
17.729407
 20
27.286388
 30
0.0
 10
18.306754
 20
27.720305
 30
0.0
 10
18.925111
 20
28.096013
 30
0.0
 10
19.580696
 20
28.410867
 30
0.0
 10
20.269723
 20
28.662221
 30
0.0
 10
20.988464
 20
28.847429
 30
0.0
 10
21.733107
 20
28.961200
 30
0.0
 10
22.499922
 20
29.000888
 30
0.0
 10
22.499922
 20
29.000888
 30
0.0
  0
LWPOLYLINE
  5
108
100
AcDbEntity
  8
Layer_1
 62
7
100
AcDbPolyline
 90
6
 70
1
 10
-48.000166
 20
16.999391
 30
0.0
 10
-41.999947
 20
16.999391
 30
0.0
 10
-41.999947
 20
13.999017
 30
0.0
 10
-48.000166
 20
13.999017
 30
0.0
 10
-48.000166
 20
16.999391
 30
0.0
 10
-48.000166
 20
16.999391
 30
0.0
  0
LWPOLYLINE
  5
109
100
AcDbEntity
  8
Layer_1
 62
7
100
AcDbPolyline
 90
6
 70
1
 10
-24.000083
 20
16.999391
 30
0.0
 10
-17.999917
 20
16.999391
 30
0.0
 10
-17.999917
 20
13.999017
 30
0.0
 10
-24.000083
 20
13.999017
 30
0.0
 10
-24.000083
 20
16.999391
 30
0.0
 10
-24.000083
 20
16.999391
 30
0.0
  0
LWPOLYLINE
  5
10a
100
AcDbEntity
  8
Layer_1
 62
7
100
AcDbPolyline
 90
6
 70
1
 10
9.999898
 20
16.999391
 30
0.0
 10
16.000064
 20
16.999391
 30
0.0
 10
16.000064
 20
13.999017
 30
0.0
 10
9.999898
 20
13.999017
 30
0.0
 10
9.999898
 20
16.999391
 30
0.0
 10
9.999898
 20
16.999391
 30
0.0
  0
LWPOLYLINE
  5
10b
100
AcDbEntity
  8
Layer_1
 62
7
100
AcDbPolyline
 90
6
 70
1
 10
28.999648
 20
16.999391
 30
0.0
 10
34.999867
 20
16.999391
 30
0.0
 10
34.999867
 20
13.999017
 30
0.0
 10
28.999648
 20
13.999017
 30
0.0
 10
28.999648
 20
16.999391
 30
0.0
 10
28.999648
 20
16.999391
 30
0.0
  0
LWPOLYLINE
  5
10c
100
AcDbEntity
  8
Layer_1
 62
7
100
AcDbPolyline
 90
6
 70
1
 10
74.000233
 20
16.999391
 30
0.0
 10
79.999659
 20
16.999391
 30
0.0
 10
79.999659
 20
13.999017
 30
0.0
 10
74.000233
 20
13.999017
 30
0.0
 10
74.000233
 20
16.999391
 30
0.0
 10
74.000233
 20
16.999391
 30
0.0
  0
LWPOLYLINE
  5
10d
100
AcDbEntity
  8
Layer_1
 62
7
100
AcDbPolyline
 90
22
 70
1
 10
66.718373
 20
12.953913
 30
0.0
 10
67.101225
 20
12.877184
 30
0.0
 10
67.425869
 20
12.660226
 30
0.0
 10
67.553927
 20
12.504121
 30
0.0
 10
67.645473
 20
12.329497
 30
0.0
 10
67.718498
 20
11.953788
 30
0.0
 10
67.645473
 20
11.578080
 30
0.0
 10
67.553927
 20
11.403455
 30
0.0
 10
67.425869
 20
11.247351
 30
0.0
 10
67.101490
 20
11.030393
 30
0.0
 10
66.718638
 20
10.953664
 30
0.0
 10
66.335786
 20
11.030393
 30
0.0
 10
66.011406
 20
11.247351
 30
0.0
 10
65.883348
 20
11.403455
 30
0.0
 10
65.791802
 20
11.578080
 30
0.0
 10
65.718777
 20
11.953788
 30
0.0
 10
65.791802
 20
12.329497
 30
0.0
 10
65.883348
 20
12.504121
 30
0.0
 10
66.011406
 20
12.660226
 30
0.0
 10
66.335786
 20
12.877184
 30
0.0
 10
66.718373
 20
12.953913
 30
0.0
 10
66.718373
 20
12.953913
 30
0.0
  0
ENDSEC
  0
SECTION
  2
OBJECTS
  0
DICTIONARY
  5
C
330
0
100
AcDbDictionary
  3
ACAD_GROUP
350
D
  3
ACAD_MLINESTYLE
350
17
  0
DICTIONARY
  5
D
330
C
100
AcDbDictionary
  0
DICTIONARY
  5
1A
330
C
100
AcDbDictionary
  0
DICTIONARY
  5
17
330
C
100
AcDbDictionary
  3
STANDARD
350
18
  0
DICTIONARY
  5
19
330
C
100
AcDbDictionary
  0
ENDSEC
  0
EOF
