  0
SECTION
  2
HEADER
  9
$ACADVER
  1
AC1014
  9
$HANDSEED
  5
FFFF
  9
$MEASUREMENT
 70
     1
  0
ENDSEC
  0
SECTION
  2
TABLES
  0
TABLE
  2
VPORT
  5
8
330
0
100
AcDbSymbolTable
 70
     4
  0
VPORT
  5
2E
330
8
100
AcDbSymbolTableRecord
100
AcDbViewportTableRecord
  2
*ACTIVE
 70
     0
 10
0.0
 20
0.0
 11
1.0
 21
1.0
 12
210.0
 22
148.5
 13
0.0
 23
0.0
 14
10.0
 24
10.0
 15
10.0
 25
10.0
 16
0.0
 26
0.0
 36
1.0
 17
0.0
 27
0.0
 37
0.0
 40
341.0
 41
1.24
 42
50.0
 43
0.0
 44
0.0
 50
0.0
 51
0.0
 71
     0
 72
   100
 73
     1
 74
     3
 75
     0
 76
     0
 77
     0
 78
     0
  0
ENDTAB
  0
TABLE
  2
LTYPE
  5
5
330
0
100
AcDbSymbolTable
 70
     1
  0
LTYPE
  5
14
330
5
100
AcDbSymbolTableRecord
100
AcDbLinetypeTableRecord
  2
BYBLOCK
 70
     0
  3

 72
    65
 73
     0
 40
0.0
  0
LTYPE
  5
15
330
5
100
AcDbSymbolTableRecord
100
AcDbLinetypeTableRecord
  2
BYLAYER
 70
     0
  3

 72
    65
 73
     0
 40
0.0
  0
LTYPE
  5
16
330
5
100
AcDbSymbolTableRecord
100
AcDbLinetypeTableRecord
  2
CONTINUOUS
 70
     0
  3
Solid line
 72
    65
 73
     0
 40
0.0
  0
ENDTAB
  0
TABLE
  2
LAYER
  5
2
100
AcDbSymbolTable
 70
2
  0
LAYER
  5
50
100
AcDbSymbolTableRecord
100
AcDbLayerTableRecord
  2
0
 70
0
  6
CONTINUOUS
  0
LAYER
  5
51
100
AcDbSymbolTableRecord
100
AcDbLayerTableRecord
  2
Layer_1
 70
0
  6
CONTINUOUS
  0
ENDTAB
  0
TABLE
  2
STYLE
  5
3
330
0
100
AcDbSymbolTable
 70
     1
  0
STYLE
  5
11
330
3
100
AcDbSymbolTableRecord
100
AcDbTextStyleTableRecord
  2
STANDARD
 70
     0
 40
0.0
 41
1.0
 50
0.0
 71
     0
 42
2.5
  3
txt
  4

  0
ENDTAB
  0
TABLE
  2
VIEW
  5
6
330
0
100
AcDbSymbolTable
 70
     0
  0
ENDTAB
  0
TABLE
  2
UCS
  5
7
330
0
100
AcDbSymbolTable
 70
     0
  0
ENDTAB
  0
TABLE
  2
APPID
  5
9
330
0
100
AcDbSymbolTable
 70
     2
  0
APPID
  5
12
330
9
100
AcDbSymbolTableRecord
100
AcDbRegAppTableRecord
  2
ACAD
 70
     0
  0
ENDTAB
  0
TABLE
  2
DIMSTYLE
  5
A
330
0
100
AcDbSymbolTable
 70
     1
  0
DIMSTYLE
105
27
330
A
100
AcDbSymbolTableRecord
100
AcDbDimStyleTableRecord
  2
ISO-25
 70
     0
  3

  4

  5

  6

  7

 40
1.0
 41
2.5
 42
0.625
 43
3.75
 44
1.25
 45
0.0
 46
0.0
 47
0.0
 48
0.0
140
2.5
141
2.5
142
0.0
143
0.03937007874016
144
1.0
145
0.0
146
1.0
147
0.625
 71
     0
 72
     0
 73
     0
 74
     0
 75
     0
 76
     0
 77
     1
 78
     8
170
     0
171
     3
172
     1
173
     0
174
     0
175
     0
176
     0
177
     0
178
     0
270
     2
271
     2
272
     2
273
     2
274
     3
340
11
275
     0
280
     0
281
     0
282
     0
283
     0
284
     8
285
     0
286
     0
287
     3
288
     0
  0
ENDTAB
  0
TABLE
  2
BLOCK_RECORD
  5
1
330
0
100
AcDbSymbolTable
 70
     1
  0
BLOCK_RECORD
  5
1F
330
1
100
AcDbSymbolTableRecord
100
AcDbBlockTableRecord
  2
*MODEL_SPACE
  0
BLOCK_RECORD
  5
1B
330
1
100
AcDbSymbolTableRecord
100
AcDbBlockTableRecord
  2
*PAPER_SPACE
  0
ENDTAB
  0
ENDSEC
  0
SECTION
  2
BLOCKS
  0
BLOCK
  5
20
330
1F
100
AcDbEntity
  8
0
100
AcDbBlockBegin
  2
*MODEL_SPACE
 70
     0
 10
0.0
 20
0.0
 30
0.0
  3
*MODEL_SPACE
  1

  0
ENDBLK
  5
21
330
1F
100
AcDbEntity
  8
0
100
AcDbBlockEnd
  0
BLOCK
  5
1C
330
1B
100
AcDbEntity
 67
     1
  8
0
100
AcDbBlockBegin
  2
*PAPER_SPACE
  1

  0
ENDBLK
  5
1D
330
1B
100
AcDbEntity
 67
     1
  8
0
100
AcDbBlockEnd
  0
ENDSEC
  0
SECTION
  2
ENTITIES
  0
LWPOLYLINE
  5
100
100
AcDbEntity
  8
Layer_1
 62
7
100
AcDbPolyline
 90
24
 70
1
 10
0.100252
 20
30.099742
 30
0.0
 10
0.100252
 20
24.100105
 30
0.0
 10
3.100069
 20
24.100105
 30
0.0
 10
3.100069
 20
6.100188
 30
0.0
 10
0.100252
 20
6.100188
 30
0.0
 10
0.100252
 20
0.099943
 30
0.0
 10
22.754161
 20
0.099943
 30
0.0
 10
22.754161
 20
-33.900064
 30
0.0
 10
0.100252
 20
-33.900064
 30
0.0
 10
0.100252
 20
-39.900020
 30
0.0
 10
92.099847
 20
-39.900020
 30
0.0
 10
92.099847
 20
-33.900064
 30
0.0
 10
69.445964
 20
-33.900064
 30
0.0
 10
69.445964
 20
0.099943
 30
0.0
 10
92.099847
 20
0.099943
 30
0.0
 10
92.099847
 20
6.100188
 30
0.0
 10
89.100002
 20
6.100188
 30
0.0
 10
89.100002
 20
24.100105
 30
0.0
 10
92.099847
 20
24.100105
 30
0.0
 10
92.099847
 20
30.099742
 30
0.0
 10
69.445964
 20
30.099742
 30
0.0
 10
22.754161
 20
30.099742
 30
0.0
 10
0.100252
 20
30.099742
 30
0.0
 10
0.100252
 20
30.099742
 30
0.0
  0
LWPOLYLINE
  5
101
100
AcDbEntity
  8
Layer_1
 62
7
100
AcDbPolyline
 90
18
 70
1
 10
30.099992
 20
15.099998
 30
0.0
 10
30.023893
 20
14.717297
 30
0.0
 10
29.807093
 20
14.392897
 30
0.0
 10
29.482693
 20
14.176097
 30
0.0
 10
29.099993
 20
14.099997
 30
0.0
 10
28.717293
 20
14.176097
 30
0.0
 10
28.392893
 20
14.392897
 30
0.0
 10
28.176093
 20
14.717297
 30
0.0
 10
28.099993
 20
15.099998
 30
0.0
 10
28.176093
 20
15.482698
 30
0.0
 10
28.392893
 20
15.807098
 30
0.0
 10
28.717293
 20
16.023897
 30
0.0
 10
29.099993
 20
16.099997
 30
0.0
 10
29.482693
 20
16.023897
 30
0.0
 10
29.807093
 20
15.807098
 30
0.0
 10
30.023893
 20
15.482698
 30
0.0
 10
30.099992
 20
15.099998
 30
0.0
 10
30.099992
 20
15.099998
 30
0.0
  0
LWPOLYLINE
  5
102
100
AcDbEntity
  8
Layer_1
 62
7
100
AcDbPolyline
 90
18
 70
1
 10
64.099984
 20
15.099998
 30
0.0
 10
64.023884
 20
14.717297
 30
0.0
 10
63.807084
 20
14.392897
 30
0.0
 10
63.482684
 20
14.176097
 30
0.0
 10
63.099984
 20
14.099997
 30
0.0
 10
62.717284
 20
14.176097
 30
0.0
 10
62.392885
 20
14.392897
 30
0.0
 10
62.176085
 20
14.717297
 30
0.0
 10
62.099985
 20
15.099998
 30
0.0
 10
62.176085
 20
15.482698
 30
0.0
 10
62.392885
 20
15.807098
 30
0.0
 10
62.717284
 20
16.023897
 30
0.0
 10
63.099984
 20
16.099997
 30
0.0
 10
63.482684
 20
16.023897
 30
0.0
 10
63.807084
 20
15.807098
 30
0.0
 10
64.023884
 20
15.482698
 30
0.0
 10
64.099984
 20
15.099998
 30
0.0
 10
64.099984
 20
15.099998
 30
0.0
  0
LWPOLYLINE
  5
103
100
AcDbEntity
  8
Layer_1
 62
7
100
AcDbPolyline
 90
14
 70
1
 10
92.099885
 20
30.100258
 30
0.0
 10
92.099885
 20
24.100118
 30
0.0
 10
95.099705
 20
24.100118
 30
0.0
 10
95.099705
 20
6.100175
 30
0.0
 10
92.099885
 20
6.100175
 30
0.0
 10
92.099885
 20
0.099956
 30
0.0
 10
95.099705
 20
0.099956
 30
0.0
 10
181.100166
 20
0.099956
 30
0.0
 10
184.100011
 20
0.099956
 30
0.0
 10
184.100011
 20
6.100175
 30
0.0
 10
181.100166
 20
6.100175
 30
0.0
 10
181.100166
 20
24.100118
 30
0.0
 10
184.100011
 20
24.100118
 30
0.0
 10
184.100011
 20
30.100258
 30
0.0
  0
LWPOLYLINE
  5
104
100
AcDbEntity
  8
Layer_1
 62
7
100
AcDbPolyline
 90
21
 70
1
 10
121.099543
 20
16.100073
 30
0.0
 10
121.482395
 20
16.024111
 30
0.0
 10
121.807039
 20
15.807364
 30
0.0
 10
122.023997
 20
15.482906
 30
0.0
 10
122.100197
 20
15.100133
 30
0.0
 10
122.023997
 20
14.717387
 30
0.0
 10
121.807039
 20
14.392928
 30
0.0
 10
121.482395
 20
14.176182
 30
0.0
 10
121.099543
 20
14.100194
 30
0.0
 10
120.898196
 20
14.120566
 30
0.0
 10
120.710341
 20
14.178828
 30
0.0
 10
120.392577
 20
14.393114
 30
0.0
 10
120.178264
 20
14.710958
 30
0.0
 10
120.120056
 20
14.898653
 30
0.0
 10
120.099683
 20
15.100160
 30
0.0
 10
120.120056
 20
15.301693
 30
0.0
 10
120.178264
 20
15.489388
 30
0.0
 10
120.392577
 20
15.807205
 30
0.0
 10
120.710341
 20
16.021518
 30
0.0
 10
120.898196
 20
16.079779
 30
0.0
 10
121.099543
 20
16.100152
 30
0.0
  0
LWPOLYLINE
  5
105
100
AcDbEntity
  8
Layer_1
 62
7
100
AcDbPolyline
 90
21
 70
1
 10
155.099561
 20
16.100073
 30
0.0
 10
155.482413
 20
16.024111
 30
0.0
 10
155.807057
 20
15.807364
 30
0.0
 10
156.024015
 20
15.482906
 30
0.0
 10
156.100215
 20
15.100133
 30
0.0
 10
156.024015
 20
14.717387
 30
0.0
 10
155.807057
 20
14.392928
 30
0.0
 10
155.482413
 20
14.176182
 30
0.0
 10
155.099561
 20
14.100194
 30
0.0
 10
154.898213
 20
14.120566
 30
0.0
 10
154.710359
 20
14.178828
 30
0.0
 10
154.392595
 20
14.393114
 30
0.0
 10
154.178282
 20
14.710958
 30
0.0
 10
154.120074
 20
14.898653
 30
0.0
 10
154.099701
 20
15.100160
 30
0.0
 10
154.120074
 20
15.301693
 30
0.0
 10
154.178282
 20
15.489388
 30
0.0
 10
154.392595
 20
15.807205
 30
0.0
 10
154.710359
 20
16.021518
 30
0.0
 10
154.898213
 20
16.079779
 30
0.0
 10
155.099561
 20
16.100152
 30
0.0
  0
LWPOLYLINE
  5
106
100
AcDbEntity
  8
Layer_1
 62
7
100
AcDbPolyline
 90
14
 70
1
 10
71.307293
 20
-2.150060
 30
0.0
 10
71.307293
 20
-8.150200
 30
0.0
 10
74.307112
 20
-8.150200
 30
0.0
 10
74.307112
 20
-26.150143
 30
0.0
 10
71.307293
 20
-26.150143
 30
0.0
 10
71.307293
 20
-32.150362
 30
0.0
 10
74.307112
 20
-32.150362
 30
0.0
 10
160.307573
 20
-32.150362
 30
0.0
 10
163.307418
 20
-32.150362
 30
0.0
 10
163.307418
 20
-26.150143
 30
0.0
 10
160.307573
 20
-26.150143
 30
0.0
 10
160.307573
 20
-8.150200
 30
0.0
 10
163.307418
 20
-8.150200
 30
0.0
 10
163.307418
 20
-2.150060
 30
0.0
  0
LWPOLYLINE
  5
107
100
AcDbEntity
  8
Layer_1
 62
7
100
AcDbPolyline
 90
21
 70
1
 10
100.306950
 20
-16.150245
 30
0.0
 10
100.689802
 20
-16.226207
 30
0.0
 10
101.014446
 20
-16.442954
 30
0.0
 10
101.231404
 20
-16.767412
 30
0.0
 10
101.307604
 20
-17.150185
 30
0.0
 10
101.231404
 20
-17.532931
 30
0.0
 10
101.014446
 20
-17.857390
 30
0.0
 10
100.689802
 20
-18.074136
 30
0.0
 10
100.306950
 20
-18.150124
 30
0.0
 10
100.105603
 20
-18.129752
 30
0.0
 10
99.917748
 20
-18.071490
 30
0.0
 10
99.599984
 20
-17.857204
 30
0.0
 10
99.385672
 20
-17.539360
 30
0.0
 10
99.327463
 20
-17.351665
 30
0.0
 10
99.307090
 20
-17.150159
 30
0.0
 10
99.327463
 20
-16.948625
 30
0.0
 10
99.385672
 20
-16.760930
 30
0.0
 10
99.599984
 20
-16.443113
 30
0.0
 10
99.917748
 20
-16.228800
 30
0.0
 10
100.105603
 20
-16.170539
 30
0.0
 10
100.306950
 20
-16.150166
 30
0.0
  0
LWPOLYLINE
  5
108
100
AcDbEntity
  8
Layer_1
 62
7
100
AcDbPolyline
 90
21
 70
1
 10
134.306968
 20
-16.150245
 30
0.0
 10
134.689820
 20
-16.226207
 30
0.0
 10
135.014464
 20
-16.442954
 30
0.0
 10
135.231422
 20
-16.767412
 30
0.0
 10
135.307622
 20
-17.150185
 30
0.0
 10
135.231422
 20
-17.532931
 30
0.0
 10
135.014464
 20
-17.857390
 30
0.0
 10
134.689820
 20
-18.074136
 30
0.0
 10
134.306968
 20
-18.150124
 30
0.0
 10
134.105620
 20
-18.129752
 30
0.0
 10
133.917766
 20
-18.071490
 30
0.0
 10
133.600002
 20
-17.857204
 30
0.0
 10
133.385689
 20
-17.539360
 30
0.0
 10
133.327481
 20
-17.351665
 30
0.0
 10
133.307108
 20
-17.150159
 30
0.0
 10
133.327481
 20
-16.948625
 30
0.0
 10
133.385689
 20
-16.760930
 30
0.0
 10
133.600002
 20
-16.443113
 30
0.0
 10
133.917766
 20
-16.228800
 30
0.0
 10
134.105620
 20
-16.170539
 30
0.0
 10
134.306968
 20
-16.150166
 30
0.0
  0
LWPOLYLINE
  5
109
100
AcDbEntity
  8
Layer_1
 62
7
100
AcDbPolyline
 90
46
 70
1
 10
20.095416
 20
231.820809
 30
0.0
 10
17.095597
 20
231.820809
 30
0.0
 10
17.095597
 20
234.820628
 30
0.0
 10
17.095597
 20
239.820323
 30
0.0
 10
12.095900
 20
239.820323
 30
0.0
 10
11.583270
 20
239.794606
 30
0.0
 10
11.085748
 20
239.719107
 30
0.0
 10
10.605846
 20
239.596298
 30
0.0
 10
10.146027
 20
239.428653
 30
0.0
 10
9.708750
 20
239.218650
 30
0.0
 10
9.296530
 20
238.968762
 30
0.0
 10
8.911799
 20
238.681461
 30
0.0
 10
8.557046
 20
238.359228
 30
0.0
 10
8.234757
 20
238.004530
 30
0.0
 10
7.947420
 20
237.619850
 30
0.0
 10
7.697494
 20
237.207645
 30
0.0
 10
7.487442
 20
236.770421
 30
0.0
 10
7.319775
 20
236.310628
 30
0.0
 10
7.196929
 20
235.830753
 30
0.0
 10
7.121417
 20
235.333258
 30
0.0
 10
7.095753
 20
234.820628
 30
0.0
 10
7.095753
 20
158.820511
 30
0.0
 10
7.121417
 20
158.308013
 30
0.0
 10
7.196929
 20
157.810596
 30
0.0
 10
7.319775
 20
157.330642
 30
0.0
 10
7.487442
 20
156.870797
 30
0.0
 10
7.697494
 20
156.433440
 30
0.0
 10
7.947420
 20
156.021220
 30
0.0
 10
8.234757
 20
155.636516
 30
0.0
 10
8.557046
 20
155.281709
 30
0.0
 10
8.911799
 20
154.959447
 30
0.0
 10
9.296530
 20
154.672110
 30
0.0
 10
9.708750
 20
154.422343
 30
0.0
 10
10.146027
 20
154.212264
 30
0.0
 10
10.605846
 20
154.044518
 30
0.0
 10
11.085748
 20
153.921752
 30
0.0
 10
11.583270
 20
153.846081
 30
0.0
 10
12.095900
 20
153.820416
 30
0.0
 10
17.095597
 20
153.820416
 30
0.0
 10
17.095597
 20
158.820511
 30
0.0
 10
17.095597
 20
161.820356
 30
0.0
 10
20.095416
 20
161.820356
 30
0.0
 10
20.095416
 20
173.820794
 30
0.0
 10
17.095597
 20
173.820794
 30
0.0
 10
17.095597
 20
219.820502
 30
0.0
 10
20.095416
 20
219.820502
 30
0.0
  0
LWPOLYLINE
  5
10a
100
AcDbEntity
  8
Layer_1
 62
7
100
AcDbPolyline
 90
165
 70
1
 10
13.000247
 20
152.200608
 30
0.0
 10
13.000247
 20
152.180976
 30
0.0
 10
11.999779
 20
151.181039
 30
0.0
 10
8.000021
 20
151.181039
 30
0.0
 10
7.000081
 20
152.180976
 30
0.0
 10
6.000142
 20
152.180976
 30
0.0
 10
5.000203
 20
151.181039
 30
0.0
 10
5.000203
 20
145.181394
 30
0.0
 10
6.000142
 20
144.180952
 30
0.0
 10
7.000081
 20
144.180952
 30
0.0
 10
8.000021
 20
145.181394
 30
0.0
 10
11.999779
 20
145.181394
 30
0.0
 10
13.000247
 20
144.180952
 30
0.0
 10
13.000247
 20
142.181073
 30
0.0
 10
11.999779
 20
141.181134
 30
0.0
 10
7.600051
 20
141.181134
 30
0.0
 10
7.600051
 20
141.100515
 30
0.0
 10
7.600051
 20
111.100160
 30
0.0
 10
6.099890
 20
111.100160
 30
0.0
 10
6.099890
 20
141.100510
 30
0.0
 10
1.599906
 20
141.100510
 30
0.0
 10
1.599906
 20
131.100612
 30
0.0
 10
3.100071
 20
131.100612
 30
0.0
 10
3.100071
 20
106.200338
 30
0.0
 10
3.115047
 20
106.200338
 30
0.0
 10
5.000202
 20
104.181303
 30
0.0
 10
9.999900
 20
104.181303
 30
0.0
 10
11.999778
 20
104.181303
 30
0.0
 10
13.000247
 20
103.181445
 30
0.0
 10
13.000247
 20
101.180929
 30
0.0
 10
11.999778
 20
100.181071
 30
0.0
 10
8.000021
 20
100.181071
 30
0.0
 10
7.000081
 20
101.180929
 30
0.0
 10
6.000142
 20
101.180929
 30
0.0
 10
5.000203
 20
100.181071
 30
0.0
 10
5.000203
 20
94.180852
 30
0.0
 10
6.000142
 20
93.180989
 30
0.0
 10
7.000081
 20
93.180989
 30
0.0
 10
8.000021
 20
94.180852
 30
0.0
 10
11.999779
 20
94.180852
 30
0.0
 10
13.000247
 20
93.180989
 30
0.0
 10
13.000247
 20
91.181004
 30
0.0
 10
11.999779
 20
90.181147
 30
0.0
 10
5.000203
 20
90.181147
 30
0.0
 10
3.100071
 20
88.281436
 30
0.0
 10
3.100071
 20
68.100351
 30
0.0
 10
0.100254
 20
68.100351
 30
0.0
 10
0.100254
 20
63.100510
 30
0.0
 10
3.100071
 20
63.100510
 30
0.0
 10
3.100071
 20
56.200179
 30
0.0
 10
3.115047
 20
56.200179
 30
0.0
 10
5.000202
 20
54.181409
 30
0.0
 10
9.999900
 20
54.181409
 30
0.0
 10
11.999778
 20
54.181409
 30
0.0
 10
13.000247
 20
53.181284
 30
0.0
 10
13.000247
 20
51.181035
 30
0.0
 10
11.999778
 20
50.180910
 30
0.0
 10
8.000021
 20
50.180910
 30
0.0
 10
7.000081
 20
51.181035
 30
0.0
 10
6.000142
 20
51.181035
 30
0.0
 10
5.000203
 20
50.180910
 30
0.0
 10
5.000203
 20
44.181484
 30
0.0
 10
6.000142
 20
43.180831
 30
0.0
 10
7.000081
 20
43.180831
 30
0.0
 10
8.000021
 20
44.181484
 30
0.0
 10
11.999779
 20
44.181484
 30
0.0
 10
13.000247
 20
43.180831
 30
0.0
 10
13.000247
 20
41.181110
 30
0.0
 10
11.999779
 20
40.180986
 30
0.0
 10
5.000203
 20
40.180986
 30
0.0
 10
3.100071
 20
38.281542
 30
0.0
 10
3.100071
 20
33.200750
 30
0.0
 10
3.140552
 20
32.796467
 30
0.0
 10
3.256731
 20
32.420759
 30
0.0
 10
3.440696
 20
32.080769
 30
0.0
 10
3.684509
 20
31.784965
 30
0.0
 10
3.980261
 20
31.541019
 30
0.0
 10
4.320038
 20
31.357134
 30
0.0
 10
4.695906
 20
31.240717
 30
0.0
 10
5.099951
 20
31.200236
 30
0.0
 10
87.100017
 20
31.200236
 30
0.0
 10
87.504033
 20
31.240717
 30
0.0
 10
87.880006
 20
31.357134
 30
0.0
 10
88.219731
 20
31.541019
 30
0.0
 10
88.515538
 20
31.784965
 30
0.0
 10
88.759219
 20
32.080769
 30
0.0
 10
88.943369
 20
32.420759
 30
0.0
 10
89.059521
 20
32.796467
 30
0.0
 10
89.100002
 20
33.200750
 30
0.0
 10
89.100002
 20
38.181265
 30
0.0
 10
89.000254
 20
38.181265
 30
0.0
 10
86.999740
 20
40.180986
 30
0.0
 10
79.999658
 20
40.180986
 30
0.0
 10
78.999801
 20
41.181110
 30
0.0
 10
78.999801
 20
43.180831
 30
0.0
 10
79.999658
 20
44.181484
 30
0.0
 10
83.999895
 20
44.181484
 30
0.0
 10
85.000020
 20
43.180831
 30
0.0
 10
85.999880
 20
43.180831
 30
0.0
 10
86.999740
 20
44.181484
 30
0.0
 10
86.999740
 20
50.180910
 30
0.0
 10
85.999880
 20
51.181035
 30
0.0
 10
85.000020
 20
51.181035
 30
0.0
 10
83.999895
 20
50.180910
 30
0.0
 10
79.999658
 20
50.180910
 30
0.0
 10
78.999801
 20
51.181035
 30
0.0
 10
78.999801
 20
53.181284
 30
0.0
 10
79.999658
 20
54.181409
 30
0.0
 10
82.000175
 20
54.181409
 30
0.0
 10
86.999740
 20
54.181409
 30
0.0
 10
88.884896
 20
56.200179
 30
0.0
 10
89.100002
 20
56.196739
 30
0.0
 10
89.100002
 20
63.100510
 30
0.0
 10
92.099847
 20
63.100510
 30
0.0
 10
92.099847
 20
68.100351
 30
0.0
 10
89.100002
 20
68.100351
 30
0.0
 10
89.100002
 20
88.181159
 30
0.0
 10
89.000254
 20
88.181159
 30
0.0
 10
86.999740
 20
90.181147
 30
0.0
 10
79.999658
 20
90.181147
 30
0.0
 10
78.999801
 20
91.181004
 30
0.0
 10
78.999801
 20
93.180989
 30
0.0
 10
79.999658
 20
94.180852
 30
0.0
 10
83.999895
 20
94.180852
 30
0.0
 10
85.000020
 20
93.180989
 30
0.0
 10
85.999880
 20
93.180989
 30
0.0
 10
86.999740
 20
94.180852
 30
0.0
 10
86.999740
 20
100.181071
 30
0.0
 10
85.999880
 20
101.180929
 30
0.0
 10
85.000020
 20
101.180929
 30
0.0
 10
83.999895
 20
100.181071
 30
0.0
 10
79.999658
 20
100.181071
 30
0.0
 10
78.999801
 20
101.180929
 30
0.0
 10
78.999801
 20
103.181445
 30
0.0
 10
79.999658
 20
104.181303
 30
0.0
 10
82.000175
 20
104.181303
 30
0.0
 10
86.999740
 20
104.181303
 30
0.0
 10
88.884896
 20
106.200338
 30
0.0
 10
89.100002
 20
106.196633
 30
0.0
 10
89.100002
 20
131.100612
 30
0.0
 10
90.600189
 20
131.100612
 30
0.0
 10
90.600189
 20
141.100510
 30
0.0
 10
89.100002
 20
141.100510
 30
0.0
 10
86.100157
 20
141.100510
 30
0.0
 10
86.100157
 20
131.100612
 30
0.0
 10
86.100157
 20
111.100155
 30
0.0
 10
84.599970
 20
111.100155
 30
0.0
 10
84.599970
 20
141.100510
 30
0.0
 10
84.599970
 20
141.181128
 30
0.0
 10
79.999658
 20
141.181128
 30
0.0
 10
78.999801
 20
142.181068
 30
0.0
 10
78.999801
 20
144.180947
 30
0.0
 10
79.999658
 20
145.181389
 30
0.0
 10
83.999895
 20
145.181389
 30
0.0
 10
85.000020
 20
144.180947
 30
0.0
 10
85.999880
 20
144.180947
 30
0.0
 10
86.999740
 20
145.181389
 30
0.0
 10
86.999740
 20
151.181034
 30
0.0
 10
85.999880
 20
152.180971
 30
0.0
 10
85.000020
 20
152.180971
 30
0.0
 10
83.999895
 20
151.181034
 30
0.0
 10
79.999658
 20
151.181034
 30
0.0
 10
78.999801
 20
152.180971
 30
0.0
 10
78.999801
 20
152.200603
 30
0.0
 10
13.000247
 20
152.200603
 30
0.0
  0
LWPOLYLINE
  5
10b
100
AcDbEntity
  8
Layer_1
 62
7
100
AcDbPolyline
 90
4
 70
1
 10
11.100090
 20
37.100707
 30
0.0
 10
23.099867
 20
37.100707
 30
0.0
 10
23.099867
 20
34.100333
 30
0.0
 10
11.100090
 20
34.100333
 30
0.0
  0
LWPOLYLINE
  5
10c
100
AcDbEntity
  8
Layer_1
 62
7
100
AcDbPolyline
 90
4
 70
1
 10
69.100154
 20
37.100707
 30
0.0
 10
81.100063
 20
37.100707
 30
0.0
 10
81.100063
 20
34.100333
 30
0.0
 10
69.100154
 20
34.100333
 30
0.0
  0
LWPOLYLINE
  5
10d
100
AcDbEntity
  8
Layer_1
 62
7
100
AcDbPolyline
 90
16
 70
1
 10
123.150654
 20
101.551338
 30
0.0
 10
122.014054
 20
101.780838
 30
0.0
 10
121.085854
 20
102.406538
 30
0.0
 10
120.460154
 20
103.334738
 30
0.0
 10
120.230655
 20
104.471337
 30
0.0
 10
120.460154
 20
105.607937
 30
0.0
 10
121.085854
 20
106.536087
 30
0.0
 10
122.014054
 20
107.161867
 30
0.0
 10
123.150654
 20
107.391337
 30
0.0
 10
124.287253
 20
107.161867
 30
0.0
 10
125.215453
 20
106.536087
 30
0.0
 10
125.841153
 20
105.607937
 30
0.0
 10
126.070653
 20
104.471337
 30
0.0
 10
125.841153
 20
103.334738
 30
0.0
 10
125.215453
 20
102.406538
 30
0.0
 10
124.287253
 20
101.780838
 30
0.0
  0
LWPOLYLINE
  5
10e
100
AcDbEntity
  8
Layer_1
 62
7
100
AcDbPolyline
 90
230
 70
1
 10
193.965331
 20
109.008616
 30
0.0
 10
193.926702
 20
109.663830
 30
0.0
 10
193.797056
 20
110.256074
 30
0.0
 10
193.580892
 20
110.787913
 30
0.0
 10
193.283765
 20
111.261861
 30
0.0
 10
192.911231
 20
111.680457
 30
0.0
 10
192.468054
 20
112.046257
 30
0.0
 10
191.959790
 20
112.361759
 30
0.0
 10
191.391465
 20
112.629512
 30
0.0
 10
190.768636
 20
112.852043
 30
0.0
 10
190.096065
 20
113.031888
 30
0.0
 10
189.379468
 20
113.171577
 30
0.0
 10
188.623845
 20
113.273646
 30
0.0
 10
187.016634
 20
113.375045
 30
0.0
 10
185.316501
 20
113.356346
 30
0.0
 10
183.565357
 20
113.237810
 30
0.0
 10
181.805164
 20
113.039693
 30
0.0
 10
180.077885
 20
112.782261
 30
0.0
 10
178.425483
 20
112.485769
 30
0.0
 10
175.513136
 20
111.856651
 30
0.0
 10
173.403772
 20
111.314433
 30
0.0
 10
170.316721
 20
110.489251
 30
0.0
 10
167.374105
 20
109.771754
 30
0.0
 10
164.571261
 20
109.156360
 30
0.0
 10
161.903547
 20
108.637565
 30
0.0
 10
159.366307
 20
108.209813
 30
0.0
 10
156.954896
 20
107.867602
 30
0.0
 10
154.664663
 20
107.605400
 30
0.0
 10
152.490953
 20
107.417677
 30
0.0
 10
150.429108
 20
107.298905
 30
0.0
 10
148.474499
 20
107.243555
 30
0.0
 10
146.622470
 20
107.246095
 30
0.0
 10
144.868362
 20
107.300996
 30
0.0
 10
143.207520
 20
107.402728
 30
0.0
 10
141.635313
 20
107.545788
 30
0.0
 10
140.147059
 20
107.724593
 30
0.0
 10
138.738153
 20
107.933667
 30
0.0
 10
136.139601
 20
108.420448
 30
0.0
 10
133.802802
 20
108.961864
 30
0.0
 10
129.764468
 20
110.031760
 30
0.0
 10
127.988585
 20
110.471789
 30
0.0
 10
126.325679
 20
110.789553
 30
0.0
 10
125.524786
 20
110.888745
 30
0.0
 10
124.737915
 20
110.940815
 30
0.0
 10
123.960834
 20
110.940206
 30
0.0
 10
123.188780
 20
110.881363
 30
0.0
 10
121.829351
 20
110.649297
 30
0.0
 10
120.619677
 20
110.303274
 30
0.0
 10
119.540177
 20
109.865627
 30
0.0
 10
118.571273
 20
109.358739
 30
0.0
 10
117.693386
 20
108.804887
 30
0.0
 10
116.887201
 20
108.226429
 30
0.0
 10
115.412144
 20
107.085043
 30
0.0
 10
114.703854
 20
106.566777
 30
0.0
 10
113.989479
 20
106.113254
 30
0.0
 10
113.249440
 20
105.746780
 30
0.0
 10
112.464157
 20
105.489712
 30
0.0
 10
111.614051
 20
105.364379
 30
0.0
 10
111.158703
 20
105.358081
 30
0.0
 10
110.679807
 20
105.393112
 30
0.0
 10
110.174983
 20
105.472222
 30
0.0
 10
109.641847
 20
105.598217
 30
0.0
 10
108.480591
 20
106.002077
 30
0.0
 10
108.205689
 20
106.143470
 30
0.0
 10
107.945075
 20
106.332541
 30
0.0
 10
107.697690
 20
106.567809
 30
0.0
 10
107.463798
 20
106.847870
 30
0.0
 10
107.034379
 20
107.536580
 30
0.0
 10
106.654438
 20
108.387268
 30
0.0
 10
106.321327
 20
109.388398
 30
0.0
 10
106.032667
 20
110.528541
 30
0.0
 10
105.785546
 20
111.796212
 30
0.0
 10
105.577849
 20
113.179942
 30
0.0
 10
105.406663
 20
114.668270
 30
0.0
 10
105.269874
 20
116.249719
 30
0.0
 10
105.088634
 20
119.646106
 30
0.0
 10
105.013757
 20
123.277379
 30
0.0
 10
105.025134
 20
127.051738
 30
0.0
 10
105.102392
 20
130.877480
 30
0.0
 10
105.225424
 20
134.662820
 30
0.0
 10
105.527578
 20
141.745371
 30
0.0
 10
105.769407
 20
147.565144
 30
0.0
 10
105.817296
 20
149.772298
 30
0.0
 10
105.789251
 20
151.388372
 30
0.0
 10
105.661192
 20
152.738011
 30
0.0
 10
105.426771
 20
154.182636
 30
0.0
 10
105.093926
 20
155.685469
 30
0.0
 10
104.670063
 20
157.210527
 30
0.0
 10
104.163122
 20
158.721297
 30
0.0
 10
103.580774
 20
160.181268
 30
0.0
 10
102.930693
 20
161.554190
 30
0.0
 10
102.220552
 20
162.803817
 30
0.0
 10
101.457758
 20
163.893635
 30
0.0
 10
101.059296
 20
164.367239
 30
0.0
 10
100.650250
 20
164.787133
 30
0.0
 10
100.232208
 20
165.148818
 30
0.0
 10
99.805700
 20
165.448062
 30
0.0
 10
99.372048
 20
165.680101
 30
0.0
 10
98.931782
 20
165.840174
 30
0.0
 10
98.486223
 20
165.923783
 30
0.0
 10
98.036167
 20
165.926693
 30
0.0
 10
97.582672
 20
165.844408
 30
0.0
 10
97.126530
 20
165.671899
 30
0.0
 10
96.668801
 20
165.404935
 30
0.0
 10
96.210543
 20
165.038752
 30
0.0
 10
95.752549
 20
164.569116
 30
0.0
 10
95.295878
 20
163.991266
 30
0.0
 10
95.073893
 20
163.603917
 30
0.0
 10
94.863814
 20
163.077660
 30
0.0
 10
94.665112
 20
162.417261
 30
0.0
 10
94.477522
 20
161.626950
 30
0.0
 10
94.135152
 20
159.674855
 30
0.0
 10
93.834585
 20
157.256300
 30
0.0
 10
93.573441
 20
154.406738
 30
0.0
 10
93.349869
 20
151.161624
 30
0.0
 10
93.161750
 20
147.556413
 30
0.0
 10
93.006704
 20
143.626028
 30
0.0
 10
92.787894
 20
134.931451
 30
0.0
 10
92.676769
 20
125.360893
 30
0.0
 10
92.656396
 20
115.196885
 30
0.0
 10
92.709842
 20
104.721997
 30
0.0
 10
92.820437
 20
94.218808
 30
0.0
 10
92.970985
 20
83.969912
 30
0.0
 10
93.324733
 20
65.365475
 30
0.0
 10
93.636148
 20
51.169525
 30
0.0
 10
93.769762
 20
43.642661
 30
0.0
 10
93.799925
 20
41.991132
 30
0.0
 10
93.890412
 20
40.472427
 30
0.0
 10
94.040431
 20
39.083627
 30
0.0
 10
94.250510
 20
37.820241
 30
0.0
 10
94.519856
 20
36.679094
 30
0.0
 10
94.848468
 20
35.656480
 30
0.0
 10
95.236083
 20
34.748697
 30
0.0
 10
95.682435
 20
33.951772
 30
0.0
 10
96.187524
 20
33.262530
 30
0.0
 10
96.751086
 20
32.677007
 30
0.0
 10
97.372592
 20
32.191500
 30
0.0
 10
98.052042
 20
31.802827
 30
0.0
 10
98.789436
 20
31.506491
 30
0.0
 10
99.583979
 20
31.299587
 30
0.0
 10
100.436202
 20
31.178143
 30
0.0
 10
101.345046
 20
31.138456
 30
0.0
 10
102.392531
 20
31.172587
 30
0.0
 10
103.643216
 20
31.269427
 30
0.0
 10
106.605225
 20
31.614973
 30
0.0
 10
109.933947
 20
32.104185
 30
0.0
 10
113.332255
 20
32.665366
 30
0.0
 10
119.149387
 20
33.720788
 30
0.0
 10
121.680391
 20
34.211590
 30
0.0
 10
121.747595
 20
34.205505
 30
0.0
 10
121.843639
 20
39.050554
 30
0.0
 10
123.150416
 20
39.001606
 30
0.0
 10
124.505876
 20
39.019068
 30
0.0
 10
124.551913
 20
37.968408
 30
0.0
 10
127.549112
 20
38.099377
 30
0.0
 10
127.503339
 20
39.151889
 30
0.0
 10
130.205264
 20
39.386577
 30
0.0
 10
130.342847
 20
38.343587
 30
0.0
 10
133.316763
 20
38.734906
 30
0.0
 10
133.179973
 20
39.775250
 30
0.0
 10
135.850941
 20
40.250439
 30
0.0
 10
136.079012
 20
39.222268
 30
0.0
 10
139.007419
 20
39.871291
 30
0.0
 10
138.779534
 20
40.900255
 30
0.0
 10
141.401078
 20
41.597167
 30
0.0
 10
141.716302
 20
40.597307
 30
0.0
 10
144.577611
 20
41.499536
 30
0.0
 10
144.261355
 20
42.502574
 30
0.0
 10
146.809530
 20
43.431788
 30
0.0
 10
147.212596
 20
42.458651
 30
0.0
 10
149.984529
 20
43.606413
 30
0.0
 10
149.582495
 20
44.577433
 30
0.0
 10
152.040209
 20
45.725198
 30
0.0
 10
152.525984
 20
44.792010
 30
0.0
 10
155.186792
 20
46.176839
 30
0.0
 10
154.700514
 20
47.111083
 30
0.0
 10
157.051283
 20
48.464955
 30
0.0
 10
157.615586
 20
47.579398
 30
0.0
 10
160.145664
 20
49.190974
 30
0.0
 10
159.581863
 20
50.076267
 30
0.0
 10
161.801370
 20
51.634927
 30
0.0
 10
162.442675
 20
50.799373
 30
0.0
 10
164.822890
 20
52.625527
 30
0.0
 10
164.182104
 20
53.460552
 30
0.0
 10
166.262088
 20
55.202039
 30
0.0
 10
166.971092
 20
54.428397
 30
0.0
 10
169.182823
 20
56.455370
 30
0.0
 10
168.471755
 20
57.230863
 30
0.0
 10
170.389984
 20
59.149092
 30
0.0
 10
171.166165
 20
58.438157
 30
0.0
 10
173.192926
 20
60.649808
 30
0.0
 10
172.418808
 20
61.358891
 30
0.0
 10
174.160295
 20
63.438780
 30
0.0
 10
174.995399
 20
62.797959
 30
0.0
 10
176.821632
 20
65.178150
 30
0.0
 10
175.986025
 20
65.819500
 30
0.0
 10
177.545109
 20
68.039089
 30
0.0
 10
178.430325
 20
67.475262
 30
0.0
 10
180.042113
 20
70.005207
 30
0.0
 10
179.156368
 20
70.569564
 30
0.0
 10
180.510293
 20
72.920386
 30
0.0
 10
181.444087
 20
72.434082
 30
0.0
 10
182.829551
 20
75.094996
 30
0.0
 10
181.896260
 20
75.580770
 30
0.0
 10
183.044525
 20
78.039014
 30
0.0
 10
184.014487
 20
77.636847
 30
0.0
 10
185.162725
 20
80.408357
 30
0.0
 10
184.190170
 20
80.811317
 30
0.0
 10
185.118805
 20
83.360047
 30
0.0
 10
186.121840
 20
83.043870
 30
0.0
 10
187.023592
 20
85.904545
 30
0.0
 10
186.024182
 20
86.219928
 30
0.0
 10
186.721809
 20
88.841392
 30
0.0
 10
187.749662
 20
88.613480
 30
0.0
 10
188.398711
 20
91.542496
 30
0.0
 10
187.370858
 20
91.770408
 30
0.0
 10
187.846288
 20
94.441032
 30
0.0
 10
188.886020
 20
94.304083
 30
0.0
 10
189.277709
 20
97.278582
 30
0.0
 10
188.235410
 20
97.415530
 30
0.0
 10
188.470016
 20
100.118222
 30
0.0
 10
189.522158
 20
100.072210
 30
0.0
 10
189.652889
 20
103.068933
 30
0.0
 10
188.602837
 20
103.114918
 30
0.0
 10
188.620405
 20
104.471436
 30
0.0
 10
188.571299
 20
105.784536
 30
0.0
 10
192.401115
 20
105.873410
 30
0.0
 10
192.293165
 20
107.191670
 30
0.0
 10
193.948133
 20
108.651031
 30
0.0
 10
193.965331
 20
109.008615
 30
0.0
  0
LWPOLYLINE
  5
10f
100
AcDbEntity
  8
Layer_1
 62
7
100
AcDbPolyline
 90
4
 70
1
 10
100.150664
 20
162.471320
 30
0.0
 10
100.150664
 20
156.471323
 30
0.0
 10
97.150660
 20
156.471323
 30
0.0
 10
97.150660
 20
162.471320
 30
0.0
  0
LWPOLYLINE
  5
110
100
AcDbEntity
  8
Layer_1
 62
7
100
AcDbPolyline
 90
4
 70
1
 10
100.150664
 20
138.471328
 30
0.0
 10
100.150664
 20
132.471329
 30
0.0
 10
97.150660
 20
132.471329
 30
0.0
 10
97.150660
 20
138.471328
 30
0.0
  0
LWPOLYLINE
  5
111
100
AcDbEntity
  8
Layer_1
 62
7
100
AcDbPolyline
 90
16
 70
1
 10
113.150645
 20
51.971353
 30
0.0
 10
112.193965
 20
52.161652
 30
0.0
 10
111.382858
 20
52.703553
 30
0.0
 10
110.840965
 20
53.514651
 30
0.0
 10
110.650650
 20
54.471352
 30
0.0
 10
110.840965
 20
55.428051
 30
0.0
 10
111.382858
 20
56.239152
 30
0.0
 10
112.193965
 20
56.781050
 30
0.0
 10
113.150645
 20
56.971352
 30
0.0
 10
114.107351
 20
56.781050
 30
0.0
 10
114.918458
 20
56.239152
 30
0.0
 10
115.460351
 20
55.428051
 30
0.0
 10
115.650655
 20
54.471352
 30
0.0
 10
115.460351
 20
53.514651
 30
0.0
 10
114.918458
 20
52.703553
 30
0.0
 10
114.107351
 20
52.161652
 30
0.0
  0
LWPOLYLINE
  5
112
100
AcDbEntity
  8
Layer_1
 62
7
100
AcDbPolyline
 90
16
 70
1
 10
105.150652
 20
35.971357
 30
0.0
 10
104.767959
 20
36.047457
 30
0.0
 10
104.443554
 20
36.264256
 30
0.0
 10
104.226754
 20
36.588657
 30
0.0
 10
104.150660
 20
36.971355
 30
0.0
 10
104.226754
 20
37.354056
 30
0.0
 10
104.443554
 20
37.678457
 30
0.0
 10
104.767959
 20
37.895256
 30
0.0
 10
105.150652
 20
37.971356
 30
0.0
 10
105.533346
 20
37.895256
 30
0.0
 10
105.857751
 20
37.678457
 30
0.0
 10
106.074551
 20
37.354056
 30
0.0
 10
106.150645
 20
36.971355
 30
0.0
 10
106.074551
 20
36.588657
 30
0.0
 10
105.857751
 20
36.264256
 30
0.0
 10
105.533346
 20
36.047457
 30
0.0
  0
LWPOLYLINE
  5
113
100
AcDbEntity
  8
Layer_1
 62
7
100
AcDbPolyline
 90
16
 70
1
 10
105.150652
 20
70.971346
 30
0.0
 10
104.767959
 20
71.047446
 30
0.0
 10
104.443554
 20
71.264248
 30
0.0
 10
104.226754
 20
71.588646
 30
0.0
 10
104.150660
 20
71.971347
 30
0.0
 10
104.226754
 20
72.354045
 30
0.0
 10
104.443554
 20
72.678446
 30
0.0
 10
104.767959
 20
72.895245
 30
0.0
 10
105.150652
 20
72.971347
 30
0.0
 10
105.533346
 20
72.895245
 30
0.0
 10
105.857751
 20
72.678446
 30
0.0
 10
106.074551
 20
72.354045
 30
0.0
 10
106.150645
 20
71.971347
 30
0.0
 10
106.074551
 20
71.588646
 30
0.0
 10
105.857751
 20
71.264248
 30
0.0
 10
105.533346
 20
71.047446
 30
0.0
  0
LWPOLYLINE
  5
114
100
AcDbEntity
  8
Layer_1
 62
7
100
AcDbPolyline
 90
4
 70
1
 10
118.150654
 20
99.471339
 30
0.0
 10
118.150654
 20
93.471340
 30
0.0
 10
115.150656
 20
93.471340
 30
0.0
 10
115.150656
 20
99.471339
 30
0.0
  0
LWPOLYLINE
  5
115
100
AcDbEntity
  8
Layer_1
 62
7
100
AcDbPolyline
 90
4
 70
1
 10
118.150654
 20
75.471347
 30
0.0
 10
118.150654
 20
69.471347
 30
0.0
 10
115.150656
 20
69.471347
 30
0.0
 10
115.150656
 20
75.471347
 30
0.0
  0
LWPOLYLINE
  5
116
100
AcDbEntity
  8
Layer_1
 62
7
100
AcDbPolyline
 90
4
 70
1
 10
100.150664
 20
104.471337
 30
0.0
 10
100.150664
 20
98.471339
 30
0.0
 10
97.150660
 20
98.471339
 30
0.0
 10
97.150660
 20
104.471337
 30
0.0
  0
LWPOLYLINE
  5
117
100
AcDbEntity
  8
Layer_1
 62
7
100
AcDbPolyline
 90
4
 70
1
 10
100.150664
 20
80.471343
 30
0.0
 10
100.150664
 20
74.471346
 30
0.0
 10
97.150660
 20
74.471346
 30
0.0
 10
97.150660
 20
80.471343
 30
0.0
  0
LWPOLYLINE
  5
118
100
AcDbEntity
  8
Layer_1
 62
7
100
AcDbPolyline
 90
64
 70
1
 10
147.712846
 20
58.572951
 30
0.0
 10
145.547246
 20
58.680150
 30
0.0
 10
143.418348
 20
58.997851
 30
0.0
 10
141.340549
 20
59.519950
 30
0.0
 10
139.328049
 20
60.240749
 30
0.0
 10
137.395449
 20
61.154149
 30
0.0
 10
135.556949
 20
62.254148
 30
0.0
 10
133.826951
 20
63.534848
 30
0.0
 10
132.219851
 20
64.990349
 30
0.0
 10
130.764352
 20
66.597449
 30
0.0
 10
129.483652
 20
68.327448
 30
0.0
 10
128.383653
 20
70.165947
 30
0.0
 10
127.470253
 20
72.098548
 30
0.0
 10
126.749552
 20
74.111045
 30
0.0
 10
126.227352
 20
76.188846
 30
0.0
 10
125.909651
 20
78.317744
 30
0.0
 10
125.802453
 20
80.483345
 30
0.0
 10
125.909651
 20
82.648842
 30
0.0
 10
126.227352
 20
84.777743
 30
0.0
 10
126.749552
 20
86.855642
 30
0.0
 10
127.470253
 20
88.868042
 30
0.0
 10
128.383653
 20
90.800741
 30
0.0
 10
129.483652
 20
92.639241
 30
0.0
 10
130.764352
 20
94.369240
 30
0.0
 10
132.219851
 20
95.976340
 30
0.0
 10
133.826951
 20
97.431839
 30
0.0
 10
135.556949
 20
98.712539
 30
0.0
 10
137.395449
 20
99.812539
 30
0.0
 10
139.328049
 20
100.725838
 30
0.0
 10
141.340549
 20
101.446638
 30
0.0
 10
143.418348
 20
101.968838
 30
0.0
 10
145.547246
 20
102.286538
 30
0.0
 10
147.712846
 20
102.393738
 30
0.0
 10
149.878444
 20
102.286538
 30
0.0
 10
152.007345
 20
101.968838
 30
0.0
 10
154.085165
 20
101.446638
 30
0.0
 10
156.097593
 20
100.725838
 30
0.0
 10
158.030244
 20
99.812539
 30
0.0
 10
159.868743
 20
98.712539
 30
0.0
 10
161.598731
 20
97.431839
 30
0.0
 10
163.205837
 20
95.976340
 30
0.0
 10
164.661322
 20
94.369240
 30
0.0
 10
165.942040
 20
92.639241
 30
0.0
 10
167.042061
 20
90.800741
 30
0.0
 10
167.955410
 20
88.868042
 30
0.0
 10
168.676159
 20
86.855642
 30
0.0
 10
169.198351
 20
84.777743
 30
0.0
 10
169.516031
 20
82.648842
 30
0.0
 10
169.623240
 20
80.483345
 30
0.0
 10
169.516031
 20
78.317744
 30
0.0
 10
169.198351
 20
76.188846
 30
0.0
 10
168.676159
 20
74.111045
 30
0.0
 10
167.955410
 20
72.098548
 30
0.0
 10
167.042061
 20
70.165947
 30
0.0
 10
165.942040
 20
68.327448
 30
0.0
 10
164.661322
 20
66.597449
 30
0.0
 10
163.205837
 20
64.990349
 30
0.0
 10
161.598731
 20
63.534848
 30
0.0
 10
159.868743
 20
62.254148
 30
0.0
 10
158.030244
 20
61.154149
 30
0.0
 10
156.097593
 20
60.240749
 30
0.0
 10
154.085165
 20
59.519950
 30
0.0
 10
152.007345
 20
58.997851
 30
0.0
 10
149.878444
 20
58.680150
 30
0.0
  0
LWPOLYLINE
  5
119
100
AcDbEntity
  8
Layer_1
 62
7
100
AcDbPolyline
 90
4
 70
1
 10
100.150664
 20
40.471355
 30
0.0
 10
100.150664
 20
34.471356
 30
0.0
 10
97.150660
 20
34.471356
 30
0.0
 10
97.150660
 20
40.471355
 30
0.0
  0
LWPOLYLINE
  5
11a
100
AcDbEntity
  8
Layer_1
 62
7
100
AcDbPolyline
 90
16
 70
1
 10
92.547938
 20
173.479353
 30
0.0
 10
93.684537
 20
173.249853
 30
0.0
 10
94.612738
 20
172.624154
 30
0.0
 10
95.238437
 20
171.695954
 30
0.0
 10
95.467937
 20
170.559354
 30
0.0
 10
95.238437
 20
169.422755
 30
0.0
 10
94.612738
 20
168.494605
 30
0.0
 10
93.684537
 20
167.868825
 30
0.0
 10
92.547938
 20
167.639355
 30
0.0
 10
91.411338
 20
167.868825
 30
0.0
 10
90.483138
 20
168.494605
 30
0.0
 10
89.857438
 20
169.422755
 30
0.0
 10
89.627939
 20
170.559354
 30
0.0
 10
89.857438
 20
171.695954
 30
0.0
 10
90.483138
 20
172.624154
 30
0.0
 10
91.411338
 20
173.249853
 30
0.0
  0
LWPOLYLINE
  5
11b
100
AcDbEntity
  8
Layer_1
 62
7
100
AcDbPolyline
 90
230
 70
1
 10
21.733260
 20
166.022076
 30
0.0
 10
21.771890
 20
165.366862
 30
0.0
 10
21.901535
 20
164.774618
 30
0.0
 10
22.117700
 20
164.242779
 30
0.0
 10
22.414827
 20
163.768831
 30
0.0
 10
22.787360
 20
163.350234
 30
0.0
 10
23.230537
 20
162.984434
 30
0.0
 10
23.738802
 20
162.668933
 30
0.0
 10
24.307126
 20
162.401180
 30
0.0
 10
24.929955
 20
162.178649
 30
0.0
 10
25.602526
 20
161.998804
 30
0.0
 10
26.319123
 20
161.859115
 30
0.0
 10
27.074747
 20
161.757046
 30
0.0
 10
28.681958
 20
161.655647
 30
0.0
 10
30.382090
 20
161.674346
 30
0.0
 10
32.133235
 20
161.792882
 30
0.0
 10
33.893428
 20
161.990999
 30
0.0
 10
35.620707
 20
162.248431
 30
0.0
 10
37.273108
 20
162.544922
 30
0.0
 10
40.185456
 20
163.174040
 30
0.0
 10
42.294819
 20
163.716258
 30
0.0
 10
45.381871
 20
164.541441
 30
0.0
 10
48.324487
 20
165.258938
 30
0.0
 10
51.127331
 20
165.874331
 30
0.0
 10
53.795044
 20
166.393126
 30
0.0
 10
56.332284
 20
166.820878
 30
0.0
 10
58.743696
 20
167.163090
 30
0.0
 10
61.033929
 20
167.425292
 30
0.0
 10
63.207639
 20
167.613014
 30
0.0
 10
65.269483
 20
167.731786
 30
0.0
 10
67.224092
 20
167.787137
 30
0.0
 10
69.076122
 20
167.784597
 30
0.0
 10
70.830230
 20
167.729696
 30
0.0
 10
72.491072
 20
167.627963
 30
0.0
 10
74.063278
 20
167.484903
 30
0.0
 10
75.551533
 20
167.306098
 30
0.0
 10
76.960439
 20
167.097024
 30
0.0
 10
79.558990
 20
166.610243
 30
0.0
 10
81.895789
 20
166.068827
 30
0.0
 10
85.934124
 20
164.998932
 30
0.0
 10
87.710007
 20
164.558903
 30
0.0
 10
89.372912
 20
164.241139
 30
0.0
 10
90.173806
 20
164.141947
 30
0.0
 10
90.960676
 20
164.089877
 30
0.0
 10
91.737758
 20
164.090485
 30
0.0
 10
92.509811
 20
164.149329
 30
0.0
 10
93.869240
 20
164.381395
 30
0.0
 10
95.078915
 20
164.727417
 30
0.0
 10
96.158415
 20
165.165064
 30
0.0
 10
97.127318
 20
165.671953
 30
0.0
 10
98.005206
 20
166.225805
 30
0.0
 10
98.811391
 20
166.804263
 30
0.0
 10
100.286448
 20
167.945649
 30
0.0
 10
100.994737
 20
168.463914
 30
0.0
 10
101.709112
 20
168.917437
 30
0.0
 10
102.449151
 20
169.283911
 30
0.0
 10
103.234435
 20
169.540980
 30
0.0
 10
104.084541
 20
169.666313
 30
0.0
 10
104.539888
 20
169.672610
 30
0.0
 10
105.018784
 20
169.637579
 30
0.0
 10
105.523609
 20
169.558469
 30
0.0
 10
106.056744
 20
169.432474
 30
0.0
 10
107.218000
 20
169.028615
 30
0.0
 10
107.492902
 20
168.887221
 30
0.0
 10
107.753517
 20
168.698151
 30
0.0
 10
108.000902
 20
168.462883
 30
0.0
 10
108.234794
 20
168.182822
 30
0.0
 10
108.664212
 20
167.494112
 30
0.0
 10
109.044154
 20
166.643423
 30
0.0
 10
109.377264
 20
165.642293
 30
0.0
 10
109.665924
 20
164.502151
 30
0.0
 10
109.913045
 20
163.234480
 30
0.0
 10
110.120743
 20
161.850750
 30
0.0
 10
110.291928
 20
160.362422
 30
0.0
 10
110.428718
 20
158.780972
 30
0.0
 10
110.609958
 20
155.384585
 30
0.0
 10
110.684835
 20
151.753312
 30
0.0
 10
110.673457
 20
147.978953
 30
0.0
 10
110.596199
 20
144.153211
 30
0.0
 10
110.473168
 20
140.367872
 30
0.0
 10
110.171014
 20
133.285321
 30
0.0
 10
109.929185
 20
127.465548
 30
0.0
 10
109.881295
 20
125.258394
 30
0.0
 10
109.909341
 20
123.642319
 30
0.0
 10
110.037399
 20
122.292680
 30
0.0
 10
110.271820
 20
120.848056
 30
0.0
 10
110.604666
 20
119.345223
 30
0.0
 10
111.028528
 20
117.820165
 30
0.0
 10
111.535470
 20
116.309394
 30
0.0
 10
112.117817
 20
114.849424
 30
0.0
 10
112.767899
 20
113.476501
 30
0.0
 10
113.478040
 20
112.226875
 30
0.0
 10
114.240834
 20
111.137056
 30
0.0
 10
114.639296
 20
110.663452
 30
0.0
 10
115.048342
 20
110.243559
 30
0.0
 10
115.466383
 20
109.881873
 30
0.0
 10
115.892891
 20
109.582630
 30
0.0
 10
116.326543
 20
109.350590
 30
0.0
 10
116.766810
 20
109.190517
 30
0.0
 10
117.212368
 20
109.106909
 30
0.0
 10
117.662424
 20
109.103999
 30
0.0
 10
118.115920
 20
109.186284
 30
0.0
 10
118.572062
 20
109.358792
 30
0.0
 10
119.029791
 20
109.625757
 30
0.0
 10
119.488049
 20
109.991940
 30
0.0
 10
119.946042
 20
110.461575
 30
0.0
 10
120.402713
 20
111.039425
 30
0.0
 10
120.624698
 20
111.426775
 30
0.0
 10
120.834778
 20
111.953031
 30
0.0
 10
121.033480
 20
112.613431
 30
0.0
 10
121.221069
 20
113.403741
 30
0.0
 10
121.563440
 20
115.355836
 30
0.0
 10
121.864006
 20
117.774392
 30
0.0
 10
122.125150
 20
120.623954
 30
0.0
 10
122.348723
 20
123.869067
 30
0.0
 10
122.536842
 20
127.474279
 30
0.0
 10
122.691887
 20
131.404663
 30
0.0
 10
122.910698
 20
140.099240
 30
0.0
 10
123.021823
 20
149.669799
 30
0.0
 10
123.042196
 20
159.833807
 30
0.0
 10
122.988750
 20
170.308695
 30
0.0
 10
122.878154
 20
180.811883
 30
0.0
 10
122.727606
 20
191.060780
 30
0.0
 10
122.373858
 20
209.665216
 30
0.0
 10
122.062444
 20
223.861166
 30
0.0
 10
121.928829
 20
231.388031
 30
0.0
 10
121.898667
 20
233.039560
 30
0.0
 10
121.808179
 20
234.558265
 30
0.0
 10
121.658161
 20
235.947065
 30
0.0
 10
121.448082
 20
237.210450
 30
0.0
 10
121.178736
 20
238.351598
 30
0.0
 10
120.850123
 20
239.374212
 30
0.0
 10
120.462509
 20
240.281995
 30
0.0
 10
120.016157
 20
241.078919
 30
0.0
 10
119.511068
 20
241.768161
 30
0.0
 10
118.947505
 20
242.353684
 30
0.0
 10
118.325999
 20
242.839192
 30
0.0
 10
117.646549
 20
243.227865
 30
0.0
 10
116.909156
 20
243.524200
 30
0.0
 10
116.114612
 20
243.731105
 30
0.0
 10
115.262390
 20
243.852548
 30
0.0
 10
114.353546
 20
243.892236
 30
0.0
 10
113.306061
 20
243.858104
 30
0.0
 10
112.055376
 20
243.761264
 30
0.0
 10
109.093366
 20
243.415719
 30
0.0
 10
105.764644
 20
242.926507
 30
0.0
 10
102.366337
 20
242.365326
 30
0.0
 10
96.549204
 20
241.309903
 30
0.0
 10
94.018201
 20
240.819101
 30
0.0
 10
93.950996
 20
240.825187
 30
0.0
 10
93.854953
 20
235.980138
 30
0.0
 10
92.548176
 20
236.029086
 30
0.0
 10
91.192716
 20
236.011623
 30
0.0
 10
91.146679
 20
237.062283
 30
0.0
 10
88.149479
 20
236.931315
 30
0.0
 10
88.195252
 20
235.878803
 30
0.0
 10
85.493328
 20
235.644115
 30
0.0
 10
85.355745
 20
236.687104
 30
0.0
 10
82.381829
 20
236.295786
 30
0.0
 10
82.518618
 20
235.255442
 30
0.0
 10
79.847650
 20
234.780253
 30
0.0
 10
79.619580
 20
235.808423
 30
0.0
 10
76.691172
 20
235.159401
 30
0.0
 10
76.919058
 20
234.130436
 30
0.0
 10
74.297514
 20
233.433524
 30
0.0
 10
73.982289
 20
234.433384
 30
0.0
 10
71.120980
 20
233.531155
 30
0.0
 10
71.437237
 20
232.528118
 30
0.0
 10
68.889062
 20
231.598904
 30
0.0
 10
68.485995
 20
232.572041
 30
0.0
 10
65.714063
 20
231.424279
 30
0.0
 10
66.116097
 20
230.453258
 30
0.0
 10
63.658383
 20
229.305493
 30
0.0
 10
63.172608
 20
230.238681
 30
0.0
 10
60.511800
 20
228.853852
 30
0.0
 10
60.998078
 20
227.919609
 30
0.0
 10
58.647308
 20
226.565736
 30
0.0
 10
58.083005
 20
227.451294
 30
0.0
 10
55.552928
 20
225.839717
 30
0.0
 10
56.116728
 20
224.954424
 30
0.0
 10
53.897221
 20
223.395764
 30
0.0
 10
53.255916
 20
224.231318
 30
0.0
 10
50.875702
 20
222.405165
 30
0.0
 10
51.516488
 20
221.570140
 30
0.0
 10
49.436504
 20
219.828653
 30
0.0
 10
48.727500
 20
220.602294
 30
0.0
 10
46.515769
 20
218.575322
 30
0.0
 10
47.226836
 20
217.799828
 30
0.0
 10
45.308608
 20
215.881600
 30
0.0
 10
44.532426
 20
216.592535
 30
0.0
 10
42.505666
 20
214.380884
 30
0.0
 10
43.279783
 20
213.671800
 30
0.0
 10
41.538296
 20
211.591911
 30
0.0
 10
40.703192
 20
212.232732
 30
0.0
 10
38.876959
 20
209.852541
 30
0.0
 10
39.712566
 20
209.211191
 30
0.0
 10
38.153483
 20
206.991602
 30
0.0
 10
37.268267
 20
207.555429
 30
0.0
 10
35.656478
 20
205.025484
 30
0.0
 10
36.542224
 20
204.461128
 30
0.0
 10
35.188298
 20
202.110306
 30
0.0
 10
34.254504
 20
202.596610
 30
0.0
 10
32.869041
 20
199.935696
 30
0.0
 10
33.802332
 20
199.449921
 30
0.0
 10
32.654067
 20
196.991678
 30
0.0
 10
31.684105
 20
197.393845
 30
0.0
 10
30.535866
 20
194.622335
 30
0.0
 10
31.508421
 20
194.219375
 30
0.0
 10
30.579787
 20
191.670644
 30
0.0
 10
29.576752
 20
191.986821
 30
0.0
 10
28.674999
 20
189.126147
 30
0.0
 10
29.674410
 20
188.810764
 30
0.0
 10
28.976783
 20
186.189300
 30
0.0
 10
27.948930
 20
186.417212
 30
0.0
 10
27.299881
 20
183.488195
 30
0.0
 10
28.327734
 20
183.260283
 30
0.0
 10
27.852304
 20
180.589659
 30
0.0
 10
26.812571
 20
180.726608
 30
0.0
 10
26.420882
 20
177.752110
 30
0.0
 10
27.463181
 20
177.615162
 30
0.0
 10
27.228575
 20
174.912470
 30
0.0
 10
26.176434
 20
174.958482
 30
0.0
 10
26.045703
 20
171.961759
 30
0.0
 10
27.095755
 20
171.915774
 30
0.0
 10
27.078186
 20
170.559255
 30
0.0
 10
27.127293
 20
169.246155
 30
0.0
 10
23.297477
 20
169.157281
 30
0.0
 10
23.405427
 20
167.839022
 30
0.0
 10
21.750458
 20
166.379660
 30
0.0
 10
21.733260
 20
166.022076
 30
0.0
  0
LWPOLYLINE
  5
11c
100
AcDbEntity
  8
Layer_1
 62
7
100
AcDbPolyline
 90
4
 70
1
 10
115.547928
 20
112.559371
 30
0.0
 10
115.547928
 20
118.559368
 30
0.0
 10
118.547932
 20
118.559368
 30
0.0
 10
118.547932
 20
112.559371
 30
0.0
  0
LWPOLYLINE
  5
11d
100
AcDbEntity
  8
Layer_1
 62
7
100
AcDbPolyline
 90
4
 70
1
 10
115.547928
 20
136.559364
 30
0.0
 10
115.547928
 20
142.559362
 30
0.0
 10
118.547932
 20
142.559362
 30
0.0
 10
118.547932
 20
136.559364
 30
0.0
  0
LWPOLYLINE
  5
11e
100
AcDbEntity
  8
Layer_1
 62
7
100
AcDbPolyline
 90
16
 70
1
 10
102.547947
 20
223.059339
 30
0.0
 10
103.504627
 20
222.869040
 30
0.0
 10
104.315733
 20
222.327139
 30
0.0
 10
104.857626
 20
221.516041
 30
0.0
 10
105.047941
 20
220.559339
 30
0.0
 10
104.857626
 20
219.602641
 30
0.0
 10
104.315733
 20
218.791539
 30
0.0
 10
103.504627
 20
218.249641
 30
0.0
 10
102.547947
 20
218.059340
 30
0.0
 10
101.591240
 20
218.249641
 30
0.0
 10
100.780134
 20
218.791539
 30
0.0
 10
100.238241
 20
219.602641
 30
0.0
 10
100.047937
 20
220.559339
 30
0.0
 10
100.238241
 20
221.516041
 30
0.0
 10
100.780134
 20
222.327139
 30
0.0
 10
101.591240
 20
222.869040
 30
0.0
  0
LWPOLYLINE
  5
11f
100
AcDbEntity
  8
Layer_1
 62
7
100
AcDbPolyline
 90
16
 70
1
 10
110.547939
 20
239.059334
 30
0.0
 10
110.930632
 20
238.983235
 30
0.0
 10
111.255038
 20
238.766435
 30
0.0
 10
111.471837
 20
238.442035
 30
0.0
 10
111.547932
 20
238.059336
 30
0.0
 10
111.471837
 20
237.676635
 30
0.0
 10
111.255038
 20
237.352235
 30
0.0
 10
110.930632
 20
237.135435
 30
0.0
 10
110.547939
 20
237.059336
 30
0.0
 10
110.165246
 20
237.135435
 30
0.0
 10
109.840840
 20
237.352235
 30
0.0
 10
109.624041
 20
237.676635
 30
0.0
 10
109.547947
 20
238.059336
 30
0.0
 10
109.624041
 20
238.442035
 30
0.0
 10
109.840840
 20
238.766435
 30
0.0
 10
110.165246
 20
238.983235
 30
0.0
  0
LWPOLYLINE
  5
120
100
AcDbEntity
  8
Layer_1
 62
7
100
AcDbPolyline
 90
16
 70
1
 10
110.547939
 20
204.059345
 30
0.0
 10
110.930632
 20
203.983246
 30
0.0
 10
111.255038
 20
203.766444
 30
0.0
 10
111.471837
 20
203.442046
 30
0.0
 10
111.547932
 20
203.059345
 30
0.0
 10
111.471837
 20
202.676646
 30
0.0
 10
111.255038
 20
202.352246
 30
0.0
 10
110.930632
 20
202.135446
 30
0.0
 10
110.547939
 20
202.059344
 30
0.0
 10
110.165246
 20
202.135446
 30
0.0
 10
109.840840
 20
202.352246
 30
0.0
 10
109.624041
 20
202.676646
 30
0.0
 10
109.547947
 20
203.059345
 30
0.0
 10
109.624041
 20
203.442046
 30
0.0
 10
109.840840
 20
203.766444
 30
0.0
 10
110.165246
 20
203.983246
 30
0.0
  0
LWPOLYLINE
  5
121
100
AcDbEntity
  8
Layer_1
 62
7
100
AcDbPolyline
 90
4
 70
1
 10
97.547937
 20
175.559353
 30
0.0
 10
97.547937
 20
181.559351
 30
0.0
 10
100.547936
 20
181.559351
 30
0.0
 10
100.547936
 20
175.559353
 30
0.0
  0
LWPOLYLINE
  5
122
100
AcDbEntity
  8
Layer_1
 62
7
100
AcDbPolyline
 90
4
 70
1
 10
97.547937
 20
199.559345
 30
0.0
 10
97.547937
 20
205.559344
 30
0.0
 10
100.547936
 20
205.559344
 30
0.0
 10
100.547936
 20
199.559345
 30
0.0
  0
LWPOLYLINE
  5
123
100
AcDbEntity
  8
Layer_1
 62
7
100
AcDbPolyline
 90
4
 70
1
 10
115.547928
 20
170.559354
 30
0.0
 10
115.547928
 20
176.559353
 30
0.0
 10
118.547932
 20
176.559353
 30
0.0
 10
118.547932
 20
170.559354
 30
0.0
  0
LWPOLYLINE
  5
124
100
AcDbEntity
  8
Layer_1
 62
7
100
AcDbPolyline
 90
4
 70
1
 10
115.547928
 20
194.559348
 30
0.0
 10
115.547928
 20
200.559345
 30
0.0
 10
118.547932
 20
200.559345
 30
0.0
 10
118.547932
 20
194.559348
 30
0.0
  0
LWPOLYLINE
  5
125
100
AcDbEntity
  8
Layer_1
 62
7
100
AcDbPolyline
 90
64
 70
1
 10
67.985745
 20
216.457740
 30
0.0
 10
70.151346
 20
216.350542
 30
0.0
 10
72.280244
 20
216.032841
 30
0.0
 10
74.358043
 20
215.510741
 30
0.0
 10
76.370542
 20
214.789943
 30
0.0
 10
78.303143
 20
213.876543
 30
0.0
 10
80.141642
 20
212.776543
 30
0.0
 10
81.871641
 20
211.495844
 30
0.0
 10
83.478741
 20
210.040342
 30
0.0
 10
84.934240
 20
208.433242
 30
0.0
 10
86.214939
 20
206.703244
 30
0.0
 10
87.314939
 20
204.864745
 30
0.0
 10
88.228338
 20
202.932144
 30
0.0
 10
88.949039
 20
200.919647
 30
0.0
 10
89.471239
 20
198.841845
 30
0.0
 10
89.788940
 20
196.712948
 30
0.0
 10
89.896139
 20
194.547347
 30
0.0
 10
89.788940
 20
192.381849
 30
0.0
 10
89.471239
 20
190.252949
 30
0.0
 10
88.949039
 20
188.175049
 30
0.0
 10
88.228338
 20
186.162650
 30
0.0
 10
87.314939
 20
184.229950
 30
0.0
 10
86.214939
 20
182.391451
 30
0.0
 10
84.934240
 20
180.661451
 30
0.0
 10
83.478741
 20
179.054352
 30
0.0
 10
81.871641
 20
177.598852
 30
0.0
 10
80.141642
 20
176.318153
 30
0.0
 10
78.303143
 20
175.218153
 30
0.0
 10
76.370542
 20
174.304853
 30
0.0
 10
74.358043
 20
173.584053
 30
0.0
 10
72.280244
 20
173.061853
 30
0.0
 10
70.151346
 20
172.744154
 30
0.0
 10
67.985745
 20
172.636954
 30
0.0
 10
65.820147
 20
172.744154
 30
0.0
 10
63.691247
 20
173.061853
 30
0.0
 10
61.613427
 20
173.584053
 30
0.0
 10
59.600999
 20
174.304853
 30
0.0
 10
57.668348
 20
175.218153
 30
0.0
 10
55.829848
 20
176.318153
 30
0.0
 10
54.099860
 20
177.598852
 30
0.0
 10
52.492755
 20
179.054352
 30
0.0
 10
51.037269
 20
180.661451
 30
0.0
 10
49.756551
 20
182.391451
 30
0.0
 10
48.656531
 20
184.229950
 30
0.0
 10
47.743181
 20
186.162650
 30
0.0
 10
47.022433
 20
188.175049
 30
0.0
 10
46.500241
 20
190.252949
 30
0.0
 10
46.182561
 20
192.381849
 30
0.0
 10
46.075352
 20
194.547347
 30
0.0
 10
46.182561
 20
196.712948
 30
0.0
 10
46.500241
 20
198.841845
 30
0.0
 10
47.022433
 20
200.919647
 30
0.0
 10
47.743181
 20
202.932144
 30
0.0
 10
48.656531
 20
204.864745
 30
0.0
 10
49.756551
 20
206.703244
 30
0.0
 10
51.037269
 20
208.433242
 30
0.0
 10
52.492755
 20
210.040342
 30
0.0
 10
54.099860
 20
211.495844
 30
0.0
 10
55.829848
 20
212.776543
 30
0.0
 10
57.668348
 20
213.876543
 30
0.0
 10
59.600999
 20
214.789943
 30
0.0
 10
61.613427
 20
215.510741
 30
0.0
 10
63.691247
 20
216.032841
 30
0.0
 10
65.820147
 20
216.350542
 30
0.0
  0
LWPOLYLINE
  5
126
100
AcDbEntity
  8
Layer_1
 62
7
100
AcDbPolyline
 90
4
 70
1
 10
115.547928
 20
234.559336
 30
0.0
 10
115.547928
 20
240.559336
 30
0.0
 10
118.547932
 20
240.559336
 30
0.0
 10
118.547932
 20
234.559336
 30
0.0
  0
LWPOLYLINE
  5
127
100
AcDbEntity
  8
Layer_1
 62
7
100
AcDbPolyline
 90
65
 70
1
 10
184.965526
 20
139.287474
 30
0.0
 10
184.818735
 20
136.322377
 30
0.0
 10
184.383734
 20
133.407376
 30
0.0
 10
183.668724
 20
130.562378
 30
0.0
 10
182.681935
 20
127.806979
 30
0.0
 10
181.431329
 20
125.160779
 30
0.0
 10
179.925136
 20
122.643481
 30
0.0
 10
178.171531
 20
120.274780
 30
0.0
 10
176.178743
 20
118.074281
 30
0.0
 10
173.978230
 20
116.081382
 30
0.0
 10
171.609549
 20
114.327782
 30
0.0
 10
169.092250
 20
112.821682
 30
0.0
 10
166.446047
 20
111.571084
 30
0.0
 10
163.690545
 20
110.584183
 30
0.0
 10
160.845534
 20
109.869284
 30
0.0
 10
157.930647
 20
109.434283
 30
0.0
 10
154.965542
 20
109.287484
 30
0.0
 10
152.000331
 20
109.434283
 30
0.0
 10
149.085443
 20
109.869284
 30
0.0
 10
146.240433
 20
110.584183
 30
0.0
 10
143.485036
 20
111.571084
 30
0.0
 10
140.838833
 20
112.821682
 30
0.0
 10
138.321535
 20
114.327782
 30
0.0
 10
135.952747
 20
116.081382
 30
0.0
 10
133.752341
 20
118.074281
 30
0.0
 10
131.759738
 20
120.274780
 30
0.0
 10
130.005736
 20
122.643481
 30
0.0
 10
128.499755
 20
125.160779
 30
0.0
 10
127.248752
 20
127.806979
 30
0.0
 10
126.262756
 20
130.562378
 30
0.0
 10
125.547746
 20
133.407376
 30
0.0
 10
125.112745
 20
136.322377
 30
0.0
 10
124.965742
 20
139.287474
 30
0.0
 10
125.112745
 20
142.252574
 30
0.0
 10
125.547746
 20
145.167475
 30
0.0
 10
126.262756
 20
148.012472
 30
0.0
 10
127.248752
 20
150.767972
 30
0.0
 10
128.499755
 20
153.414172
 30
0.0
 10
130.005736
 20
155.931470
 30
0.0
 10
131.759738
 20
158.300171
 30
0.0
 10
133.752341
 20
160.500670
 30
0.0
 10
135.952747
 20
162.493569
 30
0.0
 10
138.321535
 20
164.247068
 30
0.0
 10
140.838833
 20
165.753259
 30
0.0
 10
143.485036
 20
167.003838
 30
0.0
 10
146.240433
 20
167.990696
 30
0.0
 10
149.085443
 20
168.705688
 30
0.0
 10
152.000331
 20
169.140657
 30
0.0
 10
154.965542
 20
169.287456
 30
0.0
 10
157.930647
 20
169.140657
 30
0.0
 10
160.845534
 20
168.705688
 30
0.0
 10
163.690545
 20
167.990696
 30
0.0
 10
166.446047
 20
167.003838
 30
0.0
 10
169.092250
 20
165.753259
 30
0.0
 10
171.609549
 20
164.247068
 30
0.0
 10
173.978230
 20
162.493569
 30
0.0
 10
176.178743
 20
160.500670
 30
0.0
 10
178.171531
 20
158.300171
 30
0.0
 10
179.925136
 20
155.931470
 30
0.0
 10
181.431329
 20
153.414172
 30
0.0
 10
182.681935
 20
150.767972
 30
0.0
 10
183.668724
 20
148.012472
 30
0.0
 10
184.383734
 20
145.167475
 30
0.0
 10
184.818735
 20
142.252574
 30
0.0
 10
184.965526
 20
139.287474
 30
0.0
  0
LWPOLYLINE
  5
128
100
AcDbEntity
  8
Layer_1
 62
7
100
AcDbPolyline
 90
19
 70
1
 10
152.930923
 20
140.737586
 30
0.0
 10
152.730898
 20
140.405534
 30
0.0
 10
152.585113
 20
140.048876
 30
0.0
 10
152.495948
 20
139.673962
 30
0.0
 10
152.465256
 20
139.287405
 30
0.0
 10
152.495948
 20
138.901114
 30
0.0
 10
152.585113
 20
138.526199
 30
0.0
 10
152.730898
 20
138.169541
 30
0.0
 10
152.930923
 20
137.837489
 30
0.0
 10
156.999949
 20
137.837489
 30
0.0
 10
157.200238
 20
138.169541
 30
0.0
 10
157.345759
 20
138.526199
 30
0.0
 10
157.435188
 20
138.901114
 30
0.0
 10
157.465615
 20
139.287405
 30
0.0
 10
157.435453
 20
139.673697
 30
0.0
 10
157.346818
 20
140.048611
 30
0.0
 10
157.201561
 20
140.405534
 30
0.0
 10
157.002066
 20
140.737586
 30
0.0
 10
152.930923
 20
140.737586
 30
0.0
  0
LWPOLYLINE
  5
129
100
AcDbEntity
  8
Layer_1
 62
7
100
AcDbPolyline
 90
65
 70
1
 10
184.738778
 20
199.956945
 30
0.0
 10
184.591988
 20
196.991847
 30
0.0
 10
184.156986
 20
194.076846
 30
0.0
 10
183.441976
 20
191.231849
 30
0.0
 10
182.455187
 20
188.476450
 30
0.0
 10
181.204581
 20
185.830249
 30
0.0
 10
179.698388
 20
183.312951
 30
0.0
 10
177.944783
 20
180.944251
 30
0.0
 10
175.951995
 20
178.743752
 30
0.0
 10
173.751482
 20
176.750852
 30
0.0
 10
171.382801
 20
174.997253
 30
0.0
 10
168.865503
 20
173.491152
 30
0.0
 10
166.219300
 20
172.240554
 30
0.0
 10
163.463797
 20
171.253654
 30
0.0
 10
160.618786
 20
170.538755
 30
0.0
 10
157.703899
 20
170.103754
 30
0.0
 10
154.738794
 20
169.956955
 30
0.0
 10
151.773583
 20
170.103754
 30
0.0
 10
148.858696
 20
170.538755
 30
0.0
 10
146.013685
 20
171.253654
 30
0.0
 10
143.258288
 20
172.240554
 30
0.0
 10
140.612085
 20
173.491152
 30
0.0
 10
138.094787
 20
174.997253
 30
0.0
 10
135.726000
 20
176.750852
 30
0.0
 10
133.525593
 20
178.743752
 30
0.0
 10
131.532990
 20
180.944251
 30
0.0
 10
129.778988
 20
183.312951
 30
0.0
 10
128.273007
 20
185.830249
 30
0.0
 10
127.022004
 20
188.476450
 30
0.0
 10
126.036008
 20
191.231849
 30
0.0
 10
125.320998
 20
194.076846
 30
0.0
 10
124.885997
 20
196.991847
 30
0.0
 10
124.738995
 20
199.956945
 30
0.0
 10
124.885997
 20
202.922045
 30
0.0
 10
125.320998
 20
205.836945
 30
0.0
 10
126.036008
 20
208.681943
 30
0.0
 10
127.022004
 20
211.437442
 30
0.0
 10
128.273007
 20
214.083643
 30
0.0
 10
129.778988
 20
216.600941
 30
0.0
 10
131.532990
 20
218.969641
 30
0.0
 10
133.525593
 20
221.170140
 30
0.0
 10
135.726000
 20
223.163040
 30
0.0
 10
138.094787
 20
224.916539
 30
0.0
 10
140.612085
 20
226.422729
 30
0.0
 10
143.258288
 20
227.673308
 30
0.0
 10
146.013685
 20
228.660167
 30
0.0
 10
148.858696
 20
229.375158
 30
0.0
 10
151.773583
 20
229.810128
 30
0.0
 10
154.738794
 20
229.956927
 30
0.0
 10
157.703899
 20
229.810128
 30
0.0
 10
160.618786
 20
229.375158
 30
0.0
 10
163.463797
 20
228.660167
 30
0.0
 10
166.219300
 20
227.673308
 30
0.0
 10
168.865503
 20
226.422729
 30
0.0
 10
171.382801
 20
224.916539
 30
0.0
 10
173.751482
 20
223.163040
 30
0.0
 10
175.951995
 20
221.170140
 30
0.0
 10
177.944783
 20
218.969641
 30
0.0
 10
179.698388
 20
216.600941
 30
0.0
 10
181.204581
 20
214.083643
 30
0.0
 10
182.455187
 20
211.437442
 30
0.0
 10
183.441976
 20
208.681943
 30
0.0
 10
184.156986
 20
205.836945
 30
0.0
 10
184.591988
 20
202.922045
 30
0.0
 10
184.738778
 20
199.956945
 30
0.0
  0
LWPOLYLINE
  5
12a
100
AcDbEntity
  8
Layer_1
 62
7
100
AcDbPolyline
 90
19
 70
1
 10
152.704175
 20
201.407057
 30
0.0
 10
152.504150
 20
201.075005
 30
0.0
 10
152.358365
 20
200.718346
 30
0.0
 10
152.269200
 20
200.343432
 30
0.0
 10
152.238509
 20
199.956876
 30
0.0
 10
152.269200
 20
199.570584
 30
0.0
 10
152.358365
 20
199.195670
 30
0.0
 10
152.504150
 20
198.839012
 30
0.0
 10
152.704175
 20
198.506960
 30
0.0
 10
156.773201
 20
198.506960
 30
0.0
 10
156.973491
 20
198.839012
 30
0.0
 10
157.119011
 20
199.195670
 30
0.0
 10
157.208440
 20
199.570584
 30
0.0
 10
157.238868
 20
199.956876
 30
0.0
 10
157.208705
 20
200.343167
 30
0.0
 10
157.120070
 20
200.718082
 30
0.0
 10
156.974813
 20
201.075005
 30
0.0
 10
156.775318
 20
201.407057
 30
0.0
 10
152.704175
 20
201.407057
 30
0.0
  0
ENDSEC
  0
SECTION
  2
OBJECTS
  0
DICTIONARY
  5
C
330
0
100
AcDbDictionary
  3
ACAD_GROUP
350
D
  3
ACAD_MLINESTYLE
350
17
  0
DICTIONARY
  5
D
330
C
100
AcDbDictionary
  0
DICTIONARY
  5
1A
330
C
100
AcDbDictionary
  0
DICTIONARY
  5
17
330
C
100
AcDbDictionary
  3
STANDARD
350
18
  0
DICTIONARY
  5
19
330
C
100
AcDbDictionary
  0
ENDSEC
  0
EOF
