  0
SECTION
  2
HEADER
  9
$ACADVER
  1
AC1014
  9
$HANDSEED
  5
FFFF
  9
$MEASUREMENT
 70
     1
  0
ENDSEC
  0
SECTION
  2
TABLES
  0
TABLE
  2
VPORT
  5
8
330
0
100
AcDbSymbolTable
 70
     4
  0
VPORT
  5
2E
330
8
100
AcDbSymbolTableRecord
100
AcDbViewportTableRecord
  2
*ACTIVE
 70
     0
 10
0.0
 20
0.0
 11
1.0
 21
1.0
 12
210.0
 22
148.5
 13
0.0
 23
0.0
 14
10.0
 24
10.0
 15
10.0
 25
10.0
 16
0.0
 26
0.0
 36
1.0
 17
0.0
 27
0.0
 37
0.0
 40
341.0
 41
1.24
 42
50.0
 43
0.0
 44
0.0
 50
0.0
 51
0.0
 71
     0
 72
   100
 73
     1
 74
     3
 75
     0
 76
     0
 77
     0
 78
     0
  0
ENDTAB
  0
TABLE
  2
LTYPE
  5
5
330
0
100
AcDbSymbolTable
 70
     1
  0
LTYPE
  5
14
330
5
100
AcDbSymbolTableRecord
100
AcDbLinetypeTableRecord
  2
BYBLOCK
 70
     0
  3

 72
    65
 73
     0
 40
0.0
  0
LTYPE
  5
15
330
5
100
AcDbSymbolTableRecord
100
AcDbLinetypeTableRecord
  2
BYLAYER
 70
     0
  3

 72
    65
 73
     0
 40
0.0
  0
LTYPE
  5
16
330
5
100
AcDbSymbolTableRecord
100
AcDbLinetypeTableRecord
  2
CONTINUOUS
 70
     0
  3
Solid line
 72
    65
 73
     0
 40
0.0
  0
ENDTAB
  0
TABLE
  2
LAYER
  5
2
100
AcDbSymbolTable
 70
2
  0
LAYER
  5
50
100
AcDbSymbolTableRecord
100
AcDbLayerTableRecord
  2
0
 70
0
  6
CONTINUOUS
  0
LAYER
  5
51
100
AcDbSymbolTableRecord
100
AcDbLayerTableRecord
  2
Layer_1
 70
0
  6
CONTINUOUS
  0
ENDTAB
  0
TABLE
  2
STYLE
  5
3
330
0
100
AcDbSymbolTable
 70
     1
  0
STYLE
  5
11
330
3
100
AcDbSymbolTableRecord
100
AcDbTextStyleTableRecord
  2
STANDARD
 70
     0
 40
0.0
 41
1.0
 50
0.0
 71
     0
 42
2.5
  3
txt
  4

  0
ENDTAB
  0
TABLE
  2
VIEW
  5
6
330
0
100
AcDbSymbolTable
 70
     0
  0
ENDTAB
  0
TABLE
  2
UCS
  5
7
330
0
100
AcDbSymbolTable
 70
     0
  0
ENDTAB
  0
TABLE
  2
APPID
  5
9
330
0
100
AcDbSymbolTable
 70
     2
  0
APPID
  5
12
330
9
100
AcDbSymbolTableRecord
100
AcDbRegAppTableRecord
  2
ACAD
 70
     0
  0
ENDTAB
  0
TABLE
  2
DIMSTYLE
  5
A
330
0
100
AcDbSymbolTable
 70
     1
  0
DIMSTYLE
105
27
330
A
100
AcDbSymbolTableRecord
100
AcDbDimStyleTableRecord
  2
ISO-25
 70
     0
  3

  4

  5

  6

  7

 40
1.0
 41
2.5
 42
0.625
 43
3.75
 44
1.25
 45
0.0
 46
0.0
 47
0.0
 48
0.0
140
2.5
141
2.5
142
0.0
143
0.03937007874016
144
1.0
145
0.0
146
1.0
147
0.625
 71
     0
 72
     0
 73
     0
 74
     0
 75
     0
 76
     0
 77
     1
 78
     8
170
     0
171
     3
172
     1
173
     0
174
     0
175
     0
176
     0
177
     0
178
     0
270
     2
271
     2
272
     2
273
     2
274
     3
340
11
275
     0
280
     0
281
     0
282
     0
283
     0
284
     8
285
     0
286
     0
287
     3
288
     0
  0
ENDTAB
  0
TABLE
  2
BLOCK_RECORD
  5
1
330
0
100
AcDbSymbolTable
 70
     1
  0
BLOCK_RECORD
  5
1F
330
1
100
AcDbSymbolTableRecord
100
AcDbBlockTableRecord
  2
*MODEL_SPACE
  0
BLOCK_RECORD
  5
1B
330
1
100
AcDbSymbolTableRecord
100
AcDbBlockTableRecord
  2
*PAPER_SPACE
  0
ENDTAB
  0
ENDSEC
  0
SECTION
  2
BLOCKS
  0
BLOCK
  5
20
330
1F
100
AcDbEntity
  8
0
100
AcDbBlockBegin
  2
*MODEL_SPACE
 70
     0
 10
0.0
 20
0.0
 30
0.0
  3
*MODEL_SPACE
  1

  0
ENDBLK
  5
21
330
1F
100
AcDbEntity
  8
0
100
AcDbBlockEnd
  0
BLOCK
  5
1C
330
1B
100
AcDbEntity
 67
     1
  8
0
100
AcDbBlockBegin
  2
*PAPER_SPACE
  1

  0
ENDBLK
  5
1D
330
1B
100
AcDbEntity
 67
     1
  8
0
100
AcDbBlockEnd
  0
ENDSEC
  0
SECTION
  2
ENTITIES
  0
LWPOLYLINE
  5
100
100
AcDbEntity
  8
Layer_1
 62
7
100
AcDbPolyline
 90
30
 70
1
 10
0.100252
 20
70.099742
 30
0.0
 10
0.100252
 20
64.100105
 30
0.0
 10
3.100070
 20
64.100105
 30
0.0
 10
3.100070
 20
51.099857
 30
0.0
 10
0.100252
 20
51.099857
 30
0.0
 10
0.100252
 20
45.100245
 30
0.0
 10
3.100070
 20
45.100245
 30
0.0
 10
24.099810
 20
45.100245
 30
0.0
 10
24.099810
 20
7.256152
 30
0.0
 10
3.100070
 20
7.256152
 30
0.0
 10
3.100070
 20
6.099923
 30
0.0
 10
0.100252
 20
6.099923
 30
0.0
 10
0.100252
 20
0.099967
 30
0.0
 10
102.100321
 20
0.099967
 30
0.0
 10
102.100321
 20
6.099923
 30
0.0
 10
99.099947
 20
6.099923
 30
0.0
 10
99.099947
 20
7.256152
 30
0.0
 10
78.100233
 20
7.256152
 30
0.0
 10
78.100233
 20
45.100245
 30
0.0
 10
99.099947
 20
45.100245
 30
0.0
 10
102.100321
 20
45.100245
 30
0.0
 10
102.100321
 20
51.099857
 30
0.0
 10
99.099947
 20
51.099857
 30
0.0
 10
99.099947
 20
64.100105
 30
0.0
 10
102.100321
 20
64.100105
 30
0.0
 10
102.100321
 20
70.099742
 30
0.0
 10
99.099947
 20
70.099742
 30
0.0
 10
24.099810
 20
70.099742
 30
0.0
 10
3.100070
 20
70.099742
 30
0.0
 10
0.100252
 20
70.099742
 30
0.0
  0
LWPOLYLINE
  5
101
100
AcDbEntity
  8
Layer_1
 62
7
100
AcDbPolyline
 90
27
 70
1
 10
72.432329
 20
69.200054
 30
0.0
 10
75.432175
 20
69.200054
 30
0.0
 10
75.634052
 20
69.179811
 30
0.0
 10
75.822171
 20
69.121722
 30
0.0
 10
76.139671
 20
68.907835
 30
0.0
 10
76.353719
 20
68.590076
 30
0.0
 10
76.411662
 20
68.402140
 30
0.0
 10
76.432035
 20
68.200117
 30
0.0
 10
76.411662
 20
67.998092
 30
0.0
 10
76.353719
 20
67.810156
 30
0.0
 10
76.139671
 20
67.492407
 30
0.0
 10
75.822171
 20
67.278518
 30
0.0
 10
75.634052
 20
67.220415
 30
0.0
 10
75.432175
 20
67.200175
 30
0.0
 10
72.432329
 20
67.200175
 30
0.0
 10
72.230188
 20
67.220415
 30
0.0
 10
72.042334
 20
67.278518
 30
0.0
 10
71.724569
 20
67.492407
 30
0.0
 10
71.510786
 20
67.810156
 30
0.0
 10
71.452577
 20
67.998092
 30
0.0
 10
71.432204
 20
68.200117
 30
0.0
 10
71.452577
 20
68.402140
 30
0.0
 10
71.510786
 20
68.590076
 30
0.0
 10
71.724569
 20
68.907835
 30
0.0
 10
72.042334
 20
69.121722
 30
0.0
 10
72.230188
 20
69.179811
 30
0.0
 10
72.432329
 20
69.200054
 30
0.0
  0
LWPOLYLINE
  5
102
100
AcDbEntity
  8
Layer_1
 62
7
100
AcDbPolyline
 90
33
 70
1
 10
44.100218
 20
59.099904
 30
0.0
 10
44.402373
 20
59.069371
 30
0.0
 10
44.683889
 20
58.981952
 30
0.0
 10
44.938418
 20
58.843681
 30
0.0
 10
45.160404
 20
58.660563
 30
0.0
 10
45.343495
 20
58.438630
 30
0.0
 10
45.481872
 20
58.183916
 30
0.0
 10
45.569185
 20
57.902452
 30
0.0
 10
45.599877
 20
57.600245
 30
0.0
 10
45.569450
 20
57.297959
 30
0.0
 10
45.481872
 20
57.016416
 30
0.0
 10
45.343760
 20
56.761622
 30
0.0
 10
45.160668
 20
56.539610
 30
0.0
 10
44.938683
 20
56.356413
 30
0.0
 10
44.683889
 20
56.218062
 30
0.0
 10
44.402373
 20
56.130617
 30
0.0
 10
44.100218
 20
56.100084
 30
0.0
 10
43.806002
 20
56.129136
 30
0.0
 10
43.526073
 20
56.214226
 30
0.0
 10
43.267839
 20
56.352074
 30
0.0
 10
43.039239
 20
56.539425
 30
0.0
 10
42.851914
 20
56.767919
 30
0.0
 10
42.714066
 20
57.026126
 30
0.0
 10
42.629135
 20
57.306187
 30
0.0
 10
42.600031
 20
57.600245
 30
0.0
 10
42.630458
 20
57.902505
 30
0.0
 10
42.718035
 20
58.184048
 30
0.0
 10
42.856412
 20
58.438789
 30
0.0
 10
43.039504
 20
58.660748
 30
0.0
 10
43.261489
 20
58.843840
 30
0.0
 10
43.516283
 20
58.982111
 30
0.0
 10
43.797800
 20
59.069450
 30
0.0
 10
44.100218
 20
59.099904
 30
0.0
  0
LWPOLYLINE
  5
103
100
AcDbEntity
  8
Layer_1
 62
7
100
AcDbPolyline
 90
27
 70
1
 10
72.432329
 20
43.200060
 30
0.0
 10
75.432175
 20
43.200060
 30
0.0
 10
75.634052
 20
43.179952
 30
0.0
 10
75.822171
 20
43.121743
 30
0.0
 10
76.139671
 20
42.907960
 30
0.0
 10
76.353719
 20
42.590196
 30
0.0
 10
76.411662
 20
42.402077
 30
0.0
 10
76.432035
 20
42.200200
 30
0.0
 10
76.411662
 20
41.998058
 30
0.0
 10
76.353719
 20
41.810204
 30
0.0
 10
76.139671
 20
41.492439
 30
0.0
 10
75.822171
 20
41.278656
 30
0.0
 10
75.634052
 20
41.220448
 30
0.0
 10
75.432175
 20
41.200339
 30
0.0
 10
72.432329
 20
41.200339
 30
0.0
 10
72.230188
 20
41.220448
 30
0.0
 10
72.042334
 20
41.278656
 30
0.0
 10
71.724569
 20
41.492439
 30
0.0
 10
71.510786
 20
41.810204
 30
0.0
 10
71.452577
 20
41.998058
 30
0.0
 10
71.432204
 20
42.200200
 30
0.0
 10
71.452577
 20
42.402077
 30
0.0
 10
71.510786
 20
42.590196
 30
0.0
 10
71.724569
 20
42.907960
 30
0.0
 10
72.042334
 20
43.121743
 30
0.0
 10
72.230188
 20
43.179952
 30
0.0
 10
72.432329
 20
43.200060
 30
0.0
  0
LWPOLYLINE
  5
104
100
AcDbEntity
  8
Layer_1
 62
7
100
AcDbPolyline
 90
77
 70
1
 10
37.100138
 20
30.700086
 30
0.0
 10
65.099932
 20
30.700086
 30
0.0
 10
65.503951
 20
30.659605
 30
0.0
 10
65.879923
 20
30.543452
 30
0.0
 10
66.219648
 20
30.359567
 30
0.0
 10
66.515453
 20
30.115621
 30
0.0
 10
66.759134
 20
29.819817
 30
0.0
 10
66.943019
 20
29.480092
 30
0.0
 10
67.059171
 20
29.104384
 30
0.0
 10
67.099653
 20
28.700100
 30
0.0
 10
67.099653
 20
26.200053
 30
0.0
 10
69.599965
 20
26.200053
 30
0.0
 10
70.003984
 20
26.159571
 30
0.0
 10
70.379692
 20
26.043419
 30
0.0
 10
70.719682
 20
25.859534
 30
0.0
 10
71.015221
 20
25.615588
 30
0.0
 10
71.259167
 20
25.319784
 30
0.0
 10
71.443052
 20
24.980059
 30
0.0
 10
71.559204
 20
24.604351
 30
0.0
 10
71.599686
 20
24.200332
 30
0.0
 10
71.599686
 20
9.200045
 30
0.0
 10
71.559204
 20
8.796027
 30
0.0
 10
71.443052
 20
8.420054
 30
0.0
 10
71.259167
 20
8.080329
 30
0.0
 10
71.015221
 20
7.784789
 30
0.0
 10
70.719682
 20
7.540843
 30
0.0
 10
70.379692
 20
7.356958
 30
0.0
 10
70.003984
 20
7.240806
 30
0.0
 10
69.599965
 20
7.200325
 30
0.0
 10
67.099653
 20
7.200325
 30
0.0
 10
67.099653
 20
4.700012
 30
0.0
 10
67.059171
 20
4.295993
 30
0.0
 10
66.943019
 20
3.920285
 30
0.0
 10
66.759134
 20
3.580560
 30
0.0
 10
66.515453
 20
3.284756
 30
0.0
 10
66.219648
 20
3.040810
 30
0.0
 10
65.879923
 20
2.856925
 30
0.0
 10
65.503951
 20
2.740773
 30
0.0
 10
65.099932
 20
2.700291
 30
0.0
 10
37.100138
 20
2.700291
 30
0.0
 10
36.696119
 20
2.740773
 30
0.0
 10
36.320146
 20
2.856925
 30
0.0
 10
35.980421
 20
3.040810
 30
0.0
 10
35.684617
 20
3.284756
 30
0.0
 10
35.440936
 20
3.580560
 30
0.0
 10
35.256786
 20
3.920285
 30
0.0
 10
35.140633
 20
4.295993
 30
0.0
 10
35.100152
 20
4.700012
 30
0.0
 10
35.100152
 20
7.200325
 30
0.0
 10
32.600104
 20
7.200325
 30
0.0
 10
32.196086
 20
7.240806
 30
0.0
 10
31.820113
 20
7.356958
 30
0.0
 10
31.480388
 20
7.540843
 30
0.0
 10
31.184584
 20
7.784789
 30
0.0
 10
30.940902
 20
8.080329
 30
0.0
 10
30.756752
 20
8.420054
 30
0.0
 10
30.640600
 20
8.796027
 30
0.0
 10
30.600119
 20
9.200045
 30
0.0
 10
30.600119
 20
24.200332
 30
0.0
 10
30.640600
 20
24.604351
 30
0.0
 10
30.756752
 20
24.980059
 30
0.0
 10
30.940902
 20
25.319784
 30
0.0
 10
31.184584
 20
25.615588
 30
0.0
 10
31.480388
 20
25.859534
 30
0.0
 10
31.820113
 20
26.043419
 30
0.0
 10
32.196086
 20
26.159571
 30
0.0
 10
32.600104
 20
26.200053
 30
0.0
 10
35.100152
 20
26.200053
 30
0.0
 10
35.100152
 20
28.700100
 30
0.0
 10
35.140633
 20
29.104384
 30
0.0
 10
35.256786
 20
29.480092
 30
0.0
 10
35.440936
 20
29.819817
 30
0.0
 10
35.684617
 20
30.115621
 30
0.0
 10
35.980421
 20
30.359567
 30
0.0
 10
36.320146
 20
30.543452
 30
0.0
 10
36.696119
 20
30.659605
 30
0.0
 10
37.100138
 20
30.700086
 30
0.0
  0
LWPOLYLINE
  5
105
100
AcDbEntity
  8
Layer_1
 62
7
100
AcDbPolyline
 90
25
 70
1
 10
32.099777
 20
30.199759
 30
0.0
 10
32.301390
 20
30.179650
 30
0.0
 10
32.488979
 20
30.121177
 30
0.0
 10
32.807009
 20
29.906865
 30
0.0
 10
33.021321
 20
29.589100
 30
0.0
 10
33.079529
 20
29.401511
 30
0.0
 10
33.099902
 20
29.199898
 30
0.0
 10
33.079529
 20
28.998286
 30
0.0
 10
33.021321
 20
28.810696
 30
0.0
 10
32.807009
 20
28.492932
 30
0.0
 10
32.488979
 20
28.278619
 30
0.0
 10
32.301390
 20
28.220411
 30
0.0
 10
32.099777
 20
28.200038
 30
0.0
 10
31.898429
 20
28.220411
 30
0.0
 10
31.710575
 20
28.278619
 30
0.0
 10
31.392811
 20
28.492932
 30
0.0
 10
31.178498
 20
28.810696
 30
0.0
 10
31.120290
 20
28.998286
 30
0.0
 10
31.099917
 20
29.199898
 30
0.0
 10
31.120290
 20
29.401511
 30
0.0
 10
31.178498
 20
29.589100
 30
0.0
 10
31.392811
 20
29.906865
 30
0.0
 10
31.710575
 20
30.121177
 30
0.0
 10
31.898429
 20
30.179650
 30
0.0
 10
32.099777
 20
30.199759
 30
0.0
  0
LWPOLYLINE
  5
106
100
AcDbEntity
  8
Layer_1
 62
7
100
AcDbPolyline
 90
25
 70
1
 10
70.100027
 20
30.199759
 30
0.0
 10
70.301640
 20
30.179650
 30
0.0
 10
70.489229
 20
30.121177
 30
0.0
 10
70.807259
 20
29.906865
 30
0.0
 10
71.021571
 20
29.589100
 30
0.0
 10
71.079779
 20
29.401511
 30
0.0
 10
71.100152
 20
29.199898
 30
0.0
 10
71.079779
 20
28.998286
 30
0.0
 10
71.021571
 20
28.810696
 30
0.0
 10
70.807259
 20
28.492932
 30
0.0
 10
70.489229
 20
28.278619
 30
0.0
 10
70.301640
 20
28.220411
 30
0.0
 10
70.100027
 20
28.200038
 30
0.0
 10
69.898679
 20
28.220411
 30
0.0
 10
69.710825
 20
28.278619
 30
0.0
 10
69.393061
 20
28.492932
 30
0.0
 10
69.178748
 20
28.810696
 30
0.0
 10
69.120540
 20
28.998286
 30
0.0
 10
69.100167
 20
29.199898
 30
0.0
 10
69.120540
 20
29.401511
 30
0.0
 10
69.178748
 20
29.589100
 30
0.0
 10
69.393061
 20
29.906865
 30
0.0
 10
69.710825
 20
30.121177
 30
0.0
 10
69.898679
 20
30.179650
 30
0.0
 10
70.100027
 20
30.199759
 30
0.0
  0
LWPOLYLINE
  5
107
100
AcDbEntity
  8
Layer_1
 62
7
100
AcDbPolyline
 90
25
 70
1
 10
32.099777
 20
5.199810
 30
0.0
 10
32.301390
 20
5.179437
 30
0.0
 10
32.488979
 20
5.121229
 30
0.0
 10
32.807009
 20
4.906916
 30
0.0
 10
33.021321
 20
4.589152
 30
0.0
 10
33.079529
 20
4.401298
 30
0.0
 10
33.099902
 20
4.199950
 30
0.0
 10
33.079529
 20
3.998337
 30
0.0
 10
33.021321
 20
3.810748
 30
0.0
 10
32.807009
 20
3.492719
 30
0.0
 10
32.488979
 20
3.278671
 30
0.0
 10
32.301390
 20
3.220198
 30
0.0
 10
32.099777
 20
3.199825
 30
0.0
 10
31.898429
 20
3.220198
 30
0.0
 10
31.710575
 20
3.278671
 30
0.0
 10
31.392811
 20
3.492719
 30
0.0
 10
31.178498
 20
3.810748
 30
0.0
 10
31.120290
 20
3.998337
 30
0.0
 10
31.099917
 20
4.199950
 30
0.0
 10
31.120290
 20
4.401298
 30
0.0
 10
31.178498
 20
4.589152
 30
0.0
 10
31.392811
 20
4.906916
 30
0.0
 10
31.710575
 20
5.121229
 30
0.0
 10
31.898429
 20
5.179437
 30
0.0
 10
32.099777
 20
5.199810
 30
0.0
  0
LWPOLYLINE
  5
108
100
AcDbEntity
  8
Layer_1
 62
7
100
AcDbPolyline
 90
25
 70
1
 10
70.100027
 20
5.199810
 30
0.0
 10
70.301640
 20
5.179437
 30
0.0
 10
70.489229
 20
5.121229
 30
0.0
 10
70.807259
 20
4.906916
 30
0.0
 10
71.021571
 20
4.589152
 30
0.0
 10
71.079779
 20
4.401298
 30
0.0
 10
71.100152
 20
4.199950
 30
0.0
 10
71.079779
 20
3.998337
 30
0.0
 10
71.021571
 20
3.810748
 30
0.0
 10
70.807259
 20
3.492719
 30
0.0
 10
70.489229
 20
3.278671
 30
0.0
 10
70.301640
 20
3.220198
 30
0.0
 10
70.100027
 20
3.199825
 30
0.0
 10
69.898679
 20
3.220198
 30
0.0
 10
69.710825
 20
3.278671
 30
0.0
 10
69.393061
 20
3.492719
 30
0.0
 10
69.178748
 20
3.810748
 30
0.0
 10
69.120540
 20
3.998337
 30
0.0
 10
69.100167
 20
4.199950
 30
0.0
 10
69.120540
 20
4.401298
 30
0.0
 10
69.178748
 20
4.589152
 30
0.0
 10
69.393061
 20
4.906916
 30
0.0
 10
69.710825
 20
5.121229
 30
0.0
 10
69.898679
 20
5.179437
 30
0.0
 10
70.100027
 20
5.199810
 30
0.0
  0
ENDSEC
  0
SECTION
  2
OBJECTS
  0
DICTIONARY
  5
C
330
0
100
AcDbDictionary
  3
ACAD_GROUP
350
D
  3
ACAD_MLINESTYLE
350
17
  0
DICTIONARY
  5
D
330
C
100
AcDbDictionary
  0
DICTIONARY
  5
1A
330
C
100
AcDbDictionary
  0
DICTIONARY
  5
17
330
C
100
AcDbDictionary
  3
STANDARD
350
18
  0
DICTIONARY
  5
19
330
C
100
AcDbDictionary
  0
ENDSEC
  0
EOF
