  0
SECTION
  2
HEADER
  9
$ACADVER
  1
AC1014
  9
$HANDSEED
  5
FFFF
  9
$MEASUREMENT
 70
     1
  0
ENDSEC
  0
SECTION
  2
TABLES
  0
TABLE
  2
VPORT
  5
8
330
0
100
AcDbSymbolTable
 70
     4
  0
VPORT
  5
2E
330
8
100
AcDbSymbolTableRecord
100
AcDbViewportTableRecord
  2
*ACTIVE
 70
     0
 10
0.0
 20
0.0
 11
1.0
 21
1.0
 12
210.0
 22
148.5
 13
0.0
 23
0.0
 14
10.0
 24
10.0
 15
10.0
 25
10.0
 16
0.0
 26
0.0
 36
1.0
 17
0.0
 27
0.0
 37
0.0
 40
341.0
 41
1.24
 42
50.0
 43
0.0
 44
0.0
 50
0.0
 51
0.0
 71
     0
 72
   100
 73
     1
 74
     3
 75
     0
 76
     0
 77
     0
 78
     0
  0
ENDTAB
  0
TABLE
  2
LTYPE
  5
5
330
0
100
AcDbSymbolTable
 70
     1
  0
LTYPE
  5
14
330
5
100
AcDbSymbolTableRecord
100
AcDbLinetypeTableRecord
  2
BYBLOCK
 70
     0
  3

 72
    65
 73
     0
 40
0.0
  0
LTYPE
  5
15
330
5
100
AcDbSymbolTableRecord
100
AcDbLinetypeTableRecord
  2
BYLAYER
 70
     0
  3

 72
    65
 73
     0
 40
0.0
  0
LTYPE
  5
16
330
5
100
AcDbSymbolTableRecord
100
AcDbLinetypeTableRecord
  2
CONTINUOUS
 70
     0
  3
Solid line
 72
    65
 73
     0
 40
0.0
  0
ENDTAB
  0
TABLE
  2
LAYER
  5
2
100
AcDbSymbolTable
 70
2
  0
LAYER
  5
50
100
AcDbSymbolTableRecord
100
AcDbLayerTableRecord
  2
0
 70
0
  6
CONTINUOUS
  0
LAYER
  5
51
100
AcDbSymbolTableRecord
100
AcDbLayerTableRecord
  2
Layer_1
 70
0
  6
CONTINUOUS
  0
ENDTAB
  0
TABLE
  2
STYLE
  5
3
330
0
100
AcDbSymbolTable
 70
     1
  0
STYLE
  5
11
330
3
100
AcDbSymbolTableRecord
100
AcDbTextStyleTableRecord
  2
STANDARD
 70
     0
 40
0.0
 41
1.0
 50
0.0
 71
     0
 42
2.5
  3
txt
  4

  0
ENDTAB
  0
TABLE
  2
VIEW
  5
6
330
0
100
AcDbSymbolTable
 70
     0
  0
ENDTAB
  0
TABLE
  2
UCS
  5
7
330
0
100
AcDbSymbolTable
 70
     0
  0
ENDTAB
  0
TABLE
  2
APPID
  5
9
330
0
100
AcDbSymbolTable
 70
     2
  0
APPID
  5
12
330
9
100
AcDbSymbolTableRecord
100
AcDbRegAppTableRecord
  2
ACAD
 70
     0
  0
ENDTAB
  0
TABLE
  2
DIMSTYLE
  5
A
330
0
100
AcDbSymbolTable
 70
     1
  0
DIMSTYLE
105
27
330
A
100
AcDbSymbolTableRecord
100
AcDbDimStyleTableRecord
  2
ISO-25
 70
     0
  3

  4

  5

  6

  7

 40
1.0
 41
2.5
 42
0.625
 43
3.75
 44
1.25
 45
0.0
 46
0.0
 47
0.0
 48
0.0
140
2.5
141
2.5
142
0.0
143
0.03937007874016
144
1.0
145
0.0
146
1.0
147
0.625
 71
     0
 72
     0
 73
     0
 74
     0
 75
     0
 76
     0
 77
     1
 78
     8
170
     0
171
     3
172
     1
173
     0
174
     0
175
     0
176
     0
177
     0
178
     0
270
     2
271
     2
272
     2
273
     2
274
     3
340
11
275
     0
280
     0
281
     0
282
     0
283
     0
284
     8
285
     0
286
     0
287
     3
288
     0
  0
ENDTAB
  0
TABLE
  2
BLOCK_RECORD
  5
1
330
0
100
AcDbSymbolTable
 70
     1
  0
BLOCK_RECORD
  5
1F
330
1
100
AcDbSymbolTableRecord
100
AcDbBlockTableRecord
  2
*MODEL_SPACE
  0
BLOCK_RECORD
  5
1B
330
1
100
AcDbSymbolTableRecord
100
AcDbBlockTableRecord
  2
*PAPER_SPACE
  0
ENDTAB
  0
ENDSEC
  0
SECTION
  2
BLOCKS
  0
BLOCK
  5
20
330
1F
100
AcDbEntity
  8
0
100
AcDbBlockBegin
  2
*MODEL_SPACE
 70
     0
 10
0.0
 20
0.0
 30
0.0
  3
*MODEL_SPACE
  1

  0
ENDBLK
  5
21
330
1F
100
AcDbEntity
  8
0
100
AcDbBlockEnd
  0
BLOCK
  5
1C
330
1B
100
AcDbEntity
 67
     1
  8
0
100
AcDbBlockBegin
  2
*PAPER_SPACE
  1

  0
ENDBLK
  5
1D
330
1B
100
AcDbEntity
 67
     1
  8
0
100
AcDbBlockEnd
  0
ENDSEC
  0
SECTION
  2
ENTITIES
  0
LWPOLYLINE
  5
100
100
AcDbEntity
  8
Layer_1
 62
1
100
AcDbPolyline
 90
233
 70
1
 10
5.462720
 20
110.814698
 30
0.0
 10
4.807506
 20
110.776068
 30
0.0
 10
4.215262
 20
110.646423
 30
0.0
 10
3.683423
 20
110.430258
 30
0.0
 10
3.209475
 20
110.133131
 30
0.0
 10
2.790878
 20
109.760598
 30
0.0
 10
2.425078
 20
109.317420
 30
0.0
 10
2.109576
 20
108.809156
 30
0.0
 10
1.841823
 20
108.240831
 30
0.0
 10
1.619292
 20
107.618002
 30
0.0
 10
1.439447
 20
106.945431
 30
0.0
 10
1.299758
 20
106.228833
 30
0.0
 10
1.197689
 20
105.473210
 30
0.0
 10
1.096290
 20
103.865998
 30
0.0
 10
1.114989
 20
102.165865
 30
0.0
 10
1.233525
 20
100.414721
 30
0.0
 10
1.431642
 20
98.654527
 30
0.0
 10
1.689074
 20
96.927248
 30
0.0
 10
1.985566
 20
95.274845
 30
0.0
 10
2.614684
 20
92.362497
 30
0.0
 10
3.156902
 20
90.253133
 30
0.0
 10
3.882205
 20
87.525094
 30
0.0
 10
4.513236
 20
84.889315
 30
0.0
 10
5.052430
 20
82.344081
 30
0.0
 10
5.502169
 20
79.887741
 30
0.0
 10
5.864913
 20
77.518608
 30
0.0
 10
6.143043
 20
75.235013
 30
0.0
 10
6.338993
 20
73.035267
 30
0.0
 10
6.455198
 20
70.917701
 30
0.0
 10
6.494013
 20
68.880647
 30
0.0
 10
6.457897
 20
66.922413
 30
0.0
 10
6.349286
 20
65.041332
 30
0.0
 10
6.170560
 20
63.235736
 30
0.0
 10
5.924127
 20
61.503932
 30
0.0
 10
5.612421
 20
59.844254
 30
0.0
 10
5.237877
 20
58.255007
 30
0.0
 10
4.802875
 20
56.734553
 30
0.0
 10
4.309851
 20
55.281170
 30
0.0
 10
3.761237
 20
53.893219
 30
0.0
 10
3.159390
 20
52.569059
 30
0.0
 10
2.506789
 20
51.306996
 30
0.0
 10
1.805821
 20
50.104994
 30
0.0
 10
1.058902
 20
48.961994
 30
0.0
 10
0.268454
 20
47.876144
 30
0.0
 10
-0.563113
 20
46.845328
 30
0.0
 10
-1.433378
 20
45.868486
 30
0.0
 10
-2.339927
 20
44.943503
 30
0.0
 10
-3.280357
 20
44.068790
 30
0.0
 10
-4.252225
 20
43.243025
 30
0.0
 10
-5.253117
 20
42.463828
 30
0.0
 10
-6.280653
 20
41.730138
 30
0.0
 10
-7.332398
 20
41.040105
 30
0.0
 10
-8.405918
 20
40.392140
 30
0.0
 10
-9.498806
 20
39.784392
 30
0.0
 10
-10.608654
 20
39.215009
 30
0.0
 10
-12.869571
 20
38.185780
 30
0.0
 10
-15.169330
 20
37.290694
 30
0.0
 10
-17.488614
 20
36.516259
 30
0.0
 10
-19.808084
 20
35.849509
 30
0.0
 10
-22.108424
 20
35.276951
 30
0.0
 10
-24.370294
 20
34.784826
 30
0.0
 10
-26.574485
 20
34.359905
 30
0.0
 10
-30.731883
 20
33.658494
 30
0.0
 10
-34.426260
 20
33.064769
 30
0.0
 10
-36.051595
 20
32.775051
 30
0.0
 10
-37.502835
 20
32.471838
 30
0.0
 10
-38.761458
 20
32.142167
 30
0.0
 10
-39.807356
 20
31.772544
 30
0.0
 10
-40.720433
 20
31.365086
 30
0.0
 10
-41.592499
 20
30.931963
 30
0.0
 10
-42.423556
 20
30.474763
 30
0.0
 10
-43.212808
 20
29.994809
 30
0.0
 10
-43.959991
 20
29.493159
 30
0.0
 10
-44.664577
 20
28.971665
 30
0.0
 10
-45.326299
 20
28.431121
 30
0.0
 10
-45.945160
 20
27.873380
 30
0.0
 10
-46.520099
 20
27.299499
 30
0.0
 10
-47.051118
 20
26.710801
 30
0.0
 10
-47.537687
 20
26.108609
 30
0.0
 10
-47.979541
 20
25.494776
 30
0.0
 10
-48.376151
 20
24.869830
 30
0.0
 10
-48.726989
 20
24.235888
 30
0.0
 10
-49.032318
 20
23.594009
 30
0.0
 10
-49.290816
 20
22.945251
 30
0.0
 10
-49.503012
 20
22.291465
 30
0.0
 10
-49.667847
 20
21.633711
 30
0.0
 10
-49.785058
 20
20.973311
 30
0.0
 10
-49.854379
 20
20.311853
 30
0.0
 10
-49.875545
 20
19.650395
 30
0.0
 10
-49.848029
 20
18.990524
 30
0.0
 10
-49.771299
 20
18.333563
 30
0.0
 10
-49.645093
 20
17.680836
 30
0.0
 10
-49.468881
 20
17.033401
 30
0.0
 10
-49.242662
 20
16.393109
 30
0.0
 10
-48.965643
 20
15.761020
 30
0.0
 10
-48.637824
 20
15.138720
 30
0.0
 10
-48.258147
 20
14.527267
 30
0.0
 10
-47.827141
 20
13.927986
 30
0.0
 10
-47.343483
 20
13.342463
 30
0.0
 10
-46.807437
 20
12.772022
 30
0.0
 10
-46.464537
 20
12.498707
 30
0.0
 10
-46.000987
 20
12.241268
 30
0.0
 10
-45.419962
 20
11.999174
 30
0.0
 10
-44.725695
 20
11.772161
 30
0.0
 10
-43.011460
 20
11.361528
 30
0.0
 10
-40.887649
 20
11.006457
 30
0.0
 10
-38.383633
 20
10.704303
 30
0.0
 10
-35.529043
 20
10.451626
 30
0.0
 10
-32.352985
 20
10.246309
 30
0.0
 10
-28.885620
 20
10.084649
 30
0.0
 10
-25.155922
 20
9.963999
 30
0.0
 10
-21.193495
 20
9.881449
 30
0.0
 10
-12.688385
 20
9.819007
 30
0.0
 10
-3.606112
 20
9.873776
 30
0.0
 10
5.817473
 20
10.022207
 30
0.0
 10
15.346495
 20
10.240753
 30
0.0
 10
24.745182
 20
10.506395
 30
0.0
 10
42.207920
 20
11.084509
 30
0.0
 10
56.319472
 20
11.568961
 30
0.0
 10
61.528589
 20
11.717393
 30
0.0
 10
65.192274
 20
11.772161
 30
0.0
 10
66.561228
 20
11.792005
 30
0.0
 10
67.856099
 20
11.850213
 30
0.0
 10
69.079268
 20
11.945463
 30
0.0
 10
70.232851
 20
12.076168
 30
0.0
 10
71.318437
 20
12.240474
 30
0.0
 10
72.338405
 20
12.437059
 30
0.0
 10
73.294345
 20
12.664336
 30
0.0
 10
74.188637
 20
12.920453
 30
0.0
 10
75.022868
 20
13.204086
 30
0.0
 10
75.799420
 20
13.513384
 30
0.0
 10
76.520145
 20
13.846759
 30
0.0
 10
77.186895
 20
14.202888
 30
0.0
 10
77.801787
 20
14.580184
 30
0.0
 10
78.366937
 20
14.976795
 30
0.0
 10
78.883932
 20
15.391132
 30
0.0
 10
79.355155
 20
15.821874
 30
0.0
 10
79.782457
 20
16.267167
 30
0.0
 10
80.167691
 20
16.725426
 30
0.0
 10
80.820153
 20
17.675015
 30
0.0
 10
81.328682
 20
18.657678
 30
0.0
 10
81.709153
 20
19.660713
 30
0.0
 10
81.977441
 20
20.671422
 30
0.0
 10
82.149420
 20
21.676838
 30
0.0
 10
82.240966
 20
22.664528
 30
0.0
 10
82.267953
 20
23.621526
 30
0.0
 10
82.182493
 20
25.683424
 30
0.0
 10
81.957597
 20
28.029484
 30
0.0
 10
81.639039
 20
30.489051
 30
0.0
 10
81.272855
 20
32.891996
 30
0.0
 10
80.583616
 20
36.846459
 30
0.0
 10
80.259236
 20
38.529738
 30
0.0
 10
80.265851
 20
38.596942
 30
0.0
 10
75.420801
 20
38.692986
 30
0.0
 10
75.469749
 20
39.999763
 30
0.0
 10
75.452287
 20
41.355223
 30
0.0
 10
76.502947
 20
41.401261
 30
0.0
 10
76.371978
 20
44.398461
 30
0.0
 10
75.319466
 20
44.352688
 30
0.0
 10
75.084780
 20
47.054613
 30
0.0
 10
76.127768
 20
47.192196
 30
0.0
 10
75.736449
 20
50.166113
 30
0.0
 10
74.696107
 20
50.029323
 30
0.0
 10
74.220916
 20
52.700292
 30
0.0
 10
75.249087
 20
52.928363
 30
0.0
 10
74.600064
 20
55.856771
 30
0.0
 10
73.571099
 20
55.628886
 30
0.0
 10
72.874187
 20
58.250430
 30
0.0
 10
73.874047
 20
58.565655
 30
0.0
 10
72.971818
 20
61.426965
 30
0.0
 10
71.968782
 20
61.110708
 30
0.0
 10
71.039566
 20
63.658884
 30
0.0
 10
72.012703
 20
64.061950
 30
0.0
 10
70.864941
 20
66.833884
 30
0.0
 10
69.893920
 20
66.431849
 30
0.0
 10
68.746157
 20
68.889564
 30
0.0
 10
69.679343
 20
69.375339
 30
0.0
 10
68.294514
 20
72.036148
 30
0.0
 10
67.360270
 20
71.549870
 30
0.0
 10
66.006397
 20
73.900640
 30
0.0
 10
66.891957
 20
74.464943
 30
0.0
 10
65.280380
 20
76.995021
 30
0.0
 10
64.395085
 20
76.431221
 30
0.0
 10
62.836424
 20
78.650728
 30
0.0
 10
63.671978
 20
79.292033
 30
0.0
 10
61.845824
 20
81.672249
 30
0.0
 10
61.010799
 20
81.031462
 30
0.0
 10
59.269312
 20
83.111447
 30
0.0
 10
60.042953
 20
83.820451
 30
0.0
 10
58.015981
 20
86.032182
 30
0.0
 10
57.240487
 20
85.321115
 30
0.0
 10
55.322258
 20
87.239344
 30
0.0
 10
56.033193
 20
88.015526
 30
0.0
 10
53.821541
 20
90.042287
 30
0.0
 10
53.112458
 20
89.268169
 30
0.0
 10
51.032568
 20
91.009656
 30
0.0
 10
51.673389
 20
91.844761
 30
0.0
 10
49.293197
 20
93.670994
 30
0.0
 10
48.651847
 20
92.835387
 30
0.0
 10
46.432258
 20
94.394471
 30
0.0
 10
46.996085
 20
95.279687
 30
0.0
 10
44.466139
 20
96.891476
 30
0.0
 10
43.901783
 20
96.005730
 30
0.0
 10
41.550960
 20
97.359656
 30
0.0
 10
42.037264
 20
98.293450
 30
0.0
 10
39.376350
 20
99.678914
 30
0.0
 10
38.890575
 20
98.745623
 30
0.0
 10
36.432331
 20
99.893888
 30
0.0
 10
36.834497
 20
100.863851
 30
0.0
 10
34.062987
 20
102.012090
 30
0.0
 10
33.660027
 20
101.039534
 30
0.0
 10
31.111295
 20
101.968169
 30
0.0
 10
31.427473
 20
102.971204
 30
0.0
 10
28.566798
 20
103.872957
 30
0.0
 10
28.251414
 20
102.873546
 30
0.0
 10
25.629949
 20
103.571173
 30
0.0
 10
25.857861
 20
104.599027
 30
0.0
 10
22.928844
 20
105.248076
 30
0.0
 10
22.700932
 20
104.220223
 30
0.0
 10
20.030307
 20
104.695652
 30
0.0
 10
20.167256
 20
105.735386
 30
0.0
 10
17.192757
 20
106.127075
 30
0.0
 10
17.055809
 20
105.084775
 30
0.0
 10
14.353116
 20
105.319381
 30
0.0
 10
14.399128
 20
106.371523
 30
0.0
 10
11.402404
 20
106.502254
 30
0.0
 10
11.356419
 20
105.452202
 30
0.0
 10
9.999900
 20
105.469770
 30
0.0
 10
8.686800
 20
105.420664
 30
0.0
 10
8.597926
 20
109.250481
 30
0.0
 10
7.279666
 20
109.142531
 30
0.0
 10
5.820304
 20
110.797500
 30
0.0
 10
5.462720
 20
110.814698
 30
0.0
  0
LWPOLYLINE
  5
101
100
AcDbEntity
  8
Layer_1
 62
1
100
AcDbPolyline
 90
33
 70
1
 10
9.999900
 20
42.919969
 30
0.0
 10
10.572300
 20
42.863613
 30
0.0
 10
11.117474
 20
42.697984
 30
0.0
 10
11.620103
 20
42.429432
 30
0.0
 10
12.064894
 20
42.064836
 30
0.0
 10
12.429569
 20
41.620071
 30
0.0
 10
12.697910
 20
41.117363
 30
0.0
 10
12.863539
 20
40.572321
 30
0.0
 10
12.920133
 20
39.999763
 30
0.0
 10
12.860761
 20
39.411330
 30
0.0
 10
12.690581
 20
38.863378
 30
0.0
 10
12.421314
 20
38.367284
 30
0.0
 10
12.064709
 20
37.935219
 30
0.0
 10
11.632538
 20
37.578561
 30
0.0
 10
11.136498
 20
37.309480
 30
0.0
 10
10.588387
 20
37.139353
 30
0.0
 10
9.999900
 20
37.080086
 30
0.0
 10
9.411494
 20
37.139617
 30
0.0
 10
8.863462
 20
37.309744
 30
0.0
 10
8.367527
 20
37.578826
 30
0.0
 10
7.935436
 20
37.935484
 30
0.0
 10
7.578910
 20
38.367548
 30
0.0
 10
7.309697
 20
38.863378
 30
0.0
 10
7.139543
 20
39.411330
 30
0.0
 10
7.080197
 20
39.999763
 30
0.0
 10
7.139464
 20
40.588461
 30
0.0
 10
7.309564
 20
41.136413
 30
0.0
 10
7.578725
 20
41.632507
 30
0.0
 10
7.935251
 20
42.064571
 30
0.0
 10
8.367368
 20
42.421230
 30
0.0
 10
8.863356
 20
42.690575
 30
0.0
 10
9.411441
 20
42.860703
 30
0.0
 10
9.999900
 20
42.919969
 30
0.0
  0
LWPOLYLINE
  5
102
100
AcDbEntity
  8
Layer_1
 62
1
100
AcDbPolyline
 90
5
 70
1
 10
15.000129
 20
35.000196
 30
0.0
 10
20.999741
 20
35.000196
 30
0.0
 10
20.999741
 20
31.999821
 30
0.0
 10
15.000129
 20
31.999821
 30
0.0
 10
15.000129
 20
35.000196
 30
0.0
  0
LWPOLYLINE
  5
103
100
AcDbEntity
  8
Layer_1
 62
1
100
AcDbPolyline
 90
5
 70
1
 10
39.000112
 20
35.000196
 30
0.0
 10
44.999804
 20
35.000196
 30
0.0
 10
44.999804
 20
31.999821
 30
0.0
 10
39.000112
 20
31.999821
 30
0.0
 10
39.000112
 20
35.000196
 30
0.0
  0
LWPOLYLINE
  5
104
100
AcDbEntity
  8
Layer_1
 62
1
100
AcDbPolyline
 90
33
 70
1
 10
59.999826
 20
32.500149
 30
0.0
 10
60.490099
 20
32.451465
 30
0.0
 10
60.956824
 20
32.309649
 30
0.0
 10
61.387037
 20
32.079990
 30
0.0
 10
61.767772
 20
31.767782
 30
0.0
 10
62.079980
 20
31.387046
 30
0.0
 10
62.309903
 20
30.956834
 30
0.0
 10
62.451720
 20
30.490109
 30
0.0
 10
62.500139
 20
29.999836
 30
0.0
 10
62.451720
 20
29.509828
 30
0.0
 10
62.309903
 20
29.043103
 30
0.0
 10
62.079980
 20
28.612890
 30
0.0
 10
61.767772
 20
28.232155
 30
0.0
 10
61.387037
 20
27.919946
 30
0.0
 10
60.956824
 20
27.690024
 30
0.0
 10
60.490099
 20
27.548207
 30
0.0
 10
59.999826
 20
27.499788
 30
0.0
 10
59.509818
 20
27.548207
 30
0.0
 10
59.043093
 20
27.690024
 30
0.0
 10
58.612881
 20
27.919946
 30
0.0
 10
58.232145
 20
28.232155
 30
0.0
 10
57.919937
 20
28.612890
 30
0.0
 10
57.690014
 20
29.043103
 30
0.0
 10
57.548197
 20
29.509828
 30
0.0
 10
57.499778
 20
29.999836
 30
0.0
 10
57.548197
 20
30.490109
 30
0.0
 10
57.690014
 20
30.956834
 30
0.0
 10
57.919937
 20
31.387046
 30
0.0
 10
58.232145
 20
31.767782
 30
0.0
 10
58.612881
 20
32.079990
 30
0.0
 10
59.043093
 20
32.309649
 30
0.0
 10
59.509818
 20
32.451465
 30
0.0
 10
59.999826
 20
32.500149
 30
0.0
  0
LWPOLYLINE
  5
105
100
AcDbEntity
  8
Layer_1
 62
1
100
AcDbPolyline
 90
21
 70
1
 10
42.500285
 20
22.999755
 30
0.0
 10
42.701897
 20
22.979647
 30
0.0
 10
42.889487
 20
22.921174
 30
0.0
 10
43.207252
 20
22.706861
 30
0.0
 10
43.421564
 20
22.389097
 30
0.0
 10
43.479772
 20
22.201507
 30
0.0
 10
43.500145
 20
21.999894
 30
0.0
 10
43.479772
 20
21.798282
 30
0.0
 10
43.421564
 20
21.610692
 30
0.0
 10
43.207252
 20
21.292928
 30
0.0
 10
42.889487
 20
21.078615
 30
0.0
 10
42.701897
 20
21.020407
 30
0.0
 10
42.500285
 20
21.000034
 30
0.0
 10
42.117433
 20
21.075969
 30
0.0
 10
41.792789
 20
21.292663
 30
0.0
 10
41.576095
 20
21.617042
 30
0.0
 10
41.499895
 20
21.999894
 30
0.0
 10
41.576095
 20
22.382747
 30
0.0
 10
41.792789
 20
22.707126
 30
0.0
 10
42.117433
 20
22.923819
 30
0.0
 10
42.500285
 20
22.999755
 30
0.0
  0
LWPOLYLINE
  5
106
100
AcDbEntity
  8
Layer_1
 62
1
100
AcDbPolyline
 90
25
 70
1
 10
77.500162
 20
22.999755
 30
0.0
 10
77.701774
 20
22.979647
 30
0.0
 10
77.889364
 20
22.921174
 30
0.0
 10
78.207128
 20
22.706861
 30
0.0
 10
78.421441
 20
22.389097
 30
0.0
 10
78.479914
 20
22.201507
 30
0.0
 10
78.500022
 20
21.999894
 30
0.0
 10
78.479914
 20
21.798282
 30
0.0
 10
78.421441
 20
21.610692
 30
0.0
 10
78.207128
 20
21.292928
 30
0.0
 10
77.889364
 20
21.078615
 30
0.0
 10
77.701774
 20
21.020407
 30
0.0
 10
77.500162
 20
21.000034
 30
0.0
 10
77.298549
 20
21.020407
 30
0.0
 10
77.110959
 20
21.078615
 30
0.0
 10
76.793195
 20
21.292928
 30
0.0
 10
76.578882
 20
21.610692
 30
0.0
 10
76.520674
 20
21.798282
 30
0.0
 10
76.500301
 20
21.999894
 30
0.0
 10
76.520674
 20
22.201507
 30
0.0
 10
76.578882
 20
22.389097
 30
0.0
 10
76.793195
 20
22.706861
 30
0.0
 10
77.110959
 20
22.921174
 30
0.0
 10
77.298549
 20
22.979647
 30
0.0
 10
77.500162
 20
22.999755
 30
0.0
  0
LWPOLYLINE
  5
107
100
AcDbEntity
  8
Layer_1
 62
1
100
AcDbPolyline
 90
5
 70
1
 10
-44.999804
 20
17.000328
 30
0.0
 10
-39.000112
 20
17.000328
 30
0.0
 10
-39.000112
 20
13.999953
 30
0.0
 10
-44.999804
 20
13.999953
 30
0.0
 10
-44.999804
 20
17.000328
 30
0.0
  0
LWPOLYLINE
  5
108
100
AcDbEntity
  8
Layer_1
 62
1
100
AcDbPolyline
 90
5
 70
1
 10
-20.999741
 20
17.000328
 30
0.0
 10
-15.000129
 20
17.000328
 30
0.0
 10
-15.000129
 20
13.999953
 30
0.0
 10
-20.999741
 20
13.999953
 30
0.0
 10
-20.999741
 20
17.000328
 30
0.0
  0
LWPOLYLINE
  5
109
100
AcDbEntity
  8
Layer_1
 62
1
100
AcDbPolyline
 90
5
 70
1
 10
9.999900
 20
17.000328
 30
0.0
 10
16.000068
 20
17.000328
 30
0.0
 10
16.000068
 20
13.999953
 30
0.0
 10
9.999900
 20
13.999953
 30
0.0
 10
9.999900
 20
17.000328
 30
0.0
  0
LWPOLYLINE
  5
10a
100
AcDbEntity
  8
Layer_1
 62
1
100
AcDbPolyline
 90
5
 70
1
 10
34.000016
 20
17.000328
 30
0.0
 10
40.000237
 20
17.000328
 30
0.0
 10
40.000237
 20
13.999953
 30
0.0
 10
34.000016
 20
13.999953
 30
0.0
 10
34.000016
 20
17.000328
 30
0.0
  0
ENDSEC
  0
SECTION
  2
OBJECTS
  0
DICTIONARY
  5
C
330
0
100
AcDbDictionary
  3
ACAD_GROUP
350
D
  3
ACAD_MLINESTYLE
350
17
  0
DICTIONARY
  5
D
330
C
100
AcDbDictionary
  0
DICTIONARY
  5
1A
330
C
100
AcDbDictionary
  0
DICTIONARY
  5
17
330
C
100
AcDbDictionary
  3
STANDARD
350
18
  0
DICTIONARY
  5
19
330
C
100
AcDbDictionary
  0
ENDSEC
  0
EOF
