  0
SECTION
  2
HEADER
  9
$ACADVER
  1
AC1014
  9
$HANDSEED
  5
FFFF
  9
$MEASUREMENT
 70
     1
  0
ENDSEC
  0
SECTION
  2
TABLES
  0
TABLE
  2
VPORT
  5
8
330
0
100
AcDbSymbolTable
 70
     4
  0
VPORT
  5
2E
330
8
100
AcDbSymbolTableRecord
100
AcDbViewportTableRecord
  2
*ACTIVE
 70
     0
 10
0.0
 20
0.0
 11
1.0
 21
1.0
 12
210.0
 22
148.5
 13
0.0
 23
0.0
 14
10.0
 24
10.0
 15
10.0
 25
10.0
 16
0.0
 26
0.0
 36
1.0
 17
0.0
 27
0.0
 37
0.0
 40
341.0
 41
1.24
 42
50.0
 43
0.0
 44
0.0
 50
0.0
 51
0.0
 71
     0
 72
   100
 73
     1
 74
     3
 75
     0
 76
     0
 77
     0
 78
     0
  0
ENDTAB
  0
TABLE
  2
LTYPE
  5
5
330
0
100
AcDbSymbolTable
 70
     1
  0
LTYPE
  5
14
330
5
100
AcDbSymbolTableRecord
100
AcDbLinetypeTableRecord
  2
BYBLOCK
 70
     0
  3

 72
    65
 73
     0
 40
0.0
  0
LTYPE
  5
15
330
5
100
AcDbSymbolTableRecord
100
AcDbLinetypeTableRecord
  2
BYLAYER
 70
     0
  3

 72
    65
 73
     0
 40
0.0
  0
LTYPE
  5
16
330
5
100
AcDbSymbolTableRecord
100
AcDbLinetypeTableRecord
  2
CONTINUOUS
 70
     0
  3
Solid line
 72
    65
 73
     0
 40
0.0
  0
ENDTAB
  0
TABLE
  2
LAYER
  5
2
100
AcDbSymbolTable
 70
2
  0
LAYER
  5
50
100
AcDbSymbolTableRecord
100
AcDbLayerTableRecord
  2
0
 70
0
  6
CONTINUOUS
  0
LAYER
  5
51
100
AcDbSymbolTableRecord
100
AcDbLayerTableRecord
  2
Layer_1
 70
0
  6
CONTINUOUS
  0
ENDTAB
  0
TABLE
  2
STYLE
  5
3
330
0
100
AcDbSymbolTable
 70
     1
  0
STYLE
  5
11
330
3
100
AcDbSymbolTableRecord
100
AcDbTextStyleTableRecord
  2
STANDARD
 70
     0
 40
0.0
 41
1.0
 50
0.0
 71
     0
 42
2.5
  3
txt
  4

  0
ENDTAB
  0
TABLE
  2
VIEW
  5
6
330
0
100
AcDbSymbolTable
 70
     0
  0
ENDTAB
  0
TABLE
  2
UCS
  5
7
330
0
100
AcDbSymbolTable
 70
     0
  0
ENDTAB
  0
TABLE
  2
APPID
  5
9
330
0
100
AcDbSymbolTable
 70
     2
  0
APPID
  5
12
330
9
100
AcDbSymbolTableRecord
100
AcDbRegAppTableRecord
  2
ACAD
 70
     0
  0
ENDTAB
  0
TABLE
  2
DIMSTYLE
  5
A
330
0
100
AcDbSymbolTable
 70
     1
  0
DIMSTYLE
105
27
330
A
100
AcDbSymbolTableRecord
100
AcDbDimStyleTableRecord
  2
ISO-25
 70
     0
  3

  4

  5

  6

  7

 40
1.0
 41
2.5
 42
0.625
 43
3.75
 44
1.25
 45
0.0
 46
0.0
 47
0.0
 48
0.0
140
2.5
141
2.5
142
0.0
143
0.03937007874016
144
1.0
145
0.0
146
1.0
147
0.625
 71
     0
 72
     0
 73
     0
 74
     0
 75
     0
 76
     0
 77
     1
 78
     8
170
     0
171
     3
172
     1
173
     0
174
     0
175
     0
176
     0
177
     0
178
     0
270
     2
271
     2
272
     2
273
     2
274
     3
340
11
275
     0
280
     0
281
     0
282
     0
283
     0
284
     8
285
     0
286
     0
287
     3
288
     0
  0
ENDTAB
  0
TABLE
  2
BLOCK_RECORD
  5
1
330
0
100
AcDbSymbolTable
 70
     1
  0
BLOCK_RECORD
  5
1F
330
1
100
AcDbSymbolTableRecord
100
AcDbBlockTableRecord
  2
*MODEL_SPACE
  0
BLOCK_RECORD
  5
1B
330
1
100
AcDbSymbolTableRecord
100
AcDbBlockTableRecord
  2
*PAPER_SPACE
  0
ENDTAB
  0
ENDSEC
  0
SECTION
  2
BLOCKS
  0
BLOCK
  5
20
330
1F
100
AcDbEntity
  8
0
100
AcDbBlockBegin
  2
*MODEL_SPACE
 70
     0
 10
0.0
 20
0.0
 30
0.0
  3
*MODEL_SPACE
  1

  0
ENDBLK
  5
21
330
1F
100
AcDbEntity
  8
0
100
AcDbBlockEnd
  0
BLOCK
  5
1C
330
1B
100
AcDbEntity
 67
     1
  8
0
100
AcDbBlockBegin
  2
*PAPER_SPACE
  1

  0
ENDBLK
  5
1D
330
1B
100
AcDbEntity
 67
     1
  8
0
100
AcDbBlockEnd
  0
ENDSEC
  0
SECTION
  2
ENTITIES
  0
LWPOLYLINE
  5
100
100
AcDbEntity
  8
Layer_1
 62
7
100
AcDbPolyline
 90
233
 70
1
 10
5.600182
 20
121.364862
 30
0.0
 10
5.196110
 20
121.324381
 30
0.0
 10
4.820189
 20
121.208175
 30
0.0
 10
4.480331
 20
121.024237
 30
0.0
 10
4.184473
 20
120.780423
 30
0.0
 10
3.940580
 20
120.484671
 30
0.0
 10
3.756535
 20
120.144892
 30
0.0
 10
3.640304
 20
119.769024
 30
0.0
 10
3.599796
 20
119.364978
 30
0.0
 10
3.599796
 20
119.232686
 30
0.0
 10
4.600240
 20
119.232686
 30
0.0
 10
5.004286
 20
119.192178
 30
0.0
 10
5.380154
 20
119.075920
 30
0.0
 10
5.719933
 20
118.891902
 30
0.0
 10
6.015685
 20
118.647982
 30
0.0
 10
6.259499
 20
118.352124
 30
0.0
 10
6.443464
 20
118.012293
 30
0.0
 10
6.559643
 20
117.636346
 30
0.0
 10
6.600124
 20
117.232273
 30
0.0
 10
6.600124
 20
113.232505
 30
0.0
 10
6.559643
 20
112.828459
 30
0.0
 10
6.443464
 20
112.452591
 30
0.0
 10
6.259499
 20
112.112839
 30
0.0
 10
6.015685
 20
111.817087
 30
0.0
 10
5.719933
 20
111.573273
 30
0.0
 10
5.380154
 20
111.389308
 30
0.0
 10
5.004286
 20
111.273129
 30
0.0
 10
4.600240
 20
111.232648
 30
0.0
 10
3.599796
 20
111.232648
 30
0.0
 10
3.599796
 20
110.500386
 30
0.0
 10
8.988100
 20
110.500386
 30
0.0
 10
8.988100
 20
110.000137
 30
0.0
 10
8.999980
 20
109.967064
 30
0.0
 10
8.999980
 20
70.100303
 30
0.0
 10
8.000038
 20
70.100303
 30
0.0
 10
6.603749
 20
110.000137
 30
0.0
 10
3.599796
 20
110.000137
 30
0.0
 10
2.599846
 20
110.000137
 30
0.0
 10
2.100134
 20
110.000137
 30
0.0
 10
1.696083
 20
109.959655
 30
0.0
 10
1.320215
 20
109.843477
 30
0.0
 10
0.980444
 20
109.659511
 30
0.0
 10
0.684692
 20
109.415697
 30
0.0
 10
0.440878
 20
109.119945
 30
0.0
 10
0.256921
 20
108.780193
 30
0.0
 10
0.140739
 20
108.404325
 30
0.0
 10
0.100252
 20
108.000279
 30
0.0
 10
0.100252
 20
103.999982
 30
0.0
 10
0.140739
 20
103.595831
 30
0.0
 10
0.256921
 20
103.220121
 30
0.0
 10
0.440878
 20
102.880396
 30
0.0
 10
0.684692
 20
102.584591
 30
0.0
 10
0.980444
 20
102.340645
 30
0.0
 10
1.320215
 20
102.156759
 30
0.0
 10
1.696083
 20
102.040606
 30
0.0
 10
2.100134
 20
102.000125
 30
0.0
 10
2.100134
 20
100.000135
 30
0.0
 10
3.599796
 20
100.000135
 30
0.0
 10
3.599796
 20
38.499989
 30
0.0
 10
0.599965
 20
38.499989
 30
0.0
 10
0.599965
 20
30.500031
 30
0.0
 10
3.599796
 20
30.500031
 30
0.0
 10
3.599796
 20
26.232557
 30
0.0
 10
4.600240
 20
26.232557
 30
0.0
 10
5.004286
 20
26.192076
 30
0.0
 10
5.380154
 20
26.075659
 30
0.0
 10
5.719933
 20
25.891773
 30
0.0
 10
6.015685
 20
25.647826
 30
0.0
 10
6.259499
 20
25.352022
 30
0.0
 10
6.443464
 20
25.012031
 30
0.0
 10
6.559643
 20
24.636058
 30
0.0
 10
6.600124
 20
24.232038
 30
0.0
 10
6.600124
 20
20.232323
 30
0.0
 10
6.559643
 20
19.828304
 30
0.0
 10
6.443464
 20
19.452330
 30
0.0
 10
6.259499
 20
19.112604
 30
0.0
 10
6.015685
 20
18.816799
 30
0.0
 10
5.719933
 20
18.573118
 30
0.0
 10
5.380154
 20
18.388967
 30
0.0
 10
5.004286
 20
18.272815
 30
0.0
 10
4.600240
 20
18.232334
 30
0.0
 10
4.600240
 20
2.100124
 30
0.0
 10
4.640722
 20
1.696104
 30
0.0
 10
4.756927
 20
1.320131
 30
0.0
 10
4.940866
 20
0.980405
 30
0.0
 10
5.184680
 20
0.684600
 30
0.0
 10
5.480432
 20
0.440918
 30
0.0
 10
5.820210
 20
0.256768
 30
0.0
 10
6.196078
 20
0.140616
 30
0.0
 10
6.600124
 20
0.100134
 30
0.0
 10
96.600110
 20
0.100134
 30
0.0
 10
97.004130
 20
0.140616
 30
0.0
 10
97.380103
 20
0.256768
 30
0.0
 10
97.719829
 20
0.440918
 30
0.0
 10
98.015634
 20
0.684600
 30
0.0
 10
98.259580
 20
0.980405
 30
0.0
 10
98.443731
 20
1.320131
 30
0.0
 10
98.559883
 20
1.696104
 30
0.0
 10
98.600364
 20
2.100124
 30
0.0
 10
98.600364
 20
18.232334
 30
0.0
 10
98.196345
 20
18.272815
 30
0.0
 10
97.820371
 20
18.388967
 30
0.0
 10
97.480645
 20
18.573118
 30
0.0
 10
97.184576
 20
18.816799
 30
0.0
 10
96.940894
 20
19.112604
 30
0.0
 10
96.756744
 20
19.452330
 30
0.0
 10
96.640591
 20
19.828304
 30
0.0
 10
96.600110
 20
20.232323
 30
0.0
 10
96.600110
 20
24.232038
 30
0.0
 10
96.640591
 20
24.636058
 30
0.0
 10
96.756744
 20
25.012031
 30
0.0
 10
96.940894
 20
25.352022
 30
0.0
 10
97.184576
 20
25.647826
 30
0.0
 10
97.480645
 20
25.891773
 30
0.0
 10
97.820371
 20
26.075659
 30
0.0
 10
98.196345
 20
26.192076
 30
0.0
 10
98.600364
 20
26.232557
 30
0.0
 10
99.600227
 20
26.232557
 30
0.0
 10
99.600227
 20
30.500031
 30
0.0
 10
102.600079
 20
30.500031
 30
0.0
 10
102.600079
 20
38.499989
 30
0.0
 10
99.600227
 20
38.499989
 30
0.0
 10
99.600227
 20
100.000135
 30
0.0
 10
101.099889
 20
100.000135
 30
0.0
 10
101.099889
 20
102.000125
 30
0.0
 10
101.504173
 20
102.040606
 30
0.0
 10
101.879882
 20
102.156759
 30
0.0
 10
102.219872
 20
102.340645
 30
0.0
 10
102.515677
 20
102.584591
 30
0.0
 10
102.759623
 20
102.880396
 30
0.0
 10
102.943509
 20
103.220121
 30
0.0
 10
103.059926
 20
103.595831
 30
0.0
 10
103.100407
 20
103.999982
 30
0.0
 10
103.100407
 20
108.000279
 30
0.0
 10
103.059926
 20
108.404325
 30
0.0
 10
102.943509
 20
108.780193
 30
0.0
 10
102.759623
 20
109.119945
 30
0.0
 10
102.515677
 20
109.415697
 30
0.0
 10
102.219872
 20
109.659511
 30
0.0
 10
101.879882
 20
109.843477
 30
0.0
 10
101.504173
 20
109.959655
 30
0.0
 10
101.099889
 20
110.000137
 30
0.0
 10
99.715056
 20
110.000137
 30
0.0
 10
99.600227
 20
110.000137
 30
0.0
 10
96.595877
 20
110.000137
 30
0.0
 10
95.000171
 20
70.100303
 30
0.0
 10
94.000044
 20
70.100303
 30
0.0
 10
94.000044
 20
109.967064
 30
0.0
 10
94.000044
 20
110.000137
 30
0.0
 10
94.000044
 20
110.500386
 30
0.0
 10
99.600227
 20
110.500386
 30
0.0
 10
99.600227
 20
111.232648
 30
0.0
 10
98.600364
 20
111.232648
 30
0.0
 10
98.196345
 20
111.273129
 30
0.0
 10
97.820371
 20
111.389308
 30
0.0
 10
97.480645
 20
111.573273
 30
0.0
 10
97.184576
 20
111.817087
 30
0.0
 10
96.940894
 20
112.112839
 30
0.0
 10
96.756744
 20
112.452591
 30
0.0
 10
96.640591
 20
112.828459
 30
0.0
 10
96.600110
 20
113.232505
 30
0.0
 10
96.600110
 20
117.232273
 30
0.0
 10
96.640591
 20
117.636346
 30
0.0
 10
96.756744
 20
118.012293
 30
0.0
 10
96.940894
 20
118.352124
 30
0.0
 10
97.184576
 20
118.647982
 30
0.0
 10
97.480645
 20
118.891902
 30
0.0
 10
97.820371
 20
119.075920
 30
0.0
 10
98.196345
 20
119.192178
 30
0.0
 10
98.600364
 20
119.232686
 30
0.0
 10
99.600227
 20
119.232686
 30
0.0
 10
99.600227
 20
119.364978
 30
0.0
 10
99.559746
 20
119.769024
 30
0.0
 10
99.443593
 20
120.144892
 30
0.0
 10
99.259707
 20
120.484671
 30
0.0
 10
99.016026
 20
120.780423
 30
0.0
 10
98.720221
 20
121.024237
 30
0.0
 10
98.380495
 20
121.208175
 30
0.0
 10
98.004521
 20
121.324381
 30
0.0
 10
97.600502
 20
121.364862
 30
0.0
 10
93.602110
 20
121.364862
 30
0.0
 10
92.321259
 20
121.304616
 30
0.0
 10
91.025592
 20
121.129012
 30
0.0
 10
89.716431
 20
120.845748
 30
0.0
 10
88.395099
 20
120.462498
 30
0.0
 10
87.062919
 20
119.986962
 30
0.0
 10
85.720949
 20
119.426838
 30
0.0
 10
84.370778
 20
118.789799
 30
0.0
 10
83.013198
 20
118.083545
 30
0.0
 10
81.649532
 20
117.315776
 30
0.0
 10
80.281369
 20
116.494190
 30
0.0
 10
77.535517
 20
114.720234
 30
0.0
 10
74.785697
 20
112.823220
 30
0.0
 10
72.041962
 20
110.864691
 30
0.0
 10
69.314102
 20
108.906162
 30
0.0
 10
66.612171
 20
107.009175
 30
0.0
 10
63.945959
 20
105.235219
 30
0.0
 10
62.629390
 20
104.413606
 30
0.0
 10
61.325520
 20
103.645837
 30
0.0
 10
60.035674
 20
102.939662
 30
0.0
 10
58.760908
 20
102.302544
 30
0.0
 10
57.502547
 20
101.742420
 30
0.0
 10
56.261649
 20
101.266963
 30
0.0
 10
55.039800
 20
100.883581
 30
0.0
 10
53.838325
 20
100.600476
 30
0.0
 10
52.658016
 20
100.424793
 30
0.0
 10
51.500197
 20
100.364467
 30
0.0
 10
50.342643
 20
100.424793
 30
0.0
 10
49.162334
 20
100.600476
 30
0.0
 10
47.960594
 20
100.883581
 30
0.0
 10
46.739010
 20
101.266963
 30
0.0
 10
45.498111
 20
101.742420
 30
0.0
 10
44.239750
 20
102.302544
 30
0.0
 10
42.964985
 20
102.939662
 30
0.0
 10
41.675139
 20
103.645837
 30
0.0
 10
40.371269
 20
104.413606
 30
0.0
 10
39.054700
 20
105.235219
 30
0.0
 10
36.388223
 20
107.009175
 30
0.0
 10
33.686292
 20
108.906162
 30
0.0
 10
30.958432
 20
110.864691
 30
0.0
 10
28.214697
 20
112.823220
 30
0.0
 10
25.464797
 20
114.720234
 30
0.0
 10
22.718999
 20
116.494190
 30
0.0
 10
21.350703
 20
117.315776
 30
0.0
 10
19.987117
 20
118.083545
 30
0.0
 10
18.629511
 20
118.789799
 30
0.0
 10
17.279127
 20
119.426838
 30
0.0
 10
15.937184
 20
119.986962
 30
0.0
 10
14.604951
 20
120.462498
 30
0.0
 10
13.283672
 20
120.845748
 30
0.0
 10
11.974564
 20
121.129012
 30
0.0
 10
10.678897
 20
121.304616
 30
0.0
 10
9.397887
 20
121.364862
 30
0.0
  0
LWPOLYLINE
  5
101
100
AcDbEntity
  8
Layer_1
 62
7
100
AcDbPolyline
 90
65
 70
1
 10
37.916724
 20
90.232227
 30
0.0
 10
39.143600
 20
90.170314
 30
0.0
 10
40.335021
 20
89.988545
 30
0.0
 10
41.485167
 20
89.693005
 30
0.0
 10
42.587688
 20
89.289515
 30
0.0
 10
43.636499
 20
88.784159
 30
0.0
 10
44.626043
 20
88.183025
 30
0.0
 10
45.549970
 20
87.492196
 30
0.0
 10
46.401930
 20
86.717759
 30
0.0
 10
47.176632
 20
85.865534
 30
0.0
 10
47.867460
 20
84.941872
 30
0.0
 10
48.468595
 20
83.952328
 30
0.0
 10
48.973950
 20
82.903518
 30
0.0
 10
49.377440
 20
81.800996
 30
0.0
 10
49.672981
 20
80.650850
 30
0.0
 10
49.855014
 20
79.459429
 30
0.0
 10
49.916927
 20
78.232553
 30
0.0
 10
49.855014
 20
77.005413
 30
0.0
 10
49.673245
 20
75.813992
 30
0.0
 10
49.377440
 20
74.663846
 30
0.0
 10
48.973950
 20
73.561325
 30
0.0
 10
48.468595
 20
72.512250
 30
0.0
 10
47.867460
 20
71.522970
 30
0.0
 10
47.176632
 20
70.599043
 30
0.0
 10
46.402195
 20
69.746819
 30
0.0
 10
45.549970
 20
68.972382
 30
0.0
 10
44.626307
 20
68.281553
 30
0.0
 10
43.636764
 20
67.680418
 30
0.0
 10
42.587688
 20
67.175063
 30
0.0
 10
41.485167
 20
66.771573
 30
0.0
 10
40.335021
 20
66.476032
 30
0.0
 10
39.143600
 20
66.293999
 30
0.0
 10
37.916724
 20
66.232086
 30
0.0
 10
36.689584
 20
66.294263
 30
0.0
 10
35.498163
 20
66.476032
 30
0.0
 10
34.348281
 20
66.771837
 30
0.0
 10
33.245760
 20
67.175328
 30
0.0
 10
32.196685
 20
67.680683
 30
0.0
 10
31.207406
 20
68.281818
 30
0.0
 10
30.283479
 20
68.972646
 30
0.0
 10
29.431254
 20
69.747083
 30
0.0
 10
28.656817
 20
70.599308
 30
0.0
 10
27.965988
 20
71.523235
 30
0.0
 10
27.365118
 20
72.512514
 30
0.0
 10
26.859763
 20
73.561589
 30
0.0
 10
26.456220
 20
74.664110
 30
0.0
 10
26.160547
 20
75.813992
 30
0.0
 10
25.978752
 20
77.005678
 30
0.0
 10
25.916813
 20
78.232553
 30
0.0
 10
25.978805
 20
79.459429
 30
0.0
 10
26.160653
 20
80.650850
 30
0.0
 10
26.456352
 20
81.800732
 30
0.0
 10
26.859763
 20
82.903253
 30
0.0
 10
27.365118
 20
83.952328
 30
0.0
 10
27.966253
 20
84.941607
 30
0.0
 10
28.657082
 20
85.865534
 30
0.0
 10
29.431519
 20
86.717494
 30
0.0
 10
30.283743
 20
87.492196
 30
0.0
 10
31.207406
 20
88.182760
 30
0.0
 10
32.196950
 20
88.783895
 30
0.0
 10
33.245760
 20
89.289250
 30
0.0
 10
34.348281
 20
89.692740
 30
0.0
 10
35.498163
 20
89.988545
 30
0.0
 10
36.689849
 20
90.170314
 30
0.0
 10
37.916724
 20
90.232227
 30
0.0
  0
LWPOLYLINE
  5
102
100
AcDbEntity
  8
Layer_1
 62
7
100
AcDbPolyline
 90
65
 70
1
 10
65.917109
 20
90.232227
 30
0.0
 10
67.143985
 20
90.170314
 30
0.0
 10
68.335406
 20
89.988545
 30
0.0
 10
69.485288
 20
89.692740
 30
0.0
 10
70.587809
 20
89.289250
 30
0.0
 10
71.636884
 20
88.783895
 30
0.0
 10
72.626163
 20
88.182760
 30
0.0
 10
73.550090
 20
87.492196
 30
0.0
 10
74.402050
 20
86.717494
 30
0.0
 10
75.176487
 20
85.865534
 30
0.0
 10
75.867316
 20
84.941607
 30
0.0
 10
76.468450
 20
83.952328
 30
0.0
 10
76.973806
 20
82.903253
 30
0.0
 10
77.377296
 20
81.800732
 30
0.0
 10
77.673101
 20
80.650850
 30
0.0
 10
77.854870
 20
79.459429
 30
0.0
 10
77.916783
 20
78.232553
 30
0.0
 10
77.854870
 20
77.005678
 30
0.0
 10
77.673101
 20
75.813992
 30
0.0
 10
77.377561
 20
74.664110
 30
0.0
 10
76.974070
 20
73.561589
 30
0.0
 10
76.468715
 20
72.512514
 30
0.0
 10
75.867580
 20
71.523235
 30
0.0
 10
75.176752
 20
70.599308
 30
0.0
 10
74.402315
 20
69.747083
 30
0.0
 10
73.550090
 20
68.972646
 30
0.0
 10
72.626428
 20
68.281818
 30
0.0
 10
71.636884
 20
67.680683
 30
0.0
 10
70.588073
 20
67.175328
 30
0.0
 10
69.485552
 20
66.771837
 30
0.0
 10
68.335406
 20
66.476032
 30
0.0
 10
67.143985
 20
66.294263
 30
0.0
 10
65.917109
 20
66.232086
 30
0.0
 10
64.689969
 20
66.293999
 30
0.0
 10
63.498548
 20
66.476032
 30
0.0
 10
62.348402
 20
66.771573
 30
0.0
 10
61.245880
 20
67.175063
 30
0.0
 10
60.196805
 20
67.680418
 30
0.0
 10
59.207526
 20
68.281553
 30
0.0
 10
58.283599
 20
68.972382
 30
0.0
 10
57.431374
 20
69.746819
 30
0.0
 10
56.656937
 20
70.599043
 30
0.0
 10
55.966109
 20
71.522970
 30
0.0
 10
55.364974
 20
72.512250
 30
0.0
 10
54.859619
 20
73.561325
 30
0.0
 10
54.456128
 20
74.663846
 30
0.0
 10
54.160588
 20
75.813992
 30
0.0
 10
53.978554
 20
77.005413
 30
0.0
 10
53.916642
 20
78.232553
 30
0.0
 10
53.978819
 20
79.459429
 30
0.0
 10
54.160588
 20
80.650850
 30
0.0
 10
54.456393
 20
81.800996
 30
0.0
 10
54.859883
 20
82.903518
 30
0.0
 10
55.365239
 20
83.952328
 30
0.0
 10
55.966373
 20
84.941872
 30
0.0
 10
56.657202
 20
85.865534
 30
0.0
 10
57.431639
 20
86.717759
 30
0.0
 10
58.283864
 20
87.492196
 30
0.0
 10
59.207526
 20
88.183025
 30
0.0
 10
60.197070
 20
88.784159
 30
0.0
 10
61.246145
 20
89.289515
 30
0.0
 10
62.348666
 20
89.693005
 30
0.0
 10
63.498548
 20
89.988545
 30
0.0
 10
64.690234
 20
90.170314
 30
0.0
 10
65.917109
 20
90.232227
 30
0.0
  0
LWPOLYLINE
  5
103
100
AcDbEntity
  8
Layer_1
 62
7
100
AcDbPolyline
 90
65
 70
1
 10
21.916542
 20
66.278124
 30
0.0
 10
23.143524
 20
66.216211
 30
0.0
 10
24.335051
 20
66.034442
 30
0.0
 10
25.485118
 20
65.738637
 30
0.0
 10
26.587771
 20
65.335147
 30
0.0
 10
27.636581
 20
64.829791
 30
0.0
 10
28.626125
 20
64.228921
 30
0.0
 10
29.550052
 20
63.538093
 30
0.0
 10
30.402012
 20
62.763391
 30
0.0
 10
31.176714
 20
61.911166
 30
0.0
 10
31.867543
 20
60.987504
 30
0.0
 10
32.468677
 20
59.997960
 30
0.0
 10
32.973768
 20
58.948885
 30
0.0
 10
33.377523
 20
57.846364
 30
0.0
 10
33.673063
 20
56.696482
 30
0.0
 10
33.854832
 20
55.504797
 30
0.0
 10
33.916745
 20
54.277921
 30
0.0
 10
33.854832
 20
53.050781
 30
0.0
 10
33.673063
 20
51.859360
 30
0.0
 10
33.377258
 20
50.709478
 30
0.0
 10
32.973768
 20
49.606957
 30
0.0
 10
32.468413
 20
48.557882
 30
0.0
 10
31.867278
 20
47.568602
 30
0.0
 10
31.176449
 20
46.644676
 30
0.0
 10
30.402012
 20
45.792715
 30
0.0
 10
29.549788
 20
45.018014
 30
0.0
 10
28.625861
 20
44.327185
 30
0.0
 10
27.636581
 20
43.726315
 30
0.0
 10
26.587506
 20
43.220960
 30
0.0
 10
25.485012
 20
42.817469
 30
0.0
 10
24.334971
 20
42.521665
 30
0.0
 10
23.143471
 20
42.339895
 30
0.0
 10
21.916542
 20
42.277983
 30
0.0
 10
20.689640
 20
42.339895
 30
0.0
 10
19.498166
 20
42.521929
 30
0.0
 10
18.348179
 20
42.817469
 30
0.0
 10
17.245710
 20
43.221224
 30
0.0
 10
16.196767
 20
43.726315
 30
0.0
 10
15.207382
 20
44.327450
 30
0.0
 10
14.283614
 20
45.018278
 30
0.0
 10
13.431442
 20
45.792715
 30
0.0
 10
12.656979
 20
46.644940
 30
0.0
 10
11.966177
 20
47.568602
 30
0.0
 10
11.365095
 20
48.558146
 30
0.0
 10
10.859793
 20
49.606957
 30
0.0
 10
10.456276
 20
50.709478
 30
0.0
 10
10.160550
 20
51.859360
 30
0.0
 10
9.978702
 20
53.051045
 30
0.0
 10
9.916736
 20
54.277921
 30
0.0
 10
9.978649
 20
55.504797
 30
0.0
 10
10.160471
 20
56.696218
 30
0.0
 10
10.456144
 20
57.846364
 30
0.0
 10
10.859634
 20
58.948885
 30
0.0
 10
11.364936
 20
59.997960
 30
0.0
 10
11.965992
 20
60.987239
 30
0.0
 10
12.656794
 20
61.911166
 30
0.0
 10
13.431284
 20
62.763391
 30
0.0
 10
14.283429
 20
63.537828
 30
0.0
 10
15.207224
 20
64.228657
 30
0.0
 10
16.196609
 20
64.829791
 30
0.0
 10
17.245578
 20
65.335147
 30
0.0
 10
18.348099
 20
65.738637
 30
0.0
 10
19.498113
 20
66.034442
 30
0.0
 10
20.689587
 20
66.216211
 30
0.0
 10
21.916542
 20
66.278124
 30
0.0
  0
LWPOLYLINE
  5
104
100
AcDbEntity
  8
Layer_1
 62
7
100
AcDbPolyline
 90
65
 70
1
 10
51.916917
 20
66.278124
 30
0.0
 10
53.143792
 20
66.216211
 30
0.0
 10
54.335214
 20
66.034442
 30
0.0
 10
55.485360
 20
65.738637
 30
0.0
 10
56.587881
 20
65.335147
 30
0.0
 10
57.636691
 20
64.829791
 30
0.0
 10
58.626235
 20
64.228657
 30
0.0
 10
59.549898
 20
63.537828
 30
0.0
 10
60.402122
 20
62.763391
 30
0.0
 10
61.176559
 20
61.911166
 30
0.0
 10
61.867388
 20
60.987239
 30
0.0
 10
62.468523
 20
59.997960
 30
0.0
 10
62.973613
 20
58.948885
 30
0.0
 10
63.377104
 20
57.846364
 30
0.0
 10
63.672909
 20
56.696218
 30
0.0
 10
63.854678
 20
55.504797
 30
0.0
 10
63.916590
 20
54.277921
 30
0.0
 10
63.854678
 20
53.051045
 30
0.0
 10
63.672909
 20
51.859360
 30
0.0
 10
63.377104
 20
50.709478
 30
0.0
 10
62.973613
 20
49.606957
 30
0.0
 10
62.468258
 20
48.558146
 30
0.0
 10
61.867123
 20
47.568602
 30
0.0
 10
61.176295
 20
46.644940
 30
0.0
 10
60.401858
 20
45.792715
 30
0.0
 10
59.549898
 20
45.018278
 30
0.0
 10
58.625971
 20
44.327450
 30
0.0
 10
57.636691
 20
43.726315
 30
0.0
 10
56.587616
 20
43.221224
 30
0.0
 10
55.485095
 20
42.817469
 30
0.0
 10
54.335214
 20
42.521929
 30
0.0
 10
53.143792
 20
42.339895
 30
0.0
 10
51.916917
 20
42.277983
 30
0.0
 10
50.689777
 20
42.339895
 30
0.0
 10
49.498355
 20
42.521665
 30
0.0
 10
48.348474
 20
42.817469
 30
0.0
 10
47.245953
 20
43.220960
 30
0.0
 10
46.196877
 20
43.726315
 30
0.0
 10
45.207334
 20
44.327185
 30
0.0
 10
44.283671
 20
45.018014
 30
0.0
 10
43.431446
 20
45.792715
 30
0.0
 10
42.657009
 20
46.644676
 30
0.0
 10
41.966181
 20
47.568602
 30
0.0
 10
41.365046
 20
48.557882
 30
0.0
 10
40.859691
 20
49.606957
 30
0.0
 10
40.456201
 20
50.709478
 30
0.0
 10
40.160396
 20
51.859360
 30
0.0
 10
39.978362
 20
53.050781
 30
0.0
 10
39.916449
 20
54.277921
 30
0.0
 10
39.978362
 20
55.504797
 30
0.0
 10
40.160396
 20
56.696482
 30
0.0
 10
40.455936
 20
57.846364
 30
0.0
 10
40.859426
 20
58.948885
 30
0.0
 10
41.364782
 20
59.997960
 30
0.0
 10
41.965916
 20
60.987504
 30
0.0
 10
42.656745
 20
61.911166
 30
0.0
 10
43.431182
 20
62.763391
 30
0.0
 10
44.283407
 20
63.538093
 30
0.0
 10
45.207334
 20
64.228921
 30
0.0
 10
46.196613
 20
64.829791
 30
0.0
 10
47.245688
 20
65.335147
 30
0.0
 10
48.348209
 20
65.738637
 30
0.0
 10
49.498355
 20
66.034442
 30
0.0
 10
50.689777
 20
66.216211
 30
0.0
 10
51.916917
 20
66.278124
 30
0.0
  0
LWPOLYLINE
  5
105
100
AcDbEntity
  8
Layer_1
 62
7
100
AcDbPolyline
 90
65
 70
1
 10
81.916498
 20
66.278124
 30
0.0
 10
83.143638
 20
66.216211
 30
0.0
 10
84.335059
 20
66.034442
 30
0.0
 10
85.485205
 20
65.738637
 30
0.0
 10
86.587726
 20
65.335147
 30
0.0
 10
87.636801
 20
64.829791
 30
0.0
 10
88.626081
 20
64.228921
 30
0.0
 10
89.550008
 20
63.538093
 30
0.0
 10
90.402232
 20
62.763391
 30
0.0
 10
91.176669
 20
61.911166
 30
0.0
 10
91.867498
 20
60.987504
 30
0.0
 10
92.468633
 20
59.997960
 30
0.0
 10
92.973988
 20
58.948885
 30
0.0
 10
93.377478
 20
57.846364
 30
0.0
 10
93.673283
 20
56.696482
 30
0.0
 10
93.855052
 20
55.504797
 30
0.0
 10
93.916965
 20
54.277921
 30
0.0
 10
93.855052
 20
53.050781
 30
0.0
 10
93.673018
 20
51.859360
 30
0.0
 10
93.377478
 20
50.709478
 30
0.0
 10
92.973723
 20
49.606957
 30
0.0
 10
92.468368
 20
48.557882
 30
0.0
 10
91.867498
 20
47.568602
 30
0.0
 10
91.176669
 20
46.644676
 30
0.0
 10
90.401968
 20
45.792715
 30
0.0
 10
89.549743
 20
45.018014
 30
0.0
 10
88.626081
 20
44.327185
 30
0.0
 10
87.636537
 20
43.726315
 30
0.0
 10
86.587726
 20
43.220960
 30
0.0
 10
85.485205
 20
42.817469
 30
0.0
 10
84.335059
 20
42.521665
 30
0.0
 10
83.143638
 20
42.339895
 30
0.0
 10
81.916498
 20
42.277983
 30
0.0
 10
80.689622
 20
42.339895
 30
0.0
 10
79.498201
 20
42.521929
 30
0.0
 10
78.348319
 20
42.817469
 30
0.0
 10
77.245798
 20
43.221224
 30
0.0
 10
76.196723
 20
43.726315
 30
0.0
 10
75.207444
 20
44.327450
 30
0.0
 10
74.283781
 20
45.018278
 30
0.0
 10
73.431556
 20
45.792715
 30
0.0
 10
72.657119
 20
46.644940
 30
0.0
 10
71.966291
 20
47.568602
 30
0.0
 10
71.365156
 20
48.558146
 30
0.0
 10
70.859801
 20
49.606957
 30
0.0
 10
70.456311
 20
50.709478
 30
0.0
 10
70.160770
 20
51.859360
 30
0.0
 10
69.978737
 20
53.051045
 30
0.0
 10
69.916824
 20
54.277921
 30
0.0
 10
69.978737
 20
55.504797
 30
0.0
 10
70.160506
 20
56.696218
 30
0.0
 10
70.456311
 20
57.846364
 30
0.0
 10
70.859801
 20
58.948885
 30
0.0
 10
71.364892
 20
59.997960
 30
0.0
 10
71.966026
 20
60.987239
 30
0.0
 10
72.656855
 20
61.911166
 30
0.0
 10
73.431292
 20
62.763391
 30
0.0
 10
74.283517
 20
63.537828
 30
0.0
 10
75.207179
 20
64.228657
 30
0.0
 10
76.196723
 20
64.829791
 30
0.0
 10
77.245798
 20
65.335147
 30
0.0
 10
78.348054
 20
65.738637
 30
0.0
 10
79.498201
 20
66.034442
 30
0.0
 10
80.689622
 20
66.216211
 30
0.0
 10
81.916498
 20
66.278124
 30
0.0
  0
LWPOLYLINE
  5
106
100
AcDbEntity
  8
Layer_1
 62
7
100
AcDbPolyline
 90
65
 70
1
 10
37.916724
 20
42.232474
 30
0.0
 10
39.143600
 20
42.170562
 30
0.0
 10
40.335021
 20
41.988793
 30
0.0
 10
41.485167
 20
41.693252
 30
0.0
 10
42.587688
 20
41.289497
 30
0.0
 10
43.636764
 20
40.784407
 30
0.0
 10
44.626307
 20
40.183272
 30
0.0
 10
45.549970
 20
39.492444
 30
0.0
 10
46.402195
 20
38.717742
 30
0.0
 10
47.176632
 20
37.865517
 30
0.0
 10
47.867460
 20
36.941855
 30
0.0
 10
48.468595
 20
35.952311
 30
0.0
 10
48.973950
 20
34.903236
 30
0.0
 10
49.377440
 20
33.800715
 30
0.0
 10
49.673245
 20
32.650833
 30
0.0
 10
49.855014
 20
31.459147
 30
0.0
 10
49.916927
 20
30.232272
 30
0.0
 10
49.855014
 20
29.005396
 30
0.0
 10
49.672981
 20
27.813710
 30
0.0
 10
49.377440
 20
26.663829
 30
0.0
 10
48.973950
 20
25.561308
 30
0.0
 10
48.468595
 20
24.512232
 30
0.0
 10
47.867460
 20
23.522953
 30
0.0
 10
47.176632
 20
22.599026
 30
0.0
 10
46.401930
 20
21.747066
 30
0.0
 10
45.549970
 20
20.972364
 30
0.0
 10
44.626043
 20
20.281800
 30
0.0
 10
43.636499
 20
19.680666
 30
0.0
 10
42.587688
 20
19.175311
 30
0.0
 10
41.485167
 20
18.771820
 30
0.0
 10
40.335021
 20
18.476280
 30
0.0
 10
39.143600
 20
18.294246
 30
0.0
 10
37.916724
 20
18.232334
 30
0.0
 10
36.689849
 20
18.294511
 30
0.0
 10
35.498163
 20
18.476280
 30
0.0
 10
34.348281
 20
18.772085
 30
0.0
 10
33.245760
 20
19.175575
 30
0.0
 10
32.196950
 20
19.680930
 30
0.0
 10
31.207406
 20
20.281800
 30
0.0
 10
30.283743
 20
20.972629
 30
0.0
 10
29.431519
 20
21.747066
 30
0.0
 10
28.657082
 20
22.599291
 30
0.0
 10
27.966253
 20
23.522953
 30
0.0
 10
27.365118
 20
24.512497
 30
0.0
 10
26.859763
 20
25.561308
 30
0.0
 10
26.456352
 20
26.663829
 30
0.0
 10
26.160653
 20
27.813975
 30
0.0
 10
25.978805
 20
29.005396
 30
0.0
 10
25.916813
 20
30.232272
 30
0.0
 10
25.978752
 20
31.459147
 30
0.0
 10
26.160547
 20
32.650569
 30
0.0
 10
26.456220
 20
33.800715
 30
0.0
 10
26.859763
 20
34.903236
 30
0.0
 10
27.365118
 20
35.952311
 30
0.0
 10
27.965988
 20
36.941590
 30
0.0
 10
28.656817
 20
37.865517
 30
0.0
 10
29.431254
 20
38.717742
 30
0.0
 10
30.283479
 20
39.492179
 30
0.0
 10
31.207406
 20
40.183008
 30
0.0
 10
32.196685
 20
40.784142
 30
0.0
 10
33.245760
 20
41.289497
 30
0.0
 10
34.348281
 20
41.692988
 30
0.0
 10
35.498163
 20
41.988793
 30
0.0
 10
36.689584
 20
42.170562
 30
0.0
 10
37.916724
 20
42.232474
 30
0.0
  0
LWPOLYLINE
  5
107
100
AcDbEntity
  8
Layer_1
 62
7
100
AcDbPolyline
 90
65
 70
1
 10
65.917109
 20
42.232474
 30
0.0
 10
67.143985
 20
42.170562
 30
0.0
 10
68.335406
 20
41.988793
 30
0.0
 10
69.485552
 20
41.692988
 30
0.0
 10
70.588073
 20
41.289497
 30
0.0
 10
71.636884
 20
40.784142
 30
0.0
 10
72.626428
 20
40.183008
 30
0.0
 10
73.550090
 20
39.492179
 30
0.0
 10
74.402315
 20
38.717742
 30
0.0
 10
75.176752
 20
37.865517
 30
0.0
 10
75.867580
 20
36.941590
 30
0.0
 10
76.468715
 20
35.952311
 30
0.0
 10
76.974070
 20
34.903236
 30
0.0
 10
77.377561
 20
33.800715
 30
0.0
 10
77.673101
 20
32.650569
 30
0.0
 10
77.854870
 20
31.459147
 30
0.0
 10
77.916783
 20
30.232272
 30
0.0
 10
77.854870
 20
29.005396
 30
0.0
 10
77.673101
 20
27.813975
 30
0.0
 10
77.377296
 20
26.663829
 30
0.0
 10
76.973806
 20
25.561308
 30
0.0
 10
76.468450
 20
24.512497
 30
0.0
 10
75.867316
 20
23.522953
 30
0.0
 10
75.176487
 20
22.599291
 30
0.0
 10
74.402050
 20
21.747066
 30
0.0
 10
73.550090
 20
20.972629
 30
0.0
 10
72.626163
 20
20.281800
 30
0.0
 10
71.636884
 20
19.680930
 30
0.0
 10
70.587809
 20
19.175575
 30
0.0
 10
69.485288
 20
18.772085
 30
0.0
 10
68.335406
 20
18.476280
 30
0.0
 10
67.143985
 20
18.294511
 30
0.0
 10
65.917109
 20
18.232334
 30
0.0
 10
64.690234
 20
18.294246
 30
0.0
 10
63.498548
 20
18.476280
 30
0.0
 10
62.348666
 20
18.771820
 30
0.0
 10
61.246145
 20
19.175311
 30
0.0
 10
60.197070
 20
19.680666
 30
0.0
 10
59.207526
 20
20.281800
 30
0.0
 10
58.283864
 20
20.972364
 30
0.0
 10
57.431639
 20
21.747066
 30
0.0
 10
56.657202
 20
22.599026
 30
0.0
 10
55.966373
 20
23.522953
 30
0.0
 10
55.365239
 20
24.512232
 30
0.0
 10
54.859883
 20
25.561308
 30
0.0
 10
54.456393
 20
26.663829
 30
0.0
 10
54.160588
 20
27.813710
 30
0.0
 10
53.978819
 20
29.005396
 30
0.0
 10
53.916642
 20
30.232272
 30
0.0
 10
53.978554
 20
31.459147
 30
0.0
 10
54.160588
 20
32.650833
 30
0.0
 10
54.456128
 20
33.800715
 30
0.0
 10
54.859619
 20
34.903236
 30
0.0
 10
55.364974
 20
35.952311
 30
0.0
 10
55.966109
 20
36.941855
 30
0.0
 10
56.656937
 20
37.865517
 30
0.0
 10
57.431374
 20
38.717742
 30
0.0
 10
58.283599
 20
39.492444
 30
0.0
 10
59.207526
 20
40.183272
 30
0.0
 10
60.196805
 20
40.784407
 30
0.0
 10
61.245880
 20
41.289497
 30
0.0
 10
62.348402
 20
41.693252
 30
0.0
 10
63.498548
 20
41.988793
 30
0.0
 10
64.689969
 20
42.170562
 30
0.0
 10
65.917109
 20
42.232474
 30
0.0
  0
LWPOLYLINE
  5
108
100
AcDbEntity
  8
Layer_1
 62
7
100
AcDbPolyline
 90
4
 70
1
 10
11.599834
 20
6.000091
 30
0.0
 10
23.600169
 20
6.000091
 30
0.0
 10
23.600169
 20
2.999709
 30
0.0
 10
11.599834
 20
2.999709
 30
0.0
  0
LWPOLYLINE
  5
109
100
AcDbEntity
  8
Layer_1
 62
7
100
AcDbPolyline
 90
4
 70
1
 10
79.600065
 20
6.000091
 30
0.0
 10
91.600268
 20
6.000091
 30
0.0
 10
91.600268
 20
2.999709
 30
0.0
 10
79.600065
 20
2.999709
 30
0.0
  0
ENDSEC
  0
SECTION
  2
OBJECTS
  0
DICTIONARY
  5
C
330
0
100
AcDbDictionary
  3
ACAD_GROUP
350
D
  3
ACAD_MLINESTYLE
350
17
  0
DICTIONARY
  5
D
330
C
100
AcDbDictionary
  0
DICTIONARY
  5
1A
330
C
100
AcDbDictionary
  0
DICTIONARY
  5
17
330
C
100
AcDbDictionary
  3
STANDARD
350
18
  0
DICTIONARY
  5
19
330
C
100
AcDbDictionary
  0
ENDSEC
  0
EOF
