  0
SECTION
  2
HEADER
  9
$ACADVER
  1
AC1014
  9
$HANDSEED
  5
FFFF
  9
$MEASUREMENT
 70
     1
  0
ENDSEC
  0
SECTION
  2
TABLES
  0
TABLE
  2
VPORT
  5
8
330
0
100
AcDbSymbolTable
 70
     4
  0
VPORT
  5
2E
330
8
100
AcDbSymbolTableRecord
100
AcDbViewportTableRecord
  2
*ACTIVE
 70
     0
 10
0.0
 20
0.0
 11
1.0
 21
1.0
 12
210.0
 22
148.5
 13
0.0
 23
0.0
 14
10.0
 24
10.0
 15
10.0
 25
10.0
 16
0.0
 26
0.0
 36
1.0
 17
0.0
 27
0.0
 37
0.0
 40
341.0
 41
1.24
 42
50.0
 43
0.0
 44
0.0
 50
0.0
 51
0.0
 71
     0
 72
   100
 73
     1
 74
     3
 75
     0
 76
     0
 77
     0
 78
     0
  0
ENDTAB
  0
TABLE
  2
LTYPE
  5
5
330
0
100
AcDbSymbolTable
 70
     1
  0
LTYPE
  5
14
330
5
100
AcDbSymbolTableRecord
100
AcDbLinetypeTableRecord
  2
BYBLOCK
 70
     0
  3

 72
    65
 73
     0
 40
0.0
  0
LTYPE
  5
15
330
5
100
AcDbSymbolTableRecord
100
AcDbLinetypeTableRecord
  2
BYLAYER
 70
     0
  3

 72
    65
 73
     0
 40
0.0
  0
LTYPE
  5
16
330
5
100
AcDbSymbolTableRecord
100
AcDbLinetypeTableRecord
  2
CONTINUOUS
 70
     0
  3
Solid line
 72
    65
 73
     0
 40
0.0
  0
ENDTAB
  0
TABLE
  2
LAYER
  5
2
100
AcDbSymbolTable
 70
2
  0
LAYER
  5
50
100
AcDbSymbolTableRecord
100
AcDbLayerTableRecord
  2
0
 70
0
  6
CONTINUOUS
  0
LAYER
  5
51
100
AcDbSymbolTableRecord
100
AcDbLayerTableRecord
  2
Layer_1
 70
0
  6
CONTINUOUS
  0
ENDTAB
  0
TABLE
  2
STYLE
  5
3
330
0
100
AcDbSymbolTable
 70
     1
  0
STYLE
  5
11
330
3
100
AcDbSymbolTableRecord
100
AcDbTextStyleTableRecord
  2
STANDARD
 70
     0
 40
0.0
 41
1.0
 50
0.0
 71
     0
 42
2.5
  3
txt
  4

  0
ENDTAB
  0
TABLE
  2
VIEW
  5
6
330
0
100
AcDbSymbolTable
 70
     0
  0
ENDTAB
  0
TABLE
  2
UCS
  5
7
330
0
100
AcDbSymbolTable
 70
     0
  0
ENDTAB
  0
TABLE
  2
APPID
  5
9
330
0
100
AcDbSymbolTable
 70
     2
  0
APPID
  5
12
330
9
100
AcDbSymbolTableRecord
100
AcDbRegAppTableRecord
  2
ACAD
 70
     0
  0
ENDTAB
  0
TABLE
  2
DIMSTYLE
  5
A
330
0
100
AcDbSymbolTable
 70
     1
  0
DIMSTYLE
105
27
330
A
100
AcDbSymbolTableRecord
100
AcDbDimStyleTableRecord
  2
ISO-25
 70
     0
  3

  4

  5

  6

  7

 40
1.0
 41
2.5
 42
0.625
 43
3.75
 44
1.25
 45
0.0
 46
0.0
 47
0.0
 48
0.0
140
2.5
141
2.5
142
0.0
143
0.03937007874016
144
1.0
145
0.0
146
1.0
147
0.625
 71
     0
 72
     0
 73
     0
 74
     0
 75
     0
 76
     0
 77
     1
 78
     8
170
     0
171
     3
172
     1
173
     0
174
     0
175
     0
176
     0
177
     0
178
     0
270
     2
271
     2
272
     2
273
     2
274
     3
340
11
275
     0
280
     0
281
     0
282
     0
283
     0
284
     8
285
     0
286
     0
287
     3
288
     0
  0
ENDTAB
  0
TABLE
  2
BLOCK_RECORD
  5
1
330
0
100
AcDbSymbolTable
 70
     1
  0
BLOCK_RECORD
  5
1F
330
1
100
AcDbSymbolTableRecord
100
AcDbBlockTableRecord
  2
*MODEL_SPACE
  0
BLOCK_RECORD
  5
1B
330
1
100
AcDbSymbolTableRecord
100
AcDbBlockTableRecord
  2
*PAPER_SPACE
  0
ENDTAB
  0
ENDSEC
  0
SECTION
  2
BLOCKS
  0
BLOCK
  5
20
330
1F
100
AcDbEntity
  8
0
100
AcDbBlockBegin
  2
*MODEL_SPACE
 70
     0
 10
0.0
 20
0.0
 30
0.0
  3
*MODEL_SPACE
  1

  0
ENDBLK
  5
21
330
1F
100
AcDbEntity
  8
0
100
AcDbBlockEnd
  0
BLOCK
  5
1C
330
1B
100
AcDbEntity
 67
     1
  8
0
100
AcDbBlockBegin
  2
*PAPER_SPACE
  1

  0
ENDBLK
  5
1D
330
1B
100
AcDbEntity
 67
     1
  8
0
100
AcDbBlockEnd
  0
ENDSEC
  0
SECTION
  2
ENTITIES
  0
LWPOLYLINE
  5
100
100
AcDbEntity
  8
Layer_1
 62
7
100
AcDbPolyline
 90
207
 70
1
 10
13.499980
 20
121.100271
 30
0.0
 10
13.499980
 20
121.081151
 30
0.0
 10
12.500039
 20
120.081210
 30
0.0
 10
8.500274
 20
120.081210
 30
0.0
 10
7.499816
 20
121.081151
 30
0.0
 10
6.499875
 20
121.081151
 30
0.0
 10
5.499934
 20
120.081210
 30
0.0
 10
5.499934
 20
114.081047
 30
0.0
 10
6.499875
 20
113.081105
 30
0.0
 10
7.499816
 20
113.081105
 30
0.0
 10
8.500274
 20
114.081047
 30
0.0
 10
12.500039
 20
114.081047
 30
0.0
 10
13.499980
 20
113.081105
 30
0.0
 10
13.499980
 20
111.081223
 30
0.0
 10
12.500039
 20
110.080766
 30
0.0
 10
8.998953
 20
110.080766
 30
0.0
 10
7.600069
 20
80.000365
 30
0.0
 10
6.600127
 20
80.000365
 30
0.0
 10
6.600127
 20
110.000150
 30
0.0
 10
3.599788
 20
110.000150
 30
0.0
 10
2.100134
 20
110.000150
 30
0.0
 10
1.696024
 20
109.959842
 30
0.0
 10
1.320335
 20
109.843570
 30
0.0
 10
0.980304
 20
109.659602
 30
0.0
 10
0.684714
 20
109.415688
 30
0.0
 10
0.440800
 20
109.120098
 30
0.0
 10
0.256832
 20
108.780067
 30
0.0
 10
0.140560
 20
108.404378
 30
0.0
 10
0.100252
 20
108.000268
 30
0.0
 10
0.100252
 20
103.999987
 30
0.0
 10
0.140560
 20
103.595876
 30
0.0
 10
0.256832
 20
103.220188
 30
0.0
 10
0.440800
 20
102.880155
 30
0.0
 10
0.684714
 20
102.584567
 30
0.0
 10
0.980304
 20
102.340652
 30
0.0
 10
1.320335
 20
102.156685
 30
0.0
 10
1.696024
 20
102.040413
 30
0.0
 10
2.100134
 20
102.000104
 30
0.0
 10
2.100134
 20
100.000223
 30
0.0
 10
3.599788
 20
100.000223
 30
0.0
 10
3.599788
 20
38.499968
 30
0.0
 10
0.599964
 20
38.499968
 30
0.0
 10
0.599964
 20
30.499922
 30
0.0
 10
3.599788
 20
30.499922
 30
0.0
 10
3.599788
 20
25.099725
 30
0.0
 10
3.615290
 20
25.100241
 30
0.0
 10
5.499934
 20
23.080722
 30
0.0
 10
10.500156
 20
23.080722
 30
0.0
 10
12.500039
 20
23.080722
 30
0.0
 10
13.499980
 20
22.080780
 30
0.0
 10
13.499980
 20
20.080899
 30
0.0
 10
12.500039
 20
19.080957
 30
0.0
 10
8.500274
 20
19.080957
 30
0.0
 10
7.499816
 20
20.080899
 30
0.0
 10
6.499875
 20
20.080899
 30
0.0
 10
5.499934
 20
19.080957
 30
0.0
 10
5.499934
 20
13.080795
 30
0.0
 10
6.499875
 20
12.080853
 30
0.0
 10
7.499816
 20
12.080853
 30
0.0
 10
8.500274
 20
13.080795
 30
0.0
 10
12.500039
 20
13.080795
 30
0.0
 10
13.499980
 20
12.080853
 30
0.0
 10
13.499980
 20
10.080972
 30
0.0
 10
12.500039
 20
9.080514
 30
0.0
 10
5.499934
 20
9.080514
 30
0.0
 10
3.599788
 20
7.180368
 30
0.0
 10
3.599788
 20
2.100045
 30
0.0
 10
3.640095
 20
1.695935
 30
0.0
 10
3.756367
 20
1.320247
 30
0.0
 10
3.940336
 20
0.980214
 30
0.0
 10
4.184249
 20
0.684624
 30
0.0
 10
4.480356
 20
0.440712
 30
0.0
 10
4.820387
 20
0.256744
 30
0.0
 10
5.196076
 20
0.140470
 30
0.0
 10
5.600187
 20
0.100163
 30
0.0
 10
97.600452
 20
0.100163
 30
0.0
 10
98.004564
 20
0.140470
 30
0.0
 10
98.380252
 20
0.256744
 30
0.0
 10
98.720282
 20
0.440712
 30
0.0
 10
99.015872
 20
0.684624
 30
0.0
 10
99.259787
 20
0.980214
 30
0.0
 10
99.443755
 20
1.320247
 30
0.0
 10
99.559510
 20
1.695935
 30
0.0
 10
99.600335
 20
2.100045
 30
0.0
 10
99.600335
 20
7.080630
 30
0.0
 10
99.500082
 20
7.080630
 30
0.0
 10
97.500201
 20
9.080514
 30
0.0
 10
90.500097
 20
9.080514
 30
0.0
 10
89.500155
 20
10.080972
 30
0.0
 10
89.500155
 20
12.080853
 30
0.0
 10
90.500097
 20
13.080795
 30
0.0
 10
94.500378
 20
13.080795
 30
0.0
 10
95.500317
 20
12.080853
 30
0.0
 10
96.500259
 20
12.080853
 30
0.0
 10
97.500201
 20
13.080795
 30
0.0
 10
97.500201
 20
19.080957
 30
0.0
 10
96.500259
 20
20.080899
 30
0.0
 10
95.500317
 20
20.080899
 30
0.0
 10
94.500378
 20
19.080957
 30
0.0
 10
90.500097
 20
19.080957
 30
0.0
 10
89.500155
 20
20.080899
 30
0.0
 10
89.500155
 20
22.080780
 30
0.0
 10
90.500097
 20
23.080722
 30
0.0
 10
92.499978
 20
23.080722
 30
0.0
 10
97.500201
 20
23.080722
 30
0.0
 10
99.384842
 20
25.100241
 30
0.0
 10
99.600335
 20
25.096624
 30
0.0
 10
99.600335
 20
30.499922
 30
0.0
 10
102.600159
 20
30.499922
 30
0.0
 10
102.600159
 20
38.499968
 30
0.0
 10
99.600335
 20
38.499968
 30
0.0
 10
99.600335
 20
100.000223
 30
0.0
 10
101.099989
 20
100.000223
 30
0.0
 10
101.099989
 20
102.000104
 30
0.0
 10
101.504099
 20
102.040413
 30
0.0
 10
101.879787
 20
102.156685
 30
0.0
 10
102.219819
 20
102.340652
 30
0.0
 10
102.515926
 20
102.584567
 30
0.0
 10
102.759838
 20
102.880155
 30
0.0
 10
102.943290
 20
103.220188
 30
0.0
 10
103.060079
 20
103.595876
 30
0.0
 10
103.100386
 20
103.999987
 30
0.0
 10
103.100386
 20
108.000268
 30
0.0
 10
103.060079
 20
108.404378
 30
0.0
 10
102.943290
 20
108.780067
 30
0.0
 10
102.759838
 20
109.120098
 30
0.0
 10
102.515926
 20
109.415688
 30
0.0
 10
102.219819
 20
109.659602
 30
0.0
 10
101.879787
 20
109.843570
 30
0.0
 10
101.504099
 20
109.959842
 30
0.0
 10
101.099989
 20
110.000150
 30
0.0
 10
100.600275
 20
110.000150
 30
0.0
 10
99.600335
 20
110.000150
 30
0.0
 10
99.600335
 20
110.100402
 30
0.0
 10
99.500082
 20
110.100402
 30
0.0
 10
97.500201
 20
110.080766
 30
0.0
 10
96.599994
 20
110.000150
 30
0.0
 10
96.599994
 20
80.000365
 30
0.0
 10
95.600054
 20
80.000365
 30
0.0
 10
94.001182
 20
110.080766
 30
0.0
 10
90.500097
 20
110.080766
 30
0.0
 10
89.500155
 20
111.081223
 30
0.0
 10
89.500155
 20
113.081105
 30
0.0
 10
90.500097
 20
114.081047
 30
0.0
 10
94.500378
 20
114.081047
 30
0.0
 10
95.500317
 20
113.081105
 30
0.0
 10
96.500259
 20
113.081105
 30
0.0
 10
97.500201
 20
114.081047
 30
0.0
 10
97.500201
 20
120.081210
 30
0.0
 10
96.500259
 20
121.081151
 30
0.0
 10
95.500317
 20
121.081151
 30
0.0
 10
94.500378
 20
120.081210
 30
0.0
 10
90.500097
 20
120.081210
 30
0.0
 10
89.500155
 20
121.081151
 30
0.0
 10
89.500155
 20
121.100271
 30
0.0
 10
87.500271
 20
121.100271
 30
0.0
 10
86.404729
 20
121.039810
 30
0.0
 10
85.297300
 20
120.864626
 30
0.0
 10
84.177470
 20
120.580922
 30
0.0
 10
83.047821
 20
120.197999
 30
0.0
 10
81.908870
 20
119.722575
 30
0.0
 10
80.761134
 20
119.162401
 30
0.0
 10
79.606680
 20
118.525229
 30
0.0
 10
78.446025
 20
117.818811
 30
0.0
 10
77.279686
 20
117.051414
 30
0.0
 10
76.109728
 20
116.229757
 30
0.0
 10
73.762064
 20
114.455702
 30
0.0
 10
71.410781
 20
112.558656
 30
0.0
 10
69.064665
 20
110.600115
 30
0.0
 10
66.732504
 20
108.641574
 30
0.0
 10
64.422046
 20
106.744528
 30
0.0
 10
62.142076
 20
104.970472
 30
0.0
 10
59.901381
 20
103.381417
 30
0.0
 10
58.798604
 20
102.674999
 30
0.0
 10
57.708230
 20
102.037828
 30
0.0
 10
56.632839
 20
101.477654
 30
0.0
 10
55.571402
 20
101.002231
 30
0.0
 10
54.527021
 20
100.618791
 30
0.0
 10
53.499173
 20
100.336120
 30
0.0
 10
52.490447
 20
100.160420
 30
0.0
 10
51.500324
 20
100.099958
 30
0.0
 10
50.510204
 20
100.160420
 30
0.0
 10
49.501477
 20
100.336120
 30
0.0
 10
48.473630
 20
100.618791
 30
0.0
 10
47.429248
 20
101.002231
 30
0.0
 10
46.367812
 20
101.477654
 30
0.0
 10
45.291905
 20
102.037828
 30
0.0
 10
44.202047
 20
102.674999
 30
0.0
 10
43.099269
 20
103.381417
 30
0.0
 10
40.858574
 20
104.970472
 30
0.0
 10
38.578605
 20
106.744528
 30
0.0
 10
36.268147
 20
108.641574
 30
0.0
 10
33.935470
 20
110.600115
 30
0.0
 10
31.589354
 20
112.558656
 30
0.0
 10
29.238071
 20
114.455702
 30
0.0
 10
26.890405
 20
116.229757
 30
0.0
 10
25.720448
 20
117.051414
 30
0.0
 10
24.554109
 20
117.818811
 30
0.0
 10
23.393454
 20
118.525229
 30
0.0
 10
22.239000
 20
119.162401
 30
0.0
 10
21.091264
 20
119.722575
 30
0.0
 10
19.952313
 20
120.197999
 30
0.0
 10
18.822663
 20
120.580922
 30
0.0
 10
17.703349
 20
120.864626
 30
0.0
 10
16.595404
 20
121.039810
 30
0.0
 10
15.499862
 20
121.100271
 30
0.0
 10
13.499980
 20
121.100271
 30
0.0
  0
LWPOLYLINE
  5
101
100
AcDbEntity
  8
Layer_1
 62
7
100
AcDbPolyline
 90
5
 70
1
 10
11.599833
 20
6.000075
 30
0.0
 10
23.600160
 20
6.000075
 30
0.0
 10
23.600160
 20
2.999733
 30
0.0
 10
11.599833
 20
2.999733
 30
0.0
 10
11.599833
 20
6.000075
 30
0.0
  0
LWPOLYLINE
  5
102
100
AcDbEntity
  8
Layer_1
 62
7
100
AcDbPolyline
 90
5
 70
1
 10
79.599962
 20
6.000075
 30
0.0
 10
91.600289
 20
6.000075
 30
0.0
 10
91.600289
 20
2.999733
 30
0.0
 10
79.599962
 20
2.999733
 30
0.0
 10
79.599962
 20
6.000075
 30
0.0
  0
ENDSEC
  0
SECTION
  2
OBJECTS
  0
DICTIONARY
  5
C
330
0
100
AcDbDictionary
  3
ACAD_GROUP
350
D
  3
ACAD_MLINESTYLE
350
17
  0
DICTIONARY
  5
D
330
C
100
AcDbDictionary
  0
DICTIONARY
  5
1A
330
C
100
AcDbDictionary
  0
DICTIONARY
  5
17
330
C
100
AcDbDictionary
  3
STANDARD
350
18
  0
DICTIONARY
  5
19
330
C
100
AcDbDictionary
  0
ENDSEC
  0
EOF
