  0
SECTION
  2
HEADER
  9
$ACADVER
  1
AC1014
  9
$HANDSEED
  5
FFFF
  9
$MEASUREMENT
 70
     1
  0
ENDSEC
  0
SECTION
  2
TABLES
  0
TABLE
  2
VPORT
  5
8
330
0
100
AcDbSymbolTable
 70
     4
  0
VPORT
  5
2E
330
8
100
AcDbSymbolTableRecord
100
AcDbViewportTableRecord
  2
*ACTIVE
 70
     0
 10
0.0
 20
0.0
 11
1.0
 21
1.0
 12
210.0
 22
148.5
 13
0.0
 23
0.0
 14
10.0
 24
10.0
 15
10.0
 25
10.0
 16
0.0
 26
0.0
 36
1.0
 17
0.0
 27
0.0
 37
0.0
 40
341.0
 41
1.24
 42
50.0
 43
0.0
 44
0.0
 50
0.0
 51
0.0
 71
     0
 72
   100
 73
     1
 74
     3
 75
     0
 76
     0
 77
     0
 78
     0
  0
ENDTAB
  0
TABLE
  2
LTYPE
  5
5
330
0
100
AcDbSymbolTable
 70
     1
  0
LTYPE
  5
14
330
5
100
AcDbSymbolTableRecord
100
AcDbLinetypeTableRecord
  2
BYBLOCK
 70
     0
  3

 72
    65
 73
     0
 40
0.0
  0
LTYPE
  5
15
330
5
100
AcDbSymbolTableRecord
100
AcDbLinetypeTableRecord
  2
BYLAYER
 70
     0
  3

 72
    65
 73
     0
 40
0.0
  0
LTYPE
  5
16
330
5
100
AcDbSymbolTableRecord
100
AcDbLinetypeTableRecord
  2
CONTINUOUS
 70
     0
  3
Solid line
 72
    65
 73
     0
 40
0.0
  0
ENDTAB
  0
TABLE
  2
LAYER
  5
2
100
AcDbSymbolTable
 70
2
  0
LAYER
  5
50
100
AcDbSymbolTableRecord
100
AcDbLayerTableRecord
  2
0
 70
0
  6
CONTINUOUS
  0
LAYER
  5
51
100
AcDbSymbolTableRecord
100
AcDbLayerTableRecord
  2
Layer_1
 70
0
  6
CONTINUOUS
  0
ENDTAB
  0
TABLE
  2
STYLE
  5
3
330
0
100
AcDbSymbolTable
 70
     1
  0
STYLE
  5
11
330
3
100
AcDbSymbolTableRecord
100
AcDbTextStyleTableRecord
  2
STANDARD
 70
     0
 40
0.0
 41
1.0
 50
0.0
 71
     0
 42
2.5
  3
txt
  4

  0
ENDTAB
  0
TABLE
  2
VIEW
  5
6
330
0
100
AcDbSymbolTable
 70
     0
  0
ENDTAB
  0
TABLE
  2
UCS
  5
7
330
0
100
AcDbSymbolTable
 70
     0
  0
ENDTAB
  0
TABLE
  2
APPID
  5
9
330
0
100
AcDbSymbolTable
 70
     2
  0
APPID
  5
12
330
9
100
AcDbSymbolTableRecord
100
AcDbRegAppTableRecord
  2
ACAD
 70
     0
  0
ENDTAB
  0
TABLE
  2
DIMSTYLE
  5
A
330
0
100
AcDbSymbolTable
 70
     1
  0
DIMSTYLE
105
27
330
A
100
AcDbSymbolTableRecord
100
AcDbDimStyleTableRecord
  2
ISO-25
 70
     0
  3

  4

  5

  6

  7

 40
1.0
 41
2.5
 42
0.625
 43
3.75
 44
1.25
 45
0.0
 46
0.0
 47
0.0
 48
0.0
140
2.5
141
2.5
142
0.0
143
0.03937007874016
144
1.0
145
0.0
146
1.0
147
0.625
 71
     0
 72
     0
 73
     0
 74
     0
 75
     0
 76
     0
 77
     1
 78
     8
170
     0
171
     3
172
     1
173
     0
174
     0
175
     0
176
     0
177
     0
178
     0
270
     2
271
     2
272
     2
273
     2
274
     3
340
11
275
     0
280
     0
281
     0
282
     0
283
     0
284
     8
285
     0
286
     0
287
     3
288
     0
  0
ENDTAB
  0
TABLE
  2
BLOCK_RECORD
  5
1
330
0
100
AcDbSymbolTable
 70
     1
  0
BLOCK_RECORD
  5
1F
330
1
100
AcDbSymbolTableRecord
100
AcDbBlockTableRecord
  2
*MODEL_SPACE
  0
BLOCK_RECORD
  5
1B
330
1
100
AcDbSymbolTableRecord
100
AcDbBlockTableRecord
  2
*PAPER_SPACE
  0
ENDTAB
  0
ENDSEC
  0
SECTION
  2
BLOCKS
  0
BLOCK
  5
20
330
1F
100
AcDbEntity
  8
0
100
AcDbBlockBegin
  2
*MODEL_SPACE
 70
     0
 10
0.0
 20
0.0
 30
0.0
  3
*MODEL_SPACE
  1

  0
ENDBLK
  5
21
330
1F
100
AcDbEntity
  8
0
100
AcDbBlockEnd
  0
BLOCK
  5
1C
330
1B
100
AcDbEntity
 67
     1
  8
0
100
AcDbBlockBegin
  2
*PAPER_SPACE
  1

  0
ENDBLK
  5
1D
330
1B
100
AcDbEntity
 67
     1
  8
0
100
AcDbBlockEnd
  0
ENDSEC
  0
SECTION
  2
ENTITIES
  0
LWPOLYLINE
  5
100
100
AcDbEntity
  8
Layer_1
 62
5
100
AcDbPolyline
 90
245
 70
1
 10
3.709851
 20
114.274394
 30
0.0
 10
2.490838
 20
114.049916
 30
0.0
 10
1.547176
 20
113.414237
 30
0.0
 10
0.853701
 20
112.418993
 30
0.0
 10
0.385252
 20
111.115814
 30
0.0
 10
0.116667
 20
109.556334
 30
0.0
 10
0.022783
 20
107.792185
 30
0.0
 10
0.258474
 20
103.856413
 30
0.0
 10
0.891029
 20
99.721559
 30
0.0
 10
1.719150
 20
95.800685
 30
0.0
 10
3.156913
 20
90.253121
 30
0.0
 10
4.613637
 20
84.298664
 30
0.0
 10
5.503950
 20
79.038836
 30
0.0
 10
5.893039
 20
74.414108
 30
0.0
 10
5.846091
 20
70.364947
 30
0.0
 10
5.428294
 20
66.831823
 30
0.0
 10
4.704832
 20
63.755205
 30
0.0
 10
3.740894
 20
61.075562
 30
0.0
 10
2.601665
 20
58.733364
 30
0.0
 10
1.352333
 20
56.669079
 30
0.0
 10
0.058084
 20
54.823177
 30
0.0
 10
-2.404418
 20
51.548397
 30
0.0
 10
-3.442298
 20
50.000458
 30
0.0
 10
-4.264348
 20
48.432777
 30
0.0
 10
-4.805381
 20
46.785825
 30
0.0
 10
-5.000212
 20
45.000070
 30
0.0
 10
-4.857980
 20
43.199539
 30
0.0
 10
-4.458797
 20
41.538503
 30
0.0
 10
-3.843929
 20
40.002800
 30
0.0
 10
-3.054643
 20
38.578269
 30
0.0
 10
-1.117885
 20
36.006073
 30
0.0
 10
1.021341
 20
33.708617
 30
0.0
 10
3.032899
 20
31.572604
 30
0.0
 10
4.586654
 20
29.484738
 30
0.0
 10
5.088688
 20
28.423454
 30
0.0
 10
5.352470
 20
27.331721
 30
0.0
 10
5.336734
 20
26.195376
 30
0.0
 10
5.000212
 20
25.000256
 30
0.0
 10
4.691139
 20
24.488443
 30
0.0
 10
4.237483
 20
24.076747
 30
0.0
 10
2.927550
 20
23.531707
 30
0.0
 10
1.132678
 20
23.321134
 30
0.0
 10
-1.084868
 20
23.401027
 30
0.0
 10
-3.662825
 20
23.727386
 30
0.0
 10
-6.538928
 20
24.256211
 30
0.0
 10
-12.936512
 20
25.745253
 30
0.0
 10
-26.569783
 20
29.216890
 30
0.0
 10
-32.809236
 20
30.495472
 30
0.0
 10
-35.566742
 20
30.866452
 30
0.0
 10
-37.999746
 20
30.999890
 30
0.0
 10
-40.180892
 20
30.841550
 30
0.0
 10
-42.217191
 20
30.389115
 30
0.0
 10
-44.097935
 20
29.676460
 30
0.0
 10
-45.812416
 20
28.737460
 30
0.0
 10
-47.349926
 20
27.605991
 30
0.0
 10
-48.699757
 20
26.315929
 30
0.0
 10
-49.851201
 20
24.901147
 30
0.0
 10
-50.793551
 20
23.395523
 30
0.0
 10
-51.516097
 20
21.832931
 30
0.0
 10
-52.008133
 20
20.247247
 30
0.0
 10
-52.258950
 20
18.672346
 30
0.0
 10
-52.257841
 20
17.142104
 30
0.0
 10
-51.994096
 20
15.690396
 30
0.0
 10
-51.457009
 20
14.351097
 30
0.0
 10
-50.635871
 20
13.158083
 30
0.0
 10
-49.519974
 20
12.145229
 30
0.0
 10
-48.617292
 20
11.705635
 30
0.0
 10
-47.198706
 20
11.297566
 30
0.0
 10
-42.949509
 20
10.571395
 30
0.0
 10
-37.043763
 20
9.957500
 30
0.0
 10
-29.752844
 20
9.446662
 30
0.0
 10
-12.101002
 20
8.697285
 30
0.0
 10
7.834994
 20
8.249522
 30
0.0
 10
27.884119
 20
8.029630
 30
0.0
 10
45.875352
 20
7.963865
 30
0.0
 10
67.000045
 20
7.999745
 30
0.0
 10
70.334625
 20
8.232721
 30
0.0
 10
73.420625
 20
8.889545
 30
0.0
 10
76.197623
 20
9.907060
 30
0.0
 10
78.605201
 20
11.222107
 30
0.0
 10
80.582937
 20
12.771530
 30
0.0
 10
82.070412
 20
14.492170
 30
0.0
 10
83.007205
 20
16.320870
 30
0.0
 10
83.250214
 20
17.256006
 30
0.0
 10
83.332896
 20
18.194472
 30
0.0
 10
83.112342
 20
20.559279
 30
0.0
 10
82.529546
 20
23.734525
 30
0.0
 10
80.750431
 20
31.160722
 30
0.0
 10
78.050532
 20
40.826681
 30
0.0
 10
78.099625
 20
41.777012
 30
0.0
 10
77.972109
 20
42.136533
 30
0.0
 10
77.626267
 20
42.297391
 30
0.0
 10
72.378011
 20
42.519602
 30
0.0
 10
72.472062
 20
45.027976
 30
0.0
 10
72.466376
 20
45.484795
 30
0.0
 10
73.326272
 20
45.525102
 30
0.0
 10
73.673720
 20
45.687921
 30
0.0
 10
73.805314
 20
46.048585
 30
0.0
 10
73.735551
 20
47.795248
 30
0.0
 10
73.575208
 20
48.141873
 30
0.0
 10
73.215684
 20
48.271188
 30
0.0
 10
72.391446
 20
48.232429
 30
0.0
 10
72.176472
 20
51.189357
 30
0.0
 10
73.027584
 20
51.304078
 30
0.0
 10
73.359729
 20
51.496317
 30
0.0
 10
73.459598
 20
51.866833
 30
0.0
 10
73.237388
 20
53.601095
 30
0.0
 10
73.047561
 20
53.932474
 30
0.0
 10
72.678249
 20
54.030009
 30
0.0
 10
71.860729
 20
53.919422
 30
0.0
 10
71.395123
 20
56.847408
 30
0.0
 10
72.226598
 20
57.034477
 30
0.0
 10
72.540750
 20
57.255006
 30
0.0
 10
72.607971
 20
57.632890
 30
0.0
 10
72.235382
 20
59.341313
 30
0.0
 10
72.017457
 20
59.655005
 30
0.0
 10
71.641104
 20
59.720101
 30
0.0
 10
70.838570
 20
59.539234
 30
0.0
 10
70.115617
 20
62.414510
 30
0.0
 10
70.929002
 20
62.673926
 30
0.0
 10
71.222670
 20
62.920759
 30
0.0
 10
71.256633
 20
63.302828
 30
0.0
 10
70.736766
 20
64.972494
 30
0.0
 10
70.492457
 20
65.265745
 30
0.0
 10
70.111997
 20
65.297539
 30
0.0
 10
69.333752
 20
65.049492
 30
0.0
 10
68.361718
 20
67.850871
 30
0.0
 10
69.145133
 20
68.178499
 30
0.0
 10
69.416035
 20
68.450085
 30
0.0
 10
69.416434
 20
68.833757
 30
0.0
 10
68.753426
 20
70.451229
 30
0.0
 10
68.484286
 20
70.722269
 30
0.0
 10
68.102302
 20
70.720980
 30
0.0
 10
67.347311
 20
70.405237
 30
0.0
 10
66.138080
 20
73.112565
 30
0.0
 10
66.887907
 20
73.506340
 30
0.0
 10
67.134239
 20
73.800520
 30
0.0
 10
67.101330
 20
74.182784
 30
0.0
 10
66.299828
 20
75.736694
 30
0.0
 10
66.008013
 20
75.983195
 30
0.0
 10
65.627519
 20
75.948568
 30
0.0
 10
64.907665
 20
75.570813
 30
0.0
 10
63.463309
 20
78.160836
 30
0.0
 10
64.175409
 20
78.617655
 30
0.0
 10
64.395077
 20
78.932182
 30
0.0
 10
64.328889
 20
79.310120
 30
0.0
 10
63.394579
 20
80.788066
 30
0.0
 10
63.082593
 20
81.008182
 30
0.0
 10
62.706765
 20
80.940511
 30
0.0
 10
62.023603
 20
80.502295
 30
0.0
 10
60.363755
 20
82.960026
 30
0.0
 10
61.027283
 20
83.472656
 30
0.0
 10
61.218939
 20
83.805187
 30
0.0
 10
61.120300
 20
84.175972
 30
0.0
 10
60.060932
 20
85.567102
 30
0.0
 10
59.730858
 20
85.759222
 30
0.0
 10
59.362268
 20
85.659086
 30
0.0
 10
58.720447
 20
85.162992
 30
0.0
 10
56.849242
 20
87.464661
 30
0.0
 10
57.468325
 20
88.035168
 30
0.0
 10
57.630091
 20
88.383264
 30
0.0
 10
57.499331
 20
88.744169
 30
0.0
 10
56.322660
 20
90.037113
 30
0.0
 10
55.977192
 20
90.199867
 30
0.0
 10
55.618826
 20
90.068119
 30
0.0
 10
55.027649
 20
89.522933
 30
0.0
 10
52.960592
 20
91.649935
 30
0.0
 10
53.525414
 20
92.270052
 30
0.0
 10
53.656175
 20
92.630920
 30
0.0
 10
53.494408
 20
92.979053
 30
0.0
 10
52.209731
 20
94.164510
 30
0.0
 10
51.851151
 20
94.296518
 30
0.0
 10
51.505384
 20
94.134021
 30
0.0
 10
50.961747
 20
93.537158
 30
0.0
 10
48.721057
 20
95.480192
 30
0.0
 10
49.228001
 20
96.145267
 30
0.0
 10
49.326904
 20
96.516017
 30
0.0
 10
49.135500
 20
96.848584
 30
0.0
 10
47.752124
 20
97.917769
 30
0.0
 10
47.383572
 20
98.017910
 30
0.0
 10
47.053457
 20
97.825785
 30
0.0
 10
46.566150
 20
97.186548
 30
0.0
 10
44.161646
 20
98.923392
 30
0.0
 10
44.609162
 20
99.630843
 30
0.0
 10
44.675360
 20
100.008744
 30
0.0
 10
44.455683
 20
100.323307
 30
0.0
 10
42.984457
 20
101.267952
 30
0.0
 10
42.608667
 20
101.335632
 30
0.0
 10
42.296643
 20
101.115507
 30
0.0
 10
41.867727
 20
100.437512
 30
0.0
 10
39.323181
 20
101.962483
 30
0.0
 10
39.704552
 20
102.700940
 30
0.0
 10
39.737473
 20
103.083169
 30
0.0
 10
39.491128
 20
103.377384
 30
0.0
 10
37.943419
 20
104.190254
 30
0.0
 10
37.562962
 20
104.224893
 30
0.0
 10
37.271110
 20
103.978381
 30
0.0
 10
36.902657
 20
103.264730
 30
0.0
 10
34.234085
 20
104.560258
 30
0.0
 10
34.550863
 20
105.331787
 30
0.0
 10
34.550477
 20
105.715424
 30
0.0
 10
34.279562
 20
105.987044
 30
0.0
 10
32.666223
 20
106.661938
 30
0.0
 10
32.284276
 20
106.663242
 30
0.0
 10
32.015099
 20
106.392187
 30
0.0
 10
31.712275
 20
105.654248
 30
0.0
 10
28.939836
 20
106.708446
 30
0.0
 10
29.187365
 20
107.503231
 30
0.0
 10
29.153420
 20
107.885528
 30
0.0
 10
28.859736
 20
108.132648
 30
0.0
 10
27.194205
 20
108.664400
 30
0.0
 10
26.813523
 20
108.632366
 30
0.0
 10
26.568921
 20
108.338838
 30
0.0
 10
26.330692
 20
107.574544
 30
0.0
 10
23.478153
 20
108.387931
 30
0.0
 10
23.654887
 20
109.199252
 30
0.0
 10
23.587944
 20
109.577101
 30
0.0
 10
23.274031
 20
109.797663
 30
0.0
 10
21.568192
 20
110.182137
 30
0.0
 10
21.191876
 20
110.117062
 30
0.0
 10
20.973913
 20
109.803349
 30
0.0
 10
20.803381
 20
109.022519
 30
0.0
 10
17.889864
 20
109.580623
 30
0.0
 10
17.995801
 20
110.406414
 30
0.0
 10
17.896212
 20
110.776897
 30
0.0
 10
17.564302
 20
110.969169
 30
0.0
 10
15.831592
 20
111.203781
 30
0.0
 10
15.462311
 20
111.106268
 30
0.0
 10
15.272453
 20
110.774865
 30
0.0
 10
15.170650
 20
109.983184
 30
0.0
 10
12.219409
 20
110.287558
 30
0.0
 10
12.252999
 20
111.115931
 30
0.0
 10
12.121430
 20
111.476308
 30
0.0
 10
11.773958
 20
111.638896
 30
0.0
 10
10.583850
 20
111.695223
 30
0.0
 10
9.954431
 20
111.695223
 30
0.0
 10
9.645426
 20
111.552951
 30
0.0
 10
9.507947
 20
111.245122
 30
0.0
 10
9.475391
 20
110.445170
 30
0.0
 10
7.002157
 20
110.497362
 30
0.0
 10
6.501929
 20
110.478759
 30
0.0
 10
6.446635
 20
111.695223
 30
0.0
 10
5.694226
 20
111.695223
 30
0.0
 10
4.066419
 20
114.259408
 30
0.0
 10
3.709851
 20
114.274394
 30
0.0
  0
LWPOLYLINE
  5
101
100
AcDbEntity
  8
Layer_1
 62
5
100
AcDbPolyline
 90
65
 70
1
 10
31.988228
 20
91.472685
 30
0.0
 10
34.228423
 20
91.359553
 30
0.0
 10
36.403905
 20
91.027526
 30
0.0
 10
38.503663
 20
90.487616
 30
0.0
 10
40.516682
 20
89.750835
 30
0.0
 10
42.431949
 20
88.828198
 30
0.0
 10
44.238451
 20
87.730716
 30
0.0
 10
45.925176
 20
86.469405
 30
0.0
 10
47.481109
 20
85.055276
 30
0.0
 10
48.895239
 20
83.499342
 30
0.0
 10
50.156550
 20
81.812618
 30
0.0
 10
51.254031
 20
80.006115
 30
0.0
 10
52.176669
 20
78.090848
 30
0.0
 10
52.913450
 20
76.077829
 30
0.0
 10
53.453360
 20
73.978072
 30
0.0
 10
53.785388
 20
71.802589
 30
0.0
 10
53.898519
 20
69.562394
 30
0.0
 10
53.791342
 20
67.396800
 30
0.0
 10
53.473698
 20
65.267882
 30
0.0
 10
52.951539
 20
63.190009
 30
0.0
 10
52.230815
 20
61.177548
 30
0.0
 10
51.317477
 20
59.244867
 30
0.0
 10
50.217477
 20
57.406334
 30
0.0
 10
48.936765
 20
55.676315
 30
0.0
 10
47.481292
 20
54.069179
 30
0.0
 10
45.874190
 20
52.613668
 30
0.0
 10
44.144202
 20
51.332915
 30
0.0
 10
42.305694
 20
50.232872
 30
0.0
 10
40.373035
 20
49.319489
 30
0.0
 10
38.360591
 20
48.598717
 30
0.0
 10
36.282730
 20
48.076509
 30
0.0
 10
34.153820
 20
47.758815
 30
0.0
 10
31.988228
 20
47.651587
 30
0.0
 10
29.822600
 20
47.758767
 30
0.0
 10
27.693651
 20
48.076421
 30
0.0
 10
25.615749
 20
48.598596
 30
0.0
 10
23.603263
 20
49.319341
 30
0.0
 10
21.670559
 20
50.232705
 30
0.0
 10
19.832007
 20
51.332736
 30
0.0
 10
18.101975
 20
52.613484
 30
0.0
 10
16.494830
 20
54.068996
 30
0.0
 10
15.039318
 20
55.676141
 30
0.0
 10
13.758570
 20
57.406173
 30
0.0
 10
12.658538
 20
59.244725
 30
0.0
 10
11.745174
 20
61.177429
 30
0.0
 10
11.024429
 20
63.189916
 30
0.0
 10
10.502255
 20
65.267818
 30
0.0
 10
10.184601
 20
67.396767
 30
0.0
 10
10.077421
 20
69.562394
 30
0.0
 10
10.184649
 20
71.727986
 30
0.0
 10
10.502343
 20
73.856896
 30
0.0
 10
11.024551
 20
75.934757
 30
0.0
 10
11.745323
 20
77.947201
 30
0.0
 10
12.658706
 20
79.879860
 30
0.0
 10
13.758750
 20
81.718368
 30
0.0
 10
15.039502
 20
83.448356
 30
0.0
 10
16.495013
 20
85.055458
 30
0.0
 10
18.102149
 20
86.510931
 30
0.0
 10
19.832168
 20
87.791642
 30
0.0
 10
21.670701
 20
88.891643
 30
0.0
 10
23.603382
 20
89.804980
 30
0.0
 10
25.615843
 20
90.525704
 30
0.0
 10
27.693716
 20
91.047864
 30
0.0
 10
29.822633
 20
91.365507
 30
0.0
 10
31.988228
 20
91.472685
 30
0.0
  0
LWPOLYLINE
  5
102
100
AcDbEntity
  8
Layer_1
 62
5
100
AcDbPolyline
 90
33
 70
1
 10
7.000089
 20
52.499870
 30
0.0
 10
8.511543
 20
52.347467
 30
0.0
 10
9.919315
 20
51.910446
 30
0.0
 10
11.193250
 20
51.218962
 30
0.0
 10
12.303190
 20
50.303171
 30
0.0
 10
13.218981
 20
49.193231
 30
0.0
 10
13.910465
 20
47.919296
 30
0.0
 10
14.347487
 20
46.511524
 30
0.0
 10
14.499890
 20
45.000070
 30
0.0
 10
14.354507
 20
43.530039
 30
0.0
 10
13.929097
 20
42.129893
 30
0.0
 10
13.239954
 20
40.838976
 30
0.0
 10
12.303374
 20
39.696634
 30
0.0
 10
11.161097
 20
38.759976
 30
0.0
 10
9.870227
 20
38.070743
 30
0.0
 10
8.470110
 20
37.645236
 30
0.0
 10
7.000089
 20
37.499752
 30
0.0
 10
5.529994
 20
37.645148
 30
0.0
 10
4.129793
 20
38.070595
 30
0.0
 10
2.838835
 20
38.759796
 30
0.0
 10
1.696471
 20
39.696452
 30
0.0
 10
0.759815
 20
40.838816
 30
0.0
 10
0.070615
 20
42.129774
 30
0.0
 10
-0.354833
 20
43.529975
 30
0.0
 10
-0.500228
 20
45.000070
 30
0.0
 10
-0.354744
 20
46.470091
 30
0.0
 10
0.070763
 20
47.870208
 30
0.0
 10
0.759996
 20
49.161077
 30
0.0
 10
1.696654
 20
50.303354
 30
0.0
 10
2.838996
 20
51.239934
 30
0.0
 10
4.129912
 20
51.929077
 30
0.0
 10
5.530059
 20
52.354487
 30
0.0
 10
7.000089
 20
52.499870
 30
0.0
  0
LWPOLYLINE
  5
103
100
AcDbEntity
  8
Layer_1
 62
5
100
AcDbPolyline
 90
5
 70
1
 10
15.000118
 20
37.999981
 30
0.0
 10
20.999752
 20
37.999981
 30
0.0
 10
20.999752
 20
35.000165
 30
0.0
 10
15.000118
 20
35.000165
 30
0.0
 10
15.000118
 20
37.999981
 30
0.0
  0
LWPOLYLINE
  5
104
100
AcDbEntity
  8
Layer_1
 62
5
100
AcDbPolyline
 90
5
 70
1
 10
28.999780
 20
37.999981
 30
0.0
 10
34.999930
 20
37.999981
 30
0.0
 10
34.999930
 20
35.000165
 30
0.0
 10
28.999780
 20
35.000165
 30
0.0
 10
28.999780
 20
37.999981
 30
0.0
  0
LWPOLYLINE
  5
105
100
AcDbEntity
  8
Layer_1
 62
5
100
AcDbPolyline
 90
17
 70
1
 10
41.970047
 20
37.701807
 30
0.0
 10
42.352650
 20
37.625602
 30
0.0
 10
42.676982
 20
37.408802
 30
0.0
 10
42.893816
 20
37.084349
 30
0.0
 10
42.969960
 20
36.701610
 30
0.0
 10
42.893816
 20
36.318871
 30
0.0
 10
42.676982
 20
35.994419
 30
0.0
 10
42.352528
 20
35.777583
 30
0.0
 10
41.969789
 20
35.701439
 30
0.0
 10
41.587049
 20
35.777583
 30
0.0
 10
41.262596
 20
35.994419
 30
0.0
 10
41.045761
 20
36.318871
 30
0.0
 10
40.969618
 20
36.701610
 30
0.0
 10
41.045761
 20
37.084349
 30
0.0
 10
41.262596
 20
37.408802
 30
0.0
 10
41.587165
 20
37.625700
 30
0.0
 10
41.970047
 20
37.701807
 30
0.0
  0
LWPOLYLINE
  5
106
100
AcDbEntity
  8
Layer_1
 62
5
100
AcDbPolyline
 90
33
 70
1
 10
60.000988
 20
34.584168
 30
0.0
 10
60.902676
 20
34.495036
 30
0.0
 10
61.761502
 20
34.234127
 30
0.0
 10
62.553329
 20
33.811437
 30
0.0
 10
63.254019
 20
33.236963
 30
0.0
 10
63.828507
 20
32.536344
 30
0.0
 10
64.251233
 20
31.744587
 30
0.0
 10
64.512199
 20
30.885825
 30
0.0
 10
64.601409
 20
29.984190
 30
0.0
 10
64.512199
 20
29.082555
 30
0.0
 10
64.251233
 20
28.223793
 30
0.0
 10
63.828507
 20
27.432036
 30
0.0
 10
63.254019
 20
26.731417
 30
0.0
 10
62.553400
 20
26.156928
 30
0.0
 10
61.761643
 20
25.734203
 30
0.0
 10
60.902881
 20
25.473237
 30
0.0
 10
60.001246
 20
25.384026
 30
0.0
 10
59.099611
 20
25.473237
 30
0.0
 10
58.240849
 20
25.734203
 30
0.0
 10
57.449092
 20
26.156928
 30
0.0
 10
56.748473
 20
26.731417
 30
0.0
 10
56.173984
 20
27.432036
 30
0.0
 10
55.751259
 20
28.223793
 30
0.0
 10
55.490292
 20
29.082555
 30
0.0
 10
55.401082
 20
29.984190
 30
0.0
 10
55.490292
 20
30.885825
 30
0.0
 10
55.751259
 20
31.744587
 30
0.0
 10
56.173984
 20
32.536344
 30
0.0
 10
56.748473
 20
33.236963
 30
0.0
 10
57.449054
 20
33.811365
 30
0.0
 10
58.240751
 20
34.234028
 30
0.0
 10
59.099438
 20
34.494960
 30
0.0
 10
60.000988
 20
34.584168
 30
0.0
  0
LWPOLYLINE
  5
107
100
AcDbEntity
  8
Layer_1
 62
5
100
AcDbPolyline
 90
33
 70
1
 10
22.499918
 20
29.000013
 30
0.0
 10
23.969949
 20
28.854630
 30
0.0
 10
25.370095
 20
28.429220
 30
0.0
 10
26.661012
 20
27.740077
 30
0.0
 10
27.803354
 20
26.803497
 30
0.0
 10
28.740012
 20
25.661220
 30
0.0
 10
29.429245
 20
24.370351
 30
0.0
 10
29.854752
 20
22.970234
 30
0.0
 10
30.000236
 20
21.500213
 30
0.0
 10
29.854841
 20
20.030118
 30
0.0
 10
29.429393
 20
18.629916
 30
0.0
 10
28.740193
 20
17.338958
 30
0.0
 10
27.803537
 20
16.196594
 30
0.0
 10
26.661173
 20
15.259938
 30
0.0
 10
25.370215
 20
14.570737
 30
0.0
 10
23.970013
 20
14.145290
 30
0.0
 10
22.499918
 20
13.999895
 30
0.0
 10
21.029897
 20
14.145379
 30
0.0
 10
19.629780
 20
14.570886
 30
0.0
 10
18.338911
 20
15.260118
 30
0.0
 10
17.196634
 20
16.196777
 30
0.0
 10
16.260054
 20
17.339119
 30
0.0
 10
15.570911
 20
18.630036
 30
0.0
 10
15.145500
 20
20.030182
 30
0.0
 10
15.000118
 20
21.500213
 30
0.0
 10
15.152521
 20
23.011667
 30
0.0
 10
15.589542
 20
24.419439
 30
0.0
 10
16.281027
 20
25.693373
 30
0.0
 10
17.196817
 20
26.803314
 30
0.0
 10
18.306758
 20
27.719104
 30
0.0
 10
19.580692
 20
28.410588
 30
0.0
 10
20.988465
 20
28.847610
 30
0.0
 10
22.499918
 20
29.000013
 30
0.0
  0
LWPOLYLINE
  5
108
100
AcDbEntity
  8
Layer_1
 62
5
100
AcDbPolyline
 90
5
 70
1
 10
-48.000171
 20
17.000227
 30
0.0
 10
-42.000019
 20
17.000227
 30
0.0
 10
-42.000019
 20
13.999895
 30
0.0
 10
-48.000171
 20
13.999895
 30
0.0
 10
-48.000171
 20
17.000227
 30
0.0
  0
LWPOLYLINE
  5
109
100
AcDbEntity
  8
Layer_1
 62
5
100
AcDbPolyline
 90
5
 70
1
 10
-24.000085
 20
17.000227
 30
0.0
 10
-17.999935
 20
17.000227
 30
0.0
 10
-17.999935
 20
13.999895
 30
0.0
 10
-24.000085
 20
13.999895
 30
0.0
 10
-24.000085
 20
17.000227
 30
0.0
  0
LWPOLYLINE
  5
10a
100
AcDbEntity
  8
Layer_1
 62
5
100
AcDbPolyline
 90
5
 70
1
 10
9.999906
 20
17.000227
 30
0.0
 10
16.000057
 20
17.000227
 30
0.0
 10
16.000057
 20
13.999895
 30
0.0
 10
9.999906
 20
13.999895
 30
0.0
 10
9.999906
 20
17.000227
 30
0.0
  0
LWPOLYLINE
  5
10b
100
AcDbEntity
  8
Layer_1
 62
5
100
AcDbPolyline
 90
5
 70
1
 10
28.999780
 20
17.000227
 30
0.0
 10
34.999930
 20
17.000227
 30
0.0
 10
34.999930
 20
13.999895
 30
0.0
 10
28.999780
 20
13.999895
 30
0.0
 10
28.999780
 20
17.000227
 30
0.0
  0
LWPOLYLINE
  5
10c
100
AcDbEntity
  8
Layer_1
 62
5
100
AcDbPolyline
 90
5
 70
1
 10
74.000134
 20
17.000227
 30
0.0
 10
79.999768
 20
17.000227
 30
0.0
 10
79.999768
 20
13.999895
 30
0.0
 10
74.000134
 20
13.999895
 30
0.0
 10
74.000134
 20
17.000227
 30
0.0
  0
LWPOLYLINE
  5
10d
100
AcDbEntity
  8
Layer_1
 62
5
100
AcDbPolyline
 90
17
 70
1
 10
66.718407
 20
12.952931
 30
0.0
 10
67.101288
 20
12.876824
 30
0.0
 10
67.425858
 20
12.659926
 30
0.0
 10
67.645398
 20
12.329185
 30
0.0
 10
67.718578
 20
11.952992
 30
0.0
 10
67.645398
 20
11.576799
 30
0.0
 10
67.425858
 20
11.246058
 30
0.0
 10
67.101405
 20
11.029224
 30
0.0
 10
66.718666
 20
10.953080
 30
0.0
 10
66.335927
 20
11.029224
 30
0.0
 10
66.011474
 20
11.246058
 30
0.0
 10
65.791934
 20
11.576799
 30
0.0
 10
65.718754
 20
11.952992
 30
0.0
 10
65.791934
 20
12.329185
 30
0.0
 10
66.011474
 20
12.659926
 30
0.0
 10
66.335804
 20
12.876725
 30
0.0
 10
66.718407
 20
12.952931
 30
0.0
  0
LWPOLYLINE
  5
10e
100
AcDbEntity
  8
Layer_1
 62
3
100
AcDbPolyline
 90
2
 70
0
 10
8.245605
 20
106.974907
 30
0.0
 10
6.337507
 20
101.962361
 30
0.0
  0
LWPOLYLINE
  5
10f
100
AcDbEntity
  8
Layer_1
 62
3
100
AcDbPolyline
 90
2
 70
0
 10
8.245605
 20
106.974907
 30
0.0
 10
10.153703
 20
101.962361
 30
0.0
  0
LWPOLYLINE
  5
110
100
AcDbEntity
  8
Layer_1
 62
3
100
AcDbPolyline
 90
2
 70
0
 10
7.049258
 20
103.628161
 30
0.0
 10
9.441952
 20
103.628161
 30
0.0
  0
LWPOLYLINE
  5
111
100
AcDbEntity
  8
Layer_1
 62
3
100
AcDbPolyline
 90
2
 70
0
 10
26.910729
 20
103.393002
 30
0.0
 10
26.910729
 20
98.380456
 30
0.0
  0
LWPOLYLINE
  5
112
100
AcDbEntity
  8
Layer_1
 62
3
100
AcDbPolyline
 90
9
 70
0
 10
26.910729
 20
103.393002
 30
0.0
 10
29.061122
 20
103.393002
 30
0.0
 10
29.772873
 20
103.150704
 30
0.0
 10
30.015174
 20
102.908405
 30
0.0
 10
30.257469
 20
102.438953
 30
0.0
 10
30.257469
 20
101.954356
 30
0.0
 10
30.015174
 20
101.484903
 30
0.0
 10
29.772873
 20
101.242604
 30
0.0
 10
29.061122
 20
101.000306
 30
0.0
  0
LWPOLYLINE
  5
113
100
AcDbEntity
  8
Layer_1
 62
3
100
AcDbPolyline
 90
10
 70
0
 10
26.910729
 20
101.000306
 30
0.0
 10
29.061122
 20
101.000306
 30
0.0
 10
29.772873
 20
100.765580
 30
0.0
 10
30.015174
 20
100.530853
 30
0.0
 10
30.257469
 20
100.046257
 30
0.0
 10
30.257469
 20
99.334506
 30
0.0
 10
30.015174
 20
98.857481
 30
0.0
 10
29.772873
 20
98.618968
 30
0.0
 10
29.061122
 20
98.380456
 30
0.0
 10
26.910729
 20
98.380456
 30
0.0
  0
LWPOLYLINE
  5
114
100
AcDbEntity
  8
Layer_1
 62
3
100
AcDbPolyline
 90
18
 70
0
 10
52.985977
 20
88.536740
 30
0.0
 10
52.743682
 20
89.013765
 30
0.0
 10
52.266656
 20
89.490790
 30
0.0
 10
51.789630
 20
89.733089
 30
0.0
 10
50.835584
 20
89.733089
 30
0.0
 10
50.358558
 20
89.490790
 30
0.0
 10
49.881532
 20
89.013765
 30
0.0
 10
49.639237
 20
88.536740
 30
0.0
 10
49.404505
 20
87.824989
 30
0.0
 10
49.404505
 20
86.628642
 30
0.0
 10
49.639237
 20
85.916890
 30
0.0
 10
49.881532
 20
85.436079
 30
0.0
 10
50.358558
 20
84.959055
 30
0.0
 10
50.835584
 20
84.720542
 30
0.0
 10
51.789630
 20
84.720542
 30
0.0
 10
52.266656
 20
84.959055
 30
0.0
 10
52.743682
 20
85.436079
 30
0.0
 10
52.985977
 20
85.916890
 30
0.0
  0
LWPOLYLINE
  5
115
100
AcDbEntity
  8
Layer_1
 62
3
100
AcDbPolyline
 90
2
 70
0
 10
61.196059
 20
72.663877
 30
0.0
 10
61.196059
 20
67.651330
 30
0.0
  0
LWPOLYLINE
  5
116
100
AcDbEntity
  8
Layer_1
 62
3
100
AcDbPolyline
 90
12
 70
0
 10
61.196059
 20
72.663877
 30
0.0
 10
62.869432
 20
72.663877
 30
0.0
 10
63.588752
 20
72.421578
 30
0.0
 10
64.058202
 20
71.944553
 30
0.0
 10
64.300503
 20
71.467529
 30
0.0
 10
64.542798
 20
70.755777
 30
0.0
 10
64.542798
 20
69.559430
 30
0.0
 10
64.300503
 20
68.847678
 30
0.0
 10
64.058202
 20
68.366868
 30
0.0
 10
63.588752
 20
67.889843
 30
0.0
 10
62.869432
 20
67.651330
 30
0.0
 10
61.196059
 20
67.651330
 30
0.0
  0
LWPOLYLINE
  5
117
100
AcDbEntity
  8
Layer_1
 62
3
100
AcDbPolyline
 90
2
 70
0
 10
66.619661
 20
47.465828
 30
0.0
 10
66.619661
 20
42.453282
 30
0.0
  0
LWPOLYLINE
  5
118
100
AcDbEntity
  8
Layer_1
 62
3
100
AcDbPolyline
 90
2
 70
0
 10
66.619661
 20
47.465828
 30
0.0
 10
69.724107
 20
47.465828
 30
0.0
  0
LWPOLYLINE
  5
119
100
AcDbEntity
  8
Layer_1
 62
3
100
AcDbPolyline
 90
2
 70
0
 10
66.619661
 20
45.073132
 30
0.0
 10
68.527760
 20
45.073132
 30
0.0
  0
LWPOLYLINE
  5
11a
100
AcDbEntity
  8
Layer_1
 62
3
100
AcDbPolyline
 90
2
 70
0
 10
66.619661
 20
42.453282
 30
0.0
 10
69.724107
 20
42.453282
 30
0.0
  0
LWPOLYLINE
  5
11b
100
AcDbEntity
  8
Layer_1
 62
6
100
AcDbPolyline
 90
16
 70
1
 10
8.299719
 20
106.947183
 30
0.0
 10
8.857237
 20
106.757389
 30
0.0
 10
9.236824
 20
106.199871
 30
0.0
 10
9.420691
 20
105.262764
 30
0.0
 10
9.420691
 20
104.705246
 30
0.0
 10
9.236824
 20
103.768140
 30
0.0
 10
8.857237
 20
103.207656
 30
0.0
 10
8.299719
 20
103.020827
 30
0.0
 10
7.926061
 20
103.020827
 30
0.0
 10
7.362613
 20
103.207656
 30
0.0
 10
6.994891
 20
103.768140
 30
0.0
 10
6.805095
 20
104.705246
 30
0.0
 10
6.805095
 20
105.262764
 30
0.0
 10
6.994891
 20
106.199871
 30
0.0
 10
7.362613
 20
106.757389
 30
0.0
 10
7.926061
 20
106.947183
 30
0.0
  0
LWPOLYLINE
  5
11c
100
AcDbEntity
  8
Layer_1
 62
6
100
AcDbPolyline
 90
4
 70
0
 10
21.600773
 20
104.501497
 30
0.0
 10
21.270565
 20
104.746421
 30
0.0
 10
20.813514
 20
105.399154
 30
0.0
 10
20.131707
 20
101.532450
 30
0.0
  0
LWPOLYLINE
  5
11d
100
AcDbEntity
  8
Layer_1
 62
6
100
AcDbPolyline
 90
16
 70
1
 10
17.501690
 20
105.983120
 30
0.0
 10
18.017781
 20
105.699397
 30
0.0
 10
18.294788
 20
105.084434
 30
0.0
 10
18.313134
 20
104.129637
 30
0.0
 10
18.216322
 20
103.580588
 30
0.0
 10
17.872521
 20
102.689648
 30
0.0
 10
17.401374
 20
102.203594
 30
0.0
 10
16.819883
 20
102.116416
 30
0.0
 10
16.451903
 20
102.181301
 30
0.0
 10
15.929458
 20
102.463133
 30
0.0
 10
15.664649
 20
103.078957
 30
0.0
 10
15.640464
 20
104.034783
 30
0.0
 10
15.737276
 20
104.583831
 30
0.0
 10
16.086916
 20
105.473743
 30
0.0
 10
16.545864
 20
105.958936
 30
0.0
 10
17.133709
 20
106.048005
 30
0.0
  0
LWPOLYLINE
  5
11e
100
AcDbEntity
  8
Layer_1
 62
6
100
AcDbPolyline
 90
14
 70
0
 10
31.683659
 20
101.026353
 30
0.0
 10
31.748572
 20
101.204701
 30
0.0
 10
31.695993
 20
101.615162
 30
0.0
 10
31.582559
 20
101.858423
 30
0.0
 10
31.301924
 20
102.162540
 30
0.0
 10
30.599680
 20
102.418136
 30
0.0
 10
30.178072
 20
102.369614
 30
0.0
 10
29.940385
 20
102.254151
 30
0.0
 10
29.641842
 20
101.971488
 30
0.0
 10
29.512015
 20
101.614793
 30
0.0
 10
29.559020
 20
101.206359
 30
0.0
 10
29.717431
 20
100.549093
 30
0.0
 10
30.834050
 20
98.154495
 30
0.0
 10
28.376198
 20
99.049079
 30
0.0
  0
LWPOLYLINE
  5
11f
100
AcDbEntity
  8
Layer_1
 62
6
100
AcDbPolyline
 90
16
 70
1
 10
27.612348
 20
103.505435
 30
0.0
 10
28.071331
 20
103.136405
 30
0.0
 10
28.237344
 20
102.482683
 30
0.0
 10
28.089609
 20
101.539207
 30
0.0
 10
27.898926
 20
101.015311
 30
0.0
 10
27.405644
 20
100.197605
 30
0.0
 10
26.857252
 20
99.800749
 30
0.0
 10
26.269457
 20
99.815870
 30
0.0
 10
25.918335
 20
99.943668
 30
0.0
 10
25.452765
 20
100.311940
 30
0.0
 10
25.298913
 20
100.964392
 30
0.0
 10
25.441074
 20
101.909896
 30
0.0
 10
25.631757
 20
102.433792
 30
0.0
 10
26.130613
 20
103.249470
 30
0.0
 10
26.666844
 20
103.647596
 30
0.0
 10
27.261227
 20
103.633233
 30
0.0
  0
LWPOLYLINE
  5
120
100
AcDbEntity
  8
Layer_1
 62
6
100
AcDbPolyline
 90
15
 70
0
 10
41.772220
 20
96.945729
 30
0.0
 10
39.995010
 20
97.971801
 30
0.0
 10
40.213349
 20
96.119898
 30
0.0
 10
39.730523
 20
96.398657
 30
0.0
 10
39.312030
 20
96.421119
 30
0.0
 10
39.057904
 20
96.348684
 30
0.0
 10
38.614778
 20
95.960756
 30
0.0
 10
38.427950
 20
95.637160
 30
0.0
 10
38.312074
 20
95.056869
 30
0.0
 10
38.443705
 20
94.549410
 30
0.0
 10
38.838253
 20
94.105887
 30
0.0
 10
39.326215
 20
93.824162
 30
0.0
 10
39.902455
 20
93.707200
 30
0.0
 10
40.160235
 20
93.774102
 30
0.0
 10
40.506293
 20
94.005766
 30
0.0
  0
LWPOLYLINE
  5
121
100
AcDbEntity
  8
Layer_1
 62
6
100
AcDbPolyline
 90
16
 70
1
 10
37.888961
 20
99.187728
 30
0.0
 10
38.276890
 20
98.744603
 30
0.0
 10
38.326863
 20
98.071983
 30
0.0
 10
38.017539
 20
97.168494
 30
0.0
 10
37.738779
 20
96.685668
 30
0.0
 10
37.110997
 20
95.966041
 30
0.0
 10
36.502022
 20
95.670441
 30
0.0
 10
35.925782
 20
95.787402
 30
0.0
 10
35.602186
 20
95.974231
 30
0.0
 10
35.207638
 20
96.417754
 30
0.0
 10
35.169421
 20
97.087010
 30
0.0
 10
35.473608
 20
97.993465
 30
0.0
 10
35.752367
 20
98.476291
 30
0.0
 10
36.385287
 20
99.192952
 30
0.0
 10
36.982506
 20
99.491915
 30
0.0
 10
37.565365
 20
99.374557
 30
0.0
  0
LWPOLYLINE
  5
122
100
AcDbEntity
  8
Layer_1
 62
6
100
AcDbPolyline
 90
3
 70
0
 10
49.251163
 20
91.159544
 30
0.0
 10
48.997266
 20
87.950432
 30
0.0
 10
46.848214
 20
89.753699
 30
0.0
  0
LWPOLYLINE
  5
123
100
AcDbEntity
  8
Layer_1
 62
6
100
AcDbPolyline
 90
2
 70
0
 10
49.251163
 20
91.159544
 30
0.0
 10
46.727351
 20
88.151780
 30
0.0
  0
LWPOLYLINE
  5
124
100
AcDbEntity
  8
Layer_1
 62
6
100
AcDbPolyline
 90
16
 70
1
 10
46.961470
 20
93.080823
 30
0.0
 10
47.266557
 20
92.577067
 30
0.0
 10
47.198972
 20
91.905989
 30
0.0
 10
46.737458
 20
91.069939
 30
0.0
 10
46.379092
 20
90.642855
 30
0.0
 10
45.635886
 20
90.043175
 30
0.0
 10
44.984833
 20
89.857812
 30
0.0
 10
44.437658
 20
90.073060
 30
0.0
 10
44.151421
 20
90.313241
 30
0.0
 10
43.839884
 20
90.818539
 30
0.0
 10
43.918462
 20
91.484263
 30
0.0
 10
44.375432
 20
92.324125
 30
0.0
 10
44.733797
 20
92.751209
 30
0.0
 10
45.481548
 20
93.347078
 30
0.0
 10
46.121608
 20
93.537793
 30
0.0
 10
46.675233
 20
93.321005
 30
0.0
  0
LWPOLYLINE
  5
125
100
AcDbEntity
  8
Layer_1
 62
6
100
AcDbPolyline
 90
17
 70
0
 10
56.131710
 20
83.741015
 30
0.0
 10
57.332617
 20
82.309828
 30
0.0
 10
56.164274
 20
81.081715
 30
0.0
 10
56.187668
 20
81.349102
 30
0.0
 10
55.970149
 20
81.894371
 30
0.0
 10
55.607970
 20
82.325998
 30
0.0
 10
55.104945
 20
82.639442
 30
0.0
 10
54.577795
 20
82.677141
 30
0.0
 10
54.028714
 20
82.464166
 30
0.0
 10
53.742477
 20
82.223984
 30
0.0
 10
53.435118
 20
81.718322
 30
0.0
 10
53.385250
 20
81.196446
 30
0.0
 10
53.604309
 20
80.644728
 30
0.0
 10
53.966488
 20
80.213100
 30
0.0
 10
54.467972
 20
79.906107
 30
0.0
 10
54.733088
 20
79.880807
 30
0.0
 10
55.137510
 20
79.980142
 30
0.0
  0
LWPOLYLINE
  5
126
100
AcDbEntity
  8
Layer_1
 62
6
100
AcDbPolyline
 90
16
 70
1
 10
54.450252
 20
85.744899
 30
0.0
 10
54.663227
 20
85.195818
 30
0.0
 10
54.480137
 20
84.546671
 30
0.0
 10
53.880456
 20
83.803464
 30
0.0
 10
53.453372
 20
83.445098
 30
0.0
 10
52.617323
 20
82.983585
 30
0.0
 10
51.943973
 20
82.914094
 30
0.0
 10
51.442488
 20
83.221087
 30
0.0
 10
51.202307
 20
83.507324
 30
0.0
 10
50.983247
 20
84.059043
 30
0.0
 10
51.176234
 20
84.701009
 30
0.0
 10
51.772102
 20
85.448759
 30
0.0
 10
52.199186
 20
85.807125
 30
0.0
 10
53.039048
 20
86.264095
 30
0.0
 10
53.702501
 20
86.340767
 30
0.0
 10
54.210070
 20
86.031137
 30
0.0
  0
LWPOLYLINE
  5
127
100
AcDbEntity
  8
Layer_1
 62
6
100
AcDbPolyline
 90
23
 70
0
 10
61.391633
 20
74.674884
 30
0.0
 10
61.807160
 20
74.702482
 30
0.0
 10
62.253251
 20
74.309417
 30
0.0
 10
62.437114
 20
73.990957
 30
0.0
 10
62.554473
 20
73.408099
 30
0.0
 10
62.258475
 20
72.805743
 30
0.0
 10
61.541814
 20
72.172823
 30
0.0
 10
60.730256
 20
71.704270
 30
0.0
 10
59.990735
 20
71.496463
 30
0.0
 10
59.480311
 20
71.633231
 30
0.0
 10
59.036788
 20
72.027779
 30
0.0
 10
58.944857
 20
72.187008
 30
0.0
 10
58.824930
 20
72.768385
 30
0.0
 10
58.964663
 20
73.273672
 30
0.0
 10
59.355160
 20
73.718281
 30
0.0
 10
59.514390
 20
73.810212
 30
0.0
 10
60.097249
 20
73.927571
 30
0.0
 10
60.604707
 20
73.795940
 30
0.0
 10
61.050799
 20
73.402874
 30
0.0
 10
61.142730
 20
73.243645
 30
0.0
 10
61.260089
 20
72.660786
 30
0.0
 10
61.123321
 20
72.150362
 30
0.0
 10
60.730256
 20
71.704270
 30
0.0
  0
LWPOLYLINE
  5
128
100
AcDbEntity
  8
Layer_1
 62
6
100
AcDbPolyline
 90
16
 70
1
 10
60.663863
 20
77.062318
 30
0.0
 10
60.778256
 20
76.484596
 30
0.0
 10
60.485224
 20
75.877104
 30
0.0
 10
59.765597
 20
75.249321
 30
0.0
 10
59.282772
 20
74.970561
 30
0.0
 10
58.379282
 20
74.661238
 30
0.0
 10
57.704095
 20
74.709728
 30
0.0
 10
57.263537
 20
75.099139
 30
0.0
 10
57.076709
 20
75.422735
 30
0.0
 10
56.956782
 20
76.004112
 30
0.0
 10
57.258313
 20
76.602813
 30
0.0
 10
57.974974
 20
77.235733
 30
0.0
 10
58.457800
 20
77.514492
 30
0.0
 10
59.364255
 20
77.818679
 30
0.0
 10
60.030944
 20
77.778980
 30
0.0
 10
60.477035
 20
77.385914
 30
0.0
  0
LWPOLYLINE
  5
129
100
AcDbEntity
  8
Layer_1
 62
6
100
AcDbPolyline
 90
2
 70
0
 10
66.200613
 20
65.465978
 30
0.0
 10
63.150037
 20
62.367478
 30
0.0
  0
LWPOLYLINE
  5
12a
100
AcDbEntity
  8
Layer_1
 62
6
100
AcDbPolyline
 90
2
 70
0
 10
67.095197
 20
63.008126
 30
0.0
 10
66.200613
 20
65.465978
 30
0.0
  0
LWPOLYLINE
  5
12b
100
AcDbEntity
  8
Layer_1
 62
6
100
AcDbPolyline
 90
16
 70
1
 10
65.433726
 20
67.572982
 30
0.0
 10
65.446061
 20
66.984173
 30
0.0
 10
65.051991
 20
66.436796
 30
0.0
 10
64.234285
 20
65.943513
 30
0.0
 10
63.710389
 20
65.752830
 30
0.0
 10
62.766914
 20
65.605096
 30
0.0
 10
62.110405
 20
65.770094
 30
0.0
 10
61.744161
 20
66.230091
 30
0.0
 10
61.616363
 20
66.581213
 30
0.0
 10
61.599213
 20
67.174581
 30
0.0
 10
62.000127
 20
67.711826
 30
0.0
 10
62.815804
 20
68.210682
 30
0.0
 10
63.339700
 20
68.401365
 30
0.0
 10
64.285205
 20
68.543526
 30
0.0
 10
64.934870
 20
68.388660
 30
0.0
 10
65.305928
 20
67.924104
 30
0.0
  0
LWPOLYLINE
  5
12c
100
AcDbEntity
  8
Layer_1
 62
6
100
AcDbPolyline
 90
28
 70
1
 10
69.614215
 20
53.382624
 30
0.0
 10
69.524117
 20
52.800618
 30
0.0
 10
69.189095
 20
52.548823
 30
0.0
 10
68.821116
 20
52.483938
 30
0.0
 10
68.420179
 20
52.605964
 30
0.0
 10
68.174225
 20
52.942016
 30
0.0
 10
67.857545
 20
53.645016
 30
0.0
 10
67.572793
 20
54.166949
 30
0.0
 10
67.146799
 20
54.465232
 30
0.0
 10
66.740022
 20
54.586227
 30
0.0
 10
66.190973
 20
54.489415
 30
0.0
 10
65.855951
 20
54.237620
 30
0.0
 10
65.703889
 20
54.024108
 30
0.0
 10
65.617742
 20
53.436777
 30
0.0
 10
65.747512
 20
52.700818
 30
0.0
 10
66.028314
 20
52.184212
 30
0.0
 10
66.245261
 20
52.029744
 30
0.0
 10
66.645168
 20
51.913560
 30
0.0
 10
67.194216
 20
52.010372
 30
0.0
 10
67.536109
 20
52.257356
 30
0.0
 10
67.832333
 20
52.695031
 30
0.0
 10
67.922430
 20
53.277037
 30
0.0
 10
67.979570
 20
54.045953
 30
0.0
 10
68.095755
 20
54.445860
 30
0.0
 10
68.431806
 20
54.691814
 30
0.0
 10
68.799786
 20
54.756699
 30
0.0
 10
69.199693
 20
54.640515
 30
0.0
 10
69.484445
 20
54.118583
 30
0.0
  0
LWPOLYLINE
  5
12d
100
AcDbEntity
  8
Layer_1
 62
6
100
AcDbPolyline
 90
16
 70
1
 10
68.932358
 20
57.249615
 30
0.0
 10
68.842260
 20
56.667609
 30
0.0
 10
68.359126
 20
56.196976
 30
0.0
 10
67.468185
 20
55.853180
 30
0.0
 10
66.919136
 20
55.756368
 30
0.0
 10
65.964340
 20
55.774710
 30
0.0
 10
65.346457
 20
56.051202
 30
0.0
 10
65.065654
 20
56.567808
 30
0.0
 10
65.000770
 20
56.935788
 30
0.0
 10
65.086917
 20
57.523120
 30
0.0
 10
65.575031
 20
57.982585
 30
0.0
 10
66.464942
 20
58.332223
 30
0.0
 10
67.013990
 20
58.429035
 30
0.0
 10
67.969817
 20
58.404852
 30
0.0
 10
68.582720
 20
58.139526
 30
0.0
 10
68.867473
 20
57.617594
 30
0.0
  0
LWPOLYLINE
  5
12e
100
AcDbEntity
  8
Layer_1
 62
6
100
AcDbPolyline
 90
23
 70
0
 10
68.735194
 20
44.126315
 30
0.0
 10
68.171744
 20
43.942453
 30
0.0
 10
67.804019
 20
43.568796
 30
0.0
 10
67.614225
 20
43.011277
 30
0.0
 10
67.614225
 20
42.821484
 30
0.0
 10
67.804019
 20
42.263965
 30
0.0
 10
68.171744
 20
41.884377
 30
0.0
 10
68.735194
 20
41.700515
 30
0.0
 10
68.919057
 20
41.700515
 30
0.0
 10
69.482507
 20
41.884377
 30
0.0
 10
69.856163
 20
42.263965
 30
0.0
 10
70.045957
 20
42.821484
 30
0.0
 10
70.045957
 20
43.011277
 30
0.0
 10
69.856163
 20
43.568796
 30
0.0
 10
69.482507
 20
43.942453
 30
0.0
 10
68.735194
 20
44.126315
 30
0.0
 10
67.804019
 20
44.126315
 30
0.0
 10
66.866913
 20
43.942453
 30
0.0
 10
66.306428
 20
43.568796
 30
0.0
 10
66.119600
 20
43.011277
 30
0.0
 10
66.119600
 20
42.631690
 30
0.0
 10
66.306428
 20
42.074171
 30
0.0
 10
66.680084
 20
41.884377
 30
0.0
  0
LWPOLYLINE
  5
12f
100
AcDbEntity
  8
Layer_1
 62
6
100
AcDbPolyline
 90
16
 70
1
 10
70.045957
 20
46.557779
 30
0.0
 10
69.856163
 20
46.000260
 30
0.0
 10
69.298645
 20
45.620673
 30
0.0
 10
68.361538
 20
45.436810
 30
0.0
 10
67.804019
 20
45.436810
 30
0.0
 10
66.866913
 20
45.620673
 30
0.0
 10
66.306428
 20
46.000260
 30
0.0
 10
66.119600
 20
46.557779
 30
0.0
 10
66.119600
 20
46.931435
 30
0.0
 10
66.306428
 20
47.494886
 30
0.0
 10
66.866913
 20
47.862611
 30
0.0
 10
67.804019
 20
48.052405
 30
0.0
 10
68.361538
 20
48.052405
 30
0.0
 10
69.298645
 20
47.862611
 30
0.0
 10
69.856163
 20
47.494886
 30
0.0
 10
70.045957
 20
46.931435
 30
0.0
  0
ENDSEC
  0
SECTION
  2
OBJECTS
  0
DICTIONARY
  5
C
330
0
100
AcDbDictionary
  3
ACAD_GROUP
350
D
  3
ACAD_MLINESTYLE
350
17
  0
DICTIONARY
  5
D
330
C
100
AcDbDictionary
  0
DICTIONARY
  5
1A
330
C
100
AcDbDictionary
  0
DICTIONARY
  5
17
330
C
100
AcDbDictionary
  3
STANDARD
350
18
  0
DICTIONARY
  5
19
330
C
100
AcDbDictionary
  0
ENDSEC
  0
EOF
