  0
SECTION
  2
HEADER
  9
$ACADVER
  1
AC1014
  9
$HANDSEED
  5
FFFF
  9
$MEASUREMENT
 70
     1
  0
ENDSEC
  0
SECTION
  2
TABLES
  0
TABLE
  2
VPORT
  5
8
330
0
100
AcDbSymbolTable
 70
     4
  0
VPORT
  5
2E
330
8
100
AcDbSymbolTableRecord
100
AcDbViewportTableRecord
  2
*ACTIVE
 70
     0
 10
0.0
 20
0.0
 11
1.0
 21
1.0
 12
210.0
 22
148.5
 13
0.0
 23
0.0
 14
10.0
 24
10.0
 15
10.0
 25
10.0
 16
0.0
 26
0.0
 36
1.0
 17
0.0
 27
0.0
 37
0.0
 40
341.0
 41
1.24
 42
50.0
 43
0.0
 44
0.0
 50
0.0
 51
0.0
 71
     0
 72
   100
 73
     1
 74
     3
 75
     0
 76
     0
 77
     0
 78
     0
  0
ENDTAB
  0
TABLE
  2
LTYPE
  5
5
330
0
100
AcDbSymbolTable
 70
     1
  0
LTYPE
  5
14
330
5
100
AcDbSymbolTableRecord
100
AcDbLinetypeTableRecord
  2
BYBLOCK
 70
     0
  3

 72
    65
 73
     0
 40
0.0
  0
LTYPE
  5
15
330
5
100
AcDbSymbolTableRecord
100
AcDbLinetypeTableRecord
  2
BYLAYER
 70
     0
  3

 72
    65
 73
     0
 40
0.0
  0
LTYPE
  5
16
330
5
100
AcDbSymbolTableRecord
100
AcDbLinetypeTableRecord
  2
CONTINUOUS
 70
     0
  3
Solid line
 72
    65
 73
     0
 40
0.0
  0
ENDTAB
  0
TABLE
  2
LAYER
  5
2
100
AcDbSymbolTable
 70
2
  0
LAYER
  5
50
100
AcDbSymbolTableRecord
100
AcDbLayerTableRecord
  2
0
 70
0
  6
CONTINUOUS
  0
LAYER
  5
51
100
AcDbSymbolTableRecord
100
AcDbLayerTableRecord
  2
Layer_1
 70
0
  6
CONTINUOUS
  0
ENDTAB
  0
TABLE
  2
STYLE
  5
3
330
0
100
AcDbSymbolTable
 70
     1
  0
STYLE
  5
11
330
3
100
AcDbSymbolTableRecord
100
AcDbTextStyleTableRecord
  2
STANDARD
 70
     0
 40
0.0
 41
1.0
 50
0.0
 71
     0
 42
2.5
  3
txt
  4

  0
ENDTAB
  0
TABLE
  2
VIEW
  5
6
330
0
100
AcDbSymbolTable
 70
     0
  0
ENDTAB
  0
TABLE
  2
UCS
  5
7
330
0
100
AcDbSymbolTable
 70
     0
  0
ENDTAB
  0
TABLE
  2
APPID
  5
9
330
0
100
AcDbSymbolTable
 70
     2
  0
APPID
  5
12
330
9
100
AcDbSymbolTableRecord
100
AcDbRegAppTableRecord
  2
ACAD
 70
     0
  0
ENDTAB
  0
TABLE
  2
DIMSTYLE
  5
A
330
0
100
AcDbSymbolTable
 70
     1
  0
DIMSTYLE
105
27
330
A
100
AcDbSymbolTableRecord
100
AcDbDimStyleTableRecord
  2
ISO-25
 70
     0
  3

  4

  5

  6

  7

 40
1.0
 41
2.5
 42
0.625
 43
3.75
 44
1.25
 45
0.0
 46
0.0
 47
0.0
 48
0.0
140
2.5
141
2.5
142
0.0
143
0.03937007874016
144
1.0
145
0.0
146
1.0
147
0.625
 71
     0
 72
     0
 73
     0
 74
     0
 75
     0
 76
     0
 77
     1
 78
     8
170
     0
171
     3
172
     1
173
     0
174
     0
175
     0
176
     0
177
     0
178
     0
270
     2
271
     2
272
     2
273
     2
274
     3
340
11
275
     0
280
     0
281
     0
282
     0
283
     0
284
     8
285
     0
286
     0
287
     3
288
     0
  0
ENDTAB
  0
TABLE
  2
BLOCK_RECORD
  5
1
330
0
100
AcDbSymbolTable
 70
     1
  0
BLOCK_RECORD
  5
1F
330
1
100
AcDbSymbolTableRecord
100
AcDbBlockTableRecord
  2
*MODEL_SPACE
  0
BLOCK_RECORD
  5
1B
330
1
100
AcDbSymbolTableRecord
100
AcDbBlockTableRecord
  2
*PAPER_SPACE
  0
ENDTAB
  0
ENDSEC
  0
SECTION
  2
BLOCKS
  0
BLOCK
  5
20
330
1F
100
AcDbEntity
  8
0
100
AcDbBlockBegin
  2
*MODEL_SPACE
 70
     0
 10
0.0
 20
0.0
 30
0.0
  3
*MODEL_SPACE
  1

  0
ENDBLK
  5
21
330
1F
100
AcDbEntity
  8
0
100
AcDbBlockEnd
  0
BLOCK
  5
1C
330
1B
100
AcDbEntity
 67
     1
  8
0
100
AcDbBlockBegin
  2
*PAPER_SPACE
  1

  0
ENDBLK
  5
1D
330
1B
100
AcDbEntity
 67
     1
  8
0
100
AcDbBlockEnd
  0
ENDSEC
  0
SECTION
  2
ENTITIES
  0
LWPOLYLINE
  5
100
100
AcDbEntity
  8
Layer_1
 62
1
100
AcDbPolyline
 90
18
 70
1
 10
12.919996
 20
39.999989
 30
0.0
 10
12.690496
 20
38.863389
 30
0.0
 10
12.064797
 20
37.935189
 30
0.0
 10
11.136597
 20
37.309489
 30
0.0
 10
9.999997
 20
37.079990
 30
0.0
 10
8.863398
 20
37.309489
 30
0.0
 10
7.935248
 20
37.935189
 30
0.0
 10
7.309468
 20
38.863389
 30
0.0
 10
7.079998
 20
39.999989
 30
0.0
 10
7.309468
 20
41.136588
 30
0.0
 10
7.935248
 20
42.064788
 30
0.0
 10
8.863398
 20
42.690488
 30
0.0
 10
9.999997
 20
42.919988
 30
0.0
 10
11.136597
 20
42.690488
 30
0.0
 10
12.064797
 20
42.064788
 30
0.0
 10
12.690496
 20
41.136588
 30
0.0
 10
12.919996
 20
39.999989
 30
0.0
 10
12.919996
 20
39.999989
 30
0.0
  0
LWPOLYLINE
  5
101
100
AcDbEntity
  8
Layer_1
 62
1
100
AcDbPolyline
 90
231
 70
1
 10
5.462719
 20
110.814667
 30
0.0
 10
4.807505
 20
110.776037
 30
0.0
 10
4.215261
 20
110.646392
 30
0.0
 10
3.683422
 20
110.430227
 30
0.0
 10
3.209474
 20
110.133100
 30
0.0
 10
2.790877
 20
109.760567
 30
0.0
 10
2.425077
 20
109.317389
 30
0.0
 10
2.109576
 20
108.809126
 30
0.0
 10
1.841823
 20
108.240801
 30
0.0
 10
1.619292
 20
107.617972
 30
0.0
 10
1.439447
 20
106.945401
 30
0.0
 10
1.299758
 20
106.228803
 30
0.0
 10
1.197689
 20
105.473180
 30
0.0
 10
1.096290
 20
103.865969
 30
0.0
 10
1.114989
 20
102.165836
 30
0.0
 10
1.233525
 20
100.414693
 30
0.0
 10
1.431641
 20
98.654499
 30
0.0
 10
1.689074
 20
96.927221
 30
0.0
 10
1.985565
 20
95.274818
 30
0.0
 10
2.614683
 20
92.362471
 30
0.0
 10
3.156901
 20
90.253108
 30
0.0
 10
3.982084
 20
87.166056
 30
0.0
 10
4.699581
 20
84.223440
 30
0.0
 10
5.314974
 20
81.420596
 30
0.0
 10
5.833769
 20
78.752883
 30
0.0
 10
6.261521
 20
76.215644
 30
0.0
 10
6.603733
 20
73.804231
 30
0.0
 10
6.865935
 20
71.513999
 30
0.0
 10
7.053657
 20
69.340289
 30
0.0
 10
7.172429
 20
67.278444
 30
0.0
 10
7.227780
 20
65.323836
 30
0.0
 10
7.225240
 20
63.471805
 30
0.0
 10
7.170339
 20
61.717698
 30
0.0
 10
7.068606
 20
60.056856
 30
0.0
 10
6.925546
 20
58.484650
 30
0.0
 10
6.746741
 20
56.996395
 30
0.0
 10
6.537667
 20
55.587489
 30
0.0
 10
6.050886
 20
52.988937
 30
0.0
 10
5.509470
 20
50.652138
 30
0.0
 10
4.439575
 20
46.613804
 30
0.0
 10
3.999546
 20
44.837921
 30
0.0
 10
3.681782
 20
43.175016
 30
0.0
 10
3.582590
 20
42.374122
 30
0.0
 10
3.530520
 20
41.587251
 30
0.0
 10
3.531128
 20
40.810171
 30
0.0
 10
3.589971
 20
40.038117
 30
0.0
 10
3.822037
 20
38.678687
 30
0.0
 10
4.168060
 20
37.469012
 30
0.0
 10
4.605707
 20
36.389513
 30
0.0
 10
5.112595
 20
35.420609
 30
0.0
 10
5.666447
 20
34.542722
 30
0.0
 10
6.244905
 20
33.736536
 30
0.0
 10
7.386291
 20
32.261485
 30
0.0
 10
7.904557
 20
31.553196
 30
0.0
 10
8.358080
 20
30.838821
 30
0.0
 10
8.724554
 20
30.098781
 30
0.0
 10
8.981622
 20
29.313499
 30
0.0
 10
9.106956
 20
28.463393
 30
0.0
 10
9.113252
 20
28.008045
 30
0.0
 10
9.078222
 20
27.529149
 30
0.0
 10
8.999111
 20
27.024325
 30
0.0
 10
8.873117
 20
26.491190
 30
0.0
 10
8.469257
 20
25.329933
 30
0.0
 10
8.327864
 20
25.055031
 30
0.0
 10
8.138793
 20
24.794417
 30
0.0
 10
7.903525
 20
24.547031
 30
0.0
 10
7.623464
 20
24.313140
 30
0.0
 10
6.934754
 20
23.883721
 30
0.0
 10
6.084065
 20
23.503779
 30
0.0
 10
5.082935
 20
23.170669
 30
0.0
 10
3.942793
 20
22.882009
 30
0.0
 10
2.675122
 20
22.634888
 30
0.0
 10
1.291392
 20
22.427191
 30
0.0
 10
-0.196936
 20
22.256005
 30
0.0
 10
-1.778386
 20
22.119216
 30
0.0
 10
-5.174773
 20
21.937976
 30
0.0
 10
-8.806046
 20
21.863099
 30
0.0
 10
-12.580405
 20
21.874476
 30
0.0
 10
-16.406146
 20
21.951734
 30
0.0
 10
-20.191486
 20
22.074766
 30
0.0
 10
-27.274035
 20
22.376920
 30
0.0
 10
-33.093809
 20
22.618749
 30
0.0
 10
-35.300962
 20
22.666638
 30
0.0
 10
-36.917037
 20
22.638593
 30
0.0
 10
-38.266676
 20
22.510534
 30
0.0
 10
-39.711301
 20
22.276113
 30
0.0
 10
-41.214133
 20
21.943268
 30
0.0
 10
-42.739192
 20
21.519405
 30
0.0
 10
-44.249962
 20
21.012463
 30
0.0
 10
-45.709932
 20
20.430116
 30
0.0
 10
-47.082855
 20
19.780034
 30
0.0
 10
-48.332481
 20
19.069894
 30
0.0
 10
-49.422300
 20
18.307100
 30
0.0
 10
-49.895904
 20
17.908637
 30
0.0
 10
-50.315798
 20
17.499592
 30
0.0
 10
-50.677483
 20
17.081550
 30
0.0
 10
-50.976727
 20
16.655042
 30
0.0
 10
-51.208767
 20
16.221390
 30
0.0
 10
-51.368839
 20
15.781124
 30
0.0
 10
-51.452448
 20
15.335566
 30
0.0
 10
-51.455358
 20
14.885509
 30
0.0
 10
-51.373073
 20
14.432013
 30
0.0
 10
-51.200565
 20
13.975872
 30
0.0
 10
-50.933600
 20
13.518143
 30
0.0
 10
-50.567417
 20
13.059884
 30
0.0
 10
-50.097781
 20
12.601891
 30
0.0
 10
-49.519931
 20
12.145221
 30
0.0
 10
-49.132581
 20
11.923235
 30
0.0
 10
-48.606325
 20
11.713156
 30
0.0
 10
-47.945926
 20
11.514454
 30
0.0
 10
-47.155616
 20
11.326865
 30
0.0
 10
-45.203520
 20
10.984494
 30
0.0
 10
-42.784965
 20
10.683927
 30
0.0
 10
-39.935403
 20
10.422783
 30
0.0
 10
-36.690290
 20
10.199210
 30
0.0
 10
-33.085078
 20
10.011092
 30
0.0
 10
-29.154694
 20
9.856046
 30
0.0
 10
-20.460117
 20
9.637235
 30
0.0
 10
-10.889559
 20
9.526110
 30
0.0
 10
-0.725551
 20
9.505737
 30
0.0
 10
9.749337
 20
9.559183
 30
0.0
 10
20.252525
 20
9.669779
 30
0.0
 10
30.501422
 20
9.820327
 30
0.0
 10
49.105858
 20
10.174075
 30
0.0
 10
63.301808
 20
10.485490
 30
0.0
 10
70.828673
 20
10.619104
 30
0.0
 10
72.480202
 20
10.649267
 30
0.0
 10
73.998909
 20
10.739754
 30
0.0
 10
75.387707
 20
10.889773
 30
0.0
 10
76.651093
 20
11.099852
 30
0.0
 10
77.792240
 20
11.369198
 30
0.0
 10
78.814854
 20
11.697810
 30
0.0
 10
79.722639
 20
12.085425
 30
0.0
 10
80.519563
 20
12.531777
 30
0.0
 10
81.208803
 20
13.036866
 30
0.0
 10
81.794326
 20
13.600428
 30
0.0
 10
82.279836
 20
14.221934
 30
0.0
 10
82.668509
 20
14.901384
 30
0.0
 10
82.964843
 20
15.638778
 30
0.0
 10
83.171747
 20
16.433321
 30
0.0
 10
83.293191
 20
17.285544
 30
0.0
 10
83.332878
 20
18.194387
 30
0.0
 10
83.298747
 20
19.241873
 30
0.0
 10
83.201909
 20
20.492557
 30
0.0
 10
82.856363
 20
23.454567
 30
0.0
 10
82.367149
 20
26.783289
 30
0.0
 10
81.805968
 20
30.181597
 30
0.0
 10
80.750545
 20
35.998724
 30
0.0
 10
80.259743
 20
38.529727
 30
0.0
 10
80.265829
 20
38.596931
 30
0.0
 10
75.420780
 20
38.692975
 30
0.0
 10
75.469728
 20
39.999752
 30
0.0
 10
75.452266
 20
41.355211
 30
0.0
 10
76.502926
 20
41.401249
 30
0.0
 10
76.371957
 20
44.398449
 30
0.0
 10
75.319445
 20
44.352676
 30
0.0
 10
75.084759
 20
47.054600
 30
0.0
 10
76.127747
 20
47.192183
 30
0.0
 10
75.736428
 20
50.166099
 30
0.0
 10
74.696086
 20
50.029309
 30
0.0
 10
74.220895
 20
52.700277
 30
0.0
 10
75.249066
 20
52.928348
 30
0.0
 10
74.600043
 20
55.856755
 30
0.0
 10
73.571078
 20
55.628870
 30
0.0
 10
72.874167
 20
58.250414
 30
0.0
 10
73.874026
 20
58.565639
 30
0.0
 10
72.971797
 20
61.426948
 30
0.0
 10
71.968762
 20
61.110691
 30
0.0
 10
71.039546
 20
63.658866
 30
0.0
 10
72.012683
 20
64.061932
 30
0.0
 10
70.864921
 20
66.833865
 30
0.0
 10
69.893900
 20
66.431830
 30
0.0
 10
68.746138
 20
68.889545
 30
0.0
 10
69.679323
 20
69.375320
 30
0.0
 10
68.294495
 20
72.036128
 30
0.0
 10
67.360251
 20
71.549850
 30
0.0
 10
66.006379
 20
73.900619
 30
0.0
 10
66.891938
 20
74.464922
 30
0.0
 10
65.280362
 20
76.994999
 30
0.0
 10
64.395067
 20
76.431200
 30
0.0
 10
62.836406
 20
78.650706
 30
0.0
 10
63.671960
 20
79.292011
 30
0.0
 10
61.845807
 20
81.672226
 30
0.0
 10
61.010782
 20
81.031439
 30
0.0
 10
59.269295
 20
83.111424
 30
0.0
 10
60.042936
 20
83.820428
 30
0.0
 10
58.015965
 20
86.032158
 30
0.0
 10
57.240471
 20
85.321091
 30
0.0
 10
55.322243
 20
87.239320
 30
0.0
 10
56.033177
 20
88.015501
 30
0.0
 10
53.821526
 20
90.042262
 30
0.0
 10
53.112443
 20
89.268144
 30
0.0
 10
51.032554
 20
91.009630
 30
0.0
 10
51.673375
 20
91.844735
 30
0.0
 10
49.293183
 20
93.670968
 30
0.0
 10
48.651833
 20
92.835361
 30
0.0
 10
46.432245
 20
94.394445
 30
0.0
 10
46.996072
 20
95.279660
 30
0.0
 10
44.466127
 20
96.891449
 30
0.0
 10
43.901771
 20
96.005703
 30
0.0
 10
41.550948
 20
97.359629
 30
0.0
 10
42.037252
 20
98.293422
 30
0.0
 10
39.376339
 20
99.678886
 30
0.0
 10
38.890564
 20
98.745595
 30
0.0
 10
36.432321
 20
99.893860
 30
0.0
 10
36.834487
 20
100.863823
 30
0.0
 10
34.062977
 20
102.012061
 30
0.0
 10
33.660018
 20
101.039506
 30
0.0
 10
31.111286
 20
101.968140
 30
0.0
 10
31.427464
 20
102.971175
 30
0.0
 10
28.566790
 20
103.872928
 30
0.0
 10
28.251406
 20
102.873517
 30
0.0
 10
25.629942
 20
103.571144
 30
0.0
 10
25.857854
 20
104.598998
 30
0.0
 10
22.928838
 20
105.248047
 30
0.0
 10
22.700926
 20
104.220194
 30
0.0
 10
20.030301
 20
104.695623
 30
0.0
 10
20.167250
 20
105.735356
 30
0.0
 10
17.192752
 20
106.127045
 30
0.0
 10
17.055804
 20
105.084745
 30
0.0
 10
14.353112
 20
105.319351
 30
0.0
 10
14.399124
 20
106.371493
 30
0.0
 10
11.402401
 20
106.502224
 30
0.0
 10
11.356416
 20
105.452173
 30
0.0
 10
9.999897
 20
105.469740
 30
0.0
 10
8.686798
 20
105.420634
 30
0.0
 10
8.597924
 20
109.250450
 30
0.0
 10
7.279664
 20
109.142500
 30
0.0
 10
5.820302
 20
110.797469
 30
0.0
 10
5.462719
 20
110.814667
 30
0.0
 10
5.462719
 20
110.814667
 30
0.0
  0
LWPOLYLINE
  5
102
100
AcDbEntity
  8
Layer_1
 62
1
100
AcDbPolyline
 90
5
 70
1
 10
-47.999987
 20
16.999995
 30
0.0
 10
-41.999988
 20
16.999995
 30
0.0
 10
-41.999988
 20
13.999996
 30
0.0
 10
-47.999987
 20
13.999996
 30
0.0
 10
-47.999987
 20
16.999995
 30
0.0
  0
LWPOLYLINE
  5
103
100
AcDbEntity
  8
Layer_1
 62
1
100
AcDbPolyline
 90
5
 70
1
 10
-23.999993
 20
16.999995
 30
0.0
 10
-17.999995
 20
16.999995
 30
0.0
 10
-17.999995
 20
13.999996
 30
0.0
 10
-23.999993
 20
13.999996
 30
0.0
 10
-23.999993
 20
16.999995
 30
0.0
  0
LWPOLYLINE
  5
104
100
AcDbEntity
  8
Layer_1
 62
1
100
AcDbPolyline
 90
16
 70
1
 10
64.599979
 20
29.999981
 30
0.0
 10
64.249830
 20
28.239682
 30
0.0
 10
63.252732
 20
26.747247
 30
0.0
 10
61.760313
 20
25.750165
 30
0.0
 10
59.999982
 20
25.399989
 30
0.0
 10
58.239657
 20
25.750165
 30
0.0
 10
56.747230
 20
26.747247
 30
0.0
 10
55.750137
 20
28.239682
 30
0.0
 10
55.399983
 20
29.999981
 30
0.0
 10
55.750137
 20
31.760306
 30
0.0
 10
56.747230
 20
33.252746
 30
0.0
 10
58.239657
 20
34.249831
 30
0.0
 10
59.999982
 20
34.599991
 30
0.0
 10
61.760313
 20
34.249831
 30
0.0
 10
63.252732
 20
33.252746
 30
0.0
 10
64.249830
 20
31.760306
 30
0.0
  0
LWPOLYLINE
  5
105
100
AcDbEntity
  8
Layer_1
 62
1
100
AcDbPolyline
 90
18
 70
1
 10
78.499978
 20
21.999994
 30
0.0
 10
78.423878
 20
21.617294
 30
0.0
 10
78.207078
 20
21.292894
 30
0.0
 10
77.882678
 20
21.076094
 30
0.0
 10
77.499978
 20
20.999994
 30
0.0
 10
77.117278
 20
21.076094
 30
0.0
 10
76.792878
 20
21.292894
 30
0.0
 10
76.576078
 20
21.617294
 30
0.0
 10
76.499978
 20
21.999994
 30
0.0
 10
76.576078
 20
22.382694
 30
0.0
 10
76.792878
 20
22.707094
 30
0.0
 10
77.117278
 20
22.923894
 30
0.0
 10
77.499978
 20
22.999994
 30
0.0
 10
77.882678
 20
22.923894
 30
0.0
 10
78.207078
 20
22.707094
 30
0.0
 10
78.423878
 20
22.382694
 30
0.0
 10
78.499978
 20
21.999994
 30
0.0
 10
78.499978
 20
21.999994
 30
0.0
  0
LWPOLYLINE
  5
106
100
AcDbEntity
  8
Layer_1
 62
1
100
AcDbPolyline
 90
18
 70
1
 10
43.499988
 20
21.999994
 30
0.0
 10
43.423888
 20
21.617294
 30
0.0
 10
43.207088
 20
21.292894
 30
0.0
 10
42.882688
 20
21.076094
 30
0.0
 10
42.499988
 20
20.999994
 30
0.0
 10
42.117288
 20
21.076094
 30
0.0
 10
41.792888
 20
21.292894
 30
0.0
 10
41.576088
 20
21.617294
 30
0.0
 10
41.499988
 20
21.999994
 30
0.0
 10
41.576088
 20
22.382694
 30
0.0
 10
41.792888
 20
22.707094
 30
0.0
 10
42.117288
 20
22.923894
 30
0.0
 10
42.499988
 20
22.999994
 30
0.0
 10
42.882688
 20
22.923894
 30
0.0
 10
43.207088
 20
22.707094
 30
0.0
 10
43.423888
 20
22.382694
 30
0.0
 10
43.499988
 20
21.999994
 30
0.0
 10
43.499988
 20
21.999994
 30
0.0
  0
LWPOLYLINE
  5
107
100
AcDbEntity
  8
Layer_1
 62
1
100
AcDbPolyline
 90
5
 70
1
 10
14.999996
 20
34.999990
 30
0.0
 10
20.999994
 20
34.999990
 30
0.0
 10
20.999994
 20
31.999991
 30
0.0
 10
14.999996
 20
31.999991
 30
0.0
 10
14.999996
 20
34.999990
 30
0.0
  0
LWPOLYLINE
  5
108
100
AcDbEntity
  8
Layer_1
 62
1
100
AcDbPolyline
 90
5
 70
1
 10
38.999989
 20
34.999990
 30
0.0
 10
44.999987
 20
34.999990
 30
0.0
 10
44.999987
 20
31.999991
 30
0.0
 10
38.999989
 20
31.999991
 30
0.0
 10
38.999989
 20
34.999990
 30
0.0
  0
LWPOLYLINE
  5
109
100
AcDbEntity
  8
Layer_1
 62
1
100
AcDbPolyline
 90
5
 70
1
 10
9.999997
 20
16.999995
 30
0.0
 10
15.999996
 20
16.999995
 30
0.0
 10
15.999996
 20
13.999996
 30
0.0
 10
9.999997
 20
13.999996
 30
0.0
 10
9.999997
 20
16.999995
 30
0.0
  0
LWPOLYLINE
  5
10a
100
AcDbEntity
  8
Layer_1
 62
1
100
AcDbPolyline
 90
5
 70
1
 10
33.999990
 20
16.999995
 30
0.0
 10
39.999989
 20
16.999995
 30
0.0
 10
39.999989
 20
13.999996
 30
0.0
 10
33.999990
 20
13.999996
 30
0.0
 10
33.999990
 20
16.999995
 30
0.0
  0
LWPOLYLINE
  5
10b
100
AcDbEntity
  8
Layer_1
 62
1
100
AcDbPolyline
 90
66
 70
1
 10
55.898384
 20
64.562182
 30
0.0
 10
55.791184
 20
62.396582
 30
0.0
 10
55.473484
 20
60.267683
 30
0.0
 10
54.951385
 20
58.189884
 30
0.0
 10
54.230585
 20
56.177384
 30
0.0
 10
53.317185
 20
54.244785
 30
0.0
 10
52.217185
 20
52.406285
 30
0.0
 10
50.936486
 20
50.676286
 30
0.0
 10
49.480986
 20
49.069186
 30
0.0
 10
47.873886
 20
47.613687
 30
0.0
 10
46.143887
 20
46.332987
 30
0.0
 10
44.305387
 20
45.232987
 30
0.0
 10
42.372788
 20
44.319588
 30
0.0
 10
40.360289
 20
43.598888
 30
0.0
 10
38.282489
 20
43.076688
 30
0.0
 10
36.153590
 20
42.758988
 30
0.0
 10
33.987991
 20
42.651788
 30
0.0
 10
31.822491
 20
42.758988
 30
0.0
 10
29.693592
 20
43.076688
 30
0.0
 10
27.615692
 20
43.598888
 30
0.0
 10
25.603293
 20
44.319588
 30
0.0
 10
23.670593
 20
45.232987
 30
0.0
 10
21.832094
 20
46.332987
 30
0.0
 10
20.102094
 20
47.613687
 30
0.0
 10
18.494995
 20
49.069186
 30
0.0
 10
17.039495
 20
50.676286
 30
0.0
 10
15.758796
 20
52.406285
 30
0.0
 10
14.658796
 20
54.244785
 30
0.0
 10
13.745496
 20
56.177384
 30
0.0
 10
13.024696
 20
58.189884
 30
0.0
 10
12.502496
 20
60.267683
 30
0.0
 10
12.184796
 20
62.396582
 30
0.0
 10
12.077597
 20
64.562182
 30
0.0
 10
12.184796
 20
66.727781
 30
0.0
 10
12.502496
 20
68.856681
 30
0.0
 10
13.024696
 20
70.934500
 30
0.0
 10
13.745496
 20
72.946930
 30
0.0
 10
14.658796
 20
74.879579
 30
0.0
 10
15.758796
 20
76.718078
 30
0.0
 10
17.039495
 20
78.448068
 30
0.0
 10
18.494995
 20
80.055173
 30
0.0
 10
20.102094
 20
81.510657
 30
0.0
 10
21.832094
 20
82.791377
 30
0.0
 10
23.670593
 20
83.891397
 30
0.0
 10
25.603293
 20
84.804746
 30
0.0
 10
27.615692
 20
85.525496
 30
0.0
 10
29.693592
 20
86.047686
 30
0.0
 10
31.822491
 20
86.365366
 30
0.0
 10
33.987991
 20
86.472576
 30
0.0
 10
36.153590
 20
86.365366
 30
0.0
 10
38.282489
 20
86.047686
 30
0.0
 10
40.360289
 20
85.525496
 30
0.0
 10
42.372788
 20
84.804746
 30
0.0
 10
44.305387
 20
83.891397
 30
0.0
 10
46.143887
 20
82.791377
 30
0.0
 10
47.873886
 20
81.510657
 30
0.0
 10
49.480986
 20
80.055173
 30
0.0
 10
50.936486
 20
78.448068
 30
0.0
 10
52.217185
 20
76.718078
 30
0.0
 10
53.317185
 20
74.879579
 30
0.0
 10
54.230585
 20
72.946930
 30
0.0
 10
54.951385
 20
70.934500
 30
0.0
 10
55.473484
 20
68.856681
 30
0.0
 10
55.791184
 20
66.727781
 30
0.0
 10
55.898384
 20
64.562182
 30
0.0
 10
55.898384
 20
64.562182
 30
0.0
  0
LWPOLYLINE
  5
10c
100
AcDbEntity
  8
Layer_1
 62
1
100
AcDbPolyline
 90
5
 70
1
 10
73.999979
 20
16.999995
 30
0.0
 10
79.999978
 20
16.999995
 30
0.0
 10
79.999978
 20
13.999996
 30
0.0
 10
73.999979
 20
13.999996
 30
0.0
 10
73.999979
 20
16.999995
 30
0.0
  0
ENDSEC
  0
SECTION
  2
OBJECTS
  0
DICTIONARY
  5
C
330
0
100
AcDbDictionary
  3
ACAD_GROUP
350
D
  3
ACAD_MLINESTYLE
350
17
  0
DICTIONARY
  5
D
330
C
100
AcDbDictionary
  0
DICTIONARY
  5
1A
330
C
100
AcDbDictionary
  0
DICTIONARY
  5
17
330
C
100
AcDbDictionary
  3
STANDARD
350
18
  0
DICTIONARY
  5
19
330
C
100
AcDbDictionary
  0
ENDSEC
  0
EOF
