  0
SECTION
  2
HEADER
  9
$ACADVER
  1
AC1014
  9
$HANDSEED
  5
FFFF
  9
$MEASUREMENT
 70
     1
  0
ENDSEC
  0
SECTION
  2
TABLES
  0
TABLE
  2
VPORT
  5
8
330
0
100
AcDbSymbolTable
 70
     4
  0
VPORT
  5
2E
330
8
100
AcDbSymbolTableRecord
100
AcDbViewportTableRecord
  2
*ACTIVE
 70
     0
 10
0.0
 20
0.0
 11
1.0
 21
1.0
 12
210.0
 22
148.5
 13
0.0
 23
0.0
 14
10.0
 24
10.0
 15
10.0
 25
10.0
 16
0.0
 26
0.0
 36
1.0
 17
0.0
 27
0.0
 37
0.0
 40
341.0
 41
1.24
 42
50.0
 43
0.0
 44
0.0
 50
0.0
 51
0.0
 71
     0
 72
   100
 73
     1
 74
     3
 75
     0
 76
     0
 77
     0
 78
     0
  0
ENDTAB
  0
TABLE
  2
LTYPE
  5
5
330
0
100
AcDbSymbolTable
 70
     1
  0
LTYPE
  5
14
330
5
100
AcDbSymbolTableRecord
100
AcDbLinetypeTableRecord
  2
BYBLOCK
 70
     0
  3

 72
    65
 73
     0
 40
0.0
  0
LTYPE
  5
15
330
5
100
AcDbSymbolTableRecord
100
AcDbLinetypeTableRecord
  2
BYLAYER
 70
     0
  3

 72
    65
 73
     0
 40
0.0
  0
LTYPE
  5
16
330
5
100
AcDbSymbolTableRecord
100
AcDbLinetypeTableRecord
  2
CONTINUOUS
 70
     0
  3
Solid line
 72
    65
 73
     0
 40
0.0
  0
ENDTAB
  0
TABLE
  2
LAYER
  5
2
100
AcDbSymbolTable
 70
2
  0
LAYER
  5
50
100
AcDbSymbolTableRecord
100
AcDbLayerTableRecord
  2
0
 70
0
  6
CONTINUOUS
  0
LAYER
  5
51
100
AcDbSymbolTableRecord
100
AcDbLayerTableRecord
  2
Layer_1
 70
0
  6
CONTINUOUS
  0
ENDTAB
  0
TABLE
  2
STYLE
  5
3
330
0
100
AcDbSymbolTable
 70
     1
  0
STYLE
  5
11
330
3
100
AcDbSymbolTableRecord
100
AcDbTextStyleTableRecord
  2
STANDARD
 70
     0
 40
0.0
 41
1.0
 50
0.0
 71
     0
 42
2.5
  3
txt
  4

  0
ENDTAB
  0
TABLE
  2
VIEW
  5
6
330
0
100
AcDbSymbolTable
 70
     0
  0
ENDTAB
  0
TABLE
  2
UCS
  5
7
330
0
100
AcDbSymbolTable
 70
     0
  0
ENDTAB
  0
TABLE
  2
APPID
  5
9
330
0
100
AcDbSymbolTable
 70
     2
  0
APPID
  5
12
330
9
100
AcDbSymbolTableRecord
100
AcDbRegAppTableRecord
  2
ACAD
 70
     0
  0
ENDTAB
  0
TABLE
  2
DIMSTYLE
  5
A
330
0
100
AcDbSymbolTable
 70
     1
  0
DIMSTYLE
105
27
330
A
100
AcDbSymbolTableRecord
100
AcDbDimStyleTableRecord
  2
ISO-25
 70
     0
  3

  4

  5

  6

  7

 40
1.0
 41
2.5
 42
0.625
 43
3.75
 44
1.25
 45
0.0
 46
0.0
 47
0.0
 48
0.0
140
2.5
141
2.5
142
0.0
143
0.03937007874016
144
1.0
145
0.0
146
1.0
147
0.625
 71
     0
 72
     0
 73
     0
 74
     0
 75
     0
 76
     0
 77
     1
 78
     8
170
     0
171
     3
172
     1
173
     0
174
     0
175
     0
176
     0
177
     0
178
     0
270
     2
271
     2
272
     2
273
     2
274
     3
340
11
275
     0
280
     0
281
     0
282
     0
283
     0
284
     8
285
     0
286
     0
287
     3
288
     0
  0
ENDTAB
  0
TABLE
  2
BLOCK_RECORD
  5
1
330
0
100
AcDbSymbolTable
 70
     1
  0
BLOCK_RECORD
  5
1F
330
1
100
AcDbSymbolTableRecord
100
AcDbBlockTableRecord
  2
*MODEL_SPACE
  0
BLOCK_RECORD
  5
1B
330
1
100
AcDbSymbolTableRecord
100
AcDbBlockTableRecord
  2
*PAPER_SPACE
  0
ENDTAB
  0
ENDSEC
  0
SECTION
  2
BLOCKS
  0
BLOCK
  5
20
330
1F
100
AcDbEntity
  8
0
100
AcDbBlockBegin
  2
*MODEL_SPACE
 70
     0
 10
0.0
 20
0.0
 30
0.0
  3
*MODEL_SPACE
  1

  0
ENDBLK
  5
21
330
1F
100
AcDbEntity
  8
0
100
AcDbBlockEnd
  0
BLOCK
  5
1C
330
1B
100
AcDbEntity
 67
     1
  8
0
100
AcDbBlockBegin
  2
*PAPER_SPACE
  1

  0
ENDBLK
  5
1D
330
1B
100
AcDbEntity
 67
     1
  8
0
100
AcDbBlockEnd
  0
ENDSEC
  0
SECTION
  2
ENTITIES
  0
LWPOLYLINE
  5
100
100
AcDbEntity
  8
Layer_1
 62
1
100
AcDbPolyline
 90
17
 70
1
 10
43.500000
 20
22.000000
 30
0.0
 10
43.423900
 20
21.617300
 30
0.0
 10
43.207100
 20
21.292900
 30
0.0
 10
42.882700
 20
21.076100
 30
0.0
 10
42.500000
 20
21.000000
 30
0.0
 10
42.117300
 20
21.076100
 30
0.0
 10
41.792900
 20
21.292900
 30
0.0
 10
41.576100
 20
21.617300
 30
0.0
 10
41.500000
 20
22.000000
 30
0.0
 10
41.576100
 20
22.382700
 30
0.0
 10
41.792900
 20
22.707100
 30
0.0
 10
42.117300
 20
22.923900
 30
0.0
 10
42.500000
 20
23.000000
 30
0.0
 10
42.882700
 20
22.923900
 30
0.0
 10
43.207100
 20
22.707100
 30
0.0
 10
43.423900
 20
22.382700
 30
0.0
 10
43.500000
 20
22.000000
 30
0.0
  0
LWPOLYLINE
  5
101
100
AcDbEntity
  8
Layer_1
 62
1
100
AcDbPolyline
 90
17
 70
1
 10
78.500000
 20
22.000000
 30
0.0
 10
78.423900
 20
21.617300
 30
0.0
 10
78.207100
 20
21.292900
 30
0.0
 10
77.882700
 20
21.076100
 30
0.0
 10
77.500000
 20
21.000000
 30
0.0
 10
77.117300
 20
21.076100
 30
0.0
 10
76.792900
 20
21.292900
 30
0.0
 10
76.576100
 20
21.617300
 30
0.0
 10
76.500000
 20
22.000000
 30
0.0
 10
76.576100
 20
22.382700
 30
0.0
 10
76.792900
 20
22.707100
 30
0.0
 10
77.117300
 20
22.923900
 30
0.0
 10
77.500000
 20
23.000000
 30
0.0
 10
77.882700
 20
22.923900
 30
0.0
 10
78.207100
 20
22.707100
 30
0.0
 10
78.423900
 20
22.382700
 30
0.0
 10
78.500000
 20
22.000000
 30
0.0
  0
LWPOLYLINE
  5
102
100
AcDbEntity
  8
Layer_1
 62
1
100
AcDbPolyline
 90
17
 70
1
 10
62.500000
 20
30.000000
 30
0.0
 10
62.309700
 20
29.043300
 30
0.0
 10
61.767800
 20
28.232200
 30
0.0
 10
60.956700
 20
27.690300
 30
0.0
 10
60.000000
 20
27.500000
 30
0.0
 10
59.043300
 20
27.690300
 30
0.0
 10
58.232200
 20
28.232200
 30
0.0
 10
57.690300
 20
29.043300
 30
0.0
 10
57.500000
 20
30.000000
 30
0.0
 10
57.690300
 20
30.956700
 30
0.0
 10
58.232200
 20
31.767800
 30
0.0
 10
59.043300
 20
32.309700
 30
0.0
 10
60.000000
 20
32.500000
 30
0.0
 10
60.956700
 20
32.309700
 30
0.0
 10
61.767800
 20
31.767800
 30
0.0
 10
62.309700
 20
30.956700
 30
0.0
 10
62.500000
 20
30.000000
 30
0.0
  0
LWPOLYLINE
  5
103
100
AcDbEntity
  8
Layer_1
 62
1
100
AcDbPolyline
 90
4
 70
1
 10
-21.000000
 20
17.000000
 30
0.0
 10
-15.000000
 20
17.000000
 30
0.0
 10
-15.000000
 20
14.000000
 30
0.0
 10
-21.000000
 20
14.000000
 30
0.0
  0
LWPOLYLINE
  5
104
100
AcDbEntity
  8
Layer_1
 62
1
100
AcDbPolyline
 90
4
 70
1
 10
-45.000000
 20
17.000000
 30
0.0
 10
-39.000000
 20
17.000000
 30
0.0
 10
-39.000000
 20
14.000000
 30
0.0
 10
-45.000000
 20
14.000000
 30
0.0
  0
LWPOLYLINE
  5
105
100
AcDbEntity
  8
Layer_1
 62
1
100
AcDbPolyline
 90
185
 70
1
 10
8.500269
 20
96.499760
 30
0.0
 10
8.500269
 20
95.413011
 30
0.0
 10
6.407917
 20
95.319591
 30
0.0
 10
4.320170
 20
95.159333
 30
0.0
 10
2.238611
 20
94.932374
 30
0.0
 10
0.164848
 20
94.638898
 30
0.0
 10
0.050126
 20
94.705048
 30
0.0
 10
-0.738989
 20
94.532381
 30
0.0
 10
-1.547831
 20
94.270999
 30
0.0
 10
-2.475042
 20
93.852481
 30
0.0
 10
-2.946056
 20
93.574801
 30
0.0
 10
-3.402251
 20
93.246453
 30
0.0
 10
-3.828865
 20
92.863654
 30
0.0
 10
-4.211108
 20
92.422593
 30
0.0
 10
-4.534138
 20
91.919488
 30
0.0
 10
-4.783217
 20
91.350528
 30
0.0
 10
-4.943501
 20
90.711930
 30
0.0
 10
-5.000201
 20
89.999910
 30
0.0
 10
-5.072221
 20
85.858413
 30
0.0
 10
-5.283412
 20
81.919611
 30
0.0
 10
-5.626418
 20
78.177831
 30
0.0
 10
-6.093963
 20
74.627433
 30
0.0
 10
-6.678666
 20
71.262779
 30
0.0
 10
-7.373250
 20
68.078228
 30
0.0
 10
-8.170360
 20
65.068143
 30
0.0
 10
-9.062694
 20
62.226835
 30
0.0
 10
-10.042922
 20
59.548723
 30
0.0
 10
-11.103716
 20
57.028091
 30
0.0
 10
-12.237746
 20
54.659355
 30
0.0
 10
-13.437685
 20
52.436776
 30
0.0
 10
-14.696228
 20
50.354770
 30
0.0
 10
-16.006048
 20
48.407966
 30
0.0
 10
-17.359789
 20
46.590278
 30
0.0
 10
-18.750174
 20
44.896151
 30
0.0
 10
-20.169849
 20
43.320028
 30
0.0
 10
-21.611510
 20
41.856353
 30
0.0
 10
-23.067803
 20
40.499305
 30
0.0
 10
-24.531426
 20
39.243328
 30
0.0
 10
-25.995048
 20
38.082866
 30
0.0
 10
-27.451314
 20
37.012097
 30
0.0
 10
-28.893029
 20
36.025466
 30
0.0
 10
-30.312783
 20
35.117151
 30
0.0
 10
-31.702904
 20
34.281862
 30
0.0
 10
-33.056777
 20
33.513776
 30
0.0
 10
-35.625087
 20
32.156464
 30
0.0
 10
-40.000237
 20
29.999845
 30
0.0
 10
-41.792524
 20
29.028560
 30
0.0
 10
-43.418124
 20
27.994039
 30
0.0
 10
-44.873597
 20
26.903956
 30
0.0
 10
-46.156297
 20
25.765718
 30
0.0
 10
-47.263314
 20
24.586206
 30
0.0
 10
-47.749883
 20
23.983485
 30
0.0
 10
-48.191472
 20
23.373091
 30
0.0
 10
-48.587818
 20
22.756083
 30
0.0
 10
-48.938126
 20
22.133518
 30
0.0
 10
-49.242397
 20
21.506191
 30
0.0
 10
-49.500101
 20
20.874895
 30
0.0
 10
-49.710974
 20
20.240954
 30
0.0
 10
-49.874751
 20
19.604895
 30
0.0
 10
-49.990639
 20
18.967514
 30
0.0
 10
-50.058899
 20
18.330133
 30
0.0
 10
-50.078479
 20
17.693545
 30
0.0
 10
-50.049639
 20
17.058281
 30
0.0
 10
-49.971589
 20
16.425926
 30
0.0
 10
-49.844060
 20
15.797012
 30
0.0
 10
-49.666789
 20
15.172331
 30
0.0
 10
-49.439247
 20
14.552941
 30
0.0
 10
-49.161170
 20
13.939901
 30
0.0
 10
-48.832293
 20
13.334006
 30
0.0
 10
-48.452087
 20
12.736312
 30
0.0
 10
-48.020287
 20
12.147349
 30
0.0
 10
-47.536364
 20
11.568177
 30
0.0
 10
-47.000318
 20
11.000116
 30
0.0
 10
-46.657418
 20
10.726802
 30
0.0
 10
-46.193604
 20
10.469362
 30
0.0
 10
-45.612843
 20
10.227268
 30
0.0
 10
-44.918312
 20
9.999991
 30
0.0
 10
-43.204077
 20
9.589358
 30
0.0
 10
-41.080266
 20
9.234552
 30
0.0
 10
-38.576250
 20
8.932133
 30
0.0
 10
-35.721660
 20
8.679720
 30
0.0
 10
-32.545866
 20
8.474139
 30
0.0
 10
-29.078237
 20
8.312479
 30
0.0
 10
-25.348565
 20
8.192093
 30
0.0
 10
-21.386138
 20
8.109543
 30
0.0
 10
-12.880975
 20
8.047103
 30
0.0
 10
-3.798649
 20
8.101603
 30
0.0
 10
5.624962
 20
8.250034
 30
0.0
 10
15.154063
 20
8.468844
 30
0.0
 10
24.552777
 20
8.734486
 30
0.0
 10
42.015833
 20
9.312601
 30
0.0
 10
56.127120
 20
9.797053
 30
0.0
 10
61.336237
 20
9.945484
 30
0.0
 10
65.000187
 20
10.000254
 30
0.0
 10
66.368876
 20
10.019834
 30
0.0
 10
67.663747
 20
10.078304
 30
0.0
 10
68.887180
 20
10.173554
 30
0.0
 10
70.040499
 20
10.304258
 30
0.0
 10
71.126085
 20
10.468564
 30
0.0
 10
72.146053
 20
10.665150
 30
0.0
 10
73.101993
 20
10.892162
 30
0.0
 10
73.996284
 20
11.148279
 30
0.0
 10
74.830516
 20
11.431912
 30
0.0
 10
75.607068
 20
11.741210
 30
0.0
 10
76.327793
 20
12.074850
 30
0.0
 10
76.994543
 20
12.430979
 30
0.0
 10
77.609434
 20
12.808010
 30
0.0
 10
78.174320
 20
13.204620
 30
0.0
 10
78.691580
 20
13.618958
 30
0.0
 10
79.162539
 20
14.049700
 30
0.0
 10
79.589841
 20
14.494993
 30
0.0
 10
79.975074
 20
14.953252
 30
0.0
 10
80.627536
 20
15.902577
 30
0.0
 10
81.136066
 20
16.885239
 30
0.0
 10
81.516536
 20
17.888275
 30
0.0
 10
81.784824
 20
18.898983
 30
0.0
 10
81.956539
 20
19.904400
 30
0.0
 10
82.048079
 20
20.892089
 30
0.0
 10
82.075069
 20
21.849087
 30
0.0
 10
82.043049
 20
22.381164
 30
0.0
 10
81.950179
 20
23.034156
 30
0.0
 10
81.596695
 20
24.666106
 30
0.0
 10
81.047949
 20
26.672970
 30
0.0
 10
80.335956
 20
28.982254
 30
0.0
 10
79.493522
 20
31.521724
 30
0.0
 10
78.553193
 20
34.219416
 30
0.0
 10
76.509552
 20
39.800008
 30
0.0
 10
74.465910
 20
45.146443
 30
0.0
 10
72.683147
 20
49.680343
 30
0.0
 10
70.944041
 20
54.001068
 30
0.0
 10
70.735814
 20
54.120977
 30
0.0
 10
69.953441
 20
56.300668
 30
0.0
 10
70.904089
 20
56.744056
 30
0.0
 10
69.636470
 20
59.463285
 30
0.0
 10
68.683706
 20
59.018864
 30
0.0
 10
67.429581
 20
61.423874
 30
0.0
 10
68.341600
 20
61.950474
 30
0.0
 10
66.841412
 20
64.548762
 30
0.0
 10
65.930716
 20
64.022691
 30
0.0
 10
64.473656
 20
66.310913
 30
0.0
 10
65.334610
 20
66.913475
 30
0.0
 10
63.614289
 20
69.371190
 30
0.0
 10
62.751218
 20
68.767093
 30
0.0
 10
61.101277
 20
70.919928
 30
0.0
 10
61.906933
 20
71.595859
 30
0.0
 10
59.978120
 20
73.893924
 30
0.0
 10
59.175639
 20
73.220586
 30
0.0
 10
57.339166
 20
75.216841
 30
0.0
 10
58.083704
 20
75.961484
 30
0.0
 10
55.962539
 20
78.082810
 30
0.0
 10
55.217737
 20
77.338164
 30
0.0
 10
53.221456
 20
79.174733
 30
0.0
 10
53.894821
 20
79.977784
 30
0.0
 10
51.596914
 20
81.905833
 30
0.0
 10
50.920904
 20
81.100195
 30
0.0
 10
48.767989
 20
82.750746
 30
0.0
 10
49.372298
 20
83.613234
 30
0.0
 10
46.914319
 20
85.334058
 30
0.0
 10
46.311862
 20
84.473130
 30
0.0
 10
44.023746
 20
85.929873
 30
0.0
 10
44.549737
 20
86.840410
 30
0.0
 10
41.951529
 20
88.340571
 30
0.0
 10
41.424744
 20
87.428499
 30
0.0
 10
39.019946
 20
88.683207
 30
0.0
 10
39.463652
 20
89.635601
 30
0.0
 10
36.745058
 20
90.903219
 30
0.0
 10
36.302146
 20
89.952889
 30
0.0
 10
33.793896
 20
90.986934
 30
0.0
 10
34.153994
 20
91.976528
 30
0.0
 10
31.335123
 20
93.002318
 30
0.0
 10
30.975290
 20
92.013755
 30
0.0
 10
28.389517
 20
92.832826
 30
0.0
 10
28.660715
 20
93.845677
 30
0.0
 10
25.762760
 20
94.622361
 30
0.0
 10
25.490424
 20
93.605885
 30
0.0
 10
22.841998
 20
94.192943
 30
0.0
 10
23.024931
 20
95.229051
 30
0.0
 10
20.070593
 20
95.749936
 30
0.0
 10
19.888190
 20
94.716421
 30
0.0
 10
17.198938
 20
95.068343
 30
0.0
 10
17.290408
 20
96.116331
 30
0.0
 10
14.301436
 20
96.377819
 30
0.0
 10
14.209466
 20
95.328773
 30
0.0
 10
11.500054
 20
95.450216
 30
0.0
 10
11.500054
 20
96.499760
 30
0.0
  0
LWPOLYLINE
  5
106
100
AcDbEntity
  8
Layer_1
 62
1
100
AcDbPolyline
 90
17
 70
1
 10
12.920000
 20
30.000000
 30
0.0
 10
12.690500
 20
28.863400
 30
0.0
 10
12.064800
 20
27.935200
 30
0.0
 10
11.136600
 20
27.309500
 30
0.0
 10
10.000000
 20
27.080000
 30
0.0
 10
8.863400
 20
27.309500
 30
0.0
 10
7.935250
 20
27.935200
 30
0.0
 10
7.309470
 20
28.863400
 30
0.0
 10
7.080000
 20
30.000000
 30
0.0
 10
7.309470
 20
31.136600
 30
0.0
 10
7.935250
 20
32.064800
 30
0.0
 10
8.863400
 20
32.690500
 30
0.0
 10
10.000000
 20
32.920000
 30
0.0
 10
11.136600
 20
32.690500
 30
0.0
 10
12.064800
 20
32.064800
 30
0.0
 10
12.690500
 20
31.136600
 30
0.0
 10
12.920000
 20
30.000000
 30
0.0
  0
ENDSEC
  0
SECTION
  2
OBJECTS
  0
DICTIONARY
  5
C
330
0
100
AcDbDictionary
  3
ACAD_GROUP
350
D
  3
ACAD_MLINESTYLE
350
17
  0
DICTIONARY
  5
D
330
C
100
AcDbDictionary
  0
DICTIONARY
  5
1A
330
C
100
AcDbDictionary
  0
DICTIONARY
  5
17
330
C
100
AcDbDictionary
  3
STANDARD
350
18
  0
DICTIONARY
  5
19
330
C
100
AcDbDictionary
  0
ENDSEC
  0
EOF
