<?xml version="1.0" encoding="UTF-8" standalone="no"?>
<!-- Created with Inkscape (http://www.inkscape.org/) -->

<svg
   sodipodi:docname="bot_side.svg"
   inkscape:version="1.1.2 (0a00cf5339, 2022-02-04)"
   id="svg5"
   version="1.1"
   viewBox="0 0 210 80"
   height="80mm"
   width="210mm"
   xmlns:inkscape="http://www.inkscape.org/namespaces/inkscape"
   xmlns:sodipodi="http://sodipodi.sourceforge.net/DTD/sodipodi-0.dtd"
   xmlns="http://www.w3.org/2000/svg"
   xmlns:svg="http://www.w3.org/2000/svg">
  <sodipodi:namedview
     id="namedview7"
     pagecolor="#ffffff"
     bordercolor="#666666"
     borderopacity="1.0"
     inkscape:pageshadow="2"
     inkscape:pageopacity="0.0"
     inkscape:pagecheckerboard="0"
     inkscape:document-units="mm"
     showgrid="false"
     inkscape:zoom="1.6024204"
     inkscape:cx="-103.59329"
     inkscape:cy="123.25106"
     inkscape:window-width="2560"
     inkscape:window-height="1409"
     inkscape:window-x="2560"
     inkscape:window-y="0"
     inkscape:window-maximized="1"
     inkscape:current-layer="layer1"
     inkscape:snap-bbox="true"
     inkscape:snap-object-midpoints="true"
     inkscape:snap-bbox-midpoints="true"
     showguides="true"
     inkscape:guide-bbox="true"
     inkscape:snap-global="false"
     inkscape:snap-smooth-nodes="true"
     inkscape:snap-midpoints="true"
     inkscape:snap-intersection-paths="true"
     inkscape:object-paths="true">
    <sodipodi:guide
       position="92,217"
       orientation="0,1"
       id="guide2610"
       inkscape:label=""
       inkscape:locked="false"
       inkscape:color="rgb(0,0,255)" />
    <inkscape:grid
       type="xygrid"
       id="grid1645"
       units="mm"
       spacingx="1"
       spacingy="1" />
  </sodipodi:namedview>
  <defs
     id="defs2" />
  <g
     inkscape:label="Layer 1"
     inkscape:groupmode="layer"
     id="layer1">
    <circle
       style="fill:none;stroke:#000080;stroke-width:0.2"
       id="circle2192"
       cx="8"
       cy="35"
       r="65.469582" />
    <rect
       style="fill:none;stroke:#000080;stroke-width:0.200172"
       id="rect2874"
       width="3.00721"
       height="5.6321173"
       x="4.3973503"
       y="-33.654335"
       inkscape:transform-center-y="-121.998"
       transform="matrix(0.99665293,-0.08174925,0.02323428,0.99973005,0,0)"
       inkscape:transform-center-x="2.8353005" />
    <rect
       style="fill:none;stroke:#000080;stroke-width:0.2"
       id="rect2960"
       width="3"
       height="3"
       x="8.0190973"
       y="-31.882269"
       inkscape:transform-center-y="-64.939056"
       transform="rotate(2.5)"
       inkscape:transform-center-x="-2.8352967" />
    <rect
       style="fill:none;stroke:#000080;stroke-width:0.2"
       id="rect2962"
       width="3"
       height="3"
       x="11.000098"
       y="-32.843647"
       inkscape:transform-center-y="-64.444831"
       transform="rotate(7.5)"
       inkscape:transform-center-x="-8.484326" />
    <rect
       style="fill:none;stroke:#000080;stroke-width:0.2"
       id="rect2964"
       width="3"
       height="3"
       x="13.88595"
       y="-34.06118"
       inkscape:transform-center-y="-63.460143"
       transform="rotate(12.5)"
       inkscape:transform-center-x="-14.068773" />
    <rect
       style="fill:none;stroke:#000080;stroke-width:0.2"
       id="rect2966"
       width="3"
       height="3"
       x="16.654713"
       y="-35.525597"
       inkscape:transform-center-y="-61.992483"
       transform="rotate(17.5)"
       inkscape:transform-center-x="-19.54615" />
    <rect
       style="fill:none;stroke:#000080;stroke-width:0.2"
       id="rect2968"
       width="3"
       height="3"
       x="19.285309"
       y="-37.225754"
       inkscape:transform-center-y="-60.053021"
       transform="rotate(22.5)"
       inkscape:transform-center-x="-24.874777" />
    <rect
       style="fill:none;stroke:#000080;stroke-width:0.2"
       id="rect2970"
       width="3"
       height="3"
       x="21.757717"
       y="-39.148712"
       inkscape:transform-center-y="-57.656519"
       transform="rotate(27.5)"
       inkscape:transform-center-x="-30.014088" />
    <rect
       style="fill:none;stroke:#000080;stroke-width:0.2"
       id="rect2972"
       width="3"
       height="3"
       x="24.053112"
       y="-41.279835"
       inkscape:transform-center-y="-54.82122"
       transform="rotate(32.5)"
       inkscape:transform-center-x="-34.924969" />
    <rect
       style="fill:none;stroke:#000080;stroke-width:0.2"
       id="rect2974"
       width="3"
       height="3"
       x="26.154041"
       y="-43.602913"
       inkscape:transform-center-y="-51.568699"
       transform="rotate(37.5)"
       inkscape:transform-center-x="-39.570057" />
    <g
       id="g1478"
       style="stroke:#ff0000"
       transform="translate(-243,-7)">
      <rect
         style="fill:none;stroke:#ff0000;stroke-width:0.2"
         id="rect1348"
         width="6"
         height="3"
         x="195"
         y="70" />
      <rect
         style="fill:none;stroke:#ff0000;stroke-width:0.2"
         id="rect1474"
         width="6"
         height="3"
         x="219"
         y="70" />
    </g>
    <rect
       style="fill:none;stroke:#000080;stroke-width:0.2"
       id="rect1629"
       width="3"
       height="3"
       x="28.044504"
       y="-46.10025"
       inkscape:transform-center-y="-47.923704"
       transform="rotate(42.5)"
       inkscape:transform-center-x="-43.913989" />
    <rect
       style="fill:none;stroke:#000080;stroke-width:0.2"
       id="rect1631"
       width="3"
       height="3"
       x="29.710114"
       y="-48.752857"
       inkscape:transform-center-y="-43.913986"
       transform="rotate(47.5)"
       inkscape:transform-center-x="-47.923709" />
    <rect
       style="fill:none;stroke:#000080;stroke-width:0.2"
       id="rect1633"
       width="3"
       height="3"
       x="31.138193"
       y="-51.540535"
       inkscape:transform-center-y="-39.570054"
       transform="rotate(52.5)"
       inkscape:transform-center-x="-51.568699" />
    <rect
       style="fill:none;stroke:#000080;stroke-width:0.2"
       id="rect1635"
       width="3"
       height="3"
       x="32.317879"
       y="-54.44207"
       inkscape:transform-center-y="-34.924969"
       transform="rotate(57.5)"
       inkscape:transform-center-x="-54.821223" />
    <rect
       style="fill:none;stroke:#000080;stroke-width:0.2"
       id="rect1637"
       width="3"
       height="3"
       x="33.240189"
       y="-57.435379"
       inkscape:transform-center-y="-30.014086"
       transform="rotate(62.5)"
       inkscape:transform-center-x="-57.656524" />
    <path
       id="circle1643"
       style="fill:none;stroke:#ff0000;stroke-width:0.2"
       d="m 42.677012,44.005356 a 1,1 0 0 1 -1.414214,0 1,1 0 0 1 0,-1.414213 1,1 0 0 1 1.414214,0 1,1 0 0 1 0,1.414213 z m 24.748737,24.748738 a 1,1 0 0 1 -1.414214,0 1,1 0 0 1 0,-1.414214 1,1 0 0 1 1.414214,0 1,1 0 0 1 0,1.414214 z m -4.17193,-15.485639 a 4.5999999,4.5999999 0 0 1 -6.505382,0 4.5999999,4.5999999 0 0 1 0,-6.505382 4.5999999,4.5999999 0 0 1 6.505382,0 4.5999999,4.5999999 0 0 1 0,6.505382 z"
       inkscape:transform-center-x="5.6372615"
       inkscape:transform-center-y="5.6633751" />
    <path
       style="fill:none;stroke:#000000;stroke-width:0.264583px;stroke-linecap:butt;stroke-linejoin:miter;stroke-opacity:1"
       d="m 78,39 c 0,0 5.332716,17.805734 5.332715,22.805733 C 83.332714,66.805734 76.16995,72.000001 67,72 57.830049,71.999999 -42.76368,72.715826 -49.520187,67.854588 -56.276695,62.99335 -50,49 -38,49 -26,49 2.5020178,61.012853 5,55 7.7235759,48.444124 -5,45 -5,35 -5,25 12.552288,23.462178 3.1567821,-10.253105 1.9519339,-14.57664 -3.8138499,-34.636832 4,-34 l 3.4054154,4.999583 1.1540023,4.391055 L 68,37 Z"
       id="path1680"
       sodipodi:nodetypes="cszzzsssccccc" />
    <path
       id="rect4148"
       style="fill:none;stroke:#ffaaaa;stroke-width:0.2"
       d="M 3.0931375,-31.695335 H 83.660856 V 43.953987 L 22.816924,42.974519 Z"
       sodipodi:nodetypes="ccccc" />
    <rect
       style="fill:none;stroke:#000080;stroke-width:0.2"
       id="rect848"
       width="3"
       height="3"
       x="33.898106"
       y="-60.497684"
       inkscape:transform-center-y="-24.874775"
       transform="rotate(67.5)"
       inkscape:transform-center-x="-60.053022" />
    <rect
       style="fill:none;stroke:#000080;stroke-width:0.2"
       id="rect962"
       width="3"
       height="3"
       x="34.286625"
       y="-63.605679"
       inkscape:transform-center-y="-19.546152"
       transform="rotate(72.5)"
       inkscape:transform-center-x="-61.992481" />
    <rect
       style="fill:none;stroke:#000080;stroke-width:0.2"
       id="rect964"
       width="3"
       height="3"
       x="34.402786"
       y="-66.735703"
       inkscape:transform-center-y="-14.068771"
       transform="rotate(77.5)"
       inkscape:transform-center-x="-63.460137" />
    <rect
       style="fill:none;stroke:#000080;stroke-width:0.2"
       id="rect966"
       width="3"
       height="3"
       x="34.245701"
       y="-69.863937"
       inkscape:transform-center-y="-8.4843197"
       transform="rotate(82.5)"
       inkscape:transform-center-x="-64.44483" />
    <rect
       style="fill:none;stroke:#000080;stroke-width:0.2"
       id="rect968"
       width="3"
       height="3"
       x="33.81657"
       y="-72.966591"
       inkscape:transform-center-y="-2.835296"
       transform="rotate(87.5)"
       inkscape:transform-center-x="-64.939056" />
    <rect
       style="fill:none;stroke:#000080;stroke-width:0.20029"
       id="rect970"
       width="3.0109758"
       height="6.6037416"
       x="34.946102"
       y="-81.627525"
       inkscape:transform-center-y="2.8353051"
       transform="matrix(-0.09573939,0.99540643,-0.99980365,-0.01981576,0,0)"
       inkscape:transform-center-x="-143.05501" />
    <rect
       style="fill:none;stroke:#ff0000;stroke-width:0.2"
       id="rect2314"
       width="6"
       height="3"
       x="15"
       y="42" />
    <rect
       style="fill:none;stroke:#ff0000;stroke-width:0.2"
       id="rect2316"
       width="6"
       height="3"
       x="29"
       y="42" />
    <rect
       style="fill:none;stroke:#ff0000;stroke-width:0.2"
       id="rect2320"
       width="6"
       height="3"
       x="10"
       y="63" />
    <rect
       style="fill:none;stroke:#ff0000;stroke-width:0.2"
       id="rect2322"
       width="6"
       height="3"
       x="29"
       y="63" />
    <circle
       style="fill:none;stroke:#ff0000;stroke-width:0.2"
       id="path1243"
       cx="31.988026"
       cy="10.437801"
       r="21.910406" />
    <rect
       style="fill:none;stroke:#ff0000;stroke-width:0.2"
       id="rect862"
       width="6"
       height="3"
       x="74"
       y="63" />
    <circle
       style="fill:none;stroke:#ff0000;stroke-width:0.2"
       id="circle1083"
       cx="22.5"
       cy="58.5"
       r="7.5" />
    <circle
       style="fill:none;stroke:#ff0000;stroke-width:0.2"
       id="circle1722"
       cx="7"
       cy="35"
       r="7.5" />
    <g
       inkscape:label="Hershey Text"
       style="fill:none;stroke:#008000;stroke-width:0.69886067;stroke-linecap:round;stroke-linejoin:round;stroke-miterlimit:4;stroke-dasharray:none"
       id="g2216"
       transform="matrix(0.71545019,0,0,0.71545019,-3.5087443,11.829154)">
      <path
         d="m 16.429303,-54.237343 -2.66699,7.006145 m 2.66699,-7.006145 2.66699,7.006145 m -4.33915,-2.328326 h 3.34432"
         style="stroke:#008000;stroke-width:0.698861;stroke-miterlimit:4;stroke-dasharray:none"
         id="path2166" />
      <path
         d="m 42.517953,-49.230837 v 7.006145 m 0,-7.006145 h 3.00565 l 0.99483,0.338666 0.33867,0.338666 0.33866,0.656164 v 0.677331 l -0.33866,0.656165 -0.33867,0.338666 -0.99483,0.338665 m -3.00565,0 h 3.00565 l 0.99483,0.328082 0.33867,0.328083 0.33866,0.677331 v 0.99483 l -0.33866,0.666748 -0.33867,0.333374 -0.99483,0.333374 h -3.00565"
         style="stroke:#008000;stroke-width:0.698861;stroke-miterlimit:4;stroke-dasharray:none"
         id="path2168" />
      <path
         d="m 78.963892,-28.465917 -0.33866,-0.666748 -0.66675,-0.666748 -0.66675,-0.338666 h -1.33349 l -0.66675,0.338666 -0.66675,0.666748 -0.33866,0.666748 -0.32809,0.99483 v 1.672161 l 0.32809,0.994831 0.33866,0.672039 0.66675,0.666748 0.66675,0.333374 h 1.33349 l 0.66675,-0.333374 0.66675,-0.666748 0.33866,-0.672039"
         style="stroke:#008000;stroke-width:0.698861;stroke-miterlimit:4;stroke-dasharray:none"
         id="path2170" />
      <path
         d="m 90.439302,-6.2800711 v 7.00614503 m 0,-7.00614503 h 2.33891 l 1.00541,0.338666 0.65616,0.666748 0.33867,0.666748 0.33866,0.99483 v 1.672161 l -0.33866,0.99483103 -0.33867,0.672039 -0.65616,0.666748 -1.00541,0.333374 h -2.33891"
         style="stroke:#008000;stroke-width:0.698861;stroke-miterlimit:4;stroke-dasharray:none"
         id="path2172" />
      <path
         d="m 98.019989,28.939789 v 7.006145 m 0,-7.006145 h 4.339151 m -4.339151,3.344323 h 2.666991 m -2.666991,3.661822 h 4.339151"
         style="stroke:#008000;stroke-width:0.698861;stroke-miterlimit:4;stroke-dasharray:none"
         id="path2174" />
      <path
         d="m 16.504939,-54.198592 0.779256,0.265279 0.530556,0.779255 0.256995,1.309814 v 0.779256 l -0.256995,1.309813 -0.530556,0.783401 -0.779256,0.261134 H 15.98267 l -0.787544,-0.261134 -0.513973,-0.783401 -0.265282,-1.309813 v -0.779256 l 0.265282,-1.309814 0.513973,-0.779255 0.787544,-0.265279 h 0.522269"
         style="stroke:#800080;stroke-width:0.698861;stroke-miterlimit:4;stroke-dasharray:none"
         id="path2176" />
      <g
         id="g2538"
         style="stroke:#800080;stroke-width:0.892194;stroke-miterlimit:4;stroke-dasharray:none"
         transform="matrix(-0.7714054,-0.13601958,-0.13601958,0.7714054,-61.595737,-4.1062337)">
        <path
           d="m -111.2184,-80.116024 0.65616,-0.328082 1.00542,-1.005414 v 7.006145"
           style="stroke:#800080;stroke-width:0.892194;stroke-miterlimit:4;stroke-dasharray:none"
           id="path2178" />
        <path
           d="m -103.55607,-81.44952 -0.99483,0.338666 -0.67733,0.99483 -0.32809,1.672162 v 0.99483 l 0.32809,1.672161 0.67733,1.000122 0.99483,0.333374 h 0.66675 l 1.00541,-0.333374 0.65616,-1.000122 0.33867,-1.672161 v -0.99483 l -0.33867,-1.672162 -0.65616,-0.99483 -1.00541,-0.338666 h -0.66675"
           style="stroke:#800080;stroke-width:0.892194;stroke-miterlimit:4;stroke-dasharray:none"
           id="path2180" />
      </g>
      <g
         id="g2534"
         style="stroke:#800080;stroke-width:0.892194"
         transform="matrix(-0.73606647,-0.26790628,-0.26790628,0.73606647,-41.786287,-12.534839)">
        <path
           d="m -94.560334,-79.777358 v -0.338666 l 0.338666,-0.656164 0.338665,-0.338666 0.656165,-0.338666 h 1.333496 l 0.677331,0.338666 0.328082,0.338666 0.328082,0.656164 v 0.677331 l -0.328082,0.656165 -0.666748,1.005413 -3.333739,3.33374 h 4.667235"
           style="stroke:#800080;stroke-width:0.892195;stroke-miterlimit:4;stroke-dasharray:none"
           id="path2182" />
        <path
           d="m -86.220673,-81.44952 -0.99483,0.338666 -0.677331,0.99483 -0.328082,1.672162 v 0.99483 l 0.328082,1.672161 0.677331,1.000122 0.99483,0.333374 h 0.666748 l 1.005414,-0.333374 0.656164,-1.000122 0.338666,-1.672161 v -0.99483 l -0.338666,-1.672162 -0.656164,-0.99483 -1.005414,-0.338666 h -0.666748"
           style="stroke:#800080;stroke-width:0.892195;stroke-miterlimit:4;stroke-dasharray:none"
           id="path2184" />
      </g>
      <g
         id="g2530"
         style="stroke:#800080;stroke-width:0.892194"
         transform="matrix(-0.67836253,-0.39165278,-0.39165278,0.67836253,-20.76652,-15.079708)">
        <path
           d="m -76.886168,-81.44952 h 3.661821 l -1.98966,2.666992 h 0.99483 l 0.666748,0.338666 0.328082,0.338665 0.338666,0.99483 v 0.666748 l -0.338666,1.000122 -0.656164,0.666748 -1.005414,0.333374 h -1.005413 l -0.99483,-0.333374 -0.338666,-0.333374 -0.328082,-0.666748"
           style="stroke:#800080;stroke-width:0.892195;stroke-miterlimit:4;stroke-dasharray:none"
           id="path2186" />
        <path
           d="m -68.884973,-81.44952 -0.99483,0.338666 -0.677331,0.99483 -0.328082,1.672162 v 0.99483 l 0.328082,1.672161 0.677331,1.000122 0.99483,0.333374 h 0.666748 l 1.005414,-0.333374 0.656164,-1.000122 0.338666,-1.672161 v -0.99483 l -0.338666,-1.672162 -0.656164,-0.99483 -1.005414,-0.338666 h -0.666748"
           style="stroke:#800080;stroke-width:0.892195;stroke-miterlimit:4;stroke-dasharray:none"
           id="path2188" />
      </g>
      <g
         id="g2526"
         style="stroke:#800080;stroke-width:0.892194"
         transform="matrix(-0.60004689,-0.50349911,-0.50349911,0.60004689,-1.3988491,-11.899085)">
        <path
           d="m -56.883477,-81.44952 -3.333739,4.677819 h 5.005901 m -1.672162,-4.677819 v 7.006145"
           style="stroke:#800080;stroke-width:0.892195;stroke-miterlimit:4;stroke-dasharray:none"
           id="path2190" />
        <path
           d="m -51.549973,-81.44952 -0.99483,0.338666 -0.677331,0.99483 -0.328082,1.672162 v 0.99483 l 0.328082,1.672161 0.677331,1.000122 0.99483,0.333374 h 0.666748 l 1.005414,-0.333374 0.656164,-1.000122 0.338666,-1.672161 v -0.99483 l -0.338666,-1.672162 -0.656164,-0.99483 -1.005414,-0.338666 h -0.666748"
           style="stroke:#800080;stroke-width:0.892195;stroke-miterlimit:4;stroke-dasharray:none"
           id="path2192" />
      </g>
      <g
         id="g2522"
         style="stroke:#800080;stroke-width:0.892194"
         transform="matrix(-0.50349913,-0.60004688,-0.60004688,0.50349913,14.910346,-4.0839442)">
        <path
           d="m -38.881729,-81.44952 h -3.333739 l -0.338666,3.005658 0.338666,-0.338666 0.99483,-0.328082 h 1.005413 l 1.005414,0.328082 0.656164,0.677331 0.338666,0.99483 v 0.666748 l -0.338666,1.000122 -0.656164,0.666748 -1.005414,0.333374 h -1.005413 l -0.99483,-0.333374 -0.338666,-0.333374 -0.328082,-0.666748"
           style="stroke:#800080;stroke-width:0.892195;stroke-miterlimit:4;stroke-dasharray:none"
           id="path2194" />
        <path
           d="m -34.213973,-81.44952 -0.99483,0.338666 -0.677331,0.99483 -0.328082,1.672162 v 0.99483 l 0.328082,1.672161 0.677331,1.000122 0.99483,0.333374 h 0.666748 l 1.005414,-0.333374 0.656164,-1.000122 0.338666,-1.672161 v -0.99483 l -0.338666,-1.672162 -0.656164,-0.99483 -1.005414,-0.338666 h -0.666748"
           style="stroke:#800080;stroke-width:0.892195;stroke-miterlimit:4;stroke-dasharray:none"
           id="path2196" />
      </g>
      <g
         id="g2518"
         style="stroke:#800080;stroke-width:0.892194"
         transform="matrix(-0.3916528,-0.67836253,-0.67836253,0.3916528,27.832417,8.0220073)">
        <path
           d="m -21.217647,-80.444106 -0.328082,-0.666748 -1.005413,-0.338666 h -0.656165 l -1.005413,0.338666 -0.666748,0.99483 -0.338666,1.672162 v 1.672161 l 0.338666,1.328204 0.666748,0.666748 1.005413,0.333374 h 0.328082 l 1.005414,-0.333374 0.656164,-0.666748 0.338666,-1.000122 v -0.328082 l -0.338666,-1.005414 -0.656164,-0.666747 -1.005414,-0.338666 h -0.328082 l -1.005413,0.338666 -0.666748,0.666747 -0.338666,1.005414"
           style="stroke:#800080;stroke-width:0.892195;stroke-miterlimit:4;stroke-dasharray:none"
           id="path2198" />
        <path
           d="m -16.878973,-81.44952 -0.99483,0.338666 -0.677331,0.99483 -0.328082,1.672162 v 0.99483 l 0.328082,1.672161 0.677331,1.000122 0.99483,0.333374 h 0.666748 l 1.005414,-0.333374 0.656164,-1.000122 0.338666,-1.672161 v -0.99483 l -0.338666,-1.672162 -0.656164,-0.99483 -1.005414,-0.338666 h -0.666748"
           style="stroke:#800080;stroke-width:0.892195;stroke-miterlimit:4;stroke-dasharray:none"
           id="path2200" />
      </g>
      <g
         id="g2514"
         style="stroke:#800080;stroke-width:0.892194"
         transform="matrix(-0.2679063,-0.73606647,-0.73606647,0.2679063,36.53258,22.992831)">
        <path
           d="m -3.543981,-81.44952 -3.3337395,7.006145 m -1.3334958,-7.006145 h 4.6672353"
           style="stroke:#800080;stroke-width:0.892195;stroke-miterlimit:4;stroke-dasharray:none"
           id="path2202" />
        <path
           d="m 0.4570274,-81.44952 -0.9948302,0.338666 -0.6773312,0.99483 -0.3280823,1.672162 v 0.99483 l 0.3280823,1.672161 0.6773312,1.000122 0.9948302,0.333374 h 0.6667479 l 1.0054135,-0.333374 0.6561646,-1.000122 0.3386656,-1.672161 v -0.99483 L 2.7853534,-80.116024 2.1291888,-81.110854 1.1237753,-81.44952 H 0.4570274"
           style="stroke:#800080;stroke-width:0.892195;stroke-miterlimit:4;stroke-dasharray:none"
           id="path2204" />
      </g>
      <g
         id="g2510"
         style="stroke:#800080;stroke-width:0.892194"
         transform="matrix(-0.1360196,-0.77140541,-0.77140541,0.1360196,40.842045,40.068449)">
        <path
           d="m 10.785362,-81.44952 -0.9948304,0.338666 -0.3386656,0.666748 v 0.666748 l 0.3386656,0.666748 0.6667484,0.328082 1.333495,0.338666 1.005414,0.338665 0.656164,0.656165 0.338666,0.677331 v 0.99483 l -0.338666,0.666748 -0.328082,0.333374 -1.005413,0.333374 H 10.785362 L 9.7905316,-74.776749 9.451866,-75.110123 9.1237837,-75.776871 v -0.99483 l 0.3280823,-0.677331 0.677331,-0.656165 0.99483,-0.338665 1.333496,-0.338666 0.666748,-0.328082 0.328082,-0.666748 v -0.666748 l -0.328082,-0.666748 -1.005413,-0.338666 h -1.333496"
           style="stroke:#800080;stroke-width:0.892195;stroke-miterlimit:4;stroke-dasharray:none"
           id="path2206" />
        <path
           d="m 17.792027,-81.44952 -0.99483,0.338666 -0.677331,0.99483 -0.328082,1.672162 v 0.99483 l 0.328082,1.672161 0.677331,1.000122 0.99483,0.333374 h 0.666748 l 1.005414,-0.333374 0.656164,-1.000122 0.338666,-1.672161 v -0.99483 l -0.338666,-1.672162 -0.656164,-0.99483 -1.005414,-0.338666 h -0.666748"
           style="stroke:#800080;stroke-width:0.892195;stroke-miterlimit:4;stroke-dasharray:none"
           id="path2208" />
      </g>
      <g
         id="g2506"
         style="stroke:#800080;stroke-width:0.892194"
         transform="matrix(0,-0.78330557,-0.78330557,0,39.009126,57.724184)">
        <path
           d="m 30.788353,-79.11061 -0.328082,1.005413 -0.666748,0.656165 -0.99483,0.338665 h -0.338666 l -0.99483,-0.338665 -0.677331,-0.656165 -0.328082,-1.005413 v -0.328083 l 0.328082,-1.005413 0.677331,-0.666748 0.99483,-0.338666 h 0.338666 l 0.99483,0.338666 0.666748,0.666748 0.328082,1.333496 v 1.661578 l -0.328082,1.672161 -0.666748,1.000122 -0.99483,0.333374 h -0.677331 l -0.99483,-0.333374 -0.338666,-0.666748"
           style="stroke:#800080;stroke-width:0.892195;stroke-miterlimit:4;stroke-dasharray:none"
           id="path2210" />
        <path
           d="m 35.127027,-81.44952 -0.99483,0.338666 -0.677331,0.99483 -0.328082,1.672162 v 0.99483 l 0.328082,1.672161 0.677331,1.000122 0.99483,0.333374 h 0.666748 l 1.005414,-0.333374 0.656164,-1.000122 0.338666,-1.672161 v -0.99483 l -0.338666,-1.672162 -0.656164,-0.99483 -1.005414,-0.338666 h -0.666748"
           style="stroke:#800080;stroke-width:0.892195;stroke-miterlimit:4;stroke-dasharray:none"
           id="path2212" />
      </g>
    </g>
  </g>
</svg>
