  0
SECTION
  2
HEADER
  9
$ACADVER
  1
AC1014
  9
$HANDSEED
  5
FFFF
  9
$MEASUREMENT
 70
     1
  0
ENDSEC
  0
SECTION
  2
TABLES
  0
TABLE
  2
VPORT
  5
8
330
0
100
AcDbSymbolTable
 70
     4
  0
VPORT
  5
2E
330
8
100
AcDbSymbolTableRecord
100
AcDbViewportTableRecord
  2
*ACTIVE
 70
     0
 10
0.0
 20
0.0
 11
1.0
 21
1.0
 12
210.0
 22
148.5
 13
0.0
 23
0.0
 14
10.0
 24
10.0
 15
10.0
 25
10.0
 16
0.0
 26
0.0
 36
1.0
 17
0.0
 27
0.0
 37
0.0
 40
341.0
 41
1.24
 42
50.0
 43
0.0
 44
0.0
 50
0.0
 51
0.0
 71
     0
 72
   100
 73
     1
 74
     3
 75
     0
 76
     0
 77
     0
 78
     0
  0
ENDTAB
  0
TABLE
  2
LTYPE
  5
5
330
0
100
AcDbSymbolTable
 70
     1
  0
LTYPE
  5
14
330
5
100
AcDbSymbolTableRecord
100
AcDbLinetypeTableRecord
  2
BYBLOCK
 70
     0
  3

 72
    65
 73
     0
 40
0.0
  0
LTYPE
  5
15
330
5
100
AcDbSymbolTableRecord
100
AcDbLinetypeTableRecord
  2
BYLAYER
 70
     0
  3

 72
    65
 73
     0
 40
0.0
  0
LTYPE
  5
16
330
5
100
AcDbSymbolTableRecord
100
AcDbLinetypeTableRecord
  2
CONTINUOUS
 70
     0
  3
Solid line
 72
    65
 73
     0
 40
0.0
  0
ENDTAB
  0
TABLE
  2
LAYER
  5
2
100
AcDbSymbolTable
 70
2
  0
LAYER
  5
50
100
AcDbSymbolTableRecord
100
AcDbLayerTableRecord
  2
0
 70
0
  6
CONTINUOUS
  0
LAYER
  5
51
100
AcDbSymbolTableRecord
100
AcDbLayerTableRecord
  2
Layer_1
 70
0
  6
CONTINUOUS
  0
ENDTAB
  0
TABLE
  2
STYLE
  5
3
330
0
100
AcDbSymbolTable
 70
     1
  0
STYLE
  5
11
330
3
100
AcDbSymbolTableRecord
100
AcDbTextStyleTableRecord
  2
STANDARD
 70
     0
 40
0.0
 41
1.0
 50
0.0
 71
     0
 42
2.5
  3
txt
  4

  0
ENDTAB
  0
TABLE
  2
VIEW
  5
6
330
0
100
AcDbSymbolTable
 70
     0
  0
ENDTAB
  0
TABLE
  2
UCS
  5
7
330
0
100
AcDbSymbolTable
 70
     0
  0
ENDTAB
  0
TABLE
  2
APPID
  5
9
330
0
100
AcDbSymbolTable
 70
     2
  0
APPID
  5
12
330
9
100
AcDbSymbolTableRecord
100
AcDbRegAppTableRecord
  2
ACAD
 70
     0
  0
ENDTAB
  0
TABLE
  2
DIMSTYLE
  5
A
330
0
100
AcDbSymbolTable
 70
     1
  0
DIMSTYLE
105
27
330
A
100
AcDbSymbolTableRecord
100
AcDbDimStyleTableRecord
  2
ISO-25
 70
     0
  3

  4

  5

  6

  7

 40
1.0
 41
2.5
 42
0.625
 43
3.75
 44
1.25
 45
0.0
 46
0.0
 47
0.0
 48
0.0
140
2.5
141
2.5
142
0.0
143
0.03937007874016
144
1.0
145
0.0
146
1.0
147
0.625
 71
     0
 72
     0
 73
     0
 74
     0
 75
     0
 76
     0
 77
     1
 78
     8
170
     0
171
     3
172
     1
173
     0
174
     0
175
     0
176
     0
177
     0
178
     0
270
     2
271
     2
272
     2
273
     2
274
     3
340
11
275
     0
280
     0
281
     0
282
     0
283
     0
284
     8
285
     0
286
     0
287
     3
288
     0
  0
ENDTAB
  0
TABLE
  2
BLOCK_RECORD
  5
1
330
0
100
AcDbSymbolTable
 70
     1
  0
BLOCK_RECORD
  5
1F
330
1
100
AcDbSymbolTableRecord
100
AcDbBlockTableRecord
  2
*MODEL_SPACE
  0
BLOCK_RECORD
  5
1B
330
1
100
AcDbSymbolTableRecord
100
AcDbBlockTableRecord
  2
*PAPER_SPACE
  0
ENDTAB
  0
ENDSEC
  0
SECTION
  2
BLOCKS
  0
BLOCK
  5
20
330
1F
100
AcDbEntity
  8
0
100
AcDbBlockBegin
  2
*MODEL_SPACE
 70
     0
 10
0.0
 20
0.0
 30
0.0
  3
*MODEL_SPACE
  1

  0
ENDBLK
  5
21
330
1F
100
AcDbEntity
  8
0
100
AcDbBlockEnd
  0
BLOCK
  5
1C
330
1B
100
AcDbEntity
 67
     1
  8
0
100
AcDbBlockBegin
  2
*PAPER_SPACE
  1

  0
ENDBLK
  5
1D
330
1B
100
AcDbEntity
 67
     1
  8
0
100
AcDbBlockEnd
  0
ENDSEC
  0
SECTION
  2
ENTITIES
  0
LWPOLYLINE
  5
100
100
AcDbEntity
  8
Layer_1
 62
7
100
AcDbPolyline
 90
157
 70
1
 10
5.099950
 20
120.099749
 30
0.0
 10
4.695905
 20
120.059262
 30
0.0
 10
4.320037
 20
119.943080
 30
0.0
 10
3.980260
 20
119.759123
 30
0.0
 10
3.684508
 20
119.515310
 30
0.0
 10
3.440695
 20
119.219558
 30
0.0
 10
3.256730
 20
118.879788
 30
0.0
 10
3.140551
 20
118.503921
 30
0.0
 10
3.100070
 20
118.099871
 30
0.0
 10
3.100070
 20
110.499820
 30
0.0
 10
7.600051
 20
110.499820
 30
0.0
 10
7.600051
 20
110.000102
 30
0.0
 10
7.600051
 20
79.999739
 30
0.0
 10
6.099889
 20
79.999739
 30
0.0
 10
6.099889
 20
100.000201
 30
0.0
 10
6.099889
 20
110.000102
 30
0.0
 10
3.100070
 20
110.000102
 30
0.0
 10
1.599904
 20
110.000102
 30
0.0
 10
1.599904
 20
100.000201
 30
0.0
 10
3.100070
 20
100.000201
 30
0.0
 10
3.100070
 20
75.099920
 30
0.0
 10
3.115046
 20
75.099920
 30
0.0
 10
5.000202
 20
73.080885
 30
0.0
 10
9.999901
 20
73.080885
 30
0.0
 10
11.999780
 20
73.080885
 30
0.0
 10
13.000249
 20
72.081025
 30
0.0
 10
13.000249
 20
70.080510
 30
0.0
 10
11.999780
 20
69.080650
 30
0.0
 10
8.000021
 20
69.080650
 30
0.0
 10
7.000081
 20
70.080510
 30
0.0
 10
6.000142
 20
70.080510
 30
0.0
 10
5.000202
 20
69.080650
 30
0.0
 10
5.000202
 20
63.080429
 30
0.0
 10
6.000142
 20
62.080568
 30
0.0
 10
7.000081
 20
62.080568
 30
0.0
 10
8.000021
 20
63.080429
 30
0.0
 10
11.999780
 20
63.080429
 30
0.0
 10
13.000249
 20
62.080568
 30
0.0
 10
13.000249
 20
60.080583
 30
0.0
 10
11.999780
 20
59.080723
 30
0.0
 10
5.000202
 20
59.080723
 30
0.0
 10
3.100070
 20
57.181014
 30
0.0
 10
3.100070
 20
36.999921
 30
0.0
 10
0.100252
 20
36.999921
 30
0.0
 10
0.100252
 20
32.000090
 30
0.0
 10
3.100070
 20
32.000090
 30
0.0
 10
3.100070
 20
25.099756
 30
0.0
 10
3.115046
 20
25.099756
 30
0.0
 10
5.000202
 20
23.080986
 30
0.0
 10
9.999901
 20
23.080986
 30
0.0
 10
11.999780
 20
23.080986
 30
0.0
 10
13.000249
 20
22.080861
 30
0.0
 10
13.000249
 20
20.080611
 30
0.0
 10
11.999780
 20
19.080486
 30
0.0
 10
8.000021
 20
19.080486
 30
0.0
 10
7.000081
 20
20.080611
 30
0.0
 10
6.000142
 20
20.080611
 30
0.0
 10
5.000202
 20
19.080486
 30
0.0
 10
5.000202
 20
13.081059
 30
0.0
 10
6.000142
 20
12.080404
 30
0.0
 10
7.000081
 20
12.080404
 30
0.0
 10
8.000021
 20
13.081059
 30
0.0
 10
11.999780
 20
13.081059
 30
0.0
 10
13.000249
 20
12.080404
 30
0.0
 10
13.000249
 20
10.080684
 30
0.0
 10
11.999780
 20
9.080559
 30
0.0
 10
5.000202
 20
9.080559
 30
0.0
 10
3.100070
 20
7.181115
 30
0.0
 10
3.100070
 20
2.100321
 30
0.0
 10
3.140551
 20
1.696038
 30
0.0
 10
3.256730
 20
1.320330
 30
0.0
 10
3.440695
 20
0.980340
 30
0.0
 10
3.684508
 20
0.684536
 30
0.0
 10
3.980260
 20
0.440590
 30
0.0
 10
4.320037
 20
0.256705
 30
0.0
 10
4.695905
 20
0.140288
 30
0.0
 10
5.099950
 20
0.099807
 30
0.0
 10
87.100039
 20
0.099807
 30
0.0
 10
87.504057
 20
0.140288
 30
0.0
 10
87.880030
 20
0.256705
 30
0.0
 10
88.219755
 20
0.440590
 30
0.0
 10
88.515560
 20
0.684536
 30
0.0
 10
88.759241
 20
0.980340
 30
0.0
 10
88.943391
 20
1.320330
 30
0.0
 10
89.059543
 20
1.696038
 30
0.0
 10
89.100024
 20
2.100321
 30
0.0
 10
89.100024
 20
7.080838
 30
0.0
 10
89.000276
 20
7.080838
 30
0.0
 10
86.999762
 20
9.080559
 30
0.0
 10
79.999680
 20
9.080559
 30
0.0
 10
78.999820
 20
10.080684
 30
0.0
 10
78.999820
 20
12.080404
 30
0.0
 10
79.999680
 20
13.081059
 30
0.0
 10
83.999916
 20
13.081059
 30
0.0
 10
85.000041
 20
12.080404
 30
0.0
 10
85.999901
 20
12.080404
 30
0.0
 10
86.999762
 20
13.081059
 30
0.0
 10
86.999762
 20
19.080486
 30
0.0
 10
85.999901
 20
20.080611
 30
0.0
 10
85.000041
 20
20.080611
 30
0.0
 10
83.999916
 20
19.080486
 30
0.0
 10
79.999680
 20
19.080486
 30
0.0
 10
78.999820
 20
20.080611
 30
0.0
 10
78.999820
 20
22.080861
 30
0.0
 10
79.999680
 20
23.080986
 30
0.0
 10
82.000195
 20
23.080986
 30
0.0
 10
86.999762
 20
23.080986
 30
0.0
 10
88.884918
 20
25.099756
 30
0.0
 10
89.100024
 20
25.096317
 30
0.0
 10
89.100024
 20
32.000090
 30
0.0
 10
92.099870
 20
32.000090
 30
0.0
 10
92.099870
 20
36.999921
 30
0.0
 10
89.100024
 20
36.999921
 30
0.0
 10
89.100024
 20
57.080737
 30
0.0
 10
89.000276
 20
57.080737
 30
0.0
 10
86.999762
 20
59.080723
 30
0.0
 10
79.999680
 20
59.080723
 30
0.0
 10
78.999820
 20
60.080583
 30
0.0
 10
78.999820
 20
62.080568
 30
0.0
 10
79.999680
 20
63.080429
 30
0.0
 10
83.999916
 20
63.080429
 30
0.0
 10
85.000041
 20
62.080568
 30
0.0
 10
85.999901
 20
62.080568
 30
0.0
 10
86.999762
 20
63.080429
 30
0.0
 10
86.999762
 20
69.080650
 30
0.0
 10
85.999901
 20
70.080510
 30
0.0
 10
85.000041
 20
70.080510
 30
0.0
 10
83.999916
 20
69.080650
 30
0.0
 10
79.999680
 20
69.080650
 30
0.0
 10
78.999820
 20
70.080510
 30
0.0
 10
78.999820
 20
72.081025
 30
0.0
 10
79.999680
 20
73.080885
 30
0.0
 10
82.000195
 20
73.080885
 30
0.0
 10
86.999762
 20
73.080885
 30
0.0
 10
88.884918
 20
75.099920
 30
0.0
 10
89.100024
 20
75.096216
 30
0.0
 10
89.100024
 20
100.000201
 30
0.0
 10
90.600212
 20
100.000201
 30
0.0
 10
90.600212
 20
110.000102
 30
0.0
 10
89.100024
 20
110.000102
 30
0.0
 10
86.100178
 20
110.000102
 30
0.0
 10
86.100178
 20
100.000201
 30
0.0
 10
86.100178
 20
79.999739
 30
0.0
 10
84.599991
 20
79.999739
 30
0.0
 10
84.599991
 20
110.000102
 30
0.0
 10
84.599991
 20
110.499820
 30
0.0
 10
89.100024
 20
110.499820
 30
0.0
 10
89.100024
 20
118.099871
 30
0.0
 10
89.059543
 20
118.503921
 30
0.0
 10
88.943391
 20
118.879788
 30
0.0
 10
88.759241
 20
119.219558
 30
0.0
 10
88.515560
 20
119.515310
 30
0.0
 10
88.219755
 20
119.759123
 30
0.0
 10
87.880030
 20
119.943080
 30
0.0
 10
87.504057
 20
120.059262
 30
0.0
 10
87.100039
 20
120.099749
 30
0.0
 10
5.099950
 20
120.099749
 30
0.0
  0
LWPOLYLINE
  5
101
100
AcDbEntity
  8
Layer_1
 62
7
100
AcDbPolyline
 90
5
 70
1
 10
11.100091
 20
6.000280
 30
0.0
 10
23.099871
 20
6.000280
 30
0.0
 10
23.099871
 20
2.999905
 30
0.0
 10
11.100091
 20
2.999905
 30
0.0
 10
11.100091
 20
6.000280
 30
0.0
  0
LWPOLYLINE
  5
102
100
AcDbEntity
  8
Layer_1
 62
7
100
AcDbPolyline
 90
5
 70
1
 10
69.100170
 20
6.000280
 30
0.0
 10
81.100083
 20
6.000280
 30
0.0
 10
81.100083
 20
2.999905
 30
0.0
 10
69.100170
 20
2.999905
 30
0.0
 10
69.100170
 20
6.000280
 30
0.0
  0
ENDSEC
  0
SECTION
  2
OBJECTS
  0
DICTIONARY
  5
C
330
0
100
AcDbDictionary
  3
ACAD_GROUP
350
D
  3
ACAD_MLINESTYLE
350
17
  0
DICTIONARY
  5
D
330
C
100
AcDbDictionary
  0
DICTIONARY
  5
1A
330
C
100
AcDbDictionary
  0
DICTIONARY
  5
17
330
C
100
AcDbDictionary
  3
STANDARD
350
18
  0
DICTIONARY
  5
19
330
C
100
AcDbDictionary
  0
ENDSEC
  0
EOF
