<?xml version="1.0" encoding="UTF-8" standalone="no"?>
<!-- Created with Inkscape (http://www.inkscape.org/) -->

<svg
   width="100mm"
   height="100mm"
   viewBox="0 0 100 100"
   version="1.1"
   id="svg5"
   inkscape:version="1.1.2 (0a00cf5339, 2022-02-04)"
   sodipodi:docname="bot_baseplate_flat.svg"
   xmlns:inkscape="http://www.inkscape.org/namespaces/inkscape"
   xmlns:sodipodi="http://sodipodi.sourceforge.net/DTD/sodipodi-0.dtd"
   xmlns="http://www.w3.org/2000/svg"
   xmlns:svg="http://www.w3.org/2000/svg">
  <sodipodi:namedview
     id="namedview7"
     pagecolor="#ffffff"
     bordercolor="#666666"
     borderopacity="1.0"
     inkscape:pageshadow="2"
     inkscape:pageopacity="0.0"
     inkscape:pagecheckerboard="0"
     inkscape:document-units="mm"
     showgrid="false"
     inkscape:zoom="1.4256464"
     inkscape:cx="-204.81938"
     inkscape:cy="405.78085"
     inkscape:window-width="2560"
     inkscape:window-height="1409"
     inkscape:window-x="2560"
     inkscape:window-y="0"
     inkscape:window-maximized="1"
     inkscape:current-layer="layer1"
     inkscape:snap-bbox="true"
     inkscape:snap-bbox-edge-midpoints="true"
     inkscape:bbox-nodes="true"
     inkscape:bbox-paths="true"
     inkscape:snap-intersection-paths="true"
     inkscape:snap-global="true" />
  <defs
     id="defs2" />
  <g
     inkscape:label="Layer 1"
     inkscape:groupmode="layer"
     id="layer1">
    <path
       id="rect3354"
       style="fill:none;stroke:#000000;stroke-width:0.377951"
       d="M -128.50391 241.14453 C -145.25477 241.14453 -158.74023 254.62999 -158.74023 271.38086 L -158.74023 279.60352 L -170.07812 279.60352 L -170.07812 355.19531 L -158.74023 355.19531 L -158.74023 415.28711 L -170.07812 415.28711 L -170.07812 490.87695 L -158.74023 490.87695 L -158.74023 550.96875 L -170.07812 550.96875 L -170.07812 626.55859 L -158.74023 626.55859 L -158.74023 629.56055 C -158.74023 646.31141 -69.664929 695.71094 -52.914062 695.71094 L 52.914062 695.71094 C 69.664929 695.71094 158.74023 646.32313 158.74023 629.57227 L 158.74023 626.55859 L 170.07812 626.55859 L 170.07812 550.96875 L 158.74023 550.96875 L 158.74023 490.87695 L 170.07812 490.87695 L 170.07812 415.28711 L 158.74023 415.28711 L 158.74023 355.19531 L 170.07812 355.19531 L 170.07812 279.60352 L 158.74023 279.60352 L 158.74023 271.38086 C 158.74023 254.62999 145.25477 241.14453 128.50391 241.14453 L -128.50391 241.14453 z M -115.48633 260.03125 L -85.259766 260.03125 L -85.259766 266.07812 L -115.48633 266.07812 L -115.48633 260.03125 z M 85.259766 260.03125 L 115.48633 260.03125 L 115.48633 266.07812 L 85.259766 266.07812 L 85.259766 260.03125 z M 0 290.07812 A 20.031495 20.031495 0 0 1 20.03125 310.10938 A 20.031495 20.031495 0 0 1 0 330.14258 A 20.031495 20.031495 0 0 1 -20.03125 310.10938 A 20.031495 20.031495 0 0 1 0 290.07812 z M -115.48633 484.53516 L -85.259766 484.53516 L -85.259766 490.58203 L -115.48633 490.58203 L -115.48633 484.53516 z M 85.259766 484.53516 L 115.48633 484.53516 L 115.48633 490.58203 L 85.259766 490.58203 L 85.259766 484.53516 z M -22.677734 508.42578 L 22.677734 508.42578 L 22.677734 519.76367 L -22.677734 519.76367 L -22.677734 508.42578 z M -22.677734 568.26953 L 22.677734 568.26953 L 22.677734 583.4375 L -22.677734 583.4375 L -22.677734 568.26953 z M -64.623047 636.07812 A 5.6692912 5.6692912 0 0 1 -58.953125 641.74609 A 5.6692912 5.6692912 0 0 1 -64.623047 647.41602 A 5.6692912 5.6692912 0 0 1 -70.292969 641.74609 A 5.6692912 5.6692912 0 0 1 -64.623047 636.07812 z M 63.880859 636.07812 A 5.6692912 5.6692912 0 0 1 69.550781 641.74609 A 5.6692912 5.6692912 0 0 1 63.880859 647.41602 A 5.6692912 5.6692912 0 0 1 58.210938 641.74609 A 5.6692912 5.6692912 0 0 1 63.880859 636.07812 z "
       transform="scale(0.26458333)" />
  </g>
</svg>
