<?xml version="1.0" encoding="UTF-8" standalone="no"?>
<!-- Created with Inkscape (http://www.inkscape.org/) -->

<svg
   width="100mm"
   height="100mm"
   viewBox="0 0 100 100"
   version="1.1"
   id="svg5"
   inkscape:version="1.1.2 (0a00cf5339, 2022-02-04)"
   sodipodi:docname="bot_motorfront_flat.svg"
   xmlns:inkscape="http://www.inkscape.org/namespaces/inkscape"
   xmlns:sodipodi="http://sodipodi.sourceforge.net/DTD/sodipodi-0.dtd"
   xmlns="http://www.w3.org/2000/svg"
   xmlns:svg="http://www.w3.org/2000/svg">
  <sodipodi:namedview
     id="namedview7"
     pagecolor="#ffffff"
     bordercolor="#666666"
     borderopacity="1.0"
     inkscape:pageshadow="2"
     inkscape:pageopacity="0.0"
     inkscape:pagecheckerboard="0"
     inkscape:document-units="mm"
     showgrid="false"
     inkscape:zoom="4.6826786"
     inkscape:cx="10.464096"
     inkscape:cy="323.10567"
     inkscape:window-width="2560"
     inkscape:window-height="1382"
     inkscape:window-x="0"
     inkscape:window-y="0"
     inkscape:window-maximized="1"
     inkscape:current-layer="layer1"
     inkscape:snap-page="true"
     inkscape:snap-global="true"
     inkscape:snap-bbox="true"
     inkscape:snap-bbox-midpoints="true"
     inkscape:snap-intersection-paths="false"
     inkscape:object-paths="false"
     inkscape:snap-smooth-nodes="true"
     inkscape:snap-midpoints="false"
     inkscape:snap-bbox-edge-midpoints="true" />
  <defs
     id="defs2" />
  <g
     inkscape:label="Layer 1"
     inkscape:groupmode="layer"
     id="layer1">
    <path
       id="rect1416"
       style="fill:none;stroke:#000000;stroke-width:0.377952"
       d="M -11.337891 270.23633 C -13.105833 270.23633 -14.514745 271.4632 -14.931641 273.09766 C -12.92971 273.17381 -11.337891 274.38523 -11.337891 275.90625 C -11.337891 277.47664 -13.023329 278.74023 -15.117188 278.74023 L -15.117188 285.35352 C -15.117187 286.40044 -15.960886 287.24414 -17.007812 287.24414 L -58.582031 287.24414 C -59.628958 287.24414 -60.472656 286.40044 -60.472656 285.35352 L -60.472656 275.90625 L -151.18164 275.90625 C -155.36936 275.90625 -158.74023 279.27713 -158.74023 283.46484 L -167.24414 283.46484 C -167.24414 285.5587 -168.50774 287.24414 -170.07812 287.24414 C -171.59915 287.24414 -172.81056 285.65232 -172.88672 283.65039 C -174.52119 284.06729 -175.74805 285.4762 -175.74805 287.24414 L -175.74805 298.58203 C -175.74805 300.34997 -174.52119 301.75889 -172.88672 302.17578 C -172.81056 300.17385 -171.59915 298.58203 -170.07812 298.58203 C -168.50774 298.58203 -167.24414 300.26747 -167.24414 302.36133 L -158.74023 302.36133 L -158.74023 310.95898 L -158.74023 317.48047 L -153.07031 317.48047 L -153.07031 309.52148 A 37.795276 37.795276 0 0 1 -130.39453 297.14844 L -130.39453 302.36133 C -130.39453 305.50212 -127.8654 308.03125 -124.72461 308.03125 C -121.58382 308.03125 -119.05469 305.50212 -119.05469 302.36133 L -119.05469 297.14844 A 37.795276 37.795276 0 0 1 -96.378906 309.52148 L -96.378906 317.48047 L -88.818359 317.48047 C -87.771432 317.48047 -86.929687 318.32221 -86.929688 319.36914 L -86.929688 349.60547 C -86.929688 350.6524 -87.771432 351.49609 -88.818359 351.49609 L -96.378906 351.49609 L -96.378906 359.45508 A 37.795276 37.795276 0 0 1 -119.05469 371.82812 L -119.05469 366.61328 C -119.05469 363.47249 -121.58382 360.94531 -124.72461 360.94531 C -127.8654 360.94531 -130.39453 363.47249 -130.39453 366.61328 L -130.39453 371.82812 A 37.795276 37.795276 0 0 1 -153.07031 359.45508 L -153.07031 351.49609 L -158.74023 351.49609 L -158.74023 377.95312 L -115.48828 377.95312 L -115.48828 387.61328 C -115.48828 388.66021 -114.64458 389.50391 -113.59766 389.50391 L -87.150391 389.50391 C -86.103464 389.50391 -85.259766 388.66021 -85.259766 387.61328 L -85.259766 377.95312 L 85.259766 377.95312 L 85.259766 387.61328 C 85.259766 388.66021 86.103464 389.50391 87.150391 389.50391 L 113.59766 389.50391 C 114.64458 389.50391 115.48828 388.66021 115.48828 387.61328 L 115.48828 377.95312 L 158.74023 377.95312 L 158.74023 351.49609 L 153.07031 351.49609 L 153.07031 359.45117 A 37.795276 37.795276 0 0 1 130.39453 371.79883 L 130.39453 366.61328 C 130.39453 363.47249 127.8654 360.94531 124.72461 360.94531 C 121.58382 360.94531 119.05469 363.47249 119.05469 366.61328 L 119.05469 371.79883 A 37.795276 37.795276 0 0 1 96.378906 359.45312 L 96.378906 351.49609 L 88.818359 351.49609 C 87.771432 351.49609 86.929687 350.6524 86.929688 349.60547 L 86.929688 319.36914 C 86.929688 318.32221 87.771432 317.48047 88.818359 317.48047 L 96.378906 317.48047 L 96.378906 309.52344 A 37.795276 37.795276 0 0 1 119.05469 297.17773 L 119.05469 302.36133 C 119.05469 305.50212 121.58382 308.03125 124.72461 308.03125 C 127.8654 308.03125 130.39453 305.50212 130.39453 302.36133 L 130.39453 297.17383 A 37.795276 37.795276 0 0 1 153.07031 309.49023 L 153.07031 317.48047 L 158.74023 317.48047 L 158.74023 302.36133 L 167.24414 302.36133 C 167.24414 300.26747 168.50774 298.58203 170.07812 298.58203 C 171.59915 298.58203 172.81056 300.17385 172.88672 302.17578 C 174.52119 301.75889 175.74805 300.34997 175.74805 298.58203 L 175.74805 287.24414 C 175.74805 285.4762 174.52119 284.06729 172.88672 283.65039 C 172.81056 285.65232 171.59915 287.24414 170.07812 287.24414 C 168.50774 287.24414 167.24414 285.5587 167.24414 283.46484 L 158.74023 283.46484 C 158.74023 279.27713 155.36936 275.90625 151.18164 275.90625 L 60.472656 275.90625 L 60.472656 285.35352 C 60.472656 286.40044 59.628958 287.24414 58.582031 287.24414 L 17.007812 287.24414 C 15.960886 287.24414 15.117187 286.40044 15.117188 285.35352 L 15.117188 278.74023 C 13.023329 278.74023 11.337891 277.47664 11.337891 275.90625 C 11.337891 274.38523 12.92971 273.17381 14.931641 273.09766 C 14.514745 271.4632 13.105833 270.23633 11.337891 270.23633 L -11.337891 270.23633 z "
       transform="scale(0.26458333)" />
  </g>
</svg>
