<?xml version="1.0" encoding="UTF-8" standalone="no"?>
<!-- Created with Inkscape (http://www.inkscape.org/) -->

<svg
   width="100mm"
   height="100mm"
   viewBox="0 0 100 100"
   version="1.1"
   id="svg5"
   inkscape:version="1.1.2 (0a00cf5339, 2022-02-04)"
   sodipodi:docname="bot_phone_back_flat.svg"
   xmlns:inkscape="http://www.inkscape.org/namespaces/inkscape"
   xmlns:sodipodi="http://sodipodi.sourceforge.net/DTD/sodipodi-0.dtd"
   xmlns="http://www.w3.org/2000/svg"
   xmlns:svg="http://www.w3.org/2000/svg">
  <sodipodi:namedview
     id="namedview7"
     pagecolor="#ffffff"
     bordercolor="#666666"
     borderopacity="1.0"
     inkscape:pageshadow="2"
     inkscape:pageopacity="0.0"
     inkscape:pagecheckerboard="0"
     inkscape:document-units="mm"
     showgrid="false"
     inkscape:zoom="1.9839829"
     inkscape:cx="-132.05759"
     inkscape:cy="178.68097"
     inkscape:window-width="2560"
     inkscape:window-height="1409"
     inkscape:window-x="2560"
     inkscape:window-y="0"
     inkscape:window-maximized="1"
     inkscape:current-layer="layer1"
     inkscape:snap-page="true"
     inkscape:snap-global="false" />
  <defs
     id="defs2" />
  <g
     inkscape:label="Layer 1"
     inkscape:groupmode="layer"
     id="layer1">
    <path
       id="rect1416"
       style="fill:none;stroke:#000000;stroke-width:0.377952"
       d="M -128.50391 0.77734375 C -145.25477 0.77734375 -158.74023 14.093285 -158.74023 30.634766 L -158.74023 245.66992 L -151.18164 245.66992 C -151.18164 241.48221 -147.80881 238.10938 -143.62109 238.10938 C -139.43338 238.10938 -136.0625 241.48221 -136.0625 245.66992 L -136.0625 253.22852 C -136.0625 253.35938 -136.06576 253.48995 -136.07227 253.61914 C -136.07877 253.74833 -136.08871 253.87654 -136.10156 254.00391 C -136.11442 254.13127 -136.13134 254.25743 -136.15039 254.38281 C -136.16944 254.50819 -136.19171 254.63262 -136.2168 254.75586 C -136.24189 254.8791 -136.26981 255.00015 -136.30078 255.12109 C -136.33176 255.24204 -136.36564 255.36198 -136.40234 255.48047 C -136.43904 255.59896 -136.47726 255.71615 -136.51953 255.83203 C -136.5618 255.94792 -136.60661 256.06266 -136.6543 256.17578 C -136.70198 256.2889 -136.75369 256.40152 -136.80664 256.51172 C -136.85959 256.62192 -136.91461 256.73077 -136.97266 256.83789 C -137.03071 256.94501 -137.0913 257.0504 -137.1543 257.1543 C -137.21729 257.25819 -137.28182 257.36043 -137.34961 257.46094 C -137.4174 257.56144 -137.48812 257.6589 -137.56055 257.75586 C -137.63297 257.85282 -137.70825 257.94775 -137.78516 258.04102 C -137.93896 258.22754 -138.1007 258.40735 -138.27148 258.57812 C -138.35688 258.66352 -138.44575 258.74691 -138.53516 258.82812 C -138.62456 258.90935 -138.71533 258.9895 -138.80859 259.06641 C -138.90185 259.14331 -138.99679 259.21664 -139.09375 259.28906 C -139.19071 259.36149 -139.29013 259.43221 -139.39062 259.5 C -139.49113 259.56779 -139.59337 259.63232 -139.69727 259.69531 C -139.80116 259.75831 -139.90655 259.8189 -140.01367 259.87695 C -140.1208 259.935 -140.22964 259.99198 -140.33984 260.04492 C -140.45004 260.09787 -140.56071 260.14763 -140.67383 260.19531 C -140.78695 260.243 -140.90169 260.28781 -141.01758 260.33008 C -141.13346 260.37235 -141.25065 260.41252 -141.36914 260.44922 C -141.48763 260.48592 -141.60757 260.51981 -141.72852 260.55078 C -141.84946 260.58176 -141.97246 260.60967 -142.0957 260.63477 C -142.21894 260.65986 -142.34337 260.68212 -142.46875 260.70117 C -142.59413 260.72022 -142.72029 260.73519 -142.84766 260.74805 C -142.97502 260.7609 -143.10323 260.77084 -143.23242 260.77734 C -143.36162 260.78385 -143.49023 260.78711 -143.62109 260.78711 L -158.74023 260.78711 L -158.74023 264.56641 L -170.07812 264.56641 L -170.07812 321.25977 L -158.74023 321.25977 L -158.74023 377.95312 L -22.677734 377.95312 L -22.677734 391.18164 C -22.677734 392.22857 -21.834036 393.07031 -20.787109 393.07031 L 20.787109 393.07031 C 21.834036 393.07031 22.677734 392.22857 22.677734 391.18164 L 22.677734 377.95312 L 158.74023 377.95312 L 158.74023 321.25977 L 170.07812 321.25977 L 170.07812 264.56641 L 158.74023 264.56641 L 158.74023 260.78711 L 143.62109 260.78711 C 139.43338 260.78711 136.0625 257.41623 136.0625 253.22852 L 136.0625 245.66992 C 136.0625 241.48221 139.43338 238.10938 143.62109 238.10938 C 147.80881 238.10938 151.18164 241.48221 151.18164 245.66992 L 158.74023 245.66992 L 158.74023 30.634766 C 158.74023 14.093285 145.25477 0.77734375 128.50391 0.77734375 L -128.50391 0.77734375 z "
       transform="scale(0.26458333)" />
  </g>
</svg>
