<?xml version="1.0" encoding="UTF-8" standalone="no"?>
<!-- Created with Inkscape (http://www.inkscape.org/) -->

<svg
   width="100mm"
   height="100mm"
   viewBox="0 0 100 100"
   version="1.1"
   id="svg5"
   inkscape:version="1.1.2 (0a00cf5339, 2022-02-04)"
   sodipodi:docname="bot_baseplate.svg"
   xmlns:inkscape="http://www.inkscape.org/namespaces/inkscape"
   xmlns:sodipodi="http://sodipodi.sourceforge.net/DTD/sodipodi-0.dtd"
   xmlns="http://www.w3.org/2000/svg"
   xmlns:svg="http://www.w3.org/2000/svg">
  <sodipodi:namedview
     id="namedview7"
     pagecolor="#ffffff"
     bordercolor="#666666"
     borderopacity="1.0"
     inkscape:pageshadow="2"
     inkscape:pageopacity="0.0"
     inkscape:pagecheckerboard="0"
     inkscape:document-units="mm"
     showgrid="false"
     inkscape:zoom="2.1548784"
     inkscape:cx="24.595355"
     inkscape:cy="567.54943"
     inkscape:window-width="2560"
     inkscape:window-height="1382"
     inkscape:window-x="0"
     inkscape:window-y="0"
     inkscape:window-maximized="1"
     inkscape:current-layer="layer1"
     inkscape:snap-bbox="true"
     inkscape:snap-bbox-edge-midpoints="true"
     inkscape:bbox-nodes="true"
     inkscape:bbox-paths="true"
     inkscape:snap-intersection-paths="true"
     inkscape:snap-global="true"
     inkscape:snap-bbox-midpoints="false" />
  <defs
     id="defs2" />
  <g
     inkscape:label="Layer 1"
     inkscape:groupmode="layer"
     id="layer1">
    <rect
       style="fill:none;stroke:#ff0000;stroke-width:0.0999995"
       id="rect1416"
       width="7.9976153"
       height="1.6"
       x="-30.556"
       y="68.799995" />
    <rect
       style="fill:none;stroke:#ff0000;stroke-width:0.0999995"
       id="rect1418"
       width="7.9976153"
       height="1.6"
       x="22.558384"
       y="68.799995" />
    <rect
       style="fill:none;stroke:#ff0000;stroke-width:0.0999995"
       id="rect3260"
       width="7.9976153"
       height="1.6"
       x="-30.556"
       y="128.2" />
    <rect
       style="fill:none;stroke:#ff0000;stroke-width:0.0999995"
       id="rect3262"
       width="7.9976153"
       height="1.6"
       x="22.558384"
       y="128.2" />
    <path
       id="rect3354"
       style="fill:none;stroke:#000000;stroke-width:0.0999995"
       d="m -34,63.803005 h 68 c 4.432,0 8,3.568 8,8 l 0,94.771395 c 0,4.432 -23.568,17.49905 -28,17.49905 l -28,0 c -4.432,0 -28,-13.0703 -28,-17.5023 l 0,-94.768145 c 0,-4.432 3.568,-8 8,-8 z"
       sodipodi:nodetypes="sssssssss" />
    <circle
       style="fill:none;stroke:#ff0000;stroke-width:0.1"
       id="path3697"
       cx="-1.3877788e-17"
       cy="82.049995"
       r="5.2999997" />
    <circle
       style="fill:none;stroke:#ff0000;stroke-width:0.1"
       id="circle4079"
       cx="16.901867"
       cy="169.79553"
       r="1.5" />
    <circle
       style="fill:none;stroke:#ff0000;stroke-width:0.1"
       id="circle4081"
       cx="-17.098133"
       cy="169.79553"
       r="1.5" />
    <rect
       style="fill:none;stroke:#00ff00;stroke-width:0.1"
       id="rect414"
       width="44"
       height="28"
       x="-22.098133"
       y="155.79553"
       rx="7.9999948"
       ry="7.9000082" />
    <rect
       style="fill:none;stroke:#000000;stroke-width:0.1"
       id="rect253"
       width="3"
       height="20"
       x="-63"
       y="73.848923"
       transform="scale(-1,1)" />
    <rect
       style="fill:none;stroke:#000000;stroke-width:0.1"
       id="rect255"
       height="20"
       x="-64.5"
       y="73.848923"
       transform="scale(-1,1)"
       width="3"
       ry="1"
       rx="1" />
    <rect
       style="fill:none;stroke:#ff0000;stroke-width:0.0999996"
       id="rect511"
       width="1.5"
       height="2"
       x="62.25"
       y="72.848923"
       rx="1.0000006"
       ry="1.0000006" />
    <rect
       style="fill:none;stroke:#ff0000;stroke-width:0.0999996"
       id="rect753"
       width="1.5"
       height="2"
       x="62.25"
       y="92.848923"
       rx="1.0000006"
       ry="1.0000006" />
    <path
       id="rect835"
       style="fill:none;stroke:#000000;stroke-width:0.377953"
       d="M 188.97656 279.11328 L 188.97656 354.70508 L 197.48047 354.70508 C 197.48047 352.64394 198.70598 350.97733 200.24219 350.92578 C 200.26657 350.92496 200.28992 350.92578 200.31445 350.92578 C 201.85171 350.92578 203.08876 352.54393 203.14062 354.57617 C 204.77647 354.16021 205.98437 352.6947 205.98438 350.92578 L 205.98438 282.89453 C 205.98438 281.12561 204.77647 279.65858 203.14062 279.24219 C 203.08876 281.27451 201.85171 282.89453 200.31445 282.89453 C 198.74406 282.89453 197.48047 281.20714 197.48047 279.11328 L 188.97656 279.11328 z "
       transform="scale(0.26458333)" />
    <path
       id="path846"
       style="fill:none;stroke:#000000;stroke-width:0.1"
       d="m 42,73.978653 v 20.00033 h 2.249993 c 0,-0.545343 0.324249,-0.9863 0.730705,-0.99994 0.0065,-2.17e-4 0.01263,0 0.01912,0 0.406733,0 0.734036,0.428136 0.747757,0.965833 0.432819,-0.110056 0.752409,-0.497806 0.752412,-0.965833 V 74.979109 c 0,-0.468027 -0.319593,-0.856179 -0.752412,-0.966349 -0.01372,0.537718 -0.341024,0.966349 -0.747757,0.966349 -0.415499,0 -0.749824,-0.446456 -0.749824,-1.000456 z" />
    <path
       id="path928"
       style="fill:none;stroke:#000000;stroke-width:0.1"
       d="m 42,109.87792 v 20.00033 h 2.249993 c 0,-0.54534 0.324249,-0.9863 0.730705,-0.99994 0.0065,-2.1e-4 0.01263,0 0.01912,0 0.406733,0 0.734036,0.42814 0.747757,0.96584 0.432819,-0.11006 0.752409,-0.49781 0.752412,-0.96584 v -17.99993 c 0,-0.46803 -0.319593,-0.85618 -0.752412,-0.96635 -0.01372,0.53772 -0.341024,0.96635 -0.747757,0.96635 -0.415499,0 -0.749824,-0.44646 -0.749824,-1.00046 z" />
    <path
       id="path930"
       style="fill:none;stroke:#000000;stroke-width:0.1"
       d="m 42,145.77703 v 20.00033 h 2.249993 c 0,-0.54534 0.324249,-0.9863 0.730705,-0.99994 0.0065,-2.1e-4 0.01263,0 0.01912,0 0.406733,0 0.734036,0.42814 0.747757,0.96584 0.432819,-0.11006 0.752409,-0.49781 0.752412,-0.96584 v -17.99993 c 0,-0.46803 -0.319593,-0.85618 -0.752412,-0.96635 -0.01372,0.53772 -0.341024,0.96635 -0.747757,0.96635 -0.415499,0 -0.749824,-0.44646 -0.749824,-1.00046 z" />
    <path
       id="path932"
       style="fill:none;stroke:#000000;stroke-width:0.1"
       d="m -42,165.77752 v -20.00033 h -2.249993 c 0,0.54534 -0.324249,0.9863 -0.730705,0.99994 -0.0065,2.1e-4 -0.01263,0 -0.01912,0 -0.406733,0 -0.734036,-0.42814 -0.747757,-0.96584 -0.432819,0.11006 -0.752409,0.49781 -0.752412,0.96584 v 17.99993 c 0,0.46803 0.319593,0.85618 0.752412,0.96635 0.01372,-0.53772 0.341024,-0.96635 0.747757,-0.96635 0.415499,0 0.749824,0.44646 0.749824,1.00046 z" />
    <path
       id="path934"
       style="fill:none;stroke:#000000;stroke-width:0.1"
       d="m -42,129.87825 v -20.00033 h -2.249993 c 0,0.54534 -0.324249,0.9863 -0.730705,0.99994 -0.0065,2.1e-4 -0.01263,0 -0.01912,0 -0.406733,0 -0.734036,-0.42814 -0.747757,-0.96584 -0.432819,0.11006 -0.752409,0.49781 -0.752412,0.96584 v 17.99993 c 0,0.46803 0.319593,0.85618 0.752412,0.96635 0.01372,-0.53772 0.341024,-0.96635 0.747757,-0.96635 0.415499,0 0.749824,0.44646 0.749824,1.00046 z" />
    <path
       id="path936"
       style="fill:none;stroke:#000000;stroke-width:0.1"
       d="m -42,93.978983 v -20.00033 h -2.249993 c 0,0.54534 -0.324249,0.9863 -0.730705,0.99994 -0.0065,2.1e-4 -0.01263,0 -0.01912,0 -0.406733,0 -0.734036,-0.42814 -0.747757,-0.96584 -0.432819,0.11006 -0.752409,0.49781 -0.752412,0.96584 v 17.99993 c 0,0.46803 0.319593,0.85618 0.752412,0.96635 0.01372,-0.53772 0.341024,-0.96635 0.747757,-0.96635 0.415499,0 0.749824,0.44646 0.749824,1.00046 z" />
    <path
       style="fill:none;stroke:#ff0000;stroke-width:0.0999995"
       d="m -6.0001251,155.04007 h 12.0003 v 5.2476 h -12.0003 z"
       id="path2737" />
    <path
       style="fill:none;stroke:#ff0000;stroke-width:0.0999995"
       d="m -6.0001251,144.75124 h 12.0003 v 4.01319 h -12.0003 z"
       id="path2731" />
    <path
       style="fill:none;stroke:#ff0000;stroke-width:0.0999995"
       d="m -6.0001251,137.2094 h 12.0003 v 3.19814 h -12.0003 z"
       id="path2729" />
  </g>
</svg>
