<?xml version="1.0" encoding="UTF-8" standalone="no"?>
<!-- Created with Inkscape (http://www.inkscape.org/) -->

<svg
   width="100mm"
   height="100mm"
   viewBox="0 0 100 100"
   version="1.1"
   id="svg5"
   inkscape:version="1.1.2 (0a00cf5339, 2022-02-04)"
   sodipodi:docname="bot_motorfront_flat.svg"
   xmlns:inkscape="http://www.inkscape.org/namespaces/inkscape"
   xmlns:sodipodi="http://sodipodi.sourceforge.net/DTD/sodipodi-0.dtd"
   xmlns="http://www.w3.org/2000/svg"
   xmlns:svg="http://www.w3.org/2000/svg">
  <sodipodi:namedview
     id="namedview7"
     pagecolor="#ffffff"
     bordercolor="#666666"
     borderopacity="1.0"
     inkscape:pageshadow="2"
     inkscape:pageopacity="0.0"
     inkscape:pagecheckerboard="0"
     inkscape:document-units="mm"
     showgrid="false"
     inkscape:zoom="3.5758652"
     inkscape:cx="-25.168734"
     inkscape:cy="329.99006"
     inkscape:window-width="2560"
     inkscape:window-height="1382"
     inkscape:window-x="0"
     inkscape:window-y="0"
     inkscape:window-maximized="1"
     inkscape:current-layer="layer1"
     inkscape:snap-page="true"
     inkscape:snap-global="false" />
  <defs
     id="defs2" />
  <g
     inkscape:label="Layer 1"
     inkscape:groupmode="layer"
     id="layer1">
    <path
       id="rect1416"
       style="fill:none;stroke:#000000;stroke-width:0.377952"
       d="M -177.63867 275.90625 C -181.82639 275.90625 -185.19727 279.27713 -185.19727 283.46484 L -196.53516 283.46484 L -196.53516 302.36133 L -185.19727 302.36133 L -185.19727 310.95898 L -185.19727 317.48047 L -179.52734 317.48047 L -179.52734 309.57422 A 37.795276 37.795276 0 0 1 -156.84961 297.16211 L -156.84961 302.36133 C -156.84961 305.50212 -154.32243 308.03125 -151.18164 308.03125 C -148.04085 308.03125 -145.51172 305.50212 -145.51172 302.36133 L -145.51172 297.12695 A 37.795276 37.795276 0 0 1 -122.83398 309.54102 L -122.83398 317.48047 L -115.27539 317.48047 C -114.22846 317.48047 -113.38672 318.32221 -113.38672 319.36914 L -113.38672 349.60547 C -113.38672 350.6524 -114.22846 351.49609 -115.27539 351.49609 L -122.83398 351.49609 L -122.83398 359.40234 A 37.795276 37.795276 0 0 1 -145.51172 371.81445 L -145.51172 366.61328 C -145.51172 363.47249 -148.04085 360.94531 -151.18164 360.94531 C -154.32243 360.94531 -156.84961 363.47249 -156.84961 366.61328 L -156.84961 371.81445 A 37.795276 37.795276 0 0 1 -179.52734 359.40234 L -179.52734 351.49609 L -185.19727 351.49609 L -185.19727 377.95312 L -115.48828 377.95312 L -115.48828 387.61328 C -115.48828 388.66021 -114.64458 389.50391 -113.59766 389.50391 L -87.150391 389.50391 C -86.103464 389.50391 -85.259766 388.66021 -85.259766 387.61328 L -85.259766 377.95312 L 85.259766 377.95312 L 85.259766 387.61328 C 85.259766 388.66021 86.103464 389.50391 87.150391 389.50391 L 113.59766 389.50391 C 114.64458 389.50391 115.48828 388.66021 115.48828 387.61328 L 115.48828 377.95312 L 185.19727 377.95312 L 185.19727 351.49609 L 179.52734 351.49609 L 179.52734 359.45117 A 37.795276 37.795276 0 0 1 156.84961 371.79883 L 156.84961 366.61328 C 156.84961 363.47249 154.32243 360.94531 151.18164 360.94531 C 148.04085 360.94531 145.51172 363.47249 145.51172 366.61328 L 145.51172 371.79883 A 37.795276 37.795276 0 0 1 122.83398 359.45117 L 122.83398 351.49609 L 115.27539 351.49609 C 114.22846 351.49609 113.38672 350.6524 113.38672 349.60547 L 113.38672 319.36914 C 113.38672 318.32221 114.22846 317.48047 115.27539 317.48047 L 122.83398 317.48047 L 122.83398 309.52539 A 37.795276 37.795276 0 0 1 145.51172 297.17773 L 145.51172 302.36133 C 145.51172 305.50212 148.04085 308.03125 151.18164 308.03125 C 154.32243 308.03125 156.84961 305.50212 156.84961 302.36133 L 156.84961 297.17188 A 37.795276 37.795276 0 0 1 179.52734 309.49023 L 179.52734 317.48047 L 185.19727 317.48047 L 185.19727 302.36133 L 196.53516 302.36133 L 196.53516 283.46484 L 185.19727 283.46484 C 185.19727 279.27713 181.82639 275.90625 177.63867 275.90625 L 60.472656 275.90625 L 60.472656 285.35352 C 60.472656 286.40044 59.628958 287.24414 58.582031 287.24414 L 17.007812 287.24414 C 15.960886 287.24414 15.117187 286.40044 15.117188 285.35352 L 15.117188 275.90625 L -15.117188 275.90625 L -15.117188 285.35352 C -15.117187 286.40044 -15.960886 287.24414 -17.007812 287.24414 L -58.582031 287.24414 C -59.628958 287.24414 -60.472656 286.40044 -60.472656 285.35352 L -60.472656 275.90625 L -177.63867 275.90625 z "
       transform="scale(0.26458333)" />
  </g>
</svg>
