<?xml version="1.0" encoding="UTF-8" standalone="no"?>
<!-- Created with Inkscape (http://www.inkscape.org/) -->

<svg
   width="100mm"
   height="100mm"
   viewBox="0 0 100 100"
   version="1.1"
   id="svg5"
   inkscape:version="1.1.2 (0a00cf5339, 2022-02-04)"
   sodipodi:docname="bot_baseplate_flat.svg"
   xmlns:inkscape="http://www.inkscape.org/namespaces/inkscape"
   xmlns:sodipodi="http://sodipodi.sourceforge.net/DTD/sodipodi-0.dtd"
   xmlns="http://www.w3.org/2000/svg"
   xmlns:svg="http://www.w3.org/2000/svg">
  <sodipodi:namedview
     id="namedview7"
     pagecolor="#ffffff"
     bordercolor="#666666"
     borderopacity="1.0"
     inkscape:pageshadow="2"
     inkscape:pageopacity="0.0"
     inkscape:pagecheckerboard="0"
     inkscape:document-units="mm"
     showgrid="false"
     inkscape:zoom="1.1940541"
     inkscape:cx="-499.97733"
     inkscape:cy="345.04298"
     inkscape:window-width="2560"
     inkscape:window-height="1382"
     inkscape:window-x="0"
     inkscape:window-y="0"
     inkscape:window-maximized="1"
     inkscape:current-layer="layer1"
     inkscape:snap-bbox="true"
     inkscape:snap-bbox-edge-midpoints="true"
     inkscape:bbox-nodes="true"
     inkscape:bbox-paths="true"
     inkscape:snap-intersection-paths="true"
     inkscape:snap-global="true"
     inkscape:snap-bbox-midpoints="false" />
  <defs
     id="defs2" />
  <g
     inkscape:label="Layer 1"
     inkscape:groupmode="layer"
     id="layer1">
    <path
       id="rect3354"
       style="fill:none;stroke:#000000;stroke-width:0.377951"
       transform="scale(0.26458333)"
       d="m -128.50391,241.14453 c -16.75086,0 -30.23632,13.48546 -30.23632,30.23633 v 8.22266 h -8.50391 c 0,2.06112 -1.22551,3.72774 -2.76172,3.77929 -0.0246,8e-4 -0.0477,0 -0.0723,0 -1.53726,0 -2.77432,-1.61814 -2.82618,-3.65039 -1.63585,0.41598 -2.84374,1.88146 -2.84375,3.65039 v 68.03125 c 0,1.76893 1.2079,3.23596 2.84375,3.65235 0.0519,-2.03233 1.28892,-3.65235 2.82618,-3.65235 1.57037,0 2.83398,1.68739 2.83398,3.78125 h 8.50391 v 60.0918 h -8.50391 c 0,2.06113 -1.22551,3.72774 -2.76172,3.7793 -0.0246,7.9e-4 -0.0477,0 -0.0723,0 -1.53726,0 -2.77432,-1.61814 -2.82618,-3.65039 -1.63585,0.41597 -2.84374,1.88145 -2.84375,3.65039 v 68.03125 c 0,1.76893 1.2079,3.23595 2.84375,3.65234 0.0519,-2.03233 1.28892,-3.65234 2.82618,-3.65234 1.57037,0 2.83398,1.68739 2.83398,3.78125 h 8.50391 v 60.08984 h -8.50391 c 0,2.06113 -1.22551,3.72774 -2.76172,3.7793 -0.0246,7.9e-4 -0.0477,0 -0.0723,0 -1.53726,0 -2.77432,-1.61814 -2.82618,-3.65039 -1.63585,0.41597 -2.84374,1.88145 -2.84375,3.65039 v 68.03125 c 0,1.76893 1.2079,3.23595 2.84375,3.65234 0.0519,-2.03233 1.28892,-3.65234 2.82618,-3.65234 1.57037,0 2.83398,1.68739 2.83398,3.78125 h 8.50391 v 3 c 0,16.75086 89.075301,66.15039 105.826168,66.15039 H 52.914062 c 16.750867,0 105.826168,-49.38781 105.826168,-66.13867 v -3.01172 h 8.50391 c 0,-2.06113 1.22551,-3.72775 2.76172,-3.7793 0.0246,-7.9e-4 0.0477,0 0.0723,0 1.53726,0 2.77432,1.61814 2.82618,3.65039 1.63585,-0.41597 2.84374,-1.88146 2.84375,-3.65039 V 554.75 c 0,-1.76893 -1.2079,-3.23595 -2.84375,-3.65234 -0.0519,2.03232 -1.28892,3.65234 -2.82618,3.65234 -1.57037,0 -2.83398,-1.68739 -2.83398,-3.78125 h -8.50391 v -60.08984 h 8.50391 c 0,-2.06113 1.22551,-3.72775 2.76172,-3.7793 0.0246,-7.9e-4 0.0477,0 0.0723,0 1.53726,0 2.77432,1.61814 2.82618,3.65039 1.63585,-0.41597 2.84374,-1.88146 2.84375,-3.65039 v -68.03125 c 0,-1.76893 -1.2079,-3.23595 -2.84375,-3.65234 -0.0519,2.03232 -1.28892,3.65234 -2.82618,3.65234 -1.57037,0 -2.83398,-1.68739 -2.83398,-3.78125 h -8.50391 v -60.0918 h 8.50391 c 0,-2.06114 1.22551,-3.72774 2.76172,-3.77929 0.0246,-8.2e-4 0.0477,0 0.0723,0 1.53726,0 2.77432,1.61815 2.82618,3.65039 1.63585,-0.41596 2.84374,-1.88147 2.84375,-3.65039 v -68.03125 c 0,-1.76893 -1.2079,-3.23596 -2.84375,-3.65235 -0.0519,2.03232 -1.28892,3.65235 -2.82618,3.65235 -1.57037,0 -2.83398,-1.6874 -2.83398,-3.78125 h -8.50391 v -8.22266 c 0,-16.75087 -13.48546,-30.23633 -30.23632,-30.23633 z m 13.01758,18.88672 h 30.226564 v 6.04687 h -30.226564 z m 200.746096,0 h 30.226564 v 6.04687 H 85.259766 Z M 0,290.07812 c 11.062902,1.4e-4 20.03112,8.96836 20.03125,20.03126 9.42e-4,11.06366 -8.967591,20.03306 -20.03125,20.0332 -11.063659,-1.4e-4 -20.032192,-8.96954 -20.03125,-20.0332 1.3e-4,-11.0629 8.968348,-20.03112 20.03125,-20.03126 z m -115.48633,194.45704 h 30.226564 v 6.04687 h -30.226564 z m 200.746096,0 h 30.226564 v 6.04687 H 85.259766 Z m -107.9375,34.05087 h 45.355468 v 12.08746 h -45.355468 z m 0,28.5046 h 45.355468 v 15.16796 h -45.355468 z m -41.945313,88.98749 c 3.130794,-3.5e-4 5.669192,2.53718 5.669922,5.66797 3.53e-4,3.13156 -2.538363,5.67028 -5.669922,5.66993 -3.131559,3.5e-4 -5.670275,-2.53837 -5.669922,-5.66993 7.3e-4,-3.13079 2.539128,-5.66832 5.669922,-5.66797 z m 128.503906,0 c 3.130794,-3.5e-4 5.669192,2.53718 5.669922,5.66797 3.53e-4,3.13156 -2.538363,5.67028 -5.669922,5.66993 -3.131559,3.5e-4 -5.670274,-2.53837 -5.669921,-5.66993 7.3e-4,-3.13079 2.539128,-5.66832 5.669921,-5.66797 z m -86.558593,-50.10058 h 45.355468 v 19.83345 h -45.355468 z" />
  </g>
</svg>
