<?xml version="1.0" encoding="UTF-8" standalone="no"?>
<!-- Created with Inkscape (http://www.inkscape.org/) -->

<svg
   width="100mm"
   height="100mm"
   viewBox="0 0 100 100"
   version="1.1"
   id="svg5"
   inkscape:version="1.1.2 (0a00cf5339, 2022-02-04)"
   sodipodi:docname="bot_side_flat.svg"
   xmlns:inkscape="http://www.inkscape.org/namespaces/inkscape"
   xmlns:sodipodi="http://sodipodi.sourceforge.net/DTD/sodipodi-0.dtd"
   xmlns="http://www.w3.org/2000/svg"
   xmlns:svg="http://www.w3.org/2000/svg">
  <sodipodi:namedview
     id="namedview7"
     pagecolor="#ffffff"
     bordercolor="#666666"
     borderopacity="1.0"
     inkscape:pageshadow="2"
     inkscape:pageopacity="0.0"
     inkscape:pagecheckerboard="0"
     inkscape:document-units="mm"
     showgrid="false"
     inkscape:zoom="3.3070523"
     inkscape:cx="22.981191"
     inkscape:cy="333.22726"
     inkscape:window-width="2560"
     inkscape:window-height="1382"
     inkscape:window-x="0"
     inkscape:window-y="0"
     inkscape:window-maximized="1"
     inkscape:current-layer="layer1"
     inkscape:snap-bbox="true"
     inkscape:snap-bbox-edge-midpoints="true"
     inkscape:bbox-nodes="true"
     inkscape:bbox-paths="true"
     inkscape:snap-intersection-paths="true"
     inkscape:snap-global="true"
     inkscape:snap-smooth-nodes="true" />
  <defs
     id="defs2" />
  <g
     inkscape:label="Layer 1"
     inkscape:groupmode="layer"
     id="layer1">
    <path
       id="rect635-8"
       style="fill:none;stroke:#000000;stroke-width:0.377949"
       d="M 120.06836 275.90625 L -118.04883 276.15039 C -130.61198 276.16324 -137.50396 287.33046 -140.72656 300.33789 C -146.35993 323.07596 -157.05723 343.88114 -156.96484 369.08008 C -156.91503 382.672 -146.85026 397.09375 -134.28711 397.09375 L 248.33398 397.09375 C 260.89713 397.09375 271.01172 386.30694 271.01172 372.90625 L 271.01172 360.33008 C 271.01172 322.72372 206.90699 276.15039 179.93945 276.15039 L 145.14258 276.15039 L 143.91211 276.13867 C 142.68234 276.48564 141.61857 277.24613 142.5332 278.98438 L 179.94922 323.70312 L 170.83594 330.76562 L 158.625 316.99219 L 144.81445 323.61133 L 141.58008 316.5332 L 130.12109 318.68164 L 123.0293 278.28906 C 122.142 276.37652 121.44637 276.12174 120.73633 275.91211 L 120.06836 275.90625 z M 106.58203 279.68555 L 112.63086 279.68555 L 112.63086 298.58203 L 106.58203 298.58203 L 106.58203 279.68555 z M -118.04883 283.46484 L -112.00195 283.46484 L -112.00195 302.36133 L -118.04883 302.36133 L -118.04883 283.46484 z M 10.205078 293.30469 A 5.6692912 5.6692912 0 0 1 15.873047 298.97461 A 5.6692912 5.6692912 0 0 1 10.205078 304.64258 A 5.6692912 5.6692912 0 0 1 4.5351562 298.97461 A 5.6692912 5.6692912 0 0 1 10.205078 293.30469 z M -67.892578 311.63477 A 20.787402 20.787402 0 0 1 -47.103516 332.42188 A 20.787402 20.787402 0 0 1 -67.892578 353.21094 A 20.787402 20.787402 0 0 1 -88.679688 332.42188 A 20.787402 20.787402 0 0 1 -67.892578 311.63477 z M 44.597656 322.0293 L 57.826172 322.0293 L 57.826172 342.81641 L 44.597656 342.81641 L 44.597656 322.0293 z M -22.416016 323.23438 A 9.1880782 9.1880782 0 0 1 -13.228516 332.42188 A 9.1880782 9.1880782 0 0 1 -22.416016 341.61133 A 9.1880782 9.1880782 0 0 1 -31.603516 332.42188 A 9.1880782 9.1880782 0 0 1 -22.416016 323.23438 z M 10.205078 360.20312 A 5.6692912 5.6692912 0 0 1 15.873047 365.87109 A 5.6692912 5.6692912 0 0 1 10.205078 371.54102 A 5.6692912 5.6692912 0 0 1 4.5351562 365.87109 A 5.6692912 5.6692912 0 0 1 10.205078 360.20312 z M -147.40234 363.19336 L -120.94531 363.19336 L -120.94531 374.91016 L -147.40234 374.91016 L -147.40234 363.19336 z M -97.927734 374.92969 L -22.337891 374.92969 L -22.337891 380.97656 L -97.927734 380.97656 L -97.927734 374.92969 z M 37.285156 374.92969 L 112.87695 374.92969 L 112.87695 380.97656 L 37.285156 380.97656 L 37.285156 374.92969 z M 172.5 374.92969 L 248.08984 374.92969 L 248.08984 380.97656 L 172.5 380.97656 L 172.5 374.92969 z "
       transform="scale(0.26458333)" />
  </g>
</svg>
