<?xml version="1.0" encoding="UTF-8" standalone="no"?>
<!-- Created with Inkscape (http://www.inkscape.org/) -->

<svg
   width="100mm"
   height="100mm"
   viewBox="0 0 100 100"
   version="1.1"
   id="svg5"
   inkscape:version="1.1.2 (0a00cf5339, 2022-02-04)"
   sodipodi:docname="bot_phone_back_flat.svg"
   xmlns:inkscape="http://www.inkscape.org/namespaces/inkscape"
   xmlns:sodipodi="http://sodipodi.sourceforge.net/DTD/sodipodi-0.dtd"
   xmlns="http://www.w3.org/2000/svg"
   xmlns:svg="http://www.w3.org/2000/svg">
  <sodipodi:namedview
     id="namedview7"
     pagecolor="#ffffff"
     bordercolor="#666666"
     borderopacity="1.0"
     inkscape:pageshadow="2"
     inkscape:pageopacity="0.0"
     inkscape:pagecheckerboard="0"
     inkscape:document-units="mm"
     showgrid="false"
     inkscape:zoom="2.8098689"
     inkscape:cx="-45.019894"
     inkscape:cy="294.31978"
     inkscape:window-width="2560"
     inkscape:window-height="1382"
     inkscape:window-x="0"
     inkscape:window-y="0"
     inkscape:window-maximized="1"
     inkscape:current-layer="layer1"
     inkscape:snap-page="true"
     inkscape:snap-global="true"
     inkscape:snap-object-midpoints="true" />
  <defs
     id="defs2" />
  <g
     inkscape:label="Layer 1"
     inkscape:groupmode="layer"
     id="layer1">
    <path
       id="rect1416"
       style="fill:none;stroke:#000000;stroke-width:0.377952"
       d="M -128.50391 0.77734375 C -145.25477 0.77734375 -158.74023 14.093285 -158.74023 30.634766 L -158.74023 245.66992 L -151.18164 245.66992 C -151.18164 241.48221 -147.80881 238.10938 -143.62109 238.10938 C -139.43338 238.10938 -136.0625 241.48221 -136.0625 245.66992 L -136.0625 253.22852 C -136.0625 253.35938 -136.06576 253.48995 -136.07227 253.61914 C -136.13083 254.78188 -136.45021 255.87377 -136.97266 256.83789 C -137.03071 256.94501 -137.0913 257.0504 -137.1543 257.1543 C -137.34329 257.46597 -137.55445 257.76123 -137.78516 258.04102 C -137.93896 258.22754 -138.1007 258.40735 -138.27148 258.57812 C -138.86924 259.17588 -139.56844 259.6743 -140.33984 260.04492 C -140.45004 260.09787 -140.56071 260.14763 -140.67383 260.19531 C -140.78695 260.243 -140.90169 260.28781 -141.01758 260.33008 C -141.13346 260.37235 -141.25065 260.41252 -141.36914 260.44922 C -142.08009 260.66942 -142.8359 260.78711 -143.62109 260.78711 L -158.74023 260.78711 L -158.74023 264.56641 L -170.07812 264.56641 L -170.07812 321.25977 L -158.74023 321.25977 L -158.74023 377.95312 L -22.677734 377.95312 L -22.677734 396.84961 C -22.677734 397.89654 -21.834036 398.74023 -20.787109 398.74023 L 20.787109 398.74023 C 21.834036 398.74023 22.677734 397.89654 22.677734 396.84961 L 22.677734 377.95312 L 158.74023 377.95312 L 158.74023 321.25977 L 170.07812 321.25977 L 170.07812 264.56641 L 158.74023 264.56641 L 158.74023 260.78711 L 143.62109 260.78711 C 139.43338 260.78711 136.0625 257.41623 136.0625 253.22852 L 136.0625 245.66992 C 136.0625 241.48221 139.43338 238.10938 143.62109 238.10938 C 147.80881 238.10938 151.18164 241.48221 151.18164 245.66992 L 158.74023 245.66992 L 158.74023 30.634766 C 158.74023 14.093285 145.25477 0.77734375 128.50391 0.77734375 L -128.50391 0.77734375 z M -124.72461 310.73438 A 23.754465 23.754465 0 0 1 -100.9707 334.48828 A 23.754465 23.754465 0 0 1 -124.72461 358.24219 A 23.754465 23.754465 0 0 1 -148.47852 334.48828 A 23.754465 23.754465 0 0 1 -124.72461 310.73438 z M 124.72461 310.73438 A 23.754465 23.754465 0 0 1 148.47852 334.48828 A 23.754465 23.754465 0 0 1 124.72461 358.24219 A 23.754465 23.754465 0 0 1 100.9707 334.48828 A 23.754465 23.754465 0 0 1 124.72461 310.73438 z "
       transform="scale(0.26458333)" />
  </g>
</svg>
