<?xml version="1.0" encoding="UTF-8" standalone="no"?>
<!-- Created with Inkscape (http://www.inkscape.org/) -->

<svg
   width="100mm"
   height="100mm"
   viewBox="0 0 100 100"
   version="1.1"
   id="svg5"
   inkscape:version="1.1.2 (0a00cf5339, 2022-02-04)"
   sodipodi:docname="bot_side_flat.svg"
   xmlns:inkscape="http://www.inkscape.org/namespaces/inkscape"
   xmlns:sodipodi="http://sodipodi.sourceforge.net/DTD/sodipodi-0.dtd"
   xmlns="http://www.w3.org/2000/svg"
   xmlns:svg="http://www.w3.org/2000/svg">
  <sodipodi:namedview
     id="namedview7"
     pagecolor="#ffffff"
     bordercolor="#666666"
     borderopacity="1.0"
     inkscape:pageshadow="2"
     inkscape:pageopacity="0.0"
     inkscape:pagecheckerboard="0"
     inkscape:document-units="mm"
     showgrid="false"
     inkscape:zoom="1.2935109"
     inkscape:cx="-18.554154"
     inkscape:cy="310.00898"
     inkscape:window-width="2560"
     inkscape:window-height="1382"
     inkscape:window-x="0"
     inkscape:window-y="0"
     inkscape:window-maximized="1"
     inkscape:current-layer="layer1"
     inkscape:snap-bbox="true"
     inkscape:snap-bbox-edge-midpoints="true"
     inkscape:bbox-nodes="true"
     inkscape:bbox-paths="true"
     inkscape:snap-intersection-paths="true"
     inkscape:snap-global="false"
     inkscape:snap-smooth-nodes="true" />
  <defs
     id="defs2" />
  <g
     inkscape:label="Layer 1"
     inkscape:groupmode="layer"
     id="layer1">
    <path
       id="path862"
       style="fill:none;stroke:#000000;stroke-width:0.0999987"
       d="m -39,96.194689 h 7 v 3 h -7 z m 7.766247,-23.194495 c -3.324,0.0034 -5.147503,2.958061 -6.000149,6.39961 -1.490496,6.016114 -4.32082,11.521133 -4.296375,18.188352 0.01318,3.596194 2.676149,7.411634 6.000149,7.411634 H 65.705031 c 3.324,0 6.000152,-2.85401 6.000152,-6.399608 v -3.327445 c 0,-9.950016 -16.961043,-22.272543 -24.096204,-22.272543 H 38.40213 c -0.401982,0.04626 -1.013561,0.199745 -0.690126,0.814422 l 9.899727,11.831873 -2.410889,1.868657 -3.230925,-3.644281 -3.654279,1.751449 -0.855885,-1.872985 -3.031427,0.568804 -1.876438,-10.687595 c -0.307877,-0.663618 -0.525814,-0.58592 -0.783931,-0.695047 z m 0,1.999877 h 1.599904 v 4.999697 h -1.599904 z m 59.433581,0 h 1.60042 v 4.999697 h -1.60042 z M 1.7001546,77.603532 c 0.8283554,1.93e-4 1.4997419,0.671811 1.49965,1.500166 -1.928e-4,0.828154 -0.671496,1.499457 -1.49965,1.49965 -0.82835576,9.3e-5 -1.49997377,-0.671295 -1.50016681,-1.49965 -9.19e-5,-0.828556 0.67160957,-1.500259 1.50016681,-1.500166 z m -19.6633986,4.849833 c 3.037707,-2.43e-4 5.500396,2.462215 5.500439,5.499923 2.42e-4,3.037909 -2.46253,5.500682 -5.500439,5.500439 -3.037708,-4.3e-5 -5.500166,-2.462731 -5.499923,-5.500439 4.2e-5,-3.037507 2.462417,-5.49988 5.499923,-5.499923 z m 29.76304,2.75022 h 3.500045 v 5.499922 h -3.500045 z m -19.3306025,0.749823 c 1.1044748,6.7e-5 1.9998116,0.895406 1.999878,1.99988 2.169e-4,1.104675 -0.8952026,2.000327 -1.999878,2.000393 -1.1046751,-6.9e-5 -2.0000946,-0.895718 -1.9998777,-2.000393 6.64e-5,-1.104474 0.8954029,-1.999811 1.9998777,-1.99988 z m 9.2309611,9.350333 c 0.828154,1.93e-4 1.4994572,0.671497 1.49965,1.49965 9.34e-5,0.828358 -0.6712936,1.499976 -1.49965,1.500169 -0.82855827,9.3e-5 -1.50026017,-0.67161 -1.50016681,-1.500169 1.9304e-4,-0.828355 0.67181105,-1.499743 1.50016681,-1.49965 z m -27.6102006,3.896405 h 19.9998124 v 1.599904 H -25.910046 Z m 35.7750767,0 H 29.865359 v 1.599904 H 9.8650307 Z m 35.7755933,0 h 19.999812 v 1.599904 H 45.640624 Z" />
  </g>
</svg>
