<?xml version="1.0" encoding="UTF-8" standalone="no"?>
<!-- Created with Inkscape (http://www.inkscape.org/) -->

<svg
   width="100mm"
   height="100mm"
   viewBox="0 0 100 100"
   version="1.1"
   id="svg5"
   inkscape:version="1.1.2 (0a00cf5339, 2022-02-04)"
   sodipodi:docname="bot_baseplate_flat.svg"
   xmlns:inkscape="http://www.inkscape.org/namespaces/inkscape"
   xmlns:sodipodi="http://sodipodi.sourceforge.net/DTD/sodipodi-0.dtd"
   xmlns="http://www.w3.org/2000/svg"
   xmlns:svg="http://www.w3.org/2000/svg">
  <sodipodi:namedview
     id="namedview7"
     pagecolor="#ffffff"
     bordercolor="#666666"
     borderopacity="1.0"
     inkscape:pageshadow="2"
     inkscape:pageopacity="0.0"
     inkscape:pagecheckerboard="0"
     inkscape:document-units="mm"
     showgrid="false"
     inkscape:zoom="1.1678314"
     inkscape:cx="-215.78457"
     inkscape:cy="538.60514"
     inkscape:window-width="2560"
     inkscape:window-height="1382"
     inkscape:window-x="0"
     inkscape:window-y="0"
     inkscape:window-maximized="1"
     inkscape:current-layer="layer1"
     inkscape:snap-bbox="true"
     inkscape:snap-bbox-edge-midpoints="true"
     inkscape:bbox-nodes="true"
     inkscape:bbox-paths="true"
     inkscape:snap-intersection-paths="true" />
  <defs
     id="defs2" />
  <g
     inkscape:label="Layer 1"
     inkscape:groupmode="layer"
     id="layer1">
    <path
       id="rect3354"
       style="fill:none;stroke:#000000;stroke-width:0.377951"
       d="M -154.96094 241.14453 C -171.7118 241.14453 -185.19727 254.62999 -185.19727 271.38086 L -185.19727 279.60352 L -196.53516 279.60352 L -196.53516 355.19531 L -185.19727 355.19531 L -185.19727 392.99023 L -196.53516 392.99023 L -196.53516 468.58008 L -185.19727 468.58008 L -185.19727 564.88477 A 185.19685 185.19685 0 0 0 0 750.08203 A 185.19685 185.19685 0 0 0 185.19727 564.88477 L 185.19727 468.58008 L 196.53516 468.58008 L 196.53516 392.99023 L 185.19727 392.99023 L 185.19727 355.19531 L 196.53516 355.19531 L 196.53516 279.60352 L 185.19727 279.60352 L 185.19727 271.38086 C 185.19727 254.62999 171.7118 241.14453 154.96094 241.14453 L -154.96094 241.14453 z M -115.48633 260.03125 L -85.259766 260.03125 L -85.259766 266.07812 L -115.48633 266.07812 L -115.48633 260.03125 z M 85.259766 260.03125 L 115.48633 260.03125 L 115.48633 266.07812 L 85.259766 266.07812 L 85.259766 260.03125 z M 0 290.07812 A 19.84252 19.84252 0 0 1 19.841797 309.92188 A 19.84252 19.84252 0 0 1 0 329.76367 A 19.84252 19.84252 0 0 1 -19.841797 309.92188 A 19.84252 19.84252 0 0 1 0 290.07812 z M -185.19727 400.54883 C -185.19727 401.38051 -185.15508 402.2013 -185.08984 403.01562 L -185.19727 403.01562 L -185.19727 400.54883 z M 185.19727 400.54883 L 185.19727 403.01562 L 185.08984 403.01562 C 185.15508 402.2013 185.19727 401.38051 185.19727 400.54883 z M -115.48633 484.53516 L -85.259766 484.53516 L -85.259766 490.58203 L -115.48633 490.58203 L -115.48633 484.53516 z M 85.259766 484.53516 L 115.48633 484.53516 L 115.48633 490.58203 L 85.259766 490.58203 L 85.259766 484.53516 z M -22.677734 508.42578 L 22.677734 508.42578 L 22.677734 519.76367 L -22.677734 519.76367 L -22.677734 508.42578 z M -22.677734 568.26953 L 22.677734 568.26953 L 22.677734 583.4375 L -22.677734 583.4375 L -22.677734 568.26953 z M -64.251953 680.31445 A 5.6692912 5.6692912 0 0 1 -58.582031 685.98438 A 5.6692912 5.6692912 0 0 1 -64.251953 691.6543 A 5.6692912 5.6692912 0 0 1 -69.921875 685.98438 A 5.6692912 5.6692912 0 0 1 -64.251953 680.31445 z M 64.251953 680.31445 A 5.6692912 5.6692912 0 0 1 69.921875 685.98438 A 5.6692912 5.6692912 0 0 1 64.251953 691.6543 A 5.6692912 5.6692912 0 0 1 58.582031 685.98438 A 5.6692912 5.6692912 0 0 1 64.251953 680.31445 z "
       transform="scale(0.26458333)" />
  </g>
</svg>
