<?xml version="1.0" encoding="UTF-8" standalone="no"?>
<!-- Created with Inkscape (http://www.inkscape.org/) -->

<svg
   width="100mm"
   height="100mm"
   viewBox="0 0 100 100"
   version="1.1"
   id="svg5"
   inkscape:version="1.1.2 (0a00cf5339, 2022-02-04)"
   sodipodi:docname="bot_motorback_flat.svg"
   xmlns:inkscape="http://www.inkscape.org/namespaces/inkscape"
   xmlns:sodipodi="http://sodipodi.sourceforge.net/DTD/sodipodi-0.dtd"
   xmlns="http://www.w3.org/2000/svg"
   xmlns:svg="http://www.w3.org/2000/svg">
  <sodipodi:namedview
     id="namedview7"
     pagecolor="#ffffff"
     bordercolor="#666666"
     borderopacity="1.0"
     inkscape:pageshadow="2"
     inkscape:pageopacity="0.0"
     inkscape:pagecheckerboard="0"
     inkscape:document-units="mm"
     showgrid="false"
     inkscape:zoom="3.2107754"
     inkscape:cx="-15.884014"
     inkscape:cy="337.92461"
     inkscape:window-width="2560"
     inkscape:window-height="1382"
     inkscape:window-x="0"
     inkscape:window-y="0"
     inkscape:window-maximized="1"
     inkscape:current-layer="layer1"
     inkscape:snap-page="true"
     inkscape:snap-global="true"
     inkscape:snap-bbox="true"
     inkscape:snap-bbox-midpoints="true"
     inkscape:bbox-paths="true"
     inkscape:bbox-nodes="true"
     inkscape:snap-bbox-edge-midpoints="false"
     inkscape:snap-intersection-paths="true"
     inkscape:object-paths="true" />
  <defs
     id="defs2" />
  <g
     inkscape:label="Layer 1"
     inkscape:groupmode="layer"
     id="layer1">
    <path
       id="rect1416"
       style="fill:none;stroke:#000000;stroke-width:0.377952"
       d="M -11.337891 270.23633 C -13.105833 270.23633 -14.514745 271.4632 -14.931641 273.09766 C -12.92971 273.17381 -11.337891 274.38523 -11.337891 275.90625 C -11.337891 277.47664 -13.023329 278.74023 -15.117188 278.74023 L -15.117188 285.35352 C -15.117187 286.40044 -15.960886 287.24414 -17.007812 287.24414 L -58.582031 287.24414 C -59.628958 287.24414 -60.472656 286.40044 -60.472656 285.35352 L -60.472656 276.2832 L -151.18164 276.2832 C -155.24179 276.2832 -158.52386 279.45522 -158.7207 283.46484 L -167.24414 283.46484 C -167.24414 285.5587 -168.50774 287.24414 -170.07812 287.24414 C -171.59915 287.24414 -172.81056 285.65232 -172.88672 283.65039 C -174.52119 284.06729 -175.74805 285.4762 -175.74805 287.24414 L -175.74805 298.58203 C -175.74805 300.34997 -174.52119 301.75889 -172.88672 302.17578 C -172.81056 300.17385 -171.59915 298.58203 -170.07812 298.58203 C -168.50774 298.58203 -167.24414 300.26747 -167.24414 302.36133 L -158.74023 302.36133 L -158.74023 308.04102 L -158.74023 374.92969 L -115.48828 374.92969 L -115.48828 384.58984 C -115.48828 385.63677 -114.64458 386.48047 -113.59766 386.48047 L -87.150391 386.48047 C -86.103464 386.48047 -85.259766 385.63677 -85.259766 384.58984 L -85.259766 374.92969 L 85.259766 374.92969 L 85.259766 384.58984 C 85.259766 385.63677 86.103464 386.48047 87.150391 386.48047 L 113.59766 386.48047 C 114.64458 386.48047 115.48828 385.63677 115.48828 384.58984 L 115.48828 374.92969 L 158.74023 374.92969 L 158.74023 302.36133 L 167.24414 302.36133 C 167.24414 300.26747 168.50774 298.58203 170.07812 298.58203 C 171.59915 298.58203 172.81056 300.17385 172.88672 302.17578 C 174.52119 301.75889 175.74805 300.34997 175.74805 298.58203 L 175.74805 287.24414 C 175.74805 285.4762 174.52119 284.06729 172.88672 283.65039 C 172.81056 285.65232 171.59915 287.24414 170.07812 287.24414 C 168.50774 287.24414 167.24414 285.5587 167.24414 283.46484 L 158.7207 283.46484 C 158.52386 279.45522 155.24179 276.2832 151.18164 276.2832 L 60.472656 276.2832 L 60.472656 285.35352 C 60.472656 286.40044 59.628958 287.24414 58.582031 287.24414 L 17.007812 287.24414 C 15.960886 287.24414 15.117187 286.40044 15.117188 285.35352 L 15.117188 278.74023 C 13.023329 278.74023 11.337891 277.47664 11.337891 275.90625 C 11.337891 274.38523 12.92971 273.17381 14.931641 273.09766 C 14.514745 271.4632 13.105833 270.23633 11.337891 270.23633 L -11.337891 270.23633 z M -125.85742 322.01562 L -114.51953 322.01562 L -114.51953 340.91406 L -125.85742 340.91406 L -125.85742 322.01562 z M 114.51953 322.01562 L 125.85742 322.01562 L 125.85742 340.91406 L 114.51953 340.91406 L 114.51953 322.01562 z "
       transform="scale(0.26458333)" />
  </g>
</svg>
