<?xml version="1.0" encoding="UTF-8" standalone="no"?>
<!-- Created with Inkscape (http://www.inkscape.org/) -->

<svg
   width="100mm"
   height="100mm"
   viewBox="0 0 100 100"
   version="1.1"
   id="svg5"
   inkscape:version="1.1.2 (0a00cf5339, 2022-02-04)"
   sodipodi:docname="bot_side.svg"
   xmlns:inkscape="http://www.inkscape.org/namespaces/inkscape"
   xmlns:sodipodi="http://sodipodi.sourceforge.net/DTD/sodipodi-0.dtd"
   xmlns="http://www.w3.org/2000/svg"
   xmlns:svg="http://www.w3.org/2000/svg">
  <sodipodi:namedview
     id="namedview7"
     pagecolor="#ffffff"
     bordercolor="#666666"
     borderopacity="1.0"
     inkscape:pageshadow="2"
     inkscape:pageopacity="0.0"
     inkscape:pagecheckerboard="0"
     inkscape:document-units="mm"
     showgrid="false"
     inkscape:zoom="1.9879163"
     inkscape:cx="166.75753"
     inkscape:cy="546.04916"
     inkscape:window-width="2560"
     inkscape:window-height="1409"
     inkscape:window-x="2560"
     inkscape:window-y="0"
     inkscape:window-maximized="1"
     inkscape:current-layer="layer1"
     inkscape:snap-bbox="true"
     inkscape:snap-bbox-edge-midpoints="true"
     inkscape:bbox-nodes="true"
     inkscape:bbox-paths="true"
     inkscape:snap-intersection-paths="true"
     inkscape:snap-global="false" />
  <defs
     id="defs2" />
  <g
     inkscape:label="Layer 1"
     inkscape:groupmode="layer"
     id="layer1">
    <path
       id="rect635"
       style="fill:none;stroke:#000000;stroke-width:0.0999989"
       d="m -31.234,75 78.842766,0 c 7.135162,0 24.096445,11.552777 24.096445,20.880916 v 3.119086 C 71.705211,102.324 69.02921,105 65.70521,105 l -96.93921,0 c -3.324001,0 -6.000001,-2.676 -6.000001,-5.999998 V 81 c 0,-3.324 2.676,-6 6.000001,-6 z"
       sodipodi:nodetypes="sssssssss" />
    <rect
       style="fill:none;stroke:#ff0000;stroke-width:0.1"
       id="rect3931"
       width="1.6"
       height="20"
       x="99.199997"
       y="-25.910233"
       transform="matrix(0,1,1,0,0,0)" />
    <rect
       style="fill:none;stroke:#ff0000;stroke-width:0.1"
       id="rect4035"
       width="1.6"
       height="20"
       x="99.199997"
       y="9.8652239"
       transform="matrix(0,1,1,0,0,0)" />
    <circle
       style="fill:none;stroke:#ff0000;stroke-width:0.1"
       id="path227"
       cx="-7.5307269"
       cy="87.953522"
       r="2" />
    <circle
       style="fill:none;stroke:#ff0000;stroke-width:0.1"
       id="circle309"
       cx="-17.963032"
       cy="87.953522"
       r="5.5" />
    <rect
       style="fill:none;stroke:#ff0000;stroke-width:0.1"
       id="rect468"
       width="3.5"
       height="5.5"
       x="11.8"
       y="85.203522" />
    <circle
       style="fill:none;stroke:#ff0000;stroke-width:0.1"
       id="path761"
       cx="1.7"
       cy="79.10347"
       r="1.5" />
    <circle
       style="fill:none;stroke:#ff0000;stroke-width:0.1"
       id="circle915"
       cx="1.7"
       cy="96.803574"
       r="1.5" />
    <rect
       style="fill:none;stroke:#ff0000;stroke-width:0.1"
       id="rect15"
       width="1.6"
       height="5"
       x="-31.233999"
       y="75" />
    <rect
       style="fill:none;stroke:#ff0000;stroke-width:0.1"
       id="rect44"
       width="1.6"
       height="5"
       x="28.200001"
       y="75" />
    <path
       style="fill:none;stroke:#ff0000;stroke-width:0.1;stroke-linecap:butt;stroke-linejoin:miter;stroke-opacity:1;stroke-miterlimit:4;stroke-dasharray:none"
       d="m 35.652579,74.912439 4.914176,0.01846 c -0.40944,0.02561 -1.079587,0.193777 -0.714901,0.886846 l 4.452556,9.130762 h -8.455268 l 0.03854,-9.250072 C 35.552674,74.976338 35.327918,75.143353 35.037585,74.9789 Z"
       id="path211"
       sodipodi:nodetypes="cccccccc" />
    <rect
       style="fill:none;stroke:#ff0000;stroke-width:0.1;stroke-miterlimit:4;stroke-dasharray:none"
       id="rect1147"
       width="3"
       height="4"
       x="45.652557"
       y="78" />
    <rect
       style="fill:none;stroke:#ff0000;stroke-width:0.0999996"
       id="rect1149"
       width="3"
       height="4"
       x="12.820696"
       y="98.476631"
       transform="rotate(-25.805745)" />
    <rect
       style="fill:none;stroke:#ff0000;stroke-width:0.1"
       id="rect2576"
       width="1.6"
       height="20"
       x="99.199997"
       y="45.640682"
       transform="matrix(0,1,1,0,0,0)" />
  </g>
</svg>
