<?xml version="1.0" encoding="UTF-8" standalone="no"?>
<!-- Created with Inkscape (http://www.inkscape.org/) -->

<svg
   width="100mm"
   height="100mm"
   viewBox="0 0 100 100"
   version="1.1"
   id="svg5"
   inkscape:version="1.1.2 (0a00cf5339, 2022-02-04)"
   sodipodi:docname="bot_side.svg"
   xmlns:inkscape="http://www.inkscape.org/namespaces/inkscape"
   xmlns:sodipodi="http://sodipodi.sourceforge.net/DTD/sodipodi-0.dtd"
   xmlns="http://www.w3.org/2000/svg"
   xmlns:svg="http://www.w3.org/2000/svg">
  <sodipodi:namedview
     id="namedview7"
     pagecolor="#ffffff"
     bordercolor="#666666"
     borderopacity="1.0"
     inkscape:pageshadow="2"
     inkscape:pageopacity="0.0"
     inkscape:pagecheckerboard="0"
     inkscape:document-units="mm"
     showgrid="false"
     inkscape:zoom="3.1966888"
     inkscape:cx="129.50901"
     inkscape:cy="291.55169"
     inkscape:window-width="2560"
     inkscape:window-height="1382"
     inkscape:window-x="0"
     inkscape:window-y="0"
     inkscape:window-maximized="1"
     inkscape:current-layer="layer1"
     inkscape:snap-bbox="true"
     inkscape:snap-bbox-edge-midpoints="true"
     inkscape:bbox-nodes="true"
     inkscape:bbox-paths="true"
     inkscape:snap-intersection-paths="true"
     inkscape:snap-global="true"
     inkscape:snap-smooth-nodes="true" />
  <defs
     id="defs2" />
  <g
     inkscape:label="Layer 1"
     inkscape:groupmode="layer"
     id="layer1">
    <path
       id="rect635"
       style="fill:none;stroke:#000000;stroke-width:0.0999989"
       d="m -31.234,73 h 78.842766 c 7.135162,0 24.096445,12.322962 24.096445,22.272977 v 3.32703 C 71.705211,102.1456 69.02921,105 65.70521,105 H -31.234 c -3.324001,0 -6.000001,-2.8544 -6.000001,-6.399993 V 79.4 c 0,-3.5456 2.676,-6.4 6.000001,-6.4 z"
       sodipodi:nodetypes="sssssssss" />
    <rect
       style="fill:none;stroke:#ff0000;stroke-width:0.1"
       id="rect3931"
       width="1.6"
       height="20"
       x="99.199997"
       y="-25.910233"
       transform="matrix(0,1,1,0,0,0)" />
    <rect
       style="fill:none;stroke:#ff0000;stroke-width:0.1"
       id="rect4035"
       width="1.6"
       height="20"
       x="99.199997"
       y="9.8652239"
       transform="matrix(0,1,1,0,0,0)" />
    <circle
       style="fill:none;stroke:#ff0000;stroke-width:0.1"
       id="path227"
       cx="-7.5307269"
       cy="87.953522"
       r="2" />
    <circle
       style="fill:none;stroke:#ff0000;stroke-width:0.1"
       id="circle309"
       cx="-17.963032"
       cy="87.953522"
       r="5.5" />
    <rect
       style="fill:none;stroke:#ff0000;stroke-width:0.1"
       id="rect468"
       width="3.5"
       height="5.5"
       x="11.8"
       y="85.203522" />
    <circle
       style="fill:none;stroke:#ff0000;stroke-width:0.1"
       id="path761"
       cx="1.7"
       cy="79.10347"
       r="1.5" />
    <circle
       style="fill:none;stroke:#ff0000;stroke-width:0.1"
       id="circle915"
       cx="1.7"
       cy="96.803574"
       r="1.5" />
    <rect
       style="fill:none;stroke:#ff0000;stroke-width:0.1"
       id="rect15"
       width="1.6"
       height="5"
       x="-31.233999"
       y="75" />
    <rect
       style="fill:none;stroke:#ff0000;stroke-width:0.1"
       id="rect44"
       width="1.6"
       height="5"
       x="28.200001"
       y="75" />
    <rect
       style="fill:none;stroke:#ff0000;stroke-width:0.1"
       id="rect2576"
       width="1.6"
       height="20"
       x="99.199997"
       y="45.640682"
       transform="matrix(0,1,1,0,0,0)" />
    <path
       id="rect635-3"
       style="fill:none;stroke:#ff0000;stroke-width:0.099999"
       d="m 26.962283,71.105778 20.412437,0.193924 -8.972837,1.700421 c -0.401982,0.04626 -1.013561,0.199744 -0.690126,0.814421 l 9.899727,11.831873 -2.410889,1.868657 -3.230925,-3.644281 -3.654279,1.751449 -0.855885,-1.872985 -3.031427,0.568804 -1.876438,-10.687595 c -0.307877,-0.663617 -0.525814,-0.58592 -0.783931,-0.695047 z"
       sodipodi:nodetypes="ccccccccccccc" />
  </g>
</svg>
