<?xml version="1.0" encoding="UTF-8" standalone="no"?>
<!-- Created with Inkscape (http://www.inkscape.org/) -->

<svg
   width="100mm"
   height="100mm"
   viewBox="0 0 100 100"
   version="1.1"
   id="svg5"
   inkscape:version="1.1.2 (0a00cf5339, 2022-02-04)"
   sodipodi:docname="bot_topplate_flat.svg"
   xmlns:inkscape="http://www.inkscape.org/namespaces/inkscape"
   xmlns:sodipodi="http://sodipodi.sourceforge.net/DTD/sodipodi-0.dtd"
   xmlns="http://www.w3.org/2000/svg"
   xmlns:svg="http://www.w3.org/2000/svg">
  <sodipodi:namedview
     id="namedview7"
     pagecolor="#ffffff"
     bordercolor="#666666"
     borderopacity="1.0"
     inkscape:pageshadow="2"
     inkscape:pageopacity="0.0"
     inkscape:pagecheckerboard="0"
     inkscape:document-units="mm"
     showgrid="false"
     inkscape:zoom="1.4256464"
     inkscape:cx="-193.5964"
     inkscape:cy="378.42484"
     inkscape:window-width="2560"
     inkscape:window-height="1409"
     inkscape:window-x="2560"
     inkscape:window-y="0"
     inkscape:window-maximized="1"
     inkscape:current-layer="layer1"
     inkscape:snap-bbox="true"
     inkscape:snap-bbox-edge-midpoints="true"
     inkscape:bbox-nodes="true"
     inkscape:bbox-paths="true"
     inkscape:snap-intersection-paths="true"
     inkscape:snap-global="true" />
  <defs
     id="defs2" />
  <g
     inkscape:label="Layer 1"
     inkscape:groupmode="layer"
     id="layer1">
    <path
       id="rect1756"
       style="fill:none;stroke:#000000;stroke-width:0.377951"
       d="M -41.574219 253.44727 C -49.949652 253.44727 -56.693359 260.19097 -56.693359 268.56641 L -56.693359 483.86914 C -56.693359 492.24457 -49.949652 498.98828 -41.574219 498.98828 L 41.574219 498.98828 C 49.949652 498.98828 56.693359 492.24457 56.693359 483.86914 L 56.693359 268.56641 C 56.693359 260.19097 49.949652 253.44727 41.574219 253.44727 L -41.574219 253.44727 z M -15.117188 259.6543 L 15.117188 259.6543 L 15.117188 265.70117 L -15.117188 265.70117 L -15.117188 259.6543 z M 0 286.29883 A 23.433072 23.433072 0 0 1 23.433594 309.73242 A 23.433072 23.433072 0 0 1 0 333.16602 A 23.433072 23.433072 0 0 1 -23.433594 309.73242 A 23.433072 23.433072 0 0 1 0 286.29883 z M -15.117188 484.53516 L 15.117188 484.53516 L 15.117188 490.58203 L -15.117188 490.58203 L -15.117188 484.53516 z "
       transform="scale(0.26458333)" />
  </g>
</svg>
